<?xml version="1.0" encoding="utf-8"?>
<!-- Generator: Adobe Illustrator 23.0.0, SVG Export Plug-In . SVG Version: 6.00 Build 0)  -->
<svg version="1.1" id="Layer_1" xmlns="http://www.w3.org/2000/svg" xmlns:xlink="http://www.w3.org/1999/xlink" x="0px" y="0px"
	 viewBox="0 0 500 500" style="enable-background:new 0 0 500 500;" xml:space="preserve">
<style type="text/css">
	.st0{fill:#83E1E5;}
	.st1{fill:#AAB1BA;}
	.st2{fill:#FDDF7F;}
	.st3{fill:#ECF4F7;}
	.st4{fill:#1C1D21;}
</style>
<g>
	<g>
		<path class="st0" d="M351.134,472.293l-38.14-116.454c-16.919,14.55-38.929,23.346-62.994,23.346s-46.074-8.796-62.994-23.346
			l-38.14,116.454C144.43,485.839,131.791,495,117.536,495h264.928C368.21,495,355.571,485.839,351.134,472.293z"/>
	</g>
</g>
<g>
	<g>
		<path class="st2" d="M380.771,375.292l-16.829-38.793c-2.206-5.085-3.345-10.57-3.345-16.113V290.81
			c0-8.296-1.676-16.505-4.928-24.137l-15.185-35.637c-2.182-5.12-7.21-8.443-12.776-8.443l-1.853,0
			c-17.705-22.381-45.102-36.744-75.855-36.744s-58.15,14.363-75.855,36.744l-1.853,0c-5.566,0-10.594,3.323-12.776,8.443
			l-15.185,35.637c-3.252,7.632-4.928,15.842-4.928,24.137v29.575c0,5.543-1.138,11.028-3.345,16.113l-16.829,38.793H84.533v87.644
			l0.021-0.038C85.002,479.93,98.856,495,117.536,495h0c14.254,0,26.894-9.161,31.33-22.707l38.14-116.454
			c16.919,14.55,38.929,23.346,62.994,23.346s46.074-8.796,62.994-23.346l38.14,116.454C355.571,485.839,368.21,495,382.464,495h0
			c18.68,0,32.534-15.07,32.983-32.102l0.021,0.038v-87.644H380.771z"/>
	</g>
</g>
<g>
	<g>
		<path class="st0" d="M139.404,299.226h-6.64c-26.637,0-48.231,21.594-48.231,48.232v27.834h34.698l16.829-38.793
			c0.552-1.271,1.036-2.568,1.453-3.884s0.766-2.651,1.046-4.001c0.56-2.7,0.845-5.457,0.845-8.229L139.404,299.226L139.404,299.226
			z"/>
	</g>
</g>
<g>
	<g>
		<path class="st0" d="M367.237,299.226h-6.64h0v21.159c0,2.772,0.285,5.529,0.845,8.229c0.28,1.35,0.629,2.685,1.046,4.001
			s0.902,2.612,1.453,3.884l16.829,38.793h34.698v-27.834C415.468,320.82,393.874,299.226,367.237,299.226z"/>
	</g>
</g>
<g>
	<g>
		<path class="st1" d="M269.688,40.775h-6.354V26.664h-26.667v14.111h-6.354c-5.997,0-10.858,4.861-10.858,10.858v100.275
			c0,4.681,3.795,8.477,8.476,8.477h44.14c4.681,0,8.476-3.795,8.476-8.477V51.634C280.547,45.637,275.685,40.775,269.688,40.775z"
			/>
	</g>
</g>
<g>
	<g>
		<rect x="219.454" y="76.722" class="st3" width="61.092" height="43.82"/>
	</g>
</g>
<g>
	<g>
		<path class="st2" d="M258.908,5h-17.816c-2.444,0-4.426,1.981-4.426,4.426v17.238h26.667V9.426C263.334,6.981,261.353,5,258.908,5
			z"/>
	</g>
</g>
<g>
	<g>
		<path class="st2" d="M368.843,52.878H331.6c-1.919,0-3.474,1.555-3.474,3.474v98.422c0,1.919,1.556,3.474,3.474,3.474h37.244
			c1.919,0,3.474-1.555,3.474-3.474V56.353C372.318,54.434,370.762,52.878,368.843,52.878z"/>
	</g>
</g>
<g>
	<g>
		<path class="st1" d="M328.125,138.763v16.011c0,1.919,1.556,3.474,3.474,3.474h37.244c1.919,0,3.474-1.555,3.474-3.474v-16.011
			H328.125z"/>
	</g>
</g>
<g>
	<g>
		<rect x="338.388" y="158.249" class="st3" width="23.668" height="35.217"/>
	</g>
</g>
<g>
	<g>
		<rect x="338.388" y="31.19" class="st3" width="23.668" height="21.689"/>
	</g>
</g>
<g>
	<g>
		<path class="st3" d="M164.317,39.56h-18.622c-1.919,0-3.474,1.556-3.474,3.474V162.24h25.57V43.034
			C167.791,41.115,166.236,39.56,164.317,39.56z"/>
	</g>
</g>
<g>
	<g>
		<path class="st2" d="M164.317,39.56h-18.622c-1.919,0-3.474,1.556-3.474,3.474v21.581h25.57V43.034
			C167.791,41.115,166.236,39.56,164.317,39.56z"/>
	</g>
</g>
<g>
	<g>
		<path class="st1" d="M142.221,162.24v27.751c0,1.919,1.556,3.474,3.474,3.474h18.622c1.919,0,3.474-1.556,3.474-3.474V162.24
			H142.221z"/>
	</g>
</g>
<path class="st4" d="M92.474,234.127c0-2.761,2.239-5,5-5h6.535v-6.535c0-2.761,2.239-5,5-5s5,2.239,5,5v6.535h6.535
	c2.761,0,5,2.239,5,5s-2.239,5-5,5h-6.535v6.534c0,2.761-2.239,5-5,5s-5-2.239-5-5v-6.534h-6.535
	C94.712,239.127,92.474,236.889,92.474,234.127z M374.458,234.127c0,2.761,2.238,5,5,5h6.534v6.534c0,2.761,2.238,5,5,5s5-2.239,5-5
	v-6.534h6.535c2.762,0,5-2.239,5-5s-2.238-5-5-5h-6.535v-6.535c0-2.761-2.238-5-5-5s-5,2.239-5,5v6.535h-6.534
	C376.696,229.127,374.458,231.366,374.458,234.127z M250,341.445c-8.972,0-17.313,4.04-22.885,11.084
	c-1.713,2.166-1.346,5.31,0.819,7.023c2.167,1.714,5.31,1.346,7.023-0.819c3.664-4.632,9.147-7.288,15.042-7.288
	c5.896,0,11.378,2.656,15.042,7.288c0.987,1.248,2.449,1.898,3.925,1.898c1.087,0,2.181-0.353,3.099-1.079
	c2.166-1.713,2.533-4.858,0.82-7.023C267.313,345.485,258.973,341.445,250,341.445z M52.151,490h-3.813c-2.761,0-5,2.239-5,5
	s2.239,5,5,5h3.813c2.761,0,5-2.239,5-5S54.912,490,52.151,490z M435.69,495c0,2.761-2.238,5-5,5h-90.144c-2.762,0-5-2.239-5-5
	s2.238-5,5-5h16.213c-4.674-4.298-8.298-9.802-10.378-16.151l-35.906-109.636c-17.437,12.913-38.634,19.971-60.475,19.971
	c-21.841,0-43.039-7.059-60.475-19.971l-35.907,109.635c-2.079,6.349-5.704,11.852-10.377,16.151h16.213c2.761,0,5,2.239,5,5
	s-2.239,5-5,5H69.311c-2.761,0-5-2.239-5-5s2.239-5,5-5h22.423c-7.149-6.583-11.74-15.905-12.161-26.427
	c-0.027-0.209-0.041-0.421-0.041-0.636v-87.644c0-0.071,0.018-0.137,0.021-0.207l-0.021-27.624
	c0-29.355,23.879-53.235,53.231-53.235h1.64v-3.416c0-9.019,1.792-17.799,5.328-26.097l15.185-35.637
	c2.901-6.809,9.471-11.254,16.836-11.463c19.406-23.394,47.783-36.764,78.248-36.764s58.842,13.371,78.248,36.764
	c7.364,0.208,13.935,4.654,16.836,11.463l15.185,35.637c3.535,8.297,5.328,17.077,5.328,26.097v3.416h1.64
	c29.353,0,53.232,23.88,53.232,53.231v27.834v87.644c0,0.218-0.014,0.434-0.042,0.646c-0.424,10.519-5.013,19.837-12.16,26.418
	h22.424C433.452,490,435.69,492.239,435.69,495z M365.597,304.226v16.159c0,4.887,0.986,9.639,2.932,14.124l15.523,35.783h26.417
	v-22.834c0-23.838-19.394-43.231-43.232-43.231H365.597z M89.533,347.458l0.017,22.834h26.399l15.523-35.783
	c1.945-4.484,2.932-9.236,2.932-14.124v-16.159h-1.64C108.926,304.226,89.533,323.62,89.533,347.458z M182.253,354.289
	c0.001-0.002,0.001-0.004,0.001-0.006l4.358-13.306c2.822-8.616,4.252-17.583,4.252-26.65V290.81c0-9.02,1.793-17.8,5.329-26.097
	l8.971-21.055c1.546-3.629,1.186-7.597-0.989-10.888c-2.175-3.291-5.684-5.178-9.628-5.178h-20.402c-0.001,0-0.002,0-0.003,0
	l-1.849,0c-3.569,0-6.778,2.121-8.176,5.403l-15.185,35.637c-3.004,7.051-4.528,14.513-4.528,22.177v29.575
	c0,6.264-1.264,12.355-3.758,18.103l-16.829,38.793c0,0-0.001,0.001-0.001,0.002l-15.595,35.948
	c-0.818,1.885-2.658,3.011-4.589,3.011c-0.664,0-1.339-0.133-1.987-0.414c-2.534-1.099-3.696-4.043-2.597-6.577l12.564-28.96H89.533
	v82.148c0.01,0.108,0.017,0.217,0.019,0.326C89.954,478.038,102.246,490,117.537,490c12.124,0,22.805-7.741,26.579-19.263
	L182.253,354.289z M307.184,354.162l-3.299-10.073c-3.151-9.623-4.75-19.636-4.75-29.763V290.81c0-7.665-1.523-15.127-4.527-22.177
	l-8.971-21.055c-2.844-6.673-2.153-14.27,1.846-20.321c3.999-6.052,10.718-9.664,17.972-9.664h9.271
	c-17.115-17.114-40.169-26.744-64.724-26.744s-47.609,9.631-64.724,26.744h9.271c7.253,0,13.972,3.613,17.971,9.664
	c4,6.052,4.689,13.648,1.847,20.321l-8.971,21.055c-3.005,7.051-4.528,14.513-4.528,22.177v23.516c0,10.127-1.598,20.14-4.75,29.763
	l-3.299,10.073c16.195,12.935,36.372,20.023,57.184,20.023C270.812,374.185,290.988,367.097,307.184,354.162z M382.465,490
	c15.29,0,27.582-11.962,27.984-27.234c0.003-0.112,0.01-0.223,0.02-0.333v-82.142h-22.074l12.563,28.96
	c1.099,2.533-0.063,5.478-2.597,6.577c-0.648,0.281-1.323,0.414-1.987,0.414c-1.933,0-3.772-1.126-4.59-3.011l-15.574-35.899
	c-0.008-0.018-0.019-0.033-0.027-0.051l-16.829-38.793c-2.493-5.749-3.758-11.839-3.758-18.104V290.81
	c0-7.665-1.523-15.127-4.527-22.177l-15.185-35.637c-1.398-3.282-4.607-5.403-8.176-5.403l-1.85,0c-0.001,0-0.002,0-0.003,0h-20.401
	c-3.944,0-7.454,1.887-9.629,5.178c-2.175,3.291-2.535,7.259-0.989,10.887l8.971,21.055c3.535,8.297,5.328,17.077,5.328,26.097
	v23.516c0,9.067,1.431,18.033,4.254,26.65l4.357,13.306l38.14,116.454C359.659,482.259,370.341,490,382.465,490z M451.663,490
	h-3.813c-2.762,0-5,2.239-5,5s2.238,5,5,5h3.813c2.762,0,5-2.239,5-5S454.425,490,451.663,490z M214.455,120.547
	c0-0.002,0-0.003,0-0.005v-43.82c0-0.002,0-0.003,0-0.005V51.634c0-8.744,7.114-15.858,15.858-15.858h1.354v-9.111V9.426
	c0-5.197,4.229-9.426,9.426-9.426h17.815c5.197,0,9.426,4.228,9.426,9.426v17.238v9.111h1.354c8.744,0,15.858,7.114,15.858,15.858
	v25.089v43.82v31.367c0,7.431-6.046,13.477-13.477,13.477h-44.14c-7.431,0-13.476-6.046-13.476-13.477V120.547z M275.547,81.722
	h-51.092v33.82h51.092V81.722z M275.547,151.909v-26.367h-51.092v26.367c0,1.917,1.56,3.477,3.476,3.477h44.14
	C273.987,155.385,275.547,153.826,275.547,151.909z M241.667,21.664h16.667V10h-16.667V21.664z M224.455,51.634v20.089h51.092
	V51.634c0-3.23-2.628-5.858-5.858-5.858h-6.354c-2.762,0-5-2.239-5-5v-9.111h-16.667v9.111c0,2.761-2.239,5-5,5h-6.354
	C227.083,45.775,224.455,48.403,224.455,51.634z M333.388,188.466v-25.217H331.6c-4.673,0-8.475-3.802-8.475-8.474V56.353
	c0-4.673,3.802-8.474,8.475-8.474h1.788V31.19c0-2.761,2.238-5,5-5h6.952V5c0-2.761,2.238-5,5-5s5,2.239,5,5v21.19h6.716
	c2.762,0,5,2.239,5,5v16.689h1.788c4.673,0,8.474,3.802,8.474,8.474v98.422c0,4.673-3.801,8.474-8.474,8.474h-1.788v25.217h5.262
	c2.762,0,5,2.239,5,5s-2.238,5-5,5h-10.262h-23.668h-10.263c-2.762,0-5-2.239-5-5s2.238-5,5-5H333.388z M343.388,47.878h13.668
	V36.19h-13.668V47.878z M333.125,57.878v18h7.674c2.762,0,5,2.239,5,5s-2.238,5-5,5h-7.674v20.409h7.674c2.762,0,5,2.239,5,5
	s-2.238,5-5,5h-7.674v17.476h34.192V57.878h-5.262h-23.668H333.125z M333.125,153.249h5.263h23.668h5.262v-9.486h-34.192V153.249z
	 M343.388,188.466h13.668v-25.217h-13.668V188.466z M137.221,189.991V162.24V64.615V43.034c0-4.673,3.801-8.474,8.474-8.474h18.622
	c4.673,0,8.474,3.802,8.474,8.474v21.581v97.625v27.751c0,4.673-3.801,8.474-8.474,8.474h-18.622
	C141.022,198.466,137.221,194.664,137.221,189.991z M147.221,59.615h15.57V44.56h-15.57V59.615z M147.221,69.615v87.625h15.57
	V69.615H147.221z M162.791,167.24h-15.57v21.226h15.57V167.24z M144.938,28.599c2.761,0,5-2.239,5-5V5c0-2.761-2.239-5-5-5
	s-5,2.239-5,5v18.599C139.938,26.361,142.177,28.599,144.938,28.599z M165.073,28.599c2.761,0,5-2.239,5-5V5c0-2.761-2.239-5-5-5
	s-5,2.239-5,5v18.599C160.073,26.361,162.312,28.599,165.073,28.599z"/>
</svg>
