<?xml version="1.0" encoding="utf-8"?>
<!-- Generator: Adobe Illustrator 23.0.0, SVG Export Plug-In . SVG Version: 6.00 Build 0)  -->
<svg version="1.1" id="Layer_1" xmlns="http://www.w3.org/2000/svg" xmlns:xlink="http://www.w3.org/1999/xlink" x="0px" y="0px"
	 viewBox="0 0 500 500" style="enable-background:new 0 0 500 500;" xml:space="preserve">
<style type="text/css">
	.st0{fill:#83E1E5;}
	.st1{fill:#AAB1BA;}
	.st2{fill:#FDDF7F;}
	.st3{fill:#ECF4F7;}
	.st4{fill:#1C1D21;}
</style>
<path class="st3" d="M442.748,222.904c-48.883-25.857-60.339-90.829-23.248-131.847l0,0l0,0
	C365.432,102.67,314.893,60.263,316.941,5l0,0l0,0c-33.954,43.65-99.928,43.65-133.881,0l0,0l0,0
	c2.048,55.263-48.491,97.67-102.559,86.058l0,0l0,0c37.091,41.018,25.635,105.989-23.248,131.847l0,0l0,0
	c24.585,3.402,44.775,16.789,57.686,35.141h28.477c8.214,0,14.934,6.342,15.563,14.394h46.34
	c-34.195-16.626-57.77-51.738-57.77-92.369c0-56.675,45.869-102.619,102.451-102.619c56.582,0,102.451,45.944,102.451,102.619
	c0,40.631-23.575,75.743-57.77,92.369h46.34c0.63-8.052,7.35-14.394,15.563-14.394h28.477
	C397.973,239.693,418.163,226.307,442.748,222.904L442.748,222.904L442.748,222.904z"/>
<g>
	<path class="st0" d="M361.623,384.546v-52.911c-11.554-0.854-20.664-10.49-20.664-22.263v-35.701c0-0.416,0.03-0.824,0.062-1.232
		H294.68c-13.504,6.565-28.662,10.251-44.68,10.251s-31.177-3.686-44.681-10.251h-46.34c0.032,0.408,0.062,0.816,0.062,1.232v35.701
		c0,11.772-9.111,21.409-20.664,22.263v52.911H84.424V495h53.953v-0.094h223.246V495h53.953V384.546H361.623z"/>
</g>
<path class="st2" d="M431.618,285.335h-12.875v-11.664c0-8.63-6.996-15.626-15.626-15.626h-46.533
	c-8.214,0-14.934,6.342-15.563,14.394c-0.032,0.408-0.062,0.816-0.062,1.232v35.701c0,3.679,0.89,7.149,2.466,10.208
	c0.315,0.612,0.658,1.207,1.026,1.784c3.685,5.772,9.951,9.737,17.172,10.271v52.911h53.953v-52.843l4.374-0.068
	c11.554-0.854,20.665-10.49,20.665-22.263v-15.041C440.615,289.363,436.587,285.335,431.618,285.335z"/>
<path class="st2" d="M158.979,272.438c-0.63-8.052-7.35-14.394-15.563-14.394H96.883c-8.63,0-15.626,6.996-15.626,15.626v11.664
	H68.382c-4.969,0-8.996,4.028-8.996,8.996v15.041c0,11.772,9.111,21.409,20.665,22.263l4.374,0.068v52.843h53.953v-52.911
	c7.221-0.533,13.488-4.498,17.172-10.271c0.368-0.577,0.711-1.172,1.026-1.784c1.576-3.059,2.466-6.529,2.466-10.208v-35.701
	C159.041,273.255,159.011,272.847,158.979,272.438z"/>
<g>
	<g>
		<ellipse class="st2" cx="250" cy="180.07" rx="102.451" ry="102.62"/>
	</g>
</g>
<g>
	<circle class="st1" cx="250" cy="219.481" r="39.412"/>
</g>
<g>
	<path class="st3" d="M287.11,206.196c-5.453-15.229-20.006-26.127-37.11-26.127s-31.658,10.898-37.11,26.127H287.11z"/>
</g>
<path class="st4" d="M52.328,223.772c-0.377-2.137,0.668-4.273,2.586-5.288c21.926-11.598,36.971-32.259,41.278-56.687
	c4.307-24.427-2.765-48.988-19.401-67.387c-1.455-1.609-1.706-3.975-0.621-5.854s3.262-2.845,5.38-2.389
	c24.253,5.211,49.059-0.948,68.061-16.893c19-15.944,29.371-39.305,28.453-64.091c-0.081-2.169,1.247-4.142,3.286-4.884
	c2.041-0.744,4.324-0.083,5.656,1.628C202.235,21.509,225.195,32.737,250,32.737s47.765-11.229,62.994-30.808
	c1.333-1.712,3.62-2.37,5.656-1.628c2.039,0.742,3.367,2.715,3.286,4.884c-0.918,24.786,9.453,48.146,28.453,64.091
	c19.001,15.944,43.808,22.101,68.061,16.893c2.119-0.457,4.295,0.509,5.38,2.389c1.085,1.879,0.834,4.244-0.621,5.854
	c-16.637,18.398-23.708,42.96-19.401,67.387c4.308,24.428,19.353,45.089,41.278,56.687c1.918,1.015,2.963,3.151,2.586,5.288
	s-2.089,3.787-4.238,4.085c-14.259,1.974-27.671,7.71-38.785,16.591c-0.922,0.736-2.023,1.094-3.118,1.094
	c-1.468,0-2.922-0.643-3.909-1.879c-1.724-2.157-1.372-5.304,0.785-7.027c9.211-7.359,19.817-12.802,31.167-16.049
	c-18.767-13.579-31.513-33.799-35.613-57.052c-4.1-23.249,0.961-46.606,13.945-65.783c-23.097,1.66-45.857-5.639-63.943-20.815
	c-18.084-15.174-29.221-36.318-31.601-59.355C295.73,33.699,273.607,42.737,250,42.737s-45.73-9.038-62.361-25.156
	c-2.38,23.037-13.517,44.182-31.601,59.355c-18.085,15.175-40.843,22.477-63.943,20.815c12.984,19.177,18.045,42.534,13.945,65.783
	c-4.101,23.253-16.847,43.473-35.613,57.052c11.35,3.247,21.956,8.689,31.167,16.049c2.157,1.724,2.509,4.87,0.785,7.027
	s-4.869,2.51-7.027,0.785c-11.114-8.881-24.526-14.617-38.785-16.591C54.417,227.56,52.705,225.909,52.328,223.772z M55.054,362.992
	h-6.535v-6.535c0-2.762-2.238-5-5-5s-5,2.238-5,5v6.535h-6.534c-2.762,0-5,2.238-5,5s2.238,5,5,5h6.534v6.534c0,2.762,2.238,5,5,5
	s5-2.238,5-5v-6.534h6.535c2.762,0,5-2.238,5-5S57.815,362.992,55.054,362.992z M468.016,362.992h-6.534v-6.535c0-2.762-2.238-5-5-5
	s-5,2.238-5,5v6.535h-6.535c-2.762,0-5,2.238-5,5s2.238,5,5,5h6.535v6.534c0,2.762,2.238,5,5,5s5-2.238,5-5v-6.534h6.534
	c2.762,0,5-2.238,5-5S470.777,362.992,468.016,362.992z M335.959,277.438h-40.222c-13.885,6.569-29.389,10.251-45.737,10.251
	s-31.851-3.682-45.737-10.251h-40.222v31.934c0,12.641-8.766,23.496-20.664,26.5v140.692c0,2.762-2.238,5-5,5s-5-2.238-5-5v-87.019
	H89.424v87.019c0,2.762-2.238,5-5,5s-5-2.238-5-5V336.601c-14.062-1.172-25.038-13.082-25.038-27.229v-15.041
	c0-7.718,6.278-13.996,13.996-13.996h7.875v-6.664c0-11.373,9.253-20.626,20.626-20.626h46.532c9.201,0,17.01,6.059,19.658,14.394
	h24.261c-27.104-19.557-44.785-51.432-44.785-87.369c0-59.342,48.202-107.619,107.451-107.619s107.451,48.277,107.451,107.619
	c0,35.938-17.681,67.813-44.785,87.369h24.261c2.649-8.335,10.457-14.394,19.658-14.394h46.532c11.373,0,20.626,9.253,20.626,20.626
	v6.664h7.875c7.718,0,13.996,6.278,13.996,13.996v15.041c0,14.146-10.977,26.057-25.038,27.229v139.964c0,2.762-2.238,5-5,5
	s-5-2.238-5-5v-87.019h-43.953v87.019c0,2.762-2.238,5-5,5s-5-2.238-5-5V335.872c-11.898-3.004-20.664-13.859-20.664-26.5V277.438z
	 M345.959,309.372c0,9.023,7.042,16.612,16.032,17.276c2.611,0.192,4.632,2.368,4.632,4.986v47.911h43.953v-47.843
	c0-2.731,2.191-4.957,4.922-4.999l4.22-0.066c8.925-0.729,15.896-8.287,15.896-17.266v-15.041c0-2.203-1.793-3.996-3.996-3.996
	h-7.875v17.214c0,2.762-2.238,5-5,5s-5-2.238-5-5v-22.214v-11.664c0-5.859-4.767-10.626-10.626-10.626h-46.532
	c-5.859,0-10.626,4.767-10.626,10.626V309.372z M154.041,273.671c0-5.859-4.767-10.626-10.626-10.626H96.883
	c-5.859,0-10.626,4.767-10.626,10.626v11.664v22.214c0,2.762-2.238,5-5,5s-5-2.238-5-5v-17.214h-7.875
	c-2.203,0-3.996,1.793-3.996,3.996v15.041c0,8.979,6.972,16.536,15.896,17.266l4.22,0.066c2.73,0.042,4.922,2.268,4.922,4.999
	v47.843h43.953v-47.911c0-2.618,2.021-4.794,4.632-4.986c8.99-0.664,16.032-8.253,16.032-17.276V273.671z M347.451,180.069
	c0-53.827-43.717-97.619-97.451-97.619s-97.451,43.792-97.451,97.619c0,53.828,43.717,97.62,97.451,97.62
	S347.451,233.897,347.451,180.069z M229.895,148.761c1.714-2.166,1.347-5.311-0.818-7.023c-2.166-1.713-5.31-1.347-7.023,0.818
	c-2.376,3.003-5.93,4.726-9.751,4.726s-7.376-1.723-9.752-4.726c-1.713-2.166-4.858-2.532-7.023-0.818
	c-2.165,1.713-2.532,4.857-0.818,7.023c4.283,5.415,10.696,8.521,17.594,8.521C219.198,157.281,225.611,154.176,229.895,148.761z
	 M304.474,141.737c-2.166-1.713-5.311-1.347-7.023,0.818c-2.376,3.003-5.931,4.726-9.752,4.726s-7.375-1.723-9.751-4.726
	c-1.714-2.166-4.857-2.532-7.023-0.818c-2.165,1.713-2.532,4.857-0.818,7.023c4.283,5.415,10.696,8.521,17.593,8.521
	c6.897,0,13.311-3.105,17.594-8.521C307.006,146.595,306.639,143.45,304.474,141.737z M299.689,111.609l-27.345,9.769
	c-2.601,0.93-3.956,3.791-3.027,6.391c0.73,2.045,2.655,3.319,4.709,3.319c0.559,0,1.126-0.094,1.682-0.292l27.345-9.769
	c2.601-0.93,3.956-3.791,3.027-6.391C305.151,112.035,302.289,110.684,299.689,111.609z M196.947,121.027l27.345,9.769
	c0.556,0.198,1.123,0.292,1.682,0.292c2.053,0,3.979-1.274,4.709-3.319c0.929-2.6-0.427-5.461-3.027-6.391l-27.345-9.769
	c-2.598-0.929-5.461,0.427-6.391,3.027C192.991,117.236,194.347,120.098,196.947,121.027z M294.411,219.481
	c0,24.489-19.923,44.412-44.411,44.412c-24.489,0-44.412-19.923-44.412-44.412s19.923-44.412,44.412-44.412
	C274.488,175.069,294.411,194.992,294.411,219.481z M220.869,201.196h58.261c-6.096-9.679-16.871-16.127-29.13-16.127
	S226.966,191.518,220.869,201.196z M283.396,211.196h-66.794c-0.659,2.655-1.015,5.429-1.015,8.285
	c0,18.975,15.438,34.412,34.412,34.412s34.411-15.438,34.411-34.412C284.411,216.625,284.055,213.852,283.396,211.196z M159.041,490
	H65.032c-2.762,0-5,2.238-5,5s2.238,5,5,5h94.009c2.762,0,5-2.238,5-5S161.803,490,159.041,490z M46.388,490H40.65
	c-2.762,0-5,2.238-5,5s2.238,5,5,5h5.737c2.762,0,5-2.238,5-5S49.149,490,46.388,490z M434.968,490h-94.009c-2.762,0-5,2.238-5,5
	s2.238,5,5,5h94.009c2.762,0,5-2.238,5-5S437.729,490,434.968,490z M459.35,490h-5.737c-2.762,0-5,2.238-5,5s2.238,5,5,5h5.737
	c2.762,0,5-2.238,5-5S462.111,490,459.35,490z"/>
</svg>
