<?xml version="1.0" encoding="utf-8"?>
<!-- Generator: Adobe Illustrator 23.0.0, SVG Export Plug-In . SVG Version: 6.00 Build 0)  -->
<svg version="1.1" id="Layer_1" xmlns="http://www.w3.org/2000/svg" xmlns:xlink="http://www.w3.org/1999/xlink" x="0px" y="0px"
	 viewBox="0 0 500 500" style="enable-background:new 0 0 500 500;" xml:space="preserve">
<style type="text/css">
	.st0{fill:#83E1E5;}
	.st1{fill:#AAB1BA;}
	.st2{fill:#FDDF7F;}
	.st3{fill:#ECF4F7;}
	.st4{fill:#1C1D21;}
</style>
<g>
	<g>
		<path class="st1" d="M430.349,292.675h-10.522v-50.918h-34.22v50.918h-10.522c-9.929,0-17.979,8.05-17.979,17.979V490
			c0,2.761,2.239,5,5,5h86.222V310.655C448.328,300.725,440.278,292.675,430.349,292.675z"/>
	</g>
</g>
<g>
	<g>
		<rect x="357.106" y="348.955" class="st3" width="91.222" height="72.557"/>
	</g>
</g>
<g>
	<g>
		<ellipse class="st2" cx="241.658" cy="172.03" rx="102.041" ry="102.209"/>
	</g>
</g>
<g>
	<g>
		<path class="st2" d="M412.5,215.478h-19.565c-4.047,0-7.328,3.281-7.328,7.328v18.952h34.22v-18.952
			C419.827,218.759,416.546,215.478,412.5,215.478z"/>
	</g>
</g>
<g>
	<g>
		<path class="st1" d="M301.376,173.414c-0.683,10.712-9.563,19.195-20.447,19.195c-10.884,0-19.763-8.483-20.447-19.195h-0.066
			v20.513c0,11.329,9.184,20.513,20.513,20.513c11.329,0,20.513-9.184,20.513-20.513v-20.513H301.376z"/>
	</g>
</g>
<g>
	<g>
		
			<ellipse transform="matrix(0.982 -0.1891 0.1891 0.982 -27.4755 56.2313)" class="st3" cx="280.929" cy="172.095" rx="20.513" ry="20.513"/>
	</g>
</g>
<g>
	<g>
		<path class="st1" d="M222.833,173.414c-0.683,10.712-9.563,19.195-20.447,19.195s-19.763-8.483-20.447-19.195h-0.067v20.513
			c0,11.329,9.184,20.513,20.513,20.513c11.329,0,20.513-9.184,20.513-20.513v-20.513H222.833z"/>
	</g>
</g>
<g>
	<g>
		<circle class="st3" cx="202.386" cy="172.095" r="20.513"/>
	</g>
</g>
<g>
	<g>
		<path class="st2" d="M357.106,490v-45.682H151.3V341.33H94.24v133.561c0,11.106,9.002,20.109,20.106,20.109h247.76
			C359.345,495,357.106,492.761,357.106,490z"/>
	</g>
</g>
<g>
	<g>
		<path class="st0" d="M366.355,271.272c-10.372-8.34-23.537-13.332-37.87-13.332h-31.529c-15.934,10.311-34.917,16.3-55.299,16.3
			s-39.365-5.988-55.299-16.3h-31.529c-33.463,0-60.591,27.185-60.591,60.72v22.67h57.06v102.988h139.21h66.596v-5v0V310.655
			c0-9.93,8.05-17.979,17.979-17.979h1.503C376.588,284.361,372.834,276.482,366.355,271.272z"/>
	</g>
</g>
<path class="st4" d="M241.658,232.164c8.971,0,17.313,4.04,22.885,11.084c1.714,2.166,1.347,5.31-0.818,7.023
	c-0.918,0.727-2.013,1.079-3.1,1.079c-1.476,0-2.938-0.65-3.924-1.898c-3.665-4.632-9.147-7.288-15.043-7.288
	c-5.896,0-11.379,2.656-15.042,7.288c-1.715,2.167-4.858,2.532-7.023,0.82c-2.166-1.713-2.533-4.858-0.82-7.023
	C224.345,236.204,232.686,232.164,241.658,232.164z M485.97,490h-3.813c-2.762,0-5,2.239-5,5s2.238,5,5,5h3.813c2.762,0,5-2.239,5-5
	S488.731,490,485.97,490z M469.409,495c0,2.761-2.238,5-5,5h-16.081h-86.222c-5.514,0-10-4.486-10-10v-68.487v-72.557v-38.301
	c0-12.671,10.309-22.979,22.979-22.979h5.522v-45.918v-18.951c0-6.798,5.53-12.328,12.327-12.328h19.564
	c6.798,0,12.328,5.53,12.328,12.328v18.951v45.918h5.521c12.671,0,22.979,10.308,22.979,22.979v38.301v72.557V490h11.081
	C467.171,490,469.409,492.239,469.409,495z M362.106,416.513h81.222v-62.557h-81.222V416.513z M390.607,236.757h24.22v-13.951
	c0-1.284-1.044-2.328-2.328-2.328h-19.564c-1.283,0-2.327,1.044-2.327,2.328V236.757z M362.106,310.655v33.301h81.222v-33.301
	c0-7.157-5.822-12.979-12.979-12.979h-10.521c-2.762,0-5-2.239-5-5v-45.918h-24.22v45.918c0,2.761-2.238,5-5,5h-10.522
	C367.929,297.675,362.106,303.498,362.106,310.655z M362.106,490h81.222v-63.487h-81.222V490z M255.416,193.927v-20.513
	c0-0.091,0.022-0.176,0.027-0.265c-0.014-0.35-0.027-0.7-0.027-1.054c0-14.068,11.445-25.513,25.514-25.513
	c14.067,0,25.513,11.445,25.513,25.513c0,0.355-0.012,0.708-0.027,1.059c0.005,0.088,0.027,0.171,0.027,0.259v20.513
	c0,14.068-11.445,25.513-25.513,25.513C266.861,219.44,255.416,207.995,255.416,193.927z M296.442,193.927v-1.597
	c-2.153,1.655-4.576,2.972-7.19,3.877c-0.004,0.001-0.007,0.003-0.011,0.004c-1.262,0.436-2.568,0.775-3.91,1.01
	c-0.073,0.013-0.146,0.027-0.22,0.039c-0.623,0.103-1.253,0.183-1.89,0.24c-0.111,0.01-0.222,0.017-0.333,0.025
	c-0.647,0.049-1.299,0.083-1.958,0.083s-1.311-0.033-1.958-0.083c-0.111-0.009-0.222-0.016-0.333-0.025
	c-0.637-0.057-1.268-0.137-1.89-0.24c-0.073-0.012-0.146-0.026-0.219-0.039c-1.344-0.235-2.651-0.574-3.915-1.011
	c-0.002-0.001-0.003-0.001-0.005-0.002c-2.616-0.905-5.04-2.223-7.193-3.878v1.597c0,8.554,6.959,15.513,15.514,15.513
	C289.483,209.44,296.442,202.481,296.442,193.927z M265.416,172.095c0,0.32,0.029,0.633,0.048,0.948
	c0.001,0.018,0.007,0.034,0.009,0.052c0.162,2.543,0.937,4.914,2.173,6.971c0,0,0.001,0.001,0.001,0.002
	c0.244,0.406,0.507,0.8,0.786,1.18c0.009,0.012,0.018,0.024,0.027,0.036c0.273,0.37,0.561,0.727,0.865,1.07
	c0.018,0.021,0.037,0.041,0.055,0.061c0.298,0.333,0.609,0.654,0.933,0.96c0.029,0.027,0.059,0.053,0.089,0.081
	c0.318,0.296,0.648,0.579,0.99,0.848c0.042,0.033,0.087,0.064,0.129,0.097c0.334,0.257,0.677,0.502,1.032,0.731
	c0.061,0.039,0.124,0.074,0.184,0.112c0.343,0.215,0.693,0.421,1.052,0.609c0.085,0.045,0.175,0.083,0.261,0.126
	c0.343,0.171,0.69,0.335,1.046,0.481c0.12,0.049,0.245,0.089,0.366,0.134c0.332,0.126,0.664,0.25,1.006,0.353
	c0.17,0.051,0.346,0.088,0.519,0.134c0.302,0.08,0.603,0.164,0.912,0.225c0.255,0.051,0.517,0.081,0.776,0.119
	c0.238,0.035,0.472,0.081,0.713,0.105c0.507,0.05,1.021,0.078,1.541,0.078s1.034-0.028,1.541-0.078
	c0.241-0.024,0.476-0.07,0.713-0.105c0.259-0.038,0.521-0.068,0.775-0.119c0.309-0.062,0.61-0.146,0.913-0.226
	c0.173-0.045,0.348-0.082,0.519-0.134c0.342-0.103,0.675-0.227,1.006-0.353c0.122-0.046,0.246-0.085,0.366-0.134
	c0.357-0.146,0.703-0.311,1.046-0.482c0.086-0.043,0.175-0.081,0.26-0.126c0.36-0.188,0.71-0.394,1.053-0.609
	c0.061-0.038,0.124-0.073,0.184-0.112c0.355-0.229,0.698-0.475,1.032-0.732c0.042-0.033,0.087-0.063,0.129-0.096
	c0.342-0.269,0.672-0.552,0.99-0.848c0.029-0.027,0.059-0.053,0.088-0.08c0.325-0.307,0.637-0.628,0.934-0.961
	c0.018-0.02,0.036-0.04,0.054-0.06c0.304-0.344,0.593-0.701,0.865-1.071c0.009-0.012,0.018-0.023,0.026-0.035
	c0.279-0.38,0.542-0.774,0.786-1.18c0.001-0.001,0.001-0.002,0.002-0.003c1.237-2.058,2.011-4.428,2.173-6.971
	c0.001-0.018,0.007-0.035,0.009-0.054c0.019-0.315,0.048-0.627,0.048-0.947c0-8.554-6.959-15.513-15.513-15.513
	C272.375,156.581,265.416,163.541,265.416,172.095z M176.873,193.927v-20.513c0-0.091,0.022-0.176,0.027-0.265
	c-0.014-0.35-0.027-0.7-0.027-1.054c0-14.068,11.445-25.513,25.514-25.513c14.067,0,25.513,11.445,25.513,25.513
	c0,0.355-0.012,0.708-0.027,1.059c0.005,0.088,0.027,0.171,0.027,0.259v20.513c0,14.068-11.445,25.513-25.513,25.513
	C188.318,219.44,176.873,207.995,176.873,193.927z M217.899,193.927v-1.597c-2.153,1.655-4.576,2.972-7.19,3.877
	c-0.004,0.001-0.007,0.003-0.011,0.004c-1.262,0.436-2.569,0.775-3.912,1.01c-0.073,0.013-0.144,0.027-0.217,0.039
	c-0.623,0.103-1.254,0.184-1.891,0.241c-0.111,0.01-0.222,0.017-0.333,0.025c-0.647,0.049-1.299,0.083-1.958,0.083
	s-1.311-0.033-1.958-0.083c-0.111-0.009-0.222-0.016-0.333-0.025c-0.637-0.057-1.268-0.137-1.89-0.24
	c-0.073-0.012-0.146-0.026-0.219-0.039c-1.344-0.235-2.651-0.574-3.915-1.011c-0.002-0.001-0.003-0.001-0.005-0.002
	c-2.616-0.905-5.04-2.223-7.193-3.878v1.597c0,8.554,6.959,15.513,15.514,15.513C210.94,209.44,217.899,202.481,217.899,193.927z
	 M186.873,172.095c0,0.32,0.029,0.633,0.048,0.948c0.001,0.018,0.007,0.034,0.009,0.052c0.162,2.543,0.937,4.914,2.173,6.971
	c0,0,0.001,0.001,0.001,0.002c0.244,0.406,0.507,0.8,0.786,1.18c0.009,0.012,0.018,0.024,0.027,0.036
	c0.273,0.37,0.561,0.727,0.865,1.07c0.018,0.021,0.037,0.041,0.055,0.061c0.298,0.333,0.609,0.654,0.933,0.96
	c0.029,0.027,0.059,0.053,0.089,0.081c0.318,0.296,0.648,0.579,0.99,0.848c0.042,0.033,0.087,0.064,0.129,0.097
	c0.334,0.257,0.677,0.502,1.032,0.731c0.061,0.039,0.124,0.074,0.184,0.112c0.343,0.215,0.693,0.421,1.052,0.609
	c0.085,0.045,0.175,0.083,0.261,0.126c0.343,0.171,0.69,0.335,1.046,0.481c0.12,0.049,0.245,0.089,0.366,0.134
	c0.332,0.126,0.664,0.25,1.006,0.353c0.17,0.051,0.346,0.088,0.519,0.134c0.302,0.08,0.603,0.164,0.912,0.225
	c0.255,0.051,0.517,0.081,0.776,0.119c0.238,0.035,0.472,0.081,0.713,0.105c0.507,0.05,1.021,0.078,1.541,0.078
	s1.034-0.028,1.541-0.078c0.239-0.024,0.472-0.069,0.708-0.104c0.261-0.038,0.524-0.068,0.781-0.12
	c0.306-0.061,0.604-0.144,0.904-0.223c0.176-0.046,0.355-0.084,0.528-0.136c0.338-0.102,0.667-0.225,0.995-0.349
	c0.125-0.047,0.253-0.088,0.377-0.138c0.353-0.144,0.696-0.307,1.035-0.477c0.09-0.045,0.183-0.085,0.272-0.131
	c0.356-0.186,0.702-0.39,1.042-0.603c0.065-0.04,0.131-0.078,0.195-0.119c0.351-0.227,0.69-0.469,1.02-0.723
	c0.047-0.036,0.095-0.07,0.142-0.106c0.338-0.266,0.664-0.546,0.979-0.839c0.033-0.03,0.066-0.059,0.099-0.09
	c0.322-0.304,0.63-0.621,0.925-0.951c0.021-0.023,0.043-0.046,0.064-0.07c0.301-0.341,0.587-0.695,0.857-1.062
	c0.011-0.015,0.022-0.03,0.033-0.045c0.277-0.378,0.537-0.768,0.78-1.171c0.002-0.004,0.005-0.008,0.007-0.012
	c1.235-2.057,2.009-4.426,2.17-6.966c0.001-0.018,0.007-0.035,0.009-0.053c0.019-0.315,0.048-0.628,0.048-0.948
	c0-8.554-6.959-15.513-15.513-15.513C193.832,156.581,186.873,163.541,186.873,172.095z M289.425,21.534h6.534v6.535
	c0,2.761,2.238,5,5,5s5-2.239,5-5v-6.535h6.535c2.762,0,5-2.239,5-5s-2.238-5-5-5h-6.535V5c0-2.761-2.238-5-5-5s-5,2.239-5,5v6.534
	h-6.534c-2.762,0-5,2.239-5,5S286.663,21.534,289.425,21.534z M230.123,21.534h6.535v6.535c0,2.761,2.238,5,5,5s5-2.239,5-5v-6.535
	h6.534c2.762,0,5-2.239,5-5s-2.238-5-5-5h-6.534V5c0-2.761-2.238-5-5-5s-5,2.239-5,5v6.534h-6.535c-2.762,0-5,2.239-5,5
	S227.361,21.534,230.123,21.534z M170.822,21.534h6.534v6.535c0,2.761,2.238,5,5,5s5-2.239,5-5v-6.535h6.534c2.762,0,5-2.239,5-5
	s-2.238-5-5-5h-6.534V5c0-2.761-2.238-5-5-5s-5,2.239-5,5v6.534h-6.534c-2.762,0-5,2.239-5,5S168.061,21.534,170.822,21.534z
	 M146.3,444.318V346.33H99.24v128.561c0,8.331,6.776,15.109,15.105,15.109h223.381c2.762,0,5,2.239,5,5s-2.238,5-5,5H114.346
	c-13.843,0-25.105-11.264-25.105-25.109V341.33v-22.67c0-36.238,29.424-65.72,65.591-65.72h16.675
	c-22.586-19.671-36.889-48.648-36.889-80.909c0-59.115,48.019-107.209,107.041-107.209s107.041,48.094,107.041,107.209
	c0,32.261-14.303,61.239-36.889,80.909h16.675c14.864,0,29.427,5.127,41.003,14.436c2.152,1.73,2.494,4.878,0.764,7.03
	c-1.729,2.153-4.88,2.493-7.029,0.763c-9.949-8-21.961-12.229-34.737-12.229h-30.071c-7.048,4.423-14.545,7.965-22.34,10.614
	c-0.058,0.02-0.116,0.041-0.175,0.06c-0.735,0.249-1.473,0.489-2.213,0.721c-0.272,0.086-0.547,0.168-0.82,0.251
	c-1.029,0.314-2.063,0.612-3.101,0.895c-0.526,0.144-1.051,0.289-1.58,0.424c-0.5,0.128-1.003,0.248-1.505,0.369
	c-0.61,0.147-1.221,0.288-1.835,0.424c-0.432,0.095-0.863,0.193-1.296,0.283c-1.014,0.212-2.031,0.412-3.055,0.594
	c-0.245,0.044-0.49,0.081-0.736,0.123c-0.869,0.149-1.741,0.287-2.616,0.415c-0.335,0.049-0.67,0.096-1.005,0.141
	c-0.915,0.125-1.833,0.238-2.755,0.339c-0.196,0.021-0.392,0.047-0.588,0.068c-1.108,0.115-2.222,0.211-3.339,0.292
	c-0.274,0.02-0.549,0.035-0.824,0.052c-0.876,0.057-1.754,0.103-2.636,0.138c-0.316,0.013-0.632,0.026-0.948,0.036
	c-1.125,0.035-2.254,0.059-3.388,0.059s-2.262-0.024-3.388-0.059c-0.316-0.01-0.632-0.024-0.948-0.036
	c-0.881-0.035-1.759-0.081-2.634-0.138c-0.275-0.018-0.551-0.033-0.826-0.053c-1.117-0.081-2.23-0.177-3.337-0.292
	c-0.199-0.021-0.397-0.047-0.596-0.068c-0.918-0.101-1.833-0.213-2.745-0.337c-0.338-0.046-0.676-0.093-1.014-0.142
	c-0.869-0.127-1.736-0.264-2.598-0.412c-0.251-0.043-0.503-0.081-0.753-0.125c-1.02-0.182-2.034-0.381-3.044-0.592
	c-0.44-0.092-0.878-0.191-1.317-0.288c-0.604-0.134-1.207-0.273-1.807-0.418c-0.51-0.122-1.02-0.244-1.527-0.374
	c-0.503-0.129-1.003-0.267-1.503-0.403c-1.073-0.291-2.14-0.599-3.203-0.923c-0.258-0.079-0.516-0.156-0.773-0.237
	c-0.75-0.235-1.498-0.479-2.242-0.731c-0.041-0.014-0.082-0.029-0.124-0.042c-7.808-2.65-15.317-6.197-22.376-10.627h-30.07
	c-30.653,0-55.591,24.996-55.591,55.72v17.67h47.06v-26.417c0-2.761,2.238-5,5-5s5,2.239,5,5v31.417v97.988h181.427
	c2.762,0,5,2.239,5,5s-2.238,5-5,5H151.3C148.538,449.318,146.3,447.08,146.3,444.318z M212.477,264.746
	c0.206,0.065,0.412,0.131,0.619,0.194c0.622,0.192,1.247,0.38,1.875,0.56c0.376,0.108,0.754,0.209,1.132,0.312
	c0.83,0.227,1.664,0.443,2.502,0.649c0.554,0.135,1.108,0.269,1.665,0.395c0.425,0.096,0.85,0.189,1.277,0.279
	c0.712,0.15,1.426,0.293,2.141,0.427c0.26,0.049,0.518,0.103,0.778,0.15c0.968,0.173,1.939,0.329,2.914,0.473
	c0.301,0.045,0.603,0.085,0.905,0.127c0.799,0.111,1.599,0.212,2.402,0.302c0.243,0.027,0.484,0.058,0.728,0.083
	c1.021,0.108,2.045,0.2,3.071,0.275c0.213,0.016,0.427,0.027,0.641,0.041c0.847,0.057,1.695,0.102,2.544,0.137
	c0.284,0.011,0.567,0.023,0.851,0.032c1.044,0.033,2.089,0.056,3.137,0.056s2.093-0.023,3.137-0.056
	c0.284-0.009,0.567-0.021,0.851-0.032c0.85-0.035,1.699-0.08,2.546-0.137c0.213-0.014,0.426-0.025,0.638-0.041
	c1.027-0.076,2.052-0.168,3.074-0.276c0.241-0.025,0.481-0.056,0.721-0.083c0.805-0.091,1.609-0.193,2.411-0.304
	c0.299-0.042,0.598-0.082,0.896-0.126c0.976-0.145,1.951-0.301,2.921-0.475c0.253-0.045,0.504-0.098,0.757-0.146
	c0.724-0.136,1.446-0.28,2.167-0.432c0.421-0.089,0.841-0.181,1.26-0.275c0.567-0.128,1.132-0.264,1.697-0.402
	c0.812-0.199,1.621-0.408,2.425-0.628c0.399-0.109,0.799-0.216,1.197-0.329c0.62-0.178,1.236-0.363,1.851-0.553
	c0.218-0.067,0.436-0.136,0.653-0.205c39.283-12.444,67.84-49.297,67.84-92.709c0-53.601-43.532-97.209-97.041-97.209
	s-97.041,43.608-97.041,97.209C144.617,215.45,173.184,252.308,212.477,264.746z"/>
</svg>
