<?xml version="1.0" encoding="utf-8"?>
<!-- Generator: Adobe Illustrator 23.0.0, SVG Export Plug-In . SVG Version: 6.00 Build 0)  -->
<svg version="1.1" id="Layer_1" xmlns="http://www.w3.org/2000/svg" xmlns:xlink="http://www.w3.org/1999/xlink" x="0px" y="0px"
	 viewBox="0 0 500 500" style="enable-background:new 0 0 500 500;" xml:space="preserve">
<style type="text/css">
	.st0{fill:#83E1E5;}
	.st1{fill:#AAB1BA;}
	.st2{fill:#FDDF7F;}
	.st3{fill:#ECF4F7;}
	.st4{fill:#1C1D21;}
</style>
<g>
	<path class="st3" d="M147.076,181.423c0-0.229,0.007-0.456,0.009-0.686c-4.064-0.971-8.295-1.488-12.634-1.488
		c-27.146,0-50.118,20.053-53.786,46.949l-8.105,59.439c-2.618,19.195,10.71,36.476,29.165,39.46
		c1.538-32.162,28.042-57.766,60.516-57.766h31.554C165.685,249.132,147.076,217.456,147.076,181.423z"/>
</g>
<g>
	<path class="st3" d="M427.442,285.638l-8.105-59.439c-3.668-26.896-26.64-46.949-53.786-46.949c-5.005,0-9.866,0.687-14.493,1.967
		c0,0.069,0.003,0.138,0.003,0.207c0,36.042-18.626,67.711-46.748,85.909h31.583c32.559,0,59.11,25.737,60.523,58.017
		C415.828,323.263,430.146,305.472,427.442,285.638z"/>
</g>
<g>
	<path class="st3" d="M412.356,111.659l-8.126-59.591C400.553,25.104,377.523,5,350.308,5h0c-27.214,0-50.245,20.104-53.922,47.068
		l-4.958,36.355c26.369,12.082,46.704,35.094,55.239,63.254h30.756C398.788,151.678,415.243,132.827,412.356,111.659z"/>
</g>
<g>
	<path class="st3" d="M85.78,111.659l8.126-59.591C97.583,25.104,120.614,5,147.828,5h0c27.214,0,50.245,20.104,53.922,47.068
		l4.958,36.355c-26.369,12.082-46.704,35.094-55.239,63.254h-30.756C99.348,151.678,82.893,132.827,85.78,111.659z"/>
</g>
<g>
	<path class="st1" d="M334.411,83.382l15.897,17.691l15.897-17.691c3.348-3.725,0.704-9.656-4.305-9.656h-23.185
		C333.707,73.726,331.064,79.657,334.411,83.382z"/>
</g>
<g>
	<path class="st1" d="M150.307,257.433l-15.857,17.646l-15.857-17.646c-3.339-3.716-0.702-9.631,4.294-9.631h23.126
		C151.009,247.801,153.646,253.717,150.307,257.433z"/>
</g>
<g>
	<path class="st1" d="M349.694,257.433l15.857,17.646l15.857-17.646c3.339-3.716,0.702-9.631-4.294-9.631h-23.126
		C348.992,247.801,346.355,253.717,349.694,257.433z"/>
</g>
<g>
	<path class="st1" d="M163.725,83.382l-15.897,17.691l-15.897-17.691c-3.348-3.725-0.704-9.656,4.305-9.656h23.185
		C164.429,73.726,167.073,79.657,163.725,83.382z"/>
</g>
<g>
	<path class="st1" d="M440.501,73.05l-6.408-31.26c-2.879-14.047-15.241-24.132-29.58-24.132h-19.332
		c10.105,8.441,17.154,20.508,19.049,34.411l5.529,40.547h14.78C434.853,92.615,442.572,83.154,440.501,73.05z"/>
</g>
<g>
	<path class="st1" d="M44.486,247.127l6.391-31.181c2.872-14.012,15.202-24.071,29.505-24.071h19.283
		c-10.08,8.42-17.11,20.457-19.001,34.324l-5.515,40.444H60.408C50.12,266.643,42.42,257.205,44.486,247.127z"/>
</g>
<g>
	<path class="st1" d="M455.515,247.127l-6.391-31.181c-2.872-14.012-15.202-24.071-29.505-24.071h-19.283
		c10.08,8.42,17.11,20.457,19.001,34.324l5.515,40.444h14.742C449.881,266.643,457.581,257.205,455.515,247.127z"/>
</g>
<g>
	<path class="st1" d="M291.428,88.424l4.958-36.355c1.896-13.902,8.944-25.97,19.049-34.411h-19.332
		c-14.339,0-26.701,10.085-29.58,24.133l-6.407,31.261c-0.477,2.326-0.429,4.616,0.044,6.768
		C271.208,81.016,281.726,83.979,291.428,88.424z"/>
</g>
<g>
	<path class="st1" d="M57.635,73.05l6.407-31.26c2.879-14.047,15.241-24.132,29.58-24.132h19.332
		c-10.105,8.441-17.154,20.508-19.049,34.411l-5.529,40.547h-14.78C63.283,92.615,55.564,83.154,57.635,73.05z"/>
</g>
<g>
	<path class="st1" d="M206.708,88.424l-4.958-36.355c-1.896-13.902-8.944-25.97-19.049-34.411h19.332
		c14.339,0,26.701,10.085,29.58,24.133l6.407,31.261c0.477,2.326,0.429,4.616-0.044,6.768
		C226.929,81.016,216.41,83.979,206.708,88.424z"/>
</g>
<g>
	<path class="st0" d="M335.895,267.332h-31.602c-15.919,10.299-34.868,16.3-55.225,16.3s-39.306-6.001-55.225-16.3h-31.602
		c-33.464,0-60.591,27.186-60.591,60.721v97.677c0,11.106,9.002,20.109,20.106,20.109h4.436V495h245.752v-49.161h4.436
		c11.104,0,20.106-9.003,20.106-20.109v-97.677C396.486,294.518,369.359,267.332,335.895,267.332z"/>
</g>
<g>
	<g>
		<path class="st2" d="M339.198,350.723v44.435h-83.823h-12.841H158.71v-44.435h-57.06v75.007c0,11.105,9.002,20.109,20.106,20.109
			h120.777h12.841H376.38c11.104,0,20.106-9.004,20.106-20.109v-75.007H339.198z"/>
	</g>
</g>
<g>
	<ellipse class="st2" cx="249.068" cy="181.423" rx="101.992" ry="102.209"/>
</g>
<g>
	<g>
		<path class="st3" d="M198.231,230.054c4.521,3.928,11.369,3.448,15.297-1.072c8.984-10.337,21.914-16.309,35.54-16.453
			c13.626,0.145,26.556,6.116,35.54,16.453c3.928,4.52,10.776,5,15.297,1.072c4.52-3.929,5-10.777,1.072-15.297
			c-13.105-15.079-32.001-23.769-51.908-23.914c-19.908,0.145-38.804,8.835-51.908,23.914
			C193.232,219.277,193.711,226.125,198.231,230.054z"/>
	</g>
</g>
<path class="st4" d="M330.538,43.759c2.762,0,5,2.238,5,5s-2.238,5-5,5h-4.429c-2.762,0-5-2.238-5-5s2.238-5,5-5H330.538z
	 M379.508,48.759c0-2.762-2.238-5-5-5h-4.43c-2.762,0-5,2.238-5,5s2.238,5,5,5h4.43C377.27,53.759,379.508,51.521,379.508,48.759z
	 M60.408,271.643c-6.412,0-12.415-2.85-16.468-7.818c-4.053-4.968-5.639-11.42-4.352-17.701l6.391-31.182
	c3.333-16.263,17.802-28.066,34.403-28.066H97.97c9.102-7.136,20.304-11.667,32.436-12.489c2.761-0.175,5.14,1.895,5.327,4.65
	c0.187,2.755-1.896,5.14-4.651,5.326c-19.57,1.326-36.237,14.257-42.861,32.113c-0.005,0.015-0.01,0.028-0.015,0.043
	c-0.233,0.63-0.453,1.267-0.661,1.909c-0.036,0.113-0.069,0.227-0.104,0.34c-0.175,0.557-0.345,1.115-0.501,1.681
	c-0.062,0.225-0.116,0.452-0.174,0.679c-0.122,0.466-0.244,0.933-0.352,1.404c-0.085,0.371-0.156,0.745-0.233,1.119
	c-0.07,0.341-0.147,0.681-0.21,1.024c-0.133,0.729-0.251,1.462-0.352,2.199l-5.515,40.444c0,0,0,0,0,0.001l-2.59,18.994
	c-1.338,9.811,2.234,19.665,9.556,26.358c0.466,0.426,0.954,0.845,1.451,1.245c2.152,1.73,2.493,4.878,0.762,7.029
	c-0.988,1.228-2.437,1.866-3.899,1.866c-1.1,0-2.207-0.361-3.131-1.104c-0.661-0.531-1.311-1.089-1.931-1.656
	c-9.745-8.908-14.499-22.026-12.717-35.09l1.816-13.319H60.408z M60.408,261.643h10.378l4.926-36.12
	c0.108-0.789,0.236-1.572,0.374-2.354c0.037-0.206,0.077-0.411,0.116-0.617c0.117-0.62,0.243-1.237,0.379-1.851
	c0.037-0.165,0.072-0.331,0.11-0.495c1.967-8.54,5.785-16.493,11.175-23.331h-7.482c-11.874,0-22.223,8.442-24.607,20.074
	l-6.391,31.182c-0.682,3.326,0.158,6.742,2.304,9.372C53.834,260.134,57.013,261.643,60.408,261.643z M114.73,227.897
	c2.761,0,5-2.238,5-5s-2.239-5-5-5h-4.418c-2.761,0-5,2.238-5,5s2.239,5,5,5H114.73z M456.062,263.824
	c-4.054,4.969-10.056,7.818-16.468,7.818h-9.015l1.816,13.319c1.999,14.66-4.199,29.19-16.175,37.919
	c-0.889,0.647-1.92,0.959-2.941,0.959c-1.544,0-3.065-0.712-4.045-2.055c-1.626-2.232-1.136-5.359,1.096-6.986
	c9-6.56,13.658-17.475,12.157-28.485l-8.105-59.439c-0.102-0.747-0.221-1.489-0.357-2.228c-0.042-0.229-0.095-0.454-0.14-0.682
	c-0.1-0.507-0.2-1.014-0.315-1.516c-0.063-0.273-0.137-0.542-0.205-0.814c-0.112-0.449-0.222-0.899-0.346-1.345
	c-0.083-0.297-0.176-0.589-0.264-0.883c-0.124-0.414-0.246-0.828-0.38-1.237c-0.103-0.313-0.215-0.62-0.323-0.93
	c-0.134-0.383-0.267-0.766-0.41-1.145c-0.123-0.326-0.255-0.647-0.385-0.971c-0.143-0.354-0.285-0.708-0.436-1.059
	c-0.145-0.336-0.297-0.667-0.448-0.999c-0.15-0.328-0.301-0.656-0.458-0.981c-0.166-0.343-0.338-0.683-0.512-1.021
	c-0.157-0.306-0.315-0.61-0.478-0.913c-0.186-0.345-0.377-0.686-0.571-1.025c-0.165-0.289-0.333-0.576-0.503-0.862
	c-0.204-0.34-0.411-0.678-0.622-1.013c-0.177-0.279-0.357-0.557-0.539-0.832c-0.218-0.33-0.437-0.658-0.662-0.981
	c-0.193-0.278-0.392-0.552-0.591-0.826c-0.225-0.31-0.45-0.619-0.682-0.924c-0.221-0.29-0.45-0.575-0.678-0.86
	c-0.221-0.277-0.441-0.556-0.667-0.828c-0.275-0.33-0.56-0.652-0.844-0.977c-0.19-0.216-0.377-0.437-0.571-0.649
	c-0.432-0.475-0.875-0.939-1.327-1.398c-0.054-0.055-0.106-0.112-0.161-0.168c-1.066-1.071-2.186-2.099-3.356-3.077
	c-7.953-6.654-18.011-10.833-28.969-11.412c-2.758-0.146-4.875-2.499-4.729-5.257c0.146-2.757,2.507-4.868,5.257-4.729
	c12.52,0.661,24.064,5.229,33.389,12.543h17.521c16.602,0,31.07,11.804,34.404,28.066l6.391,31.182
	C461.7,252.403,460.114,258.855,456.062,263.824z M450.616,248.131l-6.391-31.182c-2.384-11.632-12.733-20.074-24.607-20.074h-7.482
	c0.108,0.137,0.21,0.278,0.317,0.416c0.04,0.052,0.078,0.104,0.118,0.154c0.459,0.598,0.906,1.203,1.342,1.816
	c0.048,0.067,0.096,0.135,0.143,0.202c1.405,1.996,2.682,4.074,3.827,6.225c0.063,0.118,0.126,0.237,0.188,0.357
	c0.325,0.621,0.64,1.248,0.943,1.88c0.048,0.1,0.097,0.198,0.145,0.298c0.348,0.737,0.683,1.48,1.001,2.231
	c0.011,0.027,0.021,0.054,0.033,0.081c0.289,0.686,0.562,1.379,0.825,2.076c0.076,0.202,0.15,0.405,0.224,0.608
	c0.202,0.554,0.395,1.111,0.581,1.671c0.07,0.21,0.141,0.419,0.208,0.631c0.237,0.743,0.464,1.491,0.672,2.246
	c0.013,0.047,0.024,0.096,0.037,0.143c0.193,0.709,0.371,1.423,0.538,2.14c0.055,0.238,0.107,0.478,0.159,0.717
	c0.123,0.561,0.239,1.123,0.346,1.688c0.045,0.237,0.092,0.475,0.134,0.714c0.139,0.78,0.267,1.564,0.374,2.354l4.926,36.12h10.378
	c3.395,0,6.573-1.509,8.719-4.14C450.459,254.872,451.299,251.457,450.616,248.131z M389.688,227.897c2.762,0,5-2.238,5-5
	s-2.238-5-5-5h-4.418c-2.762,0-5,2.238-5,5s2.238,5,5,5H389.688z M79.118,381.166c0-2.762-2.239-5-5-5h-6.535v-6.534
	c0-2.762-2.239-5-5-5s-5,2.238-5,5v6.534h-6.534c-2.761,0-5,2.238-5,5s2.239,5,5,5h6.534v6.534c0,2.762,2.239,5,5,5s5-2.238,5-5
	v-6.534h6.535C76.879,386.166,79.118,383.928,79.118,381.166z M448.952,376.166h-6.534v-6.534c0-2.762-2.238-5-5-5s-5,2.238-5,5
	v6.534h-6.535c-2.762,0-5,2.238-5,5s2.238,5,5,5h6.535v6.534c0,2.762,2.238,5,5,5s5-2.238,5-5v-6.534h6.534c2.762,0,5-2.238,5-5
	S451.714,376.166,448.952,376.166z M249.068,74.214c35.034,0,66.19,16.96,85.718,43.117h3.6c3.816,0,6.922-3.105,6.922-6.922v-7.42
	l-14.616-16.266c-2.887-3.212-3.588-7.657-1.829-11.602c1.758-3.945,5.533-6.396,9.853-6.396H361.9c4.319,0,8.095,2.45,9.853,6.396
	c1.759,3.944,1.058,8.391-1.829,11.603l-14.615,16.265v7.42c0,3.816,3.104,6.922,6.921,6.922h7.085c2.762,0,5,2.238,5,5
	s-2.238,5-5,5h-7.085c-4.646,0-8.86-1.882-11.921-4.924c-2.416,2.4-5.555,4.062-9.053,4.662
	c9.401,15.947,14.805,34.528,14.805,54.354c0,32.262-14.296,61.239-36.873,80.91h16.708c4.303,0,8.507,0.43,12.582,1.227
	l-2.503-2.785c-2.883-3.208-3.582-7.647-1.826-11.587c1.756-3.938,5.526-6.386,9.839-6.386h23.126c4.313,0,8.084,2.447,9.84,6.387
	s1.056,8.379-1.827,11.587l-11.923,13.268c17.074,11.877,28.283,31.651,28.283,54.01v97.68c0,13.654-10.959,24.79-24.542,25.092
	v25.834c0,2.762-2.238,5-5,5s-5-2.238-5-5v-25.819H258.575c-2.762,0-5-2.238-5-5s2.238-5,5-5H376.38
	c8.33,0,15.106-6.776,15.106-15.106v-70.009h-47.288v39.434c0,2.762-2.238,5-5,5h-35.724c-9.173,0-17.961,3.398-24.746,9.57
	l-31.816,28.938c-8.631,7.85-19.809,12.173-31.475,12.173h-84.246v25.819c0,2.762-2.239,5-5,5s-5-2.238-5-5v-25.834
	c-13.583-0.304-24.542-11.439-24.542-25.095v-97.677c0-22.859,11.715-43.021,29.438-54.799l-11.214-12.479
	c-2.882-3.208-3.583-7.647-1.827-11.586c1.756-3.939,5.526-6.387,9.839-6.387h23.126c4.313,0,8.083,2.447,9.839,6.387
	c1.756,3.938,1.056,8.378-1.827,11.586l-2.144,2.386c3.376-0.539,6.834-0.827,10.36-0.827h16.708
	c-22.577-19.671-36.873-48.648-36.873-80.91c0-19.825,5.405-38.406,14.805-54.354c-3.498-0.601-6.637-2.262-9.053-4.662
	c-3.061,3.042-7.275,4.924-11.921,4.924h-7.084c-2.761,0-5-2.238-5-5s2.239-5,5-5h7.084c3.816,0,6.921-3.105,6.921-6.922v-7.42
	l-14.616-16.266c-2.886-3.211-3.587-7.657-1.829-11.602c1.759-3.945,5.534-6.396,9.853-6.396h23.185c4.319,0,8.094,2.45,9.853,6.396
	c1.758,3.944,1.057,8.39-1.829,11.602l-14.616,16.266v7.42c0,3.816,3.105,6.922,6.921,6.922h3.601
	C182.879,91.174,214.034,74.214,249.068,74.214z M147.828,93.593l12.178-13.553c0,0,0,0,0-0.001
	c0.093-0.104,0.341-0.379,0.133-0.846s-0.58-0.467-0.719-0.467h-23.185c-0.14,0-0.511,0-0.719,0.467s0.04,0.742,0.133,0.846
	L147.828,93.593z M350.309,93.593l12.178-13.553c0.094-0.104,0.341-0.38,0.134-0.847c-0.209-0.467-0.58-0.467-0.72-0.467h-23.185
	c-0.14,0-0.511,0-0.72,0.467c-0.207,0.467,0.04,0.742,0.134,0.846c0,0.001,0,0.001,0,0.001L350.309,93.593z M134.45,267.598
	l12.138-13.507c0.091-0.103,0.335-0.373,0.131-0.831s-0.568-0.458-0.706-0.458h-23.126c-0.137,0-0.501,0-0.706,0.458
	s0.04,0.729,0.131,0.831L134.45,267.598z M353.412,254.091l12.139,13.507l12.138-13.507c0.092-0.103,0.335-0.373,0.131-0.831
	s-0.568-0.458-0.706-0.458h-23.126c-0.137,0-0.501,0-0.706,0.458C353.077,253.718,353.321,253.989,353.412,254.091z
	 M305.751,272.333c-0.342,0.215-0.692,0.414-1.036,0.625c-0.227,0.139-0.455,0.274-0.683,0.412c-1.021,0.613-2.05,1.209-3.087,1.787
	c-0.357,0.199-0.712,0.401-1.072,0.597c-0.51,0.276-1.022,0.545-1.536,0.813c-0.484,0.253-0.97,0.501-1.458,0.746
	c-0.447,0.225-0.893,0.452-1.343,0.67c-0.881,0.427-1.768,0.842-2.662,1.245c-0.345,0.156-0.693,0.305-1.04,0.457
	c-0.705,0.31-1.414,0.611-2.127,0.905c-0.319,0.132-0.638,0.265-0.958,0.394c-1.01,0.405-2.025,0.799-3.049,1.174
	c-0.087,0.032-0.175,0.062-0.262,0.093c-0.984,0.358-1.977,0.698-2.974,1.027c-0.223,0.074-0.446,0.146-0.669,0.219
	c-2.192,0.707-4.414,1.347-6.665,1.913c-0.134,0.034-0.269,0.065-0.404,0.099c-1.036,0.257-2.077,0.498-3.125,0.724
	c-0.125,0.027-0.25,0.056-0.376,0.083c-2.27,0.48-4.566,0.887-6.885,1.221c-0.219,0.031-0.438,0.063-0.657,0.092
	c-1.038,0.144-2.08,0.273-3.127,0.386c-0.107,0.012-0.214,0.025-0.321,0.037c-1.126,0.117-2.257,0.215-3.393,0.297
	c-0.275,0.021-0.55,0.035-0.825,0.053c-0.858,0.056-1.718,0.101-2.581,0.136c-0.341,0.014-0.682,0.028-1.023,0.039
	c-1.043,0.032-2.09,0.053-3.14,0.055c-0.068,0-0.136,0.004-0.205,0.004s-0.136-0.004-0.205-0.004
	c-1.051-0.002-2.097-0.022-3.14-0.055c-0.342-0.011-0.683-0.025-1.024-0.039c-0.862-0.035-1.722-0.08-2.579-0.136
	c-0.276-0.018-0.552-0.032-0.828-0.053c-1.135-0.082-2.266-0.18-3.391-0.297c-0.109-0.012-0.217-0.026-0.326-0.038
	c-1.045-0.112-2.084-0.241-3.12-0.384c-0.221-0.03-0.442-0.062-0.663-0.094c-2.317-0.333-4.611-0.739-6.878-1.22
	c-0.13-0.027-0.259-0.057-0.389-0.085c-1.041-0.225-2.077-0.464-3.107-0.719c-0.14-0.035-0.28-0.067-0.419-0.103
	c-2.246-0.566-4.463-1.204-6.65-1.909c-0.229-0.074-0.458-0.149-0.687-0.225c-0.987-0.325-1.968-0.662-2.941-1.016
	c-0.097-0.035-0.195-0.068-0.292-0.104c-1.02-0.374-2.03-0.766-3.035-1.169c-0.327-0.131-0.653-0.267-0.979-0.401
	c-0.703-0.29-1.403-0.589-2.099-0.894c-0.355-0.155-0.71-0.308-1.063-0.467c-0.889-0.401-1.772-0.814-2.648-1.239
	c-0.457-0.222-0.91-0.452-1.365-0.681c-0.48-0.241-0.958-0.484-1.434-0.732c-0.519-0.271-1.037-0.543-1.552-0.822
	c-0.344-0.187-0.684-0.38-1.026-0.57c-1.055-0.588-2.101-1.193-3.139-1.817c-0.222-0.134-0.444-0.266-0.665-0.401
	c-0.346-0.211-0.698-0.412-1.042-0.628h-30.145c-8.271,0-16.12,1.834-23.181,5.095l-0.891,0.992c-0.948,1.056-2.3,1.658-3.719,1.658
	c-0.125,0-0.245-0.029-0.368-0.039c-16.399,9.7-27.432,27.585-27.432,48.014v17.671h47.06v-31.42c0-2.762,2.239-5,5-5s5,2.238,5,5
	v75.854h96.815c2.762,0,5,2.238,5,5s-2.238,5-5,5H158.71c-2.761,0-5-2.238-5-5v-39.434h-47.06v70.006
	c0,8.331,6.778,15.109,15.109,15.109h93.679c9.172,0,17.96-3.399,24.746-9.571L272,402.329c8.63-7.849,19.808-12.172,31.475-12.172
	h30.724v-75.854c0-2.762,2.238-5,5-5s5,2.238,5,5v31.42h47.288v-17.671c0-30.724-24.938-55.72-55.591-55.72H305.751z
	 M152.076,181.423c0,34.918,18.468,65.59,46.125,82.733c0.237,0.146,0.471,0.296,0.709,0.44c0.493,0.3,0.99,0.592,1.488,0.883
	c0.382,0.223,0.766,0.441,1.151,0.659c0.517,0.292,1.035,0.583,1.557,0.866c0.684,0.37,1.371,0.732,2.063,1.085
	c0.387,0.198,0.778,0.391,1.168,0.583c0.573,0.283,1.149,0.56,1.728,0.831c0.32,0.15,0.639,0.304,0.962,0.451
	c0.868,0.396,1.742,0.777,2.62,1.146c0.262,0.11,0.527,0.217,0.791,0.325c0.75,0.307,1.504,0.605,2.261,0.894
	c0.221,0.085,0.441,0.171,0.662,0.253c0.971,0.361,1.947,0.709,2.929,1.039c0.12,0.041,0.242,0.078,0.363,0.118
	c0.91,0.302,1.825,0.589,2.743,0.863c0.165,0.05,0.329,0.1,0.493,0.147c2.066,0.605,4.152,1.141,6.256,1.605
	c0.155,0.034,0.311,0.068,0.466,0.103c2.104,0.454,4.225,0.839,6.36,1.152c0.184,0.027,0.368,0.052,0.551,0.077
	c0.916,0.13,1.834,0.245,2.754,0.349c0.171,0.019,0.341,0.04,0.513,0.059c1.04,0.11,2.082,0.204,3.127,0.281
	c0.213,0.016,0.428,0.026,0.642,0.041c0.83,0.056,1.661,0.1,2.493,0.134c0.308,0.013,0.615,0.025,0.924,0.035
	c0.967,0.031,1.936,0.051,2.906,0.053c0.063,0,0.125,0.002,0.188,0.002s0.125-0.002,0.188-0.002c0.97-0.002,1.939-0.021,2.906-0.053
	c0.308-0.01,0.615-0.022,0.923-0.035c0.833-0.034,1.665-0.078,2.495-0.134c0.213-0.015,0.427-0.025,0.64-0.041
	c1.046-0.077,2.089-0.171,3.129-0.281c0.17-0.019,0.339-0.04,0.508-0.059c0.923-0.104,1.844-0.22,2.761-0.349
	c0.182-0.025,0.364-0.05,0.545-0.077c2.137-0.313,4.26-0.698,6.367-1.153c0.152-0.033,0.304-0.066,0.456-0.101
	c2.107-0.466,4.197-1.002,6.266-1.607c0.161-0.047,0.321-0.096,0.482-0.145c0.924-0.275,1.844-0.564,2.759-0.868
	c0.116-0.038,0.234-0.075,0.35-0.114c0.984-0.33,1.962-0.679,2.936-1.041c0.218-0.081,0.435-0.166,0.653-0.249
	c0.761-0.29,1.519-0.59,2.273-0.899c0.26-0.106,0.522-0.211,0.781-0.32c0.88-0.37,1.756-0.753,2.626-1.149
	c0.32-0.146,0.637-0.299,0.956-0.448c0.581-0.271,1.159-0.551,1.734-0.834c0.389-0.192,0.778-0.384,1.164-0.581
	c0.693-0.354,1.382-0.717,2.068-1.088c0.523-0.283,1.041-0.574,1.557-0.866c0.382-0.217,0.764-0.434,1.143-0.655
	c0.5-0.292,1-0.586,1.495-0.887c0.229-0.139,0.455-0.283,0.683-0.425c27.67-17.141,46.148-47.819,46.148-82.747
	c0-53.602-43.511-97.209-96.992-97.209C195.586,84.214,152.076,127.821,152.076,181.423z M257.064,63.034l4.561-22.248
	c3.341-16.299,17.841-28.129,34.479-28.129h17.675C323.933,4.712,336.664,0,350.309,0s26.375,4.712,36.53,12.657h17.675
	c16.637,0,31.137,11.83,34.479,28.129l6.407,31.26c1.29,6.293-0.3,12.758-4.36,17.735c-4.062,4.979-10.075,7.834-16.5,7.834h-9.052
	l1.823,13.368c1.571,11.521-1.913,23.151-9.559,31.91c-7.646,8.76-18.701,13.784-30.328,13.784h-12.756c-2.762,0-5-2.238-5-5
	s2.238-5,5-5h12.756c8.739,0,17.047-3.776,22.794-10.359c5.747-6.584,8.365-15.325,7.185-23.983l-8.126-59.591
	C395.954,28.376,374.902,10,350.309,10s-45.646,18.376-48.968,42.744l-2.684,19.678c-0.373,2.735-2.886,4.653-5.63,4.278
	c-2.736-0.373-4.651-2.894-4.278-5.63l2.684-19.678c1.474-10.811,5.857-20.635,12.278-28.735h-7.607
	c-11.91,0-22.291,8.469-24.682,20.137l-4.561,22.248c-0.485,2.366-2.568,3.997-4.894,3.997c-0.333,0-0.67-0.033-1.009-0.103
	C258.254,68.382,256.51,65.739,257.064,63.034z M396.984,22.657c5.372,6.809,9.19,14.721,11.177,23.219
	c0.03,0.125,0.055,0.251,0.084,0.377c0.155,0.682,0.297,1.366,0.428,2.055c0.04,0.208,0.08,0.416,0.118,0.625
	c0.146,0.816,0.281,1.635,0.394,2.46l4.939,36.223h10.415c3.407,0,6.597-1.515,8.751-4.155c2.154-2.64,2.997-6.068,2.313-9.406
	l-6.407-31.26c-2.392-11.668-12.772-20.137-24.682-20.137H396.984z M57.098,89.782c-4.061-4.979-5.65-11.442-4.36-17.736
	l6.408-31.26c3.341-16.299,17.841-28.129,34.478-28.129h17.675C121.453,4.712,134.184,0,147.828,0s26.375,4.712,36.53,12.657h17.675
	c16.637,0,31.137,11.83,34.478,28.129l4.56,22.248c0.555,2.705-1.189,5.348-3.894,5.902c-0.338,0.069-0.676,0.103-1.009,0.103
	c-2.325,0-4.408-1.631-4.893-3.997l-4.56-22.248c-2.392-11.668-12.772-20.137-24.682-20.137h-7.608
	c6.421,8.101,10.804,17.925,12.278,28.735l2.684,19.678c0.373,2.736-1.542,5.257-4.278,5.63c-2.738,0.382-5.257-1.542-5.63-4.278
	l-2.684-19.678C193.473,28.376,172.422,10,147.828,10c-23.823,0-44.322,17.242-48.604,40.471c-0.139,0.753-0.26,1.511-0.364,2.273
	l-5.529,40.547c0,0.001,0,0.002-0.001,0.003l-2.596,19.041c-1.181,8.658,1.438,17.4,7.185,23.983
	c5.747,6.584,14.055,10.359,22.793,10.359h12.756c2.761,0,5,2.238,5,5s-2.239,5-5,5h-12.756c-11.627,0-22.681-5.023-30.327-13.783
	c-7.646-8.76-11.13-20.391-9.56-31.911l1.823-13.368h-9.052C67.173,97.615,61.159,94.76,57.098,89.782z M64.846,83.461
	c2.154,2.64,5.344,4.154,8.751,4.154h10.415l4.939-36.223c0.003-0.024,0.008-0.048,0.011-0.072c0.109-0.795,0.239-1.585,0.38-2.372
	c0.04-0.221,0.082-0.44,0.124-0.661c0.128-0.674,0.268-1.345,0.419-2.012c0.031-0.136,0.059-0.272,0.091-0.408
	c1.987-8.495,5.804-16.404,11.174-23.21h-7.529c-11.91,0-22.291,8.469-24.682,20.137l-6.408,31.26
	C61.849,77.392,62.692,80.82,64.846,83.461z M172.027,53.759c2.761,0,5-2.238,5-5s-2.239-5-5-5h-4.429c-2.761,0-5,2.238-5,5
	s2.239,5,5,5H172.027z M133.058,48.759c0-2.762-2.239-5-5-5h-4.429c-2.761,0-5,2.238-5,5s2.239,5,5,5h4.429
	C130.819,53.759,133.058,51.521,133.058,48.759z M440.836,490h-3.813c-2.762,0-5,2.238-5,5s2.238,5,5,5h3.813c2.762,0,5-2.238,5-5
	S443.598,490,440.836,490z M419.862,490H80.138c-2.761,0-5,2.238-5,5s2.239,5,5,5h339.724c2.762,0,5-2.238,5-5
	S422.624,490,419.862,490z M62.979,490h-3.813c-2.761,0-5,2.238-5,5s2.239,5,5,5h3.813c2.761,0,5-2.238,5-5S65.74,490,62.979,490z
	 M221.121,156.372c-2.375,3.003-5.93,4.726-9.751,4.726c-3.822,0-7.376-1.722-9.751-4.725c-1.712-2.166-4.856-2.532-7.023-0.82
	c-2.166,1.714-2.533,4.857-0.819,7.023c4.283,5.416,10.696,8.521,17.594,8.521c6.897,0,13.31-3.105,17.594-8.521
	c1.713-2.166,1.346-5.311-0.819-7.023C225.979,153.841,222.833,154.208,221.121,156.372z M303.542,155.554
	c-2.166-1.712-5.311-1.347-7.023,0.818c-2.376,3.003-5.931,4.726-9.752,4.726s-7.376-1.722-9.75-4.725
	c-1.714-2.167-4.859-2.532-7.023-0.82c-2.166,1.713-2.533,4.857-0.82,7.023c4.283,5.415,10.695,8.521,17.594,8.521
	c6.897,0,13.311-3.105,17.594-8.521C306.074,160.411,305.707,157.267,303.542,155.554z M197.697,144.904
	c0.559,0,1.126-0.094,1.682-0.292l27.345-9.77c2.601-0.93,3.956-3.791,3.026-6.392c-0.929-2.599-3.792-3.952-6.391-3.026
	l-27.345,9.77c-2.601,0.93-3.956,3.791-3.026,6.392C193.719,143.63,195.644,144.904,197.697,144.904z M271.412,134.843l27.345,9.77
	c0.557,0.198,1.124,0.292,1.683,0.292c2.053,0,3.979-1.274,4.709-3.318c0.929-2.601-0.427-5.462-3.026-6.392l-27.345-9.77
	c-2.602-0.928-5.463,0.426-6.392,3.026S268.813,133.913,271.412,134.843z M193.386,211.477
	c14.023-16.136,34.306-25.479,55.646-25.634c21.413,0.155,41.695,9.498,55.719,25.635c5.729,6.593,5.027,16.619-1.565,22.35
	c-6.595,5.728-16.62,5.027-22.352-1.564c-8.014-9.221-19.59-14.589-31.766-14.733c-12.177,0.145-23.753,5.513-31.766,14.733
	c-3.128,3.599-7.537,5.442-11.968,5.442c-3.686,0-7.388-1.275-10.382-3.877c0,0,0-0.001,0-0.001
	C188.358,228.097,187.656,218.07,193.386,211.477z M201.512,226.28c2.43,2.111,6.129,1.854,8.243-0.578
	c9.899-11.389,24.209-18.013,39.261-18.173c0.036,0,0.07,0,0.106,0c15.051,0.16,29.362,6.783,39.26,18.173
	c2.115,2.433,5.813,2.689,8.244,0.577c2.431-2.113,2.689-5.811,0.576-8.242c-12.141-13.971-29.698-22.061-48.17-22.194
	c-18.399,0.134-35.957,8.224-48.099,22.194C198.82,220.469,199.08,224.166,201.512,226.28z"/>
</svg>
