<?xml version="1.0" encoding="utf-8"?>
<!-- Generator: Adobe Illustrator 23.0.0, SVG Export Plug-In . SVG Version: 6.00 Build 0)  -->
<svg version="1.1" id="Layer_1" xmlns="http://www.w3.org/2000/svg" xmlns:xlink="http://www.w3.org/1999/xlink" x="0px" y="0px"
	 viewBox="0 0 500 500" style="enable-background:new 0 0 500 500;" xml:space="preserve">
<style type="text/css">
	.st0{fill:#83E1E5;}
	.st1{fill:#AAB1BA;}
	.st2{fill:#FDDF7F;}
	.st3{fill:#ECF4F7;}
	.st4{fill:#1C1D21;}
</style>
<g>
	<path class="st2" d="M339.662,193.874h-34.174c28.251-18.271,46.963-50.066,46.963-86.255C352.451,50.944,306.582,5,250,5
		c-56.582,0-102.451,45.944-102.451,102.619c0,36.188,18.712,67.985,46.962,86.255h-34.174c-18.407,0-33.329,14.922-33.329,33.329
		V495h43.462h159.059h43.462V227.202C372.991,208.796,358.069,193.874,339.662,193.874z M204.946,396.266l-25.186,30.987
		c-6.093,10.985-9.29,23.341-9.29,35.903V314.288c0,7.112,1.81,14.108,5.26,20.329l29.215,38.252
		C208.981,380.146,208.981,388.989,204.946,396.266z M329.529,463.156c0-12.563-3.197-24.918-9.29-35.903l-25.186-30.987
		c-4.036-7.276-4.036-16.12,0-23.396l29.215-38.252c3.45-6.221,5.26-13.217,5.26-20.33V463.156z"/>
</g>
<g>
	<path class="st0" d="M329.529,314.288V193.874h-24.041c-5.751,3.72-11.888,6.892-18.353,9.411v29.992
		c0,13.566-10.998,24.564-24.564,24.564h-25.142c-13.566,0-24.564-10.998-24.564-24.564v-29.992
		c-6.465-2.52-12.603-5.691-18.354-9.411h-24.041v120.414H329.529z"/>
</g>
<path class="st4" d="M102.594,166.447c0-2.762,2.238-5,5-5h6.535v-6.535c0-2.762,2.238-5,5-5s5,2.238,5,5v6.535h6.534
	c2.762,0,5,2.238,5,5s-2.238,5-5,5h-6.534v6.534c0,2.762-2.238,5-5,5s-5-2.238-5-5v-6.534h-6.535
	C104.832,171.447,102.594,169.209,102.594,166.447z M369.337,171.447h6.534v6.534c0,2.762,2.238,5,5,5s5-2.238,5-5v-6.534h6.535
	c2.762,0,5-2.238,5-5s-2.238-5-5-5h-6.535v-6.535c0-2.762-2.238-5-5-5s-5,2.238-5,5v6.535h-6.534c-2.762,0-5,2.238-5,5
	S366.575,171.447,369.337,171.447z M439.108,490H60.892c-2.762,0-5,2.238-5,5s2.238,5,5,5h378.217c2.762,0,5-2.238,5-5
	S441.87,490,439.108,490z M42.478,490h-3.813c-2.762,0-5,2.238-5,5s2.238,5,5,5h3.813c2.762,0,5-2.238,5-5S45.239,490,42.478,490z
	 M461.335,490h-3.813c-2.762,0-5,2.238-5,5s2.238,5,5,5h3.813c2.762,0,5-2.238,5-5S464.097,490,461.335,490z M142.549,107.619
	C142.549,48.277,190.751,0,250,0s107.451,48.277,107.451,107.619c0,32.404-14.374,61.508-37.07,81.255h9.148h10.133
	c21.135,0,38.329,17.194,38.329,38.328v249.456c0,2.762-2.238,5-5,5s-5-2.238-5-5V227.202c0-15.62-12.708-28.328-28.329-28.328
	h-5.133v115.413v0.001v148.868c0,2.762-2.238,5-5,5s-5-2.238-5-5c0-11.538-2.922-22.974-8.452-33.099l-24.902-30.639
	c-0.186-0.228-0.35-0.472-0.492-0.728c-4.906-8.844-4.906-19.404,0-28.248c0.117-0.212,0.251-0.416,0.398-0.609l28.986-37.952
	c2.122-3.915,3.505-8.195,4.109-12.594h-47.907l18.925,15.488c2.137,1.749,2.451,4.898,0.702,7.036
	c-0.988,1.207-2.424,1.833-3.872,1.833c-1.114,0-2.234-0.37-3.164-1.131l-28.381-23.227h-20.959l-28.381,23.227
	c-0.93,0.761-2.051,1.131-3.164,1.131c-1.448,0-2.884-0.625-3.872-1.833c-1.749-2.138-1.435-5.287,0.702-7.036l18.925-15.488
	h-47.907c0.604,4.398,1.987,8.678,4.109,12.594l28.986,37.952c0.147,0.193,0.281,0.397,0.398,0.609
	c4.906,8.844,4.906,19.404,0,28.248c-0.143,0.256-0.307,0.5-0.492,0.728l-24.902,30.639c-5.53,10.125-8.452,21.561-8.452,33.099
	c0,2.762-2.238,5-5,5s-5-2.238-5-5V314.288V198.874h-5.133c-15.621,0-28.329,12.708-28.329,28.329v249.455c0,2.762-2.238,5-5,5
	s-5-2.238-5-5V227.203c0-21.135,17.194-38.329,38.329-38.329h10.133h9.148C156.923,169.127,142.549,140.023,142.549,107.619z
	 M250,215.239c-1.138,0-2.271-0.024-3.4-0.06c-0.178-0.006-0.356-0.008-0.534-0.015c-0.231-0.008-0.462-0.022-0.693-0.032
	c-0.793-0.033-1.583-0.077-2.372-0.128c-0.272-0.018-0.545-0.032-0.817-0.052c-0.229-0.017-0.457-0.032-0.685-0.05
	c-0.896-0.071-1.789-0.152-2.678-0.245c-0.16-0.017-0.319-0.036-0.479-0.054c-0.444-0.048-0.887-0.101-1.33-0.153
	c-0.517-0.063-1.033-0.131-1.547-0.2c-0.313-0.043-0.627-0.086-0.94-0.131c-0.65-0.095-1.299-0.197-1.947-0.303
	c-0.254-0.042-0.508-0.083-0.761-0.127c-0.24-0.041-0.482-0.077-0.722-0.12c-0.178-0.031-0.355-0.067-0.532-0.1
	c-0.598-0.11-1.195-0.226-1.791-0.345c-0.251-0.051-0.501-0.102-0.751-0.154c-0.37-0.077-0.74-0.159-1.109-0.24
	c-0.776-0.17-1.55-0.349-2.321-0.536c-0.406-0.099-0.811-0.198-1.215-0.302c-0.168-0.043-0.334-0.088-0.502-0.131
	c-0.661-0.173-1.321-0.35-1.979-0.535c-0.55-0.155-1.098-0.319-1.646-0.482c-0.46-0.138-0.924-0.262-1.382-0.405v22.938
	c0,10.788,8.776,19.564,19.564,19.564h25.141c7.417,0,13.883-4.148,17.2-10.246c1.508-2.772,2.365-5.947,2.365-9.318V210.34
	c-0.458,0.144-0.922,0.268-1.382,0.405c-0.548,0.163-1.095,0.327-1.646,0.482c-0.658,0.186-1.318,0.362-1.98,0.535
	c-0.167,0.043-0.334,0.088-0.502,0.131c-0.404,0.104-0.809,0.203-1.215,0.302c-0.772,0.188-1.546,0.366-2.322,0.537
	c-0.369,0.08-0.738,0.162-1.109,0.239c-0.25,0.053-0.501,0.104-0.751,0.154c-0.596,0.119-1.193,0.234-1.791,0.345
	c-0.177,0.032-0.354,0.068-0.532,0.1c-0.24,0.043-0.482,0.079-0.722,0.12c-0.253,0.044-0.507,0.085-0.761,0.127
	c-0.648,0.105-1.296,0.208-1.947,0.303c-0.313,0.045-0.626,0.088-0.94,0.131c-0.515,0.069-1.03,0.138-1.547,0.2
	c-0.443,0.053-0.886,0.105-1.33,0.153c-0.16,0.018-0.319,0.037-0.479,0.054c-0.889,0.093-1.782,0.174-2.677,0.244
	c-0.229,0.019-0.458,0.034-0.686,0.051c-0.272,0.02-0.545,0.034-0.817,0.052c-0.788,0.051-1.579,0.095-2.372,0.128
	c-0.231,0.01-0.461,0.024-0.693,0.032c-0.178,0.007-0.356,0.009-0.534,0.015C252.271,215.215,251.138,215.239,250,215.239z
	 M175.471,342.515v82.168c0.122-0.203,0.259-0.398,0.409-0.583l24.892-30.626c2.968-5.628,2.956-12.255-0.034-17.876
	L175.471,342.515z M324.529,342.515l-25.267,33.083c-2.99,5.621-3.002,12.248-0.034,17.876L324.12,424.1
	c0.15,0.185,0.287,0.38,0.409,0.584V342.515z M324.529,198.874h-17.55c-2.384,1.496-4.823,2.883-7.303,4.18
	c-0.014,0.008-0.028,0.015-0.042,0.021c-1.128,0.59-2.266,1.158-3.413,1.706c-0.293,0.141-0.588,0.275-0.882,0.413
	c-0.862,0.402-1.728,0.795-2.599,1.174c-0.202,0.089-0.402,0.187-0.604,0.273v26.636c0,0.51-0.013,1.016-0.039,1.52
	c-0.793,15.599-13.732,28.045-29.525,28.045h-0.001H237.43c-16.302,0-29.564-13.263-29.564-29.564v-26.636
	c-0.203-0.087-0.402-0.185-0.604-0.272c-0.873-0.38-1.74-0.773-2.604-1.177c-0.292-0.137-0.585-0.271-0.876-0.41
	c-1.153-0.551-2.297-1.122-3.431-1.715c-0.007-0.004-0.014-0.008-0.022-0.012c-2.481-1.298-4.922-2.685-7.308-4.182h-17.55v110.414
	h149.059V198.874z M152.549,107.619c0,41.884,26.47,77.687,63.529,91.516c0.433,0.161,0.867,0.317,1.301,0.473
	c0.951,0.339,1.908,0.664,2.872,0.975c0.573,0.184,1.148,0.363,1.724,0.536c0.406,0.122,0.811,0.247,1.218,0.364
	c0.391,0.111,0.784,0.217,1.177,0.324c0.017,0.004,0.034,0.009,0.051,0.014c0.704,0.191,1.409,0.376,2.116,0.552
	c0.099,0.024,0.198,0.049,0.297,0.073c0.547,0.134,1.095,0.266,1.645,0.39c0.725,0.164,1.453,0.314,2.182,0.462
	c0.438,0.088,0.874,0.179,1.313,0.262c0.191,0.035,0.38,0.075,0.572,0.109c1.087,0.197,2.178,0.375,3.273,0.534
	c0.247,0.036,0.495,0.07,0.743,0.104c0.364,0.051,0.729,0.092,1.093,0.138c0.85,0.107,1.7,0.21,2.554,0.296
	c0.541,0.054,1.083,0.1,1.625,0.146c0.894,0.074,1.791,0.136,2.688,0.186c0.462,0.025,0.924,0.055,1.386,0.074
	c1.361,0.056,2.724,0.094,4.093,0.094s2.732-0.038,4.093-0.094c0.463-0.02,0.924-0.049,1.386-0.074
	c0.898-0.05,1.794-0.111,2.688-0.186c0.542-0.046,1.084-0.092,1.625-0.146c0.854-0.086,1.705-0.188,2.554-0.296
	c0.364-0.046,0.729-0.087,1.092-0.138c0.248-0.034,0.496-0.068,0.743-0.104c1.094-0.159,2.186-0.337,3.273-0.534
	c0.191-0.034,0.381-0.074,0.572-0.109c0.438-0.083,0.875-0.174,1.313-0.262c0.729-0.147,1.457-0.298,2.182-0.462
	c0.55-0.124,1.098-0.256,1.645-0.39c0.099-0.024,0.198-0.049,0.297-0.073c0.708-0.176,1.413-0.36,2.116-0.552
	c0.017-0.005,0.034-0.01,0.051-0.014c0.393-0.107,0.786-0.213,1.177-0.324c0.408-0.117,0.813-0.242,1.218-0.364
	c0.576-0.173,1.15-0.353,1.724-0.536c0.964-0.311,1.921-0.636,2.872-0.975c0.434-0.155,0.868-0.312,1.301-0.473
	c37.06-13.829,63.529-49.632,63.529-91.516C347.451,53.792,303.734,10,250,10S152.549,53.792,152.549,107.619z M226.036,163.373
	c0,2.762,2.238,5,5,5h37.928c2.762,0,5-2.238,5-5s-2.238-5-5-5h-37.928C228.274,158.373,226.036,160.611,226.036,163.373z
	 M287.698,111.503c6.897,0,13.311-3.105,17.594-8.521c1.714-2.166,1.347-5.311-0.818-7.023c-2.166-1.712-5.311-1.347-7.023,0.818
	c-2.376,3.003-5.931,4.726-9.752,4.726s-7.375-1.723-9.751-4.726c-1.714-2.166-4.857-2.532-7.023-0.818
	c-2.165,1.713-2.532,4.857-0.818,7.023C274.389,108.397,280.802,111.503,287.698,111.503z M212.302,111.503
	c6.896,0,13.31-3.105,17.593-8.521c1.714-2.166,1.347-5.311-0.818-7.023c-2.166-1.712-5.31-1.347-7.023,0.818
	c-2.376,3.003-5.93,4.726-9.751,4.726s-7.376-1.723-9.752-4.726c-1.713-2.166-4.858-2.532-7.023-0.818
	c-2.165,1.713-2.532,4.857-0.818,7.023C198.991,108.397,205.404,111.503,212.302,111.503z M250,409.006c2.762,0,5-2.238,5-5v-17.041
	h13.395c2.762,0,5-2.238,5-5s-2.238-5-5-5H255v-17.042c0-2.762-2.238-5-5-5s-5,2.238-5,5v17.042h-13.388c-2.762,0-5,2.238-5,5
	s2.238,5,5,5H245v17.041C245,406.768,247.238,409.006,250,409.006z"/>
</svg>
