<?xml version="1.0" encoding="utf-8"?>
<!-- Generator: Adobe Illustrator 23.0.0, SVG Export Plug-In . SVG Version: 6.00 Build 0)  -->
<svg version="1.1" id="Layer_1" xmlns="http://www.w3.org/2000/svg" xmlns:xlink="http://www.w3.org/1999/xlink" x="0px" y="0px"
	 viewBox="0 0 500 500" style="enable-background:new 0 0 500 500;" xml:space="preserve">
<style type="text/css">
	.st0{fill:#83E1E5;}
	.st1{fill:#AAB1BA;}
	.st2{fill:#FDDF7F;}
	.st3{fill:#ECF4F7;}
	.st4{fill:#1C1D21;}
</style>
<g>
	<path class="st2" d="M283.355,149.916c8.767-8.642,14.209-20.659,14.209-33.953c0-26.312-21.295-47.642-47.563-47.642
		s-47.563,21.33-47.563,47.642c0,13.294,5.442,25.311,14.209,33.953c10.263-4.31,21.53-6.697,33.355-6.697
		S273.092,145.605,283.355,149.916z"/>
</g>
<g>
	<path class="st2" d="M114.239,156.006H99.523c-0.239,0.155-0.483,0.301-0.724,0.451c13.511-8.404,22.512-23.394,22.512-40.495
		c0-26.312-21.295-47.642-47.563-47.642c-26.269,0-47.563,21.33-47.563,47.642c0,17.103,9.002,32.093,22.514,40.496
		c-0.242-0.15-0.487-0.297-0.726-0.452H33.256C17.651,156.006,5,168.678,5,184.309v77.818h137.495v-77.818
		C142.495,168.678,129.844,156.006,114.239,156.006z"/>
</g>
<g>
	<path class="st2" d="M466.744,156.006h-14.715c-0.239,0.155-0.484,0.302-0.726,0.452c13.512-8.403,22.514-23.394,22.514-40.496
		c0-26.312-21.295-47.642-47.563-47.642c-26.269,0-47.563,21.33-47.563,47.642c0,17.102,9.001,32.091,22.512,40.495
		c-0.242-0.15-0.486-0.296-0.724-0.451h-14.716c-15.605,0-28.256,12.672-28.256,28.303v77.818H495v-77.818
		C495,168.678,482.349,156.006,466.744,156.006z"/>
</g>
<g>
	<g>
		<ellipse class="st0" cx="250" cy="229.694" rx="86.333" ry="86.475"/>
	</g>
</g>
<g>
	<g>
		<path class="st1" d="M323.497,302.379h-26.71c-13.481,8.724-29.542,13.791-46.786,13.791c-17.244,0-33.305-5.066-46.786-13.791
			h-26.71c-28.326,0-51.288,23.001-51.288,51.373V495H250h124.785V353.751C374.785,325.379,351.822,302.379,323.497,302.379z"/>
	</g>
</g>
<g>
	<g>
		<rect x="125.215" y="383.98" class="st0" width="44.498" height="111.02"/>
	</g>
</g>
<g>
	<g>
		<rect x="330.287" y="383.98" class="st0" width="44.498" height="111.02"/>
	</g>
</g>
<path class="st4" d="M202.425,138.297c-3.31-7.057-4.989-14.571-4.989-22.334c0-29.027,23.58-52.642,52.563-52.642
	s52.563,23.615,52.563,52.642c0,7.764-1.679,15.278-4.989,22.334c-0.851,1.813-2.651,2.877-4.53,2.877
	c-0.711,0-1.434-0.152-2.12-0.474c-2.5-1.173-3.576-4.15-2.403-6.65c2.683-5.717,4.042-11.803,4.042-18.087
	c0-23.513-19.094-42.642-42.563-42.642s-42.563,19.129-42.563,42.642c0,6.285,1.36,12.37,4.042,18.087
	c1.172,2.5,0.097,5.478-2.403,6.65C206.574,141.872,203.598,140.796,202.425,138.297z M37.515,262.127v-79.576c0-2.761-2.239-5-5-5
	s-5,2.239-5,5v79.576c0,2.761,2.239,5,5,5S37.515,264.888,37.515,262.127z M109.98,182.551v79.576c0,2.761,2.239,5,5,5s5-2.239,5-5
	v-79.576c0-2.761-2.239-5-5-5S109.98,179.79,109.98,182.551z M33.256,161.006C20.433,161.006,10,171.46,10,184.309v77.818
	c0,2.761-2.239,5-5,5s-5-2.239-5-5v-77.818c0-18.363,14.919-33.303,33.256-33.303h1.311c-8.315-9.315-13.384-21.595-13.384-35.044
	c0-29.027,23.58-52.642,52.563-52.642s52.563,23.615,52.563,52.642c0,13.448-5.068,25.729-13.384,35.044h1.311
	c18.337,0,33.256,14.939,33.256,33.303v77.818c0,2.761-2.239,5-5,5s-5-2.239-5-5v-77.818c0-12.849-10.433-23.303-23.256-23.303
	H100.96c-4.347,2.639-9.028,4.609-13.903,5.884c-0.115,0.03-0.229,0.061-0.345,0.09c-0.787,0.2-1.578,0.387-2.374,0.55
	c-0.019,0.004-0.039,0.007-0.058,0.011c-0.744,0.152-1.492,0.283-2.243,0.402c-0.19,0.03-0.381,0.06-0.572,0.088
	c-0.776,0.115-1.554,0.218-2.337,0.298c-0.027,0.002-0.054,0.004-0.081,0.007c-0.761,0.076-1.526,0.132-2.292,0.175
	c-0.203,0.011-0.407,0.022-0.611,0.031c-0.797,0.036-1.596,0.061-2.397,0.061s-1.6-0.025-2.397-0.061
	c-0.204-0.009-0.407-0.02-0.611-0.031c-0.766-0.043-1.531-0.099-2.292-0.175c-0.027-0.003-0.054-0.004-0.081-0.007
	c-0.783-0.08-1.561-0.184-2.337-0.298c-0.191-0.028-0.382-0.058-0.572-0.088c-0.751-0.119-1.5-0.25-2.243-0.402
	c-0.019-0.004-0.039-0.007-0.058-0.011c-0.797-0.164-1.587-0.35-2.374-0.55c-0.115-0.029-0.23-0.06-0.345-0.09
	c-4.875-1.275-9.556-3.245-13.903-5.884H33.256z M51.408,152.238c0.304,0.188,0.612,0.369,0.921,0.55
	c0.642,0.376,1.295,0.735,1.957,1.078c0.411,0.212,0.822,0.426,1.24,0.624c0.39,0.186,0.786,0.362,1.183,0.537
	c0.457,0.2,0.918,0.391,1.382,0.575c0.331,0.132,0.659,0.27,0.994,0.394c0.758,0.279,1.524,0.533,2.297,0.768
	c0.295,0.09,0.594,0.17,0.892,0.254c0.619,0.173,1.241,0.333,1.868,0.478c0.252,0.059,0.502,0.121,0.755,0.175
	c0.858,0.182,1.721,0.34,2.59,0.469c0.192,0.029,0.387,0.048,0.58,0.074c0.726,0.097,1.456,0.176,2.188,0.236
	c0.251,0.021,0.501,0.042,0.753,0.058c0.91,0.058,1.823,0.098,2.741,0.098s1.831-0.04,2.741-0.098
	c0.252-0.016,0.502-0.037,0.753-0.058c0.733-0.06,1.462-0.138,2.188-0.236c0.193-0.026,0.388-0.046,0.58-0.074
	c0.87-0.129,1.733-0.287,2.59-0.469c0.253-0.054,0.503-0.116,0.755-0.175c0.627-0.145,1.249-0.305,1.868-0.478
	c0.298-0.084,0.597-0.164,0.892-0.254c0.772-0.235,1.539-0.489,2.297-0.768c0.335-0.124,0.663-0.262,0.994-0.394
	c0.464-0.184,0.924-0.375,1.382-0.575c0.397-0.175,0.793-0.351,1.183-0.537c0.417-0.198,0.828-0.412,1.24-0.624
	c0.663-0.343,1.315-0.702,1.957-1.078c0.308-0.181,0.616-0.362,0.921-0.55c12.126-7.522,20.224-20.967,20.224-36.276
	c0-23.513-19.094-42.642-42.563-42.642S31.184,92.45,31.184,115.962C31.184,131.271,39.282,144.716,51.408,152.238z M390.02,262.127
	v-79.576c0-2.761-2.239-5-5-5s-5,2.239-5,5v79.576c0,2.761,2.239,5,5,5S390.02,264.888,390.02,262.127z M467.485,177.551
	c-2.761,0-5,2.239-5,5v79.576c0,2.761,2.239,5,5,5s5-2.239,5-5v-79.576C472.485,179.79,470.246,177.551,467.485,177.551z
	 M500,184.309v77.818c0,2.761-2.239,5-5,5s-5-2.239-5-5v-77.818c0-12.849-10.433-23.303-23.256-23.303h-13.278
	c-4.347,2.639-9.028,4.609-13.903,5.884c-0.115,0.03-0.229,0.061-0.345,0.09c-0.787,0.2-1.578,0.387-2.374,0.55
	c-0.019,0.004-0.039,0.007-0.058,0.011c-0.744,0.152-1.492,0.283-2.243,0.402c-0.19,0.03-0.381,0.06-0.572,0.088
	c-0.776,0.115-1.554,0.218-2.337,0.298c-0.027,0.002-0.054,0.004-0.081,0.007c-0.761,0.076-1.526,0.132-2.292,0.175
	c-0.203,0.011-0.407,0.022-0.611,0.031c-0.797,0.036-1.596,0.061-2.397,0.061s-1.6-0.025-2.397-0.061
	c-0.204-0.009-0.407-0.02-0.611-0.031c-0.766-0.043-1.531-0.099-2.292-0.175c-0.027-0.003-0.054-0.004-0.081-0.007
	c-0.783-0.08-1.561-0.184-2.337-0.298c-0.191-0.028-0.382-0.058-0.572-0.088c-0.751-0.119-1.5-0.25-2.243-0.402
	c-0.019-0.004-0.039-0.007-0.058-0.011c-0.797-0.164-1.587-0.35-2.374-0.55c-0.115-0.029-0.23-0.06-0.345-0.09
	c-4.875-1.275-9.556-3.245-13.903-5.884h-13.278c-12.824,0-23.256,10.454-23.256,23.303v77.818c0,2.761-2.239,5-5,5s-5-2.239-5-5
	v-77.818c0-18.363,14.919-33.303,33.256-33.303h1.311c-8.315-9.315-13.384-21.595-13.384-35.044
	c0-29.027,23.58-52.642,52.563-52.642s52.563,23.615,52.563,52.642c0,13.448-5.068,25.729-13.384,35.044h1.311
	C485.081,151.006,500,165.946,500,184.309z M468.816,115.962c0-23.513-19.094-42.642-42.563-42.642s-42.563,19.129-42.563,42.642
	c0,15.309,8.098,28.753,20.224,36.276c0.304,0.188,0.612,0.369,0.921,0.55c0.642,0.376,1.295,0.735,1.957,1.078
	c0.411,0.212,0.822,0.426,1.24,0.624c0.39,0.186,0.786,0.362,1.183,0.537c0.457,0.2,0.918,0.391,1.382,0.575
	c0.331,0.132,0.659,0.27,0.994,0.394c0.758,0.279,1.524,0.533,2.297,0.768c0.295,0.09,0.594,0.17,0.892,0.254
	c0.619,0.173,1.241,0.333,1.868,0.478c0.252,0.059,0.502,0.121,0.755,0.175c0.858,0.182,1.721,0.34,2.59,0.469
	c0.192,0.029,0.387,0.048,0.58,0.074c0.726,0.097,1.456,0.176,2.188,0.236c0.251,0.021,0.501,0.042,0.753,0.058
	c0.91,0.058,1.823,0.098,2.741,0.098s1.831-0.04,2.741-0.098c0.252-0.016,0.502-0.037,0.753-0.058
	c0.733-0.06,1.462-0.138,2.188-0.236c0.193-0.026,0.388-0.046,0.58-0.074c0.87-0.129,1.733-0.287,2.59-0.469
	c0.253-0.054,0.503-0.116,0.755-0.175c0.627-0.145,1.249-0.305,1.868-0.478c0.298-0.084,0.597-0.164,0.892-0.254
	c0.772-0.235,1.539-0.489,2.297-0.768c0.335-0.124,0.663-0.262,0.994-0.394c0.464-0.184,0.924-0.375,1.382-0.575
	c0.397-0.175,0.793-0.351,1.183-0.537c0.417-0.198,0.828-0.412,1.24-0.624c0.663-0.343,1.315-0.702,1.957-1.078
	c0.308-0.181,0.616-0.362,0.921-0.55C460.718,144.716,468.816,131.271,468.816,115.962z M238.465,21.535H245v6.534
	c0,2.761,2.239,5,5,5s5-2.239,5-5v-6.534h6.535c2.761,0,5-2.239,5-5s-2.239-5-5-5H255V5c0-2.761-2.239-5-5-5s-5,2.239-5,5v6.535
	h-6.535c-2.761,0-5,2.239-5,5S235.704,21.535,238.465,21.535z M62.213,21.535h6.535v6.534c0,2.761,2.239,5,5,5s5-2.239,5-5v-6.534
	h6.535c2.761,0,5-2.239,5-5s-2.239-5-5-5h-6.535V5c0-2.761-2.239-5-5-5s-5,2.239-5,5v6.535h-6.535c-2.761,0-5,2.239-5,5
	S59.452,21.535,62.213,21.535z M414.718,21.535h6.535v6.534c0,2.761,2.239,5,5,5s5-2.239,5-5v-6.534h6.535c2.761,0,5-2.239,5-5
	s-2.239-5-5-5h-6.535V5c0-2.761-2.239-5-5-5s-5,2.239-5,5v6.535h-6.535c-2.761,0-5,2.239-5,5S411.957,21.535,414.718,21.535z
	 M158.667,229.694c0-50.439,40.972-91.475,91.333-91.475s91.333,41.036,91.333,91.475c0,26.797-11.564,50.94-29.957,67.685h12.12
	c31.038,0,56.289,25.289,56.289,56.373v125.792c0,2.761-2.239,5-5,5s-5-2.239-5-5V388.98h-34.498v90.563c0,2.761-2.239,5-5,5
	s-5-2.239-5-5V350.561c0-2.761,2.239-5,5-5s5,2.239,5,5v28.419h34.498v-25.229c0-25.57-20.765-46.373-46.289-46.373H298.24
	c-5.952,3.715-12.277,6.695-18.85,8.931c-0.067,0.023-0.134,0.046-0.201,0.069c-0.637,0.215-1.276,0.424-1.918,0.625
	c-0.203,0.064-0.407,0.124-0.611,0.186c-0.942,0.287-1.888,0.56-2.839,0.816c-0.409,0.111-0.817,0.223-1.229,0.328
	c-0.438,0.112-0.877,0.218-1.317,0.323c-0.512,0.123-1.026,0.24-1.541,0.354c-0.369,0.082-0.738,0.166-1.108,0.242
	c-0.86,0.179-1.723,0.348-2.592,0.502c-0.234,0.042-0.47,0.077-0.704,0.117c-0.716,0.122-1.434,0.235-2.155,0.34
	c-0.289,0.042-0.579,0.083-0.869,0.122c-0.788,0.107-1.578,0.204-2.372,0.29c-0.153,0.017-0.306,0.037-0.459,0.052
	c-0.943,0.098-1.891,0.179-2.842,0.248c-0.24,0.017-0.48,0.031-0.72,0.046c-0.74,0.048-1.482,0.086-2.226,0.116
	c-0.269,0.011-0.537,0.022-0.807,0.031c-0.958,0.03-1.917,0.05-2.882,0.05s-1.925-0.02-2.882-0.05
	c-0.269-0.009-0.538-0.02-0.807-0.031c-0.744-0.03-1.486-0.068-2.226-0.116c-0.24-0.015-0.48-0.029-0.72-0.046
	c-0.951-0.069-1.899-0.15-2.842-0.248c-0.153-0.016-0.306-0.036-0.459-0.052c-0.794-0.086-1.585-0.184-2.372-0.29
	c-0.29-0.039-0.579-0.08-0.869-0.122c-0.721-0.105-1.439-0.219-2.155-0.34c-0.235-0.04-0.47-0.075-0.704-0.117
	c-0.868-0.155-1.732-0.323-2.592-0.502c-0.37-0.077-0.739-0.161-1.108-0.242c-0.515-0.114-1.029-0.232-1.541-0.354
	c-0.44-0.105-0.879-0.211-1.317-0.323c-0.411-0.105-0.82-0.218-1.229-0.328c-0.951-0.257-1.897-0.529-2.839-0.816
	c-0.204-0.062-0.408-0.123-0.611-0.186c-0.642-0.201-1.281-0.41-1.918-0.625c-0.067-0.023-0.134-0.046-0.201-0.069
	c-6.573-2.236-12.898-5.216-18.85-8.931h-25.256c-25.523,0-46.289,20.803-46.289,46.373v25.229h34.498v-28.419c0-2.761,2.239-5,5-5
	s5,2.239,5,5v128.982c0,2.761-2.239,5-5,5s-5-2.239-5-5V388.98h-34.498v90.563c0,2.761-2.239,5-5,5s-5-2.239-5-5V353.751
	c0-31.084,25.251-56.373,56.289-56.373h12.12C170.231,280.634,158.667,256.491,158.667,229.694z M168.667,229.694
	c0,36.451,24.021,67.386,57.037,77.76c0.085,0.027,0.17,0.054,0.255,0.08c2.415,0.75,4.879,1.386,7.384,1.911
	c0.248,0.052,0.497,0.099,0.746,0.149c1,0.199,2.006,0.379,3.018,0.542c0.259,0.042,0.518,0.087,0.778,0.126
	c1.201,0.18,2.409,0.336,3.626,0.463c0.239,0.025,0.479,0.042,0.718,0.064c1.002,0.096,2.01,0.172,3.023,0.231
	c0.342,0.02,0.685,0.04,1.028,0.055c1.234,0.056,2.474,0.094,3.721,0.094s2.487-0.039,3.721-0.094
	c0.343-0.016,0.686-0.035,1.028-0.055c1.013-0.059,2.02-0.135,3.023-0.231c0.239-0.023,0.479-0.039,0.718-0.064
	c1.217-0.127,2.426-0.283,3.626-0.463c0.26-0.039,0.518-0.085,0.777-0.126c1.012-0.162,2.019-0.342,3.019-0.542
	c0.249-0.049,0.498-0.097,0.746-0.149c2.505-0.524,4.969-1.161,7.384-1.911c0.085-0.026,0.17-0.054,0.255-0.08
	c33.016-10.374,57.037-41.309,57.037-77.76c0-44.925-36.486-81.475-81.333-81.475S168.667,184.769,168.667,229.694z
	 M212.301,230.987c6.898,0,13.311-3.106,17.594-8.521c1.713-2.166,1.346-5.311-0.819-7.023c-2.166-1.713-5.31-1.346-7.023,0.819
	c-2.375,3.003-5.929,4.725-9.751,4.725c-3.821,0-7.375-1.722-9.751-4.725c-1.713-2.166-4.858-2.531-7.023-0.819
	c-2.166,1.713-2.533,4.858-0.819,7.023C198.992,227.881,205.404,230.987,212.301,230.987z M287.699,230.987
	c6.897,0,13.31-3.106,17.594-8.521c1.713-2.166,1.346-5.31-0.819-7.023c-2.165-1.713-5.311-1.346-7.023,0.819
	c-2.375,3.003-5.93,4.725-9.751,4.725c-3.822,0-7.376-1.722-9.751-4.725c-1.712-2.165-4.855-2.533-7.023-0.819
	c-2.166,1.713-2.533,4.857-0.819,7.023C274.388,227.881,280.801,230.987,287.699,230.987z M230.854,279.586
	c2.166,1.714,5.311,1.347,7.023-0.819c2.953-3.733,7.372-5.874,12.123-5.874c4.751,0,9.17,2.141,12.124,5.874
	c0.987,1.248,2.449,1.898,3.925,1.898c1.086,0,2.181-0.353,3.099-1.079c2.166-1.713,2.533-4.858,0.819-7.023
	c-4.862-6.146-12.139-9.67-19.966-9.67c-7.827,0-15.104,3.524-19.966,9.67C228.321,274.728,228.687,277.873,230.854,279.586z
	 M439.108,490H60.892c-2.761,0-5,2.239-5,5s2.239,5,5,5h378.216c2.761,0,5-2.239,5-5S441.869,490,439.108,490z M42.478,490h-3.813
	c-2.761,0-5,2.239-5,5s2.239,5,5,5h3.813c2.761,0,5-2.239,5-5S45.239,490,42.478,490z M461.335,490h-3.813c-2.761,0-5,2.239-5,5
	s2.239,5,5,5h3.813c2.761,0,5-2.239,5-5S464.097,490,461.335,490z"/>
</svg>
