<?xml version="1.0" encoding="utf-8"?>
<!-- Generator: Adobe Illustrator 23.0.0, SVG Export Plug-In . SVG Version: 6.00 Build 0)  -->
<svg version="1.1" id="Layer_1" xmlns="http://www.w3.org/2000/svg" xmlns:xlink="http://www.w3.org/1999/xlink" x="0px" y="0px"
	 viewBox="0 0 500 500" style="enable-background:new 0 0 500 500;" xml:space="preserve">
<style type="text/css">
	.st0{fill:#83E1E5;}
	.st1{fill:#AAB1BA;}
	.st2{fill:#FDDF7F;}
	.st3{fill:#ECF4F7;}
	.st4{fill:#1C1D21;}
</style>
<g>
	<path class="st2" d="M338.978,392.804v62.754H191.65l39.067-83.305c4.762-10.153,4.802-21.464,0.828-31.267
		c5.986,1.096,12.153,1.673,18.455,1.673c56.329,0,101.992-45.76,101.992-102.209c0-56.448-45.663-102.209-101.992-102.209
		S148.008,184.002,148.008,240.45c0,7.866,0.889,15.524,2.568,22.882h-6.965c-5.804,0-10.51,4.705-10.51,10.509v14.661
		c0,5.637,2.315,11.026,6.402,14.907l44.455,42.444c6.009,5.706,7.799,14.564,4.477,22.156l-35.402,59.017v-34.222h-50.452v81.135
		c0,11.631,9.429,21.061,21.061,21.061h22.691h6.995h223.028c11.632,0,21.061-9.43,21.061-21.062v-81.135H338.978z"/>
</g>
<g>
	<path class="st0" d="M336.827,326.359h-31.554c-15.926,10.312-34.901,16.3-55.273,16.3c-6.307,0-12.479-0.578-18.469-1.676
		c3.98,9.803,3.95,21.113-0.814,31.27l-39.067,83.305h147.328v-62.753h58.44v-5.725
		C397.418,353.545,370.291,326.359,336.827,326.359z"/>
</g>
<g>
	<path class="st0" d="M153.034,392.804v34.222l35.402-59.017c3.322-7.592,1.532-16.45-4.477-22.156l-20.418-19.494h-0.368
		c-33.464,0-60.591,27.186-60.591,60.721v5.725H153.034z"/>
</g>
<g>
	<g>
		<path class="st3" d="M210.417,291.219c5.364,2.664,11.871,0.478,14.536-4.885c6.095-12.265,17.107-21.297,30.258-24.864
			c13.224-3.288,27.24-0.761,38.536,6.984c4.939,3.387,11.687,2.128,15.075-2.811c3.386-4.939,2.128-11.688-2.811-15.075
			c-16.476-11.297-36.951-14.955-56.255-10.087c-19.231,5.148-35.333,18.312-44.224,36.203
			C202.868,282.047,205.054,288.554,210.417,291.219z"/>
	</g>
</g>
<path class="st4" d="M81.259,303.889c0-2.762,2.239-5,5-5h6.535v-6.534c0-2.762,2.239-5,5-5s5,2.238,5,5v6.534h6.534
	c2.761,0,5,2.238,5,5s-2.239,5-5,5h-6.534v6.535c0,2.762-2.239,5-5,5s-5-2.238-5-5v-6.535h-6.535
	C83.498,308.889,81.259,306.65,81.259,303.889z M374.672,308.889h6.534v6.535c0,2.762,2.239,5,5,5s5-2.238,5-5v-6.535h6.535
	c2.761,0,5-2.238,5-5s-2.239-5-5-5h-6.535v-6.534c0-2.762-2.239-5-5-5s-5,2.238-5,5v6.534h-6.534c-2.761,0-5,2.238-5,5
	S371.911,308.889,374.672,308.889z M43.038,490h-3.813c-2.761,0-5,2.238-5,5s2.239,5,5,5h3.813c2.761,0,5-2.238,5-5
	S45.799,490,43.038,490z M444.802,495c0,2.762-2.239,5-5,5h-63.445h-11.101H191.65c-2.761,0-5-2.238-5-5s2.239-5,5-5h173.606h11.101
	c8.856,0,16.061-7.205,16.061-16.062v-76.134h-48.44v57.753c0,2.762-2.239,5-5,5h-128.31c-2.761,0-5-2.238-5-5s2.239-5,5-5h123.31
	v-57.753v-24.315c0-2.762,2.239-5,5-5s5,2.238,5,5v19.315h48.44v-0.725c0-30.725-24.938-55.721-55.591-55.721h-30.181
	c-16.438,10.321-35.857,16.3-56.646,16.3c-3.817,0-7.639-0.229-11.435-0.635c1.791,8.97,0.812,18.538-3.321,27.352l-49.146,104.799
	C180.165,491.825,167.302,500,153.329,500h-18.585h-11.101H60.198c-2.761,0-5-2.238-5-5s2.239-5,5-5h42.944
	c-3.478-4.43-5.56-10.006-5.56-16.062v-81.134v-0.001v-5.724c0-32.445,23.593-59.457,54.488-64.76l-16.019-15.295
	c-5.048-4.794-7.949-11.55-7.949-18.524v-14.66c0-8.552,6.958-15.51,15.509-15.51h0.885c-0.987-5.891-1.488-11.881-1.488-17.881
	c0-59.115,47.997-107.209,106.992-107.209s106.992,48.094,106.992,107.209c0,32.261-14.296,61.238-36.872,80.909h16.707
	c36.167,0,65.591,29.482,65.591,65.721v5.725v81.134c0,6.056-2.082,11.632-5.56,16.062h42.944
	C442.563,490,444.802,492.238,444.802,495z M107.582,387.804h40.452v-19.314c0-2.762,2.239-5,5-5s5,2.238,5,5v24.314v0.001v16.166
	l25.937-43.239c2.31-5.583,0.939-12.079-3.456-16.252L161.58,331.4c-29.917,0.85-53.998,25.49-53.998,55.68V387.804z
	 M226.963,342.971c-0.016-0.037-0.036-0.069-0.051-0.106c-1.212-2.99-2.835-5.77-4.809-8.273c-0.036-0.045-0.071-0.091-0.107-0.136
	c-0.477-0.599-0.972-1.181-1.489-1.746c-0.03-0.033-0.062-0.064-0.092-0.098c-0.492-0.534-1.003-1.052-1.53-1.555
	c-0.051-0.049-0.101-0.099-0.152-0.147c-0.525-0.495-1.07-0.972-1.628-1.435c-0.112-0.093-0.225-0.184-0.339-0.275
	c-0.568-0.459-1.147-0.906-1.746-1.33l-49.886-36.616c-3.452-2.438-5.759-6.291-6.339-10.511c-0.083-0.603-0.131-1.213-0.141-1.828
	l-0.091-5.169c-0.052-2.985-2.523-5.413-5.509-5.413h-2.479c-0.004,0-0.008-0.001-0.011-0.001h-6.953
	c-3.038,0-5.509,2.472-5.509,5.51v14.66c0,4.246,1.766,8.358,4.845,11.282l44.464,42.454c7.501,7.121,9.757,18.287,5.605,27.776
	c-0.085,0.195-0.183,0.385-0.293,0.567l-35.401,59.018c-1.156,1.928-3.454,2.847-5.622,2.246c-2.166-0.6-3.666-2.571-3.666-4.818
	v-29.222h-40.452v76.134c0,8.856,7.205,16.062,16.061,16.062h11.101h18.585c10.112,0,19.42-5.916,23.714-15.071L226.19,370.13
	C230.33,361.301,230.386,351.489,226.963,342.971z M346.992,240.45c0-53.602-43.51-97.209-96.992-97.209
	s-96.992,43.607-96.992,97.209c0,6.038,0.556,12.064,1.655,17.966c0.484,0.051,0.961,0.125,1.432,0.22
	c0.176,0.036,0.345,0.088,0.518,0.13c0.303,0.072,0.607,0.142,0.903,0.231c0.203,0.062,0.399,0.14,0.599,0.21
	c0.258,0.09,0.517,0.177,0.769,0.28c0.204,0.084,0.401,0.182,0.601,0.273c0.237,0.109,0.475,0.217,0.706,0.338
	c0.198,0.104,0.39,0.22,0.583,0.332c0.221,0.128,0.442,0.256,0.656,0.395c0.189,0.123,0.372,0.254,0.555,0.385
	c0.206,0.146,0.411,0.294,0.609,0.449c0.177,0.14,0.349,0.286,0.52,0.433c0.191,0.164,0.38,0.331,0.564,0.504
	c0.164,0.155,0.322,0.313,0.479,0.475c0.176,0.182,0.348,0.367,0.515,0.557c0.148,0.168,0.293,0.339,0.434,0.514
	c0.16,0.197,0.313,0.399,0.463,0.604c0.132,0.181,0.262,0.362,0.387,0.549c0.142,0.213,0.276,0.431,0.407,0.651
	c0.115,0.191,0.229,0.382,0.335,0.578c0.124,0.229,0.237,0.464,0.349,0.699c0.095,0.199,0.192,0.396,0.279,0.6
	c0.105,0.245,0.196,0.497,0.288,0.749c0.075,0.204,0.154,0.405,0.22,0.613c0.085,0.266,0.152,0.537,0.223,0.809
	c0.053,0.203,0.113,0.402,0.157,0.608c0.065,0.3,0.109,0.605,0.156,0.911c0.028,0.186,0.067,0.367,0.089,0.555
	c0.05,0.434,0.077,0.875,0.09,1.318c0.002,0.062,0.011,0.121,0.012,0.183l0.087,5.007l0.003,0.163
	c0.007,0.383,0.06,0.758,0.145,1.125c0.275,1.198,0.947,2.28,1.913,3.061c0.09,0.072,0.175,0.148,0.27,0.216l49.887,36.617
	c0.689,0.487,1.354,0.997,2.008,1.518c0.151,0.121,0.3,0.243,0.45,0.366c0.609,0.498,1.204,1.008,1.78,1.533
	c0.032,0.029,0.065,0.057,0.097,0.086c4.164,3.816,7.466,8.328,9.839,13.247c4.934,0.765,9.954,1.152,14.959,1.152
	C303.482,337.659,346.992,294.052,346.992,240.45z M460.775,490h-3.813c-2.761,0-5,2.238-5,5s2.239,5,5,5h3.813c2.761,0,5-2.238,5-5
	S463.536,490,460.775,490z M206.149,222.57c6.676-1.734,12.101-6.354,14.885-12.673c1.113-2.526-0.033-5.478-2.56-6.591
	c-2.528-1.115-5.479,0.033-6.591,2.56c-1.543,3.504-4.55,6.064-8.249,7.026c-3.699,0.96-7.571,0.188-10.625-2.12
	c-2.202-1.666-5.339-1.229-7.004,0.974s-1.229,5.338,0.974,7.003c3.956,2.99,8.673,4.552,13.492,4.552
	C202.36,223.301,204.268,223.06,206.149,222.57z M259.951,199.784c3.955,2.989,8.673,4.55,13.491,4.55
	c1.891,0,3.798-0.241,5.68-0.729c6.675-1.734,12.101-6.354,14.885-12.673c1.113-2.526-0.033-5.478-2.56-6.591
	c-2.524-1.111-5.478,0.032-6.591,2.56c-1.543,3.504-4.55,6.064-8.249,7.025c-3.698,0.963-7.571,0.189-10.626-2.12
	c-2.204-1.665-5.339-1.229-7.003,0.975C257.312,194.983,257.748,198.119,259.951,199.784z M312.946,268.471
	c-4.943,7.204-14.823,9.047-22.026,4.106c-10.075-6.906-22.628-9.189-34.451-6.268c-11.749,3.203-21.602,11.311-27.038,22.249
	c-2.765,5.564-8.385,8.792-14.214,8.792c-2.366,0-4.765-0.531-7.023-1.652c0-0.001,0-0.001-0.001-0.001
	c-7.823-3.888-11.025-13.415-7.138-21.238c9.514-19.145,26.793-33.289,47.409-38.808c20.765-5.235,42.743-1.294,60.375,10.793
	C316.042,251.385,317.885,261.266,312.946,268.471z M303.183,254.691c-15.266-10.468-34.295-13.881-52.205-9.361
	c-17.774,4.758-32.732,17.003-40.969,33.578c-1.433,2.886-0.252,6.399,2.632,7.833c2.885,1.435,6.399,0.252,7.834-2.632
	c6.715-13.513,18.898-23.523,33.426-27.465c0.034-0.01,0.068-0.019,0.103-0.027c14.607-3.633,30.124-0.819,42.57,7.713
	c2.657,1.822,6.301,1.142,8.124-1.515C306.52,260.159,305.84,256.514,303.183,254.691z M310.875,15.391c2.761,0,5-2.238,5-5V5
	c0-2.762-2.239-5-5-5s-5,2.238-5,5v5.391C305.875,13.152,308.113,15.391,310.875,15.391z M310.875,135.012c2.761,0,5-2.238,5-5
	V29.442c0-2.762-2.239-5-5-5s-5,2.238-5,5v100.569C305.875,132.773,308.113,135.012,310.875,135.012z M250,15.391
	c2.761,0,5-2.238,5-5V5c0-2.762-2.239-5-5-5s-5,2.238-5,5v5.391C245,13.152,247.239,15.391,250,15.391z M250,116.44
	c2.761,0,5-2.238,5-5V29.442c0-2.762-2.239-5-5-5s-5,2.238-5,5v81.998C245,114.202,247.239,116.44,250,116.44z M280.437,15.391
	c2.761,0,5-2.238,5-5V5c0-2.762-2.239-5-5-5c-2.761,0-5,2.238-5,5v5.391C275.437,13.152,277.676,15.391,280.437,15.391z
	 M280.437,122.229c2.761,0,5-2.238,5-5V29.442c0-2.762-2.239-5-5-5c-2.761,0-5,2.238-5,5v87.786
	C275.437,119.99,277.676,122.229,280.437,122.229z M189.125,15.391c2.761,0,5-2.238,5-5V5c0-2.762-2.239-5-5-5s-5,2.238-5,5v5.391
	C184.125,13.152,186.364,15.391,189.125,15.391z M189.125,135.012c2.761,0,5-2.238,5-5V29.442c0-2.762-2.239-5-5-5s-5,2.238-5,5
	v100.569C184.125,132.773,186.364,135.012,189.125,135.012z M219.562,15.391c2.761,0,5-2.238,5-5V5c0-2.762-2.239-5-5-5
	c-2.761,0-5,2.238-5,5v5.391C214.562,13.152,216.801,15.391,219.562,15.391z M219.562,122.229c2.761,0,5-2.238,5-5V29.442
	c0-2.762-2.239-5-5-5c-2.761,0-5,2.238-5,5v87.786C214.562,119.99,216.801,122.229,219.562,122.229z"/>
</svg>
