<?xml version="1.0" encoding="utf-8"?>
<!-- Generator: Adobe Illustrator 23.0.0, SVG Export Plug-In . SVG Version: 6.00 Build 0)  -->
<svg version="1.1" id="Layer_1" xmlns="http://www.w3.org/2000/svg" xmlns:xlink="http://www.w3.org/1999/xlink" x="0px" y="0px"
	 viewBox="0 0 500 500" style="enable-background:new 0 0 500 500;" xml:space="preserve">
<style type="text/css">
	.st0{fill:#83E1E5;}
	.st1{fill:#AAB1BA;}
	.st2{fill:#FDDF7F;}
	.st3{fill:#ECF4F7;}
	.st4{fill:#1C1D21;}
</style>
<g>
	<path class="st2" d="M380.77,375.292l-16.829-38.793c-2.206-5.085-3.345-10.57-3.345-16.113V290.81
		c0-8.295-1.676-16.505-4.928-24.137l-15.185-35.637c-2.182-5.12-7.21-8.443-12.776-8.443h-1.853
		c-14.633-18.499-35.89-31.51-60.188-35.471c0.052,0.521,0.08,1.049,0.08,1.583c0,8.697-7.05,15.747-15.747,15.747
		s-15.747-7.05-15.747-15.747c0-0.535,0.028-1.063,0.08-1.583c-24.298,3.961-45.555,16.973-60.188,35.471h-1.853
		c-5.566,0-10.594,3.323-12.776,8.443l-15.185,35.637c-3.252,7.631-4.928,15.841-4.928,24.137v29.575
		c0,5.543-1.138,11.028-3.345,16.113l-16.829,38.793H84.532v87.644l0.021-0.039C85.002,479.931,98.856,495,117.536,495h0
		c14.254,0,26.894-9.161,31.33-22.707l38.14-116.454c16.919,14.549,38.928,23.346,62.994,23.346s46.074-8.797,62.994-23.346
		l38.14,116.454C355.57,485.839,368.21,495,382.464,495h0c18.68,0,32.534-15.069,32.983-32.103l0.021,0.039v-87.644H380.77z"/>
</g>
<g>
	<g>
		<path class="st0" d="M351.134,472.293l-38.14-116.454c-16.919,14.55-38.928,23.346-62.994,23.346s-46.074-8.796-62.994-23.346
			l-38.14,116.454C144.43,485.839,131.79,495,117.536,495h264.928C368.21,495,355.57,485.839,351.134,472.293z"/>
	</g>
</g>
<g>
	<g>
		<path class="st0" d="M139.404,299.226h-6.64c-26.637,0-48.231,21.594-48.231,48.231v27.834h34.698l16.829-38.793
			c0.552-1.271,1.036-2.568,1.453-3.883c0.417-1.316,0.766-2.651,1.046-4.001c0.561-2.7,0.845-5.457,0.845-8.229L139.404,299.226
			L139.404,299.226z"/>
	</g>
</g>
<g>
	<g>
		<path class="st0" d="M367.236,299.226h-6.64h0v21.159c0,2.772,0.285,5.529,0.845,8.229c0.28,1.35,0.629,2.685,1.046,4.001
			c0.417,1.315,0.902,2.612,1.453,3.883l16.829,38.793h34.698v-27.834C415.468,320.82,393.874,299.226,367.236,299.226z"/>
	</g>
</g>
<g>
	<path class="st1" d="M66.714,92.072l-11.257,9.305c-2.87,2.372-3.353,6.576-1.117,9.553c18.036,24.017,18.036,57.37,0,81.387
		c-2.236,2.977-1.753,7.181,1.117,9.553l11.257,9.305c3.06,2.529,7.594,1.977,10.001-1.179c26.194-34.345,26.194-82.4,0-116.745
		C74.308,90.095,69.773,89.543,66.714,92.072z"/>
</g>
<g>
	<path class="st1" d="M151.674,151.624c0-34.361-11.897-66.888-33.729-92.897c-2.466-2.937-6.834-3.353-9.79-0.909l-11.239,9.29
		c-2.981,2.464-3.373,6.881-0.884,9.842c17.569,20.898,27.139,47.05,27.139,74.674s-9.57,53.776-27.139,74.674
		c-2.489,2.961-2.097,7.378,0.884,9.842l11.239,9.29c2.956,2.443,7.324,2.028,9.79-0.909
		C139.777,218.512,151.674,185.984,151.674,151.624z"/>
</g>
<g>
	<path class="st1" d="M433.286,92.072l11.257,9.305c2.87,2.372,3.353,6.576,1.117,9.553c-18.036,24.017-18.036,57.37,0,81.387
		c2.236,2.977,1.753,7.181-1.117,9.553l-11.257,9.305c-3.06,2.529-7.594,1.977-10.001-1.179c-26.194-34.345-26.194-82.4,0-116.745
		C425.692,90.095,430.227,89.543,433.286,92.072z"/>
</g>
<g>
	<path class="st1" d="M348.326,151.624c0-34.361,11.897-66.888,33.729-92.897c2.466-2.937,6.834-3.353,9.79-0.909l11.239,9.29
		c2.981,2.464,3.373,6.881,0.884,9.842c-17.569,20.898-27.139,47.05-27.139,74.674s9.57,53.776,27.139,74.674
		c2.489,2.961,2.097,7.378-0.884,9.842l-11.239,9.29c-2.956,2.443-7.324,2.028-9.79-0.909
		C360.223,218.512,348.326,185.984,348.326,151.624z"/>
</g>
<g>
	<g>
		<path class="st0" d="M249.57,151.836c-6.945,0-12.576-5.631-12.576-12.576V99.656c0-6.945,5.631-12.576,12.576-12.576h9.023
			c9.587,0,17.386-7.799,17.386-17.386V47.538c0-9.587-7.799-17.386-17.386-17.386h-10.431c-9.587,0-17.386,7.799-17.386,17.386
			v8.87c0,6.945-5.631,12.576-12.576,12.576s-12.576-5.631-12.576-12.576v-8.87C205.624,24.082,224.706,5,248.162,5h10.431
			c23.455,0,42.538,19.082,42.538,42.538v22.157c0,22.258-17.186,40.579-38.984,42.391v27.175
			C262.146,146.206,256.516,151.836,249.57,151.836z"/>
	</g>
</g>
<g>
	<circle class="st0" cx="250" cy="188.705" r="15.747"/>
</g>
<path class="st4" d="M37.52,151.836c0,2.761-2.238,5-5,5h-6.535v6.535c0,2.761-2.238,5-5,5s-5-2.239-5-5v-6.535H9.45
	c-2.762,0-5-2.239-5-5s2.238-5,5-5h6.534v-6.534c0-2.761,2.238-5,5-5s5,2.239,5,5v6.534h6.535
	C35.281,146.836,37.52,149.075,37.52,151.836z M490.55,146.836h-6.534v-6.534c0-2.761-2.238-5-5-5s-5,2.239-5,5v6.534h-6.535
	c-2.762,0-5,2.239-5,5s2.238,5,5,5h6.535v6.535c0,2.761,2.238,5,5,5s5-2.239,5-5v-6.535h6.534c2.762,0,5-2.239,5-5
	S493.312,146.836,490.55,146.836z M227.934,359.552c2.167,1.713,5.311,1.347,7.023-0.819c3.665-4.632,9.147-7.289,15.043-7.289
	s11.378,2.657,15.043,7.289c0.986,1.247,2.448,1.897,3.924,1.897c1.087,0,2.181-0.353,3.1-1.079
	c2.165-1.713,2.532-4.858,0.818-7.024c-5.572-7.043-13.914-11.083-22.885-11.083s-17.313,4.04-22.885,11.083
	C225.401,354.694,225.769,357.839,227.934,359.552z M52.15,490h-3.813c-2.762,0-5,2.239-5,5s2.238,5,5,5h3.813c2.762,0,5-2.239,5-5
	S54.912,490,52.15,490z M435.689,495c0,2.761-2.238,5-5,5h-90.144c-2.762,0-5-2.239-5-5s2.238-5,5-5h16.213
	c-4.673-4.298-8.298-9.801-10.377-16.15l-35.906-109.636c-17.437,12.912-38.635,19.971-60.475,19.971s-43.038-7.059-60.475-19.971
	L153.618,473.85c-2.08,6.349-5.704,11.852-10.377,16.15h16.213c2.762,0,5,2.239,5,5s-2.238,5-5,5H69.311c-2.762,0-5-2.239-5-5
	s2.238-5,5-5h22.424c-7.148-6.582-11.739-15.902-12.162-26.422c-0.027-0.21-0.041-0.425-0.041-0.642v-87.645
	c0-0.072,0.018-0.14,0.021-0.211l-0.021-27.619c0-29.356,23.88-53.235,53.231-53.235h1.64v-3.416c0-9.019,1.793-17.799,5.329-26.097
	l15.184-35.637c2.904-6.813,9.479-11.259,16.848-11.464c11.991-14.444,27.613-25.253,45.347-31.314
	c2.617-0.893,5.456,0.502,6.349,3.114c0.893,2.613-0.501,5.456-3.114,6.349c-13.25,4.528-25.201,11.993-35.061,21.832h9.263
	c7.254,0,13.972,3.613,17.971,9.664s4.689,13.648,1.846,20.321l-8.971,21.055c-3.004,7.051-4.527,14.512-4.527,22.177v23.517
	c0,10.126-1.599,20.14-4.75,29.763l-3.299,10.072c16.195,12.935,36.372,20.023,57.184,20.023s40.988-7.088,57.184-20.023
	l-3.3-10.072c-3.151-9.625-4.749-19.638-4.749-29.763V290.81c0-7.665-1.523-15.126-4.527-22.177l-8.972-21.055
	c-2.844-6.673-2.153-14.27,1.846-20.321c4-6.052,10.718-9.665,17.972-9.665h9.263c-9.861-9.839-21.813-17.304-35.062-21.832
	c-2.613-0.893-4.007-3.735-3.114-6.349s3.732-4.008,6.349-3.114c17.732,6.061,33.356,16.871,45.347,31.314
	c7.369,0.204,13.944,4.65,16.849,11.463l15.184,35.638c3.536,8.298,5.329,17.078,5.329,26.097v3.416h1.64
	c29.352,0,53.231,23.879,53.231,53.231v27.834v87.645c0,0.218-0.014,0.434-0.042,0.646c-0.424,10.519-5.013,19.837-12.161,26.418
	h22.424C433.451,490,435.689,492.239,435.689,495z M89.532,347.458l0.018,22.834h26.398l15.524-35.783
	c1.944-4.482,2.931-9.234,2.931-14.123v-16.159h-1.64C108.926,304.226,89.532,323.62,89.532,347.458z M182.254,354.283l4.357-13.306
	c2.823-8.617,4.254-17.583,4.254-26.65V290.81c0-9.02,1.793-17.8,5.328-26.097l8.971-21.055c1.546-3.629,1.186-7.597-0.989-10.888
	s-5.684-5.178-9.628-5.178h-20.402h-1.853c-3.567,0-6.777,2.121-8.177,5.404l-15.184,35.636c-3.005,7.052-4.528,14.513-4.528,22.177
	v29.575c0,6.266-1.264,12.356-3.757,18.103l-16.829,38.791c0,0,0,0,0,0.001l-15.597,35.952c-0.817,1.885-2.657,3.012-4.59,3.012
	c-0.664,0-1.339-0.133-1.987-0.415c-2.533-1.099-3.695-4.043-2.597-6.577l12.564-28.96H89.532v82.143
	c0.01,0.11,0.017,0.22,0.02,0.332C89.954,478.038,102.246,490,117.536,490c12.124,0,22.805-7.741,26.578-19.263L182.254,354.283z
	 M365.597,304.226v16.159c0,4.889,0.986,9.641,2.931,14.124l15.524,35.783h26.416v-22.834c0-23.838-19.394-43.231-43.231-43.231
	H365.597z M382.464,490c15.29,0,27.582-11.962,27.984-27.233c0.003-0.112,0.01-0.223,0.02-0.333v-82.142h-22.073l12.564,28.96
	c1.099,2.533-0.063,5.478-2.597,6.577c-0.648,0.281-1.323,0.415-1.987,0.415c-1.933,0-3.772-1.126-4.59-3.012l-15.573-35.897
	c-0.008-0.018-0.02-0.034-0.027-0.052l-16.83-38.793c-2.493-5.747-3.757-11.837-3.757-18.103V290.81
	c0-7.664-1.523-15.125-4.528-22.177l-15.184-35.637c-1.399-3.282-4.609-5.403-8.177-5.403h-1.853h-20.402
	c-3.944,0-7.454,1.887-9.629,5.178c-2.175,3.291-2.535,7.259-0.989,10.887l8.972,21.055c3.535,8.297,5.328,17.077,5.328,26.097
	v23.517c0,9.066,1.431,18.033,4.253,26.65l4.358,13.305c0,0,0,0.001,0,0.002l38.139,116.453C359.659,482.259,370.34,490,382.464,490
	z M451.663,490h-3.813c-2.762,0-5,2.239-5,5s2.238,5,5,5h3.813c2.762,0,5-2.239,5-5S454.425,490,451.663,490z M71.106,217.769
	c-2.764,0-5.413-0.95-7.578-2.74l-11.257-9.304c-4.932-4.077-5.779-11.285-1.93-16.41c16.665-22.191,16.665-53.189,0-75.381
	c-3.85-5.125-3.002-12.333,1.93-16.41l11.257-9.305v0c2.527-2.089,5.711-3.034,8.971-2.66c3.229,0.371,6.215,2.069,8.191,4.66
	c27.573,36.154,27.573,86.655,0,122.81c-1.977,2.591-4.962,4.29-8.191,4.66C72.033,217.742,71.568,217.769,71.106,217.769z
	 M71.359,207.753c0.318-0.036,0.921-0.188,1.38-0.79c24.851-32.583,24.851-78.097,0-110.681c-0.459-0.602-1.062-0.753-1.38-0.79
	c-0.071-0.008-0.149-0.014-0.233-0.014c-0.354,0-0.8,0.094-1.227,0.446v0l-11.257,9.305c-0.807,0.666-0.94,1.851-0.305,2.696
	c19.32,25.728,19.32,61.665,0,87.392c-0.636,0.846-0.501,2.031,0.305,2.697l11.257,9.304
	C70.428,207.757,70.988,207.796,71.359,207.753z M92.205,80.167c-2.071-2.464-3.052-5.584-2.761-8.786
	c0.29-3.196,1.812-6.083,4.286-8.128l11.239-9.29c5.048-4.172,12.588-3.477,16.805,1.548c22.506,26.81,34.899,60.943,34.899,96.111
	s-12.394,69.301-34.898,96.111c-2.366,2.818-5.776,4.275-9.205,4.275c-2.686,0-5.384-0.894-7.601-2.727l-11.239-9.289
	c-2.475-2.045-3.996-4.932-4.286-8.128c-0.291-3.202,0.689-6.322,2.761-8.786c16.987-20.206,25.966-44.915,25.966-71.457
	C118.171,125.082,109.192,100.372,92.205,80.167z M99.859,73.731c18.257,21.716,28.312,49.378,28.312,77.892
	c0,28.513-10.055,56.175-28.312,77.892c-0.462,0.549-0.484,1.142-0.456,1.446c0.027,0.301,0.154,0.874,0.698,1.324l11.239,9.29
	c0.828,0.685,2.074,0.566,2.774-0.27c21.3-25.374,32.559-56.385,32.559-89.682s-11.259-64.308-32.559-89.682
	c-0.395-0.471-0.963-0.715-1.532-0.715c-0.44,0-0.88,0.146-1.242,0.444l-11.239,9.29c-0.544,0.45-0.671,1.022-0.698,1.324
	C99.375,72.59,99.397,73.183,99.859,73.731z M447.729,205.724l-11.257,9.305c-2.165,1.79-4.814,2.74-7.578,2.74
	c-0.462,0-0.926-0.027-1.393-0.08c-3.229-0.371-6.215-2.069-8.191-4.66c-27.573-36.154-27.573-86.655,0-122.81
	c1.977-2.591,4.962-4.29,8.191-4.66c3.251-0.374,6.443,0.57,8.971,2.66l11.257,9.304c4.932,4.076,5.779,11.284,1.93,16.41
	c-16.665,22.191-16.665,53.189,0,75.381C453.508,194.439,452.66,201.647,447.729,205.724z M441.662,195.32
	c-19.32-25.728-19.32-61.665,0-87.392c0.636-0.846,0.502-2.031-0.305-2.697l-11.257-9.305v0c-0.427-0.352-0.873-0.446-1.227-0.446
	c-0.084,0-0.162,0.005-0.233,0.014c-0.318,0.036-0.921,0.188-1.38,0.79c-24.851,32.583-24.851,78.097,0,110.681
	c0.459,0.602,1.062,0.753,1.38,0.79c0.372,0.042,0.932,0.003,1.46-0.432l11.257-9.305
	C442.163,197.35,442.298,196.166,441.662,195.32z M378.226,247.735c-22.506-26.81-34.899-60.943-34.899-96.111
	s12.394-69.301,34.898-96.111c4.219-5.026,11.758-5.721,16.806-1.548l11.239,9.289c2.475,2.045,3.996,4.932,4.286,8.128
	c0.291,3.202-0.689,6.322-2.761,8.786c-16.987,20.205-25.966,44.915-25.966,71.457c0,26.542,8.979,51.251,25.966,71.457
	c2.071,2.464,3.052,5.584,2.761,8.786c-0.29,3.196-1.812,6.083-4.286,8.128l-11.239,9.29c-2.217,1.833-4.915,2.727-7.601,2.727
	C384,252.01,380.591,250.553,378.226,247.735z M353.326,151.624c0,33.296,11.259,64.308,32.559,89.682
	c0.699,0.836,1.943,0.956,2.774,0.271l11.239-9.29c0.544-0.45,0.671-1.022,0.698-1.324c0.028-0.305,0.006-0.897-0.456-1.446
	c-18.257-21.717-28.312-49.379-28.312-77.892c0-28.514,10.055-56.176,28.312-77.892c0.462-0.549,0.484-1.142,0.456-1.446
	c-0.027-0.301-0.154-0.874-0.698-1.324l-11.239-9.29c-0.361-0.299-0.802-0.445-1.242-0.445c-0.569,0-1.138,0.244-1.532,0.715
	C364.585,87.316,353.326,118.327,353.326,151.624z M200.624,56.408v-8.87C200.624,21.325,221.949,0,248.162,0h10.431
	c26.213,0,47.538,21.325,47.538,47.538v22.157c0,22.977-16.785,42.686-38.984,46.764v22.802c0,9.691-7.885,17.576-17.576,17.576
	s-17.576-7.884-17.576-17.576V99.656c0-9.691,7.885-17.576,17.576-17.576h9.022c6.829,0,12.386-5.557,12.386-12.386V47.538
	c0-6.83-5.557-12.386-12.386-12.386h-10.431c-6.83,0-12.387,5.557-12.387,12.386v8.87c0,9.691-7.884,17.576-17.575,17.576
	S200.624,66.099,200.624,56.408z M210.624,56.408c0,4.177,3.398,7.576,7.576,7.576c4.177,0,7.575-3.398,7.575-7.576v-8.87
	c0-12.344,10.043-22.386,22.387-22.386h10.431c12.344,0,22.386,10.042,22.386,22.386v22.157c0,12.344-10.042,22.386-22.386,22.386
	h-9.022c-4.178,0-7.576,3.398-7.576,7.576v39.604c0,4.177,3.398,7.576,7.576,7.576s7.576-3.398,7.576-7.576v-27.175
	c0-2.601,1.994-4.768,4.586-4.983c19.289-1.604,34.398-18.035,34.398-37.408V47.538c0-20.698-16.84-37.538-37.538-37.538h-10.431
	c-20.698,0-37.538,16.839-37.538,37.538V56.408z M229.253,188.705c0-11.44,9.307-20.747,20.747-20.747s20.747,9.307,20.747,20.747
	S261.44,209.452,250,209.452S229.253,200.145,229.253,188.705z M239.253,188.705c0,5.926,4.821,10.747,10.747,10.747
	s10.747-4.821,10.747-10.747s-4.821-10.747-10.747-10.747S239.253,182.779,239.253,188.705z"/>
</svg>
