<?xml version="1.0" encoding="utf-8"?>
<!-- Generator: Adobe Illustrator 23.0.0, SVG Export Plug-In . SVG Version: 6.00 Build 0)  -->
<svg version="1.1" id="Layer_1" xmlns="http://www.w3.org/2000/svg" xmlns:xlink="http://www.w3.org/1999/xlink" x="0px" y="0px"
	 viewBox="0 0 500 500" style="enable-background:new 0 0 500 500;" xml:space="preserve">
<style type="text/css">
	.st0{fill:#83E1E5;}
	.st1{fill:#AAB1BA;}
	.st2{fill:#FDDF7F;}
	.st3{fill:#ECF4F7;}
	.st4{fill:#1C1D21;}
</style>
<g>
	<g>
		<ellipse class="st0" cx="250" cy="197.614" rx="96.371" ry="96.529"/>
	</g>
</g>
<g>
	<path class="st1" d="M346.592,273.332h-36.818c-16.428,13.028-37.193,20.811-59.774,20.811s-43.346-7.782-59.774-20.811h-36.818
		c-33.479,0-60.62,27.186-60.62,60.721v101.75c0,8.584,6.946,15.542,15.515,15.542h10.782V495H250h130.915v-43.655h10.782
		c8.569,0,15.515-6.958,15.515-15.542v-101.75C407.211,300.518,380.071,273.332,346.592,273.332z"/>
</g>
<g>
	<path class="st0" d="M353.813,363.862v34.435l-39.818-19.495c-3.969-1.961-5.597-6.768-3.637-10.737l1.021-2.068
		c5.06-10.244,0.857-22.65-9.387-27.71l-32.166-15.888c-6.496-3.208-14.363-0.543-17.572,5.953l-4.013,8.125l-16.988-8.391
		c-6.281-3.103-13.893-0.517-17,5.775l-11.841,23.973c-2.067,4.185-1.609,8.949,0.77,12.588l-56.997,27.876v-34.435H92.788v71.941
		c0,8.583,6.947,15.541,15.515,15.541h23.607c4.894,0,9.72-1.143,14.094-3.337l104.456-51.942l103.534,51.942
		c4.374,2.194,9.2,3.337,14.094,3.337h23.607c8.569,0,15.515-6.958,15.515-15.541v-71.941H353.813z"/>
</g>
<g>
	<g>
		<ellipse class="st3" cx="205.495" cy="210.225" rx="29.132" ry="29.179"/>
	</g>
</g>
<g>
	<g>
		<ellipse class="st3" cx="294.505" cy="210.225" rx="29.132" ry="29.179"/>
	</g>
</g>
<g>
	<path class="st2" d="M98.02,146.245H85.571c-0.084,0.055-0.174,0.101-0.258,0.154c11.23-7.149,18.689-19.713,18.689-34.028
		c0-22.258-18.014-40.301-40.235-40.301c-22.221,0-40.235,18.043-40.235,40.301c0,14.315,7.458,26.878,18.688,34.028
		c-0.084-0.054-0.173-0.101-0.257-0.154H29.514c-13.201,0-23.903,10.72-23.903,23.942v65.828h58.156h58.156v-65.828
		C121.922,156.965,111.221,146.245,98.02,146.245z"/>
</g>
<g>
	<path class="st2" d="M470.486,146.245h-12.448c-0.087,0.057-0.179,0.104-0.266,0.159c11.235-7.148,18.697-19.714,18.697-34.033
		c0-22.258-18.014-40.301-40.235-40.301c-22.221,0-40.235,18.043-40.235,40.301c0,14.319,7.462,26.885,18.697,34.033
		c-0.087-0.055-0.179-0.103-0.266-0.159H401.98c-13.201,0-23.903,10.72-23.903,23.942v65.828h58.156h58.156v-65.828
		C494.389,156.965,483.687,146.245,470.486,146.245z"/>
</g>
<path class="st4" d="M444.108,495c0,2.761-2.238,5-5,5H60.892c-2.762,0-5-2.239-5-5s2.238-5,5-5h378.217
	C441.87,490,444.108,492.239,444.108,495z M42.478,490h-3.813c-2.762,0-5,2.239-5,5s2.238,5,5,5h3.813c2.762,0,5-2.239,5-5
	S45.239,490,42.478,490z M461.335,490h-3.813c-2.762,0-5,2.239-5,5s2.238,5,5,5h3.813c2.762,0,5-2.239,5-5S464.097,490,461.335,490z
	 M52.232,21.535h6.534v6.534c0,2.761,2.238,5,5,5s5-2.239,5-5v-6.534h6.535c2.762,0,5-2.239,5-5s-2.238-5-5-5h-6.535V5
	c0-2.761-2.238-5-5-5s-5,2.239-5,5v6.535h-6.534c-2.762,0-5,2.239-5,5S49.471,21.535,52.232,21.535z M424.698,21.535h6.535v6.534
	c0,2.761,2.238,5,5,5s5-2.239,5-5v-6.534h6.534c2.762,0,5-2.239,5-5s-2.238-5-5-5h-6.534V5c0-2.761-2.238-5-5-5s-5,2.239-5,5v6.535
	h-6.535c-2.762,0-5,2.239-5,5S421.937,21.535,424.698,21.535z M38.165,236.016v-67.315c0-2.761-2.238-5-5-5s-5,2.239-5,5v67.315
	c0,2.761,2.238,5,5,5S38.165,238.777,38.165,236.016z M99.368,236.016v-67.315c0-2.761-2.238-5-5-5s-5,2.239-5,5v67.315
	c0,2.761,2.238,5,5,5S99.368,238.777,99.368,236.016z M29.514,151.246c-10.423,0-18.902,8.497-18.902,18.942v65.828
	c0,2.761-2.238,5-5,5s-5-2.239-5-5v-65.828c0-15.77,12.663-28.625,28.34-28.928c-6.504-7.847-10.42-17.918-10.42-28.889
	c0-24.979,20.293-45.301,45.235-45.301s45.235,20.322,45.235,45.301c0,10.971-3.917,21.042-10.42,28.889
	c15.677,0.302,28.34,13.158,28.34,28.928v65.828c0,2.761-2.238,5-5,5s-5-2.239-5-5v-65.828c0-10.445-8.479-18.942-18.902-18.942
	H87.001c-0.365,0.219-0.743,0.41-1.113,0.618c-0.289,0.163-0.577,0.327-0.87,0.483c-0.446,0.238-0.895,0.47-1.349,0.693
	c-0.376,0.185-0.758,0.36-1.139,0.535c-0.5,0.229-1,0.454-1.508,0.664c-0.636,0.264-1.278,0.516-1.928,0.751
	c-0.345,0.125-0.693,0.238-1.042,0.354c-0.538,0.18-1.081,0.35-1.628,0.51c-0.32,0.094-0.64,0.188-0.962,0.274
	c-0.799,0.214-1.604,0.411-2.419,0.582c-0.08,0.017-0.16,0.036-0.24,0.052c-0.863,0.176-1.737,0.32-2.617,0.446
	c-0.268,0.038-0.537,0.069-0.806,0.103c-0.675,0.084-1.353,0.153-2.036,0.207c-0.268,0.021-0.536,0.045-0.805,0.062
	c-0.918,0.056-1.842,0.093-2.774,0.093s-1.856-0.038-2.774-0.093c-0.269-0.017-0.537-0.041-0.805-0.062
	c-0.683-0.054-1.362-0.123-2.036-0.207c-0.269-0.033-0.538-0.064-0.806-0.103c-0.88-0.126-1.754-0.27-2.617-0.446
	c-0.08-0.016-0.159-0.035-0.24-0.052c-0.815-0.171-1.62-0.368-2.419-0.582c-0.322-0.086-0.642-0.181-0.962-0.274
	c-0.547-0.16-1.089-0.33-1.628-0.51c-0.348-0.116-0.696-0.229-1.042-0.354c-0.65-0.235-1.292-0.487-1.928-0.751
	c-0.507-0.21-1.008-0.436-1.508-0.664c-0.382-0.175-0.763-0.35-1.139-0.535c-0.453-0.223-0.902-0.455-1.349-0.693
	c-0.293-0.157-0.581-0.32-0.87-0.483c-0.37-0.208-0.748-0.398-1.113-0.618H29.514z M28.531,112.371
	c0,12.678,6.708,23.812,16.752,30.038c0.241,0.149,0.485,0.292,0.73,0.436c0.552,0.324,1.113,0.631,1.683,0.925
	c0.325,0.167,0.649,0.336,0.978,0.493c0.329,0.157,0.663,0.305,0.997,0.452c0.37,0.162,0.742,0.316,1.117,0.465
	c0.282,0.112,0.561,0.229,0.846,0.334c0.624,0.229,1.255,0.438,1.891,0.632c0.248,0.076,0.5,0.144,0.75,0.214
	c0.508,0.142,1.018,0.273,1.532,0.393c0.212,0.049,0.422,0.102,0.635,0.147c0.709,0.15,1.422,0.281,2.141,0.387
	c0.159,0.024,0.321,0.04,0.481,0.062c0.601,0.081,1.205,0.146,1.811,0.195c0.207,0.017,0.415,0.035,0.623,0.048
	c0.754,0.048,1.51,0.081,2.269,0.081s1.516-0.033,2.269-0.081c0.208-0.013,0.416-0.031,0.623-0.048
	c0.606-0.049,1.21-0.114,1.811-0.195c0.16-0.021,0.322-0.038,0.481-0.062c0.719-0.106,1.432-0.237,2.141-0.387
	c0.213-0.045,0.424-0.098,0.635-0.147c0.514-0.119,1.024-0.25,1.532-0.393c0.25-0.07,0.502-0.138,0.75-0.214
	c0.636-0.193,1.267-0.402,1.891-0.632c0.285-0.105,0.564-0.222,0.846-0.334c0.375-0.149,0.747-0.303,1.117-0.465
	c0.334-0.147,0.668-0.295,0.997-0.452c0.329-0.157,0.653-0.325,0.978-0.493c0.57-0.294,1.131-0.602,1.683-0.925
	c0.244-0.144,0.489-0.287,0.73-0.436c10.044-6.227,16.752-17.36,16.752-30.038c0-19.465-15.807-35.301-35.235-35.301
	S28.531,92.906,28.531,112.371z M499.389,170.188v65.828c0,2.761-2.238,5-5,5s-5-2.239-5-5v-65.828
	c0-10.445-8.479-18.942-18.902-18.942h-11.019c-0.365,0.219-0.743,0.41-1.113,0.618c-0.289,0.163-0.577,0.327-0.87,0.483
	c-0.446,0.238-0.895,0.47-1.349,0.693c-0.376,0.185-0.758,0.36-1.139,0.535c-0.5,0.229-1,0.454-1.508,0.664
	c-0.636,0.264-1.278,0.516-1.928,0.751c-0.345,0.125-0.693,0.238-1.042,0.354c-0.538,0.18-1.081,0.35-1.628,0.51
	c-0.32,0.094-0.64,0.188-0.962,0.274c-0.799,0.214-1.604,0.411-2.419,0.582c-0.08,0.017-0.16,0.036-0.24,0.052
	c-0.863,0.176-1.737,0.32-2.617,0.446c-0.268,0.038-0.537,0.069-0.806,0.103c-0.675,0.084-1.353,0.153-2.036,0.207
	c-0.268,0.021-0.536,0.045-0.805,0.062c-0.918,0.056-1.842,0.093-2.774,0.093s-1.856-0.038-2.774-0.093
	c-0.269-0.017-0.537-0.041-0.805-0.062c-0.683-0.054-1.362-0.123-2.036-0.207c-0.269-0.033-0.538-0.064-0.806-0.103
	c-0.88-0.126-1.754-0.27-2.617-0.446c-0.08-0.016-0.159-0.035-0.24-0.052c-0.815-0.171-1.62-0.368-2.419-0.582
	c-0.322-0.086-0.642-0.181-0.962-0.274c-0.547-0.16-1.089-0.33-1.628-0.51c-0.348-0.116-0.696-0.229-1.042-0.354
	c-0.65-0.235-1.292-0.487-1.928-0.751c-0.507-0.21-1.008-0.436-1.508-0.664c-0.382-0.175-0.763-0.35-1.139-0.535
	c-0.453-0.223-0.902-0.455-1.349-0.693c-0.293-0.157-0.581-0.32-0.87-0.483c-0.37-0.208-0.748-0.398-1.113-0.618H401.98
	c-10.423,0-18.902,8.497-18.902,18.942v65.828c0,2.761-2.238,5-5,5s-5-2.239-5-5v-65.828c0-15.77,12.663-28.625,28.34-28.928
	c-6.504-7.847-10.42-17.918-10.42-28.889c0-24.979,20.293-45.301,45.235-45.301s45.235,20.322,45.235,45.301
	c0,10.971-3.917,21.042-10.42,28.889C486.726,141.562,499.389,154.418,499.389,170.188z M400.998,112.371
	c0,12.678,6.708,23.812,16.752,30.038c0.241,0.149,0.485,0.292,0.73,0.436c0.552,0.324,1.113,0.631,1.683,0.925
	c0.325,0.167,0.649,0.336,0.978,0.493c0.329,0.157,0.663,0.305,0.997,0.452c0.37,0.162,0.742,0.316,1.117,0.465
	c0.282,0.112,0.561,0.229,0.846,0.334c0.624,0.229,1.255,0.438,1.891,0.632c0.248,0.076,0.5,0.144,0.75,0.214
	c0.508,0.142,1.018,0.273,1.532,0.393c0.212,0.049,0.422,0.102,0.635,0.147c0.709,0.15,1.422,0.281,2.141,0.387
	c0.159,0.024,0.321,0.04,0.481,0.062c0.601,0.081,1.205,0.146,1.811,0.195c0.207,0.017,0.415,0.035,0.623,0.048
	c0.754,0.048,1.51,0.081,2.269,0.081s1.516-0.033,2.269-0.081c0.208-0.013,0.416-0.031,0.623-0.048
	c0.606-0.049,1.21-0.114,1.811-0.195c0.16-0.021,0.322-0.038,0.481-0.062c0.719-0.106,1.432-0.237,2.141-0.387
	c0.213-0.045,0.424-0.098,0.635-0.147c0.514-0.119,1.024-0.25,1.532-0.393c0.25-0.07,0.502-0.138,0.75-0.214
	c0.636-0.193,1.267-0.402,1.891-0.632c0.285-0.105,0.564-0.222,0.846-0.334c0.375-0.149,0.747-0.303,1.117-0.465
	c0.334-0.147,0.668-0.295,0.997-0.452c0.329-0.157,0.653-0.325,0.978-0.493c0.57-0.294,1.131-0.602,1.683-0.925
	c0.244-0.144,0.489-0.287,0.73-0.436c10.044-6.227,16.752-17.36,16.752-30.038c0-19.465-15.807-35.301-35.235-35.301
	S400.998,92.906,400.998,112.371z M410.632,236.016v-67.315c0-2.761-2.238-5-5-5s-5,2.239-5,5v67.315c0,2.761,2.238,5,5,5
	S410.632,238.777,410.632,236.016z M466.835,163.701c-2.762,0-5,2.239-5,5v67.315c0,2.761,2.238,5,5,5s5-2.239,5-5v-67.315
	C471.835,165.939,469.597,163.701,466.835,163.701z M137.139,210.225c0-2.761,2.238-5,5-5h6.775
	c-0.187-2.513-0.284-5.051-0.284-7.611c0-55.983,45.475-101.529,101.37-101.529s101.37,45.546,101.37,101.529
	c0,2.56-0.097,5.098-0.284,7.611h6.775c2.762,0,5,2.239,5,5s-2.238,5-5,5h-8.021c-3.586,20.451-13.305,38.811-27.18,53.107h23.932
	c36.183,0,65.619,29.482,65.619,65.721v29.8c0,0.003,0.001,0.006,0.001,0.01v71.941c0,11.326-9.203,20.541-20.516,20.541h-5.782
	v23.198c0,2.761-2.238,5-5,5s-5-2.239-5-5v-23.198h-7.825c-5.644,0-11.293-1.338-16.336-3.869l-101.302-50.822l-102.22,50.831
	c-5.029,2.523-10.678,3.86-16.32,3.86h-7.825v23.198c0,2.761-2.238,5-5,5s-5-2.239-5-5v-23.198h-5.782
	c-11.313,0-20.516-9.215-20.516-20.541v-71.941c0-0.003,0.001-0.006,0.001-0.01v-29.8c0-36.239,29.437-65.721,65.619-65.721h23.932
	c-13.875-14.296-23.594-32.656-27.18-53.107h-8.021C139.377,215.225,137.139,212.986,137.139,210.225z M239.271,396.045
	l-33.353-16.733c-0.01-0.005-0.019-0.011-0.029-0.016c-0.447-0.223-0.879-0.469-1.303-0.728c-0.17-0.103-0.336-0.209-0.501-0.317
	c-0.26-0.17-0.512-0.35-0.762-0.534c-0.352-0.258-0.69-0.529-1.019-0.81c-0.122-0.104-0.249-0.203-0.368-0.311l-53.554,26.192
	c-1.548,0.757-3.38,0.664-4.844-0.25c-1.463-0.914-2.353-2.517-2.353-4.242v-29.435H97.789v66.94c0,5.45,4.146,9.947,9.441,10.487
	c0.353,0.036,0.711,0.055,1.073,0.055h10.782h12.825c4.094,0,8.191-0.971,11.852-2.807L239.271,396.045z M391.696,446.345
	c5.798,0,10.515-4.729,10.515-10.542v-66.94l-43.397,0v29.435c0,1.726-0.89,3.329-2.354,4.242c-1.464,0.915-3.296,1.006-4.845,0.249
	l-39.818-19.496c-6.45-3.186-9.1-11.006-5.922-17.441l1.022-2.068c3.83-7.756,0.637-17.183-7.118-21.013l-32.166-15.888
	c-1.944-0.96-4.146-1.106-6.2-0.41c-2.054,0.696-3.714,2.149-4.674,4.094l-1.799,3.642l25.451,12.571
	c2.477,1.223,3.492,4.221,2.27,6.697c-0.872,1.764-2.645,2.787-4.487,2.787c-0.743,0-1.498-0.167-2.21-0.518l-29.935-14.786
	l-16.988-8.391c-1.072-0.529-2.228-0.796-3.39-0.796c-0.832,0-1.667,0.137-2.479,0.412c-1.947,0.662-3.522,2.043-4.435,3.89
	l-11.843,23.974c-1.249,2.53-0.973,5.415,0.46,7.621c0.004,0.006,0.009,0.011,0.013,0.017c0.366,0.561,0.793,1.056,1.271,1.49
	c0.051,0.046,0.103,0.089,0.155,0.134c0.181,0.156,0.371,0.301,0.566,0.439c0.07,0.049,0.138,0.1,0.21,0.147
	c0.257,0.168,0.522,0.326,0.802,0.464c0.009,0.004,0.018,0.009,0.027,0.014l42.301,21.222c0.001,0,0.002,0.001,0.003,0.002
	l103.531,51.94c3.659,1.836,7.757,2.807,11.852,2.807h12.825H391.696z M346.592,278.332h-35.101
	c-14.809,11.345-32.01,18.21-50.339,20.194c-0.575,0.063-1.151,0.121-1.728,0.175c-0.496,0.045-0.99,0.095-1.488,0.132
	c-1.098,0.086-2.203,0.15-3.311,0.2c-0.313,0.014-0.625,0.024-0.939,0.036c-1.224,0.044-2.452,0.074-3.686,0.074
	s-2.462-0.03-3.686-0.074c-0.313-0.011-0.626-0.022-0.939-0.036c-1.108-0.05-2.212-0.114-3.311-0.2
	c-0.497-0.038-0.992-0.087-1.488-0.132c-0.577-0.054-1.154-0.112-1.728-0.175c-18.329-1.983-35.531-8.849-50.339-20.194h-35.101
	c-30.669,0-55.619,24.996-55.619,55.721v24.81h43.397v-44.5c0-2.761,2.238-5,5-5s5,2.239,5,5v49.5v26.423l45.53-22.268
	c-1.068-4.004-0.764-8.396,1.213-12.399l11.843-23.974c2.093-4.239,5.71-7.411,10.184-8.93c4.479-1.521,9.277-1.206,13.513,0.887
	l12.506,6.177l1.798-3.641c2.144-4.339,5.848-7.584,10.432-9.137c4.583-1.554,9.498-1.228,13.837,0.916l32.166,15.888
	c12.7,6.272,17.929,21.708,11.656,34.408l-1.022,2.068c-0.735,1.491-0.122,3.303,1.369,4.04l32.604,15.963v-26.42v-49.5
	c0-2.761,2.238-5,5-5s5,2.239,5,5v44.5h43.397v-24.81C402.211,303.328,377.261,278.332,346.592,278.332z M339.666,215.225h-11.398
	c-2.424,16.484-16.639,29.179-33.763,29.179s-31.339-12.695-33.763-29.179h-21.484c-2.424,16.484-16.639,29.179-33.762,29.179
	c-17.124,0-31.339-12.695-33.763-29.179h-11.398c7.343,37.586,37.718,67.012,75.75,72.858c0.03,0.004,0.06,0.008,0.089,0.013
	c1.182,0.181,2.373,0.332,3.568,0.467c0.546,0.06,1.093,0.12,1.642,0.17c0.447,0.042,0.894,0.084,1.343,0.12
	c1.012,0.079,2.027,0.143,3.045,0.188c0.268,0.012,0.537,0.021,0.805,0.031c1.138,0.041,2.278,0.07,3.424,0.07
	s2.286-0.029,3.424-0.07c0.268-0.01,0.537-0.019,0.805-0.031c1.018-0.045,2.033-0.11,3.045-0.188
	c0.449-0.036,0.896-0.078,1.343-0.12c0.549-0.051,1.095-0.11,1.642-0.17c1.196-0.135,2.387-0.286,3.568-0.467
	c0.03-0.004,0.06-0.008,0.089-0.013C301.948,282.237,332.323,252.812,339.666,215.225z M205.495,234.404
	c13.306,0,24.131-10.847,24.131-24.179s-10.825-24.18-24.131-24.18c-13.307,0-24.132,10.847-24.132,24.18
	S192.188,234.404,205.495,234.404z M294.505,234.404c13.307,0,24.132-10.847,24.132-24.179s-10.825-24.18-24.132-24.18
	s-24.132,10.847-24.132,24.18S281.198,234.404,294.505,234.404z M158.948,205.225h12.784c2.424-16.484,16.639-29.18,33.763-29.18
	c17.123,0,31.338,12.695,33.762,29.18h21.484c2.424-16.484,16.639-29.18,33.763-29.18s31.339,12.695,33.763,29.18h12.784
	c0.207-2.51,0.318-5.048,0.318-7.611c0-50.469-40.988-91.529-91.37-91.529s-91.37,41.06-91.37,91.529
	C158.63,200.177,158.741,202.715,158.948,205.225z M276.513,254.077c-4.137,0-7.981,1.862-10.55,5.109
	c-0.659,0.834-1.646,1.313-2.706,1.313s-2.048-0.479-2.707-1.312c-2.568-3.247-6.413-5.109-10.55-5.109s-7.981,1.862-10.549,5.108
	c-0.66,0.834-1.647,1.313-2.708,1.313s-2.047-0.479-2.706-1.312c-2.568-3.247-6.413-5.109-10.55-5.109
	c-4.136,0-7.98,1.862-10.55,5.108c-1.714,2.166-1.348,5.31,0.818,7.023c2.164,1.713,5.31,1.347,7.023-0.818
	c0.66-0.834,1.647-1.313,2.708-1.313s2.047,0.479,2.706,1.313c2.568,3.247,6.413,5.108,10.55,5.108c4.135,0,7.98-1.861,10.551-5.109
	c0.659-0.834,1.646-1.313,2.706-1.313s2.047,0.479,2.706,1.313c2.568,3.247,6.414,5.108,10.551,5.108s7.981-1.862,10.55-5.109
	c0.659-0.834,1.646-1.313,2.706-1.313s2.048,0.479,2.708,1.313c1.714,2.167,4.858,2.531,7.023,0.818
	c2.166-1.713,2.532-4.858,0.818-7.023C284.493,255.938,280.648,254.077,276.513,254.077z M250,15.244c2.762,0,5-2.239,5-5V5
	c0-2.761-2.238-5-5-5s-5,2.239-5,5v5.244C245,13.005,247.238,15.244,250,15.244z M250,86.734c2.762,0,5-2.239,5-5V27.52
	c0-2.761-2.238-5-5-5s-5,2.239-5,5v54.214C245,84.495,247.238,86.734,250,86.734z M222.45,15.244c2.762,0,5-2.239,5-5V5
	c0-2.761-2.238-5-5-5s-5,2.239-5,5v5.244C217.45,13.005,219.688,15.244,222.45,15.244z M222.45,90.881c2.762,0,5-2.239,5-5V27.52
	c0-2.761-2.238-5-5-5s-5,2.239-5,5v58.361C217.45,88.643,219.688,90.881,222.45,90.881z M194.899,15.244c2.762,0,5-2.239,5-5V5
	c0-2.761-2.238-5-5-5s-5,2.239-5,5v5.244C189.899,13.005,192.138,15.244,194.899,15.244z M194.899,100.33c2.762,0,5-2.239,5-5V27.52
	c0-2.761-2.238-5-5-5s-5,2.239-5,5v67.81C189.899,98.091,192.138,100.33,194.899,100.33z M277.55,15.244c2.762,0,5-2.239,5-5V5
	c0-2.761-2.238-5-5-5s-5,2.239-5,5v5.244C272.55,13.005,274.788,15.244,277.55,15.244z M277.55,90.881c2.762,0,5-2.239,5-5V27.52
	c0-2.761-2.238-5-5-5s-5,2.239-5,5v58.361C272.55,88.643,274.788,90.881,277.55,90.881z M305.101,15.244c2.762,0,5-2.239,5-5V5
	c0-2.761-2.238-5-5-5s-5,2.239-5,5v5.244C300.101,13.005,302.339,15.244,305.101,15.244z M305.101,100.33c2.762,0,5-2.239,5-5V27.52
	c0-2.761-2.238-5-5-5s-5,2.239-5,5v67.81C300.101,98.091,302.339,100.33,305.101,100.33z"/>
</svg>
