<?xml version="1.0" encoding="utf-8"?>
<!-- Generator: Adobe Illustrator 23.0.0, SVG Export Plug-In . SVG Version: 6.00 Build 0)  -->
<svg version="1.1" id="Layer_1" xmlns="http://www.w3.org/2000/svg" xmlns:xlink="http://www.w3.org/1999/xlink" x="0px" y="0px"
	 viewBox="0 0 500 500" style="enable-background:new 0 0 500 500;" xml:space="preserve">
<style type="text/css">
	.st0{fill:#83E1E5;}
	.st1{fill:#AAB1BA;}
	.st2{fill:#FDDF7F;}
	.st3{fill:#ECF4F7;}
	.st4{fill:#1C1D21;}
</style>
<g>
	<path class="st0" d="M348.704,184.254h-31.71c-3.526,3.081-7.258,5.933-11.185,8.511c-1.929-3.36-5.545-5.63-9.698-5.63h-92.221
		c-4.153,0-7.769,2.27-9.698,5.63c-3.928-2.578-7.659-5.43-11.185-8.511h-31.71c-33.479,0-60.62,27.186-60.62,60.721v19.81h0h53.398
		v19.936l60.747-56.69v-9.443h90.357v9.443l60.747,56.69l0-19.936h53.398h0v-19.81C409.324,211.439,382.184,184.254,348.704,184.254
		z"/>
</g>
<g>
	<path class="st0" d="M438.702,432.135h-91.289v-12.736c0-10.315,8.362-18.678,18.677-18.678h16.937v-41.249L262.973,250h-25.945
		L116.973,359.472v41.249h16.937c10.315,0,18.677,8.362,18.677,18.678v12.736H61.298c-6.176,0-11.182,5.007-11.182,11.183v16.474
		c0,2.096,1.699,3.795,3.795,3.795h98.676v12.736c0,10.315-8.362,18.678-18.677,18.678h89.59c-10.315,0-18.677-8.362-18.677-18.678
		v-12.736h90.357v12.736c0,10.315-8.362,18.678-18.677,18.678h89.59c-10.315,0-18.677-8.362-18.677-18.678v-12.736h98.676
		c2.096,0,3.795-1.699,3.795-3.795v-16.474C449.885,437.142,444.878,432.135,438.702,432.135z M295.178,432.135h-90.357v-12.736
		c0-10.315,8.362-18.678,18.677-18.678h53.002c10.315,0,18.677,8.362,18.677,18.678V432.135z"/>
</g>
<g>
	<path class="st2" d="M152.587,432.135H62.23v-12.736c0-10.315,8.362-18.677,18.677-18.677h53.002
		c10.315,0,18.677,8.362,18.677,18.677V432.135z"/>
</g>
<g>
	<path class="st2" d="M62.23,463.586h90.357v12.736c0,10.315-8.362,18.677-18.677,18.677H80.908
		c-10.315,0-18.677-8.362-18.677-18.677V463.586z"/>
</g>
<g>
	<path class="st2" d="M295.178,432.135h-90.357v-12.736c0-10.315,8.362-18.677,18.677-18.677h53.002
		c10.315,0,18.677,8.362,18.677,18.677V432.135z"/>
</g>
<g>
	<path class="st2" d="M204.822,463.586h90.357v12.736c0,10.315-8.362,18.677-18.677,18.677h-53.002
		c-10.315,0-18.677-8.362-18.677-18.677V463.586z"/>
</g>
<g>
	<path class="st2" d="M437.77,432.135h-90.357v-12.736c0-10.315,8.362-18.677,18.677-18.677h53.002
		c10.315,0,18.677,8.362,18.677,18.677V432.135z"/>
</g>
<g>
	<path class="st2" d="M347.413,463.586h90.357v12.736c0,10.315-8.362,18.677-18.677,18.677h-53.002
		c-10.315,0-18.677-8.362-18.677-18.677V463.586z"/>
</g>
<g>
	<path class="st2" d="M355.926,264.784l0,19.936l-60.747-56.69v-9.443h-90.357v9.443l-60.747,56.69v-19.936H90.676v79.146
		c0,8.583,6.947,15.541,15.515,15.541h10.781L237.027,250h25.945l120.055,109.472h10.781c8.569,0,15.515-6.958,15.515-15.541
		v-79.146H355.926z"/>
</g>
<g>
	<path class="st2" d="M250,5c-56.329,0-101.992,45.761-101.992,102.209c0,35.803,18.374,67.301,46.184,85.556
		c1.929-3.36,5.545-5.63,9.698-5.63h0.932h90.357h0.932c4.153,0,7.769,2.27,9.698,5.63c27.81-18.255,46.184-49.753,46.184-85.556
		C351.992,50.761,306.329,5,250,5z"/>
</g>
<g>
	<path class="st1" d="M223.499,155.721h53.002c6.888,0,12.889,3.739,16.128,9.288c5.52-6.36,8.743-14.022,8.743-22.27
		c0-22.034-23-39.897-51.371-39.897s-51.371,17.863-51.371,39.897c0,8.247,3.223,15.909,8.743,22.27
		C210.61,159.46,216.611,155.721,223.499,155.721z"/>
</g>
<g>
	<path class="st3" d="M297.743,128.014c-7.546-14.743-26.07-25.172-47.743-25.172s-40.197,10.429-47.743,25.172H297.743z"/>
</g>
<path class="st4" d="M93.633,149.729c0-2.762,2.239-5,5-5h6.535v-6.534c0-2.762,2.239-5,5-5s5,2.238,5,5v6.534h6.535
	c2.761,0,5,2.238,5,5s-2.239,5-5,5h-6.535v6.535c0,2.762-2.239,5-5,5s-5-2.238-5-5v-6.535h-6.535
	C95.872,154.729,93.633,152.49,93.633,149.729z M378.297,154.729h6.535v6.535c0,2.762,2.239,5,5,5s5-2.238,5-5v-6.535h6.535
	c2.761,0,5-2.238,5-5s-2.239-5-5-5h-6.535v-6.534c0-2.762-2.239-5-5-5s-5,2.238-5,5v6.534h-6.535c-2.761,0-5,2.238-5,5
	S375.536,154.729,378.297,154.729z M85.676,343.931v-79.146v-19.81c0-36.238,29.437-65.721,65.62-65.721h19.457
	c-17.681-19.489-27.746-45.006-27.746-72.045C143.008,48.094,191.004,0,250,0s106.992,48.094,106.992,107.209
	c0,27.039-10.064,52.556-27.745,72.045h19.457c36.183,0,65.62,29.482,65.62,65.721v19.81v79.146
	c0,11.326-9.203,20.541-20.516,20.541h-5.781v18.419c0,2.762-2.239,5-5,5s-5-2.238-5-5v-21.212l-101.6-92.644
	c-2.04-1.86-2.186-5.022-0.326-7.063c1.862-2.041,5.023-2.186,7.064-0.325l101.799,92.825h8.844c5.798,0,10.516-4.729,10.516-10.541
	v-74.146h-43.398v14.936c0,1.991-1.181,3.792-3.007,4.586c-1.826,0.793-3.948,0.429-5.404-0.931l-45.056-42.047
	c-2.019-1.884-2.128-5.048-0.244-7.066c1.883-2.021,5.048-2.128,7.066-0.244l36.645,34.197v-8.431v-40.775c0-2.762,2.239-5,5-5
	s5,2.238,5,5v35.775h43.398v-14.81c0-30.725-24.951-55.721-55.62-55.721h-29.84c-2.247,1.892-4.582,3.699-7.001,5.418
	c0.272,1.174,0.429,2.391,0.429,3.646v16.474c0,4.85-3.946,8.795-8.795,8.795h-3.319v7.736c0,13.056-10.622,23.678-23.677,23.678
	h-53.002c-13.056,0-23.677-10.622-23.677-23.678v-7.736h-3.319c-4.85,0-8.795-3.945-8.795-8.795v-16.474
	c0-1.255,0.158-2.472,0.429-3.646c-2.419-1.719-4.753-3.526-7.001-5.418h-29.84c-30.669,0-55.62,24.996-55.62,55.721v14.81h43.398
	v-35.775c0-2.762,2.239-5,5-5s5,2.238,5,5v40.775v8.431l36.173-33.758c2.018-1.884,5.183-1.776,7.066,0.244
	c1.884,2.019,1.775,5.183-0.244,7.066l-44.584,41.607c-1.457,1.359-3.579,1.724-5.404,0.931c-1.826-0.794-3.007-2.595-3.007-4.586
	v-14.936H95.676v74.146c0,5.813,4.717,10.541,10.516,10.541h8.844l102.301-93.282c2.041-1.86,5.203-1.716,7.064,0.325
	c1.86,2.041,1.714,5.203-0.326,7.063l-102.102,93.101v21.212c0,2.762-2.239,5-5,5s-5-2.238-5-5v-18.419h-5.781
	C94.879,364.472,85.676,355.257,85.676,343.931z M290.178,223.586h-80.356v7.736c0,7.542,6.136,13.678,13.677,13.678h53.002
	c7.542,0,13.677-6.136,13.677-13.678V223.586z M302.293,198.317c0-3.409-2.773-6.183-6.182-6.183h-0.933h-90.356h-0.933
	c-3.409,0-6.182,2.773-6.182,6.183v15.269h7.115h12.653v-4.77c0-2.762,2.239-5,5-5s5,2.238,5,5v4.77H245v-4.77c0-2.762,2.239-5,5-5
	s5,2.238,5,5v4.77h17.525v-4.77c0-2.762,2.239-5,5-5s5,2.238,5,5v4.77h12.653h7.115V198.317z M205.475,133.014
	c-1.194,3.09-1.846,6.351-1.846,9.726c0,4.895,1.364,9.689,3.986,14.115c3.685-3.339,8.422-5.533,13.648-6.025
	c0.031-0.003,0.062-0.004,0.093-0.007c0.706-0.063,1.42-0.102,2.142-0.102h53.002c0.722,0,1.436,0.038,2.142,0.102
	c0.031,0.003,0.062,0.004,0.093,0.007c5.226,0.492,9.964,2.687,13.648,6.025c2.622-4.426,3.986-9.221,3.986-14.115
	c0-3.375-0.653-6.636-1.846-9.726H205.475z M288.226,123.014c-8.367-9.154-22.378-15.172-38.226-15.172s-29.858,6.018-38.226,15.172
	H288.226z M288.265,167.457c-0.28-0.474-0.587-0.927-0.918-1.357c-0.022-0.029-0.043-0.06-0.066-0.089
	c-0.17-0.217-0.346-0.429-0.527-0.634c-0.032-0.037-0.066-0.072-0.098-0.108c-0.571-0.635-1.197-1.213-1.869-1.727
	c-0.015-0.012-0.03-0.022-0.045-0.034c-0.686-0.52-1.419-0.974-2.188-1.355c-0.033-0.017-0.067-0.032-0.1-0.049
	c-0.462-0.226-0.938-0.423-1.423-0.596c-0.058-0.02-0.115-0.043-0.173-0.063c-0.216-0.073-0.435-0.138-0.654-0.2
	c-0.18-0.051-0.362-0.098-0.545-0.141c-0.203-0.049-0.407-0.097-0.613-0.137c-0.319-0.06-0.642-0.11-0.969-0.147
	c-0.122-0.015-0.245-0.026-0.368-0.037c-0.399-0.035-0.801-0.062-1.209-0.062h-53.002c-0.408,0-0.81,0.026-1.209,0.062
	c-0.123,0.011-0.246,0.022-0.368,0.037c-0.327,0.037-0.649,0.088-0.968,0.147c-0.206,0.04-0.41,0.088-0.613,0.137
	c-0.183,0.043-0.365,0.09-0.545,0.141c-0.22,0.063-0.439,0.127-0.654,0.2c-0.058,0.021-0.115,0.043-0.173,0.063
	c-0.486,0.173-0.961,0.37-1.424,0.596c-0.033,0.017-0.067,0.032-0.1,0.049c-0.769,0.382-1.502,0.837-2.189,1.356
	c-0.014,0.011-0.029,0.021-0.043,0.032c-0.672,0.515-1.298,1.093-1.87,1.728c-0.033,0.036-0.066,0.071-0.098,0.108
	c-0.182,0.206-0.358,0.417-0.528,0.635c-0.022,0.028-0.042,0.057-0.064,0.085c-0.332,0.432-0.639,0.886-0.92,1.36
	c-1.207,2.038-1.913,4.406-1.913,6.941v7.736h80.356v-7.736C290.178,171.863,289.472,169.495,288.265,167.457z M186.533,180.711
	c0.003,0.003,0.007,0.006,0.011,0.009c2.169,1.879,4.432,3.668,6.783,5.365c1.849-1.599,4.061-2.778,6.495-3.412v-8.274
	c0-3.082,0.598-6.025,1.674-8.728c-5.155-6.915-7.867-14.778-7.867-22.932c0-5.839,1.422-11.415,3.98-16.537
	c0.091-0.234,0.207-0.453,0.331-0.668c8.494-16.242,28.627-27.692,52.06-27.692s43.567,11.45,52.06,27.692
	c0.124,0.215,0.24,0.434,0.331,0.668c2.558,5.122,3.98,10.698,3.98,16.537c0,8.153-2.712,16.017-7.867,22.932
	c1.076,2.702,1.674,5.646,1.674,8.728v8.274c2.435,0.634,4.646,1.813,6.495,3.412c2.351-1.697,4.614-3.486,6.783-5.365
	c0.003-0.003,0.007-0.006,0.011-0.009c21.188-18.354,33.525-44.994,33.525-73.502C346.992,53.607,303.482,10,250,10
	s-96.992,43.607-96.992,97.209C153.008,135.717,165.345,162.357,186.533,180.711z M287.699,63.769
	c-6.898,0-13.311,3.105-17.594,8.521c-1.713,2.166-1.346,5.31,0.819,7.023c0.918,0.726,2.012,1.078,3.099,1.078
	c1.476,0,2.938-0.65,3.925-1.898c2.375-3.003,5.929-4.725,9.751-4.725c3.821,0,7.375,1.723,9.751,4.726
	c1.713,2.166,4.858,2.532,7.023,0.818c2.166-1.713,2.533-4.857,0.819-7.023C301.008,66.874,294.596,63.769,287.699,63.769z
	 M212.301,63.769c-6.897,0-13.31,3.105-17.594,8.521c-1.713,2.166-1.346,5.311,0.819,7.023c2.166,1.714,5.311,1.348,7.023-0.818
	c2.375-3.003,5.93-4.726,9.751-4.726c3.822,0,7.376,1.722,9.751,4.725c0.987,1.248,2.448,1.898,3.925,1.898
	c1.086,0,2.18-0.353,3.099-1.078c2.166-1.714,2.533-4.857,0.819-7.023C225.612,66.874,219.199,63.769,212.301,63.769z
	 M274.026,54.198c0.559,0,1.126-0.094,1.682-0.292l27.345-9.77c2.601-0.93,3.956-3.791,3.026-6.392
	c-0.929-2.6-3.792-3.949-6.391-3.026l-27.345,9.77c-2.601,0.93-3.956,3.791-3.026,6.392
	C270.048,52.924,271.973,54.198,274.026,54.198z M196.947,44.137l27.345,9.77c0.556,0.198,1.124,0.292,1.682,0.292
	c2.053,0,3.978-1.274,4.708-3.318c0.929-2.601-0.426-5.462-3.026-6.392l-27.345-9.77c-2.598-0.925-5.461,0.427-6.391,3.026
	C192.991,40.346,194.346,43.207,196.947,44.137z M169.702,443.317v16.474c0,4.85-3.946,8.795-8.795,8.795h-3.319v7.736
	c0,13.056-10.622,23.678-23.677,23.678H80.908c-0.063,0-0.125-0.004-0.188-0.005c-0.016,0-0.031,0.005-0.047,0.005H27.497
	c-2.761,0-5-2.238-5-5s2.239-5,5-5h34.102c-2.747-3.866-4.368-8.585-4.368-13.678v-7.736h-3.319c-4.85,0-8.796-3.945-8.796-8.795
	v-16.474c0-7.516,5.158-13.833,12.115-15.645v-8.274c0-13.056,10.622-23.678,23.678-23.678h53.002
	c13.056,0,23.677,10.622,23.677,23.678v8.274C164.544,429.484,169.702,435.802,169.702,443.317z M67.23,427.135h80.357v-7.736
	c0-7.542-6.136-13.678-13.677-13.678H80.908c-7.542,0-13.678,6.136-13.678,13.678V427.135z M147.587,468.586H67.23v7.736
	c0,7.542,6.136,13.678,13.678,13.678h53.002c7.542,0,13.677-6.136,13.677-13.678V468.586z M159.702,443.317
	c0-3.409-2.773-6.183-6.183-6.183h-0.932H62.23h-0.932c-3.409,0-6.183,2.773-6.183,6.183v15.269h7.115h12.654v-4.77
	c0-2.762,2.239-5,5-5s5,2.238,5,5v4.77h17.525v-4.77c0-2.762,2.239-5,5-5s5,2.238,5,5v4.77h17.524v-4.77c0-2.762,2.239-5,5-5
	s5,2.238,5,5v4.77h12.654h7.115V443.317z M312.293,443.317v16.474c0,4.85-3.946,8.795-8.795,8.795h-3.319v7.736
	c0,13.056-10.622,23.678-23.677,23.678h-53.002c-13.056,0-23.677-10.622-23.677-23.678v-7.736h-3.319
	c-4.85,0-8.795-3.945-8.795-8.795v-16.474c0-7.516,5.158-13.833,12.115-15.645v-8.274c0-13.056,10.622-23.678,23.677-23.678h53.002
	c13.056,0,23.677,10.622,23.677,23.678v8.274C307.135,429.484,312.293,435.802,312.293,443.317z M209.822,427.135h80.356v-7.736
	c0-7.542-6.136-13.678-13.677-13.678h-53.002c-7.542,0-13.677,6.136-13.677,13.678V427.135z M290.178,468.586h-80.356v7.736
	c0,7.542,6.136,13.678,13.677,13.678h53.002c7.542,0,13.677-6.136,13.677-13.678V468.586z M302.293,443.317
	c0-3.409-2.773-6.183-6.182-6.183h-0.933h-90.356h-0.933c-3.409,0-6.182,2.773-6.182,6.183v15.269h7.115h12.653v-4.77
	c0-2.762,2.239-5,5-5s5,2.238,5,5v4.77H245v-4.77c0-2.762,2.239-5,5-5s5,2.238,5,5v4.77h17.525v-4.77c0-2.762,2.239-5,5-5
	s5,2.238,5,5v4.77h12.653h7.115V443.317z M10.732,490H5c-2.761,0-5,2.238-5,5s2.239,5,5,5h5.732c2.761,0,5-2.238,5-5
	S13.494,490,10.732,490z M477.503,495c0,2.762-2.239,5-5,5h-53.175c-0.016,0-0.031-0.005-0.047-0.005
	c-0.063,0.001-0.125,0.005-0.188,0.005H366.09c-13.056,0-23.677-10.622-23.677-23.678v-7.736h-3.319
	c-4.85,0-8.795-3.945-8.795-8.795v-16.474c0-7.516,5.158-13.833,12.115-15.645v-8.274c0-13.056,10.622-23.678,23.677-23.678h53.002
	c13.056,0,23.678,10.622,23.678,23.678v8.274c6.957,1.812,12.115,8.129,12.115,15.645v16.474c0,4.85-3.946,8.795-8.796,8.795h-3.319
	v7.736c0,5.093-1.622,9.812-4.368,13.678h34.102C475.265,490,477.503,492.238,477.503,495z M352.413,427.135h80.357v-7.736
	c0-7.542-6.136-13.678-13.678-13.678H366.09c-7.542,0-13.677,6.136-13.677,13.678V427.135z M432.77,468.586h-80.357v7.736
	c0,7.542,6.136,13.678,13.677,13.678h53.002c7.542,0,13.678-6.136,13.678-13.678V468.586z M437.77,458.586h7.115v-15.269
	c0-3.409-2.773-6.183-6.183-6.183h-0.932h-90.357h-0.932c-3.409,0-6.183,2.773-6.183,6.183v15.269h7.115h12.654v-4.77
	c0-2.762,2.239-5,5-5s5,2.238,5,5v4.77h17.524v-4.77c0-2.762,2.239-5,5-5s5,2.238,5,5v4.77h17.525v-4.77c0-2.762,2.239-5,5-5
	s5,2.238,5,5v4.77H437.77z M495,490h-5.732c-2.761,0-5,2.238-5,5s2.239,5,5,5H495c2.761,0,5-2.238,5-5S497.761,490,495,490z"/>
</svg>
