<?xml version="1.0" encoding="utf-8"?>
<!-- Generator: Adobe Illustrator 23.0.0, SVG Export Plug-In . SVG Version: 6.00 Build 0)  -->
<svg version="1.1" id="Layer_1" xmlns="http://www.w3.org/2000/svg" xmlns:xlink="http://www.w3.org/1999/xlink" x="0px" y="0px"
	 viewBox="0 0 500 500" style="enable-background:new 0 0 500 500;" xml:space="preserve">
<style type="text/css">
	.st0{fill:#83E1E5;}
	.st1{fill:#AAB1BA;}
	.st2{fill:#FDDF7F;}
	.st3{fill:#ECF4F7;}
	.st4{fill:#1C1D21;}
</style>
<g>
	<g>
		<ellipse class="st2" cx="250" cy="172.03" rx="102.041" ry="102.209"/>
	</g>
</g>
<g>
	<g>
		<path class="st1" d="M147.959,172.03c0,56.448,45.685,102.209,102.041,102.209V69.821
			C193.645,69.821,147.959,115.582,147.959,172.03z"/>
	</g>
</g>
<g>
	<g>
		<path class="st3" d="M199.621,219.539c-3.804,4.377-3.339,11.009,1.038,14.813c4.378,3.804,11.009,3.339,14.813-1.038
			c8.7-10.01,21.22-15.793,34.415-15.933v-21C230.609,196.522,212.311,204.938,199.621,219.539z"/>
	</g>
</g>
<g>
	<g>
		<path class="st3" d="M299.229,200.923c-4.378-3.804-11.009-3.339-14.813,1.038c-8.7,10.01-21.22,15.793-34.415,15.933v21
			c19.278-0.14,37.576-8.556,50.266-23.157C304.07,211.359,303.606,204.727,299.229,200.923z"/>
	</g>
</g>
<g>
	<g>
		<rect x="130.049" y="414.403" class="st0" width="239.902" height="80.597"/>
	</g>
</g>
<g>
	<g>
		<path class="st0" d="M336.828,257.94h-31.528c-11.949,7.733-25.614,13.03-40.298,15.198c-0.026,0.004-0.051,0.007-0.077,0.011
			c-1.104,0.162-2.213,0.304-3.328,0.43c-0.169,0.019-0.338,0.04-0.507,0.058c-1.145,0.124-2.295,0.233-3.451,0.318
			c-0.11,0.008-0.22,0.013-0.33,0.021c-1.009,0.072-2.022,0.126-3.039,0.168c-0.293,0.012-0.586,0.024-0.88,0.034
			c-1.115,0.036-2.233,0.061-3.357,0.062c-0.011,0-0.021,0.001-0.032,0.001s-0.021-0.001-0.032-0.001
			c-1.124,0-2.242-0.025-3.357-0.062c-0.294-0.01-0.587-0.021-0.88-0.034c-1.017-0.042-2.03-0.096-3.039-0.168
			c-0.11-0.008-0.22-0.013-0.33-0.021c-1.156-0.085-2.306-0.194-3.451-0.318c-0.169-0.018-0.338-0.039-0.507-0.058
			c-1.115-0.126-2.225-0.268-3.328-0.43c-0.026-0.004-0.051-0.007-0.077-0.011c-14.683-2.167-28.349-7.465-40.298-15.198h-31.528
			c-33.463,0-60.591,27.185-60.591,60.72v75.634c0,11.106,9.002,20.109,20.106,20.109h4.436h245.752h4.436
			c11.104,0,20.106-9.003,20.106-20.109V318.66C397.418,285.125,370.291,257.94,336.828,257.94z"/>
	</g>
</g>
<g>
	<g>
		<path class="st2" d="M340.13,341.33v22.391H159.642V341.33h-57.06v52.963c0,11.106,9.002,20.109,20.106,20.109h254.624
			c11.104,0,20.106-9.003,20.106-20.109V341.33H340.13z"/>
	</g>
</g>
<path class="st1" d="M305.833,296.639h-21.421c-19.005,0-34.412,15.406-34.412,34.411c0-19.005-15.406-34.411-34.411-34.411h-21.421
	c-19.005,0-34.411,15.406-34.411,34.411v32.671h180.488V331.05C340.245,312.046,324.838,296.639,305.833,296.639z"/>
<rect x="159.757" y="414.403" class="st1" width="180.488" height="80.597"/>
<g>
	<g>
		<polygon class="st2" points="250,457.447 159.757,457.447 159.757,495 250,495 340.245,495 340.245,457.447 		"/>
	</g>
</g>
<path class="st4" d="M233.124,193.493c2.683-0.66,5.391,0.979,6.051,3.659c0.66,2.681-0.978,5.39-3.659,6.051
	c-12.546,3.09-23.653,9.873-32.121,19.616c-1.989,2.289-1.745,5.77,0.543,7.759c2.29,1.989,5.77,1.745,7.759-0.543
	c5.598-6.441,12.818-11.427,20.882-14.421c2.589-0.96,5.467,0.358,6.428,2.947c0.961,2.589-0.358,5.467-2.947,6.428
	c-6.498,2.412-12.313,6.425-16.814,11.606c-3.06,3.521-7.374,5.325-11.709,5.325c-3.606,0-7.228-1.248-10.157-3.793
	c-6.451-5.607-7.138-15.416-1.532-21.867C205.674,204.952,218.564,197.079,233.124,193.493z M264.372,232.072
	c-2.681,0.66-4.319,3.369-3.659,6.051c0.562,2.28,2.604,3.806,4.851,3.806c0.396,0,0.798-0.047,1.2-0.146
	c14.56-3.586,27.45-11.458,37.277-22.766c5.606-6.451,4.919-16.26-1.532-21.867c-6.452-5.605-16.261-4.918-21.866,1.532
	c-4.501,5.18-10.316,9.193-16.814,11.605c-2.589,0.961-3.908,3.839-2.947,6.428c0.961,2.589,3.839,3.908,6.428,2.947
	c8.064-2.994,15.285-7.98,20.882-14.421c1.989-2.289,5.469-2.533,7.759-0.543c2.289,1.989,2.533,5.47,0.543,7.759
	C288.025,222.199,276.918,228.982,264.372,232.072z M250,263.376c2.761,0,5-2.239,5-5V85.685c0-2.761-2.239-5-5-5s-5,2.239-5,5
	v172.691C245,261.137,247.239,263.376,250,263.376z M204.878,166.478c7.873,0,15.192-3.545,20.082-9.726
	c1.713-2.166,1.346-5.31-0.819-7.023c-2.165-1.713-5.31-1.346-7.023,0.819c-2.981,3.769-7.442,5.93-12.239,5.93
	s-9.257-2.161-12.239-5.93c-1.713-2.166-4.858-2.532-7.023-0.819c-2.166,1.713-2.533,4.858-0.819,7.023
	C189.687,162.933,197.006,166.478,204.878,166.478z M275.86,165.4c2.166,1.713,5.311,1.347,7.023-0.819
	c2.981-3.769,7.442-5.93,12.239-5.93s9.257,2.161,12.239,5.93c0.987,1.248,2.449,1.898,3.925,1.898c1.086,0,2.181-0.353,3.099-1.079
	c2.166-1.713,2.533-4.858,0.819-7.023c-4.89-6.181-12.209-9.726-20.082-9.726s-15.192,3.545-20.082,9.726
	C273.328,160.542,273.695,163.686,275.86,165.4z M248.471,15.39c2.761,0,5-2.239,5-5V5c0-2.761-2.239-5-5-5s-5,2.239-5,5v5.39
	C243.471,13.152,245.71,15.39,248.471,15.39z M248.471,55.187c2.761,0,5-2.239,5-5V29.442c0-2.761-2.239-5-5-5s-5,2.239-5,5v20.745
	C243.471,52.948,245.71,55.187,248.471,55.187z M215.683,15.39c2.761,0,5-2.239,5-5V5c0-2.761-2.239-5-5-5s-5,2.239-5,5v5.39
	C210.683,13.152,212.921,15.39,215.683,15.39z M215.683,61.231c2.761,0,5-2.239,5-5V29.442c0-2.761-2.239-5-5-5s-5,2.239-5,5v26.789
	C210.683,58.993,212.921,61.231,215.683,61.231z M182.894,15.39c2.761,0,5-2.239,5-5V5c0-2.761-2.239-5-5-5s-5,2.239-5,5v5.39
	C177.894,13.152,180.133,15.39,182.894,15.39z M182.894,74.821c2.761,0,5-2.239,5-5V29.442c0-2.761-2.239-5-5-5s-5,2.239-5,5v40.379
	C177.894,72.583,180.133,74.821,182.894,74.821z M287.742,43.683h6.535v6.534c0,2.761,2.239,5,5,5s5-2.239,5-5v-6.534h6.535
	c2.761,0,5-2.239,5-5s-2.239-5-5-5h-6.535v-6.535c0-2.761-2.239-5-5-5s-5,2.239-5,5v6.535h-6.535c-2.761,0-5,2.239-5,5
	S284.98,43.683,287.742,43.683z M336.454,74.733h6.535v6.534c0,2.761,2.239,5,5,5s5-2.239,5-5v-6.534h6.534c2.761,0,5-2.239,5-5
	s-2.239-5-5-5h-6.534v-6.535c0-2.761-2.239-5-5-5s-5,2.239-5,5v6.535h-6.535c-2.761,0-5,2.239-5,5S333.692,74.733,336.454,74.733z
	 M97.583,394.293V318.66c0-36.238,29.424-65.72,65.591-65.72h16.675c-22.586-19.671-36.889-48.648-36.889-80.909
	c0-59.115,48.019-107.209,107.041-107.209s107.041,48.094,107.041,107.209c0,32.261-14.303,61.239-36.889,80.909h16.675
	c36.167,0,65.591,29.482,65.591,65.72v75.637c0,13.844-11.263,25.106-25.106,25.106h-2.361v60.694c0,2.761-2.239,5-5,5s-5-2.239-5-5
	v-60.694h-19.707v60.141c0,2.761-2.239,5-5,5s-5-2.239-5-5v-17.096H255v17.096c0,2.761-2.239,5-5,5s-5-2.239-5-5v-17.096h-80.244
	v17.096c0,2.761-2.239,5-5,5s-5-2.239-5-5v-60.141h-19.707v60.141c0,2.761-2.239,5-5,5s-5-2.239-5-5v-60.141h-2.358
	C108.846,419.403,97.583,408.139,97.583,394.293z M245,452.447v-33.044h-80.244v33.044H245z M335.245,419.403H255v33.044h80.244
	V419.403z M392.418,394.296V346.33h-47.174v17.391c0,2.761-2.239,5-5,5h-0.114H250h-90.244h-0.114c-2.761,0-5-2.239-5-5V346.33
	h-47.06v47.963c0,8.331,6.778,15.109,15.109,15.109h7.358h29.707H250h90.244h29.707h7.361
	C385.642,409.403,392.418,402.626,392.418,394.296z M255,358.721h80.13v-30.177c-1.277-15.048-13.924-26.905-29.297-26.905h-21.421
	c-16.218,0-29.412,13.194-29.412,29.411V358.721z M245,331.05c0-16.217-13.194-29.411-29.412-29.411h-21.421
	c-16.217,0-29.411,13.194-29.411,29.411v27.671H245V331.05z M232.617,267.674c0.09,0.016,0.18,0.035,0.27,0.051
	c0.47,0.084,0.943,0.158,1.416,0.236c0.394,0.064,0.788,0.131,1.184,0.191c0.641,0.097,1.285,0.187,1.93,0.271
	c0.349,0.045,0.702,0.086,1.055,0.127c0.371,0.044,0.741,0.088,1.113,0.128c1.03,0.11,2.063,0.208,3.101,0.286
	c0.159,0.012,0.32,0.019,0.479,0.031c0.919,0.064,1.844,0.115,2.773,0.153l0.489,0.019c0.119,0.004,0.237,0.01,0.356,0.014
	c0.521,0.017,1.039,0.029,1.561,0.038c0.351,0.006,0.702,0.011,1.054,0.013c0.202,0.002,0.4,0.006,0.604,0.007
	c0.011,0,0.021,0,0.032,0c1.066,0,2.126-0.024,3.185-0.059c0.284-0.009,0.567-0.021,0.85-0.032c0.932-0.039,1.858-0.089,2.781-0.154
	c0.154-0.011,0.308-0.018,0.462-0.029c1.043-0.078,2.08-0.177,3.113-0.287c0.27-0.029,0.539-0.062,0.809-0.093
	c0.847-0.097,1.689-0.208,2.528-0.327c0.262-0.037,0.525-0.071,0.786-0.11c0.348-0.052,0.695-0.112,1.042-0.168
	c46.124-7.493,81.453-47.662,81.453-95.949c0-53.601-43.532-97.209-97.041-97.209s-97.041,43.608-97.041,97.209
	C152.959,219.688,187.374,259.444,232.617,267.674z M107.583,318.66v17.671h47.06v-46.755c0-2.761,2.239-5,5-5s5,2.239,5,5v15.41
	c7.227-8.176,17.781-13.346,29.525-13.346h21.421c14.772,0,27.664,8.173,34.412,20.23c6.748-12.057,19.64-20.23,34.412-20.23h21.421
	c11.619,0,22.077,5.057,29.297,13.083v-15.147c0-2.761,2.239-5,5-5s5,2.239,5,5v38.626c0.068,0.942,0.114,1.89,0.114,2.849v5.28
	h47.174V318.66c0-30.724-24.938-55.72-55.591-55.72h-30.07c-11.489,7.215-24.016,12.084-37.303,14.52
	c-0.223,0.041-0.444,0.085-0.668,0.125c-0.48,0.085-0.963,0.162-1.446,0.24c-0.454,0.074-0.908,0.15-1.364,0.219
	c-0.082,0.012-0.163,0.027-0.246,0.04c-0.62,0.091-1.221,0.173-1.814,0.25c-0.416,0.054-0.834,0.102-1.251,0.151
	c-0.169,0.02-0.339,0.042-0.507,0.061l-0.533,0.061c-0.041,0.004-0.082,0.007-0.123,0.011c-1.148,0.123-2.3,0.232-3.458,0.319
	c-0.013,0.001-0.025,0.002-0.038,0.003l-0.253,0.017c-0.494,0.035-0.968,0.063-1.437,0.09c-0.585,0.034-1.172,0.063-1.76,0.088
	c-0.027,0.001-0.054,0.003-0.081,0.004l-0.919,0.035c-0.014,0-0.029,0-0.043,0.001c-1.107,0.036-2.217,0.06-3.333,0.062
	c-0.033,0-0.065,0.002-0.097,0.002c-0.015,0-0.03,0-0.044,0c-0.013,0-0.026,0-0.038,0s-0.026,0-0.038,0c-0.015,0-0.029,0-0.045,0
	c-0.033,0-0.066-0.002-0.099-0.002c-1.116-0.002-2.226-0.026-3.333-0.062c-0.012,0-0.025,0-0.037-0.001l-0.925-0.035
	c-0.012,0-0.025-0.002-0.037-0.002c-0.998-0.042-1.993-0.096-2.985-0.165c-0.054-0.004-0.109-0.005-0.163-0.009l-0.343-0.022
	c-0.017-0.001-0.034-0.003-0.052-0.005c-1.152-0.086-2.298-0.194-3.44-0.317c-0.043-0.005-0.087-0.007-0.131-0.012l-0.536-0.061
	c-0.073-0.008-0.145-0.02-0.218-0.028c-0.954-0.111-1.905-0.233-2.851-0.369c-0.139-0.02-0.28-0.034-0.419-0.054
	c-0.078-0.011-0.155-0.026-0.234-0.037c-0.584-0.087-1.165-0.183-1.745-0.28c-0.333-0.055-0.666-0.108-0.998-0.166
	c-0.46-0.081-0.917-0.17-1.374-0.257c-0.479-0.091-0.96-0.179-1.437-0.276c-0.185-0.038-0.369-0.079-0.554-0.118
	c-12.375-2.581-24.024-7.276-34.765-14.02h-30.07C132.521,262.94,107.583,287.936,107.583,318.66z M440.836,490h-3.813
	c-2.761,0-5,2.239-5,5s2.239,5,5,5h3.813c2.761,0,5-2.239,5-5S443.597,490,440.836,490z M419.863,490H80.138c-2.761,0-5,2.239-5,5
	s2.239,5,5,5h339.725c2.761,0,5-2.239,5-5S422.624,490,419.863,490z M62.979,490h-3.813c-2.761,0-5,2.239-5,5s2.239,5,5,5h3.813
	c2.761,0,5-2.239,5-5S65.74,490,62.979,490z"/>
</svg>
