<?xml version="1.0" encoding="utf-8"?>
<!-- Generator: Adobe Illustrator 23.0.0, SVG Export Plug-In . SVG Version: 6.00 Build 0)  -->
<svg version="1.1" id="Layer_1" xmlns="http://www.w3.org/2000/svg" xmlns:xlink="http://www.w3.org/1999/xlink" x="0px" y="0px"
	 viewBox="0 0 500 500" style="enable-background:new 0 0 500 500;" xml:space="preserve">
<style type="text/css">
	.st0{fill:#83E1E5;}
	.st1{fill:#AAB1BA;}
	.st2{fill:#FDDF7F;}
	.st3{fill:#ECF4F7;}
	.st4{fill:#1C1D21;}
</style>
<g>
	<path class="st1" d="M452.359,5H318.747c-8.195,0-14.838,6.643-14.838,14.838v75.396c28.352,18.154,47.15,49.971,47.15,86.188
		c0,36.034-18.609,67.709-46.719,85.909h31.554c33.464,0,60.591,27.186,60.591,60.721v10.404h70.711V19.838
		C467.197,11.643,460.554,5,452.359,5z"/>
</g>
<g>
	<rect x="396.486" y="338.457" class="st3" width="70.711" height="50.396"/>
</g>
<g>
	<path class="st1" d="M162.241,267.332h31.554c-28.11-18.2-46.719-49.875-46.719-85.909c0-37.006,19.626-69.418,49.015-87.355
		V19.838c0-8.195-6.643-14.838-14.838-14.838H47.641c-8.195,0-14.838,6.643-14.838,14.838v318.619h68.847v-10.404
		C101.65,294.518,128.777,267.332,162.241,267.332z"/>
</g>
<g>
	<rect x="32.803" y="338.457" class="st3" width="68.847" height="50.396"/>
</g>
<g>
	<path class="st3" d="M162.241,267.332h31.554c-10.376-6.718-19.452-15.276-26.781-25.208H32.803v50.396h80.318
		C124.127,277.267,142.021,267.332,162.241,267.332z"/>
</g>
<g>
	<path class="st3" d="M331.121,242.124c-7.329,9.932-16.405,18.49-26.781,25.208h31.554c20.219,0,38.113,9.935,49.12,25.188h82.182
		v-50.396H331.121z"/>
</g>
<g>
	<path class="st3" d="M344.685,145.79c4.119,11.096,6.375,23.1,6.375,35.633c0,5.015-0.367,9.942-1.063,14.765h117.201V145.79
		H344.685z"/>
</g>
<g>
	<path class="st3" d="M147.076,181.423c0-12.533,2.256-24.537,6.375-35.633H32.803v50.397h115.336
		C147.443,191.365,147.076,186.438,147.076,181.423z"/>
</g>
<g>
	<path class="st0" d="M335.895,267.332h-31.602c-15.919,10.299-34.868,16.3-55.225,16.3s-39.306-6.001-55.225-16.3h-31.602
		c-33.464,0-60.591,27.186-60.591,60.721v97.677c0,11.106,9.002,20.109,20.106,20.109h4.436V495h245.752v-49.161h4.436
		c11.104,0,20.106-9.003,20.106-20.109v-97.677C396.486,294.518,369.358,267.332,335.895,267.332z"/>
</g>
<g>
	<g>
		<path class="st2" d="M339.197,350.723v44.435H158.71v-44.435h-57.06v75.007c0,11.105,9.002,20.109,20.106,20.109h254.624
			c11.104,0,20.106-9.004,20.106-20.109v-75.007H339.197z"/>
	</g>
</g>
<g>
	<ellipse class="st2" cx="249.068" cy="181.423" rx="101.992" ry="102.209"/>
</g>
<g>
	<g>
		<path class="st3" d="M198.231,230.054c4.521,3.928,11.369,3.448,15.297-1.072c8.984-10.337,21.914-16.309,35.54-16.453
			c13.626,0.145,26.556,6.116,35.54,16.453c3.928,4.52,10.776,5,15.297,1.072c4.52-3.929,5-10.777,1.072-15.297
			c-13.105-15.079-32.001-23.769-51.908-23.914c-19.908,0.145-38.804,8.835-51.908,23.914
			C193.231,219.277,193.711,226.125,198.231,230.054z"/>
	</g>
</g>
<path class="st4" d="M233.465,16.534c0-2.762,2.239-5,5-5H245V5c0-2.762,2.239-5,5-5s5,2.238,5,5v6.534h6.535c2.761,0,5,2.238,5,5
	s-2.239,5-5,5H255v6.535c0,2.762-2.239,5-5,5s-5-2.238-5-5v-6.535h-6.535C235.704,21.534,233.465,19.296,233.465,16.534z
	 M87.649,388.854c0-2.762-2.239-5-5-5H37.803v-15.198h44.847c2.761,0,5-2.238,5-5s-2.239-5-5-5H37.803v-15.198h44.847
	c2.761,0,5-2.238,5-5s-2.239-5-5-5H37.803v-35.937h55.318c2.761,0,5-2.238,5-5s-2.239-5-5-5H37.803v-15.198h66.415
	c2.761,0,5-2.238,5-5s-2.239-5-5-5H37.803v-15.198h109.211c2.761,0,5-2.238,5-5s-2.239-5-5-5H37.803v-35.937h92.342
	c2.761,0,5-2.238,5-5s-2.239-5-5-5H37.803v-15.199h92.377c2.761,0,5-2.238,5-5s-2.239-5-5-5H37.803V150.79h97.647
	c2.761,0,5-2.238,5-5s-2.239-5-5-5H37.803V19.838c0-5.425,4.413-9.838,9.838-9.838h133.612c5.425,0,9.838,4.413,9.838,9.838v52.947
	c0,2.762,2.239,5,5,5s5-2.238,5-5V19.838C201.09,8.899,192.191,0,181.252,0H47.641C36.702,0,27.803,8.899,27.803,19.838V145.79
	v50.397v45.937v50.396v45.937v50.396c0,2.762,2.239,5,5,5h49.847C85.411,393.854,87.649,391.615,87.649,388.854z M452.359,0H318.748
	c-10.938,0-19.838,8.899-19.838,19.838v52.947c0,2.762,2.239,5,5,5s5-2.238,5-5V19.838c0-5.425,4.413-9.838,9.838-9.838h133.611
	c5.425,0,9.838,4.413,9.838,9.838V140.79H364.55c-2.761,0-5,2.238-5,5s2.239,5,5,5h97.647v15.198h-94.47c-2.761,0-5,2.238-5,5
	s2.239,5,5,5h94.47v15.199h-92.342c-2.761,0-5,2.238-5,5s2.239,5,5,5h92.342v35.937H352.986c-2.761,0-5,2.238-5,5s2.239,5,5,5
	h109.211v15.198h-66.415c-2.761,0-5,2.238-5,5s2.239,5,5,5h66.415v15.198h-55.318c-2.761,0-5,2.238-5,5s2.239,5,5,5h55.318v35.937
	H417.35c-2.761,0-5,2.238-5,5s2.239,5,5,5h44.847v15.198H417.35c-2.761,0-5,2.238-5,5s2.239,5,5,5h44.847v15.198H417.35
	c-2.761,0-5,2.238-5,5s2.239,5,5,5h49.847c2.761,0,5-2.238,5-5v-50.396v-45.937v-50.396v-45.937V145.79V19.838
	C472.197,8.899,463.298,0,452.359,0z M319.187,262.333h16.708c36.167,0,65.591,29.481,65.591,65.72v97.68
	c0,13.654-10.959,24.79-24.542,25.092v25.834c0,2.762-2.239,5-5,5s-5-2.238-5-5v-25.819H258.575c-2.761,0-5-2.238-5-5s2.239-5,5-5
	h117.804c8.33,0,15.106-6.776,15.106-15.106v-70.009h-47.289v39.434c0,2.762-2.239,5-5,5h-35.724c-9.172,0-17.96,3.398-24.746,9.57
	l-31.816,28.938c-8.631,7.85-19.809,12.173-31.475,12.173h-84.246v25.819c0,2.762-2.239,5-5,5s-5-2.238-5-5v-25.834
	c-13.583-0.304-24.542-11.439-24.542-25.095v-97.677c0-36.238,29.424-65.72,65.591-65.72h16.708
	c-22.577-19.671-36.873-48.648-36.873-80.91c0-59.115,47.997-107.209,106.992-107.209S356.06,122.308,356.06,181.423
	C356.06,213.685,341.764,242.662,319.187,262.333z M305.75,272.333c-0.34,0.213-0.687,0.411-1.028,0.62
	c-0.235,0.144-0.471,0.284-0.707,0.427c-1.009,0.606-2.026,1.195-3.052,1.768c-0.364,0.203-0.726,0.408-1.092,0.607
	c-0.508,0.275-1.019,0.544-1.531,0.811c-0.485,0.253-0.973,0.502-1.463,0.748c-0.447,0.225-0.892,0.451-1.341,0.669
	c-0.88,0.427-1.768,0.842-2.661,1.245c-0.346,0.156-0.695,0.306-1.043,0.458c-0.704,0.309-1.411,0.609-2.122,0.903
	c-0.321,0.133-0.641,0.267-0.963,0.396c-1.008,0.404-2.022,0.798-3.045,1.173c-0.09,0.032-0.182,0.063-0.272,0.096
	c-0.98,0.356-1.969,0.695-2.962,1.023c-0.225,0.074-0.451,0.147-0.677,0.221c-2.19,0.706-4.409,1.345-6.657,1.911
	c-0.138,0.035-0.276,0.067-0.414,0.102c-1.032,0.256-2.07,0.496-3.113,0.721c-0.128,0.027-0.256,0.057-0.384,0.084
	c-2.268,0.48-4.562,0.887-6.88,1.221c-0.221,0.031-0.441,0.063-0.662,0.093c-1.036,0.143-2.076,0.271-3.121,0.384
	c-0.109,0.012-0.217,0.026-0.325,0.038c-1.125,0.117-2.256,0.215-3.391,0.297c-0.276,0.021-0.552,0.035-0.827,0.053
	c-0.857,0.056-1.717,0.101-2.579,0.136c-0.341,0.014-0.682,0.028-1.024,0.039c-1.043,0.032-2.09,0.053-3.14,0.055
	c-0.068,0-0.136,0.004-0.205,0.004s-0.136-0.004-0.205-0.004c-1.051-0.002-2.097-0.022-3.14-0.055
	c-0.342-0.011-0.683-0.025-1.024-0.039c-0.862-0.035-1.722-0.08-2.579-0.136c-0.276-0.018-0.552-0.032-0.827-0.053
	c-1.135-0.082-2.266-0.18-3.391-0.297c-0.109-0.012-0.217-0.026-0.326-0.038c-1.045-0.112-2.084-0.241-3.12-0.384
	c-0.221-0.03-0.442-0.062-0.663-0.094c-2.317-0.333-4.611-0.739-6.878-1.22c-0.13-0.027-0.259-0.057-0.389-0.085
	c-1.041-0.225-2.077-0.464-3.107-0.719c-0.14-0.035-0.28-0.067-0.419-0.103c-2.246-0.566-4.463-1.204-6.65-1.909
	c-0.229-0.074-0.458-0.149-0.687-0.225c-0.987-0.325-1.968-0.662-2.941-1.016c-0.097-0.035-0.195-0.068-0.292-0.104
	c-1.02-0.374-2.03-0.766-3.035-1.169c-0.327-0.131-0.653-0.267-0.979-0.401c-0.703-0.29-1.403-0.589-2.099-0.894
	c-0.355-0.155-0.71-0.308-1.063-0.467c-0.889-0.401-1.772-0.814-2.648-1.239c-0.457-0.222-0.91-0.452-1.365-0.681
	c-0.48-0.241-0.958-0.484-1.434-0.732c-0.519-0.271-1.037-0.543-1.552-0.822c-0.344-0.187-0.684-0.38-1.026-0.57
	c-1.055-0.588-2.101-1.193-3.139-1.817c-0.222-0.134-0.444-0.266-0.665-0.401c-0.346-0.211-0.698-0.412-1.042-0.628h-30.145
	c-30.653,0-55.591,24.996-55.591,55.72v17.671h47.06v-31.42c0-2.762,2.239-5,5-5s5,2.238,5,5v75.854h96.815c2.761,0,5,2.238,5,5
	s-2.239,5-5,5H158.709c-2.761,0-5-2.238-5-5v-39.434h-47.06v70.006c0,8.331,6.778,15.109,15.109,15.109h93.679
	c9.172,0,17.96-3.399,24.746-9.571L272,402.329c8.63-7.849,19.808-12.172,31.474-12.172h30.724v-75.854c0-2.762,2.239-5,5-5
	s5,2.238,5,5v31.42h47.289v-17.671c0-30.724-24.938-55.72-55.591-55.72H305.75z M346.06,181.423
	c0-53.602-43.51-97.209-96.992-97.209s-96.992,43.607-96.992,97.209c0,34.918,18.468,65.59,46.125,82.733
	c0.237,0.146,0.471,0.296,0.709,0.44c0.492,0.3,0.99,0.592,1.488,0.883c0.382,0.223,0.766,0.441,1.151,0.659
	c0.517,0.292,1.035,0.583,1.557,0.866c0.684,0.37,1.371,0.732,2.063,1.085c0.387,0.198,0.778,0.391,1.168,0.583
	c0.573,0.283,1.149,0.56,1.728,0.831c0.32,0.15,0.639,0.304,0.962,0.451c0.868,0.396,1.742,0.777,2.621,1.146
	c0.262,0.11,0.527,0.217,0.791,0.325c0.75,0.307,1.504,0.605,2.261,0.894c0.221,0.085,0.441,0.171,0.662,0.253
	c0.971,0.361,1.947,0.709,2.929,1.039c0.12,0.041,0.242,0.078,0.363,0.118c0.91,0.302,1.825,0.589,2.743,0.863
	c0.164,0.05,0.329,0.1,0.493,0.147c2.066,0.605,4.152,1.141,6.256,1.605c0.155,0.034,0.311,0.068,0.466,0.103
	c2.104,0.454,4.225,0.839,6.36,1.152c0.183,0.027,0.368,0.052,0.551,0.077c0.916,0.13,1.834,0.245,2.754,0.349
	c0.171,0.019,0.341,0.04,0.513,0.059c1.04,0.11,2.082,0.204,3.127,0.281c0.213,0.016,0.428,0.026,0.642,0.041
	c0.83,0.056,1.661,0.1,2.493,0.134c0.308,0.013,0.615,0.025,0.924,0.035c0.967,0.031,1.936,0.051,2.906,0.053
	c0.063,0,0.125,0.002,0.187,0.002s0.125-0.002,0.187-0.002c0.97-0.002,1.939-0.021,2.906-0.053c0.308-0.01,0.616-0.022,0.923-0.035
	c0.833-0.034,1.664-0.078,2.494-0.134c0.213-0.015,0.428-0.025,0.641-0.041c1.045-0.077,2.088-0.171,3.128-0.281
	c0.17-0.019,0.339-0.04,0.509-0.059c0.922-0.104,1.842-0.219,2.76-0.349c0.182-0.025,0.365-0.05,0.546-0.077
	c2.137-0.313,4.26-0.698,6.366-1.153c0.152-0.033,0.304-0.066,0.456-0.101c2.107-0.466,4.197-1.002,6.267-1.607
	c0.16-0.047,0.32-0.096,0.48-0.144c0.925-0.276,1.847-0.565,2.763-0.87c0.115-0.038,0.231-0.074,0.345-0.112
	c0.986-0.331,1.965-0.68,2.94-1.043c0.216-0.08,0.429-0.164,0.644-0.246c0.766-0.291,1.528-0.593,2.286-0.904
	c0.257-0.105,0.514-0.208,0.77-0.315c0.884-0.371,1.762-0.756,2.635-1.154c0.314-0.143,0.624-0.292,0.936-0.438
	c0.589-0.275,1.176-0.559,1.76-0.847c0.383-0.189,0.766-0.377,1.146-0.571c0.721-0.368,1.438-0.745,2.151-1.132
	c0.488-0.266,0.972-0.538,1.455-0.812c0.397-0.224,0.793-0.45,1.188-0.681c0.49-0.286,0.979-0.573,1.463-0.868
	c0.264-0.16,0.524-0.326,0.786-0.488C327.622,246.963,346.06,216.313,346.06,181.423z M440.835,490h-3.813c-2.761,0-5,2.238-5,5
	s2.239,5,5,5h3.813c2.761,0,5-2.238,5-5S443.597,490,440.835,490z M419.862,490H80.138c-2.761,0-5,2.238-5,5s2.239,5,5,5h339.725
	c2.761,0,5-2.238,5-5S422.624,490,419.862,490z M62.978,490h-3.813c-2.761,0-5,2.238-5,5s2.239,5,5,5h3.813c2.761,0,5-2.238,5-5
	S65.739,490,62.978,490z M221.12,156.372c-2.375,3.003-5.93,4.726-9.751,4.726c-3.822,0-7.376-1.722-9.751-4.725
	c-1.712-2.166-4.856-2.532-7.023-0.82c-2.166,1.714-2.533,4.857-0.819,7.023c4.283,5.416,10.696,8.521,17.594,8.521
	c6.897,0,13.31-3.105,17.594-8.521c1.713-2.166,1.346-5.311-0.819-7.023C225.979,153.841,222.833,154.208,221.12,156.372z
	 M303.541,155.553c-2.167-1.711-5.31-1.346-7.023,0.82c-2.375,3.003-5.929,4.725-9.751,4.725c-3.821,0-7.375-1.723-9.751-4.726
	c-1.712-2.164-4.858-2.531-7.023-0.818s-2.533,4.857-0.819,7.023c4.284,5.415,10.697,8.521,17.594,8.521
	c6.898,0,13.311-3.105,17.594-8.521C306.073,160.41,305.706,157.267,303.541,155.553z M197.697,144.904
	c0.559,0,1.126-0.094,1.682-0.292l27.345-9.77c2.601-0.93,3.956-3.791,3.026-6.392c-0.929-2.599-3.792-3.952-6.391-3.026
	l-27.345,9.77c-2.601,0.93-3.956,3.791-3.026,6.392C193.719,143.63,195.644,144.904,197.697,144.904z M271.412,134.843l27.345,9.77
	c0.556,0.198,1.124,0.292,1.682,0.292c2.053,0,3.978-1.274,4.708-3.318c0.929-2.601-0.426-5.462-3.026-6.392l-27.345-9.77
	c-2.599-0.928-5.461,0.426-6.391,3.026S268.811,133.913,271.412,134.843z M304.75,211.477c5.73,6.593,5.028,16.619-1.565,22.351
	c-6.594,5.73-16.621,5.028-22.352-1.564c-8.013-9.221-19.589-14.589-31.766-14.733c-12.177,0.145-23.753,5.513-31.766,14.733
	c-3.128,3.599-7.537,5.442-11.968,5.442c-3.686,0-7.388-1.275-10.382-3.877c0,0,0-0.001,0-0.001
	c-6.593-5.73-7.295-15.757-1.565-22.351c14.023-16.136,34.306-25.479,55.646-25.634C270.444,185.998,290.727,195.341,304.75,211.477
	z M297.202,218.037c-12.142-13.971-29.699-22.061-48.17-22.194c-18.399,0.134-35.957,8.224-48.099,22.194
	c-2.113,2.432-1.854,6.129,0.578,8.243c2.431,2.111,6.129,1.854,8.243-0.578c9.899-11.389,24.209-18.013,39.261-18.173
	c0.036,0,0.07,0,0.106,0c15.052,0.16,29.361,6.784,39.26,18.173c2.114,2.433,5.812,2.69,8.244,0.577
	C299.057,224.166,299.315,220.469,297.202,218.037z"/>
</svg>
