<?xml version="1.0" encoding="utf-8"?>
<!-- Generator: Adobe Illustrator 23.0.0, SVG Export Plug-In . SVG Version: 6.00 Build 0)  -->
<svg version="1.1" id="Layer_1" xmlns="http://www.w3.org/2000/svg" xmlns:xlink="http://www.w3.org/1999/xlink" x="0px" y="0px"
	 viewBox="0 0 500 500" style="enable-background:new 0 0 500 500;" xml:space="preserve">
<style type="text/css">
	.st0{fill:#83E1E5;}
	.st1{fill:#AAB1BA;}
	.st2{fill:#FDDF7F;}
	.st3{fill:#ECF4F7;}
	.st4{fill:#1C1D21;}
</style>
<g>
	<g>
		<path class="st2" d="M265.143,79.214v204.418c56.356,0,102.041-45.761,102.041-102.209
			C367.184,124.975,321.499,79.214,265.143,79.214z"/>
	</g>
</g>
<g>
	<g>
		<path class="st0" d="M132.817,181.423c0,56.448,45.685,102.209,102.041,102.209V79.214
			C178.502,79.214,132.817,124.975,132.817,181.423z"/>
	</g>
</g>
<g>
	<g>
		<path class="st0" d="M352.012,267.333h-31.57c-15.934,10.312-34.917,16.3-55.299,16.3V495h147.489V328.052
			C412.632,294.518,385.491,267.333,352.012,267.333z"/>
	</g>
</g>
<g>
	<g>
		<rect x="360.038" y="363.781" class="st2" width="52.594" height="131.219"/>
	</g>
</g>
<g>
	<g>
		<path class="st1" d="M179.559,267.333h-31.57c-33.479,0-60.62,27.186-60.62,60.72V495h147.489V283.632
			C214.477,283.632,195.493,277.644,179.559,267.333z"/>
	</g>
</g>
<g>
	<g>
		<rect x="87.369" y="363.781" class="st0" width="52.594" height="131.219"/>
	</g>
</g>
<path class="st4" d="M233.466,16.535c0-2.761,2.239-5,5-5H245V5c0-2.761,2.239-5,5-5s5,2.239,5,5v6.535h6.535c2.761,0,5,2.239,5,5
	s-2.239,5-5,5H255v6.534c0,2.761-2.239,5-5,5s-5-2.239-5-5v-6.534h-6.535C235.705,21.535,233.466,19.296,233.466,16.535z
	 M162.337,21.535h6.535v6.534c0,2.761,2.239,5,5,5s5-2.239,5-5v-6.534h6.535c2.761,0,5-2.239,5-5s-2.239-5-5-5h-6.535V5
	c0-2.761-2.239-5-5-5s-5,2.239-5,5v6.535h-6.535c-2.761,0-5,2.239-5,5S159.576,21.535,162.337,21.535z M314.594,21.535h6.535v6.534
	c0,2.761,2.239,5,5,5s5-2.239,5-5v-6.534h6.535c2.761,0,5-2.239,5-5s-2.239-5-5-5h-6.535V5c0-2.761-2.239-5-5-5s-5,2.239-5,5v6.535
	h-6.535c-2.761,0-5,2.239-5,5S311.833,21.535,314.594,21.535z M335.295,262.333h16.716c36.183,0,65.62,29.482,65.62,65.72v151.491
	c0,2.761-2.239,5-5,5s-5-2.239-5-5V368.781h-42.594v110.763c0,2.761-2.239,5-5,5s-5-2.239-5-5V324.281c0-2.761,2.239-5,5-5
	s5,2.239,5,5v34.5h42.594v-30.729c0-30.724-24.951-55.72-55.62-55.72h-30.113c-9.156,5.746-19.068,10.019-29.412,12.749
	c-0.358,0.095-0.717,0.189-1.077,0.281c-0.559,0.141-1.119,0.279-1.68,0.412c-0.496,0.117-0.994,0.228-1.493,0.338
	c-0.469,0.104-0.936,0.21-1.407,0.308c-0.946,0.196-1.897,0.38-2.852,0.55c-0.301,0.053-0.603,0.099-0.904,0.15
	c-0.736,0.125-1.474,0.244-2.215,0.354c-0.359,0.053-0.719,0.102-1.08,0.152c-0.711,0.098-1.425,0.188-2.141,0.272
	c-0.337,0.04-0.674,0.08-1.012,0.116c-0.871,0.094-1.746,0.176-2.624,0.248c-0.168,0.014-0.335,0.032-0.502,0.045
	c-1.047,0.082-2.097,0.146-3.152,0.197c-0.068,0.003-0.136,0.01-0.205,0.013v191.027c0,2.761-2.239,5-5,5s-5-2.239-5-5V283.632
	V79.214c0-2.761,2.239-5,5-5c59.022,0,107.041,48.094,107.041,107.209C372.184,213.685,357.881,242.662,335.295,262.333z
	 M270.143,84.342V227.29h23.397c2.761,0,5,2.239,5,5s-2.239,5-5,5h-23.397v41.199c0.533-0.027,1.067-0.05,1.599-0.086
	c0.18-0.012,0.361-0.021,0.541-0.034c1.027-0.075,2.051-0.168,3.072-0.275c0.237-0.025,0.472-0.053,0.708-0.08
	c0.841-0.095,1.679-0.2,2.516-0.317c0.237-0.033,0.475-0.063,0.712-0.098c0.978-0.143,1.952-0.302,2.923-0.475
	c0.29-0.052,0.579-0.109,0.868-0.163c0.709-0.133,1.416-0.275,2.122-0.423c0.358-0.076,0.717-0.149,1.073-0.229
	c0.865-0.193,1.727-0.397,2.586-0.613c0.464-0.117,0.925-0.243,1.386-0.367c0.448-0.12,0.895-0.243,1.341-0.369
	c0.548-0.156,1.095-0.312,1.639-0.477c0.121-0.037,0.241-0.077,0.362-0.114c1.313-0.404,2.616-0.834,3.905-1.292
	c0.083-0.03,0.167-0.059,0.25-0.089c37.52-13.445,64.437-49.415,64.437-91.565C362.184,129.5,321.339,86.955,270.143,84.342z
	 M82.369,479.543V328.052c0-36.238,29.437-65.72,65.62-65.72h16.716c-22.586-19.671-36.889-48.648-36.889-80.909
	c0-59.115,48.019-107.209,107.041-107.209c2.761,0,5,2.239,5,5v204.418v195.911c0,2.761-2.239,5-5,5s-5-2.239-5-5V288.517
	c-0.068-0.003-0.136-0.01-0.205-0.013c-1.055-0.051-2.106-0.115-3.152-0.197c-0.168-0.013-0.335-0.031-0.502-0.045
	c-0.878-0.073-1.752-0.155-2.624-0.248c-0.338-0.036-0.674-0.077-1.012-0.116c-0.716-0.084-1.43-0.174-2.141-0.272
	c-0.36-0.05-0.72-0.099-1.08-0.152c-0.741-0.11-1.479-0.229-2.215-0.354c-0.301-0.051-0.603-0.097-0.904-0.15
	c-0.955-0.171-1.906-0.354-2.852-0.55c-0.47-0.097-0.938-0.204-1.407-0.308c-0.499-0.11-0.997-0.221-1.493-0.338
	c-0.561-0.132-1.121-0.27-1.68-0.412c-0.36-0.091-0.719-0.186-1.077-0.281c-10.345-2.731-20.256-7.003-29.412-12.749h-30.113
	c-30.669,0-55.62,24.996-55.62,55.72v30.729h42.594v-34.5c0-2.761,2.239-5,5-5s5,2.239,5,5v155.262c0,2.761-2.239,5-5,5
	s-5-2.239-5-5V368.781H92.369v110.763c0,2.761-2.239,5-5,5S82.369,482.305,82.369,479.543z M202.254,272.988
	c0.083,0.03,0.167,0.059,0.25,0.089c1.289,0.458,2.591,0.888,3.905,1.292c0.121,0.037,0.241,0.077,0.362,0.114
	c0.544,0.165,1.091,0.321,1.639,0.477c0.446,0.126,0.893,0.249,1.341,0.369c0.461,0.124,0.922,0.25,1.386,0.367
	c0.859,0.216,1.721,0.42,2.586,0.613c0.357,0.08,0.715,0.153,1.073,0.229c0.705,0.149,1.412,0.291,2.122,0.423
	c0.289,0.054,0.578,0.112,0.868,0.163c0.971,0.173,1.946,0.332,2.923,0.475c0.237,0.035,0.475,0.065,0.712,0.098
	c0.837,0.116,1.675,0.222,2.516,0.317c0.236,0.027,0.471,0.055,0.708,0.08c1.021,0.107,2.045,0.2,3.072,0.275
	c0.18,0.013,0.361,0.022,0.541,0.034c0.532,0.036,1.066,0.059,1.599,0.086V237.29H206.46c-2.761,0-5-2.239-5-5s2.239-5,5-5h23.397
	V84.342c-51.196,2.613-92.041,45.159-92.041,97.082C137.817,223.574,164.734,259.543,202.254,272.988z M439.108,490H60.893
	c-2.761,0-5,2.239-5,5s2.239,5,5,5h378.216c2.761,0,5-2.239,5-5S441.87,490,439.108,490z M42.479,490h-3.813c-2.761,0-5,2.239-5,5
	s2.239,5,5,5h3.813c2.761,0,5-2.239,5-5S45.24,490,42.479,490z M461.336,490h-3.813c-2.761,0-5,2.239-5,5s2.239,5,5,5h3.813
	c2.761,0,5-2.239,5-5S464.097,490,461.336,490z M190.3,170.3c7.873,0,15.192-3.545,20.082-9.726c1.713-2.166,1.346-5.31-0.819-7.023
	c-2.165-1.713-5.31-1.346-7.023,0.819c-2.981,3.769-7.442,5.93-12.239,5.93s-9.257-2.162-12.239-5.93
	c-1.713-2.166-4.858-2.531-7.023-0.819c-2.166,1.713-2.533,4.858-0.819,7.023C175.108,166.755,182.428,170.3,190.3,170.3z
	 M309.701,170.3c7.873,0,15.192-3.545,20.082-9.726c1.713-2.166,1.346-5.31-0.819-7.023c-2.165-1.713-5.31-1.346-7.023,0.819
	c-2.981,3.769-7.442,5.93-12.239,5.93s-9.257-2.162-12.239-5.93c-1.713-2.166-4.858-2.531-7.023-0.819
	c-2.166,1.713-2.533,4.858-0.819,7.023C294.509,166.755,301.828,170.3,309.701,170.3z"/>
</svg>
