<?xml version="1.0" encoding="utf-8"?>
<!-- Generator: Adobe Illustrator 23.0.0, SVG Export Plug-In . SVG Version: 6.00 Build 0)  -->
<svg version="1.1" id="Layer_1" xmlns="http://www.w3.org/2000/svg" xmlns:xlink="http://www.w3.org/1999/xlink" x="0px" y="0px"
	 viewBox="0 0 500 500" style="enable-background:new 0 0 500 500;" xml:space="preserve">
<style type="text/css">
	.st0{fill:#83E1E5;}
	.st1{fill:#AAB1BA;}
	.st2{fill:#FDDF7F;}
	.st3{fill:#ECF4F7;}
	.st4{fill:#1C1D21;}
</style>
<g>
	<path class="st2" d="M198.912,79.215c-56.648,0-102.57,45.922-102.57,102.569c0,52.988,40.182,96.589,91.737,102.001v10.803
		c0,3.83-1.84,7.428-4.946,9.669l-88.035,63.541v-19.936H41.701v79.146c0,8.583,6.947,15.541,15.515,15.541h10.781l164.406-121.322
		c7.98-5.89,12.69-15.218,12.69-25.136v-22.704c33.449-16.896,56.388-51.569,56.388-91.604
		C301.482,125.137,255.56,79.215,198.912,79.215z"/>
</g>
<g>
	<path class="st0" d="M295.504,267.332h-39.997c-0.181,0.12-0.367,0.231-0.549,0.35c-0.592,0.387-1.188,0.766-1.788,1.141
		c-0.416,0.26-0.832,0.52-1.252,0.773c-0.603,0.364-1.211,0.72-1.822,1.072c-0.43,0.248-0.858,0.496-1.292,0.738
		c-0.61,0.34-1.226,0.67-1.843,0.998c-0.445,0.236-0.889,0.475-1.338,0.705c-0.177,0.091-0.351,0.188-0.528,0.278v22.704
		c0,9.918-4.71,19.246-12.69,25.136L67.998,442.55v31.698c0,11.461,9.291,20.752,20.752,20.752h267.374V328.053
		C356.124,294.518,328.984,267.332,295.504,267.332z"/>
</g>
<g>
	<path class="st0" d="M95.099,347.862v19.936l88.035-63.541c3.106-2.241,4.946-5.839,4.946-9.669v-10.803
		c-0.129-0.014-0.257-0.031-0.386-0.045c-0.33-0.036-0.658-0.076-0.987-0.115c-0.89-0.105-1.777-0.222-2.661-0.351
		c-0.23-0.033-0.461-0.063-0.691-0.097c-1.046-0.159-2.086-0.339-3.121-0.529c-0.307-0.057-0.614-0.115-0.921-0.175
		c-1.051-0.203-2.098-0.417-3.137-0.652c-0.13-0.029-0.259-0.063-0.389-0.093c-0.973-0.225-1.939-0.465-2.901-0.716
		c-0.249-0.065-0.498-0.13-0.746-0.196c-1.046-0.282-2.086-0.579-3.118-0.893c-0.174-0.053-0.346-0.109-0.52-0.163
		c-0.969-0.301-1.932-0.614-2.888-0.942c-0.143-0.05-0.287-0.097-0.43-0.146c-1.054-0.366-2.1-0.752-3.139-1.152
		c-0.163-0.063-0.325-0.127-0.488-0.19c-2.136-0.836-4.236-1.741-6.299-2.713c-0.124-0.058-0.248-0.116-0.371-0.175
		c-2.116-1.008-4.192-2.085-6.226-3.229c-0.06-0.034-0.12-0.067-0.179-0.101c-1.029-0.582-2.047-1.181-3.053-1.797
		c-0.03-0.019-0.06-0.037-0.09-0.056c-1.019-0.626-2.028-1.267-3.023-1.927h-39.995c-33.479,0-60.62,27.186-60.62,60.721v19.81h0
		H95.099z"/>
</g>
<g>
	<path class="st1" d="M188.079,262.193v-36.422c0-4.265,3.457-7.721,7.721-7.721h12.255c4.264,0,7.721,3.456,7.721,7.721v35.782
		h0.905c18.753-6.376,32.25-24.121,32.25-45.03c0-26.271-21.296-47.566-47.565-47.566c-26.27,0-47.565,21.296-47.565,47.566
		C153.801,238.179,168.279,256.441,188.079,262.193z"/>
</g>
<g>
	<path class="st0" d="M452.081,286.844h-18.183v-37.476c0-18.14-14.705-32.845-32.845-32.845h-82.288v24.234h82.287
		c4.756,0,8.611,3.855,8.611,8.612v37.475h-18.188c-4.946,0-7.906,5.5-5.182,9.628l30.807,46.685c2.215,3.357,7.139,3.357,9.354,0
		l30.807-46.685C459.987,292.344,457.027,286.844,452.081,286.844z"/>
</g>
<g>
	<path class="st3" d="M243.867,195.189c-7.82-15.552-23.906-26.232-42.501-26.232s-34.68,10.68-42.501,26.232H243.867z"/>
</g>
<g>
	<g>
		<rect x="302.726" y="347.862" class="st2" width="53.398" height="147.138"/>
	</g>
</g>
<g>
	<g>
		<path class="st1" d="M188.079,262.193v-36.422c0-4.265,3.457-7.721,7.721-7.721h12.255c4.264,0,7.721,3.456,7.721,7.721v35.782
			h0.905c18.753-6.376,32.25-24.121,32.25-45.03c0-26.271-21.296-47.566-47.565-47.566c-26.27,0-47.565,21.296-47.565,47.566
			C153.801,238.179,168.279,256.441,188.079,262.193z"/>
	</g>
	<g>
		<path class="st3" d="M243.867,195.189c-7.82-15.552-23.906-26.232-42.501-26.232s-34.68,10.68-42.501,26.232H243.867z"/>
	</g>
</g>
<path class="st4" d="M232.543,16.534c0-2.762,2.239-5,5-5h6.535V5c0-2.762,2.239-5,5-5s5,2.238,5,5v6.534h6.535c2.761,0,5,2.238,5,5
	s-2.239,5-5,5h-6.535v6.535c0,2.762-2.239,5-5,5s-5-2.238-5-5v-6.535h-6.535C234.782,21.534,232.543,19.296,232.543,16.534z
	 M187.377,21.534h6.535v6.535c0,2.762,2.239,5,5,5s5-2.238,5-5v-6.535h6.535c2.761,0,5-2.238,5-5s-2.239-5-5-5h-6.535V5
	c0-2.762-2.239-5-5-5s-5,2.238-5,5v6.534h-6.535c-2.761,0-5,2.238-5,5S184.616,21.534,187.377,21.534z M137.212,21.534h6.534v6.535
	c0,2.762,2.239,5,5,5s5-2.238,5-5v-6.535h6.535c2.761,0,5-2.238,5-5s-2.239-5-5-5h-6.535V5c0-2.762-2.239-5-5-5s-5,2.238-5,5v6.534
	h-6.534c-2.761,0-5,2.238-5,5S134.451,21.534,137.212,21.534z M180.443,139.186c-2.166-1.713-5.31-1.347-7.023,0.818
	c-2.376,3.003-5.93,4.725-9.751,4.725s-7.375-1.722-9.751-4.725c-1.713-2.165-4.858-2.531-7.023-0.818
	c-2.166,1.714-2.532,4.858-0.818,7.023c4.284,5.414,10.697,8.52,17.593,8.52s13.309-3.105,17.593-8.52
	C182.975,144.044,182.608,140.899,180.443,139.186z M255.84,139.186c-2.166-1.713-5.31-1.347-7.023,0.818
	c-2.376,3.003-5.93,4.725-9.751,4.725c-3.822,0-7.376-1.722-9.751-4.725c-1.714-2.165-4.857-2.531-7.024-0.818
	c-2.166,1.713-2.532,4.857-0.819,7.023c4.284,5.414,10.696,8.52,17.594,8.52c6.896,0,13.309-3.105,17.593-8.52
	C258.372,144.044,258.006,140.899,255.84,139.186z M149.996,128.535c0.559,0,1.126-0.094,1.682-0.292l27.345-9.769
	c2.601-0.93,3.956-3.791,3.026-6.391c-0.929-2.602-3.791-3.952-6.391-3.027l-27.345,9.769c-2.601,0.93-3.956,3.791-3.026,6.391
	C146.018,127.261,147.942,128.535,149.996,128.535z M223.711,118.475l27.345,9.769c0.556,0.198,1.124,0.292,1.682,0.292
	c2.053,0,3.978-1.274,4.708-3.319c0.929-2.6-0.426-5.461-3.026-6.391l-27.345-9.769c-2.6-0.927-5.461,0.426-6.391,3.027
	C219.755,114.684,221.11,117.545,223.711,118.475z M461.951,287.74c-1.958-3.638-5.739-5.896-9.87-5.896h-13.183v-32.476
	c0-20.867-16.977-37.845-37.845-37.845h-82.288c-2.761,0-5,2.238-5,5s2.239,5,5,5h82.288c15.354,0,27.845,12.491,27.845,27.845
	v37.476c0,2.762,2.239,5,5,5h18.183c0.597,0,0.908,0.346,1.064,0.636s0.273,0.741-0.056,1.239l-30.808,46.685
	c-0.044,0.067-0.179,0.271-0.504,0.271c-0.325,0-0.459-0.204-0.503-0.271l-30.807-46.685c-0.329-0.498-0.212-0.949-0.056-1.239
	s0.467-0.636,1.064-0.636h18.188c2.761,0,5-2.238,5-5v-37.475c0-7.506-6.106-13.612-13.611-13.612h-82.288c-2.761,0-5,2.238-5,5
	s2.239,5,5,5h82.288c1.991,0,3.611,1.62,3.611,3.612v32.475h-13.188c-4.13,0-7.912,2.259-9.87,5.896
	c-1.958,3.637-1.761,8.038,0.514,11.486l30.807,46.685c1.968,2.982,5.277,4.764,8.85,4.764c3.574,0,6.882-1.781,8.851-4.764
	l30.808-46.685C463.711,295.778,463.909,291.377,461.951,287.74z M440.836,490h-3.813c-2.761,0-5,2.238-5,5s2.239,5,5,5h3.813
	c2.761,0,5-2.238,5-5S443.597,490,440.836,490z M424.863,495c0,2.762-2.239,5-5,5H88.75c-14.2,0-25.752-11.553-25.752-25.752V447.55
	h-5.781c-11.313,0-20.516-9.215-20.516-20.541v-98.956c0-36.238,29.437-65.72,65.62-65.72h25.334
	c-2.958-2.62-5.802-5.392-8.483-8.351c-17.946-19.808-27.83-45.448-27.83-72.198c0-59.313,48.256-107.569,107.57-107.569
	s107.57,48.256,107.57,107.569c0,31.413-13.423,60.437-36.219,80.549h25.241c36.183,0,65.62,29.481,65.62,65.72v148.605
	c0,2.762-2.239,5-5,5s-5-2.238-5-5V352.862h-43.398v123.796c0,2.762-2.239,5-5,5s-5-2.238-5-5V308.362c0-2.762,2.239-5,5-5
	s5,2.238,5,5v34.5h43.398v-14.81c0-30.724-24.951-55.72-55.62-55.72h-38.49c-2.242,1.435-4.552,2.79-6.919,4.07v19.688
	c0,11.455-5.503,22.356-14.721,29.159L72.998,445.074v29.174c0,8.686,7.066,15.752,15.752,15.752h331.113
	C422.624,490,424.863,492.238,424.863,495z M144.376,262.787c0.464,0.211,0.884,0.495,1.259,0.831
	c11.071,7.196,23.731,12.235,37.444,14.458v-12.282c-20.359-7.57-34.278-27.308-34.278-49.271c0-8.434,2.008-16.402,5.552-23.473
	c0.017-0.035,0.028-0.072,0.045-0.107c0.136-0.271,0.281-0.534,0.421-0.802c0.141-0.269,0.277-0.54,0.423-0.806
	c0.363-0.664,0.741-1.316,1.129-1.961c0.047-0.078,0.096-0.155,0.144-0.233c8.116-13.333,21.537-22.234,36.8-24.567
	c0.033-0.005,0.065-0.011,0.098-0.016c0.853-0.129,1.711-0.241,2.576-0.328c0.017-0.002,0.035-0.003,0.053-0.005
	c0.769-0.077,1.543-0.133,2.32-0.177c0.193-0.011,0.385-0.021,0.578-0.03c0.806-0.036,1.614-0.062,2.427-0.062
	s1.621,0.025,2.427,0.062c0.193,0.009,0.386,0.02,0.578,0.03c0.778,0.044,1.554,0.1,2.324,0.178
	c0.016,0.001,0.032,0.002,0.047,0.004c0.865,0.087,1.724,0.199,2.578,0.328c0.032,0.005,0.064,0.011,0.095,0.016
	c15.264,2.332,28.685,11.234,36.802,24.568c0.048,0.078,0.096,0.154,0.143,0.232c0.388,0.645,0.766,1.296,1.129,1.961
	c0.146,0.266,0.282,0.538,0.424,0.807c0.14,0.268,0.284,0.531,0.42,0.801c0.018,0.035,0.029,0.072,0.045,0.107
	c3.545,7.07,5.552,15.039,5.552,23.473c0,15.795-7.055,30.344-18.621,40.129c0.053,0.006,0.104,0.018,0.157,0.023
	c0.393,0.046,0.78,0.105,1.164,0.179c0.111,0.021,0.224,0.038,0.334,0.061c0.475,0.101,0.943,0.222,1.402,0.362
	c0.104,0.031,0.206,0.069,0.309,0.104c0.366,0.12,0.727,0.252,1.081,0.396c0.128,0.052,0.255,0.104,0.381,0.158
	c0.419,0.184,0.831,0.378,1.23,0.594c0.02,0.012,0.042,0.021,0.062,0.031c0.417,0.227,0.818,0.477,1.212,0.737
	c0.113,0.075,0.224,0.153,0.335,0.23c0.304,0.213,0.601,0.435,0.89,0.666c0.09,0.072,0.183,0.142,0.272,0.216
	c0.359,0.3,0.705,0.613,1.036,0.942c0.075,0.073,0.144,0.152,0.218,0.228c0.263,0.27,0.516,0.548,0.76,0.836
	c0.09,0.105,0.179,0.211,0.266,0.318c0.275,0.341,0.54,0.69,0.788,1.053c0.02,0.03,0.043,0.059,0.064,0.088
	c0.264,0.392,0.506,0.797,0.736,1.211c0.065,0.117,0.127,0.236,0.189,0.355c0.076,0.146,0.159,0.286,0.23,0.434
	c1.448-0.852,2.861-1.746,4.253-2.663c0.025-0.018,0.05-0.033,0.076-0.05c27.223-17.959,43.725-48.2,43.725-81.378
	c0-53.8-43.77-97.569-97.57-97.569s-97.57,43.77-97.57,97.569C101.342,215.393,118.24,245.212,144.376,262.787z M220.777,225.771
	v28.635c14.065-7.195,23.155-21.739,23.155-37.883c0-5.785-1.164-11.301-3.264-16.334h-78.603
	c-2.099,5.033-3.264,10.549-3.264,16.334c0,16.506,9.705,31.464,24.278,38.43v-29.182c0-1.315,0.201-2.584,0.573-3.778
	c0.248-0.797,0.573-1.56,0.965-2.28c0.196-0.36,0.409-0.711,0.638-1.049c2.288-3.385,6.161-5.613,10.545-5.613h0h12.255
	C215.07,213.051,220.777,218.757,220.777,225.771z M234.772,190.189c-5.648-7.149-13.53-12.454-22.59-14.836
	c-0.11-0.028-0.22-0.059-0.33-0.087c-0.528-0.134-1.061-0.255-1.597-0.369c-0.242-0.051-0.485-0.101-0.729-0.147
	c-0.452-0.088-0.905-0.17-1.362-0.243c-0.347-0.056-0.695-0.104-1.044-0.15c-0.383-0.052-0.766-0.104-1.152-0.146
	c-0.46-0.05-0.923-0.085-1.386-0.119c-0.296-0.022-0.589-0.052-0.886-0.067c-0.773-0.042-1.549-0.066-2.329-0.066
	c-0.781,0-1.557,0.024-2.329,0.066c-0.298,0.016-0.592,0.045-0.888,0.067c-0.463,0.035-0.925,0.069-1.384,0.119
	c-0.387,0.042-0.77,0.095-1.154,0.146c-0.348,0.047-0.696,0.095-1.042,0.149c-0.458,0.074-0.912,0.156-1.365,0.245
	c-0.242,0.047-0.484,0.096-0.724,0.146c-0.537,0.114-1.072,0.235-1.601,0.37c-0.108,0.027-0.216,0.057-0.324,0.085
	c-9.062,2.382-16.945,7.687-22.593,14.837H234.772z M46.701,342.862h43.398v-34.5c0-2.762,2.239-5,5-5s5,2.238,5,5v49.66
	l80.108-57.82c1.799-1.298,2.872-3.396,2.872-5.614v-6.404c-15.131-2.235-29.494-7.672-42.228-15.851h-38.531
	c-30.669,0-55.62,24.996-55.62,55.72V342.862z M229.436,317.204c6.674-4.925,10.659-12.818,10.659-21.112v-22.704v-0.276
	c0-3.616-2.941-6.558-6.557-6.558h-16.855h-0.905c-2.761,0-5-2.238-5-5v-35.782c0-1.5-1.221-2.721-2.721-2.721h-12.255
	c-1.125,0-2.093,0.687-2.507,1.663c-0.138,0.325-0.214,0.683-0.214,1.058v36.422v21.592v10.803c0,5.422-2.625,10.552-7.02,13.724
	l-88.034,63.541c-1.523,1.097-3.533,1.252-5.203,0.396c-1.671-0.854-2.723-2.574-2.723-4.451v-14.936H46.701v74.146
	c0,5.813,4.717,10.541,10.516,10.541h9.136L229.436,317.204z"/>
</svg>
