<?xml version="1.0" encoding="utf-8"?>
<!-- Generator: Adobe Illustrator 23.0.0, SVG Export Plug-In . SVG Version: 6.00 Build 0)  -->
<svg version="1.1" id="Layer_1" xmlns="http://www.w3.org/2000/svg" xmlns:xlink="http://www.w3.org/1999/xlink" x="0px" y="0px"
	 viewBox="0 0 500 500" style="enable-background:new 0 0 500 500;" xml:space="preserve">
<style type="text/css">
	.st0{fill:#83E1E5;}
	.st1{fill:#FDDF7F;}
	.st2{fill:#ECF4F7;}
	.st3{fill:#1C1D21;}
</style>
<g>
	<path class="st0" d="M298.914,294.117l-12.564-17.166c6.68-2.553,13.026-5.786,18.948-9.618h41.293
		c33.479,0,60.62,27.185,60.62,60.72V495H119.085v-52.45l177.097-130.687C301.835,307.725,303.059,299.78,298.914,294.117z"/>
</g>
<g>
	<path class="st1" d="M352.041,181.423c0-56.449-45.686-102.209-102.041-102.209s-102.041,45.76-102.041,102.209
		c0,44.721,28.677,82.727,68.614,96.592l-19.116,13.991c-9.22,6.748-11.224,19.692-4.476,28.913l1.362,1.862
		c2.615,3.572,1.838,8.588-1.734,11.202l-46.421,33.815v-19.935H92.788v79.146c0,8.583,6.947,15.542,15.515,15.542h10.782
		l177.096-130.687c5.653-4.138,6.877-12.082,2.733-17.746l-12.565-17.168C324.755,262.278,352.041,225.045,352.041,181.423z"/>
</g>
<g>
	<path class="st0" d="M153.408,267.332h41.293c6.781,4.388,14.119,7.985,21.878,10.679l-19.122,13.995
		c-9.22,6.748-11.224,19.692-4.476,28.913l1.362,1.862c2.614,3.572,1.838,8.588-1.734,11.202l-46.421,33.815v-19.935H92.788v-19.81
		C92.788,294.518,119.929,267.332,153.408,267.332z"/>
</g>
<g>
	<g>
		<rect x="353.813" y="347.862" class="st1" width="53.398" height="147.137"/>
	</g>
</g>
<g>
	<path class="st2" d="M217.79,221.566h67.935c4.852,0,8.786-3.934,8.786-8.786v-2.929c0-11.053-8.96-20.013-20.013-20.013h-45.482
		c-11.053,0-20.013,8.96-20.013,20.013v2.929C209.003,217.632,212.937,221.566,217.79,221.566z"/>
</g>
<path class="st3" d="M233.465,16.535c0-2.761,2.239-5,5-5H245V5c0-2.761,2.239-5,5-5c2.762,0,5,2.239,5,5v6.535h6.534
	c2.762,0,5,2.239,5,5c0,2.761-2.238,5-5,5H255v6.534c0,2.761-2.238,5-5,5c-2.761,0-5-2.239-5-5v-6.534h-6.535
	C235.704,21.535,233.465,19.296,233.465,16.535z M162.337,21.535h6.535v6.534c0,2.761,2.239,5,5,5s5-2.239,5-5v-6.534h6.535
	c2.761,0,5-2.239,5-5c0-2.761-2.239-5-5-5h-6.535V5c0-2.761-2.239-5-5-5s-5,2.239-5,5v6.535h-6.535c-2.761,0-5,2.239-5,5
	C157.337,19.296,159.576,21.535,162.337,21.535z M314.594,21.535h6.535v6.534c0,2.761,2.238,5,5,5c2.762,0,5-2.239,5-5v-6.534h6.534
	c2.762,0,5-2.239,5-5c0-2.761-2.238-5-5-5h-6.534V5c0-2.761-2.238-5-5-5c-2.762,0-5,2.239-5,5v6.535h-6.535c-2.762,0-5,2.239-5,5
	C309.594,19.296,311.832,21.535,314.594,21.535z M87.789,427.009v-98.957c0-36.238,29.437-65.72,65.62-65.72h26.365
	c-22.891-19.963-36.814-49.243-36.814-80.909c0-59.115,48.018-107.209,107.041-107.209s107.041,48.094,107.041,107.209
	c0,22.152-6.69,43.414-19.349,61.487c-5.062,7.228-10.934,13.725-17.465,19.421h26.364c36.183,0,65.62,29.482,65.62,65.72v148.606
	c0,2.762-2.238,5-5,5c-2.762,0-5-2.238-5-5V352.862h-43.398v123.796c0,2.762-2.238,5-5,5c-2.762,0-5-2.238-5-5V308.362
	c0-2.762,2.238-5,5-5c2.762,0,5,2.238,5,5v34.5h43.398v-14.811c0-30.724-24.951-55.72-55.62-55.72H306.76
	c-4.041,2.531-8.261,4.79-12.638,6.772l8.827,12.06c5.766,7.879,4.055,18.975-3.814,24.734L124.085,445.074v31.584
	c0,2.762-2.239,5-5,5c-2.761,0-5-2.238-5-5V447.55h-5.782C96.992,447.55,87.789,438.335,87.789,427.009z M294.879,297.07
	l-12.563-17.166c0-0.001-0.001-0.001-0.002-0.002l-3.227-4.409c-0.941-1.286-2.208-2.195-3.603-2.698
	c-2.103-0.757-4.498-0.589-6.518,0.603c-0.215,0.127-0.426,0.265-0.632,0.415l-15.289,11.19l-26.943,19.719
	c-0.89,0.651-1.924,0.965-2.949,0.965c-1.54,0-3.059-0.709-4.039-2.047c-1.631-2.228-1.146-5.357,1.082-6.988l22.909-16.766
	l-2.398-3.277c-0.164-0.224-0.338-0.438-0.52-0.64c-0.022-0.024-0.046-0.045-0.068-0.069c-2.199-2.386-5.593-3.198-8.582-2.181
	c-0.005,0.002-0.011,0.003-0.016,0.005c-0.205,0.07-0.406,0.155-0.607,0.242c-0.049,0.021-0.099,0.038-0.147,0.06
	c-0.153,0.07-0.302,0.155-0.452,0.235c-0.091,0.049-0.184,0.091-0.273,0.144c-0.085,0.05-0.166,0.11-0.249,0.164
	c-0.145,0.093-0.291,0.182-0.431,0.284l-28.951,21.188c-6.98,5.108-8.503,14.944-3.395,21.925l1.362,1.861
	c2.054,2.806,2.892,6.242,2.359,9.679c-0.532,3.436-2.37,6.459-5.176,8.512l-46.43,33.821c-1.52,1.11-3.533,1.268-5.211,0.415
	c-1.677-0.853-2.733-2.575-2.733-4.456v-14.936H97.789v74.146c0,5.813,4.717,10.541,10.515,10.541h9.137l175.772-129.71
	C296.648,305.325,297.389,300.499,294.879,297.07z M215.77,272.406l7.684-5.624c0.451-0.33,0.915-0.631,1.386-0.913
	c0.158-0.095,0.321-0.179,0.481-0.269c0.31-0.173,0.621-0.341,0.937-0.494c0.215-0.105,0.431-0.202,0.65-0.298
	c0.262-0.115,0.526-0.222,0.792-0.323c0.254-0.097,0.508-0.194,0.765-0.279c0.217-0.072,0.437-0.131,0.655-0.195
	c1.065-0.309,2.155-0.518,3.263-0.625c0.172-0.017,0.344-0.036,0.516-0.047c0.328-0.022,0.656-0.034,0.986-0.038
	c0.082-0.001,0.164-0.009,0.245-0.009c0.171,0,0.341,0.01,0.512,0.015c0.306,0.009,0.611,0.024,0.918,0.048
	c0.329,0.026,0.657,0.06,0.985,0.104c0.127,0.017,0.254,0.02,0.381,0.04c0.082,0.013,0.161,0.036,0.243,0.05
	c0.413,0.069,0.823,0.154,1.23,0.252c0.223,0.053,0.444,0.113,0.664,0.175c0.29,0.081,0.577,0.171,0.862,0.267
	c0.324,0.108,0.643,0.226,0.96,0.352c0.227,0.09,0.451,0.185,0.675,0.284c0.275,0.123,0.548,0.25,0.816,0.386
	c0.302,0.153,0.601,0.315,0.896,0.486c0.204,0.119,0.404,0.241,0.603,0.368c0.318,0.202,0.63,0.412,0.936,0.634
	c0.169,0.123,0.334,0.252,0.498,0.381c0.29,0.226,0.573,0.462,0.85,0.708c0.112,0.1,0.226,0.196,0.336,0.299
	c0.357,0.332,0.7,0.682,1.033,1.047c0.084,0.092,0.165,0.186,0.247,0.28c0.347,0.396,0.685,0.804,1.001,1.237l2.399,3.277
	l11.254-8.237c7.869-5.759,18.963-4.033,24.729,3.844l0.927,1.267c35.417-15.172,58.957-50.634,58.957-89.43
	c0-53.601-43.532-97.209-97.041-97.209s-97.041,43.608-97.041,97.209C152.959,221.954,178.091,258.189,215.77,272.406z
	 M97.789,328.052v14.811h43.398v-34.5c0-2.762,2.239-5,5-5s5,2.238,5,5v49.607l38.477-28.028c0.641-0.47,1.067-1.17,1.19-1.966
	c0.123-0.796-0.071-1.592-0.547-2.242l-1.362-1.861c-8.365-11.431-5.872-27.536,5.558-35.901l11.827-8.656
	c-4.554-2.037-8.918-4.375-13.079-6.983h-39.843C122.739,272.332,97.789,297.328,97.789,328.052z M304.474,145.503
	c-2.165-1.714-5.311-1.347-7.023,0.818c-2.376,3.003-5.931,4.725-9.752,4.725c-3.821,0-7.375-1.722-9.751-4.725
	c-1.713-2.166-4.86-2.531-7.023-0.818c-2.165,1.713-2.532,4.858-0.818,7.023c4.284,5.415,10.696,8.52,17.593,8.52
	c6.898,0,13.31-3.105,17.594-8.52C307.006,150.361,306.639,147.216,304.474,145.503z M229.895,152.526
	c1.713-2.165,1.346-5.31-0.819-7.023c-2.166-1.713-5.31-1.346-7.023,0.819c-2.375,3.002-5.929,4.725-9.751,4.725
	c-3.821,0-7.376-1.722-9.751-4.725c-1.713-2.165-4.856-2.531-7.024-0.818c-2.166,1.713-2.532,4.858-0.819,7.023
	c4.284,5.415,10.697,8.52,17.594,8.52C219.199,161.046,225.611,157.941,229.895,152.526z M229.017,184.838h45.481
	c13.792,0,25.013,11.221,25.013,25.013v2.929c0,7.602-6.184,13.786-13.786,13.786H217.79c-7.602,0-13.786-6.184-13.786-13.786
	v-2.929C204.003,196.059,215.224,184.838,229.017,184.838z M274.498,194.838h-45.481c-8.278,0-15.013,6.735-15.013,15.013v2.929
	c0,2.088,1.698,3.786,3.786,3.786h67.935c2.088,0,3.786-1.698,3.786-3.786v-2.929C289.511,201.573,282.776,194.838,274.498,194.838z
	 M272.344,124.791l27.345,9.769c0.557,0.199,1.124,0.293,1.683,0.293c2.053,0,3.978-1.275,4.709-3.319
	c0.929-2.601-0.427-5.461-3.026-6.391l-27.345-9.769c-2.603-0.929-5.463,0.425-6.392,3.026
	C268.389,121.002,269.744,123.862,272.344,124.791z M198.629,134.854c0.559,0,1.127-0.094,1.682-0.293l27.345-9.769
	c2.6-0.929,3.956-3.79,3.026-6.391c-0.929-2.601-3.793-3.954-6.391-3.026l-27.345,9.769c-2.601,0.929-3.956,3.79-3.026,6.391
	C194.651,133.579,196.576,134.854,198.629,134.854z M440.835,490h-3.813c-2.762,0-5,2.238-5,5s2.238,5,5,5h3.813
	c2.762,0,5-2.238,5-5S443.597,490,440.835,490z M419.862,490H80.138c-2.761,0-5,2.238-5,5s2.239,5,5,5h339.725c2.762,0,5-2.238,5-5
	S422.624,490,419.862,490z M62.978,490h-3.813c-2.761,0-5,2.238-5,5s2.239,5,5,5h3.813c2.761,0,5-2.238,5-5S65.739,490,62.978,490z"
	/>
</svg>
