<?xml version="1.0" encoding="utf-8"?>
<!-- Generator: Adobe Illustrator 23.0.0, SVG Export Plug-In . SVG Version: 6.00 Build 0)  -->
<svg version="1.1" id="Layer_1" xmlns="http://www.w3.org/2000/svg" xmlns:xlink="http://www.w3.org/1999/xlink" x="0px" y="0px"
	 viewBox="0 0 500 500" style="enable-background:new 0 0 500 500;" xml:space="preserve">
<style type="text/css">
	.st0{fill:#83E1E5;}
	.st1{fill:#AAB1BA;}
	.st2{fill:#FDDF7F;}
	.st3{fill:#ECF4F7;}
	.st4{fill:#1C1D21;}
</style>
<g>
	<path class="st2" d="M210.931,188.462c-7.043,0-12.753-5.71-12.753-12.753s5.71-12.753,12.753-12.753H351.01
		c-8.173-48.481-50.282-85.412-101.01-85.412c-28.804,0-54.827,11.911-73.441,31.079h75.772c7.043,0,12.753,5.71,12.753,12.753l0,0
		c0,7.043-5.71,12.753-12.753,12.753h-93.913c-6.95,13.846-10.869,29.48-10.869,46.034c0,13.407,2.57,26.212,7.239,37.952h134.039
		c7.043,0,12.753,5.71,12.753,12.753l0,0c0,7.044-5.71,12.753-12.753,12.753H169.482c18.76,23.85,47.853,39.162,80.518,39.162
		c53.792,0,97.898-41.527,102.117-94.321H210.931z"/>
</g>
<g>
	<g>
		<path class="st0" d="M337.218,266.418h-31.697c-15.998,10.353-35.058,16.365-55.521,16.365c-20.463,0-39.523-6.013-55.521-16.365
			h-31.697c-33.614,0-60.864,27.295-60.864,60.964V495H250h148.081V327.382C398.081,293.713,370.832,266.418,337.218,266.418z"/>
	</g>
</g>
<g>
	<g>
		<rect x="101.919" y="363.254" class="st2" width="52.805" height="131.746"/>
	</g>
</g>
<g>
	<g>
		<rect x="345.276" y="363.254" class="st2" width="52.805" height="131.746"/>
	</g>
</g>
<g>
	<path class="st3" d="M252.331,134.129H113.548v-25.506h138.783c7.043,0,12.753,5.71,12.753,12.753v0
		C265.084,128.419,259.375,134.129,252.331,134.129z"/>
</g>
<g>
	<path class="st3" d="M210.931,162.956h168.543v25.506H210.931c-7.043,0-12.753-5.71-12.753-12.753v0
		C198.178,168.666,203.888,162.956,210.931,162.956z"/>
</g>
<g>
	<path class="st3" d="M288.826,243.622H128.321v-25.506h160.505c7.043,0,12.753,5.71,12.753,12.753v0
		C301.579,237.912,295.87,243.622,288.826,243.622z"/>
</g>
<path class="st4" d="M283.631,16.534c0-2.762,2.238-5,5-5h6.534V5c0-2.762,2.238-5,5-5s5,2.238,5,5v6.534h6.535c2.762,0,5,2.238,5,5
	s-2.238,5-5,5h-6.535v6.535c0,2.762-2.238,5-5,5s-5-2.238-5-5v-6.535h-6.534C285.869,21.534,283.631,19.296,283.631,16.534z
	 M238.466,21.534H245v6.535c0,2.762,2.238,5,5,5s5-2.238,5-5v-6.535h6.534c2.762,0,5-2.238,5-5s-2.238-5-5-5H255V5
	c0-2.762-2.238-5-5-5s-5,2.238-5,5v6.534h-6.534c-2.762,0-5,2.238-5,5S235.704,21.534,238.466,21.534z M188.3,21.534h6.535v6.535
	c0,2.762,2.238,5,5,5s5-2.238,5-5v-6.535h6.534c2.762,0,5-2.238,5-5s-2.238-5-5-5h-6.534V5c0-2.762-2.238-5-5-5s-5,2.238-5,5v6.534
	H188.3c-2.762,0-5,2.238-5,5S185.538,21.534,188.3,21.534z M439.108,490H60.892c-2.762,0-5,2.238-5,5s2.238,5,5,5h378.217
	c2.762,0,5-2.238,5-5S441.87,490,439.108,490z M42.478,490h-3.813c-2.762,0-5,2.238-5,5s2.238,5,5,5h3.813c2.762,0,5-2.238,5-5
	S45.239,490,42.478,490z M461.335,490h-3.813c-2.762,0-5,2.238-5,5s2.238,5,5,5h3.813c2.762,0,5-2.238,5-5S464.097,490,461.335,490z
	 M260.084,121.376c0-4.275-3.478-7.753-7.753-7.753h-75.772h-63.01c-2.762,0-5-2.238-5-5s2.238-5,5-5h60.932
	C194.723,83.567,221.454,72.544,250,72.544c25.548,0,50.305,9.136,69.711,25.725c18.104,15.476,30.572,36.543,35.431,59.688h24.332
	c2.762,0,5,2.238,5,5s-2.238,5-5,5H351.01H210.932c-4.275,0-7.753,3.478-7.753,7.753s3.478,7.753,7.753,7.753h141.186h27.357
	c2.762,0,5,2.238,5,5s-2.238,5-5,5h-22.844c-3.093,25.116-14.905,48.272-33.579,65.621c-0.856,0.796-1.728,1.57-2.606,2.335h16.772
	c36.317,0,65.863,29.591,65.863,65.964v149.276c0,2.762-2.238,5-5,5s-5-2.238-5-5V368.254h-42.805v108.404c0,2.762-2.238,5-5,5
	s-5-2.238-5-5V323.596c0-2.762,2.238-5,5-5s5,2.238,5,5v34.658h42.805v-30.872c0-30.858-25.061-55.964-55.863-55.964h-30.23
	c-1.041,0.653-2.095,1.283-3.156,1.898c-0.053,0.031-0.106,0.063-0.159,0.093c-2.107,1.219-4.251,2.363-6.431,3.434
	c-0.078,0.038-0.157,0.077-0.235,0.115c-2.146,1.047-4.326,2.021-6.535,2.92c-0.121,0.05-0.242,0.099-0.364,0.147
	c-2.167,0.873-4.361,1.675-6.582,2.403c-0.17,0.057-0.341,0.112-0.511,0.167c-2.18,0.704-4.384,1.338-6.609,1.9
	c-0.212,0.054-0.424,0.107-0.636,0.16c-1.108,0.272-2.219,0.533-3.337,0.771c-0.013,0.003-0.026,0.005-0.039,0.008
	c-1.081,0.229-2.168,0.438-3.258,0.634c-0.246,0.045-0.492,0.089-0.739,0.132c-1.108,0.191-2.219,0.371-3.334,0.528
	c-0.033,0.005-0.066,0.008-0.098,0.013c-1.074,0.15-2.152,0.279-3.232,0.397c-0.27,0.029-0.54,0.058-0.81,0.085
	c-1.112,0.113-2.226,0.215-3.344,0.293c-0.031,0.002-0.062,0.004-0.093,0.006c-1.086,0.075-2.176,0.129-3.268,0.171
	c-0.282,0.012-0.564,0.021-0.846,0.03c-1.122,0.034-2.245,0.059-3.371,0.059c-1.174,0-2.345-0.023-3.513-0.062
	c-0.321-0.01-0.64-0.027-0.96-0.04c-0.884-0.036-1.767-0.082-2.647-0.14c-0.307-0.02-0.614-0.042-0.921-0.064
	c-0.985-0.073-1.966-0.159-2.945-0.258c-0.163-0.017-0.325-0.031-0.488-0.049c-16.36-1.731-31.888-7.144-45.577-15.753h-30.166
	c-30.803,0-55.863,25.105-55.863,55.964v30.872h42.805v-34.658c0-2.762,2.238-5,5-5s5,2.238,5,5v153.063c0,2.762-2.238,5-5,5
	s-5-2.238-5-5V368.254h-42.805v108.404c0,2.762-2.238,5-5,5s-5-2.238-5-5V327.382c0-36.373,29.546-65.964,65.863-65.964h16.739
	c-4.441-3.88-8.599-8.151-12.423-12.797h-38.777c-2.762,0-5-2.238-5-5s2.238-5,5-5h41.161h119.344c4.275,0,7.753-3.478,7.753-7.753
	s-3.478-7.753-7.753-7.753H154.787h-26.466c-2.762,0-5-2.238-5-5s2.238-5,5-5h19.365c-3.409-10.611-5.137-21.663-5.137-32.952
	c0-14.279,2.729-28.046,8.101-41.034h-37.101c-2.762,0-5-2.238-5-5s2.238-5,5-5h44.869h93.913
	C256.606,129.129,260.084,125.651,260.084,121.376z M270.084,121.376c0,9.789-7.964,17.753-17.753,17.753h-90.775
	c-5.979,12.883-9.007,26.672-9.007,41.034c0,11.334,1.914,22.402,5.693,32.952h130.584c9.789,0,17.753,7.964,17.753,17.753
	s-7.964,17.753-17.753,17.753H180.516c4.98,5.087,10.449,9.563,16.301,13.391c0.128,0.068,0.258,0.13,0.38,0.209
	c12.759,8.257,27.18,13.355,42.21,14.988c0.044,0.005,0.088,0.01,0.132,0.015c1.125,0.121,2.253,0.222,3.384,0.304
	c0.073,0.005,0.147,0.009,0.22,0.014c0.971,0.068,1.944,0.118,2.919,0.157c0.256,0.01,0.512,0.021,0.769,0.028
	c1.054,0.034,2.11,0.057,3.169,0.057c1.397,0,2.788-0.038,4.173-0.098c0.341-0.015,0.68-0.037,1.021-0.055
	c1.148-0.063,2.292-0.14,3.43-0.242c0.227-0.02,0.453-0.039,0.68-0.061c44.513-4.317,81.142-39.239,87.245-83.866H210.932
	c-9.789,0-17.753-7.964-17.753-17.753s7.964-17.753,17.753-17.753h133.984C334.752,113.919,295.739,82.544,250,82.544
	c-22.289,0-43.36,7.408-60.505,21.079h62.836C262.12,103.623,270.084,111.587,270.084,121.376z M395.836,167.956h3.272
	c2.762,0,5-2.238,5-5s-2.238-5-5-5h-3.272c-2.762,0-5,2.238-5,5S393.074,167.956,395.836,167.956z M108.064,223.115h3.272
	c2.762,0,5-2.238,5-5s-2.238-5-5-5h-3.272c-2.762,0-5,2.238-5,5S105.303,223.115,108.064,223.115z M92.768,113.623h3.272
	c2.762,0,5-2.238,5-5s-2.238-5-5-5h-3.272c-2.762,0-5,2.238-5,5S90.006,113.623,92.768,113.623z"/>
</svg>
