<?xml version="1.0" encoding="utf-8"?>
<!-- Generator: Adobe Illustrator 23.0.0, SVG Export Plug-In . SVG Version: 6.00 Build 0)  -->
<svg version="1.1" id="Layer_1" xmlns="http://www.w3.org/2000/svg" xmlns:xlink="http://www.w3.org/1999/xlink" x="0px" y="0px"
	 viewBox="0 0 500 500" style="enable-background:new 0 0 500 500;" xml:space="preserve">
<style type="text/css">
	.st0{fill:#83E1E5;}
	.st1{fill:#AAB1BA;}
	.st2{fill:#FDDF7F;}
	.st3{fill:#ECF4F7;}
	.st4{fill:#1C1D21;}
</style>
<path class="st1" d="M147.076,181.423c0-25.694,9.464-49.172,25.085-67.13V17.595c0-6.956-5.639-12.595-12.594-12.595H17.595
	C10.639,5,5,10.639,5,17.595v249.921c0,6.955,5.639,12.594,12.594,12.594h17.007v21.49c0,3.185,2.582,5.768,5.768,5.768h15.722
	c3.185,0,5.768-2.583,5.768-5.768v-21.49h63.222c10.263-8,23.151-12.777,37.159-12.777h31.597
	C165.71,249.137,147.076,217.47,147.076,181.423z"/>
<g>
	<g>
		<path class="st1" d="M215.715,278.014c0.462,0.16,0.926,0.316,1.391,0.471C216.641,278.33,216.177,278.174,215.715,278.014z"/>
	</g>
	<g>
		<path class="st1" d="M219.27,279.177c0.589,0.181,1.182,0.35,1.775,0.52C220.452,279.527,219.859,279.357,219.27,279.177z"/>
	</g>
	<g>
		<path class="st1" d="M209.393,275.582c0.093,0.039,0.184,0.081,0.277,0.12C209.577,275.663,209.486,275.621,209.393,275.582z"/>
	</g>
	<g>
		<path class="st1" d="M212.344,276.774c0.33,0.128,0.659,0.257,0.99,0.381C213.002,277.031,212.673,276.902,212.344,276.774z"/>
	</g>
</g>
<g>
	<path class="st1" d="M470.803,194.586V128.31c0-16.492-13.37-29.863-29.863-29.863H314.268c-1.722,0-3.408,0.153-5.05,0.434
		c25.364,18.594,41.843,48.638,41.843,82.543c0,13.187-2.493,25.789-7.03,37.361c-7.862,20.052-21.865,37.008-39.689,48.548h4.995
		h26.56c15.384,0,29.42,5.757,40.106,15.224h47.988v21.49c0,3.186,2.582,5.768,5.768,5.768h15.722c3.185,0,5.768-2.582,5.768-5.768
		v-21.49h9.861c5.355,0,9.696-4.341,9.696-9.695v-29.879c13.364,0,24.198-10.833,24.198-24.197S484.167,194.586,470.803,194.586z"/>
</g>
<g>
	<g>
		<path class="st0" d="M335.895,267.332h-31.602c-15.919,10.299-34.868,16.3-55.226,16.3s-39.306-6.001-55.225-16.3h-31.602
			c-33.463,0-60.591,27.186-60.591,60.721v97.677c0,11.106,9.002,20.109,20.106,20.109h4.436V495h245.752v-49.161h4.436
			c11.104,0,20.106-9.003,20.106-20.109v-97.677C396.486,294.518,369.359,267.332,335.895,267.332z"/>
	</g>
</g>
<g>
	<g>
		<path class="st2" d="M339.198,350.723v44.435h-83.823h-12.841H158.71v-44.435h-57.06v75.007c0,11.105,9.002,20.109,20.106,20.109
			h120.777h12.841H376.38c11.104,0,20.106-9.004,20.106-20.109v-75.007H339.198z"/>
	</g>
</g>
<g>
	<g>
		<ellipse class="st2" cx="249.068" cy="181.423" rx="101.992" ry="102.209"/>
	</g>
</g>
<g>
	<g>
		<path class="st3" d="M198.231,230.054c4.521,3.928,11.369,3.448,15.297-1.072c8.984-10.337,21.914-16.309,35.54-16.453
			c13.626,0.145,26.556,6.116,35.54,16.453c3.928,4.52,10.776,5,15.297,1.072c4.52-3.929,5-10.777,1.072-15.297
			c-13.105-15.079-32.001-23.769-51.908-23.914c-19.908,0.145-38.804,8.835-51.908,23.914
			C193.232,219.277,193.711,226.125,198.231,230.054z"/>
	</g>
</g>
<path class="st4" d="M500,218.784c0-14.395-10.473-26.382-24.198-28.761V128.31c0-19.224-15.639-34.863-34.863-34.863H334.631
	c-2.761,0-5,2.238-5,5s2.239,5,5,5H440.94c13.709,0,24.863,11.153,24.863,24.863v61.706c-0.073,0.013-0.143,0.033-0.215,0.046
	c-0.679,0.123-1.352,0.263-2.013,0.432c-0.004,0.001-0.008,0.002-0.013,0.003c-0.665,0.17-1.317,0.37-1.963,0.585
	c-0.13,0.043-0.26,0.087-0.389,0.132c-0.631,0.221-1.255,0.457-1.866,0.719c-0.063,0.027-0.125,0.058-0.188,0.085
	c-0.564,0.246-1.117,0.512-1.662,0.792c-0.114,0.059-0.229,0.116-0.343,0.176c-0.574,0.305-1.136,0.628-1.686,0.969
	c-0.107,0.066-0.211,0.136-0.317,0.203c-0.498,0.318-0.986,0.649-1.463,0.996c-0.076,0.055-0.155,0.107-0.23,0.163
	c-0.519,0.385-1.021,0.789-1.513,1.206c-0.112,0.095-0.222,0.191-0.332,0.287c-0.493,0.432-0.976,0.872-1.439,1.335
	c-0.003,0.003-0.006,0.006-0.009,0.009c-0.462,0.462-0.902,0.945-1.333,1.437c-0.097,0.112-0.195,0.223-0.291,0.336
	c-0.416,0.49-0.819,0.992-1.203,1.51c-0.058,0.077-0.112,0.158-0.169,0.237c-0.344,0.473-0.672,0.957-0.988,1.451
	c-0.07,0.109-0.141,0.217-0.21,0.327c-0.339,0.547-0.66,1.106-0.963,1.677c-0.063,0.119-0.122,0.239-0.184,0.358
	c-0.275,0.535-0.535,1.077-0.777,1.631c-0.032,0.073-0.067,0.144-0.099,0.218c-0.258,0.604-0.492,1.22-0.711,1.844
	c-0.048,0.139-0.095,0.278-0.142,0.418c-0.212,0.637-0.409,1.28-0.577,1.936c-0.006,0.024-0.011,0.049-0.017,0.073
	c-0.162,0.638-0.296,1.285-0.415,1.938c-0.015,0.081-0.038,0.159-0.052,0.241h-77.64c-2.761,0-5,2.238-5,5s2.239,5,5,5h77.649
	c2.098,12.099,11.662,21.662,23.761,23.76v25.316c0,2.589-2.106,4.695-4.695,4.695h-9.861h-27.257h-23.792c-2.761,0-5,2.238-5,5
	s2.239,5,5,5h18.792v16.49c0,5.938,4.83,10.768,10.768,10.768h15.722c5.938,0,10.768-4.83,10.768-10.768v-16.49h4.861
	c8.103,0,14.695-6.593,14.695-14.695v-25.316C489.527,245.165,500,233.179,500,218.784z M446.246,304.046
	c0,0.423-0.344,0.768-0.768,0.768h-15.722c-0.423,0-0.768-0.345-0.768-0.768v-16.49h17.257V304.046z M470.803,237.981
	c-10.584,0-19.196-8.61-19.198-19.194c0-0.001,0-0.002,0-0.003c0-10.585,8.612-19.197,19.197-19.197
	c0.002,0,0.004-0.001,0.006-0.001C481.392,199.59,490,208.2,490,218.784C490,229.369,481.388,237.981,470.803,237.981z
	 M425.171,139.903v6.534h6.535c2.761,0,5,2.238,5,5s-2.239,5-5,5h-6.535v6.534c0,2.762-2.239,5-5,5s-5-2.238-5-5v-6.534h-6.535
	c-2.761,0-5-2.238-5-5s2.239-5,5-5h6.535v-6.534c0-2.762,2.239-5,5-5S425.171,137.142,425.171,139.903z M40.812,151.438
	c0-2.762,2.239-5,5-5h6.534v-6.534c0-2.762,2.239-5,5-5s5,2.238,5,5v6.534h6.535c2.761,0,5,2.238,5,5s-2.239,5-5,5h-6.535v6.534
	c0,2.762-2.239,5-5,5s-5-2.238-5-5v-6.534h-6.534C43.051,156.438,40.812,154.199,40.812,151.438z M124.815,139.903v6.534h6.534
	c2.761,0,5,2.238,5,5s-2.239,5-5,5h-6.534v6.534c0,2.762-2.239,5-5,5s-5-2.238-5-5v-6.534h-6.535c-2.761,0-5-2.238-5-5s2.239-5,5-5
	h6.535v-6.534c0-2.762,2.239-5,5-5S124.815,137.142,124.815,139.903z M66.859,301.6v-16.49h34.791c2.761,0,5-2.238,5-5s-2.239-5-5-5
	h-8.07V10h65.986c4.188,0,7.594,3.407,7.594,7.595V91.83c0,2.762,2.239,5,5,5s5-2.238,5-5V17.595C177.161,7.893,169.269,0,159.567,0
	H17.595C7.893,0,0,7.893,0,17.595v249.921c0,9.701,7.893,17.594,17.594,17.594h12.007v16.49c0,5.938,4.83,10.768,10.768,10.768
	h15.722C62.029,312.367,66.859,307.537,66.859,301.6z M10,267.516V17.595C10,13.407,13.407,10,17.595,10h65.986v265.109H61.859
	H34.602H17.595C13.407,275.109,10,271.703,10,267.516z M39.602,301.6v-16.49h17.257v16.49c0,0.423-0.344,0.768-0.768,0.768H40.37
	C39.946,302.367,39.602,302.022,39.602,301.6z M142.076,181.423c0,32.262,14.297,61.239,36.873,80.91h-16.708
	c-36.167,0-65.591,29.481-65.591,65.72v97.677c0,13.655,10.958,24.791,24.542,25.095v25.834c0,2.762,2.239,5,5,5s5-2.238,5-5
	v-25.819h84.246c11.666,0,22.844-4.323,31.475-12.173l31.816-28.938c6.785-6.172,15.573-9.57,24.746-9.57h35.724
	c2.761,0,5-2.238,5-5v-39.434h47.289v70.009c0,8.33-6.777,15.106-15.106,15.106H258.576c-2.761,0-5,2.238-5,5s2.239,5,5,5h108.369
	v25.819c0,2.762,2.239,5,5,5s5-2.238,5-5v-25.834c13.583-0.302,24.542-11.438,24.542-25.092v-97.68
	c0-36.238-29.424-65.72-65.591-65.72h-16.708c22.577-19.671,36.873-48.648,36.873-80.91c0-59.115-47.997-107.209-106.992-107.209
	S142.076,122.308,142.076,181.423z M305.75,272.333h30.145c30.653,0,55.591,24.996,55.591,55.72v17.671h-47.289v-31.42
	c0-2.762-2.239-5-5-5s-5,2.238-5,5v75.854h-30.724c-11.667,0-22.844,4.323-31.474,12.172l-31.816,28.938
	c-6.786,6.172-15.574,9.571-24.746,9.571h-93.679c-8.331,0-15.109-6.778-15.109-15.109v-70.006h47.06v39.434c0,2.762,2.239,5,5,5
	h101.815c2.761,0,5-2.238,5-5s-2.239-5-5-5H163.71v-75.854c0-2.762-2.239-5-5-5s-5,2.238-5,5v31.42h-47.06v-17.671
	c0-30.724,24.938-55.72,55.591-55.72h30.145c0.344,0.216,0.695,0.417,1.042,0.628c0.221,0.136,0.443,0.268,0.665,0.401
	c1.037,0.624,2.083,1.229,3.139,1.817c0.342,0.19,0.682,0.384,1.026,0.57c0.515,0.279,1.033,0.552,1.552,0.822
	c0.476,0.248,0.954,0.491,1.434,0.732c0.454,0.229,0.907,0.459,1.365,0.681c0.876,0.425,1.759,0.838,2.648,1.239
	c0.353,0.159,0.709,0.312,1.063,0.467c0.696,0.305,1.395,0.604,2.099,0.894c0.326,0.135,0.651,0.271,0.979,0.401
	c1.005,0.403,2.015,0.795,3.035,1.169c0.097,0.035,0.195,0.068,0.292,0.104c0.974,0.354,1.955,0.69,2.941,1.016
	c0.229,0.075,0.458,0.15,0.687,0.225c2.188,0.705,4.405,1.343,6.65,1.909c0.139,0.035,0.279,0.067,0.419,0.103
	c1.03,0.255,2.066,0.494,3.107,0.719c0.13,0.028,0.259,0.058,0.389,0.085c2.267,0.48,4.561,0.887,6.878,1.22
	c0.221,0.032,0.442,0.063,0.663,0.094c1.035,0.143,2.075,0.271,3.12,0.384c0.109,0.012,0.217,0.026,0.326,0.038
	c1.125,0.117,2.256,0.215,3.391,0.297c0.276,0.021,0.552,0.035,0.827,0.053c0.857,0.056,1.716,0.101,2.579,0.136
	c0.341,0.014,0.682,0.028,1.024,0.039c1.043,0.032,2.09,0.053,3.14,0.055c0.068,0,0.136,0.004,0.205,0.004s0.136-0.004,0.205-0.004
	c1.051-0.002,2.097-0.022,3.14-0.055c0.342-0.011,0.682-0.025,1.024-0.039c0.862-0.035,1.722-0.08,2.579-0.136
	c0.276-0.018,0.552-0.032,0.827-0.053c1.135-0.082,2.266-0.18,3.391-0.297c0.109-0.012,0.217-0.026,0.325-0.038
	c1.045-0.112,2.085-0.241,3.121-0.384c0.221-0.03,0.441-0.062,0.662-0.093c2.318-0.334,4.612-0.74,6.88-1.221
	c0.128-0.027,0.256-0.057,0.384-0.084c1.044-0.225,2.081-0.465,3.113-0.721c0.138-0.034,0.276-0.066,0.414-0.102
	c2.248-0.566,4.468-1.205,6.657-1.911c0.226-0.073,0.451-0.146,0.677-0.221c0.993-0.328,1.982-0.667,2.962-1.023
	c0.091-0.032,0.182-0.063,0.272-0.096c1.023-0.375,2.037-0.769,3.045-1.173c0.322-0.129,0.642-0.263,0.963-0.396
	c0.711-0.294,1.419-0.595,2.122-0.903c0.348-0.152,0.697-0.302,1.043-0.458c0.893-0.403,1.781-0.818,2.661-1.245
	c0.449-0.218,0.895-0.444,1.341-0.669c0.49-0.246,0.978-0.495,1.463-0.748c0.512-0.267,1.023-0.535,1.531-0.811
	c0.366-0.199,0.729-0.404,1.092-0.607c1.026-0.572,2.043-1.161,3.052-1.768c0.236-0.143,0.472-0.283,0.707-0.427
	C305.064,272.744,305.411,272.546,305.75,272.333z M249.068,84.214c53.482,0,96.992,43.607,96.992,97.209
	c0,34.89-18.438,65.54-46.058,82.691c-0.262,0.162-0.523,0.328-0.786,0.488c-0.484,0.295-0.973,0.582-1.463,0.868
	c-0.394,0.23-0.791,0.457-1.188,0.681c-0.483,0.273-0.967,0.546-1.455,0.812c-0.713,0.387-1.43,0.764-2.151,1.132
	c-0.38,0.194-0.763,0.382-1.146,0.571c-0.584,0.288-1.171,0.571-1.76,0.847c-0.312,0.146-0.622,0.296-0.936,0.438
	c-0.873,0.398-1.752,0.783-2.635,1.154c-0.256,0.107-0.513,0.21-0.77,0.315c-0.759,0.312-1.521,0.613-2.286,0.904
	c-0.215,0.082-0.429,0.166-0.644,0.246c-0.975,0.363-1.954,0.712-2.94,1.043c-0.115,0.038-0.231,0.074-0.345,0.112
	c-0.917,0.305-1.838,0.594-2.763,0.87c-0.16,0.048-0.32,0.097-0.48,0.144c-2.069,0.605-4.159,1.142-6.267,1.607
	c-0.152,0.034-0.304,0.067-0.456,0.101c-2.106,0.455-4.229,0.84-6.366,1.153c-0.182,0.027-0.364,0.052-0.546,0.077
	c-0.918,0.13-1.838,0.245-2.76,0.349c-0.17,0.019-0.339,0.04-0.509,0.059c-1.04,0.11-2.083,0.204-3.128,0.281
	c-0.213,0.016-0.427,0.026-0.641,0.041c-0.83,0.056-1.661,0.1-2.494,0.134c-0.308,0.013-0.615,0.025-0.923,0.035
	c-0.967,0.031-1.936,0.051-2.906,0.053c-0.063,0-0.125,0.002-0.187,0.002s-0.125-0.002-0.187-0.002
	c-0.97-0.002-1.939-0.021-2.906-0.053c-0.308-0.01-0.616-0.022-0.924-0.035c-0.832-0.034-1.664-0.078-2.493-0.134
	c-0.214-0.015-0.429-0.025-0.642-0.041c-1.045-0.077-2.087-0.171-3.127-0.281c-0.171-0.019-0.342-0.04-0.513-0.059
	c-0.92-0.104-1.839-0.219-2.754-0.349c-0.184-0.025-0.368-0.05-0.551-0.077c-2.135-0.313-4.256-0.698-6.36-1.152
	c-0.156-0.034-0.311-0.068-0.466-0.103c-2.104-0.465-4.19-1-6.256-1.605c-0.165-0.048-0.329-0.098-0.493-0.147
	c-0.919-0.274-1.833-0.562-2.743-0.863c-0.121-0.04-0.242-0.077-0.363-0.118c-0.982-0.33-1.958-0.678-2.929-1.039
	c-0.222-0.082-0.441-0.168-0.662-0.253c-0.757-0.288-1.511-0.587-2.261-0.894c-0.264-0.108-0.528-0.215-0.791-0.325
	c-0.879-0.369-1.752-0.751-2.621-1.146c-0.322-0.147-0.641-0.301-0.962-0.451c-0.578-0.271-1.154-0.548-1.728-0.831
	c-0.39-0.192-0.781-0.385-1.168-0.583c-0.692-0.353-1.379-0.715-2.063-1.085c-0.523-0.283-1.04-0.574-1.557-0.866
	c-0.385-0.218-0.769-0.437-1.151-0.659c-0.498-0.291-0.995-0.583-1.488-0.883c-0.238-0.145-0.472-0.295-0.709-0.44
	c-27.657-17.144-46.125-47.815-46.125-82.733C152.076,127.821,195.586,84.214,249.068,84.214z M445.836,495c0,2.762-2.239,5-5,5
	h-3.813c-2.761,0-5-2.238-5-5s2.239-5,5-5h3.813C443.597,490,445.836,492.238,445.836,495z M424.863,495c0,2.762-2.239,5-5,5H80.138
	c-2.761,0-5-2.238-5-5s2.239-5,5-5h339.725C422.624,490,424.863,492.238,424.863,495z M67.979,495c0,2.762-2.239,5-5,5h-3.813
	c-2.761,0-5-2.238-5-5s2.239-5,5-5h3.813C65.74,490,67.979,492.238,67.979,495z M228.144,155.554
	c2.166,1.713,2.533,4.857,0.819,7.023c-4.284,5.415-10.697,8.521-17.594,8.521c-6.898,0-13.311-3.105-17.594-8.521
	c-1.713-2.166-1.346-5.31,0.819-7.023c2.168-1.712,5.312-1.346,7.023,0.82c2.375,3.003,5.929,4.725,9.751,4.725
	c3.821,0,7.375-1.723,9.751-4.726C222.834,154.208,225.979,153.841,228.144,155.554z M304.36,162.576
	c-4.283,5.416-10.696,8.521-17.594,8.521c-6.897,0-13.31-3.105-17.594-8.521c-1.713-2.166-1.346-5.311,0.819-7.023
	s5.311-1.346,7.023,0.818c2.375,3.003,5.93,4.726,9.751,4.726c3.822,0,7.376-1.722,9.751-4.725c1.713-2.166,4.858-2.531,7.023-0.82
	C305.707,157.267,306.074,160.41,304.36,162.576z M192.989,141.586c-0.929-2.601,0.426-5.462,3.026-6.392l27.345-9.77
	c2.6-0.926,5.462,0.428,6.391,3.026c0.929,2.601-0.426,5.462-3.026,6.392l-27.345,9.77c-0.556,0.198-1.124,0.292-1.682,0.292
	C195.644,144.904,193.719,143.63,192.989,141.586z M268.386,128.451c0.929-2.601,3.792-3.954,6.391-3.026l27.345,9.77
	c2.601,0.93,3.956,3.791,3.026,6.392c-0.73,2.044-2.655,3.318-4.708,3.318c-0.559,0-1.126-0.094-1.682-0.292l-27.345-9.77
	C268.812,133.913,267.457,131.052,268.386,128.451z M194.951,233.827C194.952,233.827,194.952,233.828,194.951,233.827
	c2.995,2.603,6.697,3.878,10.383,3.878c4.432,0,8.84-1.844,11.968-5.442c8.013-9.221,19.589-14.589,31.766-14.733
	c12.176,0.145,23.752,5.513,31.766,14.733c5.731,6.593,15.757,7.295,22.352,1.564c6.593-5.731,7.295-15.758,1.565-22.351
	c-14.023-16.136-34.306-25.479-55.718-25.634c-21.341,0.155-41.623,9.498-55.646,25.634
	C187.656,218.07,188.358,228.097,194.951,233.827z M200.934,218.037c12.142-13.971,29.699-22.061,48.099-22.194
	c18.471,0.134,36.029,8.224,48.17,22.194c2.113,2.432,1.854,6.129-0.577,8.242s-6.129,1.855-8.244-0.577
	c-9.899-11.389-24.208-18.013-39.26-18.173c-0.036,0-0.07,0-0.106,0c-15.052,0.16-29.362,6.784-39.261,18.173
	c-2.114,2.432-5.812,2.689-8.243,0.578C199.08,224.166,198.82,220.469,200.934,218.037z"/>
</svg>
