<?xml version="1.0" encoding="utf-8"?>
<!-- Generator: Adobe Illustrator 23.0.0, SVG Export Plug-In . SVG Version: 6.00 Build 0)  -->
<svg version="1.1" id="Layer_1" xmlns="http://www.w3.org/2000/svg" xmlns:xlink="http://www.w3.org/1999/xlink" x="0px" y="0px"
	 viewBox="0 0 500 500" style="enable-background:new 0 0 500 500;" xml:space="preserve">
<style type="text/css">
	.st0{fill:#83E1E5;}
	.st1{fill:#AAB1BA;}
	.st2{fill:#FDDF7F;}
	.st3{fill:#ECF4F7;}
	.st4{fill:#1C1D21;}
</style>
<g>
	<path class="st2" d="M395.715,129.112V57.176l-14.188,19.283c-5.506,7.483-16.951,6.603-21.247-1.635l-9.204-17.648l-9.204,17.648
		c-4.297,8.238-15.741,9.119-21.247,1.635l-14.188-19.283v71.936H395.715z"/>
</g>
<g>
	<path class="st1" d="M429.924,288.352h-28.655c25.528-16.52,42.427-45.271,42.427-77.978c0-35.024-19.379-65.51-47.98-81.299v0.037
		h-89.28v-0.029c-24.734,13.657-42.574,38.3-46.942,67.37c12.395,6.357,23.242,15.305,31.813,26.14h1.853
		c5.566,0,10.594,3.323,12.776,8.443l15.185,35.637c3.252,7.631,4.928,15.841,4.928,24.137v8.416h6.64
		c26.637,0,48.231,21.594,48.231,48.231v27.834v87.644l-0.021-0.039C380.45,479.931,366.596,495,347.915,495h137.031V343.466
		C484.947,313.028,460.312,288.352,429.924,288.352z"/>
</g>
<g>
	<g>
		<path class="st2" d="M346.221,375.292l-16.829-38.793c-2.206-5.085-3.344-10.57-3.344-16.113V290.81
			c0-8.295-1.676-16.505-4.928-24.137l-15.184-35.637c-2.182-5.12-7.21-8.443-12.776-8.443h-1.853
			c-17.705-22.382-45.102-36.745-75.855-36.745c-30.753,0-58.15,14.363-75.855,36.745h-1.853c-5.566,0-10.594,3.323-12.776,8.443
			l-15.184,35.637c-3.252,7.631-4.928,15.841-4.928,24.137v29.575c0,5.543-1.138,11.028-3.345,16.113l-16.829,38.793H49.983v87.644
			l0.021-0.039C50.453,479.931,64.307,495,82.987,495l0,0c14.254,0,26.894-9.161,31.33-22.707l38.14-116.454
			c16.919,14.549,38.929,23.346,62.994,23.346c24.065,0,46.074-8.797,62.994-23.346l38.14,116.454
			c4.437,13.546,17.076,22.707,31.33,22.707l0,0c18.68,0,32.534-15.069,32.983-32.103l0.021,0.039v-87.644H346.221z"/>
	</g>
</g>
<g>
	<path class="st3" d="M221.983,353.709H208.92c-4.239,0-7.676-3.436-7.676-7.676v-17.549c0-4.239,3.436-7.676,7.676-7.676h13.063
		c4.239,0,7.676,3.436,7.676,7.676v17.549C229.658,350.273,226.222,353.709,221.983,353.709z"/>
</g>
<g>
	<g>
		<path class="st0" d="M316.585,472.293l-38.14-116.454c-16.919,14.55-38.928,23.346-62.994,23.346
			c-24.065,0-46.074-8.796-62.994-23.346l-38.14,116.454C109.881,485.839,97.241,495,82.987,495h264.928
			C333.661,495,321.021,485.839,316.585,472.293z"/>
	</g>
</g>
<g>
	<g>
		<path class="st0" d="M98.215,299.226c-26.638,0-48.232,21.594-48.232,48.231v27.834h34.698l16.829-38.793
			c0.552-1.271,1.036-2.568,1.453-3.883c0.417-1.316,0.766-2.651,1.046-4.001c0.56-2.7,0.845-5.457,0.845-8.229v-21.159H98.215z"/>
	</g>
</g>
<g>
	<g>
		<path class="st0" d="M332.688,299.226h-6.64l0,0v21.159c0,2.772,0.285,5.529,0.845,8.229c0.28,1.35,0.629,2.685,1.046,4.001
			c0.417,1.315,0.902,2.612,1.453,3.883l16.829,38.793h34.697v-27.834C380.919,320.82,359.325,299.226,332.688,299.226z"/>
	</g>
</g>
<g>
	<circle class="st3" cx="388.48" cy="190.607" r="15.441"/>
</g>
<g>
	<circle class="st3" cx="313.67" cy="190.607" r="15.441"/>
</g>
<path class="st4" d="M289.9,16.535c0-2.761,2.238-5,5-5h6.534V5c0-2.761,2.238-5,5-5s5,2.239,5,5v6.535h6.535c2.762,0,5,2.239,5,5
	s-2.238,5-5,5h-6.535v6.534c0,2.761-2.238,5-5,5s-5-2.239-5-5v-6.534H294.9C292.139,21.535,289.9,19.296,289.9,16.535z
	 M339.541,21.535h6.534v6.534c0,2.761,2.238,5,5,5s5-2.239,5-5v-6.534h6.534c2.762,0,5-2.239,5-5s-2.238-5-5-5h-6.534V5
	c0-2.761-2.238-5-5-5s-5,2.239-5,5v6.535h-6.534c-2.762,0-5,2.239-5,5S336.779,21.535,339.541,21.535z M384.181,21.535h6.534v6.534
	c0,2.761,2.238,5,5,5s5-2.239,5-5v-6.534h6.535c2.762,0,5-2.239,5-5s-2.238-5-5-5h-6.535V5c0-2.761-2.238-5-5-5s-5,2.239-5,5v6.535
	h-6.534c-2.762,0-5,2.239-5,5S381.419,21.535,384.181,21.535z M489.946,343.466V495c0,2.761-2.238,5-5,5s-5-2.239-5-5V343.466
	c0-27.633-22.44-50.114-50.022-50.114h-28.655c-2.216,0-4.168-1.458-4.795-3.584c-0.628-2.125,0.218-4.41,2.078-5.614
	c25.137-16.267,40.144-43.848,40.144-73.78c0-31.54-16.909-60.635-44.223-76.262h-86.781
	c-18.229,10.426-32.105,26.975-39.153,46.735c-0.928,2.601-3.79,3.957-6.389,3.03c-2.601-0.928-3.957-3.788-3.029-6.389
	c7.681-21.538,22.656-39.631,42.314-51.278V57.176c0-2.161,1.388-4.077,3.44-4.75c2.057-0.674,4.306,0.048,5.587,1.787
	l14.188,19.283c1.58,2.146,4.008,3.26,6.667,3.056c2.657-0.205,4.888-1.677,6.12-4.04l9.204-17.647
	c0.862-1.652,2.57-2.688,4.434-2.688s3.571,1.036,4.434,2.688l9.204,17.648c1.232,2.363,3.463,3.835,6.12,4.04
	c2.652,0.204,5.086-0.909,6.666-3.056l14.188-19.283c1.281-1.739,3.53-2.462,5.587-1.787c2.053,0.674,3.44,2.59,3.44,4.75v69.006
	c29.67,17.575,47.98,49.558,47.98,84.192c0,28.221-11.977,54.565-32.635,72.978h13.863
	C463.021,283.352,489.946,310.319,489.946,343.466z M390.715,112.314h-79.28v11.798h79.28V112.314z M390.715,72.408l-5.161,7.014
	c-3.616,4.914-9.411,7.559-15.487,7.1c-6.083-0.468-11.398-3.977-14.221-9.386l-4.771-9.148l-4.771,9.147
	c-2.821,5.409-8.138,8.918-14.22,9.386c-6.081,0.459-11.873-2.186-15.489-7.1l-5.161-7.014v29.906h79.28V72.408z M437.209,335.043
	c-2.762,0-5,2.239-5,5V495c0,2.761,2.238,5,5,5s5-2.239,5-5V340.043C442.209,337.282,439.971,335.043,437.209,335.043z
	 M385.919,347.458v27.834v87.645c0,0.214-0.014,0.427-0.04,0.635C385.059,484.042,368.485,500,347.915,500
	c-16.459,0-30.959-10.509-36.082-26.15l-35.906-109.636c-17.437,12.912-38.634,19.971-60.475,19.971
	c-21.841,0-43.039-7.059-60.475-19.971L119.069,473.85c-2.079,6.349-5.704,11.852-10.377,16.15h17.479c2.761,0,5,2.239,5,5
	s-2.239,5-5,5H36.027c-2.761,0-5-2.239-5-5s2.239-5,5-5h21.158c-7.149-6.583-11.74-15.905-12.161-26.428
	c-0.027-0.208-0.041-0.421-0.041-0.636v-87.645c0-0.071,0.018-0.137,0.021-0.207l-0.021-27.624
	c0-29.356,23.879-53.235,53.231-53.235h1.64v-3.416c0-9.019,1.792-17.799,5.328-26.097l15.185-35.637
	c2.902-6.81,9.472-11.254,16.836-11.463c19.406-23.394,47.783-36.764,78.248-36.764c30.465,0,58.843,13.371,78.249,36.764
	c7.364,0.209,13.935,4.654,16.835,11.463l15.185,35.637c3.535,8.299,5.328,17.079,5.328,26.097v3.416h1.64
	C362.039,294.226,385.919,318.105,385.919,347.458z M54.983,347.458l0.017,22.834H81.4l15.523-35.783
	c1.945-4.484,2.932-9.235,2.932-14.124v-16.159h-1.64C74.377,304.226,54.983,323.62,54.983,347.458z M156.316,290.81
	c0-9.019,1.792-17.799,5.328-26.097l8.971-21.055c1.546-3.628,1.186-7.597-0.989-10.887c-2.175-3.291-5.684-5.178-9.629-5.178
	h-20.401h0h-1.853c-3.568,0-6.777,2.121-8.176,5.403l-15.185,35.637c-3.004,7.051-4.527,14.513-4.527,22.177v29.575
	c0,6.266-1.264,12.356-3.758,18.104l-16.829,38.792c0,0-0.001,0.001-0.001,0.001l-15.595,35.949
	c-0.818,1.885-2.658,3.012-4.589,3.012c-0.664,0-1.339-0.133-1.987-0.415c-2.534-1.099-3.696-4.043-2.597-6.577l12.564-28.96H54.983
	v82.148c0.01,0.108,0.017,0.217,0.019,0.326C55.405,478.038,67.697,490,82.987,490c12.124,0,22.805-7.741,26.579-19.263
	l38.138-116.449c0.001-0.002,0.001-0.004,0.001-0.006l4.358-13.306c2.822-8.617,4.253-17.583,4.253-26.65V290.81z M272.635,354.162
	l-3.3-10.072c-3.151-9.625-4.749-19.638-4.749-29.763V290.81c0-7.663-1.523-15.125-4.527-22.177l-8.972-21.055
	c-2.844-6.673-2.153-14.27,1.846-20.321c4-6.052,10.718-9.665,17.972-9.665h9.271c-17.115-17.113-40.169-26.744-64.725-26.744
	s-47.609,9.631-64.724,26.744h9.271c7.254,0,13.972,3.613,17.972,9.665c4,6.051,4.689,13.648,1.846,20.321l-8.971,21.055
	c-3.004,7.051-4.527,14.513-4.527,22.177v23.517c0,10.125-1.598,20.139-4.75,29.763l-3.299,10.073
	c16.195,12.935,36.372,20.023,57.184,20.023C236.263,374.185,256.439,367.097,272.635,354.162z M375.919,380.292h-22.073
	l12.564,28.96c1.099,2.533-0.063,5.478-2.597,6.577c-0.648,0.281-1.323,0.415-1.987,0.415c-1.933,0-3.772-1.126-4.59-3.012
	l-15.574-35.9c-0.008-0.017-0.019-0.032-0.026-0.05l-16.829-38.793c-2.493-5.745-3.758-11.836-3.758-18.103V290.81
	c0-7.663-1.523-15.125-4.527-22.177l-15.185-35.637c-1.398-3.282-4.608-5.403-8.177-5.403h-1.853h-20.402
	c-3.944,0-7.454,1.887-9.629,5.178c-2.175,3.291-2.535,7.259-0.989,10.887l8.972,21.055c3.535,8.299,5.328,17.079,5.328,26.097
	v23.517c0,9.066,1.431,18.033,4.253,26.65l4.358,13.305c0,0,0,0.001,0,0.002l38.139,116.453C325.11,482.259,335.791,490,347.915,490
	c15.29,0,27.582-11.962,27.985-27.234c0.003-0.108,0.009-0.215,0.019-0.321V380.292z M375.919,347.458
	c0-23.838-19.394-43.231-43.231-43.231h-1.64v16.159c0,4.889,0.986,9.641,2.932,14.123l15.523,35.784h26.416V347.458z M18.868,490
	h-3.813c-2.761,0-5,2.239-5,5s2.239,5,5,5h3.813c2.761,0,5-2.239,5-5S21.629,490,18.868,490z M234.658,328.484v17.549
	c0,6.989-5.686,12.675-12.675,12.675H208.92c-6.989,0-12.676-5.686-12.676-12.675v-17.549c0-6.989,5.687-12.676,12.676-12.676
	h13.063C228.972,315.809,234.658,321.495,234.658,328.484z M224.658,328.484c0-1.476-1.2-2.676-2.675-2.676H208.92
	c-1.476,0-2.676,1.2-2.676,2.676v17.549c0,1.475,1.2,2.675,2.676,2.675h13.063c1.475,0,2.675-1.2,2.675-2.675V328.484z
	 M388.48,211.048c-11.271,0-20.441-9.17-20.441-20.441s9.17-20.441,20.441-20.441c11.271,0,20.44,9.17,20.44,20.441
	S399.751,211.048,388.48,211.048z M398.921,190.607c0-5.757-4.684-10.441-10.44-10.441c-5.758,0-10.441,4.684-10.441,10.441
	s4.684,10.441,10.441,10.441C394.237,201.048,398.921,196.365,398.921,190.607z M293.229,190.607c0-11.271,9.17-20.441,20.44-20.441
	c11.271,0,20.441,9.17,20.441,20.441s-9.17,20.441-20.441,20.441C302.399,211.048,293.229,201.878,293.229,190.607z
	 M303.229,190.607c0,5.757,4.684,10.441,10.44,10.441c5.758,0,10.441-4.684,10.441-10.441s-4.684-10.441-10.441-10.441
	C307.913,180.167,303.229,184.85,303.229,190.607z"/>
</svg>
