<?xml version="1.0" encoding="utf-8"?>
<!-- Generator: Adobe Illustrator 23.0.0, SVG Export Plug-In . SVG Version: 6.00 Build 0)  -->
<svg version="1.1" id="Layer_1" xmlns="http://www.w3.org/2000/svg" xmlns:xlink="http://www.w3.org/1999/xlink" x="0px" y="0px"
	 viewBox="0 0 500 500" style="enable-background:new 0 0 500 500;" xml:space="preserve">
<style type="text/css">
	.st0{fill:#83E1E5;}
	.st1{fill:#AAB1BA;}
	.st2{fill:#FDDF7F;}
	.st3{fill:#ECF4F7;}
	.st4{fill:#1C1D21;}
</style>
<path class="st1" d="M260.707,454.639h64.625V365.31c0-1.123-0.035-2.237-0.095-3.344c-0.019-0.36-0.056-0.716-0.082-1.075
	c-0.053-0.745-0.11-1.489-0.19-2.227c-0.045-0.42-0.105-0.835-0.159-1.252c-0.087-0.67-0.177-1.339-0.286-2.002
	c-0.071-0.435-0.151-0.866-0.231-1.297c-0.119-0.641-0.245-1.279-0.384-1.913c-0.094-0.431-0.193-0.859-0.296-1.286
	c-0.153-0.631-0.317-1.258-0.489-1.881c-0.114-0.413-0.228-0.826-0.35-1.236c-0.192-0.641-0.399-1.275-0.611-1.907
	c-0.127-0.378-0.249-0.757-0.382-1.132c-0.248-0.693-0.516-1.377-0.788-2.06c-0.12-0.3-0.231-0.604-0.355-0.902
	c-0.819-1.96-1.737-3.869-2.748-5.72c-0.133-0.243-0.277-0.478-0.413-0.719c-0.38-0.674-0.766-1.344-1.171-2.001
	c-0.189-0.307-0.389-0.607-0.583-0.911c-0.372-0.581-0.748-1.158-1.139-1.725c-0.22-0.319-0.447-0.632-0.672-0.947
	c-0.388-0.54-0.782-1.075-1.187-1.602c-0.24-0.312-0.482-0.621-0.728-0.927c-0.415-0.519-0.839-1.031-1.271-1.536
	c-0.25-0.292-0.5-0.585-0.755-0.873c-0.457-0.515-0.926-1.018-1.399-1.517c-0.245-0.258-0.487-0.52-0.736-0.773
	c-0.532-0.542-1.08-1.068-1.632-1.589c-0.206-0.194-0.405-0.395-0.614-0.586c-0.768-0.705-1.551-1.394-2.355-2.06c0,0,0,0,0.001,0
	c-10.528-8.722-24.035-13.964-38.764-13.964h-31.696c28.237-18.273,46.929-50.076,46.929-86.254
	c0-56.676-45.869-102.619-102.451-102.619c-56.582,0-102.451,45.943-102.451,102.619c0,36.178,18.692,67.98,46.929,86.254H90.033
	c-33.614,0-60.864,27.295-60.864,60.964V495H250v-29.654C250,459.433,254.794,454.639,260.707,454.639z"/>
<g>
	<path class="st0" d="M409.967,304.346h-29.114c-15.998,10.353-35.058,16.365-55.521,16.365c-7.589,0-14.982-0.834-22.1-2.402
		c13.498,11.183,22.1,28.085,22.1,47.001v89.329h-64.625c-5.913,0-10.707,4.794-10.707,10.707V495h75.332h35.013h80.583
		c16.514,0,29.902-13.387,29.902-29.902V365.31C470.83,331.641,443.581,304.346,409.967,304.346z"/>
</g>
<g>
	<path class="st2" d="M325.332,115.472c-29.113,0-55.389,12.164-74.041,31.694c17.599,18.427,28.411,43.41,28.411,70.925
		c0,36.178-18.693,67.98-46.929,86.254h31.696c15.986,0,30.525,6.183,41.385,16.278c10.55,0.059,18.052,0.088,19.478,0.088
		c56.582,0,102.451-45.945,102.451-102.62C427.783,161.415,381.915,115.472,325.332,115.472z"/>
</g>
<path class="st4" d="M86.975,361.522V495c0,2.762-2.238,5-5,5s-5-2.238-5-5V361.522c0-2.762,2.238-5,5-5
	S86.975,358.761,86.975,361.522z M475.83,365.31v99.789c0,19.245-15.656,34.901-34.901,34.901H260.707H250h-34.606
	c-2.762,0-5-2.238-5-5s2.238-5,5-5H245v-24.654c0-8.661,7.046-15.707,15.707-15.707h6.82v-88.116c0-2.762,2.238-5,5-5s5,2.238,5,5
	v88.116h42.805V365.31c0-30.858-25.061-55.964-55.863-55.964h-30.239c-7.063,4.433-14.577,7.984-22.387,10.643
	c-0.079,0.027-0.158,0.055-0.237,0.082c-0.727,0.246-1.456,0.483-2.188,0.713c-0.292,0.092-0.585,0.18-0.878,0.269
	c-0.987,0.3-1.979,0.587-2.975,0.859c-0.565,0.155-1.129,0.31-1.698,0.456c-0.491,0.125-0.984,0.244-1.478,0.362
	c-0.626,0.15-1.254,0.296-1.884,0.436c-0.423,0.093-0.845,0.189-1.27,0.277c-1.023,0.214-2.051,0.416-3.085,0.601
	c-0.234,0.042-0.47,0.077-0.704,0.117c-0.883,0.151-1.77,0.292-2.66,0.422c-0.332,0.048-0.664,0.095-0.997,0.14
	c-0.924,0.125-1.852,0.24-2.783,0.342c-0.192,0.021-0.383,0.046-0.575,0.066c-1.114,0.116-2.234,0.213-3.358,0.294
	c-0.274,0.02-0.549,0.035-0.823,0.053c-0.88,0.057-1.762,0.103-2.647,0.139c-0.318,0.013-0.635,0.026-0.953,0.036
	c-1.13,0.036-2.262,0.06-3.401,0.06s-2.271-0.024-3.4-0.06c-0.318-0.01-0.636-0.023-0.954-0.036
	c-0.885-0.036-1.766-0.082-2.645-0.139c-0.275-0.018-0.551-0.033-0.826-0.053c-1.123-0.081-2.242-0.178-3.355-0.293
	c-0.195-0.021-0.389-0.046-0.584-0.067c-0.928-0.102-1.852-0.215-2.772-0.34c-0.335-0.046-0.67-0.093-1.004-0.142
	c-0.885-0.129-1.765-0.269-2.643-0.419c-0.24-0.041-0.482-0.077-0.722-0.12c-1.03-0.184-2.054-0.385-3.074-0.598
	c-0.431-0.09-0.859-0.187-1.289-0.282c-0.621-0.138-1.24-0.281-1.858-0.43c-0.5-0.12-1-0.24-1.499-0.367
	c-0.545-0.14-1.087-0.289-1.629-0.437c-1.026-0.279-2.047-0.575-3.063-0.884c-0.28-0.086-0.56-0.169-0.839-0.257
	c-0.74-0.232-1.476-0.472-2.21-0.72c-0.066-0.022-0.132-0.045-0.198-0.068c-7.82-2.659-15.343-6.214-22.415-10.652H90.033
	c-30.803,0-55.863,25.105-55.863,55.964V495c0,2.762-2.238,5-5,5s-5-2.238-5-5V365.31c0-36.373,29.546-65.964,65.863-65.964h16.836
	c-22.696-19.747-37.07-48.851-37.07-81.255c0-59.342,48.202-107.619,107.451-107.619s107.451,48.277,107.451,107.619
	c0,32.404-14.374,61.508-37.07,81.255h16.836c36.317,0,65.863,29.591,65.863,65.964v84.329h78.381c3.391,0,6.149-2.759,6.149-6.15
	v-81.966c0-2.762,2.238-5,5-5s5,2.238,5,5v81.966c0,8.905-7.244,16.15-16.149,16.15H260.707c-3.146,0-5.707,2.561-5.707,5.707V490
	h5.707h180.222c13.73,0,24.901-11.171,24.901-24.901V365.31c0-30.858-25.061-55.964-55.863-55.964h-27.615
	c-15.903,10.001-34.217,15.667-53.389,16.305c-0.057,0.002-0.113,0.003-0.169,0.003c-2.685,0-4.904-2.13-4.994-4.834
	c-0.092-2.76,2.071-5.071,4.831-5.163c17.924-0.597,34.526-5.935,48.642-14.792c0.515-0.529,1.149-0.934,1.856-1.194
	c26.418-17.429,43.654-47.398,43.654-81.579c0-53.827-43.717-97.619-97.451-97.619c-21.103,0-41.182,6.645-58.066,19.216
	c-2.218,1.647-5.349,1.19-6.997-1.024c-1.648-2.216-1.19-5.348,1.024-6.997c18.624-13.865,40.769-21.194,64.039-21.194
	c59.249,0,107.451,48.277,107.451,107.619c0,28.111-10.755,54.707-30.283,74.89c-2.157,2.229-4.4,4.348-6.713,6.365h14.18
	C446.284,299.346,475.83,328.937,475.83,365.31z M147.935,311.194c0.213,0.067,0.427,0.136,0.64,0.202
	c0.621,0.192,1.245,0.379,1.872,0.559c0.383,0.109,0.768,0.212,1.153,0.317c0.827,0.226,1.659,0.441,2.495,0.646
	c0.56,0.137,1.12,0.272,1.682,0.399c0.423,0.096,0.847,0.188,1.272,0.278c0.719,0.152,1.441,0.296,2.164,0.432
	c0.257,0.048,0.513,0.102,0.771,0.148c0.974,0.175,1.952,0.332,2.932,0.477c0.299,0.044,0.6,0.085,0.899,0.126
	c0.804,0.111,1.61,0.213,2.418,0.305c0.243,0.027,0.485,0.058,0.729,0.083c1.026,0.108,2.054,0.201,3.085,0.277
	c0.213,0.016,0.428,0.026,0.642,0.041c0.85,0.057,1.702,0.102,2.555,0.137c0.286,0.011,0.571,0.023,0.857,0.033
	c1.048,0.034,2.097,0.056,3.149,0.056s2.102-0.022,3.15-0.056c0.286-0.009,0.571-0.021,0.856-0.033
	c0.854-0.035,1.707-0.081,2.558-0.138c0.212-0.014,0.426-0.025,0.638-0.041c1.032-0.076,2.061-0.168,3.088-0.277
	c0.241-0.025,0.481-0.056,0.722-0.083c0.811-0.092,1.621-0.194,2.428-0.306c0.297-0.042,0.594-0.082,0.891-0.125
	c0.983-0.145,1.963-0.302,2.939-0.478c0.251-0.045,0.5-0.097,0.75-0.144c0.731-0.137,1.461-0.283,2.188-0.437
	c0.42-0.089,0.839-0.18,1.256-0.274c0.573-0.129,1.143-0.267,1.712-0.406c0.81-0.199,1.616-0.407,2.418-0.626
	c0.406-0.11,0.812-0.219,1.217-0.335c0.619-0.178,1.235-0.362,1.849-0.552c0.225-0.069,0.449-0.141,0.674-0.211
	c39.444-12.5,68.116-49.506,68.116-93.098c0-53.827-43.717-97.619-97.451-97.619S79.8,164.264,79.8,218.091
	C79.8,261.69,108.482,298.701,147.935,311.194z M313.975,262.63c-8.971,0-17.313,4.04-22.885,11.084
	c-1.714,2.166-1.347,5.311,0.818,7.023c2.167,1.714,5.312,1.348,7.023-0.818c3.665-4.633,9.147-7.289,15.043-7.289
	s11.378,2.656,15.043,7.289c0.986,1.247,2.448,1.897,3.924,1.897c1.087,0,2.181-0.353,3.1-1.079
	c2.165-1.713,2.532-4.857,0.818-7.023C331.287,266.67,322.945,262.63,313.975,262.63z M355.178,221.441
	c7.251,0,13.991-3.265,18.494-8.958c1.713-2.166,1.346-5.311-0.82-7.023c-2.163-1.712-5.309-1.347-7.023,0.82
	c-2.594,3.28-6.476,5.161-10.65,5.161s-8.058-1.881-10.651-5.161c-1.715-2.168-4.86-2.531-7.023-0.82
	c-2.166,1.713-2.533,4.857-0.82,7.023C341.186,218.177,347.927,221.441,355.178,221.441z M165.717,21.534h6.534v6.535
	c0,2.762,2.238,5,5,5s5-2.238,5-5v-6.535h6.534c2.762,0,5-2.238,5-5s-2.238-5-5-5h-6.534V5c0-2.762-2.238-5-5-5s-5,2.238-5,5v6.534
	h-6.534c-2.762,0-5,2.238-5,5S162.955,21.534,165.717,21.534z M318.743,21.534h6.535v6.535c0,2.762,2.238,5,5,5s5-2.238,5-5v-6.535
	h6.534c2.762,0,5-2.238,5-5s-2.238-5-5-5h-6.534V5c0-2.762-2.238-5-5-5s-5,2.238-5,5v6.534h-6.535c-2.762,0-5,2.238-5,5
	S315.981,21.534,318.743,21.534z M196.331,490h-5.021c-2.762,0-5,2.238-5,5s2.238,5,5,5h5.021c2.762,0,5-2.238,5-5
	S199.093,490,196.331,490z"/>
</svg>
