<?xml version="1.0" encoding="utf-8"?>
<!-- Generator: Adobe Illustrator 23.0.0, SVG Export Plug-In . SVG Version: 6.00 Build 0)  -->
<svg version="1.1" id="Layer_1" xmlns="http://www.w3.org/2000/svg" xmlns:xlink="http://www.w3.org/1999/xlink" x="0px" y="0px"
	 viewBox="0 0 500 500" style="enable-background:new 0 0 500 500;" xml:space="preserve">
<style type="text/css">
	.st0{fill:#83E1E5;}
	.st1{fill:#AAB1BA;}
	.st2{fill:#FDDF7F;}
	.st3{fill:#ECF4F7;}
	.st4{fill:#1C1D21;}
</style>
<g>
	<path class="st3" d="M343.881,142.187V5h-30.227v118.402C324.837,127.882,335.047,134.278,343.881,142.187z"/>
</g>
<g>
	<path class="st3" d="M254.253,118.348V5h-30.227v125.064C233.276,124.649,243.449,120.646,254.253,118.348z"/>
</g>
<g>
	<path class="st1" d="M173.189,218.722c0-37.821,20.43-70.858,50.836-88.657V54.666c0-27.43-22.2-49.666-49.585-49.666
		c-27.385,0-49.585,22.236-49.585,49.666v183.373h50.154C173.819,231.782,173.189,225.326,173.189,218.722z"/>
</g>
<g>
	<path class="st3" d="M94.628,5v101.199h3.019c2.125,0,3.848,1.723,3.848,3.848v26.784c0,2.124-1.723,3.848-3.848,3.848h-3.019
		v97.36h30.227V5H94.628z"/>
</g>
<g>
	<rect x="5" y="5" class="st3" width="30.227" height="233.039"/>
</g>
<g>
	<path class="st1" d="M98.067,140.678H80.735c-4.89,0-8.854-3.964-8.854-8.854v-16.771c0-4.89,3.964-8.854,8.854-8.854h17.331
		c1.893,0,3.428,1.535,3.428,3.428v27.624C101.495,139.143,99.96,140.678,98.067,140.678z"/>
</g>
<g>
	<g>
		<ellipse class="st2" cx="275.64" cy="218.721" rx="102.451" ry="102.619"/>
	</g>
</g>
<g>
	<g>
		<path class="st0" d="M362.858,304.976h-31.697c-15.998,10.354-35.057,16.365-55.521,16.365c-20.463,0-39.523-6.012-55.521-16.365
			h-31.697c-33.614,0-60.864,27.295-60.864,60.964V495H275.64h148.081V365.939C423.721,332.271,396.472,304.976,362.858,304.976z"/>
	</g>
</g>
<g>
	<g>
		<rect x="127.559" y="385.969" class="st2" width="52.805" height="109.031"/>
	</g>
</g>
<g>
	<g>
		<rect x="370.917" y="385.969" class="st2" width="52.805" height="109.031"/>
	</g>
</g>
<g>
	<circle class="st3" cx="219.931" cy="192.142" r="17.988"/>
</g>
<g>
	<circle class="st3" cx="307.187" cy="192.142" r="17.988"/>
</g>
<path class="st4" d="M249.252,101.122V5c0-2.762,2.239-5,5-5s5,2.238,5,5v96.122c0,2.762-2.239,5-5,5
	S249.252,103.884,249.252,101.122z M343.881,123.96c2.761,0,5-2.238,5-5V5c0-2.762-2.239-5-5-5s-5,2.238-5,5v113.96
	C338.881,121.722,341.12,123.96,343.881,123.96z M313.653,106.122c2.761,0,5-2.238,5-5V5c0-2.762-2.239-5-5-5s-5,2.238-5,5v96.122
	C308.653,103.884,310.892,106.122,313.653,106.122z M35.227,243.039c2.761,0,5-2.238,5-5V5c0-2.762-2.239-5-5-5s-5,2.238-5,5
	v233.039C30.227,240.801,32.466,243.039,35.227,243.039z M5,243.039c2.761,0,5-2.238,5-5V5c0-2.762-2.239-5-5-5S0,2.238,0,5v233.039
	C0,240.801,2.239,243.039,5,243.039z M66.881,131.824v-16.771c0-7.639,6.215-13.854,13.854-13.854h8.893V5c0-2.762,2.239-5,5-5
	s5,2.238,5,5v96.35c3.903,0.735,6.866,4.164,6.866,8.277v0.419v26.785v0.419c0,4.113-2.964,7.542-6.866,8.277v92.511
	c0,2.762-2.239,5-5,5s-5-2.238-5-5v-92.36h-8.893C73.096,145.678,66.881,139.463,66.881,131.824z M76.881,131.824
	c0,2.125,1.729,3.854,3.854,3.854h15.759v-24.479H80.735c-2.125,0-3.854,1.729-3.854,3.854V131.824z M119.855,238.038V5
	c0-2.762,2.239-5,5-5s5,2.238,5,5v18.188C139.748,9.176,156.039,0,174.44,0c18.401,0,34.692,9.175,44.585,23.188V5
	c0-2.762,2.239-5,5-5s5,2.238,5,5v104.272c0,2.762-2.239,5-5,5s-5-2.238-5-5V86.145c-9.893,14.013-26.184,23.188-44.585,23.188
	c-18.401,0-34.692-9.176-44.585-23.188v151.894c0,2.762-2.239,5-5,5S119.855,240.8,119.855,238.038z M129.856,54.666
	c0,24.629,20,44.666,44.584,44.666s44.585-20.037,44.585-44.666S199.024,10,174.44,10S129.856,30.037,129.856,54.666z
	 M158.715,79.116c2.167,1.712,5.311,1.347,7.023-0.82c2.12-2.679,5.291-4.216,8.702-4.216s6.583,1.537,8.702,4.216
	c0.987,1.248,2.449,1.898,3.925,1.898c1.086,0,2.18-0.353,3.099-1.078c2.166-1.714,2.533-4.858,0.819-7.023
	C186.958,67,180.927,64.08,174.44,64.08c-6.486,0-12.517,2.92-16.544,8.013C156.183,74.258,156.55,77.402,158.715,79.116z
	 M275.64,111.102c59.249,0,107.451,48.278,107.451,107.62c0,32.403-14.374,61.507-37.07,81.254h16.836
	c36.317,0,65.864,29.591,65.864,65.964v110.719c0,2.762-2.239,5-5,5s-5-2.238-5-5v-85.689h-42.805v85.689c0,2.762-2.239,5-5,5
	s-5-2.238-5-5V362.153c0-2.762,2.239-5,5-5s5,2.238,5,5v18.815h42.805v-15.029c0-30.858-25.061-55.964-55.864-55.964h-30.24
	c-7.066,4.435-14.582,7.987-22.396,10.646c-0.075,0.026-0.149,0.053-0.224,0.078c-0.728,0.246-1.459,0.484-2.193,0.714
	c-0.29,0.092-0.582,0.179-0.872,0.268c-0.996,0.304-1.996,0.593-3.001,0.867c-0.557,0.152-1.113,0.306-1.673,0.448
	c-0.494,0.127-0.989,0.245-1.485,0.364c-0.623,0.15-1.248,0.294-1.875,0.434c-0.425,0.094-0.849,0.189-1.276,0.278
	c-1.023,0.214-2.05,0.416-3.083,0.601c-0.235,0.042-0.471,0.077-0.706,0.117c-0.883,0.151-1.769,0.292-2.659,0.422
	c-0.332,0.048-0.663,0.095-0.996,0.14c-0.925,0.126-1.854,0.24-2.787,0.343c-0.19,0.021-0.38,0.046-0.571,0.065
	c-1.114,0.116-2.234,0.213-3.358,0.294c-0.275,0.021-0.55,0.035-0.825,0.053c-0.879,0.057-1.761,0.104-2.646,0.139
	c-0.318,0.013-0.635,0.026-0.953,0.036c-1.13,0.035-2.262,0.06-3.4,0.06s-2.271-0.024-3.4-0.06c-0.318-0.01-0.636-0.023-0.953-0.036
	c-0.885-0.035-1.767-0.082-2.646-0.139c-0.275-0.018-0.55-0.032-0.825-0.053c-1.124-0.081-2.244-0.178-3.358-0.294
	c-0.191-0.02-0.38-0.045-0.571-0.065c-0.933-0.103-1.861-0.217-2.787-0.343c-0.332-0.045-0.664-0.092-0.996-0.14
	c-0.89-0.13-1.777-0.271-2.659-0.422c-0.235-0.04-0.471-0.075-0.706-0.117c-1.033-0.185-2.06-0.387-3.083-0.601
	c-0.426-0.089-0.851-0.185-1.276-0.278c-0.627-0.14-1.252-0.283-1.875-0.434c-0.496-0.119-0.991-0.237-1.485-0.364
	c-0.56-0.143-1.116-0.296-1.673-0.448c-1.005-0.274-2.005-0.563-3.001-0.867c-0.291-0.089-0.583-0.176-0.872-0.268
	c-0.733-0.229-1.464-0.468-2.193-0.714c-0.075-0.025-0.149-0.052-0.224-0.078c-7.814-2.658-15.33-6.211-22.396-10.646h-30.24
	c-30.803,0-55.863,25.105-55.863,55.964v15.029h42.805v-18.815c0-2.762,2.239-5,5-5s5,2.238,5,5v114.505c0,2.762-2.239,5-5,5
	s-5-2.238-5-5v-85.689h-42.805v85.689c0,2.762-2.239,5-5,5s-5-2.238-5-5V365.939c0-36.373,29.546-65.964,65.863-65.964h16.836
	c-22.696-19.747-37.07-48.851-37.07-81.254C168.189,159.38,216.392,111.102,275.64,111.102z M178.189,218.722
	c0,43.592,28.673,80.599,68.118,93.097c0.224,0.071,0.447,0.143,0.671,0.211c0.615,0.19,1.231,0.375,1.851,0.553
	c0.402,0.115,0.806,0.224,1.209,0.333c0.805,0.22,1.614,0.43,2.427,0.629c0.569,0.14,1.138,0.276,1.71,0.405
	c0.418,0.095,0.837,0.186,1.257,0.275c0.728,0.153,1.458,0.299,2.189,0.437c0.25,0.047,0.498,0.099,0.749,0.145
	c0.977,0.175,1.957,0.332,2.94,0.478c0.296,0.044,0.593,0.084,0.89,0.125c0.808,0.111,1.617,0.214,2.429,0.306
	c0.241,0.027,0.481,0.058,0.722,0.083c1.027,0.108,2.056,0.201,3.088,0.277c0.212,0.016,0.426,0.026,0.638,0.04
	c0.851,0.058,1.704,0.103,2.558,0.138c0.285,0.012,0.57,0.023,0.856,0.032c1.048,0.034,2.098,0.057,3.15,0.057
	s2.102-0.022,3.15-0.057c0.286-0.009,0.571-0.021,0.856-0.032c0.854-0.035,1.707-0.08,2.558-0.138
	c0.213-0.014,0.426-0.024,0.638-0.04c1.032-0.076,2.061-0.169,3.088-0.277c0.241-0.025,0.481-0.056,0.722-0.083
	c0.812-0.092,1.621-0.194,2.429-0.306c0.297-0.041,0.594-0.081,0.89-0.125c0.983-0.146,1.963-0.303,2.94-0.478
	c0.251-0.046,0.499-0.098,0.749-0.145c0.732-0.138,1.461-0.283,2.189-0.437c0.42-0.09,0.839-0.181,1.257-0.275
	c0.572-0.129,1.141-0.266,1.71-0.405c0.813-0.199,1.622-0.409,2.427-0.629c0.404-0.109,0.807-0.218,1.209-0.333
	c0.62-0.178,1.236-0.362,1.851-0.553c0.224-0.068,0.447-0.14,0.671-0.211c39.445-12.498,68.118-49.505,68.118-93.097
	c0-53.828-43.716-97.62-97.451-97.62S178.189,164.894,178.189,218.722z M196.943,192.142c0-12.675,10.313-22.987,22.988-22.987
	s22.988,10.313,22.988,22.987c0,12.676-10.313,22.988-22.988,22.988S196.943,204.817,196.943,192.142z M206.943,192.142
	c0,7.162,5.826,12.988,12.988,12.988s12.988-5.826,12.988-12.988c0-7.161-5.826-12.987-12.988-12.987
	S206.943,184.98,206.943,192.142z M284.199,192.142c0-12.675,10.313-22.987,22.988-22.987s22.988,10.313,22.988,22.987
	c0,12.676-10.313,22.988-22.988,22.988S284.199,204.817,284.199,192.142z M294.199,192.142c0,7.162,5.826,12.988,12.988,12.988
	s12.988-5.826,12.988-12.988c0-7.161-5.826-12.987-12.988-12.987S294.199,184.98,294.199,192.142z M237.595,252.886
	c0,2.762,2.239,5,5,5h37.928c2.761,0,5-2.238,5-5s-2.239-5-5-5h-37.928C239.833,247.886,237.595,250.124,237.595,252.886z
	 M28.069,296.372h-6.534v-6.534c0-2.762-2.239-5-5-5s-5,2.238-5,5v6.534H5c-2.761,0-5,2.238-5,5s2.239,5,5,5h6.535v6.534
	c0,2.762,2.239,5,5,5s5-2.238,5-5v-6.534h6.534c2.761,0,5-2.238,5-5S30.83,296.372,28.069,296.372z M88.65,317.906
	c2.761,0,5-2.238,5-5v-6.534h6.535c2.761,0,5-2.238,5-5s-2.239-5-5-5H93.65v-6.534c0-2.762-2.239-5-5-5s-5,2.238-5,5v6.534h-6.534
	c-2.761,0-5,2.238-5,5s2.239,5,5,5h6.534v6.534C83.65,315.668,85.889,317.906,88.65,317.906z M439.108,490H60.892
	c-2.761,0-5,2.238-5,5s2.239,5,5,5h378.216c2.761,0,5-2.238,5-5S441.869,490,439.108,490z M42.478,490h-3.813c-2.761,0-5,2.238-5,5
	s2.239,5,5,5h3.813c2.761,0,5-2.238,5-5S45.239,490,42.478,490z M461.335,490h-3.813c-2.761,0-5,2.238-5,5s2.239,5,5,5h3.813
	c2.761,0,5-2.238,5-5S464.097,490,461.335,490z"/>
</svg>
