<?xml version="1.0" encoding="utf-8"?>
<!-- Generator: Adobe Illustrator 23.0.0, SVG Export Plug-In . SVG Version: 6.00 Build 0)  -->
<svg version="1.1" id="Layer_1" xmlns="http://www.w3.org/2000/svg" xmlns:xlink="http://www.w3.org/1999/xlink" x="0px" y="0px"
	 viewBox="0 0 500 500" style="enable-background:new 0 0 500 500;" xml:space="preserve">
<style type="text/css">
	.st0{fill:#83E1E5;}
	.st1{fill:#AAB1BA;}
	.st2{fill:#FDDF7F;}
	.st3{fill:#ECF4F7;}
	.st4{fill:#1C1D21;}
</style>
<g>
	<path class="st2" d="M410.733,137.969h-67.316c-16.065-35.63-51.85-60.425-93.417-60.425s-77.352,24.795-93.417,60.425h110.49
		v84.39h-110.49c16.065,35.629,51.85,60.425,93.417,60.425s77.352-24.796,93.417-60.425h67.316c13.647,0,24.71-11.063,24.71-24.71
		V162.68C435.444,149.032,424.381,137.969,410.733,137.969z"/>
</g>
<g>
	<g>
		<path class="st0" d="M337.218,266.418h-31.697c-15.998,10.353-35.058,16.365-55.521,16.365c-20.463,0-39.523-6.013-55.521-16.365
			h-31.697c-33.614,0-60.864,27.295-60.864,60.964V495H250h148.081V327.382C398.081,293.713,370.832,266.418,337.218,266.418z"/>
	</g>
</g>
<g>
	<g>
		<rect x="101.919" y="363.254" class="st2" width="52.805" height="131.746"/>
	</g>
</g>
<g>
	<g>
		<rect x="345.276" y="363.254" class="st2" width="52.805" height="131.746"/>
	</g>
</g>
<path class="st4" d="M283.631,16.534c0-2.762,2.238-5,5-5h6.534V5c0-2.762,2.238-5,5-5s5,2.238,5,5v6.534h6.535c2.762,0,5,2.238,5,5
	s-2.238,5-5,5h-6.535v6.535c0,2.762-2.238,5-5,5s-5-2.238-5-5v-6.535h-6.534C285.869,21.534,283.631,19.296,283.631,16.534z
	 M238.466,21.534H245v6.535c0,2.762,2.238,5,5,5s5-2.238,5-5v-6.535h6.534c2.762,0,5-2.238,5-5s-2.238-5-5-5H255V5
	c0-2.762-2.238-5-5-5s-5,2.238-5,5v6.534h-6.534c-2.762,0-5,2.238-5,5S235.704,21.534,238.466,21.534z M188.3,21.534h6.535v6.535
	c0,2.762,2.238,5,5,5s5-2.238,5-5v-6.535h6.534c2.762,0,5-2.238,5-5s-2.238-5-5-5h-6.534V5c0-2.762-2.238-5-5-5s-5,2.238-5,5v6.534
	H188.3c-2.762,0-5,2.238-5,5S185.538,21.534,188.3,21.534z M439.108,490H60.892c-2.762,0-5,2.238-5,5s2.238,5,5,5h378.217
	c2.762,0,5-2.238,5-5S441.87,490,439.108,490z M42.478,490h-3.813c-2.762,0-5,2.238-5,5s2.238,5,5,5h3.813c2.762,0,5-2.238,5-5
	S45.239,490,42.478,490z M461.335,490h-3.813c-2.762,0-5,2.238-5,5s2.238,5,5,5h3.813c2.762,0,5-2.238,5-5S464.097,490,461.335,490z
	 M326.873,196.475c-2.762,0-5,2.238-5,5s2.238,5,5,5h25.396c2.762,0,5-2.238,5-5s-2.238-5-5-5H326.873z M370.719,178.207
	c5.965,0,11.512-2.687,15.217-7.37c1.714-2.166,1.347-5.311-0.818-7.023c-2.166-1.712-5.311-1.347-7.023,0.818
	c-1.798,2.272-4.485,3.575-7.375,3.575s-5.578-1.303-7.376-3.575c-1.714-2.166-4.857-2.531-7.023-0.818
	c-2.165,1.713-2.532,4.857-0.818,7.023C359.206,175.521,364.753,178.207,370.719,178.207z M322.822,163.813
	c-2.163-1.712-5.311-1.347-7.023,0.82c-1.796,2.271-4.484,3.574-7.374,3.574s-5.577-1.303-7.375-3.575
	c-1.713-2.166-4.857-2.531-7.023-0.818c-2.165,1.713-2.532,4.857-0.818,7.023c3.705,4.684,9.252,7.37,15.217,7.37
	c5.967,0,11.514-2.687,15.218-7.371C325.355,168.67,324.988,165.525,322.822,163.813z M101.919,481.658c2.762,0,5-2.238,5-5V368.254
	h42.805v108.404c0,2.762,2.238,5,5,5s5-2.238,5-5V323.596c0-2.762-2.238-5-5-5s-5,2.238-5,5v34.658h-42.805v-30.872
	c0-30.858,25.061-55.964,55.863-55.964h30.239c13.429,8.429,28.473,13.71,44.137,15.585c0.051,0.006,0.101,0.013,0.152,0.019
	c0.891,0.105,1.785,0.2,2.68,0.283c0.352,0.033,0.704,0.063,1.056,0.093c0.706,0.059,1.411,0.115,2.119,0.16
	c0.607,0.039,1.216,0.066,1.824,0.096c0.511,0.023,1.022,0.053,1.534,0.069c1.157,0.038,2.316,0.061,3.477,0.061
	s2.32-0.022,3.477-0.061c0.512-0.017,1.023-0.046,1.534-0.069c0.608-0.029,1.217-0.057,1.824-0.096
	c0.708-0.045,1.413-0.102,2.119-0.16c0.352-0.03,0.704-0.06,1.056-0.093c0.895-0.083,1.788-0.178,2.68-0.283
	c0.051-0.006,0.101-0.013,0.151-0.019c15.665-1.875,30.708-7.156,44.137-15.585h30.239c30.803,0,55.863,25.105,55.863,55.964v30.872
	h-42.805v-34.658c0-2.762-2.238-5-5-5s-5,2.238-5,5v153.063c0,2.762,2.238,5,5,5s5-2.238,5-5V368.254h42.805v108.404
	c0,2.762,2.238,5,5,5s5-2.238,5-5V327.382c0-36.373-29.546-65.964-65.863-65.964h-16.83c6.151-5.332,11.74-11.384,16.605-18.095
	c1.621-2.235,1.123-5.362-1.113-6.982c-2.234-1.622-5.361-1.123-6.982,1.113c-16.498,22.757-42.082,37.244-69.735,39.886
	c-0.332,0.031-0.665,0.063-0.997,0.09c-0.626,0.054-1.252,0.101-1.88,0.143c-0.572,0.036-1.146,0.065-1.719,0.092
	c-0.455,0.021-0.909,0.047-1.365,0.062c-1.065,0.035-2.133,0.058-3.202,0.058s-2.136-0.022-3.202-0.058
	c-0.456-0.015-0.91-0.04-1.365-0.062c-0.573-0.026-1.147-0.056-1.719-0.092c-0.627-0.042-1.254-0.089-1.88-0.143
	c-0.333-0.027-0.665-0.059-0.997-0.09c-27.653-2.642-53.237-17.129-69.735-39.886c-1.619-2.236-4.746-2.732-6.982-1.113
	c-2.236,1.62-2.734,4.747-1.113,6.982c4.865,6.711,10.454,12.763,16.605,18.095h-16.83c-36.317,0-65.863,29.591-65.863,65.964
	v149.276C96.919,479.42,99.157,481.658,101.919,481.658z M164.336,123.681c2.229,1.63,5.358,1.144,6.986-1.088
	c18.318-25.077,47.73-40.049,78.678-40.049s60.359,14.972,78.678,40.049c0.979,1.341,2.499,2.051,4.041,2.051
	c1.023,0,2.056-0.313,2.945-0.963c2.229-1.628,2.717-4.757,1.088-6.986c-20.193-27.646-52.624-44.15-86.752-44.15
	s-66.559,16.505-86.752,44.15C161.619,118.924,162.106,122.053,164.336,123.681z M131.871,227.358h278.862
	c16.383,0,29.711-13.328,29.711-29.711V162.68c0-16.383-13.328-29.711-29.711-29.711H131.871c-2.762,0-5,2.238-5,5s2.238,5,5,5
	h278.862c10.869,0,19.711,8.843,19.711,19.711v34.968c0,10.868-8.842,19.711-19.711,19.711H131.871c-2.762,0-5,2.238-5,5
	S129.109,227.358,131.871,227.358z M131.871,169.298h135.201c2.762,0,5-2.238,5-5s-2.238-5-5-5H131.871c-2.762,0-5,2.238-5,5
	S129.109,169.298,131.871,169.298z M106.235,169.298h6.158c2.762,0,5-2.238,5-5s-2.238-5-5-5h-6.158c-2.762,0-5,2.238-5,5
	S103.474,169.298,106.235,169.298z M106.235,142.969h6.158c2.762,0,5-2.238,5-5s-2.238-5-5-5h-6.158c-2.762,0-5,2.238-5,5
	S103.474,142.969,106.235,142.969z M106.235,227.358h6.158c2.762,0,5-2.238,5-5s-2.238-5-5-5h-6.158c-2.762,0-5,2.238-5,5
	S103.474,227.358,106.235,227.358z M131.871,201.029h135.201c2.762,0,5-2.238,5-5s-2.238-5-5-5H131.871c-2.762,0-5,2.238-5,5
	S129.109,201.029,131.871,201.029z M106.235,201.029h6.158c2.762,0,5-2.238,5-5s-2.238-5-5-5h-6.158c-2.762,0-5,2.238-5,5
	S103.474,201.029,106.235,201.029z"/>
</svg>
