<?xml version="1.0" encoding="utf-8"?>
<!-- Generator: Adobe Illustrator 23.0.0, SVG Export Plug-In . SVG Version: 6.00 Build 0)  -->
<svg version="1.1" id="Layer_1" xmlns="http://www.w3.org/2000/svg" xmlns:xlink="http://www.w3.org/1999/xlink" x="0px" y="0px"
	 viewBox="0 0 500 500" style="enable-background:new 0 0 500 500;" xml:space="preserve">
<style type="text/css">
	.st0{fill:#83E1E5;}
	.st1{fill:#AAB1BA;}
	.st2{fill:#FDDF7F;}
	.st3{fill:#ECF4F7;}
	.st4{fill:#1C1D21;}
</style>
<g>
	<path class="st0" d="M469.127,242.636c4.14-8.35,2.304-18.558-4.745-24.655c-0.05-0.043-0.101-0.087-0.151-0.13L317.553,93.004
		c-10.515-8.947-26.293-7.681-35.242,2.834c-3.292,3.868-5.197,8.449-5.771,13.14c36.857,9.875,65.52,39.818,73.607,77.429
		l62.572,53.259l-65.967,117.518c-2.451,4.367-7.069,7.07-12.076,7.07h-25.191c-9.045,7.992-32.261,13.681-59.485,13.681
		s-50.44-5.688-59.485-13.681h-25.191c-5.008,0-9.625-2.703-12.076-7.07L87.281,239.666l62.572-53.259
		c8.087-37.61,36.75-67.554,73.607-77.429c-0.575-4.69-2.479-9.271-5.771-13.14c-8.949-10.515-24.727-11.781-35.242-2.834
		L35.769,217.851c-0.051,0.043-0.101,0.086-0.151,0.13c-7.05,6.097-8.886,16.305-4.745,24.655l94.823,191.239
		c1.563,3.047,2.379,6.423,2.379,9.848V495h243.853v-51.276c0-3.425,0.815-6.801,2.379-9.848L469.127,242.636z"/>
</g>
<g>
	<ellipse class="st1" cx="250" cy="356.83" rx="63.539" ry="21.104"/>
</g>
<g>
	<path class="st2" d="M368.003,135.946l-50.45-42.941c-10.515-8.947-26.293-7.681-35.242,2.834
		c-3.292,3.868-5.196,8.448-5.771,13.139c0.012,0.003,0.025,0.007,0.037,0.011c-8.477-2.274-17.384-3.495-26.577-3.495
		c-9.193,0-18.099,1.22-26.576,3.494c0.012-0.003,0.024-0.007,0.036-0.01c-0.575-4.69-2.479-9.271-5.771-13.139
		c-8.949-10.515-24.727-11.781-35.242-2.834l-50.45,42.941l25.675,27.637c-6.487,13.469-10.123,28.574-10.123,44.53
		c0,56.675,45.869,102.619,102.451,102.619c56.582,0,102.451-45.944,102.451-102.619c0-15.956-3.636-31.062-10.123-44.53
		L368.003,135.946z"/>
</g>
<g>
	<circle class="st3" cx="206.372" cy="176.934" r="17.988"/>
</g>
<g>
	<circle class="st3" cx="293.628" cy="176.934" r="17.988"/>
</g>
<path class="st4" d="M206.372,199.922c12.675,0,22.987-10.313,22.987-22.987c0-12.676-10.313-22.988-22.987-22.988
	s-22.987,10.313-22.987,22.988C183.385,189.609,193.697,199.922,206.372,199.922z M206.372,163.946
	c7.161,0,12.987,5.826,12.987,12.988c0,7.161-5.826,12.987-12.987,12.987s-12.987-5.826-12.987-12.987
	C193.385,169.772,199.211,163.946,206.372,163.946z M293.628,199.922c12.675,0,22.987-10.313,22.987-22.987
	c0-12.676-10.313-22.988-22.987-22.988s-22.987,10.313-22.987,22.988C270.641,189.609,280.953,199.922,293.628,199.922z
	 M293.628,163.946c7.161,0,12.987,5.826,12.987,12.988c0,7.161-5.826,12.987-12.987,12.987s-12.987-5.826-12.987-12.987
	C280.641,169.772,286.467,163.946,293.628,163.946z M351.112,359.631l65.967-117.518c1.17-2.084,0.701-4.705-1.119-6.255
	l-61.304-52.18C343.578,136.069,300.86,100.493,250,100.493c-50.861,0-93.579,35.576-104.656,83.187L84.04,235.858
	c-1.82,1.55-2.289,4.171-1.119,6.255l65.967,117.518c3.333,5.936,9.631,9.623,16.437,9.623h20.19v21.318c0,2.762,2.238,5,5,5
	s5-2.238,5-5v-17.288c13.188,6.371,33.906,9.65,54.485,9.65s41.298-3.279,54.485-9.65v17.288c0,2.762,2.238,5,5,5s5-2.238,5-5
	v-21.318h20.19C341.481,369.254,347.779,365.566,351.112,359.631z M250,110.493c53.734,0,97.451,43.792,97.451,97.62
	c0,53.827-43.717,97.619-97.451,97.619s-97.451-43.792-97.451-97.619C152.549,154.285,196.266,110.493,250,110.493z M250,372.935
	c-37.877,0-58.539-10.639-58.539-16.104s20.662-16.104,58.539-16.104s58.539,10.638,58.539,16.104S287.877,372.935,250,372.935z
	 M334.676,359.254h-16.399c0.157-0.791,0.262-1.595,0.262-2.424c0-17.137-34.479-26.104-68.539-26.104s-68.539,8.967-68.539,26.104
	c0,0.829,0.104,1.633,0.262,2.424h-16.399c-3.195,0-6.151-1.731-7.716-4.518l-63.953-113.93l49.296-41.959
	c-0.261,3.055-0.403,6.144-0.403,9.266c0,59.342,48.202,107.619,107.451,107.619s107.451-48.277,107.451-107.619
	c0-3.121-0.141-6.21-0.403-9.265l49.296,41.958l-63.953,113.93C340.827,357.522,337.871,359.254,334.676,359.254z M162.104,495
	c0,2.762-2.238,5-5,5H76.96c-2.762,0-5-2.238-5-5s2.238-5,5-5h80.144C159.865,490,162.104,492.238,162.104,495z M64.8,495
	c0,2.762-2.238,5-5,5h-3.813c-2.762,0-5-2.238-5-5s2.238-5,5-5H59.8C62.562,490,64.8,492.238,64.8,495z M428.04,495
	c0,2.762-2.238,5-5,5h-80.144c-2.762,0-5-2.238-5-5s2.238-5,5-5h80.144C425.802,490,428.04,492.238,428.04,495z M449.013,495
	c0,2.762-2.238,5-5,5h-3.813c-2.762,0-5-2.238-5-5s2.238-5,5-5h3.813C446.774,490,449.013,492.238,449.013,495z M283.631,16.534
	c0-2.762,2.238-5,5-5h6.534V5c0-2.762,2.238-5,5-5s5,2.238,5,5v6.534h6.535c2.762,0,5,2.238,5,5s-2.238,5-5,5h-6.535v6.535
	c0,2.762-2.238,5-5,5s-5-2.238-5-5v-6.535h-6.534C285.869,21.534,283.631,19.296,283.631,16.534z M233.466,16.534
	c0-2.762,2.238-5,5-5H245V5c0-2.762,2.238-5,5-5s5,2.238,5,5v6.534h6.534c2.762,0,5,2.238,5,5s-2.238,5-5,5H255v6.535
	c0,2.762-2.238,5-5,5s-5-2.238-5-5v-6.535h-6.534C235.704,21.534,233.466,19.296,233.466,16.534z M183.3,16.534c0-2.762,2.238-5,5-5
	h6.535V5c0-2.762,2.238-5,5-5s5,2.238,5,5v6.534h6.534c2.762,0,5,2.238,5,5s-2.238,5-5,5h-6.534v6.535c0,2.762-2.238,5-5,5
	s-5-2.238-5-5v-6.535H188.3C185.538,21.534,183.3,19.296,183.3,16.534z M230.881,245h38.238c2.762,0,5,2.238,5,5s-2.238,5-5,5
	h-38.238c-2.762,0-5-2.238-5-5S228.119,245,230.881,245z M473.607,244.856l-94.823,191.239c-1.227,2.393-1.858,5.009-1.858,7.628
	v32.935c0,2.762-2.238,5-5,5s-5-2.238-5-5v-32.935c0-4.199,1.014-8.394,2.93-12.131l94.793-191.178
	c3.186-6.426,1.73-14.096-3.537-18.653l-0.11-0.093l-92.594-78.813l-9.585,10.317c-0.985,1.061-2.323,1.597-3.664,1.597
	c-1.219,0-2.439-0.442-3.402-1.337c-2.023-1.88-2.14-5.043-0.26-7.066l9.289-9.998l-46.474-39.557
	c-7.813-6.651-19.657-6.236-26.961,0.944c-1.969,1.935-5.134,1.91-7.071-0.062c-1.936-1.97-1.908-5.136,0.062-7.071
	c11.146-10.953,28.535-11.568,40.452-1.427l146.855,124.997C476.37,221.738,478.818,234.346,473.607,244.856z M121.246,436.157
	L26.393,244.856c-5.211-10.511-2.763-23.118,5.955-30.657l0.192-0.165L179.206,89.197c11.784-10.027,29.603-9.352,40.567,1.539
	c1.959,1.946,1.97,5.112,0.024,7.071c-1.947,1.961-5.112,1.97-7.071,0.024c-7.307-7.258-19.184-7.704-27.039-1.02l-46.473,39.557
	l9.289,9.998c1.88,2.023,1.764,5.187-0.26,7.066c-0.963,0.895-2.185,1.337-3.402,1.337c-1.342,0-2.679-0.536-3.664-1.597
	l-9.585-10.317l-92.708,78.91c-5.264,4.553-6.719,12.223-3.533,18.648l94.823,191.239c1.886,3.676,2.899,7.87,2.899,12.069v32.935
	c0,2.762-2.238,5-5,5s-5-2.238-5-5v-32.935C123.074,441.104,122.442,438.488,121.246,436.157z"/>
</svg>
