<?xml version="1.0" encoding="utf-8"?>
<!-- Generator: Adobe Illustrator 23.0.0, SVG Export Plug-In . SVG Version: 6.00 Build 0)  -->
<svg version="1.1" id="Layer_1" xmlns="http://www.w3.org/2000/svg" xmlns:xlink="http://www.w3.org/1999/xlink" x="0px" y="0px"
	 viewBox="0 0 500 500" style="enable-background:new 0 0 500 500;" xml:space="preserve">
<style type="text/css">
	.st0{fill:#83E1E5;}
	.st1{fill:#AAB1BA;}
	.st2{fill:#FDDF7F;}
	.st3{fill:#ECF4F7;}
	.st4{fill:#1C1D21;}
</style>
<g>
	<path class="st0" d="M298.915,294.117l-12.564-17.167c6.68-2.553,13.026-5.786,18.948-9.618h41.293
		c33.479,0,60.62,27.185,60.62,60.72V495H119.086v-52.45l177.097-130.687C301.836,307.725,303.06,299.78,298.915,294.117z"/>
</g>
<g>
	<path class="st2" d="M352.042,181.424c0-56.449-45.685-102.209-102.041-102.209S147.96,124.975,147.96,181.424
		c0,44.721,28.677,82.727,68.614,96.592l-19.116,13.99c-9.22,6.748-11.224,19.692-4.477,28.913l1.362,1.861
		c2.615,3.572,1.838,8.588-1.734,11.202l-46.421,33.815v-19.936H92.79v79.146c0,8.583,6.946,15.541,15.515,15.541h10.782
		l177.096-130.687c5.653-4.138,6.877-12.083,2.732-17.746l-12.565-17.168C324.756,262.277,352.042,225.045,352.042,181.424z"/>
</g>
<g>
	<path class="st0" d="M153.409,267.333h41.293c6.781,4.388,14.119,7.985,21.878,10.679l-19.122,13.995
		c-9.22,6.748-11.224,19.692-4.477,28.913l1.362,1.862c2.614,3.572,1.838,8.588-1.734,11.202l-46.421,33.815v-19.935H92.789v-19.81
		C92.789,294.518,119.93,267.333,153.409,267.333z"/>
</g>
<g>
	<g>
		<rect x="353.814" y="347.862" class="st2" width="53.398" height="147.138"/>
	</g>
</g>
<g>
	<path class="st0" d="M235.893,268.411c3.418,0.458,6.652,2.243,8.849,5.245l5.351,7.313l15.29-11.189
		c0.912-0.668,1.887-1.181,2.892-1.572V214.53h-32.383V268.411z"/>
</g>
<g>
	<path class="st3" d="M278.789,185.534H225.38c-12.979,0-23.501,10.522-23.501,23.501v24.173c0,5.698,4.619,10.318,10.318,10.318
		h23.697V214.53h32.383v28.995h23.697c5.698,0,10.318-4.619,10.318-10.318v-24.173C302.29,196.056,291.768,185.534,278.789,185.534z
		"/>
</g>
<g>
	<path class="st2" d="M158.708,36.414H68.351V23.677C68.351,13.362,76.714,5,87.029,5h53.002c10.315,0,18.677,8.362,18.677,18.677
		V36.414z"/>
</g>
<g>
	<path class="st2" d="M68.351,67.865h90.357v12.736c0,10.315-8.362,18.677-18.677,18.677H87.029
		c-10.315,0-18.677-8.362-18.677-18.677V67.865z"/>
</g>
<g>
	<path class="st0" d="M167.027,67.865H60.032c-2.096,0-3.795-1.699-3.795-3.795V47.596c0-6.176,5.007-11.182,11.182-11.182h92.221
		c6.176,0,11.182,5.007,11.182,11.182V64.07C170.823,66.166,169.124,67.865,167.027,67.865z"/>
</g>
<g>
	<path class="st2" d="M431.651,36.414h-90.357V23.677C341.294,13.362,349.656,5,359.971,5h53.002
		c10.315,0,18.677,8.362,18.677,18.677V36.414z"/>
</g>
<g>
	<path class="st2" d="M341.294,67.865h90.357v12.736c0,10.315-8.362,18.677-18.677,18.677h-53.002
		c-10.315,0-18.677-8.362-18.677-18.677V67.865z"/>
</g>
<g>
	<path class="st0" d="M439.97,67.865H332.975c-2.096,0-3.795-1.699-3.795-3.795V47.596c0-6.176,5.007-11.182,11.182-11.182h92.221
		c6.176,0,11.182,5.007,11.182,11.182V64.07C443.765,66.166,442.066,67.865,439.97,67.865z"/>
</g>
<g>
	<path class="st3" d="M407.094,242.296V207.39h21.904v34.906c4.725,1.064,8.257,5.278,8.257,10.325
		c0,5.85-4.742,10.592-10.592,10.592c-3.557,0-6.697-1.759-8.617-4.449c-1.921,2.69-5.061,4.449-8.618,4.449
		c-5.85,0-10.592-4.742-10.592-10.592C398.837,247.574,402.369,243.36,407.094,242.296z"/>
</g>
<g>
	<path class="st2" d="M407.094,207.39h21.904l15.115-45.846c5.854-17.756-7.371-36.04-26.067-36.04h0
		c-18.696,0-31.92,18.284-26.067,36.04L407.094,207.39z"/>
</g>
<g>
	<path class="st3" d="M71.004,242.296V207.39h21.904v34.906c4.725,1.064,8.257,5.278,8.257,10.325
		c0,5.85-4.742,10.592-10.592,10.592c-3.557,0-6.697-1.759-8.618-4.449c-1.921,2.69-5.061,4.449-8.618,4.449
		c-5.85,0-10.592-4.742-10.592-10.592C62.747,247.574,66.279,243.36,71.004,242.296z"/>
</g>
<g>
	<path class="st2" d="M71.004,207.39h21.904l15.115-45.846c5.854-17.756-7.371-36.04-26.067-36.04h0
		c-18.696,0-31.92,18.284-26.067,36.04L71.004,207.39z"/>
</g>
<path class="st4" d="M233.467,16.534c0-2.762,2.238-5,5-5h6.534V5c0-2.762,2.238-5,5-5s5,2.238,5,5v6.534h6.534c2.762,0,5,2.238,5,5
	s-2.238,5-5,5h-6.534v6.535c0,2.762-2.238,5-5,5s-5-2.238-5-5v-6.535h-6.534C235.705,21.534,233.467,19.296,233.467,16.534z
	 M402.213,476.658V352.862h-43.398v123.796c0,2.762-2.238,5-5,5s-5-2.238-5-5V308.362c0-2.762,2.238-5,5-5s5,2.238,5,5v34.5h43.398
	v-14.81c0-30.724-24.951-55.72-55.62-55.72l-39.831-0.001c-4.041,2.53-8.261,4.79-12.638,6.772l8.827,12.06
	c5.766,7.879,4.055,18.975-3.814,24.734l-175.05,129.176v31.584c0,2.762-2.238,5-5,5s-5-2.238-5-5V447.55h-5.781
	c-11.313,0-20.516-9.215-20.516-20.541v-98.957c0-36.238,29.438-65.72,65.62-65.72h26.365
	c-22.891-19.963-36.815-49.243-36.815-80.909c0-59.115,48.019-107.209,107.041-107.209s107.041,48.094,107.041,107.21
	c0,22.152-6.69,43.414-19.349,61.487c-5.062,7.228-10.933,13.726-17.465,19.421l26.364,0.001c36.183,0,65.62,29.481,65.62,65.72
	v148.605c0,2.762-2.238,5-5,5S402.213,479.42,402.213,476.658z M97.789,328.052v14.811h43.398v-34.5c0-2.762,2.238-5,5-5
	s5,2.238,5,5v49.607l38.478-28.028c1.333-0.976,1.626-2.866,0.644-4.208l-1.362-1.861c-4.052-5.537-5.706-12.321-4.656-19.102
	c1.05-6.781,4.678-12.747,10.215-16.8l11.827-8.655c-4.554-2.037-8.918-4.376-13.079-6.983h-39.843
	C122.74,272.332,97.789,297.328,97.789,328.052z M263.275,219.53h-22.383v23.995v21.058c0.102,0.04,0.199,0.089,0.299,0.131
	c0.077,0.032,0.153,0.067,0.229,0.101c0.7,0.304,1.379,0.649,2.032,1.039c0.011,0.007,0.021,0.014,0.032,0.02
	c0.453,0.271,0.893,0.564,1.32,0.875c0.044,0.032,0.09,0.061,0.134,0.093c0.002,0.002,0.003,0.003,0.005,0.005
	c0.014,0.01,0.027,0.021,0.041,0.032c0.213,0.159,0.422,0.325,0.629,0.494c0.101,0.083,0.202,0.166,0.302,0.251
	c0.134,0.115,0.27,0.229,0.401,0.348c0.013,0.012,0.025,0.024,0.038,0.036c0.031,0.028,0.059,0.058,0.089,0.086
	c0.128,0.118,0.253,0.24,0.378,0.362c0.146,0.144,0.292,0.286,0.434,0.435c0.09,0.095,0.178,0.191,0.266,0.288
	c0.069,0.075,0.135,0.152,0.202,0.229c0.104,0.117,0.211,0.232,0.312,0.353c0.255,0.305,0.504,0.618,0.742,0.943l2.398,3.277
	l11.254-8.237c0.011-0.008,0.022-0.014,0.033-0.021c0.264-0.193,0.535-0.38,0.813-0.558v-21.639V219.53z M273.275,238.525h18.697
	c2.932,0,5.317-2.386,5.317-5.317V219.53h-24.015V238.525z M297.29,209.035c0-10.201-8.3-18.501-18.501-18.501H225.38
	c-10.201,0-18.501,8.3-18.501,18.501v0.495h29.014h32.383h29.015V209.035z M206.879,233.208c0,2.932,2.386,5.317,5.317,5.317h18.696
	V219.53h-24.014V233.208z M294.88,297.07l-12.563-17.166c0-0.001-0.001-0.001-0.001-0.002l-3.227-4.409
	c-0.941-1.286-2.208-2.195-3.604-2.698c-1.707-0.614-3.606-0.612-5.342,0.046c-0.018,0.008-0.034,0.019-0.053,0.025
	c-0.326,0.127-0.636,0.27-0.929,0.428c0,0-0.001,0.001-0.001,0.001c-0.293,0.158-0.568,0.331-0.824,0.519l-15.29,11.19
	l-26.943,19.719c-0.891,0.651-1.925,0.965-2.949,0.965c-1.54,0-3.06-0.709-4.039-2.047c-1.631-2.229-1.146-5.357,1.082-6.988
	l22.908-16.766l-2.398-3.277c-0.331-0.451-0.699-0.859-1.098-1.221c-0.357-0.324-0.741-0.605-1.141-0.855
	c-0.049-0.031-0.095-0.066-0.145-0.096c-0.093-0.056-0.19-0.101-0.285-0.152c-0.143-0.077-0.285-0.158-0.433-0.228
	c-0.047-0.021-0.096-0.038-0.144-0.06c-0.203-0.09-0.409-0.176-0.62-0.249c-0.01-0.004-0.022-0.007-0.032-0.01
	c-0.507-0.173-1.035-0.299-1.581-0.372c0,0-0.001,0-0.001,0c-0.974-0.13-1.971-0.092-2.941,0.137
	c-1.027,0.241-2.022,0.688-2.925,1.35l-28.95,21.188c-3.382,2.475-5.598,6.118-6.238,10.259c-0.642,4.142,0.368,8.284,2.844,11.666
	l1.362,1.861c4.238,5.792,2.975,13.952-2.816,18.19l-46.431,33.821c-1.521,1.109-3.533,1.27-5.212,0.415
	c-1.677-0.853-2.732-2.575-2.732-4.456v-14.936H97.789v74.146c0,5.813,4.718,10.541,10.516,10.541h9.136l175.773-129.71
	C296.649,305.325,297.39,300.499,294.88,297.07z M288.085,270.854c35.417-15.172,58.957-50.634,58.957-89.43
	c0-53.602-43.532-97.21-97.041-97.21s-97.041,43.607-97.041,97.209c0,40.53,25.133,76.766,62.812,90.983l7.684-5.624
	c0.464-0.339,0.941-0.646,1.425-0.935c0.141-0.085,0.285-0.16,0.427-0.239c0.351-0.197,0.704-0.383,1.063-0.554
	c0.166-0.079,0.333-0.156,0.5-0.229c0.362-0.159,0.728-0.304,1.096-0.438c0.15-0.055,0.298-0.113,0.449-0.164
	c0.518-0.172,1.039-0.327,1.566-0.45c0,0,0,0,0,0c0.302-0.071,0.606-0.123,0.91-0.178v-15.07h-18.696
	c-8.446,0-15.317-6.871-15.317-15.317v-24.173c0-15.716,12.785-28.501,28.501-28.501h53.409c15.716,0,28.501,12.785,28.501,28.501
	v24.173c0,8.446-6.871,15.317-15.317,15.317h-18.697v13.839c5.31,0.129,10.509,2.612,13.883,7.223L288.085,270.854z M440.836,490
	h-3.813c-2.762,0-5,2.238-5,5s2.238,5,5,5h3.813c2.762,0,5-2.238,5-5S443.598,490,440.836,490z M419.863,490H80.139
	c-2.762,0-5,2.238-5,5s2.238,5,5,5h339.725c2.762,0,5-2.238,5-5S422.625,490,419.863,490z M62.979,490h-3.813c-2.762,0-5,2.238-5,5
	s2.238,5,5,5h3.813c2.762,0,5-2.238,5-5S65.74,490,62.979,490z M231.159,144.309c-2.164-1.71-5.309-1.347-7.023,0.82
	c-2.374,3.003-5.929,4.725-9.75,4.725s-7.376-1.723-9.752-4.726c-1.714-2.166-4.857-2.531-7.023-0.818
	c-2.165,1.713-2.532,4.857-0.818,7.023c4.283,5.415,10.696,8.521,17.594,8.521c6.898,0,13.311-3.106,17.594-8.521
	C233.692,149.166,233.325,146.021,231.159,144.309z M306.558,144.31c-2.166-1.712-5.31-1.347-7.023,0.818
	c-2.376,3.003-5.93,4.726-9.751,4.726s-7.376-1.723-9.752-4.726c-1.713-2.166-4.857-2.531-7.023-0.818
	c-2.165,1.713-2.532,4.857-0.818,7.023c4.283,5.415,10.696,8.521,17.594,8.521c6.896,0,13.31-3.105,17.593-8.521
	C309.09,149.167,308.723,146.022,306.558,144.31z M51.236,64.069V47.596c0-7.516,5.158-13.832,12.115-15.644v-8.274
	C63.352,10.622,73.974,0,87.029,0h53.001c13.056,0,23.678,10.622,23.678,23.678v8.274c6.957,1.812,12.115,8.128,12.115,15.644
	v16.474c0,4.85-3.946,8.796-8.796,8.796h-3.319v7.736c0,13.056-10.622,23.678-23.678,23.678H87.029
	c-13.056,0-23.678-10.622-23.678-23.678v-7.736h-3.319C55.183,72.865,51.236,68.919,51.236,64.069z M153.708,72.865H73.352v7.736
	c0,7.542,6.136,13.678,13.678,13.678h53.001c7.542,0,13.678-6.136,13.678-13.678V72.865z M73.352,31.414h80.356v-7.736
	c0-7.542-6.136-13.678-13.678-13.678H87.029c-7.542,0-13.678,6.136-13.678,13.678V31.414z M61.236,62.865h7.115h12.653v-4.771
	c0-2.762,2.238-5,5-5s5,2.238,5,5v4.771h17.524v-4.771c0-2.762,2.238-5,5-5s5,2.238,5,5v4.771h17.525v-4.771c0-2.762,2.238-5,5-5
	s5,2.238,5,5v4.771h12.653h7.115v-15.27c0-3.408-2.773-6.182-6.183-6.182h-0.933H68.352h-0.933c-3.409,0-6.183,2.773-6.183,6.182
	V62.865z M324.179,64.069V47.596c0-7.516,5.158-13.832,12.115-15.644v-8.274C336.294,10.622,346.916,0,359.972,0h53.001
	c13.056,0,23.678,10.622,23.678,23.678v8.274c6.957,1.812,12.115,8.128,12.115,15.644v16.474c0,4.85-3.946,8.796-8.796,8.796h-3.319
	v7.736c0,13.056-10.622,23.678-23.678,23.678h-53.001c-13.056,0-23.678-10.622-23.678-23.678v-7.736h-3.319
	C328.125,72.865,324.179,68.919,324.179,64.069z M426.65,72.865h-80.356v7.736c0,7.542,6.136,13.678,13.678,13.678h53.001
	c7.542,0,13.678-6.136,13.678-13.678V72.865z M346.294,31.414h80.356v-7.736c0-7.542-6.136-13.678-13.678-13.678h-53.001
	c-7.542,0-13.678,6.136-13.678,13.678V31.414z M334.179,62.865h7.115h12.653v-4.771c0-2.762,2.238-5,5-5s5,2.238,5,5v4.771h17.525
	v-4.771c0-2.762,2.238-5,5-5s5,2.238,5,5v4.771h17.524v-4.771c0-2.762,2.238-5,5-5s5,2.238,5,5v4.771h12.653h7.115v-15.27
	c0-3.408-2.773-6.182-6.183-6.182h-0.933h-90.356h-0.933c-3.409,0-6.183,2.773-6.183,6.182V62.865z M448.861,163.109l-14.863,45.085
	v30.66c5.009,2.643,8.257,7.852,8.257,13.767c0,8.598-6.994,15.592-15.591,15.592c-3.099,0-6.093-0.933-8.618-2.61
	c-2.525,1.678-5.519,2.61-8.617,2.61c-8.598,0-15.592-6.994-15.592-15.592c0-5.915,3.248-11.124,8.257-13.767v-30.66l-14.863-45.085
	c-3.298-10.005-1.648-20.64,4.525-29.176c6.174-8.535,15.756-13.431,26.29-13.431c10.535,0,20.117,4.896,26.291,13.432
	S452.159,153.104,448.861,163.109z M432.255,252.621c0-2.588-1.832-4.879-4.355-5.447c-2.281-0.514-3.901-2.54-3.901-4.878v-29.905
	h-11.904v29.905c0,2.338-1.62,4.364-3.901,4.878c-2.523,0.568-4.355,2.859-4.355,5.447c0,3.083,2.509,5.592,5.592,5.592
	c1.822,0,3.479-0.858,4.548-2.354c0.938-1.314,2.454-2.095,4.069-2.095s3.131,0.78,4.069,2.095c1.068,1.496,2.727,2.354,4.549,2.354
	C429.747,258.213,432.255,255.704,432.255,252.621z M436.234,139.795c-4.271-5.905-10.9-9.292-18.188-9.292
	c-7.287,0-13.917,3.387-18.188,9.292c-4.271,5.905-5.412,13.262-3.13,20.184l13.981,42.412h14.672l13.981-42.412
	C441.646,153.057,440.505,145.7,436.234,139.795z M81.956,265.603c-2.525,1.678-5.52,2.61-8.618,2.61
	c-8.597,0-15.591-6.994-15.591-15.592c0-5.915,3.248-11.124,8.257-13.767v-30.66l-14.863-45.085
	c-3.298-10.005-1.649-20.639,4.524-29.175s15.756-13.432,26.291-13.432c10.534,0,20.116,4.896,26.29,13.431
	c6.174,8.536,7.823,19.171,4.525,29.176l-14.863,45.085v30.66c5.009,2.643,8.257,7.852,8.257,13.767
	c0,8.598-6.994,15.592-15.592,15.592C87.475,268.213,84.481,267.28,81.956,265.603z M60.639,159.979l13.981,42.412h14.672
	l13.981-42.412c2.282-6.922,1.142-14.278-3.13-20.184c-4.271-5.905-10.9-9.292-18.188-9.292c-7.288,0-13.917,3.387-18.188,9.292
	C59.497,145.7,58.356,153.057,60.639,159.979z M81.956,253.764c1.615,0,3.131,0.78,4.069,2.095c1.068,1.496,2.726,2.354,4.548,2.354
	c3.083,0,5.592-2.509,5.592-5.592c0-2.588-1.832-4.879-4.355-5.447c-2.281-0.514-3.901-2.54-3.901-4.878v-29.905H76.004v29.905
	c0,2.338-1.62,4.364-3.901,4.878c-2.523,0.568-4.355,2.859-4.355,5.447c0,3.083,2.508,5.592,5.591,5.592
	c1.822,0,3.48-0.858,4.549-2.354C78.825,254.544,80.341,253.764,81.956,253.764z"/>
</svg>
