<?xml version="1.0" encoding="utf-8"?>
<!-- Generator: Adobe Illustrator 23.0.0, SVG Export Plug-In . SVG Version: 6.00 Build 0)  -->
<svg version="1.1" id="Layer_1" xmlns="http://www.w3.org/2000/svg" xmlns:xlink="http://www.w3.org/1999/xlink" x="0px" y="0px"
	 viewBox="0 0 500 500" style="enable-background:new 0 0 500 500;" xml:space="preserve">
<style type="text/css">
	.st0{fill:#83E1E5;}
	.st1{fill:#AAB1BA;}
	.st2{fill:#FDDF7F;}
	.st3{fill:#ECF4F7;}
	.st4{fill:#1C1D21;}
</style>
<g>
	<path class="st3" d="M286.803,116.219h-60.08c-7.471,0-13.527-6.056-13.527-13.527V15.957C213.197,9.906,218.102,5,224.153,5
		h51.693c6.051,0,10.957,4.906,10.957,10.957V116.219z"/>
</g>
<g>
	<path class="st1" d="M286.803,116.219h-60.08c-7.471,0-13.527-6.056-13.527-13.527V80.749h73.607V116.219z"/>
</g>
<g>
	<path class="st2" d="M286.803,116.219h-60.08c-7.471,0-13.527-6.057-13.527-13.527v-18.32
		c-38.398,14.812-65.648,52.111-65.648,95.792c0,56.676,45.869,102.62,102.451,102.62c56.582,0,102.451-45.944,102.451-102.62
		c0-24.186-8.365-46.405-22.339-63.944H286.803L286.803,116.219z"/>
</g>
<g>
	<g>
		<path class="st0" d="M337.218,266.418h-31.697c-15.998,10.353-35.058,16.365-55.521,16.365c-20.463,0-39.523-6.013-55.521-16.365
			h-31.697c-33.614,0-60.864,27.295-60.864,60.964V495H250h148.081V327.382C398.081,293.713,370.832,266.418,337.218,266.418z"/>
	</g>
</g>
<g>
	<g>
		<rect x="101.919" y="363.254" class="st2" width="52.805" height="131.746"/>
	</g>
</g>
<g>
	<g>
		<rect x="345.276" y="363.254" class="st2" width="52.805" height="131.746"/>
	</g>
</g>
<g>
	<path class="st3" d="M186.993,150.573c-4.213,8.983-6.579,19.008-6.579,29.59c0,38.494,31.154,69.7,69.585,69.7
		c38.431,0,69.585-31.206,69.585-69.7c0-10.582-2.366-20.606-6.579-29.59H186.993z"/>
</g>
<path class="st4" d="M370.329,231.542h6.534v-6.535c0-2.762,2.239-5,5-5s5,2.238,5,5v6.535h6.535c2.761,0,5,2.238,5,5s-2.239,5-5,5
	h-6.535v6.534c0,2.762-2.239,5-5,5s-5-2.238-5-5v-6.534h-6.534c-2.761,0-5-2.238-5-5S367.567,231.542,370.329,231.542z
	 M106.603,241.542h6.535v6.534c0,2.762,2.239,5,5,5s5-2.238,5-5v-6.534h6.534c2.761,0,5-2.238,5-5s-2.239-5-5-5h-6.534v-6.535
	c0-2.762-2.239-5-5-5s-5,2.238-5,5v6.535h-6.535c-2.761,0-5,2.238-5,5S103.841,241.542,106.603,241.542z M96.919,363.259
	c0-0.002,0-0.003,0-0.005s0-0.003,0-0.005v-35.867c0-36.373,29.546-65.964,65.863-65.964h16.837
	c-22.696-19.747-37.07-48.851-37.07-81.255c0-37.563,19.068-71.801,51.008-91.585c2.348-1.453,5.43-0.728,6.883,1.618
	c1.454,2.348,0.73,5.43-1.618,6.884c-28.975,17.947-46.273,49.006-46.273,83.083c0,43.593,28.673,80.599,68.118,93.098
	c0.224,0.071,0.447,0.143,0.671,0.211c0.615,0.19,1.231,0.375,1.851,0.553c0.402,0.115,0.806,0.224,1.209,0.333
	c0.805,0.22,1.614,0.43,2.427,0.629c0.569,0.14,1.138,0.276,1.71,0.405c0.418,0.095,0.837,0.187,1.257,0.275
	c0.728,0.153,1.458,0.3,2.189,0.437c0.25,0.047,0.498,0.099,0.749,0.145c0.977,0.175,1.957,0.332,2.94,0.478
	c0.296,0.044,0.593,0.084,0.89,0.125c0.808,0.111,1.617,0.214,2.429,0.306c0.241,0.027,0.481,0.058,0.722,0.083
	c1.027,0.108,2.056,0.201,3.088,0.277c0.212,0.015,0.426,0.026,0.638,0.04c0.851,0.058,1.704,0.103,2.558,0.138
	c0.285,0.012,0.57,0.023,0.856,0.032c1.048,0.034,2.098,0.057,3.15,0.057s2.102-0.022,3.15-0.057
	c0.286-0.009,0.571-0.021,0.856-0.032c0.854-0.035,1.707-0.08,2.558-0.138c0.213-0.014,0.426-0.025,0.638-0.04
	c1.032-0.076,2.061-0.169,3.088-0.277c0.241-0.025,0.481-0.056,0.722-0.083c0.812-0.092,1.621-0.194,2.429-0.306
	c0.297-0.041,0.594-0.081,0.89-0.125c0.983-0.146,1.963-0.303,2.94-0.478c0.251-0.046,0.499-0.098,0.749-0.145
	c0.732-0.137,1.461-0.283,2.189-0.437c0.42-0.089,0.839-0.181,1.257-0.275c0.572-0.129,1.141-0.266,1.71-0.405
	c0.813-0.199,1.622-0.409,2.427-0.629c0.404-0.109,0.807-0.218,1.209-0.333c0.62-0.178,1.236-0.362,1.851-0.553
	c0.224-0.068,0.447-0.14,0.671-0.211c39.445-12.499,68.118-49.505,68.118-93.098c0-8.425-1.047-16.661-3.09-24.59h-23.933
	c2.464,7.048,3.823,14.39,4.085,21.928c0.005,0.093,0.028,0.181,0.028,0.274c0,0.055-0.014,0.104-0.016,0.159
	c0.022,0.742,0.06,1.482,0.06,2.229c0,28.938-16.527,54.068-40.614,66.468c-0.31,0.211-0.648,0.377-1.003,0.515
	c-9.948,4.932-21.137,7.718-32.969,7.718c-11.831,0-23.021-2.786-32.969-7.718c-0.354-0.138-0.693-0.304-1.002-0.515
	c-24.087-12.399-40.614-37.529-40.614-66.468c0-0.748,0.038-1.489,0.06-2.232c-0.002-0.053-0.016-0.103-0.016-0.155
	c0-0.092,0.022-0.178,0.027-0.268c0.35-10.115,2.677-19.881,6.981-29.058c1.172-2.5,4.148-3.576,6.65-2.404
	c2.5,1.173,3.576,4.15,2.404,6.65c-3,6.397-4.898,13.126-5.685,20.079h23.442c8.028,0,14.56,6.531,14.56,14.56v7.653
	c0,2.762-2.239,5-5,5s-5-2.238-5-5v-7.653c0-2.515-2.045-4.56-4.56-4.56h-23.797c0.845,21.184,11.892,39.78,28.356,50.968v-15.355
	c0-2.762,2.239-5,5-5s5,2.238,5,5v20.908c6.556,2.922,13.682,4.777,21.163,5.354v-89.077h-24.501c-2.761,0-5-2.238-5-5s2.239-5,5-5
	h120.676c-3.27-8.641-7.797-16.815-13.517-24.354h-40.854h-60.08c-10.216,0-18.527-8.312-18.527-18.527V15.957
	C208.197,7.158,215.355,0,224.153,0h51.693c8.798,0,15.957,7.158,15.957,15.957v95.262h79.781c2.761,0,5,2.238,5,5s-2.239,5-5,5
	h-31.675c5.028,7.647,9.007,15.811,11.897,24.354h19.778c2.761,0,5,2.238,5,5s-2.239,5-5,5H354.64
	c1.847,7.964,2.811,16.189,2.811,24.59c0,32.404-14.374,61.508-37.07,81.255h16.837c36.317,0,65.863,29.591,65.863,65.964v35.867
	c0,0.002,0,0.003,0,0.005s0,0.003,0,0.005v113.399c0,2.762-2.239,5-5,5s-5-2.238-5-5V368.254h-42.805v108.404c0,2.762-2.239,5-5,5
	s-5-2.238-5-5V323.596c0-2.762,2.239-5,5-5s5,2.238,5,5v34.658h42.805v-30.872c0-30.858-25.06-55.964-55.863-55.964h-30.24
	c-7.068,4.436-14.587,7.99-22.403,10.648c-0.071,0.024-0.142,0.05-0.213,0.074c-0.731,0.247-1.465,0.486-2.202,0.717
	c-0.283,0.09-0.568,0.175-0.853,0.262c-1.007,0.307-2.018,0.599-3.034,0.876c-0.55,0.15-1.099,0.302-1.652,0.443
	c-0.496,0.126-0.994,0.245-1.492,0.365c-0.62,0.149-1.242,0.293-1.866,0.432c-0.427,0.095-0.854,0.19-1.283,0.28
	c-1.021,0.214-2.047,0.415-3.078,0.599c-0.238,0.043-0.477,0.079-0.716,0.119c-0.879,0.151-1.762,0.291-2.648,0.42
	c-0.334,0.049-0.668,0.096-1.003,0.142c-0.922,0.125-1.847,0.239-2.776,0.341c-0.194,0.021-0.387,0.047-0.581,0.066
	c-1.114,0.116-2.233,0.213-3.356,0.294c-0.275,0.02-0.55,0.035-0.825,0.053c-0.879,0.057-1.761,0.104-2.646,0.139
	c-0.318,0.013-0.635,0.026-0.953,0.036c-1.13,0.035-2.262,0.06-3.4,0.06s-2.271-0.024-3.4-0.06c-0.318-0.01-0.636-0.023-0.953-0.036
	c-0.885-0.035-1.767-0.082-2.646-0.139c-0.275-0.018-0.55-0.033-0.825-0.053c-1.123-0.081-2.242-0.178-3.356-0.294
	c-0.194-0.02-0.387-0.045-0.581-0.066c-0.929-0.102-1.854-0.216-2.776-0.341c-0.335-0.046-0.669-0.093-1.003-0.142
	c-0.886-0.129-1.769-0.269-2.648-0.42c-0.238-0.04-0.478-0.076-0.716-0.119c-1.031-0.184-2.057-0.385-3.078-0.599
	c-0.429-0.09-0.855-0.186-1.283-0.28c-0.624-0.139-1.246-0.282-1.866-0.432c-0.498-0.12-0.996-0.239-1.492-0.365
	c-0.553-0.142-1.102-0.293-1.652-0.443c-1.016-0.277-2.027-0.569-3.034-0.876c-0.284-0.087-0.569-0.172-0.853-0.262
	c-0.737-0.23-1.47-0.47-2.202-0.717c-0.071-0.024-0.142-0.05-0.213-0.074c-7.816-2.658-15.335-6.213-22.403-10.648h-30.24
	c-30.803,0-55.863,25.105-55.863,55.964v30.872h42.805v-34.658c0-2.762,2.239-5,5-5s5,2.238,5,5v153.063c0,2.762-2.239,5-5,5
	s-5-2.238-5-5V368.254h-42.805v108.404c0,2.762-2.239,5-5,5s-5-2.238-5-5V363.259z M281.803,85.749h-63.606v16.942
	c0,4.702,3.825,8.527,8.527,8.527h55.08V85.749z M281.803,15.957c0-3.285-2.672-5.957-5.957-5.957h-51.693
	c-3.285,0-5.957,2.672-5.957,5.957v59.792h63.606V15.957z M314.519,182.775h-23.796c-2.514,0-4.56,2.045-4.56,4.56v7.653
	c0,2.762-2.239,5-5,5s-5-2.238-5-5v-7.653c0-8.028,6.531-14.56,14.56-14.56h23.442c-0.67-5.92-2.153-11.675-4.43-17.202H255v89.077
	c7.481-0.577,14.607-2.433,21.163-5.354v-20.908c0-2.762,2.239-5,5-5s5,2.238,5,5v15.355
	C302.627,222.556,313.674,203.958,314.519,182.775z M439.108,490H60.892c-2.761,0-5,2.238-5,5s2.239,5,5,5h378.216
	c2.761,0,5-2.238,5-5S441.869,490,439.108,490z M42.478,490h-3.813c-2.761,0-5,2.238-5,5s2.239,5,5,5h3.813c2.761,0,5-2.238,5-5
	S45.239,490,42.478,490z M461.335,490h-3.813c-2.761,0-5,2.238-5,5s2.239,5,5,5h3.813c2.761,0,5-2.238,5-5S464.097,490,461.335,490z
	 M388.681,121.219h3.507c2.761,0,5-2.238,5-5s-2.239-5-5-5h-3.507c-2.761,0-5,2.238-5,5S385.919,121.219,388.681,121.219z
	 M388.681,155.573h3.507c2.761,0,5-2.238,5-5s-2.239-5-5-5h-3.507c-2.761,0-5,2.238-5,5S385.919,155.573,388.681,155.573z"/>
</svg>
