<?xml version="1.0" encoding="utf-8"?>
<!-- Generator: Adobe Illustrator 23.0.0, SVG Export Plug-In . SVG Version: 6.00 Build 0)  -->
<svg version="1.1" id="Layer_1" xmlns="http://www.w3.org/2000/svg" xmlns:xlink="http://www.w3.org/1999/xlink" x="0px" y="0px"
	 viewBox="0 0 500 500" style="enable-background:new 0 0 500 500;" xml:space="preserve">
<style type="text/css">
	.st0{fill:#83E1E5;}
	.st1{fill:#AAB1BA;}
	.st2{fill:#FDDF7F;}
	.st3{fill:#ECF4F7;}
	.st4{fill:#1C1D21;}
</style>
<path class="st2" d="M174.508,188.362v2.256h-14.923c-4.737,0-8.577,3.84-8.577,8.576v14.417c0,0.877,0.055,1.74,0.152,2.592
	c1.287,11.321,10.894,20.119,22.56,20.119h18.963l0,0l0,0l0,0l0,54.502h114.636l0-54.502l0,0l0,0l0,0h18.952
	c12.543,0,22.711-10.168,22.711-22.711v-13.624l0,0v-0.792c0-4.737-3.84-8.577-8.577-8.577h-14.911v-2.256
	c0-1.257-0.229-2.457-0.629-3.576c18.83-19.068,30.462-45.29,30.462-74.237C355.325,52.256,308.169,5,250,5
	S144.675,52.256,144.675,110.549c0,28.947,11.632,55.169,30.462,74.237C174.737,185.905,174.508,187.105,174.508,188.362z"/>
<g>
	<path class="st0" d="M162.352,52.009c-5.619-10.694-16.827-17.991-29.746-17.991c-1.914,0-3.788,0.169-5.614,0.477
		C124.971,17.877,110.824,5,93.661,5C76.498,5,62.351,17.877,60.33,34.494c-1.826-0.308-3.7-0.477-5.614-0.477
		c-18.551,0-33.589,15.039-33.589,33.589c0,18.551,15.038,33.588,33.589,33.588h38.945h38.945c4.509,0,8.806-0.895,12.734-2.505
		C147.253,81.554,153.255,65.659,162.352,52.009z"/>
</g>
<g>
	<path class="st0" d="M445.284,34.018c-1.914,0-3.788,0.169-5.614,0.477C437.649,17.877,423.502,5,406.339,5
		c-17.163,0-31.31,12.877-33.331,29.494c-1.827-0.308-3.7-0.477-5.614-0.477c-12.918,0-24.126,7.297-29.746,17.991
		c9.097,13.65,15.099,29.545,17.012,46.681c3.928,1.61,8.226,2.505,12.734,2.505h38.946h38.945
		c18.551,0,33.589-15.037,33.589-33.588C478.873,49.057,463.835,34.018,445.284,34.018z"/>
</g>
<g>
	<polygon class="st1" points="209.756,443.022 209.756,359.743 164.321,359.743 164.321,443.022 138.114,443.022 187.038,495 
		235.963,443.022 	"/>
</g>
<g>
	<polygon class="st1" points="335.679,443.022 335.679,359.743 290.244,359.743 290.244,443.022 264.037,443.022 312.962,495 
		361.886,443.022 	"/>
</g>
<g>
	<path class="st3" d="M239.361,177.723c4.536,0,8.398,2.844,9.929,6.841h1.421c1.53-3.997,5.393-6.841,9.928-6.841h34.252
		c3.086-3.521,4.971-8.121,4.971-13.172v-8.204c0-4.853-3.934-8.786-8.786-8.786h-82.152c-4.852,0-8.786,3.934-8.786,8.786v8.204
		c0,5.051,1.885,9.65,4.971,13.172H239.361z"/>
</g>
<g>
	<path class="st0" d="M348.98,199.987v13.624c0,12.543-10.168,22.711-22.711,22.711h-18.952l0,54.501H192.682l0-54.501H173.72
		c-12.543,0-22.712-10.168-22.712-22.712v-13.621c-30.129,4.516-53.244,30.53-53.244,61.981v70.431h94.917h114.636h94.917V261.97
		C402.235,230.515,379.115,204.5,348.98,199.987z"/>
</g>
<g>
	<circle class="st3" cx="206.372" cy="108.791" r="17.988"/>
</g>
<g>
	<circle class="st3" cx="293.628" cy="108.791" r="17.988"/>
</g>
<path class="st4" d="M54.716,106.194c-21.278,0-38.589-17.311-38.589-38.588c0-21.794,18.136-39.462,40.144-38.558
	C60.552,12.188,75.844,0,93.661,0c17.816,0,33.109,12.188,37.39,29.049c0.521-0.021,1.04-0.032,1.556-0.032
	c6.313,0,12.58,1.561,18.123,4.514c2.437,1.299,3.359,4.327,2.062,6.765c-1.3,2.437-4.33,3.355-6.765,2.062
	c-4.1-2.186-8.74-3.34-13.42-3.34c-1.566,0-3.176,0.138-4.784,0.408c-1.343,0.228-2.728-0.106-3.822-0.925
	c-1.094-0.816-1.807-2.046-1.972-3.402C120.288,20.79,108.093,10,93.661,10c-14.433,0-26.628,10.79-28.368,25.098
	c-0.165,1.356-0.878,2.586-1.972,3.402c-1.095,0.817-2.474,1.152-3.822,0.925c-1.608-0.271-3.217-0.408-4.783-0.408
	c-15.764,0-28.589,12.825-28.589,28.59c0,15.764,12.825,28.588,28.589,28.588h73.035c2.762,0,5,2.238,5,5s-2.238,5-5,5H54.716z
	 M443.729,29.049C439.448,12.188,424.156,0,406.339,0c-17.816,0-33.109,12.188-37.39,29.049c-0.521-0.021-1.04-0.032-1.556-0.032
	c-6.313,0-12.58,1.561-18.123,4.514c-2.437,1.299-3.359,4.327-2.062,6.765c1.298,2.437,4.328,3.355,6.765,2.062
	c4.1-2.186,8.74-3.34,13.42-3.34c1.566,0,3.176,0.138,4.784,0.408c1.347,0.228,2.728-0.107,3.822-0.925
	c1.094-0.816,1.807-2.046,1.972-3.402C379.712,20.79,391.907,10,406.339,10c14.433,0,26.628,10.79,28.368,25.098
	c0.165,1.356,0.878,2.586,1.972,3.402c1.095,0.818,2.479,1.152,3.822,0.925c1.608-0.271,3.217-0.408,4.783-0.408
	c15.764,0,28.589,12.825,28.589,28.59c0,15.764-12.825,28.588-28.589,28.588h-73.035c-2.762,0-5,2.238-5,5s2.238,5,5,5h73.035
	c21.278,0,38.589-17.311,38.589-38.588C483.873,45.813,465.72,28.14,443.729,29.049z M98.977,147.364c-2.762,0-5,2.238-5,5v6.534
	h-6.535c-2.762,0-5,2.238-5,5s2.238,5,5,5h6.535v6.534c0,2.762,2.238,5,5,5s5-2.238,5-5v-6.534h6.534c2.762,0,5-2.238,5-5
	s-2.238-5-5-5h-6.534v-6.534C103.977,149.603,101.738,147.364,98.977,147.364z M401.023,146.964c-2.762,0-5,2.238-5,5v6.534h-6.534
	c-2.762,0-5,2.238-5,5s2.238,5,5,5h6.534v6.535c0,2.762,2.238,5,5,5s5-2.238,5-5v-6.535h6.535c2.762,0,5-2.238,5-5s-2.238-5-5-5
	h-6.535v-6.534C406.023,149.202,403.785,146.964,401.023,146.964z M159.734,174.118c1.589,2.259,4.704,2.804,6.966,1.216
	c2.259-1.588,2.804-4.706,1.216-6.966c-11.934-16.982-18.241-36.977-18.241-57.819C149.675,55.106,194.681,10,250,10
	s100.325,45.106,100.325,100.549c0,20.843-6.308,40.837-18.241,57.819c-1.588,2.26-1.043,5.378,1.216,6.966
	c0.875,0.614,1.878,0.909,2.871,0.909c1.573,0,3.122-0.74,4.095-2.125c13.123-18.676,20.06-40.658,20.06-63.569
	C360.325,49.592,310.834,0,250,0S139.675,49.592,139.675,110.549C139.675,133.46,146.611,155.442,159.734,174.118z M440.835,327.401
	h-3.813c-2.762,0-5,2.238-5,5s2.238,5,5,5h3.813c2.762,0,5-2.238,5-5S443.597,327.401,440.835,327.401z M419.862,327.401H80.138
	c-2.762,0-5,2.238-5,5s2.238,5,5,5h339.725c2.762,0,5-2.238,5-5S422.624,327.401,419.862,327.401z M62.978,327.401h-3.813
	c-2.762,0-5,2.238-5,5s2.238,5,5,5h3.813c2.762,0,5-2.238,5-5S65.739,327.401,62.978,327.401z M97.765,319.059c2.762,0,5-2.238,5-5
	v-52.088c0-22.215,12.965-42.699,33.029-52.185c2.497-1.181,3.563-4.161,2.384-6.657c-1.182-2.498-4.166-3.563-6.657-2.384
	c-23.543,11.131-38.756,35.163-38.756,61.226v52.088C92.765,316.82,95.003,319.059,97.765,319.059z M312.317,241.322l0.001,49.498
	c0,0.001,0,0.002,0,0.003s0,0.002,0,0.003l0,23.232h-10v-18.235H255v18.235c0,2.762-2.238,5-5,5s-5-2.238-5-5v-18.235h-47.318
	l0,18.235c0,2.762-2.239,5-5,5c-2.762,0-5-2.238-5-5v-72.736H173.72c-15.28,0-27.712-12.431-27.712-27.711v-14.417
	c0-7.486,6.091-13.576,13.577-13.576h10.164c1.301-7.319,7.71-12.895,15.397-12.895h11.394c-0.908-2.611-1.402-5.366-1.402-8.172
	v-8.204c0-7.602,6.185-13.786,13.786-13.786h82.152c7.602,0,13.786,6.185,13.786,13.786v8.204c0,2.806-0.494,5.561-1.402,8.172
	h11.394c7.688,0,14.097,5.575,15.397,12.895h10.152c7.486,0,13.577,6.091,13.577,13.577v14.415c0,15.28-12.432,27.712-27.712,27.712
	H312.317z M314.854,182.724h-19.963h-34.252c-0.258,0-0.511,0.024-0.761,0.058c-0.07,0.01-0.14,0.02-0.209,0.032
	c-0.219,0.037-0.435,0.087-0.646,0.149c-0.073,0.021-0.144,0.048-0.216,0.072c-0.167,0.058-0.331,0.123-0.49,0.195
	c-0.094,0.042-0.187,0.086-0.278,0.134c-0.155,0.08-0.304,0.169-0.45,0.263c-0.105,0.068-0.206,0.141-0.306,0.216
	c-0.123,0.092-0.243,0.188-0.359,0.289c-0.068,0.06-0.135,0.119-0.199,0.182c-0.167,0.163-0.328,0.333-0.474,0.518
	c-0.02,0.024-0.038,0.052-0.057,0.076c-0.332,0.432-0.609,0.914-0.812,1.445c-0.004,0.011-0.01,0.02-0.014,0.03
	C255.133,187,255,187.665,255,188.362v42.96h52.317c0.003,0,0.006,0.001,0.01,0.001l18.941-0.001
	c9.767,0,17.712-7.945,17.712-17.712v-14.415c0-1.973-1.604-3.577-3.577-3.577h-9.911v13.774c0,2.762-2.238,5-5,5s-5-2.238-5-5
	v-18.774v-2.256C320.492,185.253,317.963,182.724,314.854,182.724z M207.576,172.724h31.785c0.511,0,1.019,0.027,1.522,0.077
	c0.382,0.037,0.756,0.101,1.13,0.165c0.107,0.019,0.217,0.028,0.323,0.05c2.915,0.564,5.534,1.945,7.631,3.888
	c0.01,0.01,0.022,0.018,0.032,0.027c0.01-0.01,0.022-0.018,0.032-0.027c2.097-1.942,4.717-3.323,7.631-3.888
	c0.106-0.021,0.215-0.03,0.322-0.05c0.374-0.064,0.749-0.128,1.131-0.165c0.503-0.05,1.01-0.077,1.522-0.077h31.785
	c1.583-2.427,2.438-5.262,2.438-8.172v-8.204c0-2.088-1.698-3.786-3.786-3.786h-82.152c-2.088,0-3.786,1.698-3.786,3.786v8.204
	C205.138,167.462,205.993,170.297,207.576,172.724z M192.683,231.322H245v-42.96c0-0.697-0.133-1.362-0.366-1.979
	c-0.004-0.011-0.01-0.02-0.014-0.03c-0.203-0.531-0.48-1.014-0.812-1.445c-0.02-0.024-0.037-0.052-0.057-0.076
	c-0.147-0.185-0.307-0.354-0.474-0.518c-0.065-0.063-0.132-0.122-0.199-0.182c-0.115-0.102-0.236-0.197-0.359-0.289
	c-0.1-0.075-0.201-0.147-0.306-0.216c-0.146-0.094-0.296-0.183-0.45-0.263c-0.091-0.048-0.184-0.092-0.278-0.134
	c-0.16-0.072-0.323-0.138-0.49-0.195c-0.072-0.024-0.143-0.051-0.216-0.072c-0.211-0.063-0.427-0.112-0.646-0.149
	c-0.069-0.013-0.139-0.022-0.209-0.032c-0.25-0.033-0.503-0.058-0.761-0.058h-34.252h-19.963c-3.109,0-5.639,2.529-5.639,5.639
	v2.256v18.774c0,2.762-2.238,5-5,5s-5-2.238-5-5v-13.774h-9.923c-1.973,0-3.577,1.604-3.577,3.576v14.417
	c0,9.766,7.945,17.711,17.712,17.711H192.683z M245,285.823v-44.501h-47.317l0,44.501H245z M302.318,285.823v-44.501H255v44.501
	H302.318z M361.807,203.122c-1.18,2.496-0.112,5.477,2.385,6.656c20.073,9.484,33.044,29.972,33.044,52.192v52.088
	c0,2.762,2.238,5,5,5s5-2.238,5-5v-52.088c0-26.069-15.219-50.105-38.772-61.233C365.969,199.559,362.986,200.625,361.807,203.122z
	 M206.372,85.804c12.675,0,22.987,10.313,22.987,22.987c0,12.676-10.313,22.988-22.987,22.988s-22.987-10.313-22.987-22.988
	C183.385,96.116,193.697,85.804,206.372,85.804z M193.385,108.791c0,7.162,5.826,12.988,12.987,12.988s12.987-5.826,12.987-12.988
	c0-7.161-5.826-12.987-12.987-12.987S193.385,101.63,193.385,108.791z M293.628,85.804c12.675,0,22.987,10.313,22.987,22.987
	c0,12.676-10.313,22.988-22.987,22.988s-22.987-10.313-22.987-22.988C270.641,96.116,280.953,85.804,293.628,85.804z
	 M293.628,95.804c-7.161,0-12.987,5.826-12.987,12.987c0,7.162,5.826,12.988,12.987,12.988s12.987-5.826,12.987-12.988
	C306.615,101.63,300.789,95.804,293.628,95.804z M198.629,73.458c0.559,0,1.126-0.094,1.683-0.292l27.345-9.77
	c2.6-0.93,3.955-3.791,3.026-6.392c-0.93-2.6-3.787-3.952-6.392-3.026l-27.345,9.77c-2.6,0.93-3.955,3.791-3.026,6.392
	C194.65,72.184,196.575,73.458,198.629,73.458z M303.054,63.748l-27.345-9.77c-2.603-0.927-5.462,0.426-6.392,3.026
	c-0.929,2.601,0.427,5.462,3.026,6.392l27.345,9.77c0.557,0.198,1.124,0.292,1.683,0.292c2.053,0,3.979-1.274,4.709-3.318
	C307.009,67.539,305.653,64.678,303.054,63.748z M235.963,438.022h-21.207v-78.279c0-2.762-2.238-5-5-5s-5,2.238-5,5v83.279
	c0,2.762,2.238,5,5,5h14.634l-37.352,39.683l-37.352-39.683h14.634c2.762,0,5-2.238,5-5v-83.279c0-2.762-2.238-5-5-5s-5,2.238-5,5
	v78.279h-21.206c-1.995,0-3.799,1.186-4.59,3.017s-0.418,3.958,0.949,5.41l48.924,51.978c0.944,1.004,2.262,1.573,3.641,1.573
	s2.696-0.569,3.641-1.573l48.925-51.978c1.367-1.452,1.74-3.578,0.949-5.41C239.762,439.208,237.958,438.022,235.963,438.022z
	 M361.886,438.022H340.68v-78.279c0-2.762-2.238-5-5-5s-5,2.238-5,5v83.279c0,2.762,2.238,5,5,5h14.634l-37.352,39.683
	l-37.352-39.683h14.634c2.762,0,5-2.238,5-5v-83.279c0-2.762-2.238-5-5-5s-5,2.238-5,5v78.279h-21.207
	c-1.995,0-3.799,1.186-4.59,3.017c-0.791,1.832-0.418,3.958,0.949,5.41l48.925,51.978c0.944,1.004,2.262,1.573,3.641,1.573
	s2.696-0.569,3.641-1.573l48.924-51.978c1.367-1.452,1.74-3.579,0.949-5.41S363.881,438.022,361.886,438.022z"/>
</svg>
