<?xml version="1.0" encoding="utf-8"?>
<!-- Generator: Adobe Illustrator 23.0.0, SVG Export Plug-In . SVG Version: 6.00 Build 0)  -->
<svg version="1.1" id="Layer_1" xmlns="http://www.w3.org/2000/svg" xmlns:xlink="http://www.w3.org/1999/xlink" x="0px" y="0px"
	 viewBox="0 0 500 500" style="enable-background:new 0 0 500 500;" xml:space="preserve">
<style type="text/css">
	.st0{fill:#83E1E5;}
	.st1{fill:#AAB1BA;}
	.st2{fill:#FDDF7F;}
	.st3{fill:#ECF4F7;}
	.st4{fill:#1C1D21;}
</style>
<path class="st2" d="M174.508,350.961v2.256h-14.923c-4.737,0-8.577,3.84-8.577,8.577v14.416c0,0.867,0.053,1.721,0.148,2.562
	c1.273,11.337,10.887,20.15,22.564,20.15h18.963l0,0l0,0l0,0l0,54.501h114.636l0-54.501l0,0l0,0l0,0h18.952
	c11.308,0,20.682-8.266,22.419-19.084c0.016-0.099,0.032-0.197,0.047-0.297c0.16-1.088,0.245-2.199,0.245-3.331v-13.624l0,0v-0.792
	c0-4.737-3.84-8.577-8.577-8.577h-14.911v-2.256c0-1.257-0.229-2.457-0.629-3.575c18.83-19.069,30.462-45.29,30.462-74.237
	c0-58.293-47.156-105.55-105.325-105.55s-105.325,47.257-105.325,105.55c0,28.947,11.632,55.168,30.462,74.237
	C174.738,348.504,174.508,349.704,174.508,350.961z"/>
<g>
	<path class="st3" d="M239.362,340.322c4.536,0,8.398,2.844,9.929,6.841h1.421c1.53-3.997,5.393-6.841,9.928-6.841h34.252
		c3.086-3.521,4.971-8.121,4.971-13.172v-8.204c0-4.853-3.934-8.786-8.786-8.786h-82.152c-4.852,0-8.786,3.934-8.786,8.786v8.204
		c0,5.051,1.885,9.65,4.971,13.172H239.362z"/>
</g>
<g>
	<path class="st0" d="M348.981,362.586v13.624c0,12.543-10.168,22.711-22.711,22.711h-18.952l0,54.501H192.683l0-54.501H173.72
		c-12.543,0-22.712-10.168-22.712-22.712v-13.621c-30.129,4.516-53.244,30.53-53.244,61.981V495h94.917h114.636h94.917v-70.431
		C402.236,393.114,379.115,367.099,348.981,362.586z"/>
</g>
<g>
	<circle class="st3" cx="206.373" cy="255.332" r="17.988"/>
</g>
<g>
	<circle class="st3" cx="293.628" cy="255.332" r="17.988"/>
</g>
<g>
	<circle class="st1" cx="250" cy="77.159" r="27.781"/>
</g>
<g>
	<circle class="st1" cx="250" cy="123.666" r="18.727"/>
</g>
<path class="st4" d="M82.442,332.229c0-2.762,2.239-5,5-5h6.535v-6.534c0-2.762,2.239-5,5-5s5,2.238,5,5v6.534h6.535
	c2.761,0,5,2.238,5,5s-2.239,5-5,5h-6.535v6.534c0,2.762-2.239,5-5,5s-5-2.238-5-5v-6.534h-6.535
	C84.681,337.229,82.442,334.991,82.442,332.229z M389.49,336.829h6.534v6.535c0,2.762,2.238,5,5,5s5-2.238,5-5v-6.535h6.534
	c2.762,0,5-2.238,5-5s-2.238-5-5-5h-6.534v-6.534c0-2.762-2.238-5-5-5s-5,2.238-5,5v6.534h-6.534c-2.762,0-5,2.238-5,5
	S386.729,336.829,389.49,336.829z M166.701,337.933c2.259-1.588,2.804-4.706,1.216-6.966
	c-11.934-16.981-18.242-36.975-18.242-57.818c0-55.443,45.006-100.55,100.325-100.55c55.319,0,100.325,45.106,100.325,100.55
	c0,20.845-6.308,40.838-18.241,57.818c-1.588,2.26-1.043,5.378,1.216,6.966c0.874,0.614,1.877,0.909,2.871,0.909
	c1.572,0,3.121-0.74,4.095-2.125c13.123-18.674,20.06-40.655,20.06-63.568c0-60.957-49.491-110.55-110.325-110.55
	s-110.325,49.593-110.325,110.55c0,22.913,6.937,44.895,20.06,63.568C161.322,338.976,164.441,339.52,166.701,337.933z M440.836,490
	h-3.813c-2.762,0-5,2.238-5,5s2.238,5,5,5h3.813c2.762,0,5-2.238,5-5S443.598,490,440.836,490z M419.862,490H80.138
	c-2.761,0-5,2.238-5,5s2.239,5,5,5h339.724c2.762,0,5-2.238,5-5S422.624,490,419.862,490z M62.979,490h-3.813c-2.761,0-5,2.238-5,5
	s2.239,5,5,5h3.813c2.761,0,5-2.238,5-5S65.74,490,62.979,490z M92.765,424.569v52.089c0,2.762,2.239,5,5,5s5-2.238,5-5v-52.089
	c0-22.214,12.965-42.698,33.03-52.185c2.497-1.181,3.563-4.161,2.383-6.658c-1.18-2.496-4.16-3.563-6.657-2.383
	C107.978,374.476,92.765,398.508,92.765,424.569z M302.318,476.658v-18.235h-47.317v18.235c0,2.762-2.239,5-5,5s-5-2.238-5-5
	v-18.235h-47.318l0,18.235c0,2.762-2.239,5-5,5s-5-2.238-5-5v-23.23c0-0.002,0-0.003,0-0.005s0-0.003,0-0.005v-49.497H173.72
	c-15.28,0-27.711-12.431-27.711-27.711v-14.416c0-7.486,6.091-13.577,13.577-13.577h10.164c1.3-7.319,7.71-12.895,15.397-12.895
	h11.394c-0.908-2.611-1.402-5.366-1.402-8.172v-8.204c0-7.602,6.185-13.786,13.786-13.786h82.151
	c7.602,0,13.786,6.185,13.786,13.786v8.204c0,2.806-0.494,5.561-1.402,8.172h11.393c7.688,0,14.097,5.575,15.397,12.895h10.153
	c7.486,0,13.576,6.091,13.576,13.577v14.416c0,15.28-12.431,27.711-27.711,27.711h-13.951v72.737c0,2.762-2.238,5-5,5
	S302.318,479.42,302.318,476.658z M294.891,345.322H260.64c-0.259,0-0.512,0.024-0.763,0.058c-0.069,0.01-0.137,0.02-0.205,0.031
	c-0.223,0.039-0.443,0.088-0.657,0.152c-0.067,0.02-0.131,0.044-0.197,0.066c-0.172,0.059-0.34,0.126-0.505,0.201
	c-0.091,0.041-0.181,0.084-0.27,0.13c-0.162,0.084-0.319,0.176-0.471,0.275c-0.096,0.063-0.188,0.13-0.281,0.198
	c-0.128,0.095-0.253,0.194-0.372,0.3c-0.065,0.058-0.13,0.115-0.192,0.175c-0.169,0.164-0.331,0.337-0.479,0.522
	c-0.018,0.022-0.034,0.047-0.052,0.07c-0.333,0.433-0.611,0.917-0.815,1.449c-0.004,0.011-0.01,0.021-0.015,0.031
	c-0.232,0.616-0.365,1.281-0.365,1.979v42.961h52.316l18.952-0.001c9.766,0,17.711-7.945,17.711-17.711v-14.416
	c0-1.973-1.604-3.577-3.576-3.577h-9.912v13.774c0,2.762-2.238,5-5,5s-5-2.238-5-5v-18.774v-2.256c0-3.109-2.529-5.639-5.639-5.639
	H294.891z M245,403.922h-47.317l0,44.501H245V403.922z M245,350.961c0-0.697-0.133-1.362-0.366-1.979
	c-0.004-0.011-0.01-0.02-0.014-0.03c-0.719-1.879-2.4-3.22-4.34-3.547c-0.044-0.008-0.088-0.015-0.133-0.021
	c-0.259-0.037-0.521-0.062-0.787-0.062H205.11h-19.963c-3.109,0-5.639,2.529-5.639,5.639v2.256v18.774c0,2.762-2.239,5-5,5
	s-5-2.238-5-5v-13.774h-9.922c-1.973,0-3.577,1.604-3.577,3.577v14.416c0,9.766,7.945,17.711,17.711,17.711h18.963
	c0.003,0,0.007,0.001,0.01,0.001H245V350.961z M257.665,335.614c0.102-0.021,0.206-0.029,0.308-0.048
	c0.379-0.065,0.757-0.13,1.145-0.167c0.495-0.05,0.994-0.075,1.497-0.076c0.008,0,0.016-0.001,0.024-0.001h0.001h31.784
	c1.583-2.426,2.438-5.262,2.438-8.172v-8.204c0-2.088-1.698-3.786-3.786-3.786h-82.151c-2.088,0-3.786,1.698-3.786,3.786v8.204
	c0,2.91,0.855,5.746,2.438,8.172h31.785c0.511,0,1.019,0.027,1.522,0.077c0.382,0.037,0.755,0.101,1.128,0.165
	c0.108,0.019,0.218,0.028,0.325,0.05c2.923,0.565,5.55,1.953,7.65,3.904c0.004,0.004,0.009,0.008,0.013,0.012
	c0.004-0.004,0.009-0.007,0.013-0.011C252.114,337.567,254.741,336.18,257.665,335.614z M302.318,448.423v-44.501h-47.317v44.501
	H302.318z M364.192,372.377c20.073,9.485,33.044,29.972,33.044,52.192v52.089c0,2.762,2.238,5,5,5s5-2.238,5-5v-52.089
	c0-26.069-15.219-50.104-38.772-61.233c-2.494-1.179-5.477-0.112-6.656,2.385C360.628,368.217,361.695,371.197,364.192,372.377z
	 M206.373,232.345c12.675,0,22.988,10.313,22.988,22.987c0,12.676-10.313,22.988-22.988,22.988s-22.988-10.313-22.988-22.988
	C183.385,242.657,193.697,232.345,206.373,232.345z M193.385,255.332c0,7.162,5.826,12.988,12.988,12.988
	s12.988-5.826,12.988-12.988c0-7.161-5.826-12.987-12.988-12.987S193.385,248.171,193.385,255.332z M293.628,232.345
	c12.676,0,22.988,10.313,22.988,22.987c0,12.676-10.313,22.988-22.988,22.988c-12.675,0-22.987-10.313-22.987-22.988
	C270.641,242.657,280.953,232.345,293.628,232.345z M293.628,242.345c-7.161,0-12.987,5.826-12.987,12.987
	c0,7.162,5.826,12.988,12.987,12.988c7.162,0,12.988-5.826,12.988-12.988C306.616,248.171,300.79,242.345,293.628,242.345z
	 M198.629,219.999c0.559,0,1.126-0.094,1.682-0.292l27.345-9.77c2.601-0.93,3.956-3.791,3.026-6.392
	c-0.929-2.6-3.791-3.953-6.391-3.026l-27.345,9.77c-2.601,0.93-3.956,3.791-3.026,6.392
	C194.651,218.725,196.576,219.999,198.629,219.999z M303.054,210.289l-27.345-9.77c-2.603-0.927-5.463,0.426-6.392,3.026
	s0.427,5.462,3.026,6.392l27.345,9.77c0.557,0.198,1.124,0.292,1.683,0.292c2.053,0,3.979-1.274,4.709-3.318
	C307.009,214.08,305.653,211.219,303.054,210.289z M182.937,123.644l7.619-22.759c1.82-5.438,5.676-9.761,10.552-12.238
	c-1.932-2.379-3.372-5.204-4.121-8.356l-8.679-36.543c-0.638-2.687,1.022-5.382,3.709-6.02c2.685-0.641,5.382,1.021,6.02,3.709
	l8.679,36.543c1.168,4.922,5.518,8.359,10.577,8.359h1.245c-0.852-2.915-1.318-5.994-1.318-9.181
	c0-16.375,12.07-29.984,27.781-32.399V24.355c0-2.762,2.239-5,5-5s5,2.238,5,5v20.403c15.711,2.415,27.781,16.023,27.781,32.399
	c0,3.187-0.466,6.266-1.318,9.181h1.248c5.059,0,9.408-3.438,10.577-8.359l8.679-36.543c0.637-2.686,3.328-4.352,6.02-3.709
	c2.687,0.638,4.348,3.333,3.709,6.02l-8.679,36.543c-0.749,3.153-2.189,5.978-4.122,8.357c4.875,2.477,8.73,6.8,10.551,12.237
	l7.619,22.759c0.877,2.618-0.535,5.451-3.154,6.328c-0.526,0.177-1.062,0.26-1.588,0.26c-2.091,0-4.04-1.321-4.74-3.414
	l-7.619-22.759c-1.546-4.617-5.856-7.72-10.726-7.72h-6.526h-6.151c-0.921,1.272-1.931,2.475-3.021,3.601h1.982
	c7.884,0,14.762,5.604,16.355,13.324l6.556,31.761c0.559,2.704-1.182,5.35-3.886,5.907c-0.341,0.07-0.681,0.104-1.016,0.104
	c-2.322,0-4.404-1.627-4.892-3.99l-6.556-31.761c-0.64-3.098-3.399-5.346-6.563-5.346h-6.185c2.761,3.878,4.392,8.614,4.392,13.727
	c0,13.083-10.644,23.727-23.727,23.727c-13.083,0-23.727-10.644-23.727-23.727c0-5.112,1.631-9.849,4.392-13.727h-6.186
	c-3.163,0-5.923,2.248-6.563,5.346l-6.555,31.761c-0.558,2.704-3.204,4.44-5.908,3.886c-2.704-0.558-4.444-3.203-3.886-5.907
	l6.555-31.761c1.594-7.721,8.473-13.324,16.356-13.324h1.982c-1.09-1.126-2.1-2.329-3.021-3.601h-6.149h-6.529
	c-4.87,0-9.18,3.103-10.726,7.72l-7.619,22.759c-0.7,2.093-2.65,3.414-4.741,3.414c-0.526,0-1.061-0.083-1.588-0.26
	C183.472,129.095,182.06,126.262,182.937,123.644z M263.728,123.666c0-7.569-6.158-13.727-13.727-13.727
	s-13.727,6.157-13.727,13.727s6.158,13.727,13.727,13.727S263.728,131.235,263.728,123.666z M227.22,77.158
	c0,12.562,10.219,22.781,22.781,22.781c12.561,0,22.781-10.22,22.781-22.781s-10.22-22.78-22.781-22.78
	C237.439,54.378,227.22,64.597,227.22,77.158z M250,13.959c2.762,0,5-2.238,5-5V5c0-2.762-2.238-5-5-5c-2.761,0-5,2.238-5,5v3.959
	C245,11.721,247.239,13.959,250,13.959z"/>
</svg>
