<?xml version="1.0" encoding="utf-8"?>
<!-- Generator: Adobe Illustrator 23.0.0, SVG Export Plug-In . SVG Version: 6.00 Build 0)  -->
<svg version="1.1" id="Layer_1" xmlns="http://www.w3.org/2000/svg" xmlns:xlink="http://www.w3.org/1999/xlink" x="0px" y="0px"
	 viewBox="0 0 500 500" style="enable-background:new 0 0 500 500;" xml:space="preserve">
<style type="text/css">
	.st0{fill:#83E1E5;}
	.st1{fill:#AAB1BA;}
	.st2{fill:#FDDF7F;}
	.st3{fill:#ECF4F7;}
	.st4{fill:#1C1D21;}
</style>
<g>
	<g>
		
			<ellipse transform="matrix(0.9732 -0.2298 0.2298 0.9732 -16.431 27.8127)" class="st1" cx="111.22" cy="84.466" rx="79.466" ry="79.466"/>
	</g>
</g>
<g>
	<g>
		<path class="st2" d="M130.603,38.834H90.387c-8.444,0-15.29,6.846-15.29,15.29v24.429h-3.359c-2.867,0-5.191,2.324-5.191,5.191
			v23.276c0,3.774,3.06,6.834,6.834,6.834h5.789c3.509,0,6.354,2.845,6.354,6.354v39.452c8.063,2.755,16.699,4.271,25.695,4.271
			c12.432,0,24.194-2.86,34.673-7.949V78.553V54.124C145.893,45.679,139.048,38.834,130.603,38.834z"/>
	</g>
</g>
<g>
	<g>
		<path class="st1" d="M184.492,157.194c-7.142,0-12.932,5.79-12.932,12.932c0,7.142,5.79,12.932,12.932,12.932
			s12.931-5.79,12.931-12.932C197.423,162.984,191.634,157.194,184.492,157.194z"/>
	</g>
</g>
<g>
	<g>
		
			<ellipse transform="matrix(0.7071 -0.7071 0.7071 0.7071 54.1446 299.6482)" class="st1" cx="388.78" cy="84.466" rx="79.466" ry="79.466"/>
	</g>
</g>
<g>
	<g>
		<path class="st1" d="M315.508,157.194c-7.142,0-12.931,5.79-12.931,12.932c0,7.142,5.79,12.932,12.931,12.932
			s12.932-5.79,12.932-12.932C328.44,162.984,322.65,157.194,315.508,157.194z"/>
	</g>
</g>
<g>
	<g>
		<path class="st0" d="M351.134,472.293l-38.14-116.454c-16.919,14.549-38.928,23.346-62.994,23.346s-46.074-8.797-62.994-23.346
			l-38.14,116.454C144.43,485.839,131.79,495,117.536,495h264.928C368.21,495,355.57,485.839,351.134,472.293z"/>
	</g>
</g>
<g>
	<g>
		<path class="st2" d="M380.77,375.292l-16.829-38.793c-2.206-5.085-3.345-10.57-3.345-16.113V290.81
			c0-8.295-1.676-16.505-4.928-24.137l-15.185-35.637c-2.182-5.12-7.21-8.443-12.776-8.443l-1.853,0
			c-17.705-22.381-45.102-36.744-75.855-36.744s-58.15,14.363-75.855,36.744l-1.853,0c-5.566,0-10.594,3.323-12.776,8.443
			l-15.185,35.637c-3.252,7.632-4.928,15.842-4.928,24.137v29.575c0,5.543-1.138,11.028-3.345,16.113l-16.829,38.793H84.532v87.644
			l0.021-0.038C85.002,479.93,98.856,495,117.536,495h0c14.254,0,26.894-9.161,31.33-22.707l38.14-116.454
			c16.919,14.549,38.928,23.346,62.994,23.346s46.074-8.796,62.994-23.346l38.14,116.454C355.57,485.839,368.21,495,382.464,495h0
			c18.68,0,32.534-15.07,32.983-32.102l0.021,0.038v-87.644H380.77z"/>
	</g>
</g>
<g>
	<g>
		<path class="st0" d="M139.404,299.226h-6.64c-26.637,0-48.231,21.594-48.231,48.232v27.834h34.698l16.829-38.793
			c0.552-1.271,1.036-2.568,1.453-3.884s0.766-2.651,1.046-4.001c0.561-2.7,0.845-5.457,0.845-8.228L139.404,299.226
			L139.404,299.226z"/>
	</g>
</g>
<g>
	<g>
		<path class="st0" d="M367.236,299.226h-6.64h0v21.159c0,2.772,0.285,5.529,0.845,8.228c0.28,1.35,0.629,2.685,1.046,4.001
			s0.902,2.612,1.453,3.884l16.829,38.793h34.698v-27.834C415.468,320.82,393.874,299.226,367.236,299.226z"/>
	</g>
</g>
<g>
	<g>
		<path class="st3" d="M430.174,110.901l-15.969-9.581c-2.841-1.704-5.017-4.324-6.173-7.429l-11.327-30.442h-13.726
			c-7.581,0-13.727-6.146-13.727-13.726v-9.629h-7.472l-0.024,0c-1.864,0.01-3.635,0.809-4.876,2.199l-23.938,25.918
			c-3.748,4.198-3.364,10.645,0.856,14.369l49.124,43.344c3.811,3.362,8.718,5.218,13.8,5.218h29.287
			c4.635,0,8.392-3.757,8.392-8.392v-4.381C434.402,115.309,432.797,112.475,430.174,110.901z"/>
	</g>
</g>
<g>
	<g>
		<path class="st2" d="M398.39,5.599l-29.137,34.494v9.629c0,7.581,6.146,13.726,13.727,13.726h13.726l36.945-44.564
			C423.376,11.842,411.364,7.164,398.39,5.599z"/>
	</g>
</g>
<path class="st4" d="M272.885,352.529c1.714,2.166,1.347,5.31-0.818,7.024c-0.918,0.726-2.013,1.079-3.1,1.079
	c-1.476,0-2.938-0.651-3.924-1.898c-3.665-4.632-9.147-7.288-15.043-7.288s-11.378,2.656-15.043,7.288
	c-1.713,2.166-4.856,2.532-7.023,0.819c-2.165-1.713-2.532-4.858-0.818-7.024c5.572-7.044,13.914-11.084,22.885-11.084
	S267.313,345.485,272.885,352.529z M52.15,490h-3.813c-2.762,0-5,2.239-5,5s2.238,5,5,5h3.813c2.762,0,5-2.239,5-5
	S54.912,490,52.15,490z M435.689,495c0,2.761-2.238,5-5,5h-90.144c-2.762,0-5-2.239-5-5s2.238-5,5-5h16.214
	c-4.673-4.298-8.298-9.801-10.378-16.151l-35.906-109.636c-17.437,12.912-38.635,19.971-60.475,19.971s-43.038-7.059-60.475-19.971
	l-35.906,109.636c-2.08,6.349-5.704,11.852-10.378,16.151h16.214c2.762,0,5,2.239,5,5s-2.238,5-5,5H69.311c-2.762,0-5-2.239-5-5
	s2.238-5,5-5h22.424c-7.148-6.582-11.739-15.902-12.162-26.422c-0.027-0.211-0.041-0.425-0.041-0.642v-87.644
	c0-0.072,0.018-0.14,0.021-0.211l-0.021-27.619c0-29.356,23.88-53.235,53.231-53.235h1.64v-3.416c0-9.019,1.793-17.799,5.329-26.097
	l15.184-35.637c2.902-6.81,9.472-11.254,16.835-11.464c19.406-23.394,47.784-36.764,78.249-36.764
	c30.465,0,58.843,13.371,78.247,36.764c7.364,0.209,13.934,4.654,16.837,11.463l15.184,35.638
	c3.536,8.298,5.329,17.078,5.329,26.097v3.416h1.64c29.352,0,53.231,23.88,53.231,53.232v27.834v87.644
	c0,0.218-0.014,0.434-0.042,0.646c-0.424,10.519-5.013,19.837-12.16,26.418h22.424C433.451,490,435.689,492.239,435.689,495z
	 M365.597,304.226v16.159c0,4.889,0.986,9.641,2.931,14.123l15.524,35.783h26.416v-22.834c0-23.838-19.394-43.232-43.231-43.232
	H365.597z M89.532,347.458l0.018,22.834h26.398l15.524-35.783c1.944-4.483,2.931-9.235,2.931-14.123v-16.159h-1.64
	C108.926,304.226,89.532,323.62,89.532,347.458z M182.254,354.283l4.357-13.306c2.823-8.617,4.254-17.583,4.254-26.65V290.81
	c0-9.02,1.793-17.801,5.328-26.097l8.971-21.055c1.546-3.629,1.186-7.597-0.989-10.888c-2.175-3.29-5.684-5.178-9.628-5.178h-20.402
	h-1.853c-3.567,0-6.777,2.121-8.177,5.404l-15.184,35.636c-3.005,7.052-4.528,14.513-4.528,22.177v29.575
	c0,6.266-1.264,12.357-3.757,18.103l-16.828,38.789c0,0.001,0,0.002-0.001,0.003l-15.597,35.951
	c-0.817,1.885-2.657,3.011-4.59,3.011c-0.664,0-1.339-0.133-1.987-0.414c-2.533-1.099-3.695-4.044-2.597-6.577l12.563-28.96H89.532
	v82.143c0.01,0.11,0.017,0.22,0.02,0.332C89.954,478.037,102.246,490,117.536,490c12.124,0,22.805-7.741,26.578-19.263
	L182.254,354.283z M307.184,354.162l-3.3-10.072c-3.151-9.625-4.749-19.638-4.749-29.763V290.81c0-7.663-1.523-15.125-4.527-22.178
	l-8.972-21.055c-2.844-6.673-2.153-14.27,1.846-20.321c4-6.052,10.718-9.665,17.972-9.665h9.271
	c-17.114-17.113-40.168-26.744-64.724-26.744c-24.555,0-47.609,9.631-64.725,26.744h9.271c7.254,0,13.972,3.613,17.971,9.664
	s4.689,13.648,1.846,20.322l-8.971,21.055c-3.004,7.051-4.527,14.512-4.527,22.177v23.516c0,10.126-1.599,20.14-4.75,29.763
	l-3.299,10.072c16.195,12.935,36.372,20.023,57.184,20.023S290.988,367.097,307.184,354.162z M382.464,490
	c15.29,0,27.582-11.963,27.984-27.234c0.003-0.112,0.01-0.223,0.02-0.333v-82.142h-22.073l12.563,28.96
	c1.099,2.533-0.063,5.478-2.597,6.577c-0.648,0.281-1.323,0.414-1.987,0.414c-1.933,0-3.772-1.126-4.59-3.011l-15.574-35.899
	c-0.008-0.018-0.019-0.033-0.027-0.051l-16.83-38.793c-2.493-5.747-3.757-11.837-3.757-18.103V290.81
	c0-7.664-1.523-15.125-4.528-22.177l-15.184-35.637c-1.399-3.282-4.609-5.403-8.177-5.403h-1.853c0,0,0,0,0,0c0,0,0,0,0,0h-20.401
	c-3.944,0-7.454,1.887-9.629,5.178c-2.175,3.291-2.535,7.259-0.989,10.887l8.972,21.055c3.535,8.299,5.328,17.08,5.328,26.097
	v23.516c0,9.066,1.431,18.033,4.253,26.651l4.358,13.305c0,0,0,0.001,0,0.001l38.139,116.453
	C359.659,482.259,370.34,490,382.464,490z M451.663,490h-3.813c-2.762,0-5,2.239-5,5s2.238,5,5,5h3.813c2.762,0,5-2.239,5-5
	S454.425,490,451.663,490z M26.755,84.466C26.755,37.891,64.646,0,111.221,0s84.466,37.891,84.466,84.466
	s-37.892,84.466-84.466,84.466S26.755,131.04,26.755,84.466z M36.755,84.466c0,41.061,33.405,74.466,74.466,74.466
	s74.466-33.405,74.466-74.466S152.281,10,111.221,10S36.755,43.405,36.755,84.466z M184.492,152.194
	c9.888,0,17.932,8.044,17.932,17.932s-8.044,17.932-17.932,17.932s-17.932-8.044-17.932-17.932S174.604,152.194,184.492,152.194z
	 M184.492,162.194c-4.373,0-7.932,3.558-7.932,7.932s3.559,7.932,7.932,7.932s7.932-3.558,7.932-7.932
	S188.865,162.194,184.492,162.194z M297.576,170.126c0-9.887,8.044-17.932,17.932-17.932s17.932,8.044,17.932,17.932
	s-8.044,17.932-17.932,17.932S297.576,180.013,297.576,170.126z M307.576,170.126c0,4.373,3.559,7.932,7.932,7.932
	s7.932-3.558,7.932-7.932s-3.559-7.932-7.932-7.932S307.576,165.752,307.576,170.126z M73.382,117.854h5.789
	c0.747,0,1.354,0.607,1.354,1.354V143c0,2.761,2.238,5,5,5s5-2.239,5-5v-23.792c0-6.261-5.094-11.354-11.354-11.354h-5.789
	c-1.012,0-1.834-0.823-1.834-1.834V83.744c0-0.105,0.085-0.191,0.19-0.191h34.482c1.902,0,3.449,1.547,3.449,3.45
	c0,1.902-1.547,3.45-3.449,3.45h-7.222h-0.135H84.532c-2.762,0-5,2.239-5,5s2.238,5,5,5h14.332h0.135
	c2.766,0,5.016,2.25,5.016,5.016v7.986c0,2.761,2.238,5,5,5s5-2.239,5-5v-7.986c0-2.358-0.562-4.583-1.535-6.571
	c4.27-2.256,7.19-6.738,7.19-11.895c0-7.416-6.033-13.45-13.449-13.45H80.097V53.124c0-5.674,4.616-10.29,10.29-10.29h40.217
	c5.674,0,10.29,4.616,10.29,10.29V138c0,2.761,2.238,5,5,5s5-2.239,5-5V53.124c0-11.188-9.103-20.29-20.29-20.29H90.387
	c-11.188,0-20.29,9.102-20.29,20.29v19.561c-4.842,0.787-8.549,4.998-8.549,10.059v23.276
	C61.548,112.545,66.856,117.854,73.382,117.854z M304.313,84.466C304.313,37.891,342.205,0,388.779,0s84.466,37.891,84.466,84.466
	s-37.892,84.466-84.466,84.466S304.313,131.04,304.313,84.466z M314.313,84.466c0,41.061,33.405,74.466,74.466,74.466
	s74.466-33.405,74.466-74.466S429.84,10,388.779,10S314.313,43.405,314.313,84.466z M375.613,126.142l-45.122-39.813
	c-3.047-2.689-4.858-6.403-5.1-10.459c-0.241-4.056,1.115-7.958,3.821-10.989L353.208,38.9c2.123-2.379,5.249-3.789,8.521-3.807
	l5.202,0l17.532-20.756c1.78-2.109,4.937-2.376,7.046-0.593c2.109,1.782,2.375,4.937,0.593,7.046l-17.85,21.132v7.8
	c0,0.902,0.138,1.773,0.393,2.592c0.34,1.092,0.89,2.093,1.602,2.956c0.178,0.216,0.366,0.422,0.564,0.62
	c1.58,1.58,3.762,2.559,6.167,2.559h11.377l26.137-31.528c1.763-2.125,4.913-2.421,7.041-0.658c2.126,1.762,2.42,4.914,0.658,7.04
	l-25.792,31.111l10.319,27.733c0.756,2.034,2.198,3.769,4.059,4.885l15.968,9.581c4.105,2.463,6.656,6.968,6.656,11.755v4.381
	c0,7.385-6.008,13.392-13.393,13.392h-24.559h-4.729h-30.291c-2.762,0-5-2.239-5-5s2.238-5,5-5H375.613z M396.723,126.142h4.729
	h24.559c1.871,0,3.393-1.522,3.393-3.392v-4.381c0-1.295-0.69-2.514-1.801-3.18l-15.968-9.581c-3.799-2.279-6.742-5.821-8.287-9.973
	l-10.115-27.186h-10.252c-9.035,0-16.596-6.432-18.345-14.957c-0.25-1.218-0.381-2.479-0.381-3.769v-4.629h-2.473
	c-0.443,0.003-0.871,0.196-1.17,0.53l-14.686,15.901l45.45,40.838c2.054,1.846,2.223,5.007,0.377,7.061
	c-0.987,1.099-2.351,1.658-3.721,1.658c-1.19,0-2.385-0.423-3.34-1.281l-45.552-40.929l-2.524,2.732
	c-0.862,0.967-1.323,2.294-1.241,3.672c0.082,1.379,0.697,2.641,1.733,3.555l49.123,43.344c0.001,0,0.001,0,0.001,0
	C389.13,124.733,392.856,126.142,396.723,126.142z M350.59,126.142h-2.285c-2.762,0-5,2.239-5,5s2.238,5,5,5h2.285
	c2.762,0,5-2.239,5-5S353.352,126.142,350.59,126.142z M111.221,220.582c2.762,0,5-2.239,5-5v-6.534h6.534c2.762,0,5-2.239,5-5
	s-2.238-5-5-5h-6.534v-6.534c0-2.761-2.238-5-5-5s-5,2.239-5,5v6.534h-6.535c-2.762,0-5,2.239-5,5s2.238,5,5,5h6.535v6.534
	C106.221,218.344,108.459,220.582,111.221,220.582z M388.779,220.582c2.762,0,5-2.239,5-5v-6.534h6.535c2.762,0,5-2.239,5-5
	s-2.238-5-5-5h-6.535v-6.534c0-2.761-2.238-5-5-5s-5,2.239-5,5v6.534h-6.534c-2.762,0-5,2.239-5,5s2.238,5,5,5h6.534v6.534
	C383.779,218.344,386.018,220.582,388.779,220.582z"/>
</svg>
