<?xml version="1.0" encoding="utf-8"?>
<!-- Generator: Adobe Illustrator 23.0.0, SVG Export Plug-In . SVG Version: 6.00 Build 0)  -->
<svg version="1.1" id="Layer_1" xmlns="http://www.w3.org/2000/svg" xmlns:xlink="http://www.w3.org/1999/xlink" x="0px" y="0px"
	 viewBox="0 0 500 500" style="enable-background:new 0 0 500 500;" xml:space="preserve">
<style type="text/css">
	.st0{fill:#83E1E5;}
	.st1{fill:#AAB1BA;}
	.st2{fill:#FDDF7F;}
	.st3{fill:#ECF4F7;}
	.st4{fill:#1C1D21;}
</style>
<g>
	<g>
		<ellipse class="st2" cx="201.553" cy="172.03" rx="102.041" ry="102.209"/>
	</g>
</g>
<g>
	<g>
		<path class="st1" d="M474.109,257.61h-18.501h-75.041h-18.501c-5.523,0-10,4.477-10,10v25.065h68.476h18.501
			c5.523,0,10,4.477,10,10v157.26h25.065c5.523,0,10-4.478,10-10V267.61C484.109,262.087,479.632,257.61,474.109,257.61z"/>
	</g>
</g>
<g>
	<g>
		<path class="st3" d="M439.044,292.675h-18.501h-75.041h-18.501c-5.523,0-10,4.477-10,10V485c0,5.523,4.477,10,10,10h122.042
			V302.675C449.044,297.152,444.567,292.675,439.044,292.675z"/>
	</g>
</g>
<g>
	<g>
		<path class="st2" d="M317.002,485v-40.682h-66.596h-139.21V341.33h-57.06v133.561c0,11.106,9.002,20.109,20.106,20.109h252.76
			C321.479,495,317.002,490.523,317.002,485z"/>
	</g>
</g>
<g>
	<g>
		<path class="st0" d="M326.251,271.271c-10.372-8.34-23.537-13.332-37.87-13.332h-31.529c-15.934,10.312-34.917,16.3-55.299,16.3
			s-39.365-5.988-55.299-16.3h-31.529c-33.463,0-60.591,27.186-60.591,60.721v22.67h57.06v102.988h139.21h66.596v-5v0V310.654
			v-7.979c0-5.523,4.477-10,10-10h7.979h1.503C336.484,284.361,332.73,276.481,326.251,271.271z"/>
	</g>
</g>
<g>
	<g>
		<path class="st3" d="M250.782,206.144c-4.378-3.804-11.009-3.339-14.813,1.038c-8.7,10.01-21.22,15.792-34.415,15.933
			c-13.195-0.14-25.715-5.922-34.415-15.933c-3.804-4.377-10.435-4.841-14.813-1.038c-4.377,3.804-4.841,10.436-1.038,14.813
			c12.69,14.602,30.988,23.017,50.266,23.157c19.278-0.14,37.576-8.556,50.266-23.157
			C255.623,216.58,255.159,209.948,250.782,206.144z"/>
	</g>
</g>
<g>
	<g>
		<path class="st1" d="M410.527,390.633l-27.504-32.094l-27.504,32.094c-5.62,6.557-4.712,16.342,2.022,21.8h0
			c6.26,5.074,15.433,4.651,21.179-0.976l4.302-4.213l4.302,4.213c5.746,5.627,14.919,6.05,21.179,0.976
			C415.238,406.975,416.146,397.19,410.527,390.633z"/>
	</g>
</g>
<path class="st4" d="M170.912,203.902c-5.604-6.449-15.415-7.137-21.867-1.532c-6.451,5.606-7.138,15.416-1.532,21.867
	c13.609,15.659,33.292,24.727,54.076,24.877c20.71-0.151,40.394-9.218,54.004-24.877c5.606-6.451,4.919-16.26-1.532-21.867
	c0,0,0,0,0,0c-6.452-5.605-16.261-4.918-21.866,1.532c-7.729,8.894-18.896,14.072-30.642,14.212
	C189.808,217.974,178.642,212.795,170.912,203.902z M201.606,228.114c14.622-0.155,28.521-6.589,38.136-17.653
	c1.989-2.289,5.471-2.532,7.76-0.543c2.288,1.99,2.532,5.47,0.543,7.759c-11.728,13.494-28.687,21.308-46.456,21.438
	c-17.842-0.13-34.8-7.943-46.528-21.437c-1.989-2.289-1.745-5.77,0.543-7.759c1.04-0.904,2.325-1.346,3.605-1.346
	c1.539,0,3.069,0.64,4.155,1.889c9.615,11.063,23.515,17.497,38.136,17.653C201.536,228.114,201.57,228.114,201.606,228.114z
	 M244.32,16.534c0-2.761,2.239-5,5-5h6.535V5c0-2.761,2.239-5,5-5s5,2.239,5,5v6.534h6.535c2.761,0,5,2.239,5,5s-2.239,5-5,5h-6.535
	v6.535c0,2.761-2.239,5-5,5s-5-2.239-5-5v-6.535h-6.535C246.559,21.534,244.32,19.296,244.32,16.534z M185.019,16.534
	c0-2.761,2.239-5,5-5h6.534V5c0-2.761,2.239-5,5-5s5,2.239,5,5v6.534h6.535c2.761,0,5,2.239,5,5s-2.239,5-5,5h-6.535v6.535
	c0,2.761-2.239,5-5,5s-5-2.239-5-5v-6.535h-6.534C187.258,21.534,185.019,19.296,185.019,16.534z M125.717,16.534
	c0-2.761,2.239-5,5-5h6.535V5c0-2.761,2.239-5,5-5s5,2.239,5,5v6.534h6.535c2.761,0,5,2.239,5,5s-2.239,5-5,5h-6.535v6.535
	c0,2.761-2.239,5-5,5s-5-2.239-5-5v-6.535h-6.535C127.956,21.534,125.717,19.296,125.717,16.534z M111.195,449.318h186.426
	c2.761,0,5-2.239,5-5s-2.239-5-5-5H116.195V341.33v-31.417c0-2.761-2.239-5-5-5s-5,2.239-5,5v26.417h-47.06v-17.67
	c0-30.724,24.938-55.72,55.591-55.72h30.071c7.054,4.427,14.56,7.972,22.362,10.622c0.048,0.016,0.095,0.033,0.143,0.049
	c0.741,0.251,1.485,0.493,2.232,0.727c0.263,0.083,0.527,0.161,0.79,0.242c1.051,0.321,2.106,0.625,3.166,0.913
	c0.51,0.139,1.019,0.28,1.532,0.411c0.505,0.129,1.012,0.25,1.519,0.372c0.604,0.146,1.21,0.285,1.818,0.42
	c0.436,0.096,0.871,0.195,1.309,0.286c1.011,0.211,2.027,0.411,3.048,0.593c0.248,0.044,0.498,0.082,0.747,0.124
	c0.865,0.148,1.733,0.286,2.605,0.413c0.336,0.049,0.673,0.096,1.01,0.142c0.913,0.124,1.829,0.237,2.749,0.338
	c0.198,0.022,0.395,0.048,0.592,0.068c1.108,0.115,2.221,0.211,3.338,0.292c0.275,0.02,0.55,0.035,0.825,0.053
	c0.876,0.057,1.754,0.103,2.635,0.138c0.316,0.013,0.632,0.026,0.948,0.036c1.125,0.035,2.254,0.059,3.388,0.059
	c1.134,0,2.262-0.024,3.388-0.059c0.316-0.01,0.632-0.023,0.948-0.036c0.881-0.035,1.76-0.082,2.635-0.138
	c0.275-0.018,0.55-0.033,0.825-0.053c1.117-0.081,2.231-0.177,3.339-0.292c0.197-0.021,0.393-0.046,0.59-0.068
	c0.921-0.101,1.838-0.214,2.752-0.338c0.336-0.046,0.672-0.093,1.008-0.142c0.873-0.127,1.743-0.265,2.609-0.414
	c0.248-0.042,0.496-0.08,0.744-0.124c1.022-0.183,2.038-0.382,3.05-0.594c0.437-0.091,0.871-0.189,1.306-0.286
	c0.609-0.135,1.217-0.275,1.822-0.421c0.505-0.121,1.011-0.242,1.514-0.371c0.518-0.133,1.032-0.275,1.546-0.415
	c1.055-0.286,2.104-0.589,3.149-0.908c0.266-0.081,0.532-0.161,0.797-0.244c0.745-0.234,1.487-0.476,2.227-0.726
	c0.051-0.017,0.101-0.035,0.152-0.052c7.8-2.65,15.303-6.194,22.356-10.62h30.071c12.776,0,24.788,4.229,34.737,12.229
	c2.152,1.73,5.299,1.389,7.03-0.763c1.73-2.152,1.389-5.299-0.763-7.03c-11.577-9.309-26.138-14.436-41.003-14.436h-16.675
	c22.586-19.671,36.889-48.648,36.889-80.909c0-59.115-48.019-107.209-107.042-107.209c-59.022,0-107.041,48.094-107.041,107.209
	c0,32.261,14.303,61.239,36.889,80.909h-16.675c-36.167,0-65.591,29.482-65.591,65.72v22.67v133.56
	c0,13.845,11.263,25.109,25.106,25.109h223.38c2.761,0,5-2.239,5-5s-2.239-5-5-5H74.242c-8.33,0-15.106-6.778-15.106-15.109V346.33
	h47.06v97.988C106.195,447.08,108.434,449.318,111.195,449.318z M104.512,172.03c0-53.601,43.532-97.209,97.041-97.209
	s97.042,43.608,97.042,97.209c0,43.416-28.562,80.271-67.85,92.712c-0.212,0.067-0.423,0.134-0.636,0.2
	c-0.619,0.191-1.24,0.378-1.864,0.557c-0.386,0.11-0.774,0.214-1.161,0.32c-0.818,0.224-1.64,0.437-2.467,0.639
	c-0.559,0.136-1.119,0.272-1.68,0.398c-0.422,0.095-0.844,0.187-1.268,0.277c-0.716,0.151-1.435,0.295-2.155,0.43
	c-0.256,0.048-0.51,0.101-0.767,0.148c-0.969,0.174-1.942,0.33-2.917,0.474c-0.299,0.044-0.6,0.085-0.9,0.127
	c-0.8,0.111-1.603,0.212-2.407,0.303c-0.241,0.027-0.482,0.058-0.724,0.083c-1.022,0.108-2.046,0.2-3.073,0.275
	c-0.213,0.016-0.426,0.027-0.639,0.041c-0.847,0.057-1.696,0.102-2.546,0.137c-0.283,0.011-0.567,0.023-0.851,0.032
	c-1.044,0.033-2.089,0.056-3.137,0.056s-2.093-0.023-3.137-0.056c-0.284-0.009-0.568-0.021-0.851-0.032
	c-0.85-0.035-1.699-0.08-2.546-0.137c-0.213-0.014-0.427-0.025-0.639-0.041c-1.027-0.075-2.051-0.168-3.073-0.275
	c-0.242-0.026-0.482-0.056-0.724-0.083c-0.804-0.091-1.607-0.192-2.407-0.303c-0.3-0.042-0.601-0.082-0.9-0.127
	c-0.975-0.144-1.948-0.3-2.917-0.474c-0.257-0.046-0.511-0.1-0.767-0.148c-0.72-0.135-1.438-0.279-2.154-0.43
	c-0.424-0.09-0.847-0.182-1.269-0.277c-0.562-0.126-1.122-0.262-1.681-0.398c-0.825-0.202-1.647-0.415-2.464-0.638
	c-0.388-0.106-0.777-0.21-1.164-0.321c-0.624-0.179-1.244-0.365-1.863-0.556c-0.212-0.065-0.424-0.133-0.636-0.2
	C133.074,252.302,104.512,215.446,104.512,172.03z M489.109,267.61v182.325c0,8.271-6.729,15-15,15h-7.496c-2.761,0-5-2.239-5-5
	s2.239-5,5-5h7.496c2.757,0,5-2.243,5-5V267.61c0-2.757-2.243-5-5-5H362.067c-2.757,0-5,2.243-5,5v9.806c0,2.761-2.239,5-5,5
	s-5-2.239-5-5v-9.806c0-8.271,6.729-15,15-15h112.042C482.38,252.61,489.109,259.339,489.109,267.61z M386.819,355.285
	c-0.95-1.108-2.336-1.746-3.796-1.746s-2.847,0.638-3.796,1.746l-27.503,32.094c-3.597,4.197-5.304,9.52-4.807,14.989
	c0.499,5.491,3.154,10.445,7.478,13.949c6.871,5.569,16.283,6.112,23.629,1.876v10.944c0,2.761,2.239,5,5,5s5-2.239,5-5v-10.951
	c3.214,1.854,6.814,2.812,10.435,2.812c4.656,0,9.329-1.548,13.194-4.68c4.323-3.504,6.979-8.458,7.478-13.949
	c0.497-5.469-1.21-10.792-4.807-14.989L386.819,355.285z M409.171,401.464c-0.252,2.779-1.607,5.295-3.815,7.085
	c-4.321,3.503-10.568,3.217-14.532-0.664l-4.302-4.213c-0.083-0.082-0.18-0.14-0.267-0.214c-0.155-0.132-0.305-0.268-0.475-0.381
	c-0.137-0.091-0.284-0.156-0.427-0.232c-0.142-0.076-0.279-0.16-0.429-0.222c-0.172-0.071-0.351-0.114-0.529-0.164
	c-0.133-0.038-0.261-0.089-0.399-0.116c-0.321-0.063-0.647-0.098-0.973-0.098s-0.652,0.035-0.973,0.098
	c-0.138,0.027-0.266,0.078-0.399,0.117c-0.178,0.051-0.356,0.093-0.529,0.164c-0.15,0.062-0.287,0.147-0.429,0.222
	c-0.143,0.076-0.289,0.141-0.426,0.231c-0.17,0.113-0.321,0.249-0.476,0.382c-0.087,0.074-0.183,0.132-0.267,0.214l-4.302,4.213
	c-3.963,3.881-10.211,4.167-14.532,0.664c-2.208-1.789-3.563-4.305-3.815-7.085c-0.25-2.757,0.616-5.448,2.441-7.577l23.707-27.664
	l23.707,27.664C408.555,396.016,409.421,398.707,409.171,401.464z M342.583,312.38v4.703c0,2.761-2.239,5-5,5s-5-2.239-5-5v-4.703
	c0-2.761,2.239-5,5-5S342.583,309.618,342.583,312.38z M433.462,470.592v4.704c0,2.761-2.239,5-5,5s-5-2.239-5-5v-4.704
	c0-2.761,2.239-5,5-5S433.462,467.831,433.462,470.592z M489.109,495c0,2.761-2.239,5-5,5h-3.813c-2.761,0-5-2.239-5-5s2.239-5,5-5
	h3.813C486.871,490,489.109,492.239,489.109,495z M462.548,490h-8.504V302.675c0-8.271-6.729-15-15-15H327.001
	c-8.271,0-15,6.729-15,15V485c0,8.271,6.729,15,15,15h122.042h13.504c2.761,0,5-2.239,5-5S465.31,490,462.548,490z M444.044,490
	H327.001c-2.757,0-5-2.243-5-5V302.675c0-2.757,2.243-5,5-5h112.042c2.757,0,5,2.243,5,5V490z M140.831,163.384
	c0,6.556,4.261,12.135,10.159,14.113c1.839,6.132,7.534,10.614,14.256,10.614c8.085,0,14.684-6.481,14.877-14.521
	c4.93-3.944,7.94-9.971,7.94-16.601v-5.542c0-5.186-1.865-9.945-4.959-13.641c3.042-2.727,4.959-6.686,4.959-11.083
	c0-5.869-3.414-10.955-8.359-13.376c-1.59-6.507-7.469-11.351-14.458-11.351c-7.666,0-13.996,5.828-14.795,13.287
	c-5.865,3.811-9.62,10.396-9.62,17.834v5.541c0,5.187,1.865,9.946,4.96,13.642C142.748,155.028,140.831,158.987,140.831,163.384z
	 M166.791,149.936h-2.344h-2.344c-6.215,0-11.272-5.058-11.272-11.277v-5.541c0-5.627,4.141-10.304,9.535-11.142v-5.097
	c0-2.696,2.185-4.882,4.879-4.882s4.881,2.186,4.881,4.882v4.962h3.056c2.695,0,4.88,2.186,4.88,4.882s-2.185,4.882-4.88,4.882
	h-11.08c-0.833,0-1.511,0.678-1.511,1.512v5.541c0,0.835,0.678,1.512,1.511,1.512h2.344h2.344c6.215,0,11.272,5.058,11.272,11.276
	v5.542c0,5.057-3.344,9.345-7.936,10.772v5.467c0,2.696-2.186,4.882-4.881,4.882s-4.879-2.186-4.879-4.882v-4.963h-4.654
	c-2.696,0-4.881-2.185-4.881-4.881c0-2.698,2.185-4.882,4.881-4.882h11.079c0.833,0,1.511-0.679,1.511-1.512v-5.542
	C168.302,150.614,167.624,149.936,166.791,149.936z M215.044,163.384c0,6.556,4.261,12.135,10.159,14.113
	c1.839,6.132,7.534,10.614,14.256,10.614c8.085,0,14.684-6.481,14.877-14.521c4.93-3.944,7.94-9.971,7.94-16.601v-5.542
	c0-5.186-1.865-9.945-4.959-13.641c3.042-2.727,4.959-6.686,4.959-11.083c0-5.869-3.414-10.955-8.359-13.376
	c-1.59-6.507-7.469-11.351-14.458-11.351c-7.666,0-13.996,5.829-14.795,13.287c-5.865,3.811-9.62,10.396-9.62,17.834v5.541
	c0,5.187,1.865,9.946,4.96,13.642C216.962,155.028,215.044,158.987,215.044,163.384z M241.004,149.936h-2.344h-2.344
	c-6.215,0-11.272-5.058-11.272-11.277v-5.541c0-5.627,4.141-10.304,9.535-11.142v-5.097c0-2.696,2.185-4.882,4.879-4.882
	s4.881,2.186,4.881,4.882v4.962h3.056c2.695,0,4.88,2.186,4.88,4.882s-2.185,4.882-4.88,4.882h-11.08
	c-0.833,0-1.511,0.678-1.511,1.512v5.541c0,0.835,0.678,1.512,1.511,1.512h2.344h2.344c6.215,0,11.272,5.058,11.272,11.276v5.542
	c0,5.057-3.344,9.345-7.936,10.772v5.467c0,2.696-2.186,4.882-4.881,4.882s-4.879-2.186-4.879-4.882v-4.963h-4.654
	c-2.696,0-4.881-2.185-4.881-4.881c0-2.698,2.185-4.882,4.881-4.882h11.079c0.833,0,1.511-0.679,1.511-1.512v-5.542
	C242.515,150.614,241.838,149.936,241.004,149.936z"/>
<g>
	<g>
		<path class="st0" d="M166.791,140.172h-2.344h-2.344c-0.833,0-1.511-0.678-1.511-1.512v-5.541c0-0.835,0.678-1.512,1.511-1.512
			h11.08c2.695,0,4.88-2.186,4.88-4.882s-2.185-4.882-4.88-4.882h-3.056v-4.962c0-2.696-2.186-4.882-4.881-4.882
			s-4.879,2.186-4.879,4.882v5.097c-5.394,0.839-9.535,5.515-9.535,11.142v5.541c0,6.219,5.057,11.277,11.272,11.277h2.344h2.344
			c0.833,0,1.511,0.678,1.511,1.511v5.542c0,0.833-0.678,1.512-1.511,1.512h-11.079c-2.696,0-4.881,2.185-4.881,4.882
			c0,2.696,2.185,4.881,4.881,4.881h4.654v4.964c0,2.696,2.185,4.882,4.879,4.882s4.881-2.186,4.881-4.882v-5.467
			c4.592-1.427,7.936-5.716,7.936-10.772v-5.542C178.063,145.23,173.006,140.172,166.791,140.172z"/>
	</g>
</g>
<g>
	<g>
		<path class="st0" d="M241.004,140.172h-2.344h-2.344c-0.833,0-1.511-0.678-1.511-1.512v-5.541c0-0.835,0.678-1.512,1.511-1.512
			h11.08c2.695,0,4.88-2.186,4.88-4.882s-2.185-4.882-4.88-4.882h-3.056v-4.962c0-2.696-2.186-4.882-4.881-4.882
			s-4.879,2.186-4.879,4.882v5.097c-5.394,0.839-9.535,5.515-9.535,11.142v5.541c0,6.219,5.057,11.277,11.272,11.277h2.344h2.344
			c0.833,0,1.511,0.678,1.511,1.511v5.542c0,0.833-0.678,1.512-1.511,1.512h-11.079c-2.696,0-4.881,2.185-4.881,4.882
			c0,2.696,2.185,4.881,4.881,4.881h4.654v4.964c0,2.696,2.185,4.882,4.879,4.882s4.881-2.186,4.881-4.882v-5.467
			c4.592-1.427,7.936-5.716,7.936-10.772v-5.542C252.276,145.23,247.219,140.172,241.004,140.172z"/>
	</g>
</g>
</svg>
