<?xml version="1.0" encoding="utf-8"?>
<!-- Generator: Adobe Illustrator 23.0.0, SVG Export Plug-In . SVG Version: 6.00 Build 0)  -->
<svg version="1.1" id="Layer_1" xmlns="http://www.w3.org/2000/svg" xmlns:xlink="http://www.w3.org/1999/xlink" x="0px" y="0px"
	 viewBox="0 0 500 500" style="enable-background:new 0 0 500 500;" xml:space="preserve">
<style type="text/css">
	.st0{fill:#83E1E5;}
	.st1{fill:#AAB1BA;}
	.st2{fill:#FDDF7F;}
	.st3{fill:#ECF4F7;}
	.st4{fill:#1C1D21;}
</style>
<g>
	<path class="st1" d="M162.782,266.418h31.697c-11.531-7.462-21.468-17.183-29.193-28.534h-28.373
		c0-15.041-12.194-27.234-27.235-27.234s-27.235,12.193-27.235,27.234H67.595c-3.229,0-5.836-2.635-5.803-5.863l0.371-35.908h21.425
		c5.578,0,10.101-4.522,10.101-10.101v-18.815c0-6.383-5.175-11.558-11.558-11.558H46.605c-4.958,0-9.363,3.162-10.949,7.858
		L5.528,261.729c-2.334,7.611,3.358,15.311,11.319,15.311h111.609C138.229,270.342,150.047,266.418,162.782,266.418z"/>
</g>
<g>
	<path class="st1" d="M494.472,261.729l-30.127-98.232c-1.586-4.696-5.992-7.858-10.949-7.858H417.87
		c-6.383,0-11.558,5.175-11.558,11.558v18.815c0,5.578,4.522,10.101,10.101,10.101h21.425l0.371,35.908
		c0.033,3.228-2.574,5.863-5.803,5.863h-14.847c-0.001-15.041-12.194-27.234-27.235-27.234s-27.235,12.193-27.235,27.234h-28.373
		c-7.725,11.352-17.662,21.072-29.193,28.534h31.697c12.735,0,24.553,3.924,34.325,10.622h111.609
		C491.114,277.04,496.806,269.341,494.472,261.729z"/>
</g>
<g>
	<g>
		<ellipse class="st2" cx="250" cy="180.163" rx="102.451" ry="102.62"/>
	</g>
</g>
<g>
	<g>
		<path class="st0" d="M337.218,266.418h-31.697c-15.998,10.353-35.058,16.365-55.521,16.365c-20.463,0-39.523-6.013-55.521-16.365
			h-31.697c-33.614,0-60.864,27.295-60.864,60.964V495H250h148.081V327.382C398.081,293.713,370.832,266.418,337.218,266.418z"/>
	</g>
</g>
<g>
	<g>
		<rect x="101.919" y="363.254" class="st2" width="52.805" height="131.746"/>
	</g>
</g>
<g>
	<g>
		<rect x="345.276" y="363.254" class="st2" width="52.805" height="131.746"/>
	</g>
</g>
<path class="st4" d="M101.778,282.04H16.848c-5.397,0-10.332-2.489-13.541-6.829c-3.208-4.339-4.141-9.787-2.559-14.947
	l30.128-98.232c0.014-0.045,0.028-0.09,0.043-0.134c2.274-6.734,8.578-11.259,15.687-11.259h35.525
	c9.129,0,16.557,7.428,16.557,16.558v18.815c0,8.326-6.773,15.101-15.1,15.101H67.111l-0.319,30.96
	c-0.003,0.277,0.125,0.465,0.232,0.573s0.293,0.238,0.57,0.238H77.83c2.41-15.408,15.774-27.234,31.848-27.234
	c17.774,0,32.235,14.46,32.235,32.234v9.076c0,2.762-2.238,5-5,5s-5-2.238-5-5v-9.076c0-12.26-9.975-22.234-22.235-22.234
	c-12.26,0-22.234,9.975-22.235,22.234v9.076c0,2.762-2.238,5-5,5s-5-2.238-5-5v-4.076h-9.848c-2.906,0-5.634-1.138-7.678-3.203
	c-2.045-2.066-3.154-4.805-3.125-7.712l0.319-30.886c-6.221-0.303-11.193-5.444-11.193-11.738v-6.897c0-2.762,2.238-5,5-5
	s5,2.238,5,5v6.897c0,0.975,0.793,1.768,1.768,1.768h4.478h21.425c2.812,0,5.1-2.288,5.1-5.101v-18.815
	c0-3.616-2.941-6.558-6.557-6.558H46.605c-2.795,0-5.275,1.766-6.192,4.4l-30.104,98.156c-0.643,2.096-0.264,4.309,1.039,6.071
	c1.304,1.763,3.308,2.773,5.5,2.773h84.931c2.762,0,5,2.238,5,5S104.54,282.04,101.778,282.04z M499.252,260.264l-30.128-98.232
	c-0.014-0.045-0.028-0.09-0.043-0.134c-2.274-6.734-8.578-11.259-15.687-11.259h-35.525c-9.129,0-16.557,7.428-16.557,16.558v18.815
	c0,8.326,6.773,15.101,15.1,15.101h16.477l0.319,30.96c0.003,0.277-0.125,0.465-0.232,0.573s-0.293,0.238-0.57,0.238H422.17
	c-2.41-15.408-15.774-27.234-31.848-27.234c-17.774,0-32.235,14.46-32.235,32.234v9.076c0,2.762,2.238,5,5,5s5-2.238,5-5v-9.076
	c0-12.26,9.975-22.234,22.235-22.234c12.26,0,22.234,9.975,22.235,22.234v9.076c0,2.762,2.238,5,5,5s5-2.238,5-5v-4.076h9.848
	c2.906,0,5.634-1.138,7.678-3.203c2.045-2.066,3.154-4.805,3.125-7.712l-0.319-30.886c6.221-0.303,11.193-5.444,11.193-11.738
	v-6.897c0-2.762-2.238-5-5-5s-5,2.238-5,5v6.897c0,0.975-0.793,1.768-1.768,1.768h-4.478h-21.425c-2.812,0-5.1-2.288-5.1-5.101
	v-18.815c0-3.616,2.941-6.558,6.557-6.558h35.525c2.795,0,5.275,1.766,6.192,4.4l30.104,98.156c0.643,2.096,0.264,4.309-1.039,6.071
	c-1.304,1.763-3.308,2.773-5.5,2.773h-82.892c-2.762,0-5,2.238-5,5s2.238,5,5,5h82.892c5.397,0,10.332-2.489,13.541-6.829
	C499.901,270.872,500.834,265.424,499.252,260.264z M142.549,180.163c0-59.342,48.202-107.619,107.451-107.619
	s107.451,48.277,107.451,107.619c0,32.404-14.374,61.508-37.07,81.255h16.836c36.317,0,65.863,29.591,65.863,65.964v149.276
	c0,2.762-2.238,5-5,5s-5-2.238-5-5V368.254h-42.805v108.404c0,2.762-2.238,5-5,5s-5-2.238-5-5V323.596c0-2.762,2.238-5,5-5
	s5,2.238,5,5v34.658h42.805v-30.872c0-30.858-25.061-55.964-55.863-55.964h-30.239c-7.071,4.438-14.594,7.993-22.415,10.652
	c-0.066,0.022-0.132,0.046-0.198,0.068c-0.734,0.248-1.471,0.488-2.21,0.721c-0.279,0.088-0.559,0.171-0.839,0.257
	c-1.017,0.31-2.038,0.604-3.063,0.884c-0.542,0.148-1.083,0.298-1.629,0.438c-0.498,0.127-0.998,0.247-1.499,0.367
	c-0.617,0.148-1.236,0.292-1.858,0.43c-0.429,0.095-0.858,0.191-1.289,0.281c-1.02,0.214-2.044,0.415-3.074,0.599
	c-0.24,0.043-0.482,0.079-0.722,0.12c-0.877,0.15-1.758,0.29-2.642,0.419c-0.335,0.049-0.67,0.096-1.005,0.142
	c-0.92,0.125-1.844,0.239-2.772,0.341c-0.195,0.021-0.389,0.047-0.584,0.066c-1.113,0.116-2.232,0.213-3.355,0.294
	c-0.275,0.02-0.55,0.035-0.826,0.053c-0.879,0.057-1.76,0.104-2.645,0.139c-0.318,0.013-0.635,0.026-0.954,0.036
	c-1.13,0.035-2.262,0.06-3.4,0.06s-2.271-0.024-3.4-0.06c-0.318-0.01-0.636-0.023-0.954-0.036c-0.885-0.035-1.766-0.082-2.645-0.139
	c-0.275-0.018-0.551-0.033-0.826-0.053c-1.123-0.081-2.242-0.178-3.355-0.294c-0.195-0.02-0.389-0.046-0.584-0.066
	c-0.928-0.102-1.852-0.216-2.772-0.341c-0.335-0.046-0.67-0.093-1.004-0.142c-0.885-0.129-1.765-0.269-2.643-0.419
	c-0.24-0.041-0.482-0.077-0.722-0.12c-1.03-0.184-2.054-0.385-3.074-0.599c-0.431-0.09-0.859-0.187-1.289-0.281
	c-0.621-0.138-1.24-0.281-1.858-0.43c-0.5-0.12-1-0.24-1.499-0.367c-0.545-0.14-1.087-0.289-1.629-0.438
	c-1.026-0.279-2.047-0.574-3.063-0.884c-0.28-0.086-0.56-0.169-0.839-0.257c-0.74-0.232-1.476-0.473-2.21-0.721
	c-0.066-0.022-0.132-0.046-0.198-0.068c-7.82-2.659-15.343-6.215-22.415-10.652h-30.239c-30.803,0-55.863,25.105-55.863,55.964
	v30.872h42.805v-34.658c0-2.762,2.238-5,5-5s5,2.238,5,5v153.063c0,2.762-2.238,5-5,5s-5-2.238-5-5V368.254h-42.805v108.404
	c0,2.762-2.238,5-5,5s-5-2.238-5-5V327.382c0-36.373,29.546-65.964,65.863-65.964h16.836
	C156.923,241.671,142.549,212.567,142.549,180.163z M152.549,180.163c0,43.599,28.682,80.61,68.135,93.104
	c0.213,0.067,0.427,0.136,0.64,0.201c0.621,0.192,1.245,0.38,1.872,0.56c0.383,0.109,0.768,0.212,1.153,0.317
	c0.827,0.227,1.659,0.441,2.495,0.646c0.56,0.137,1.12,0.272,1.682,0.398c0.423,0.096,0.847,0.188,1.272,0.278
	c0.719,0.152,1.441,0.296,2.164,0.432c0.257,0.049,0.513,0.103,0.771,0.148c0.974,0.175,1.952,0.332,2.932,0.477
	c0.299,0.044,0.6,0.085,0.899,0.127c0.804,0.111,1.61,0.213,2.418,0.304c0.243,0.028,0.485,0.059,0.729,0.084
	c1.026,0.108,2.054,0.201,3.085,0.276c0.213,0.016,0.428,0.027,0.642,0.041c0.85,0.058,1.702,0.103,2.555,0.138
	c0.286,0.012,0.571,0.023,0.857,0.032c1.048,0.034,2.097,0.057,3.149,0.057s2.102-0.022,3.149-0.057
	c0.286-0.009,0.571-0.021,0.857-0.032c0.853-0.035,1.705-0.08,2.555-0.138c0.214-0.014,0.428-0.025,0.642-0.041
	c1.031-0.075,2.059-0.168,3.085-0.276c0.244-0.025,0.486-0.056,0.729-0.084c0.808-0.091,1.614-0.192,2.418-0.304
	c0.3-0.042,0.6-0.083,0.899-0.127c0.98-0.145,1.958-0.302,2.932-0.477c0.258-0.046,0.514-0.1,0.771-0.148
	c0.723-0.136,1.445-0.279,2.164-0.432c0.425-0.09,0.849-0.183,1.272-0.278c0.563-0.126,1.123-0.262,1.682-0.398
	c0.836-0.205,1.667-0.42,2.495-0.646c0.385-0.105,0.77-0.208,1.153-0.317c0.627-0.18,1.25-0.367,1.872-0.56
	c0.214-0.065,0.427-0.134,0.64-0.201c39.454-12.493,68.135-49.505,68.135-93.104c0-53.827-43.717-97.619-97.451-97.619
	S152.549,126.336,152.549,180.163z M439.108,490H60.892c-2.762,0-5,2.238-5,5s2.238,5,5,5h378.217c2.762,0,5-2.238,5-5
	S441.87,490,439.108,490z M42.478,490h-3.813c-2.762,0-5,2.238-5,5s2.238,5,5,5h3.813c2.762,0,5-2.238,5-5S45.239,490,42.478,490z
	 M461.335,490h-3.813c-2.762,0-5,2.238-5,5s2.238,5,5,5h3.813c2.762,0,5-2.238,5-5S464.097,490,461.335,490z M226.036,235.917
	c0,2.762,2.238,5,5,5h37.928c2.762,0,5-2.238,5-5s-2.238-5-5-5h-37.928C228.274,230.917,226.036,233.155,226.036,235.917z
	 M287.698,184.047c6.897,0,13.311-3.105,17.594-8.521c1.714-2.166,1.347-5.311-0.818-7.023c-2.166-1.713-5.311-1.348-7.023,0.818
	c-2.376,3.003-5.931,4.726-9.752,4.726s-7.375-1.723-9.751-4.726c-1.714-2.168-4.857-2.533-7.023-0.818
	c-2.165,1.713-2.532,4.857-0.818,7.023C274.389,180.941,280.802,184.047,287.698,184.047z M212.302,184.047
	c6.896,0,13.31-3.105,17.593-8.521c1.714-2.166,1.347-5.311-0.818-7.023c-2.166-1.713-5.31-1.348-7.023,0.818
	c-2.376,3.003-5.93,4.726-9.751,4.726s-7.376-1.723-9.752-4.726c-1.713-2.168-4.858-2.533-7.023-0.818
	c-2.165,1.713-2.532,4.857-0.818,7.023C198.991,180.941,205.404,184.047,212.302,184.047z M288.631,21.534h6.534v6.535
	c0,2.762,2.238,5,5,5s5-2.238,5-5v-6.535h6.535c2.762,0,5-2.238,5-5s-2.238-5-5-5h-6.535V5c0-2.762-2.238-5-5-5s-5,2.238-5,5v6.534
	h-6.534c-2.762,0-5,2.238-5,5S285.869,21.534,288.631,21.534z M238.466,21.534H245v6.535c0,2.762,2.238,5,5,5s5-2.238,5-5v-6.535
	h6.534c2.762,0,5-2.238,5-5s-2.238-5-5-5H255V5c0-2.762-2.238-5-5-5s-5,2.238-5,5v6.534h-6.534c-2.762,0-5,2.238-5,5
	S235.704,21.534,238.466,21.534z M188.3,21.534h6.535v6.535c0,2.762,2.238,5,5,5s5-2.238,5-5v-6.535h6.534c2.762,0,5-2.238,5-5
	s-2.238-5-5-5h-6.534V5c0-2.762-2.238-5-5-5s-5,2.238-5,5v6.534H188.3c-2.762,0-5,2.238-5,5S185.538,21.534,188.3,21.534z"/>
</svg>
