<?xml version="1.0" encoding="utf-8"?>
<!-- Generator: Adobe Illustrator 23.0.0, SVG Export Plug-In . SVG Version: 6.00 Build 0)  -->
<svg version="1.1" id="Layer_1" xmlns="http://www.w3.org/2000/svg" xmlns:xlink="http://www.w3.org/1999/xlink" x="0px" y="0px"
	 viewBox="0 0 500 500" style="enable-background:new 0 0 500 500;" xml:space="preserve">
<style type="text/css">
	.st0{fill:#83E1E5;}
	.st1{fill:#AAB1BA;}
	.st2{fill:#FDDF7F;}
	.st3{fill:#ECF4F7;}
	.st4{fill:#1C1D21;}
</style>
<g>
	<g>
		<rect x="220.667" y="32.274" class="st2" width="58.667" height="60.665"/>
	</g>
</g>
<g>
	<g>
		<path class="st1" d="M282.169,5h-64.336c-1.976,0-3.578,1.602-3.578,3.578v20.118c0,1.976,1.602,3.578,3.578,3.578h64.336
			c1.976,0,3.578-1.602,3.578-3.578V8.578C285.748,6.602,284.146,5,282.169,5z"/>
	</g>
</g>
<g>
	<g>
		<path class="st1" d="M282.169,92.94h-64.336c-1.976,0-3.578,1.602-3.578,3.578v20.118c0,1.976,1.602,3.578,3.578,3.578h64.336
			c1.976,0,3.578-1.602,3.578-3.578V96.518C285.748,94.542,284.146,92.94,282.169,92.94z"/>
	</g>
</g>
<g>
	<g>
		<path class="st1" d="M302.15,143.018H197.852c-3.374,0-6.109,2.735-6.109,6.109v15.695h116.516v-15.695
			C308.259,145.753,305.524,143.018,302.15,143.018z"/>
	</g>
</g>
<g>
	<g>
		<path class="st0" d="M351.135,472.293l-38.14-116.454c-16.919,14.55-38.928,23.346-62.994,23.346s-46.074-8.796-62.994-23.346
			l-38.14,116.454C144.431,485.839,131.791,495,117.537,495h264.928C368.211,495,355.571,485.839,351.135,472.293z"/>
	</g>
</g>
<g>
	<g>
		<path class="st2" d="M380.771,375.292l-16.829-38.793c-2.206-5.085-3.345-10.57-3.345-16.113V290.81
			c0-8.296-1.676-16.506-4.928-24.137l-15.185-35.637c-2.182-5.12-7.21-8.443-12.776-8.443l-1.853,0
			c-17.705-22.381-45.102-36.744-75.855-36.744s-58.15,14.363-75.855,36.744l-1.853,0c-5.566,0-10.594,3.323-12.776,8.443
			l-15.185,35.637c-3.252,7.632-4.928,15.842-4.928,24.137v29.575c0,5.543-1.138,11.028-3.345,16.113l-16.829,38.793H84.533v87.644
			l0.021-0.038C85.003,479.93,98.857,495,117.537,495h0c14.254,0,26.894-9.161,31.33-22.707l38.14-116.454
			c16.919,14.55,38.928,23.346,62.994,23.346s46.074-8.796,62.994-23.346l38.14,116.454c4.437,13.546,17.076,22.707,31.33,22.707h0
			c18.68,0,32.534-15.07,32.983-32.102l0.021,0.038v-87.644H380.771z"/>
	</g>
</g>
<g>
	<g>
		<path class="st0" d="M139.405,299.226h-6.64c-26.637,0-48.231,21.594-48.231,48.232v27.834h34.698l16.829-38.793
			c0.552-1.271,1.036-2.568,1.453-3.884s0.766-2.651,1.046-4.001c0.561-2.7,0.845-5.457,0.845-8.229L139.405,299.226
			L139.405,299.226z"/>
	</g>
</g>
<g>
	<g>
		<path class="st0" d="M367.237,299.226h-6.64h0v21.159c0,2.772,0.285,5.529,0.845,8.229c0.28,1.35,0.629,2.685,1.046,4.001
			s0.902,2.612,1.453,3.884l16.829,38.793h34.698v-27.834C415.469,320.82,393.875,299.226,367.237,299.226z"/>
	</g>
</g>
<g>
	<g>
		<path class="st1" d="M127.088,50.88c-6.477,0-11.727,5.25-11.727,11.727c0,6.477,5.25,11.727,11.727,11.727h93.579V50.88H127.088z
			"/>
	</g>
</g>
<path class="st4" d="M90.997,255.021c0-2.761,2.238-5,5-5h6.534v-6.535c0-2.761,2.238-5,5-5s5,2.239,5,5v6.535h6.535
	c2.762,0,5,2.239,5,5s-2.238,5-5,5h-6.535v6.534c0,2.761-2.238,5-5,5s-5-2.239-5-5v-6.534h-6.534
	C93.235,260.021,90.997,257.782,90.997,255.021z M380.936,260.021h6.535v6.534c0,2.761,2.238,5,5,5s5-2.239,5-5v-6.534h6.534
	c2.762,0,5-2.239,5-5s-2.238-5-5-5h-6.534v-6.535c0-2.761-2.238-5-5-5s-5,2.239-5,5v6.535h-6.535c-2.762,0-5,2.239-5,5
	S378.174,260.021,380.936,260.021z M250.001,341.445c-8.971,0-17.313,4.04-22.885,11.084c-1.714,2.166-1.347,5.31,0.818,7.023
	c2.167,1.713,5.311,1.347,7.023-0.819c3.665-4.632,9.147-7.289,15.043-7.289s11.378,2.656,15.043,7.289
	c0.986,1.248,2.448,1.898,3.924,1.898c1.087,0,2.182-0.353,3.1-1.079c2.165-1.713,2.532-4.858,0.818-7.023
	C267.313,345.485,258.972,341.445,250.001,341.445z M52.151,490h-3.813c-2.762,0-5,2.239-5,5s2.238,5,5,5h3.813c2.762,0,5-2.239,5-5
	S54.913,490,52.151,490z M435.69,495c0,2.761-2.238,5-5,5h-90.144c-2.762,0-5-2.239-5-5s2.238-5,5-5h16.213
	c-4.673-4.298-8.298-9.801-10.377-16.15l-35.906-109.636c-17.437,12.913-38.635,19.971-60.475,19.971s-43.038-7.059-60.475-19.971
	L153.619,473.85c-2.08,6.349-5.704,11.852-10.377,16.15h16.213c2.762,0,5,2.239,5,5s-2.238,5-5,5H69.312c-2.762,0-5-2.239-5-5
	s2.238-5,5-5h22.424c-7.148-6.582-11.739-15.902-12.162-26.422c-0.027-0.21-0.041-0.425-0.041-0.642v-87.644
	c0-0.073,0.018-0.14,0.021-0.211l-0.021-27.619c0-29.356,23.88-53.235,53.231-53.235h1.64v-3.416c0-9.019,1.793-17.799,5.329-26.097
	l15.184-35.637c2.902-6.809,9.472-11.254,16.835-11.464c19.406-23.394,47.784-36.764,78.249-36.764
	c30.465,0,58.842,13.371,78.247,36.764c7.363,0.208,13.934,4.654,16.837,11.463l15.184,35.638
	c3.536,8.298,5.329,17.078,5.329,26.097v3.416h1.64c29.352,0,53.231,23.88,53.231,53.231v27.834v87.644
	c0,0.218-0.014,0.434-0.042,0.646c-0.424,10.519-5.013,19.837-12.161,26.418h22.424C433.452,490,435.69,492.239,435.69,495z
	 M365.598,304.226v16.159c0,4.889,0.986,9.641,2.931,14.124l15.524,35.783h26.416v-22.834c0-23.838-19.394-43.231-43.231-43.231
	H365.598z M89.533,347.458l0.018,22.834h26.398l15.524-35.783c1.944-4.483,2.931-9.235,2.931-14.124v-16.159h-1.64
	C108.927,304.226,89.533,323.62,89.533,347.458z M182.255,354.283l4.357-13.306c2.823-8.617,4.254-17.583,4.254-26.65V290.81
	c0-9.02,1.793-17.801,5.328-26.097l8.971-21.055c1.546-3.629,1.186-7.597-0.989-10.888s-5.684-5.178-9.628-5.178h-20.402
	c-0.001,0-0.002,0-0.003,0l-1.848,0c-3.569,0-6.778,2.121-8.178,5.404l-15.184,35.636c-3.005,7.052-4.528,14.514-4.528,22.177
	v29.575c0,6.266-1.264,12.357-3.757,18.103l-16.828,38.789c0,0.001,0,0.002-0.001,0.003l-15.597,35.951
	c-0.817,1.885-2.657,3.011-4.59,3.011c-0.664,0-1.339-0.133-1.987-0.414c-2.533-1.099-3.695-4.043-2.597-6.577l12.563-28.96H89.533
	v82.143c0.01,0.11,0.017,0.22,0.02,0.332C89.955,478.038,102.247,490,117.537,490c12.124,0,22.805-7.741,26.578-19.263
	L182.255,354.283z M307.185,354.162l-3.3-10.072c-3.151-9.624-4.749-19.638-4.749-29.763V290.81c0-7.663-1.523-15.125-4.527-22.178
	l-8.972-21.054c-2.844-6.673-2.153-14.269,1.846-20.321s10.718-9.665,17.972-9.665h9.271
	c-17.114-17.114-40.168-26.744-64.724-26.744s-47.609,9.631-64.725,26.744h9.271c7.254,0,13.972,3.613,17.971,9.664
	c3.999,6.052,4.689,13.648,1.846,20.321l-8.971,21.055c-3.004,7.051-4.527,14.512-4.527,22.177v23.516
	c0,10.126-1.599,20.14-4.75,29.763l-3.299,10.072c16.195,12.935,36.372,20.023,57.184,20.023S290.989,367.097,307.185,354.162z
	 M382.465,490c15.29,0,27.582-11.962,27.984-27.233c0.003-0.112,0.01-0.223,0.02-0.333v-82.142h-22.073l12.563,28.96
	c1.099,2.533-0.063,5.478-2.597,6.577c-0.648,0.281-1.323,0.414-1.987,0.414c-1.933,0-3.772-1.126-4.59-3.011l-15.574-35.899
	c-0.008-0.018-0.019-0.033-0.027-0.051l-16.83-38.793c-2.493-5.747-3.757-11.838-3.757-18.104V290.81
	c0-7.664-1.523-15.125-4.528-22.177l-15.184-35.637c-1.399-3.282-4.608-5.403-8.177-5.403l-1.85,0c-0.001,0-0.002,0-0.003,0h-20.401
	c-3.944,0-7.454,1.887-9.629,5.178c-2.175,3.291-2.535,7.259-0.989,10.887l8.972,21.055c3.535,8.299,5.328,17.079,5.328,26.097
	v23.516c0,9.066,1.431,18.033,4.253,26.651l4.358,13.305c0,0,0,0.001,0,0.001l38.139,116.454
	C359.66,482.259,370.341,490,382.465,490z M451.664,490h-3.813c-2.762,0-5,2.239-5,5s2.238,5,5,5h3.813c2.762,0,5-2.239,5-5
	S454.426,490,451.664,490z M110.361,62.607L110.361,62.607c0-9.224,7.504-16.727,16.727-16.727h88.579v-8.893
	c-3.683-0.963-6.412-4.31-6.412-8.291V8.578c0-4.73,3.848-8.578,8.578-8.578h64.336c4.73,0,8.578,3.848,8.578,8.578v20.118
	c0,3.981-2.729,7.327-6.412,8.291v51.241c3.683,0.963,6.412,4.31,6.412,8.291v20.118c0,4.73-3.848,8.578-8.578,8.578h-64.336
	c-4.73,0-8.578-3.848-8.578-8.578V96.518c0-3.981,2.729-7.327,6.412-8.291v-8.893h-88.579
	C117.865,79.334,110.361,71.831,110.361,62.607z M274.335,37.274h-48.668V50.88v23.454V87.94h48.668V37.274z M280.747,97.94h-1.412
	h-58.668h-1.412v17.274h61.492V97.94z M219.255,27.274h1.412h58.668h1.412V10h-61.492V27.274z M120.361,62.607
	c0,3.709,3.018,6.727,6.727,6.727h88.579V55.88h-88.579C123.379,55.88,120.361,58.898,120.361,62.607z M197.852,138.018H302.15
	c6.125,0,11.108,4.983,11.108,11.109v15.695c0,2.761-2.238,5-5,5H191.743c-2.762,0-5-2.239-5-5v-15.695
	C186.743,143.001,191.727,138.018,197.852,138.018z M302.15,148.018H197.852c-0.611,0-1.108,0.497-1.108,1.109v10.695h106.516
	v-10.695C303.259,148.515,302.762,148.018,302.15,148.018z M174.141,130.824c0-2.761-2.238-5-5-5s-5,2.239-5,5v5.39
	c0,2.761,2.238,5,5,5s5-2.239,5-5V130.824z M169.141,150.266c-2.762,0-5,2.239-5,5v40.379c0,2.761,2.238,5,5,5s5-2.239,5-5v-40.379
	C174.141,152.504,171.902,150.266,169.141,150.266z M150.516,130.824c0-2.761-2.238-5-5-5s-5,2.239-5,5v5.39c0,2.761,2.238,5,5,5
	s5-2.239,5-5V130.824z M145.516,150.266c-2.762,0-5,2.239-5,5v57.482c0,2.761,2.238,5,5,5s5-2.239,5-5v-57.482
	C150.516,152.504,148.277,150.266,145.516,150.266z M330.861,141.214c2.762,0,5-2.239,5-5v-5.39c0-2.761-2.238-5-5-5s-5,2.239-5,5
	v5.39C325.861,138.976,328.1,141.214,330.861,141.214z M330.861,200.645c2.762,0,5-2.239,5-5v-40.379c0-2.761-2.238-5-5-5
	s-5,2.239-5,5v40.379C325.861,198.407,328.1,200.645,330.861,200.645z M354.486,141.214c2.762,0,5-2.239,5-5v-5.39
	c0-2.761-2.238-5-5-5s-5,2.239-5,5v5.39C349.486,138.976,351.725,141.214,354.486,141.214z M354.486,217.748c2.762,0,5-2.239,5-5
	v-57.482c0-2.761-2.238-5-5-5s-5,2.239-5,5v57.482C349.486,215.509,351.725,217.748,354.486,217.748z"/>
</svg>
