<?xml version="1.0" encoding="utf-8"?>
<!-- Generator: Adobe Illustrator 23.0.0, SVG Export Plug-In . SVG Version: 6.00 Build 0)  -->
<svg version="1.1" id="Layer_1" xmlns="http://www.w3.org/2000/svg" xmlns:xlink="http://www.w3.org/1999/xlink" x="0px" y="0px"
	 viewBox="0 0 500 500" style="enable-background:new 0 0 500 500;" xml:space="preserve">
<style type="text/css">
	.st0{fill:#83E1E5;}
	.st1{fill:#AAB1BA;}
	.st2{fill:#FDDF7F;}
	.st3{fill:#ECF4F7;}
	.st4{fill:#1C1D21;}
</style>
<g>
	<path class="st1" d="M162.783,266.418h31.697c-28.237-18.273-46.93-50.076-46.93-86.254c0-56.675,45.869-102.62,102.451-102.62
		c56.582,0,102.451,45.944,102.451,102.62c0,36.178-18.693,67.981-46.93,86.254h31.697c19.814,0,37.41,9.489,48.524,24.172
		c24.463-30.133,39.134-68.561,39.134-110.426C424.877,83.423,346.582,5,250.001,5S75.125,83.423,75.125,180.164
		c0,41.865,14.671,80.293,39.134,110.426C125.373,275.907,142.969,266.418,162.783,266.418z"/>
</g>
<g>
	<g>
		<ellipse class="st2" cx="250.001" cy="180.164" rx="102.451" ry="102.62"/>
	</g>
</g>
<g>
	<g>
		<path class="st0" d="M337.219,266.418h-31.697c-15.998,10.353-35.058,16.365-55.521,16.365c-20.463,0-39.523-6.012-55.521-16.365
			h-31.697c-33.614,0-60.864,27.295-60.864,60.963V495h148.081h148.081V327.381C398.082,293.713,370.833,266.418,337.219,266.418z"
			/>
	</g>
</g>
<g>
	<g>
		<rect x="101.92" y="363.254" class="st2" width="52.805" height="131.746"/>
	</g>
</g>
<g>
	<g>
		<rect x="345.277" y="363.254" class="st2" width="52.805" height="131.746"/>
	</g>
</g>
<g>
	<circle class="st3" cx="206.373" cy="150.097" r="17.988"/>
</g>
<g>
	<circle class="st3" cx="293.629" cy="150.097" r="17.988"/>
</g>
<path class="st4" d="M360.896,252.731c14.118-21.597,21.581-46.691,21.581-72.568c0-73.172-59.429-132.702-132.476-132.702
	s-132.476,59.53-132.476,132.702c0,25.877,7.463,50.971,21.581,72.568c1.512,2.311,0.862,5.41-1.448,6.921
	c-2.313,1.511-5.41,0.862-6.922-1.449c-15.185-23.228-23.211-50.214-23.211-78.04c0-78.686,63.914-142.702,142.476-142.702
	s142.476,64.016,142.476,142.702c0,27.826-8.026,54.812-23.211,78.04c-0.96,1.467-2.559,2.265-4.19,2.265
	c-0.938,0-1.887-0.264-2.731-0.815C360.033,258.141,359.384,255.042,360.896,252.731z M105.353,278.712
	c2.326-1.488,3.006-4.58,1.518-6.906c-17.497-27.354-26.745-59.043-26.745-91.642C80.125,86.335,156.331,10,250.001,10
	s169.876,76.335,169.876,170.164c0,32.599-9.248,64.289-26.745,91.642c-1.488,2.326-0.809,5.418,1.518,6.906
	c0.835,0.534,1.768,0.789,2.689,0.789c1.648,0,3.263-0.814,4.217-2.306c18.528-28.966,28.321-62.519,28.321-97.031
	C429.877,80.821,349.185,0,250.001,0S70.125,80.821,70.125,180.164c0,34.512,9.793,68.065,28.321,97.031
	C99.934,279.52,103.024,280.201,105.353,278.712z M393.082,476.658V368.253h-42.805v108.405c0,2.761-2.238,5-5,5s-5-2.239-5-5
	V323.595c0-2.761,2.238-5,5-5s5,2.239,5,5v34.658h42.805v-30.872c0-30.858-25.061-55.963-55.863-55.963h-30.239
	c-7.08,4.443-14.613,8.002-22.444,10.663c-0.052,0.018-0.104,0.036-0.156,0.054c-0.741,0.25-1.485,0.493-2.232,0.727
	c-0.268,0.084-0.538,0.165-0.807,0.248c-1.044,0.318-2.092,0.621-3.145,0.907c-0.52,0.142-1.039,0.285-1.562,0.419
	c-0.503,0.129-1.009,0.25-1.514,0.371c-0.611,0.147-1.225,0.289-1.84,0.426c-0.434,0.096-0.868,0.194-1.303,0.285
	c-1.017,0.212-2.038,0.413-3.065,0.597c-0.246,0.043-0.493,0.081-0.739,0.123c-0.872,0.149-1.747,0.289-2.625,0.417
	c-0.338,0.049-0.676,0.097-1.014,0.143c-0.919,0.125-1.841,0.238-2.767,0.34c-0.195,0.021-0.389,0.047-0.584,0.067
	c-1.113,0.116-2.232,0.212-3.355,0.293c-0.276,0.02-0.552,0.035-0.828,0.053c-0.878,0.057-1.759,0.103-2.643,0.139
	c-0.318,0.013-0.636,0.026-0.954,0.036c-1.13,0.036-2.262,0.06-3.4,0.06s-2.271-0.024-3.4-0.06c-0.318-0.01-0.636-0.023-0.954-0.036
	c-0.884-0.036-1.765-0.082-2.643-0.139c-0.276-0.018-0.552-0.033-0.828-0.053c-1.123-0.081-2.242-0.178-3.355-0.293
	c-0.195-0.021-0.389-0.046-0.584-0.067c-0.926-0.102-1.848-0.215-2.767-0.34c-0.338-0.046-0.676-0.093-1.013-0.143
	c-0.879-0.128-1.754-0.267-2.625-0.417c-0.246-0.042-0.493-0.079-0.739-0.123c-1.027-0.184-2.048-0.384-3.065-0.597
	c-0.436-0.091-0.869-0.189-1.303-0.285c-0.615-0.137-1.229-0.278-1.84-0.426c-0.506-0.121-1.011-0.242-1.514-0.371
	c-0.523-0.134-1.042-0.277-1.562-0.419c-1.053-0.287-2.101-0.589-3.145-0.907c-0.269-0.083-0.539-0.163-0.807-0.248
	c-0.747-0.234-1.49-0.477-2.232-0.727c-0.052-0.018-0.104-0.036-0.156-0.054c-7.831-2.661-15.364-6.22-22.444-10.663h-30.239
	c-30.803,0-55.863,25.105-55.863,55.963v30.872h42.805v-34.658c0-2.761,2.238-5,5-5s5,2.239,5,5v153.063c0,2.761-2.238,5-5,5
	s-5-2.239-5-5V368.253H106.92v108.405c0,2.761-2.238,5-5,5s-5-2.239-5-5V327.381c0-36.372,29.546-65.963,65.863-65.963h16.836
	c-22.696-19.747-37.07-48.851-37.07-81.254c0-59.342,48.202-107.62,107.451-107.62s107.451,48.278,107.451,107.62
	c0,32.404-14.374,61.508-37.07,81.254h16.836c36.317,0,65.863,29.591,65.863,65.963v149.277c0,2.761-2.238,5-5,5
	S393.082,479.419,393.082,476.658z M220.707,273.274c0.201,0.063,0.402,0.127,0.603,0.189c0.629,0.195,1.261,0.384,1.896,0.566
	c0.364,0.104,0.729,0.202,1.094,0.301c0.85,0.233,1.705,0.455,2.563,0.665c0.55,0.134,1.101,0.267,1.653,0.392
	c0.429,0.097,0.86,0.191,1.291,0.282c0.711,0.15,1.424,0.292,2.139,0.427c0.264,0.05,0.526,0.104,0.79,0.152
	c0.971,0.174,1.947,0.331,2.925,0.475c0.302,0.045,0.605,0.085,0.908,0.128c0.8,0.111,1.602,0.212,2.406,0.303
	c0.246,0.028,0.492,0.059,0.739,0.085c1.024,0.108,2.051,0.201,3.08,0.276c0.216,0.016,0.433,0.027,0.649,0.041
	c0.848,0.057,1.698,0.103,2.549,0.137c0.286,0.011,0.571,0.023,0.857,0.033c1.048,0.034,2.097,0.056,3.149,0.056
	s2.102-0.022,3.149-0.056c0.286-0.009,0.572-0.021,0.857-0.033c0.851-0.035,1.701-0.081,2.549-0.137
	c0.216-0.014,0.434-0.025,0.649-0.041c1.029-0.076,2.056-0.168,3.08-0.276c0.247-0.026,0.492-0.057,0.739-0.085
	c0.804-0.091,1.606-0.192,2.406-0.303c0.303-0.042,0.606-0.083,0.908-0.128c0.978-0.145,1.953-0.301,2.925-0.475
	c0.264-0.048,0.526-0.103,0.79-0.152c0.715-0.134,1.428-0.276,2.139-0.427c0.431-0.091,0.862-0.185,1.291-0.282
	c0.552-0.125,1.103-0.258,1.653-0.392c0.859-0.21,1.714-0.432,2.563-0.665c0.365-0.1,0.731-0.197,1.094-0.301
	c0.635-0.182,1.267-0.372,1.896-0.566c0.201-0.062,0.402-0.126,0.603-0.189c39.465-12.487,68.157-49.504,68.157-93.11
	c0-53.828-43.717-97.62-97.451-97.62s-97.451,43.792-97.451,97.62C152.55,223.77,181.242,260.787,220.707,273.274z M439.109,490
	H60.893c-2.762,0-5,2.239-5,5s2.238,5,5,5h378.217c2.762,0,5-2.239,5-5S441.871,490,439.109,490z M42.479,490h-3.813
	c-2.762,0-5,2.239-5,5s2.238,5,5,5h3.813c2.762,0,5-2.239,5-5S45.24,490,42.479,490z M461.336,490h-3.813c-2.762,0-5,2.239-5,5
	s2.238,5,5,5h3.813c2.762,0,5-2.239,5-5S464.098,490,461.336,490z M183.386,150.097c0-12.675,10.313-22.988,22.987-22.988
	s22.987,10.313,22.987,22.988s-10.313,22.988-22.987,22.988S183.386,162.772,183.386,150.097z M193.386,150.097
	c0,7.162,5.826,12.988,12.987,12.988s12.987-5.826,12.987-12.988s-5.826-12.988-12.987-12.988S193.386,142.935,193.386,150.097z
	 M270.642,150.097c0-12.675,10.313-22.988,22.987-22.988s22.987,10.313,22.987,22.988s-10.313,22.988-22.987,22.988
	S270.642,162.772,270.642,150.097z M280.642,150.097c0,7.162,5.826,12.988,12.987,12.988s12.987-5.826,12.987-12.988
	s-5.826-12.988-12.987-12.988S280.642,142.935,280.642,150.097z M55.893,302.125c0,2.761,2.238,5,5,5s5-2.239,5-5v-6.535h6.535
	c2.762,0,5-2.239,5-5s-2.238-5-5-5h-6.535v-6.535c0-2.761-2.238-5-5-5s-5,2.239-5,5v6.535h-6.534c-2.762,0-5,2.239-5,5s2.238,5,5,5
	h6.534V302.125z M455.644,290.59c0-2.761-2.238-5-5-5h-6.534v-6.535c0-2.761-2.238-5-5-5s-5,2.239-5,5v6.535h-6.535
	c-2.762,0-5,2.239-5,5s2.238,5,5,5h6.535v6.535c0,2.761,2.238,5,5,5s5-2.239,5-5v-6.535h6.534
	C453.405,295.59,455.644,293.351,455.644,290.59z"/>
</svg>
