<?xml version="1.0" encoding="utf-8"?>
<!-- Generator: Adobe Illustrator 23.0.0, SVG Export Plug-In . SVG Version: 6.00 Build 0)  -->
<svg version="1.1" id="Layer_1" xmlns="http://www.w3.org/2000/svg" xmlns:xlink="http://www.w3.org/1999/xlink" x="0px" y="0px"
	 viewBox="0 0 500 500" style="enable-background:new 0 0 500 500;" xml:space="preserve">
<style type="text/css">
	.st0{fill:#83E1E5;}
	.st1{fill:#AAB1BA;}
	.st2{fill:#FDDF7F;}
	.st3{fill:#ECF4F7;}
	.st4{fill:#1C1D21;}
</style>
<g>
	<path class="st1" d="M409.967,304.345h-31.697c28.237-18.273,46.93-50.076,46.93-86.255c0-40.655-23.604-75.786-57.834-92.4
		h-89.235c-10.503,5.098-20,11.946-28.127,20.155c18.356,18.545,29.698,44.067,29.698,72.245c0,36.179-18.693,67.981-46.93,86.255
		h31.697c33.614,0,60.864,27.295,60.864,60.964V495H440.93c16.514,0,29.902-13.387,29.902-29.902v-99.789
		C470.831,331.64,443.582,304.345,409.967,304.345z"/>
</g>
<g>
	<path class="st3" d="M366.682,238.981c-4.521-3.929-11.369-3.448-15.297,1.071c-8.984,10.338-21.914,16.309-35.54,16.453
		c-13.626-0.145-26.556-6.115-35.54-16.453c-0.746-0.858-1.599-1.57-2.52-2.135c-1.563,7.996-4.051,15.66-7.351,22.874
		c12.495,11.03,28.584,17.278,45.411,17.4c19.908-0.145,38.804-8.835,51.908-23.914C371.681,249.757,371.202,242.91,366.682,238.981
		z"/>
</g>
<g>
	<g>
		<ellipse class="st2" cx="177.252" cy="218.091" rx="102.451" ry="102.62"/>
	</g>
</g>
<g>
	<g>
		<path class="st0" d="M264.47,304.345h-31.697c-15.998,10.353-35.058,16.365-55.521,16.365c-20.463,0-39.523-6.012-55.521-16.365
			H90.034c-33.614,0-60.864,27.295-60.864,60.963V495h148.081h148.081V365.309C325.333,331.64,298.084,304.345,264.47,304.345z"/>
	</g>
</g>
<g>
	<g>
		<rect x="29.171" y="401.181" class="st2" width="52.805" height="93.819"/>
	</g>
</g>
<g>
	<g>
		<rect x="272.528" y="401.181" class="st2" width="52.805" height="93.819"/>
	</g>
</g>
<g>
	<path class="st2" d="M367.39,125.69V53.754l-14.188,19.283c-5.506,7.483-16.951,6.603-21.247-1.635l-9.204-17.648l-9.204,17.648
		c-4.297,8.238-15.741,9.119-21.247,1.635L278.11,53.754v71.936H367.39z"/>
</g>
<g>
	<path class="st3" d="M184.938,280.703h-15.373c-4.239,0-7.676-3.436-7.676-7.676v-20.224c0-4.239,3.436-7.676,7.676-7.676h15.373
		c4.239,0,7.676,3.436,7.676,7.676v20.224C192.614,277.267,189.177,280.703,184.938,280.703z"/>
</g>
<path class="st4" d="M306.216,16.534c0-2.762,2.238-5,5-5h6.534V5c0-2.762,2.238-5,5-5s5,2.238,5,5v6.534h6.534c2.762,0,5,2.238,5,5
	s-2.238,5-5,5h-6.534v6.535c0,2.762-2.238,5-5,5s-5-2.238-5-5v-6.535h-6.534C308.454,21.534,306.216,19.296,306.216,16.534z
	 M265.277,21.534h6.534v6.535c0,2.762,2.238,5,5,5s5-2.238,5-5v-6.535h6.534c2.762,0,5-2.238,5-5s-2.238-5-5-5h-6.534V5
	c0-2.762-2.238-5-5-5s-5,2.238-5,5v6.534h-6.534c-2.762,0-5,2.238-5,5S262.516,21.534,265.277,21.534z M357.153,21.534h6.535v6.535
	c0,2.762,2.238,5,5,5s5-2.238,5-5v-6.535h6.534c2.762,0,5-2.238,5-5s-2.238-5-5-5h-6.534V5c0-2.762-2.238-5-5-5s-5,2.238-5,5v6.534
	h-6.535c-2.762,0-5,2.238-5,5S354.392,21.534,357.153,21.534z M315.881,273.191c-9.965-0.072-19.924-2.506-28.8-7.039
	c-2.458-1.255-5.472-0.28-6.728,2.179c-1.256,2.46-0.28,5.472,2.179,6.728c10.256,5.237,21.763,8.049,33.349,8.133
	c21.341-0.155,41.623-9.498,55.646-25.633c2.776-3.194,4.143-7.279,3.847-11.5c-0.295-4.222-2.217-8.076-5.412-10.853
	c-3.194-2.775-7.273-4.141-11.5-3.846c-4.222,0.296-8.075,2.219-10.85,5.412c-8.015,9.221-19.59,14.589-31.767,14.733
	c-7.637-0.091-15.126-2.237-21.66-6.208c-2.36-1.433-5.436-0.682-6.87,1.677c-1.434,2.36-0.683,5.436,1.677,6.87
	c8.083,4.911,17.351,7.561,26.801,7.661c0.035,0,0.07,0,0.105,0c15.052-0.16,29.362-6.783,39.262-18.174
	c1.023-1.178,2.444-1.887,4.001-1.996c1.565-0.114,3.063,0.395,4.241,1.418c2.433,2.114,2.691,5.813,0.578,8.244
	C351.838,264.969,334.28,273.058,315.881,273.191z M340.391,454.639c0,2.762,2.238,5,5,5h63.323c8.905,0,16.149-7.245,16.149-16.15
	v-81.966c0-2.762-2.238-5-5-5s-5,2.238-5,5v81.966c0,3.392-2.759,6.15-6.149,6.15h-63.323
	C342.629,449.639,340.391,451.877,340.391,454.639z M142.688,319.998c-7.82-2.659-15.343-6.214-22.415-10.652H90.034
	c-30.803,0-55.863,25.105-55.863,55.964v30.871h42.805v-34.658c0-2.762,2.238-5,5-5s5,2.238,5,5V495c0,2.762-2.238,5-5,5
	s-5-2.238-5-5v-88.819H34.171V495c0,2.762-2.238,5-5,5s-5-2.238-5-5V365.31c0-36.373,29.546-65.964,65.863-65.964h16.836
	c-22.696-19.747-37.07-48.851-37.07-81.255c0-59.342,48.202-107.619,107.451-107.619s107.451,48.277,107.451,107.619
	c0,32.404-14.374,61.508-37.07,81.255h16.836c36.317,0,65.863,29.591,65.863,65.964v111.349c0,2.762-2.238,5-5,5s-5-2.238-5-5
	v-70.478h-42.805v70.478c0,2.762-2.238,5-5,5s-5-2.238-5-5V361.522c0-2.762,2.238-5,5-5s5,2.238,5,5v34.658h42.805V365.31
	c0-30.858-25.061-55.964-55.863-55.964H234.23c-7.063,4.433-14.577,7.984-22.387,10.643c-0.079,0.027-0.158,0.055-0.237,0.082
	c-0.727,0.246-1.456,0.483-2.188,0.713c-0.292,0.092-0.585,0.18-0.878,0.269c-0.987,0.3-1.979,0.587-2.975,0.859
	c-0.565,0.155-1.129,0.31-1.698,0.456c-0.491,0.125-0.984,0.244-1.478,0.362c-0.626,0.15-1.254,0.296-1.884,0.436
	c-0.423,0.093-0.845,0.189-1.27,0.277c-1.023,0.214-2.051,0.416-3.085,0.601c-0.234,0.042-0.47,0.077-0.704,0.117
	c-0.883,0.151-1.77,0.292-2.66,0.422c-0.332,0.048-0.664,0.095-0.997,0.14c-0.924,0.125-1.852,0.24-2.783,0.342
	c-0.192,0.021-0.383,0.046-0.575,0.066c-1.114,0.116-2.234,0.213-3.358,0.294c-0.274,0.02-0.549,0.035-0.823,0.053
	c-0.88,0.057-1.762,0.103-2.647,0.139c-0.318,0.013-0.635,0.026-0.953,0.036c-1.13,0.036-2.262,0.06-3.401,0.06
	s-2.271-0.024-3.4-0.06c-0.318-0.01-0.636-0.023-0.954-0.036c-0.885-0.036-1.766-0.082-2.645-0.139
	c-0.275-0.018-0.551-0.033-0.826-0.053c-1.123-0.081-2.242-0.178-3.355-0.293c-0.195-0.021-0.389-0.046-0.584-0.067
	c-0.928-0.102-1.852-0.215-2.772-0.34c-0.335-0.046-0.67-0.093-1.004-0.142c-0.885-0.129-1.765-0.269-2.643-0.419
	c-0.24-0.041-0.482-0.077-0.722-0.12c-1.03-0.184-2.054-0.385-3.074-0.598c-0.431-0.09-0.859-0.187-1.289-0.282
	c-0.621-0.138-1.24-0.281-1.858-0.43c-0.5-0.12-1-0.24-1.499-0.367c-0.545-0.14-1.087-0.289-1.629-0.437
	c-1.026-0.279-2.047-0.575-3.063-0.884c-0.28-0.086-0.56-0.169-0.839-0.257c-0.74-0.232-1.476-0.472-2.21-0.72
	C142.82,320.044,142.754,320.021,142.688,319.998z M147.936,311.194c0.213,0.067,0.427,0.136,0.64,0.202
	c0.621,0.192,1.245,0.379,1.872,0.559c0.383,0.109,0.768,0.212,1.153,0.317c0.827,0.226,1.659,0.441,2.495,0.646
	c0.56,0.137,1.12,0.272,1.682,0.399c0.423,0.096,0.847,0.188,1.272,0.278c0.719,0.152,1.441,0.296,2.164,0.432
	c0.257,0.048,0.513,0.102,0.771,0.148c0.974,0.175,1.952,0.332,2.932,0.477c0.299,0.044,0.6,0.085,0.899,0.126
	c0.804,0.111,1.61,0.213,2.418,0.305c0.243,0.027,0.485,0.058,0.729,0.083c1.026,0.108,2.054,0.201,3.085,0.277
	c0.213,0.016,0.428,0.026,0.642,0.041c0.85,0.057,1.702,0.102,2.555,0.137c0.286,0.011,0.571,0.023,0.857,0.033
	c1.048,0.034,2.097,0.056,3.149,0.056s2.102-0.022,3.15-0.056c0.286-0.009,0.571-0.021,0.856-0.033
	c0.854-0.035,1.707-0.081,2.558-0.138c0.212-0.014,0.426-0.025,0.638-0.041c1.032-0.076,2.061-0.168,3.088-0.277
	c0.241-0.025,0.481-0.056,0.722-0.083c0.811-0.092,1.621-0.194,2.428-0.306c0.297-0.042,0.594-0.082,0.891-0.125
	c0.983-0.145,1.963-0.302,2.939-0.478c0.251-0.045,0.5-0.097,0.75-0.144c0.731-0.137,1.461-0.283,2.188-0.437
	c0.42-0.089,0.839-0.18,1.256-0.274c0.573-0.129,1.143-0.267,1.712-0.406c0.81-0.199,1.616-0.407,2.418-0.626
	c0.406-0.11,0.812-0.219,1.217-0.335c0.619-0.178,1.235-0.362,1.849-0.552c0.225-0.069,0.449-0.141,0.674-0.211
	c39.444-12.5,68.116-49.506,68.116-93.098c0-53.827-43.717-97.619-97.451-97.619s-97.451,43.792-97.451,97.619
	C79.801,261.69,108.483,298.701,147.936,311.194z M214.95,211.098c6.897,0,13.311-3.105,17.594-8.521
	c1.714-2.166,1.347-5.311-0.818-7.023c-2.166-1.713-5.311-1.347-7.023,0.818c-2.376,3.003-5.931,4.726-9.752,4.726
	s-7.375-1.723-9.751-4.726c-1.714-2.166-4.857-2.532-7.023-0.818c-2.165,1.713-2.532,4.857-0.818,7.023
	C201.641,207.992,208.054,211.098,214.95,211.098z M139.554,211.098c6.896,0,13.31-3.105,17.593-8.521
	c1.714-2.166,1.347-5.311-0.818-7.023c-2.166-1.713-5.31-1.347-7.023,0.818c-2.376,3.003-5.93,4.726-9.751,4.726
	s-7.376-1.723-9.752-4.726c-1.713-2.166-4.857-2.532-7.023-0.818c-2.165,1.713-2.532,4.857-0.818,7.023
	C126.243,207.992,132.656,211.098,139.554,211.098z M156.89,252.803c0-6.989,5.686-12.675,12.675-12.675h15.374
	c6.989,0,12.675,5.686,12.675,12.675v20.225c0,6.989-5.686,12.676-12.675,12.676h-15.374c-6.989,0-12.675-5.687-12.675-12.676
	V252.803z M166.89,273.027c0,1.476,1.2,2.676,2.675,2.676h15.374c1.475,0,2.675-1.2,2.675-2.676v-20.225
	c0-1.475-1.2-2.675-2.675-2.675h-15.374c-1.475,0-2.675,1.2-2.675,2.675V273.027z M475.831,365.31v99.789
	c0,19.245-15.656,34.901-34.901,34.901H205.032c-2.762,0-5-2.238-5-5s2.238-5,5-5H440.93c13.73,0,24.901-11.171,24.901-24.901
	V365.31c0-30.858-25.061-55.964-55.863-55.964h-31.697c-2.216,0-4.168-1.459-4.795-3.584c-0.628-2.125,0.218-4.41,2.078-5.613
	c27.957-18.092,44.647-48.768,44.647-82.058c0-36.798-21.157-70.977-53.999-87.4h-86.904c-4.303,2.15-8.475,4.64-12.416,7.407
	c-2.258,1.588-5.378,1.043-6.965-1.219c-1.587-2.26-1.041-5.378,1.219-6.965c3.817-2.681,7.838-5.109,11.975-7.272V53.754
	c0-2.16,1.388-4.077,3.44-4.751c2.057-0.673,4.308,0.048,5.587,1.788l14.188,19.283c1.578,2.146,4.001,3.257,6.667,3.056
	c2.657-0.205,4.888-1.678,6.12-4.041l9.204-17.647c0.862-1.651,2.57-2.688,4.434-2.688s3.571,1.036,4.434,2.688l9.204,17.647
	c1.232,2.363,3.463,3.836,6.12,4.041c2.661,0.198,5.087-0.91,6.667-3.057l14.188-19.282c1.279-1.74,3.531-2.461,5.587-1.788
	c2.053,0.674,3.44,2.591,3.44,4.751v68.877c16.664,8.707,30.778,21.632,40.944,37.553c11.035,17.279,16.867,37.303,16.867,57.906
	c0,31.54-13.59,60.95-36.976,81.255h16.742C446.285,299.346,475.831,328.937,475.831,365.31z M283.11,68.986v29.906h79.279V68.986
	L357.229,76c-3.616,4.915-9.416,7.565-15.488,7.101c-6.083-0.469-11.399-3.978-14.221-9.387l-4.771-9.147l-4.771,9.147
	c-2.821,5.409-8.138,8.918-14.221,9.387c-6.079,0.461-11.873-2.187-15.488-7.1L283.11,68.986z M362.39,120.69v-11.798H283.11v11.798
	H362.39z M185.469,490h-6.232c-2.762,0-5,2.238-5,5s2.238,5,5,5h6.232c2.762,0,5-2.238,5-5S188.23,490,185.469,490z"/>
</svg>
