<?xml version="1.0" encoding="utf-8"?>
<!-- Generator: Adobe Illustrator 23.0.0, SVG Export Plug-In . SVG Version: 6.00 Build 0)  -->
<svg version="1.1" id="Layer_1" xmlns="http://www.w3.org/2000/svg" xmlns:xlink="http://www.w3.org/1999/xlink" x="0px" y="0px"
	 viewBox="0 0 500 500" style="enable-background:new 0 0 500 500;" xml:space="preserve">
<style type="text/css">
	.st0{fill:#83E1E5;}
	.st1{fill:#AAB1BA;}
	.st2{fill:#FDDF7F;}
	.st3{fill:#ECF4F7;}
	.st4{fill:#1C1D21;}
</style>
<g>
	<g>
		<path class="st1" d="M170.819,41.448c-2.404,0-4.758,0.212-7.052,0.599C161.229,21.173,143.459,5,121.901,5
			c-21.559,0-39.328,16.173-41.867,37.047c-2.294-0.387-4.648-0.599-7.052-0.599c-23.301,0-42.19,18.889-42.19,42.19
			c0,23.301,18.889,42.19,42.19,42.19h86.021c11.222-22.151,30.258-39.656,53.475-48.866
			C209.277,56.834,191.848,41.448,170.819,41.448z"/>
	</g>
</g>
<g>
	<g>
		<path class="st1" d="M427.019,41.448c-2.404,0-4.758,0.212-7.052,0.599C417.428,21.173,399.659,5,378.1,5
			c-21.559,0-39.328,16.173-41.867,37.047c-2.294-0.387-4.648-0.599-7.052-0.599c-21.028,0-38.458,15.386-41.659,35.514
			c23.217,9.21,42.253,26.715,53.475,48.866h86.021c23.301,0,42.19-18.889,42.19-42.19
			C469.208,60.337,450.319,41.448,427.019,41.448z"/>
	</g>
</g>
<g>
	<g>
		<rect x="130.049" y="414.403" class="st0" width="239.902" height="80.597"/>
	</g>
</g>
<g>
	<g>
		<path class="st0" d="M336.828,257.94h-31.602c-15.919,10.299-34.868,16.3-55.226,16.3s-39.306-6.001-55.226-16.3h-31.602
			c-33.463,0-60.591,27.185-60.591,60.72v75.634c0,11.106,9.002,20.109,20.106,20.109h4.436h245.752h4.436
			c11.104,0,20.106-9.003,20.106-20.109V318.66C397.418,285.125,370.291,257.94,336.828,257.94z"/>
	</g>
</g>
<g>
	<g>
		<path class="st2" d="M340.13,341.33v22.391H159.642V341.33h-57.06v52.963c0,11.106,9.002,20.109,20.106,20.109h254.624
			c11.104,0,20.106-9.003,20.106-20.109V341.33H340.13z"/>
	</g>
</g>
<path class="st1" d="M305.833,296.639h-21.421c-19.005,0-34.411,15.406-34.411,34.411c0-19.005-15.406-34.411-34.411-34.411h-21.421
	c-19.005,0-34.411,15.406-34.411,34.411v32.671h180.488V331.05C340.245,312.046,324.838,296.639,305.833,296.639z"/>
<g>
	<g>
		<ellipse class="st2" cx="250" cy="172.03" rx="101.992" ry="102.209"/>
	</g>
</g>
<rect x="159.756" y="414.403" class="st1" width="180.488" height="80.597"/>
<g>
	<g>
		<polygon class="st2" points="250,457.447 159.756,457.447 159.756,495 250,495 340.245,495 340.245,457.447 		"/>
	</g>
</g>
<path class="st4" d="M233.466,26.344c0-2.761,2.239-5,5-5H245V14.81c0-2.761,2.239-5,5-5s5,2.239,5,5v6.535h6.535
	c2.762,0,5,2.239,5,5s-2.238,5-5,5H255v6.534c0,2.761-2.238,5-5,5s-5-2.239-5-5v-6.534h-6.535
	C235.705,31.344,233.466,29.106,233.466,26.344z M142.629,125.828c0-2.761-2.239-5-5-5H72.982c-20.507,0-37.19-16.683-37.19-37.19
	s16.683-37.19,37.19-37.19c2.044,0,4.137,0.178,6.222,0.529c1.349,0.226,2.728-0.107,3.822-0.925s1.806-2.047,1.971-3.402
	C87.261,24.037,103.126,10,121.901,10s34.64,14.037,36.903,32.65c0.165,1.356,0.877,2.585,1.971,3.402s2.475,1.151,3.822,0.925
	c14.705-2.475,28.979,3.906,37.063,15.871c1.545,2.288,4.654,2.89,6.942,1.344c2.289-1.546,2.89-4.654,1.344-6.942
	c-8.8-13.026-23.427-20.802-39.127-20.802c-0.976,0-1.96,0.032-2.947,0.095C163.003,15.397,144.047,0,121.901,0
	S80.798,15.397,75.93,36.543c-0.987-0.063-1.971-0.095-2.947-0.095c-26.021,0-47.19,21.169-47.19,47.19s21.169,47.19,47.19,47.19
	h64.647C140.391,130.828,142.629,128.59,142.629,125.828z M427.019,36.448c-0.977,0-1.96,0.032-2.947,0.095
	C419.202,15.397,400.246,0,378.101,0s-41.103,15.397-45.972,36.543c-0.987-0.063-1.971-0.095-2.947-0.095
	c-15.341,0-29.776,7.499-38.616,20.06c-1.589,2.258-1.047,5.377,1.211,6.966c2.257,1.589,5.377,1.048,6.967-1.211
	c6.969-9.903,18.348-15.815,30.438-15.815c2.045,0,4.138,0.178,6.222,0.529c1.347,0.226,2.728-0.107,3.822-0.925
	c1.094-0.817,1.807-2.047,1.972-3.402C343.461,24.037,359.326,10,378.101,10c18.773,0,34.639,14.037,36.902,32.65
	c0.165,1.356,0.878,2.585,1.972,3.402c1.095,0.817,2.476,1.151,3.822,0.925c2.084-0.351,4.177-0.529,6.222-0.529
	c20.506,0,37.189,16.683,37.189,37.19s-16.684,37.19-37.189,37.19h-65.911c-2.762,0-5,2.239-5,5s2.238,5,5,5h65.911
	c26.021,0,47.189-21.169,47.189-47.19S453.039,36.448,427.019,36.448z M320.121,252.94h16.707c36.167,0,65.592,29.482,65.592,65.72
	v75.637c0,13.844-11.263,25.106-25.106,25.106h-2.361v60.694c0,2.761-2.238,5-5,5s-5-2.239-5-5v-60.694h-19.707v60.141
	c0,2.761-2.238,5-5,5s-5-2.239-5-5v-17.096h-80.243v17.096c0,2.761-2.239,5-5,5s-5-2.239-5-5v-17.096h-80.244v17.096
	c0,2.761-2.239,5-5,5s-5-2.239-5-5v-60.141h-19.707v60.141c0,2.761-2.239,5-5,5s-5-2.239-5-5v-60.141h-2.357
	c-13.845,0-25.109-11.264-25.109-25.109V318.66c0-36.238,29.424-65.72,65.591-65.72h16.707
	c-22.576-19.671-36.872-48.648-36.872-80.909c0-59.115,47.997-107.209,106.992-107.209s106.992,48.094,106.992,107.209
	C356.992,204.292,342.696,233.269,320.121,252.94z M199.027,254.697c0.277,0.172,0.553,0.348,0.832,0.517
	c0.48,0.292,0.965,0.577,1.451,0.861c0.4,0.233,0.801,0.463,1.204,0.69c0.464,0.262,0.928,0.526,1.397,0.781
	c0.731,0.396,1.466,0.783,2.205,1.16c0.374,0.191,0.752,0.376,1.129,0.563c0.591,0.292,1.184,0.577,1.78,0.857
	c0.308,0.144,0.614,0.292,0.923,0.433c0.876,0.399,1.758,0.785,2.644,1.157c0.249,0.105,0.5,0.205,0.75,0.308
	c0.77,0.315,1.542,0.622,2.319,0.917c0.205,0.078,0.409,0.158,0.614,0.235c0.982,0.366,1.97,0.718,2.963,1.051
	c0.1,0.034,0.201,0.065,0.302,0.098c0.936,0.311,1.877,0.606,2.822,0.888c0.145,0.043,0.289,0.087,0.434,0.13
	c2.087,0.612,4.194,1.152,6.319,1.621c0.13,0.029,0.259,0.057,0.389,0.085c2.129,0.461,4.275,0.85,6.436,1.167
	c0.152,0.022,0.304,0.043,0.457,0.064c0.962,0.136,1.926,0.258,2.893,0.365c0.132,0.015,0.264,0.031,0.396,0.046
	c1.064,0.114,2.131,0.209,3.2,0.288c0.169,0.012,0.34,0.021,0.509,0.032c0.882,0.06,1.766,0.107,2.651,0.143
	c0.271,0.011,0.542,0.022,0.814,0.031c1.046,0.034,2.092,0.056,3.142,0.056c1.049,0,2.096-0.023,3.142-0.056
	c0.272-0.009,0.543-0.02,0.814-0.031c0.885-0.036,1.768-0.083,2.65-0.143c0.17-0.011,0.341-0.02,0.511-0.032
	c1.069-0.078,2.135-0.174,3.198-0.288c0.133-0.014,0.266-0.031,0.399-0.046c0.965-0.107,1.927-0.229,2.887-0.364
	c0.154-0.022,0.308-0.042,0.462-0.065c2.159-0.316,4.303-0.705,6.43-1.165c0.132-0.029,0.265-0.058,0.397-0.087
	c2.122-0.469,4.227-1.009,6.311-1.619c0.149-0.044,0.297-0.089,0.445-0.133c0.94-0.28,1.876-0.574,2.807-0.883
	c0.104-0.035,0.209-0.067,0.313-0.102c0.991-0.333,1.976-0.683,2.956-1.048c0.209-0.078,0.416-0.159,0.624-0.238
	c0.773-0.294,1.541-0.599,2.307-0.913c0.253-0.104,0.507-0.205,0.759-0.312c0.885-0.372,1.765-0.757,2.64-1.156
	c0.311-0.142,0.618-0.29,0.927-0.435c0.594-0.278,1.186-0.563,1.775-0.854c0.378-0.187,0.756-0.373,1.132-0.564
	c0.735-0.375,1.467-0.76,2.193-1.154c0.473-0.257,0.94-0.522,1.408-0.786c0.403-0.227,0.805-0.457,1.205-0.69
	c0.485-0.283,0.97-0.568,1.449-0.86c0.282-0.171,0.56-0.349,0.841-0.523c27.593-17.157,46.01-47.792,46.01-82.661
	c0-53.601-43.511-97.209-96.992-97.209c-53.481,0-96.992,43.608-96.992,97.209C153.008,206.903,171.429,237.541,199.027,254.697z
	 M245,452.447v-33.044h-80.244v33.044H245z M335.244,419.403h-80.243v33.044h80.243V419.403z M392.419,394.297V346.33h-47.175
	v17.391c0,2.761-2.238,5-5,5h-0.114H250h-90.244h-0.114c-2.761,0-5-2.239-5-5V346.33h-47.06v47.963
	c0,8.331,6.778,15.109,15.109,15.109h7.357h29.707H250h90.244h29.707h7.361C385.643,409.403,392.419,402.626,392.419,394.297z
	 M255.001,358.721h80.129v-30.177c-1.277-15.048-13.924-26.905-29.297-26.905h-21.421c-16.218,0-29.411,13.194-29.411,29.411
	V358.721z M245,331.05c0-16.217-13.194-29.411-29.412-29.411h-21.421c-16.217,0-29.411,13.194-29.411,29.411v27.671H245V331.05z
	 M305.689,263.539c-0.271,0.166-0.544,0.329-0.817,0.493c-0.937,0.562-1.881,1.109-2.832,1.642
	c-0.419,0.235-0.837,0.471-1.259,0.701c-0.492,0.266-0.986,0.526-1.482,0.784c-0.505,0.264-1.014,0.523-1.524,0.779
	c-0.431,0.216-0.861,0.435-1.295,0.646c-0.888,0.431-1.783,0.849-2.684,1.256c-0.335,0.151-0.673,0.296-1.01,0.443
	c-0.718,0.315-1.439,0.623-2.165,0.922c-0.31,0.128-0.618,0.256-0.929,0.381c-1.016,0.408-2.038,0.804-3.07,1.182
	c-0.072,0.026-0.145,0.051-0.217,0.077c-1.001,0.364-2.01,0.71-3.025,1.045c-0.213,0.07-0.426,0.14-0.639,0.208
	c-2.202,0.711-4.435,1.354-6.697,1.922c-0.119,0.03-0.239,0.058-0.359,0.088c-1.057,0.262-2.119,0.508-3.188,0.738
	c-0.108,0.023-0.215,0.048-0.322,0.071c-2.288,0.485-4.602,0.895-6.941,1.23c-0.194,0.028-0.388,0.055-0.582,0.082
	c-1.085,0.149-2.173,0.286-3.268,0.402c-0.063,0.007-0.125,0.015-0.188,0.021c-1.149,0.12-2.303,0.22-3.462,0.304
	c-0.235,0.017-0.47,0.03-0.705,0.045c-0.907,0.059-1.817,0.107-2.73,0.144c-0.303,0.012-0.606,0.025-0.91,0.035
	c-1.127,0.035-2.257,0.059-3.392,0.059s-2.265-0.024-3.392-0.059c-0.304-0.01-0.607-0.023-0.91-0.035
	c-0.913-0.037-1.824-0.084-2.731-0.144c-0.234-0.015-0.469-0.028-0.703-0.045c-1.16-0.083-2.315-0.184-3.464-0.304
	c-0.062-0.007-0.123-0.015-0.184-0.021c-1.096-0.117-2.186-0.253-3.272-0.403c-0.193-0.027-0.385-0.053-0.578-0.081
	c-2.34-0.336-4.656-0.746-6.945-1.231c-0.105-0.022-0.21-0.046-0.316-0.069c-1.071-0.23-2.137-0.478-3.196-0.74
	c-0.117-0.029-0.235-0.057-0.353-0.087c-2.263-0.569-4.497-1.212-6.7-1.923c-0.212-0.068-0.424-0.138-0.636-0.207
	c-1.016-0.335-2.027-0.682-3.029-1.047c-0.071-0.026-0.143-0.049-0.214-0.075c-1.032-0.378-2.054-0.774-3.071-1.183
	c-0.31-0.124-0.619-0.253-0.928-0.381c-0.726-0.299-1.447-0.607-2.165-0.922c-0.337-0.148-0.676-0.293-1.011-0.444
	c-0.9-0.406-1.794-0.824-2.681-1.255c-0.436-0.211-0.868-0.432-1.301-0.649c-0.507-0.255-1.012-0.512-1.514-0.774
	c-0.499-0.26-0.997-0.521-1.492-0.79c-0.409-0.222-0.813-0.451-1.218-0.677c-0.969-0.542-1.931-1.099-2.885-1.672
	c-0.264-0.159-0.529-0.317-0.792-0.478c-0.333-0.204-0.671-0.396-1.001-0.604h-30.145c-30.653,0-55.591,24.996-55.591,55.72v17.671
	h47.06v-46.755c0-2.761,2.239-5,5-5s5,2.239,5,5v15.41c7.227-8.176,17.781-13.346,29.525-13.346h21.421
	c14.771,0,27.664,8.173,34.412,20.23c6.748-12.057,19.64-20.23,34.411-20.23h21.421c11.619,0,22.077,5.057,29.297,13.083v-15.147
	c0-2.761,2.238-5,5-5s5,2.239,5,5v38.626c0.068,0.942,0.114,1.89,0.114,2.849v5.28h47.175V318.66
	c0-30.724-24.938-55.72-55.592-55.72h-30.145C306.354,263.146,306.019,263.337,305.689,263.539z M227.935,247.408
	c2.167,1.713,5.31,1.346,7.023-0.819c3.664-4.632,9.147-7.288,15.042-7.288c5.896,0,11.378,2.656,15.042,7.288
	c0.987,1.248,2.449,1.898,3.925,1.898c1.087,0,2.181-0.353,3.099-1.079c2.166-1.713,2.533-4.858,0.82-7.023
	C267.313,233.34,258.973,229.3,250,229.3c-8.972,0-17.313,4.04-22.885,11.084C225.402,242.55,225.769,245.694,227.935,247.408z
	 M204.878,188.112c7.25,0,13.992-3.265,18.495-8.957c1.713-2.166,1.346-5.31-0.819-7.023c-2.166-1.713-5.31-1.346-7.023,0.819
	c-2.595,3.28-6.477,5.161-10.652,5.161c-4.174,0-8.057-1.881-10.652-5.161c-1.714-2.165-4.857-2.532-7.024-0.819
	c-2.166,1.713-2.532,4.858-0.819,7.023C190.887,184.847,197.628,188.112,204.878,188.112z M291.203,188.112
	c7.251,0,13.992-3.265,18.495-8.957c1.713-2.166,1.346-5.31-0.82-7.023c-2.163-1.712-5.309-1.347-7.023,0.819
	c-2.594,3.28-6.477,5.161-10.651,5.161s-8.058-1.881-10.651-5.161c-1.715-2.167-4.859-2.532-7.023-0.819
	c-2.166,1.713-2.533,4.858-0.82,7.023C277.211,184.847,283.952,188.112,291.203,188.112z M204.878,194.839c-2.761,0-5,2.239-5,5
	v4.532c0,2.761,2.239,5,5,5s5-2.239,5-5v-4.532C209.878,197.078,207.64,194.839,204.878,194.839z M204.878,214.738
	c-2.761,0-5,2.239-5,5v4.532c0,2.761,2.239,5,5,5s5-2.239,5-5v-4.532C209.878,216.977,207.64,214.738,204.878,214.738z
	 M291.203,194.839c-2.762,0-5,2.239-5,5v4.532c0,2.761,2.238,5,5,5s5-2.239,5-5v-4.532
	C296.203,197.078,293.965,194.839,291.203,194.839z M291.203,214.738c-2.762,0-5,2.239-5,5v4.532c0,2.761,2.238,5,5,5s5-2.239,5-5
	v-4.532C296.203,216.977,293.965,214.738,291.203,214.738z M118.298,180.771c-2.761,0-5,2.239-5,5v5.39c0,2.761,2.239,5,5,5
	s5-2.239,5-5v-5.39C123.298,183.009,121.06,180.771,118.298,180.771z M118.297,139.089c-2.761,0-5,2.239-5,5v22.629
	c0,2.761,2.239,5,5,5s5-2.239,5-5v-22.629C123.297,141.328,121.059,139.089,118.297,139.089z M89.918,196.161c2.761,0,5-2.239,5-5
	v-5.39c0-2.761-2.239-5-5-5s-5,2.239-5,5v5.39C84.918,193.922,87.157,196.161,89.918,196.161z M89.917,171.719c2.761,0,5-2.239,5-5
	v-22.629c0-2.761-2.239-5-5-5s-5,2.239-5,5v22.629C84.917,169.48,87.156,171.719,89.917,171.719z M406.747,180.771
	c-2.762,0-5,2.239-5,5v5.39c0,2.761,2.238,5,5,5s5-2.239,5-5v-5.39C411.747,183.009,409.509,180.771,406.747,180.771z
	 M406.746,139.089c-2.762,0-5,2.239-5,5v22.629c0,2.761,2.238,5,5,5s5-2.239,5-5v-22.629
	C411.746,141.328,409.508,139.089,406.746,139.089z M378.367,180.771c-2.762,0-5,2.239-5,5v5.39c0,2.761,2.238,5,5,5s5-2.239,5-5
	v-5.39C383.367,183.009,381.129,180.771,378.367,180.771z M378.365,139.089c-2.762,0-5,2.239-5,5v22.629c0,2.761,2.238,5,5,5
	s5-2.239,5-5v-22.629C383.365,141.328,381.127,139.089,378.365,139.089z M440.836,490h-3.813c-2.762,0-5,2.239-5,5s2.238,5,5,5
	h3.813c2.762,0,5-2.239,5-5S443.598,490,440.836,490z M419.862,490H80.138c-2.761,0-5,2.239-5,5s2.239,5,5,5h339.724
	c2.762,0,5-2.239,5-5S422.624,490,419.862,490z M62.979,490h-3.813c-2.761,0-5,2.239-5,5s2.239,5,5,5h3.813c2.761,0,5-2.239,5-5
	S65.74,490,62.979,490z"/>
</svg>
