<?xml version="1.0" encoding="utf-8"?>
<!-- Generator: Adobe Illustrator 23.0.0, SVG Export Plug-In . SVG Version: 6.00 Build 0)  -->
<svg version="1.1" id="Layer_1" xmlns="http://www.w3.org/2000/svg" xmlns:xlink="http://www.w3.org/1999/xlink" x="0px" y="0px"
	 viewBox="0 0 500 500" style="enable-background:new 0 0 500 500;" xml:space="preserve">
<style type="text/css">
	.st0{fill:#83E1E5;}
	.st1{fill:#AAB1BA;}
	.st2{fill:#FDDF7F;}
	.st3{fill:#ECF4F7;}
	.st4{fill:#1C1D21;}
</style>
<g>
	<path class="st3" d="M245.659,110.464c-33.968,0-62.234,24.385-68.345,56.627H74.747v-19.626c0-5.337-5.935-8.531-10.39-5.593
		l-50.377,33.244c-3.623,2.391-3.623,7.705,0,10.095l50.377,33.243c4.455,2.94,10.39-0.255,10.39-5.592v-19.62h102.568
		c6.113,32.239,34.378,56.621,68.344,56.621c38.431,0,69.585-31.206,69.585-69.7S284.09,110.464,245.659,110.464z"/>
</g>
<g>
	<path class="st2" d="M245.659,77.544c-52.161,0-95.217,39.045-101.628,89.547h33.282c6.111-32.242,34.377-56.627,68.345-56.627
		c38.431,0,69.585,31.205,69.585,69.699s-31.154,69.7-69.585,69.7c-33.966,0-62.231-24.382-68.344-56.621h-33.282
		c6.413,50.5,49.468,89.541,101.627,89.541c56.582,0,102.451-45.944,102.451-102.62C348.11,123.488,302.241,77.544,245.659,77.544z"
		/>
</g>
<g>
	<path class="st0" d="M285.019,368.189l-12.895,18.448l-27.866-39.868c-4.669-6.68-3.028-15.881,3.663-20.534h0
		c6.825-4.748,16.225-2.91,20.76,4.058l3.443,5.29l3.443-5.29c4.535-6.968,13.934-8.806,20.76-4.058
		c5.21,3.623,7.341,10.002,5.832,15.803h91.581v-14.656c0-33.669-27.25-60.964-60.864-60.964H301.18
		c-15.998,10.353-35.058,16.365-55.521,16.365c-20.463,0-39.523-6.013-55.521-16.365h-31.697c-33.614,0-60.864,27.295-60.864,60.964
		V495H393.74V368.189H285.019z"/>
</g>
<g>
	<rect x="340.935" y="368.189" class="st2" width="52.805" height="126.811"/>
</g>
<g>
	<g>
		<rect x="97.578" y="363.254" class="st2" width="52.805" height="131.746"/>
	</g>
</g>
<g>
	<path class="st3" d="M486.019,350.069l-50.377-33.243c-4.454-2.94-10.39,0.255-10.39,5.591v19.621H302.159
		c-0.429,1.648-1.135,3.253-2.169,4.731l-14.971,21.42h140.234v19.626c0,5.337,5.935,8.531,10.39,5.593l50.377-33.244
		C489.642,357.773,489.642,352.459,486.019,350.069z"/>
</g>
<g>
	<path class="st2" d="M275.567,330.293l-3.443,5.29l-3.443-5.29c-4.535-6.968-13.934-8.805-20.76-4.058h0
		c-6.691,4.654-8.332,13.855-3.663,20.535l27.866,39.868l27.866-39.868c4.669-6.68,3.028-15.881-3.663-20.535h0
		C289.502,321.488,280.103,323.325,275.567,330.293z"/>
</g>
<path class="st4" d="M279.702,16.534c0-2.762,2.238-5,5-5h6.534V5c0-2.762,2.238-5,5-5s5,2.238,5,5v6.534h6.534c2.762,0,5,2.238,5,5
	s-2.238,5-5,5h-6.534v6.535c0,2.762-2.238,5-5,5s-5-2.238-5-5v-6.535h-6.534C281.94,21.534,279.702,19.296,279.702,16.534z
	 M234.536,21.534h6.535v6.535c0,2.762,2.239,5,5,5s5-2.238,5-5v-6.535h6.535c2.762,0,5-2.238,5-5s-2.238-5-5-5h-6.535V5
	c0-2.762-2.238-5-5-5s-5,2.238-5,5v6.534h-6.535c-2.761,0-5,2.238-5,5S231.775,21.534,234.536,21.534z M184.371,21.534h6.534v6.535
	c0,2.762,2.239,5,5,5s5-2.238,5-5v-6.535h6.535c2.761,0,5-2.238,5-5s-2.239-5-5-5h-6.535V5c0-2.762-2.239-5-5-5s-5,2.238-5,5v6.534
	h-6.534c-2.761,0-5,2.238-5,5S181.61,21.534,184.371,21.534z M434.767,490H56.551c-2.761,0-5,2.238-5,5s2.239,5,5,5h378.215
	c2.762,0,5-2.238,5-5S437.528,490,434.767,490z M38.137,490h-3.813c-2.761,0-5,2.238-5,5s2.239,5,5,5h3.813c2.761,0,5-2.238,5-5
	S40.898,490,38.137,490z M456.994,490h-3.813c-2.762,0-5,2.238-5,5s2.238,5,5,5h3.813c2.762,0,5-2.238,5-5S459.756,490,456.994,490z
	 M68.047,224.564c1.9,0,3.806-0.464,5.544-1.398c3.797-2.044,6.156-5.991,6.156-10.304v-14.62h80.372c2.761,0,5-2.238,5-5
	s-2.239-5-5-5H74.748c-2.761,0-5,2.238-5,5v19.62c0,0.884-0.561,1.317-0.895,1.497c-0.333,0.182-1.003,0.408-1.741-0.078
	l-50.378-33.244c-0.389-0.257-0.47-0.616-0.47-0.873s0.082-0.617,0.471-0.875l50.376-33.243c0.738-0.488,1.408-0.258,1.742-0.078
	c0.334,0.18,0.894,0.613,0.894,1.497v19.626c0,2.762,2.239,5,5,5h85.372c2.761,0,5-2.238,5-5s-2.239-5-5-5H79.748v-14.626
	c0-4.312-2.358-8.259-6.154-10.302c-3.795-2.043-8.39-1.838-11.989,0.536l-50.377,33.243c-3.108,2.052-4.964,5.499-4.963,9.223
	c0,3.723,1.856,7.17,4.963,9.219l50.376,33.243C63.554,223.915,65.797,224.565,68.047,224.564z M488.773,345.896l-50.377-33.243
	c-3.598-2.376-8.191-2.583-11.988-0.538c-3.797,2.043-6.155,5.99-6.155,10.302v14.621H398.74v-9.656
	c0-36.373-29.546-65.964-65.863-65.964h-16.836c22.696-19.747,37.07-48.851,37.07-81.255c0-59.342-48.202-107.619-107.451-107.619
	c-23.677,0-46.133,7.563-64.939,21.87c-18.194,13.843-31.746,33.493-38.159,55.332c-0.778,2.649,0.739,5.429,3.389,6.207
	c2.65,0.776,5.428-0.74,6.206-3.389c12.107-41.228,50.557-70.021,93.503-70.021c53.734,0,97.451,43.792,97.451,97.619
	c0,43.592-28.673,80.598-68.116,93.098c-0.224,0.07-0.449,0.143-0.674,0.212c-0.614,0.189-1.23,0.374-1.849,0.552
	c-0.405,0.116-0.811,0.225-1.217,0.335c-0.802,0.219-1.608,0.428-2.418,0.627c-0.57,0.139-1.14,0.276-1.712,0.405
	c-0.418,0.095-0.837,0.186-1.256,0.275c-0.728,0.153-1.457,0.299-2.188,0.437c-0.25,0.047-0.499,0.099-0.75,0.145
	c-0.976,0.175-1.957,0.332-2.939,0.478c-0.296,0.044-0.594,0.084-0.891,0.125c-0.807,0.111-1.617,0.214-2.428,0.306
	c-0.241,0.027-0.481,0.058-0.722,0.083c-1.027,0.108-2.056,0.201-3.088,0.277c-0.212,0.015-0.426,0.026-0.638,0.04
	c-0.851,0.058-1.704,0.103-2.558,0.138c-0.285,0.012-0.57,0.023-0.856,0.032c-1.048,0.034-2.098,0.057-3.15,0.057
	c-1.285,0-2.565-0.029-3.841-0.08c-0.237-0.01-0.473-0.027-0.71-0.038c-1.096-0.053-2.191-0.116-3.28-0.205
	c-0.118-0.01-0.236-0.022-0.354-0.032c-39.367-3.38-73.717-30.88-85.179-69.195c-0.792-2.646-3.579-4.154-6.223-3.357
	c-2.646,0.791-4.148,3.577-3.357,6.223c5.795,19.372,17.234,36.988,32.519,50.32h-16.793c-36.317,0-65.864,29.591-65.864,65.964
	v149.276c0,2.762,2.239,5,5,5s5-2.238,5-5V368.254h42.805v108.404c0,2.762,2.239,5,5,5s5-2.238,5-5V323.596c0-2.762-2.239-5-5-5
	s-5,2.238-5,5v34.658h-42.805v-30.872c0-30.858,25.061-55.964,55.864-55.964h30.239c0.045,0.028,0.09,0.054,0.135,0.081
	c12.648,7.934,26.651,13.055,41.369,15.165c0.276,0.04,0.552,0.079,0.828,0.117c0.926,0.125,1.855,0.24,2.787,0.343
	c0.497,0.055,0.995,0.102,1.493,0.149c0.775,0.074,1.55,0.147,2.328,0.204c0.736,0.055,1.474,0.093,2.212,0.133
	c0.583,0.031,1.165,0.07,1.75,0.092c1.356,0.051,2.714,0.081,4.076,0.081c1.138,0,2.271-0.024,3.401-0.06
	c0.318-0.01,0.635-0.023,0.953-0.036c0.885-0.035,1.768-0.082,2.647-0.139c0.274-0.018,0.549-0.033,0.823-0.053
	c1.124-0.081,2.244-0.178,3.358-0.294c0.192-0.02,0.383-0.045,0.575-0.065c0.931-0.103,1.859-0.217,2.783-0.343
	c0.333-0.045,0.665-0.092,0.997-0.14c0.89-0.13,1.777-0.271,2.66-0.422c0.234-0.04,0.47-0.075,0.704-0.117
	c1.034-0.185,2.062-0.387,3.085-0.601c0.424-0.089,0.847-0.184,1.27-0.277c0.63-0.14,1.258-0.285,1.883-0.436
	c0.493-0.118,0.986-0.236,1.478-0.362c0.568-0.146,1.133-0.301,1.698-0.455c0.996-0.272,1.987-0.56,2.975-0.86
	c0.293-0.089,0.586-0.177,0.878-0.269c0.732-0.229,1.461-0.468,2.188-0.713c0.079-0.026,0.158-0.055,0.237-0.082
	c7.81-2.658,15.324-6.21,22.387-10.643h30.239c30.803,0,55.863,25.105,55.863,55.964v9.656h-42.805v-13.442c0-2.762-2.238-5-5-5
	s-5,2.238-5,5v13.442h-14.443c-2.762,0-5,2.238-5,5s2.238,5,5,5h103.761c2.762,0,5-2.238,5-5v-19.621
	c0-0.884,0.561-1.316,0.894-1.496c0.333-0.181,1.002-0.408,1.742,0.078l50.378,33.244c0.389,0.257,0.47,0.616,0.471,0.873
	c0,0.257-0.082,0.617-0.472,0.875l-50.376,33.243c-0.738,0.485-1.408,0.258-1.743,0.078c-0.333-0.18-0.894-0.613-0.894-1.497
	v-19.626c0-2.762-2.238-5-5-5H305.709c-2.762,0-5,2.238-5,5s2.238,5,5,5h30.227v103.469c0,2.762,2.238,5,5,5s5-2.238,5-5V373.189
	h42.805v103.469c0,2.762,2.238,5,5,5s5-2.238,5-5V373.189h21.513v14.626c0,4.312,2.358,8.259,6.153,10.302
	c1.739,0.937,3.646,1.4,5.547,1.4c2.25,0,4.492-0.649,6.443-1.937l50.377-33.243c3.108-2.052,4.964-5.499,4.964-9.223
	C493.736,351.393,491.881,347.945,488.773,345.896z M171.074,180.163c0-0.758,0.035-1.508,0.057-2.261
	c-0.001-0.043-0.013-0.083-0.013-0.127c0-0.073,0.018-0.141,0.021-0.213c0.826-24.022,13.025-45.189,31.369-58.271
	c0.254-0.225,0.53-0.42,0.827-0.589c12.034-8.339,26.615-13.239,42.323-13.239c15.707,0,30.286,4.899,42.32,13.236
	c0.301,0.172,0.581,0.369,0.838,0.598c18.338,13.08,30.533,34.241,31.361,58.259c0.003,0.074,0.022,0.144,0.022,0.219
	c0,0.045-0.012,0.087-0.013,0.131c0.022,0.752,0.057,1.5,0.057,2.257c0,28.938-16.527,54.067-40.613,66.467
	c-0.31,0.212-0.65,0.379-1.004,0.517c-9.948,4.932-21.137,7.717-32.968,7.717c-11.831,0-23.021-2.786-32.969-7.718
	c-0.354-0.138-0.693-0.304-1.002-0.515C187.601,234.231,171.074,209.102,171.074,180.163z M250.659,244.65
	c7.481-0.577,14.607-2.433,21.163-5.354v-20.908c0-2.762,2.238-5,5-5s5,2.238,5,5v15.355c16.464-11.188,27.511-29.785,28.356-50.968
	h-23.796c-2.514,0-4.56,2.045-4.56,4.56v7.653c0,2.762-2.238,5-5,5s-5-2.238-5-5v-7.653c0-8.028,6.531-14.56,14.56-14.56h23.429
	c-1.742-15.271-8.809-28.937-19.294-39.094v8.848c0,8.028-6.531,14.56-14.56,14.56h-10.325c-2.762,0-5-2.238-5-5s2.238-5,5-5h10.325
	c2.514,0,4.56-2.045,4.56-4.56v-16.79c-8.743-5.639-18.921-9.219-29.857-10.063V244.65z M209.496,194.988v-7.653
	c0-2.515-2.045-4.56-4.56-4.56H181.14c0.845,21.184,11.892,39.78,28.356,50.968v-15.355c0-2.762,2.239-5,5-5s5,2.238,5,5v20.908
	c6.556,2.922,13.682,4.777,21.163,5.354V115.677c-10.937,0.844-21.114,4.423-29.857,10.063v16.79c0,2.515,2.045,4.56,4.56,4.56
	h10.325c2.761,0,5,2.238,5,5s-2.239,5-5,5h-10.325c-8.028,0-14.56-6.531-14.56-14.56v-8.849
	c-10.485,10.157-17.553,23.823-19.295,39.095h23.429c8.028,0,14.56,6.531,14.56,14.56v7.653c0,2.762-2.239,5-5,5
	S209.496,197.75,209.496,194.988z M268.025,389.502l-27.866-39.868c-3.024-4.327-4.18-9.572-3.252-14.769
	c0.927-5.198,3.825-9.72,8.159-12.734c4.42-3.076,9.767-4.205,15.052-3.167c4.856,0.948,9.074,3.604,12.006,7.53
	c2.932-3.926,7.149-6.582,12.006-7.53c5.29-1.036,10.632,0.091,15.053,3.167c4.334,3.015,7.231,7.536,8.158,12.734
	c0.927,5.196-0.228,10.441-3.253,14.769l-27.865,39.868c-0.936,1.339-2.466,2.136-4.099,2.136S268.961,390.841,268.025,389.502z
	 M248.356,343.905l23.768,34.005l23.768-34.005c1.492-2.134,2.062-4.722,1.604-7.284c-0.457-2.563-1.886-4.794-4.023-6.281
	c-2.182-1.517-4.813-2.067-7.425-1.563c-2.606,0.51-4.841,2.017-6.29,4.243l-3.443,5.29c-0.923,1.418-2.499,2.272-4.19,2.272
	s-3.268-0.854-4.19-2.272l-3.443-5.29c-1.449-2.227-3.684-3.733-6.29-4.243c-0.632-0.123-1.265-0.184-1.893-0.184
	c-1.965,0-3.879,0.597-5.531,1.746c-2.138,1.487-3.567,3.718-4.024,6.281C246.294,339.184,246.864,341.771,248.356,343.905z"/>
</svg>
