<?xml version="1.0" encoding="utf-8"?>
<!-- Generator: Adobe Illustrator 23.0.0, SVG Export Plug-In . SVG Version: 6.00 Build 0)  -->
<svg version="1.1" id="Layer_1" xmlns="http://www.w3.org/2000/svg" xmlns:xlink="http://www.w3.org/1999/xlink" x="0px" y="0px"
	 viewBox="0 0 500 500" style="enable-background:new 0 0 500 500;" xml:space="preserve">
<style type="text/css">
	.st0{fill:#83E1E5;}
	.st1{fill:#AAB1BA;}
	.st2{fill:#FDDF7F;}
	.st3{fill:#ECF4F7;}
	.st4{fill:#1C1D21;}
</style>
<g>
	<path class="st1" d="M172.764,181.423c0-22.129,7.019-42.614,18.946-59.345c-5.734-3.929-12.668-6.23-20.14-6.23h-18.603
		c-0.125,0.081-0.259,0.15-0.386,0.23c16.783-10.685,27.929-29.459,27.929-50.852C180.511,31.964,153.591,5,120.383,5
		C87.176,5,60.256,31.964,60.256,65.227c0,21.393,11.145,40.166,27.927,50.852c-0.126-0.08-0.259-0.15-0.384-0.23H69.196
		c-19.728,0-35.72,16.02-35.72,35.779V250h86.907h78.747C182.746,231.865,172.764,207.813,172.764,181.423z"/>
</g>
<g>
	<path class="st2" d="M359.982,351.093h6.241c5.889,0,10.664,4.774,10.664,10.664v84.082h25.182c0.694,0,1.38-0.035,2.056-0.104
		c10.139-1.03,18.051-9.595,18.051-20.006v-75.007h-62.193V351.093z"/>
</g>
<g>
	<path class="st0" d="M361.583,267.332h-31.602c-15.919,10.299-34.868,16.3-55.225,16.3s-39.306-6.001-55.225-16.3h-31.602
		c-33.464,0-60.591,27.186-60.591,60.721v97.677c0,11.106,9.002,20.109,20.106,20.109h4.436V495h257.728v-50.626
		c-1.723,0.698-3.563,1.166-5.485,1.361c-0.676,0.068-1.362,0.104-2.056,0.104h-25.182v-0.483v-83.599
		c0-5.89-4.774-10.664-10.664-10.664h-6.241v-0.37h62.193v-22.67C422.174,294.518,395.047,267.332,361.583,267.332z"/>
</g>
<g>
	<path class="st2" d="M316.035,395.157H184.398v-44.435h-57.06v75.007c0,11.105,9.002,20.109,20.106,20.109h168.59V395.157z"/>
</g>
<g>
	<ellipse class="st2" cx="274.756" cy="181.423" rx="101.992" ry="102.209"/>
</g>
<g>
	<g>
		<path class="st1" d="M366.222,351.093h-6.241v-23.03H332.94v23.03h-6.241c-5.889,0-10.664,4.774-10.664,10.664v106.374
			c0,1.638,1.328,2.965,2.966,2.965h57.885V361.757C376.886,355.867,372.112,351.093,366.222,351.093z"/>
	</g>
</g>
<g>
	<g>
		<rect x="316.035" y="384.474" class="st3" width="60.851" height="43.035"/>
	</g>
</g>
<g>
	<g>
		<path class="st2" d="M355.635,305.306h-18.349c-2.4,0-4.346,1.945-4.346,4.346v18.411h27.042v-18.411
			C359.982,307.251,358.036,305.306,355.635,305.306z"/>
	</g>
</g>
<g>
	<circle class="st3" cx="220.262" cy="153.107" r="17.408"/>
</g>
<g>
	<circle class="st3" cx="304.707" cy="153.107" r="17.408"/>
</g>
<g>
	<path class="st3" d="M229.894,237.438h65.181c4.852,0,8.786-3.934,8.786-8.786v-1.907c0-11.053-8.96-20.013-20.013-20.013h-42.728
		c-11.053,0-20.013,8.96-20.013,20.013v1.907C221.108,233.504,225.042,237.438,229.894,237.438z"/>
</g>
<path class="st4" d="M233.465,16.534c0-2.762,2.239-5,5-5H245V5c0-2.762,2.239-5,5-5s5,2.238,5,5v6.534h6.535c2.761,0,5,2.238,5,5
	s-2.239,5-5,5H255v6.535c0,2.762-2.239,5-5,5s-5-2.238-5-5v-6.535h-6.534C235.704,21.534,233.465,19.296,233.465,16.534z
	 M310.582,21.534h6.534v6.535c0,2.762,2.239,5,5,5s5-2.238,5-5v-6.535h6.535c2.761,0,5-2.238,5-5s-2.239-5-5-5h-6.535V5
	c0-2.762-2.239-5-5-5s-5,2.238-5,5v6.534h-6.534c-2.761,0-5,2.238-5,5S307.82,21.534,310.582,21.534z M74.652,144.405
	c-2.761,0-5,2.238-5,5V250c0,2.762,2.239,5,5,5s5-2.238,5-5V149.405C79.652,146.644,77.414,144.405,74.652,144.405z M86.354,120.848
	H69.196c-16.939,0-30.72,13.808-30.72,30.779V250c0,2.762-2.239,5-5,5s-5-2.238-5-5v-98.373c0-22.485,18.267-40.779,40.72-40.779
	h4.701c-11.52-11.771-18.641-27.876-18.641-45.621C55.256,29.261,84.472,0,120.383,0s65.127,29.261,65.127,65.227
	c0,17.745-7.121,33.85-18.641,45.621h4.701c6.639,0,13.081,1.595,18.878,4.641c19.599-25.106,50.104-41.274,84.308-41.274
	c58.996,0,106.992,48.094,106.992,107.209c0,32.261-14.296,61.238-36.872,80.909h16.707c36.167,0,65.591,29.482,65.591,65.721v22.67
	v75.007c0,9.284-4.994,17.437-12.566,21.782v29.146c0,2.762-2.239,5-5,5s-5-2.238-5-5v-25.946c-0.842,0.084-1.695,0.127-2.54,0.127
	h-20.182v20.257c0,2.762-2.239,5-5,5h-57.885c-4.393,0-7.966-3.573-7.966-7.965v-40.622v-43.035v-22.717
	c0-8.637,7.027-15.664,15.664-15.664h1.24v-18.03v-18.411c0-5.153,4.193-9.346,9.346-9.346h18.35c5.153,0,9.346,4.192,9.346,9.346
	v18.411v18.03h1.241c8.637,0,15.664,7.027,15.664,15.664v22.717v43.035v13.33h20.182c0.517,0,1.04-0.026,1.553-0.078
	c1.406-0.143,2.746-0.479,4.002-0.971c0.048-0.021,0.099-0.036,0.149-0.056c5.569-2.251,9.402-7.692,9.402-14.005v-69.937
	l-21.286,0.299c-0.024,0.001-0.048,0.001-0.072,0.001c-2.729,0-4.959-2.192-4.998-4.93c-0.039-2.762,2.168-5.031,4.929-5.069
	l21.427-0.301v-17.74c0-30.725-24.938-55.721-55.591-55.721h-30.145c-0.331,0.207-0.669,0.4-1.001,0.604
	c-0.263,0.162-0.529,0.32-0.794,0.479c-0.951,0.57-1.909,1.126-2.875,1.666c-0.409,0.229-0.816,0.46-1.228,0.684
	c-0.493,0.267-0.989,0.527-1.486,0.787c-0.506,0.264-1.014,0.522-1.524,0.779c-0.43,0.216-0.859,0.435-1.292,0.644
	c-0.89,0.432-1.786,0.852-2.689,1.259c-0.331,0.149-0.665,0.292-0.997,0.438c-0.723,0.317-1.449,0.627-2.18,0.929
	c-0.306,0.126-0.611,0.254-0.919,0.377c-1.019,0.409-2.043,0.807-3.077,1.186c-0.066,0.023-0.133,0.046-0.199,0.07
	c-1.008,0.366-2.025,0.715-3.048,1.052c-0.208,0.068-0.415,0.137-0.623,0.204c-2.208,0.713-4.445,1.356-6.712,1.927
	c-0.112,0.028-0.225,0.055-0.337,0.082c-1.067,0.265-2.139,0.514-3.218,0.745c-0.099,0.021-0.198,0.045-0.297,0.065
	c-2.293,0.486-4.613,0.897-6.957,1.233c-0.189,0.027-0.378,0.054-0.567,0.08c-1.088,0.149-2.18,0.286-3.277,0.403
	c-0.062,0.007-0.123,0.015-0.185,0.021c-1.149,0.12-2.304,0.22-3.463,0.304c-0.234,0.017-0.469,0.029-0.703,0.045
	c-0.907,0.059-1.818,0.106-2.731,0.144c-0.303,0.012-0.606,0.024-0.91,0.034c-1.127,0.035-2.257,0.06-3.392,0.06
	s-2.265-0.024-3.392-0.06c-0.304-0.01-0.607-0.022-0.91-0.034c-0.913-0.037-1.824-0.085-2.731-0.144
	c-0.234-0.016-0.469-0.028-0.703-0.045c-1.159-0.084-2.314-0.184-3.463-0.304c-0.062-0.007-0.123-0.015-0.185-0.021
	c-1.098-0.117-2.19-0.254-3.278-0.403c-0.189-0.026-0.377-0.053-0.566-0.08c-2.344-0.336-4.665-0.747-6.958-1.233
	c-0.099-0.021-0.198-0.044-0.297-0.065c-1.079-0.231-2.152-0.48-3.218-0.745c-0.112-0.027-0.225-0.054-0.337-0.082
	c-2.267-0.57-4.505-1.214-6.712-1.927c-0.208-0.067-0.416-0.136-0.623-0.204c-1.022-0.337-2.039-0.686-3.048-1.052
	c-0.066-0.024-0.133-0.047-0.199-0.07c-1.034-0.379-2.058-0.776-3.077-1.186c-0.307-0.123-0.612-0.25-0.918-0.377
	c-0.732-0.302-1.459-0.611-2.182-0.929c-0.332-0.146-0.664-0.288-0.995-0.438c-0.903-0.407-1.8-0.826-2.69-1.259
	c-0.433-0.209-0.861-0.428-1.292-0.644c-0.51-0.257-1.019-0.516-1.524-0.779c-0.497-0.26-0.993-0.521-1.486-0.787
	c-0.412-0.224-0.82-0.455-1.228-0.684c-0.966-0.54-1.924-1.096-2.875-1.666c-0.265-0.159-0.53-0.317-0.794-0.479
	c-0.333-0.203-0.67-0.396-1.001-0.604h-30.145c-30.653,0-55.591,24.996-55.591,55.721v17.67h47.06v-29.038c0-2.762,2.239-5,5-5
	s5,2.238,5,5v34.038v39.435h109.043c2.761,0,5,2.238,5,5s-2.239,5-5,5H184.398c-2.761,0-5-2.238-5-5v-39.435h-47.06v70.007
	c0,8.331,6.777,15.109,15.106,15.109h4.436h146.562c2.761,0,5,2.238,5,5s-2.239,5-5,5H156.88v25.819c0,2.762-2.239,5-5,5
	s-5-2.238-5-5v-25.825c-0.13-0.003-0.258-0.014-0.388-0.019c-0.197-0.007-0.394-0.016-0.591-0.027
	c-0.228-0.014-0.455-0.032-0.682-0.053c-0.193-0.017-0.386-0.034-0.578-0.056c-0.227-0.025-0.452-0.056-0.676-0.087
	c-0.189-0.025-0.377-0.053-0.565-0.083c-0.225-0.037-0.448-0.078-0.671-0.12c-0.184-0.035-0.369-0.071-0.552-0.11
	c-0.222-0.048-0.442-0.1-0.661-0.153c-0.181-0.043-0.361-0.088-0.541-0.136c-0.218-0.058-0.434-0.12-0.65-0.185
	c-0.177-0.053-0.354-0.104-0.529-0.161c-0.214-0.068-0.425-0.142-0.637-0.216c-0.173-0.061-0.346-0.121-0.517-0.186
	c-0.21-0.079-0.418-0.162-0.626-0.247c-0.167-0.068-0.335-0.136-0.501-0.207c-0.207-0.09-0.41-0.184-0.614-0.278
	c-0.163-0.075-0.325-0.15-0.486-0.229c-0.202-0.099-0.401-0.203-0.6-0.308c-0.158-0.083-0.316-0.165-0.471-0.251
	c-0.196-0.108-0.389-0.222-0.582-0.335c-0.154-0.09-0.308-0.18-0.459-0.273c-0.19-0.117-0.377-0.239-0.564-0.361
	c-0.148-0.098-0.298-0.193-0.444-0.293c-0.184-0.127-0.365-0.258-0.545-0.389c-0.144-0.104-0.289-0.207-0.43-0.314
	c-0.177-0.134-0.351-0.273-0.525-0.412c-0.138-0.11-0.278-0.22-0.413-0.333c-0.171-0.144-0.338-0.291-0.505-0.438
	c-0.133-0.117-0.267-0.232-0.397-0.352c-0.164-0.15-0.322-0.306-0.482-0.46c-0.127-0.123-0.256-0.245-0.381-0.371
	c-0.156-0.158-0.308-0.32-0.46-0.482c-0.121-0.129-0.244-0.257-0.363-0.389c-0.149-0.164-0.292-0.334-0.436-0.503
	c-0.116-0.135-0.233-0.269-0.346-0.406c-0.14-0.172-0.275-0.348-0.41-0.522c-0.109-0.141-0.221-0.28-0.327-0.424
	c-0.132-0.178-0.258-0.36-0.386-0.542c-0.103-0.146-0.208-0.291-0.307-0.439c-0.123-0.184-0.24-0.372-0.359-0.559
	c-0.096-0.152-0.195-0.302-0.288-0.456c-0.115-0.19-0.222-0.384-0.332-0.577c-0.089-0.156-0.181-0.312-0.266-0.471
	c-0.105-0.195-0.204-0.395-0.304-0.593c-0.081-0.161-0.166-0.321-0.244-0.484c-0.097-0.202-0.187-0.409-0.279-0.615
	c-0.073-0.164-0.149-0.325-0.219-0.49c-0.088-0.209-0.167-0.421-0.25-0.633c-0.065-0.167-0.134-0.333-0.195-0.502
	c-0.077-0.212-0.146-0.428-0.218-0.643c-0.058-0.173-0.119-0.344-0.173-0.519c-0.068-0.219-0.127-0.441-0.189-0.663
	c-0.048-0.173-0.101-0.345-0.146-0.519c-0.058-0.228-0.107-0.458-0.159-0.688c-0.039-0.174-0.083-0.346-0.119-0.521
	c-0.048-0.233-0.086-0.471-0.127-0.707c-0.03-0.174-0.065-0.346-0.092-0.521c-0.038-0.247-0.065-0.498-0.095-0.747
	c-0.02-0.167-0.046-0.332-0.063-0.5c-0.027-0.272-0.044-0.547-0.063-0.821c-0.01-0.148-0.026-0.296-0.033-0.444
	c-0.021-0.425-0.032-0.852-0.032-1.281v-75.007v-22.67c0-36.238,29.424-65.721,65.591-65.721h16.707
	c-22.576-19.671-36.872-48.648-36.872-80.909c0-21.214,6.182-41.007,16.833-57.669c-4.05-1.904-8.475-2.906-13.027-2.906h-17.158
	c-4.618,2.84-9.546,5.066-14.67,6.663c-0.015,0.004-0.03,0.009-0.045,0.014c-0.934,0.29-1.876,0.557-2.822,0.804
	c-0.13,0.034-0.258,0.069-0.388,0.103c-0.972,0.248-1.948,0.478-2.932,0.68c-0.09,0.019-0.18,0.033-0.27,0.052
	c-0.865,0.174-1.734,0.328-2.606,0.467c-0.238,0.038-0.475,0.076-0.713,0.111c-0.959,0.143-1.922,0.27-2.889,0.369
	c-0.076,0.008-0.153,0.012-0.229,0.02c-0.904,0.09-1.812,0.156-2.722,0.208c-0.257,0.015-0.514,0.028-0.772,0.04
	c-0.988,0.045-1.978,0.075-2.971,0.075c-0.993,0-1.983-0.03-2.971-0.075c-0.258-0.012-0.514-0.025-0.771-0.04
	c-0.911-0.052-1.819-0.118-2.724-0.208c-0.075-0.008-0.151-0.012-0.226-0.02c-0.968-0.1-1.931-0.227-2.891-0.369
	c-0.237-0.035-0.474-0.073-0.71-0.11c-0.875-0.14-1.746-0.294-2.613-0.469c-0.087-0.018-0.176-0.032-0.263-0.051
	c-0.985-0.202-1.963-0.432-2.936-0.68c-0.127-0.033-0.254-0.067-0.381-0.101c-0.951-0.249-1.896-0.517-2.834-0.809
	c-0.012-0.003-0.024-0.007-0.036-0.01C95.901,125.915,90.973,123.688,86.354,120.848z M337.939,323.063h17.042v-12.757h-17.042
	V323.063z M371.886,432.509h-50.851v33.587h50.851V432.509z M371.886,389.474h-50.851v33.035h50.851V389.474z M371.886,361.757
	c0-3.123-2.541-5.664-5.664-5.664h-6.241c-2.761,0-5-2.238-5-5v-18.03h-17.042v18.03c0,2.762-2.239,5-5,5h-6.24
	c-3.123,0-5.664,2.541-5.664,5.664v17.717h50.851V361.757z M177.764,181.423c0,34.832,18.378,65.438,45.922,82.606
	c0.314,0.195,0.627,0.394,0.943,0.586c0.468,0.284,0.941,0.563,1.414,0.839c0.419,0.244,0.84,0.484,1.261,0.723
	c0.418,0.236,0.834,0.475,1.256,0.704c0.769,0.419,1.544,0.825,2.322,1.223c0.365,0.187,0.733,0.367,1.1,0.549
	c0.606,0.299,1.214,0.592,1.825,0.878c0.294,0.138,0.587,0.278,0.883,0.414c0.884,0.402,1.773,0.792,2.667,1.167
	c0.239,0.101,0.48,0.197,0.72,0.296c0.781,0.32,1.565,0.632,2.354,0.932c0.197,0.074,0.393,0.151,0.591,0.226
	c0.987,0.367,1.979,0.721,2.977,1.056c0.093,0.031,0.186,0.06,0.279,0.091c0.944,0.313,1.894,0.611,2.847,0.896
	c0.14,0.041,0.279,0.084,0.419,0.125c2.09,0.612,4.2,1.153,6.329,1.623c0.127,0.028,0.255,0.057,0.382,0.084
	c2.131,0.461,4.279,0.852,6.441,1.168c0.15,0.021,0.301,0.042,0.451,0.063c0.962,0.136,1.928,0.258,2.895,0.365
	c0.132,0.015,0.264,0.031,0.396,0.046c1.064,0.113,2.13,0.209,3.199,0.287c0.17,0.013,0.34,0.021,0.51,0.032
	c0.882,0.061,1.766,0.107,2.651,0.144c0.271,0.011,0.542,0.021,0.814,0.03c1.046,0.034,2.092,0.057,3.142,0.057
	s2.096-0.022,3.142-0.057c0.272-0.009,0.543-0.02,0.814-0.03c0.885-0.036,1.769-0.083,2.651-0.144c0.17-0.011,0.341-0.02,0.51-0.032
	c1.069-0.078,2.136-0.174,3.199-0.287c0.132-0.015,0.264-0.031,0.396-0.046c0.968-0.107,1.933-0.229,2.895-0.365
	c0.15-0.021,0.301-0.042,0.451-0.063c2.162-0.316,4.31-0.707,6.441-1.168c0.128-0.027,0.255-0.056,0.382-0.084
	c2.128-0.47,4.239-1.011,6.329-1.623c0.14-0.041,0.279-0.084,0.419-0.125c0.953-0.285,1.903-0.583,2.847-0.896
	c0.093-0.031,0.186-0.06,0.279-0.091c0.998-0.335,1.99-0.688,2.977-1.056c0.198-0.074,0.394-0.151,0.591-0.226
	c0.789-0.3,1.573-0.611,2.354-0.932c0.24-0.099,0.481-0.195,0.72-0.296c0.894-0.375,1.784-0.765,2.667-1.167
	c0.296-0.136,0.589-0.276,0.883-0.414c0.611-0.286,1.219-0.579,1.825-0.878c0.367-0.182,0.735-0.362,1.1-0.549
	c0.779-0.397,1.553-0.804,2.322-1.223c0.422-0.229,0.838-0.468,1.256-0.704c0.422-0.238,0.843-0.479,1.261-0.723
	c0.473-0.276,0.946-0.555,1.414-0.839c0.316-0.192,0.628-0.391,0.943-0.586c27.544-17.168,45.922-47.774,45.922-82.606
	c0-53.602-43.51-97.209-96.992-97.209S177.764,127.821,177.764,181.423z M103.927,117.938c0.05,0.016,0.1,0.032,0.151,0.048
	c1.642,0.51,3.317,0.942,5.019,1.299c0.164,0.034,0.329,0.065,0.494,0.099c0.682,0.136,1.368,0.259,2.059,0.369
	c0.173,0.027,0.345,0.059,0.519,0.084c0.815,0.123,1.635,0.229,2.461,0.314c0.161,0.017,0.323,0.028,0.484,0.044
	c0.681,0.064,1.365,0.116,2.053,0.156c0.231,0.014,0.462,0.027,0.693,0.037c0.837,0.038,1.678,0.064,2.524,0.064
	c0.846,0,1.687-0.026,2.524-0.064c0.231-0.01,0.462-0.023,0.693-0.037c0.687-0.04,1.371-0.092,2.052-0.156
	c0.162-0.016,0.324-0.027,0.485-0.044c0.825-0.086,1.645-0.191,2.459-0.313c0.175-0.026,0.348-0.058,0.523-0.085
	c0.688-0.11,1.373-0.233,2.053-0.369c0.166-0.032,0.333-0.064,0.499-0.1c1.701-0.355,3.375-0.788,5.014-1.297
	c0.052-0.017,0.105-0.033,0.157-0.05c22.383-7.029,38.668-28,38.668-52.71c0-30.452-24.73-55.227-55.127-55.227
	S65.256,34.774,65.256,65.227C65.256,89.938,81.543,110.909,103.927,117.938z M466.524,490h-3.813c-2.761,0-5,2.238-5,5s2.239,5,5,5
	h3.813c2.761,0,5-2.238,5-5S469.285,490,466.524,490z M445.551,490H105.827c-2.761,0-5,2.238-5,5s2.239,5,5,5h339.724
	c2.761,0,5-2.238,5-5S448.312,490,445.551,490z M88.667,490h-3.813c-2.761,0-5,2.238-5,5s2.239,5,5,5h3.813c2.761,0,5-2.238,5-5
	S91.428,490,88.667,490z M197.854,153.107c0-12.356,10.052-22.409,22.408-22.409s22.409,10.053,22.409,22.409
	c0,12.355-10.053,22.408-22.409,22.408S197.854,165.463,197.854,153.107z M207.854,153.107c0,6.842,5.566,12.408,12.408,12.408
	c6.842,0,12.409-5.566,12.409-12.408c0-6.843-5.566-12.409-12.409-12.409C213.42,140.698,207.854,146.265,207.854,153.107z
	 M282.299,153.107c0-12.356,10.053-22.409,22.409-22.409s22.408,10.053,22.408,22.409c0,12.355-10.052,22.408-22.408,22.408
	S282.299,165.463,282.299,153.107z M292.299,153.107c0,6.842,5.566,12.408,12.409,12.408c6.842,0,12.408-5.566,12.408-12.408
	c0-6.843-5.566-12.409-12.408-12.409C297.865,140.698,292.299,146.265,292.299,153.107z M241.121,201.732h42.728
	c13.792,0,25.013,11.221,25.013,25.013v1.907c0,7.602-6.185,13.786-13.786,13.786h-65.181c-7.602,0-13.786-6.185-13.786-13.786
	v-1.907C216.108,212.953,227.329,201.732,241.121,201.732z M283.849,211.732h-42.728c-8.278,0-15.013,6.734-15.013,15.013v1.907
	c0,2.088,1.698,3.786,3.786,3.786h65.181c2.088,0,3.786-1.698,3.786-3.786v-1.907C298.861,218.467,292.126,211.732,283.849,211.732z
	 M304.708,307.907H250c-2.761,0-5,2.238-5,5s2.239,5,5,5h54.708c2.761,0,5-2.238,5-5S307.469,307.907,304.708,307.907z
	 M230.751,307.907h-4.858c-2.761,0-5,2.238-5,5s2.239,5,5,5h4.858c2.761,0,5-2.238,5-5S233.513,307.907,230.751,307.907z
	 M309.708,335.664c0-2.762-2.239-5-5-5H250c-2.761,0-5,2.238-5,5s2.239,5,5,5h54.708
	C307.469,340.664,309.708,338.426,309.708,335.664z M230.751,330.664h-4.858c-2.761,0-5,2.238-5,5s2.239,5,5,5h4.858
	c2.761,0,5-2.238,5-5S233.513,330.664,230.751,330.664z M250,353.422c-2.761,0-5,2.238-5,5s2.239,5,5,5h44.69c2.761,0,5-2.238,5-5
	s-2.239-5-5-5H250z M230.751,353.422h-4.858c-2.761,0-5,2.238-5,5s2.239,5,5,5h4.858c2.761,0,5-2.238,5-5
	S233.513,353.422,230.751,353.422z"/>
</svg>
