<?xml version="1.0" encoding="utf-8"?>
<!-- Generator: Adobe Illustrator 23.0.0, SVG Export Plug-In . SVG Version: 6.00 Build 0)  -->
<svg version="1.1" id="Layer_1" xmlns="http://www.w3.org/2000/svg" xmlns:xlink="http://www.w3.org/1999/xlink" x="0px" y="0px"
	 viewBox="0 0 500 500" style="enable-background:new 0 0 500 500;" xml:space="preserve">
<style type="text/css">
	.st0{fill:#83E1E5;}
	.st1{fill:#AAB1BA;}
	.st2{fill:#FDDF7F;}
	.st3{fill:#ECF4F7;}
	.st4{fill:#1C1D21;}
</style>
<g>
	<g>
		<ellipse class="st2" cx="250" cy="275.842" rx="102.451" ry="102.62"/>
	</g>
</g>
<g>
	<g>
		<path class="st0" d="M337.218,362.097h-31.697c-15.998,10.353-35.058,16.365-55.521,16.365c-20.463,0-39.523-6.013-55.521-16.365
			h-31.697c-33.614,0-60.864,27.295-60.864,60.964V495H250h148.081v-71.939C398.082,389.392,370.832,362.097,337.218,362.097z"/>
	</g>
</g>
<g>
	<g>
		<rect x="101.919" y="458.933" class="st2" width="52.805" height="36.067"/>
	</g>
</g>
<g>
	<g>
		<rect x="345.277" y="458.933" class="st2" width="52.805" height="36.067"/>
	</g>
</g>
<g>
	<path class="st2" d="M295.179,36.414h-90.357V23.677C204.822,13.362,213.184,5,223.5,5h53.002c10.315,0,18.677,8.362,18.677,18.677
		V36.414z"/>
</g>
<g>
	<path class="st2" d="M204.822,67.865h90.357v12.736c0,10.315-8.362,18.677-18.677,18.677H223.5
		c-10.315,0-18.677-8.362-18.677-18.677V67.865z"/>
</g>
<g>
	<path class="st0" d="M303.498,67.865H196.503c-2.096,0-3.795-1.699-3.795-3.795V47.596c0-6.176,5.007-11.182,11.182-11.182h92.221
		c6.176,0,11.182,5.007,11.182,11.182V64.07C307.294,66.166,305.594,67.865,303.498,67.865z"/>
</g>
<g>
	<path class="st3" d="M358.446,121.793V86.887h21.904v34.906c4.725,1.064,8.257,5.278,8.257,10.325
		c0,5.85-4.742,10.592-10.592,10.592c-3.557,0-6.697-1.759-8.617-4.449c-1.921,2.69-5.061,4.449-8.618,4.449
		c-5.85,0-10.592-4.742-10.592-10.592C350.189,127.071,353.721,122.857,358.446,121.793z"/>
</g>
<g>
	<path class="st2" d="M358.446,86.887h21.904l15.115-45.847C401.319,23.284,388.094,5,369.398,5h0
		c-18.696,0-31.92,18.284-26.067,36.04L358.446,86.887z"/>
</g>
<g>
	<path class="st3" d="M119.651,121.793V86.887h21.904v34.906c4.725,1.064,8.257,5.278,8.257,10.325
		c0,5.85-4.742,10.592-10.592,10.592c-3.557,0-6.697-1.759-8.618-4.449c-1.921,2.69-5.061,4.449-8.618,4.449
		c-5.85,0-10.592-4.742-10.592-10.592C111.394,127.071,114.926,122.857,119.651,121.793z"/>
</g>
<g>
	<path class="st2" d="M119.651,86.887h21.904l15.115-45.847C162.523,23.284,149.299,5,130.603,5h0
		c-18.696,0-31.92,18.284-26.067,36.04L119.651,86.887z"/>
</g>
<g>
	<path class="st3" d="M271.996,308.246l17.818-17.818c2.608-2.608,2.608-6.837,0-9.445l-12.55-12.55
		c-2.608-2.608-6.837-2.608-9.445,0l-17.818,17.818l-17.818-17.818c-2.608-2.608-6.837-2.608-9.445,0l-12.55,12.55
		c-2.608,2.608-2.608,6.837,0,9.445l17.818,17.818l-17.818,17.817c-2.608,2.608-2.608,6.837,0,9.445l12.55,12.55
		c2.608,2.608,6.837,2.608,9.445,0l17.818-17.818l17.818,17.818c2.608,2.608,6.837,2.608,9.445,0l12.55-12.55
		c2.608-2.608,2.608-6.837,0-9.445L271.996,308.246z"/>
</g>
<path class="st4" d="M96.919,458.938v17.721c0,2.762,2.239,5,5,5s5-2.238,5-5v-12.726h42.805v12.726c0,2.762,2.239,5,5,5
	s5-2.238,5-5v-57.384c0-2.762-2.239-5-5-5s-5,2.238-5,5v34.658h-42.805v-30.872c0-30.858,25.06-55.964,55.863-55.964h30.24
	c7.066,4.435,14.582,7.987,22.396,10.646c0.075,0.025,0.149,0.052,0.224,0.077c0.729,0.246,1.461,0.484,2.196,0.715
	c0.287,0.091,0.575,0.177,0.863,0.265c0.999,0.305,2.003,0.595,3.011,0.87c0.555,0.151,1.11,0.305,1.669,0.447
	c0.494,0.127,0.99,0.245,1.487,0.364c0.622,0.15,1.246,0.294,1.872,0.433c0.426,0.095,0.852,0.19,1.279,0.28
	c1.022,0.213,2.048,0.415,3.08,0.6c0.237,0.042,0.475,0.077,0.712,0.118c0.88,0.151,1.764,0.291,2.652,0.42
	c0.333,0.049,0.667,0.096,1,0.142c0.922,0.125,1.848,0.239,2.778,0.341c0.193,0.021,0.386,0.047,0.579,0.066
	c1.114,0.116,2.233,0.213,3.357,0.294c0.274,0.021,0.55,0.035,0.824,0.053c0.879,0.057,1.761,0.104,2.646,0.139
	c0.318,0.013,0.635,0.026,0.953,0.036c1.13,0.035,2.262,0.06,3.4,0.06s2.271-0.024,3.4-0.06c0.318-0.01,0.636-0.023,0.953-0.036
	c0.885-0.035,1.767-0.082,2.646-0.139c0.275-0.018,0.55-0.032,0.825-0.053c1.123-0.081,2.243-0.178,3.356-0.294
	c0.194-0.02,0.387-0.045,0.581-0.066c0.929-0.102,1.854-0.216,2.776-0.341c0.334-0.046,0.668-0.093,1.002-0.142
	c0.886-0.129,1.768-0.269,2.647-0.42c0.239-0.04,0.479-0.076,0.717-0.119c1.031-0.184,2.056-0.385,3.077-0.599
	c0.429-0.09,0.856-0.186,1.284-0.28c0.624-0.139,1.246-0.282,1.865-0.432c0.498-0.119,0.996-0.238,1.492-0.365
	c0.552-0.142,1.1-0.293,1.649-0.442c1.017-0.277,2.029-0.57,3.037-0.877c0.284-0.087,0.569-0.172,0.852-0.262
	c0.737-0.231,1.471-0.471,2.203-0.718c0.07-0.023,0.14-0.048,0.21-0.072c7.817-2.659,15.337-6.213,22.406-10.649h30.239
	c30.804,0,55.864,25.105,55.864,55.964v30.872h-42.806v-34.658c0-2.762-2.238-5-5-5s-5,2.238-5,5v57.384c0,2.762,2.238,5,5,5
	s5-2.238,5-5v-12.726h42.806v12.726c0,2.762,2.238,5,5,5s5-2.238,5-5v-53.598c0-36.373-29.547-65.964-65.864-65.964h-16.836
	c22.696-19.747,37.07-48.851,37.07-81.255c0-59.342-48.202-107.619-107.451-107.619c-59.249,0-107.451,48.277-107.451,107.619
	c0,32.404,14.374,61.508,37.07,81.255h-16.836c-36.317,0-65.863,29.591-65.863,65.964v35.867c0,0.002,0,0.003,0,0.005
	S96.919,458.936,96.919,458.938z M152.549,275.842c0-53.827,43.716-97.619,97.451-97.619s97.451,43.792,97.451,97.619
	c0,43.592-28.672,80.598-68.115,93.098c-0.225,0.07-0.45,0.143-0.675,0.212c-0.613,0.189-1.229,0.374-1.847,0.552
	c-0.407,0.116-0.816,0.226-1.225,0.337c-0.798,0.218-1.6,0.426-2.406,0.623c-0.572,0.141-1.145,0.278-1.72,0.408
	c-0.416,0.094-0.833,0.185-1.252,0.273c-0.73,0.154-1.463,0.301-2.197,0.438c-0.248,0.047-0.494,0.099-0.742,0.143
	c-0.977,0.176-1.959,0.333-2.942,0.479c-0.295,0.044-0.591,0.084-0.887,0.125c-0.809,0.111-1.62,0.214-2.432,0.306
	c-0.24,0.027-0.479,0.058-0.719,0.083c-1.027,0.108-2.057,0.201-3.089,0.277c-0.212,0.016-0.425,0.026-0.637,0.04
	c-0.852,0.058-1.705,0.103-2.559,0.138c-0.285,0.012-0.57,0.023-0.855,0.032c-1.048,0.034-2.098,0.057-3.15,0.057
	s-2.102-0.022-3.15-0.057c-0.286-0.009-0.571-0.021-0.856-0.032c-0.854-0.035-1.707-0.08-2.558-0.138
	c-0.213-0.014-0.426-0.024-0.638-0.04c-1.032-0.076-2.061-0.169-3.088-0.277c-0.241-0.025-0.481-0.056-0.722-0.083
	c-0.812-0.092-1.621-0.194-2.429-0.306c-0.297-0.041-0.594-0.081-0.89-0.125c-0.983-0.146-1.963-0.303-2.94-0.478
	c-0.251-0.046-0.499-0.098-0.749-0.145c-0.732-0.138-1.461-0.283-2.189-0.437c-0.42-0.09-0.839-0.181-1.257-0.275
	c-0.572-0.129-1.141-0.266-1.71-0.405c-0.813-0.199-1.622-0.409-2.427-0.629c-0.403-0.109-0.807-0.218-1.209-0.333
	c-0.62-0.178-1.236-0.362-1.851-0.553c-0.224-0.068-0.447-0.14-0.671-0.211C181.223,356.441,152.549,319.435,152.549,275.842z
	 M305.293,238.99c-4.282,5.415-10.695,8.521-17.594,8.521s-13.311-3.105-17.594-8.52c-1.714-2.166-1.347-5.311,0.818-7.023
	s5.311-1.348,7.023,0.818c2.376,3.003,5.93,4.725,9.752,4.725s7.376-1.722,9.75-4.724c1.715-2.167,4.86-2.53,7.023-0.82
	C306.639,233.68,307.006,236.824,305.293,238.99z M212.302,247.511c-6.897,0-13.31-3.105-17.594-8.52
	c-1.713-2.166-1.346-5.311,0.819-7.023c2.165-1.713,5.311-1.347,7.023,0.818c2.375,3.003,5.929,4.725,9.751,4.725
	c3.822,0,7.376-1.722,9.751-4.724c1.713-2.166,4.858-2.531,7.023-0.82c2.166,1.714,2.533,4.857,0.819,7.023
	C225.613,244.405,219.2,247.511,212.302,247.511z M444.108,495c0,2.762-2.238,5-5,5H60.893c-2.761,0-5-2.238-5-5s2.239-5,5-5
	h378.216C441.87,490,444.108,492.238,444.108,495z M47.479,495c0,2.762-2.239,5-5,5h-3.813c-2.761,0-5-2.238-5-5s2.239-5,5-5h3.813
	C45.24,490,47.479,492.238,47.479,495z M466.336,495c0,2.762-2.238,5-5,5h-3.813c-2.762,0-5-2.238-5-5s2.238-5,5-5h3.813
	C464.098,490,466.336,492.238,466.336,495z M196.503,72.865h3.319v7.736c0,13.056,10.622,23.678,23.677,23.678h53.001
	c13.056,0,23.678-10.622,23.678-23.678v-7.736h3.319c4.85,0,8.796-3.946,8.796-8.796V47.596c0-7.516-5.158-13.832-12.115-15.644
	v-8.274C300.179,10.622,289.557,0,276.501,0H223.5c-13.056,0-23.677,10.622-23.677,23.678v8.274
	c-6.957,1.812-12.115,8.128-12.115,15.644v16.474C187.708,68.919,191.653,72.865,196.503,72.865z M290.179,80.602
	c0,7.542-6.136,13.678-13.678,13.678H223.5c-7.542,0-13.677-6.136-13.677-13.678v-7.736h80.356V80.602z M209.822,23.678
	c0-7.542,6.136-13.678,13.677-13.678h53.001c7.542,0,13.678,6.136,13.678,13.678v7.736h-80.356V23.678z M197.708,47.596
	c0-3.408,2.773-6.182,6.182-6.182h0.933h90.356h0.933c3.409,0,6.183,2.773,6.183,6.182v15.27h-7.115h-12.653v-4.771
	c0-2.762-2.238-5-5-5s-5,2.238-5,5v4.771H255v-4.771c0-2.762-2.238-5-5-5s-5,2.238-5,5v4.771h-17.525v-4.771c0-2.762-2.239-5-5-5
	s-5,2.238-5,5v4.771h-12.653h-7.115V47.596z M353.446,87.69v30.661c-5.009,2.643-8.257,7.851-8.257,13.766
	c0,8.598,6.994,15.592,15.591,15.592c3.099,0,6.093-0.933,8.618-2.61c2.525,1.678,5.519,2.61,8.617,2.61
	c8.598,0,15.592-6.994,15.592-15.592c0-5.915-3.249-11.123-8.258-13.766v-30.66l14.864-45.086
	c3.298-10.005,1.648-20.639-4.525-29.174C389.515,4.896,379.933,0,369.398,0c-10.535,0-20.118,4.896-26.292,13.432
	c-6.173,8.536-7.821,19.17-4.523,29.174L353.446,87.69z M378.016,137.709c-1.822,0-3.479-0.858-4.549-2.354
	c-0.938-1.313-2.453-2.094-4.068-2.094s-3.13,0.78-4.068,2.094c-1.069,1.496-2.728,2.354-4.55,2.354
	c-3.083,0-5.591-2.509-5.591-5.592c0-2.587,1.832-4.878,4.355-5.446c2.281-0.514,3.901-2.54,3.901-4.878V91.887h11.903v29.906
	c0,2.338,1.62,4.364,3.901,4.878c2.524,0.568,4.356,2.859,4.356,5.446C383.607,135.2,381.099,137.709,378.016,137.709z
	 M351.21,19.292C355.48,13.387,362.11,10,369.398,10c7.287,0,13.917,3.387,18.188,9.292c4.271,5.905,5.412,13.262,3.13,20.183
	l-13.982,42.412h-14.671l-13.981-42.412C345.799,32.554,346.939,25.197,351.21,19.292z M114.651,87.689v30.662
	c-5.009,2.643-8.257,7.851-8.257,13.766c0,8.598,6.995,15.592,15.592,15.592c3.099,0,6.092-0.933,8.618-2.61
	c2.525,1.678,5.519,2.61,8.617,2.61c8.597,0,15.592-6.994,15.592-15.592c0-5.915-3.249-11.123-8.257-13.766V87.689l14.863-45.084
	c3.298-10.005,1.649-20.639-4.524-29.174C150.72,4.896,141.137,0,130.603,0c-10.534,0-20.117,4.896-26.291,13.432
	c-6.174,8.535-7.823,19.169-4.524,29.174L114.651,87.689z M139.22,137.709c-1.822,0-3.48-0.858-4.548-2.354
	c-0.938-1.314-2.454-2.095-4.069-2.095c0,0,0,0,0,0c-1.615,0-3.13,0.78-4.069,2.094c-1.068,1.496-2.727,2.354-4.549,2.354
	c-3.083,0-5.592-2.509-5.592-5.592c0-2.587,1.832-4.878,4.356-5.446c2.281-0.514,3.901-2.54,3.901-4.878V91.887h11.904v29.906
	c0,2.338,1.62,4.364,3.901,4.878c2.524,0.568,4.356,2.859,4.356,5.446C144.812,135.2,142.304,137.709,139.22,137.709z
	 M112.415,19.292c4.271-5.905,10.9-9.292,18.188-9.292c7.288,0,13.917,3.387,18.188,9.292c4.271,5.904,5.412,13.261,3.13,20.183
	l-13.982,42.412h-14.671l-13.982-42.412C107.003,32.553,108.144,25.197,112.415,19.292z M125.603,189.275v-6.535h-6.534
	c-2.761,0-5-2.238-5-5s2.239-5,5-5h6.534v-6.534c0-2.762,2.239-5,5-5s5,2.238,5,5v6.534h6.535c2.761,0,5,2.238,5,5s-2.239,5-5,5
	h-6.535v6.535c0,2.762-2.239,5-5,5S125.603,192.037,125.603,189.275z M364.398,189.275v-6.535h-6.535c-2.762,0-5-2.238-5-5
	s2.238-5,5-5h6.535v-6.534c0-2.762,2.238-5,5-5s5,2.238,5,5v6.534h6.534c2.762,0,5,2.238,5,5s-2.238,5-5,5h-6.534v6.535
	c0,2.762-2.238,5-5,5S364.398,192.037,364.398,189.275z M218.897,265.2l-11.942,11.942c-4.721,4.721-4.721,12.403,0,17.124
	l13.979,13.979l-14.283,14.283c-2.206,2.205-3.42,5.139-3.42,8.258s1.215,6.053,3.42,8.258l12.55,12.55
	c2.206,2.206,5.138,3.421,8.258,3.421c3.12,0,6.053-1.215,8.258-3.421L250,337.312l13.979,13.979
	c2.36,2.359,5.461,3.539,8.563,3.539c3.101,0,6.201-1.18,8.562-3.539c0,0,0-0.001,0.001-0.001l11.94-11.942
	c4.722-4.721,4.722-12.403,0-17.124l-13.978-13.979l14.284-14.283c4.552-4.554,4.552-11.962-0.001-16.517l-12.551-12.549
	c-2.205-2.206-5.139-3.421-8.258-3.421s-6.053,1.215-8.258,3.421l-14.282,14.282l-13.979-13.979
	C231.301,260.48,223.619,260.479,218.897,265.2z M228.646,344.523c-0.428,0.428-0.927,0.491-1.187,0.491
	c-0.259,0-0.759-0.063-1.187-0.491l-12.55-12.55c-0.428-0.429-0.492-0.928-0.492-1.188s0.063-0.759,0.492-1.188l14.282-14.282
	l14.924,14.924L228.646,344.523z M271.354,271.967c0.429-0.428,0.928-0.491,1.188-0.491s0.759,0.063,1.188,0.492l12.55,12.549
	c0.654,0.654,0.654,1.721,0.001,2.375l-14.283,14.283l-14.925-14.925L271.354,271.967z M228.951,272.271l17.511,17.511
	c0.001,0.002,0.002,0.003,0.003,0.004s0.002,0.002,0.003,0.003l39.506,39.506c0.822,0.822,0.822,2.161-0.001,2.983l-11.94,11.941
	c-0.822,0.82-2.161,0.821-2.983,0.001l-17.51-17.51c-0.001-0.002-0.002-0.004-0.004-0.005s-0.003-0.002-0.005-0.004l-21.99-21.99
	c0,0,0-0.001-0.001-0.001s0,0-0.001-0.001l-17.513-17.513c-0.822-0.822-0.822-2.161,0-2.983l11.941-11.941
	c0.411-0.411,0.952-0.617,1.492-0.617S228.54,271.86,228.951,272.271z M193.921,217.307c-0.929-2.601,0.426-5.462,3.026-6.392
	l27.345-9.77c2.6-0.924,5.462,0.427,6.391,3.026c0.929,2.601-0.426,5.462-3.026,6.392l-27.345,9.77
	c-0.556,0.198-1.124,0.292-1.682,0.292C196.576,220.625,194.651,219.351,193.921,217.307z M269.317,204.172
	c0.929-2.601,3.789-3.952,6.392-3.026l27.345,9.77c2.6,0.93,3.955,3.791,3.026,6.392c-0.73,2.044-2.656,3.318-4.709,3.318
	c-0.559,0-1.126-0.094-1.683-0.292l-27.345-9.77C269.744,209.634,268.389,206.772,269.317,204.172z"/>
</svg>
