<?xml version="1.0" encoding="utf-8"?>
<!-- Generator: Adobe Illustrator 23.0.0, SVG Export Plug-In . SVG Version: 6.00 Build 0)  -->
<svg version="1.1" id="Layer_1" xmlns="http://www.w3.org/2000/svg" xmlns:xlink="http://www.w3.org/1999/xlink" x="0px" y="0px"
	 viewBox="0 0 500 500" style="enable-background:new 0 0 500 500;" xml:space="preserve">
<style type="text/css">
	.st0{fill:#83E1E5;}
	.st1{fill:#AAB1BA;}
	.st2{fill:#FDDF7F;}
	.st3{fill:#ECF4F7;}
	.st4{fill:#1C1D21;}
</style>
<g>
	<path class="st3" d="M454.181,70.451c-2.632-2.632-6.201-4.11-9.923-4.11H312.48c-3.722,0-7.291,1.479-9.923,4.11l-40.819,40.818
		l24.642,24.642l20.752-20.751v76.116c8.609,5.804,16.286,12.886,22.77,20.969h37.48h82.223V115.16l20.752,20.751L495,111.269
		L454.181,70.451z"/>
</g>
<g>
	<path class="st0" d="M197.443,70.451c-2.632-2.632-6.201-4.11-9.923-4.11H55.741c-3.722,0-7.291,1.479-9.923,4.11L5,111.269
		l24.642,24.642l20.752-20.751v97.085h60.251h59.453c6.484-8.083,14.161-15.165,22.77-20.969V115.16l20.752,20.751l24.642-24.642
		L197.443,70.451z"/>
</g>
<g>
	<path class="st0" d="M337.218,363.254h-32.53c-15.825,10.025-34.578,15.834-54.687,15.834s-38.862-5.809-54.687-15.834h-32.53
		c-33.614,0-60.864,27.295-60.864,60.963V495h296.163v-70.783C398.081,390.549,370.832,363.254,337.218,363.254z"/>
</g>
<g>
	<g>
		<rect x="101.919" y="444.975" class="st2" width="52.805" height="50.025"/>
	</g>
</g>
<g>
	<g>
		<rect x="345.276" y="444.975" class="st2" width="52.805" height="50.025"/>
	</g>
</g>
<g>
	<rect x="5" y="5" class="st1" width="490" height="30.911"/>
</g>
<g>
	<g>
		<ellipse class="st2" cx="250" cy="276.468" rx="102.451" ry="102.62"/>
	</g>
</g>
<g>
	<circle class="st3" cx="206.372" cy="267.988" r="17.988"/>
</g>
<g>
	<circle class="st3" cx="293.628" cy="267.988" r="17.988"/>
</g>
<path class="st4" d="M444.108,495c0,2.762-2.239,5-5,5H60.892c-2.761,0-5-2.238-5-5s2.239-5,5-5h378.216
	C441.869,490,444.108,492.238,444.108,495z M42.478,490h-3.813c-2.761,0-5,2.238-5,5s2.239,5,5,5h3.813c2.761,0,5-2.238,5-5
	S45.239,490,42.478,490z M461.335,490h-3.813c-2.761,0-5,2.238-5,5s2.239,5,5,5h3.813c2.761,0,5-2.238,5-5S464.097,490,461.335,490z
	 M115.864,312.197c-2.761,0-5,2.238-5,5v6.534h-6.535c-2.761,0-5,2.238-5,5s2.239,5,5,5h6.535v6.535c0,2.762,2.239,5,5,5
	s5-2.238,5-5v-6.535h6.534c2.761,0,5-2.238,5-5s-2.239-5-5-5h-6.534v-6.534C120.864,314.436,118.625,312.197,115.864,312.197z
	 M384.136,312.197c-2.761,0-5,2.238-5,5v6.534h-6.534c-2.761,0-5,2.238-5,5s2.239,5,5,5h6.534v6.535c0,2.762,2.239,5,5,5
	s5-2.238,5-5v-6.535h6.535c2.761,0,5-2.238,5-5s-2.239-5-5-5h-6.535v-6.534C389.136,314.436,386.897,312.197,384.136,312.197z
	 M55.741,71.341h33.841c2.761,0,5-2.238,5-5s-2.239-5-5-5H55.741c-5.084,0-9.863,1.979-13.458,5.575L1.464,107.734
	C0.527,108.672,0,109.943,0,111.27s0.527,2.598,1.464,3.535l24.642,24.642c1.953,1.954,5.118,1.954,7.071,0l12.216-12.216v85.015
	c0,2.762,2.239,5,5,5s5-2.238,5-5V115.16c0-2.022-1.218-3.846-3.086-4.619c-1.867-0.775-4.019-0.348-5.449,1.084L29.642,128.84
	l-17.571-17.57l37.283-37.283C51.06,72.28,53.329,71.341,55.741,71.341z M312.479,71.341h33.841c2.761,0,5-2.238,5-5s-2.239-5-5-5
	h-33.841c-5.084,0-9.863,1.979-13.458,5.575l-40.818,40.818c-0.938,0.938-1.464,2.209-1.464,3.535s0.527,2.598,1.464,3.535
	l24.642,24.642c1.953,1.954,5.118,1.954,7.071,0l12.216-12.216v44.636c0,2.762,2.239,5,5,5s5-2.238,5-5V115.16
	c0-2.022-1.218-3.846-3.086-4.619c-1.867-0.775-4.019-0.348-5.449,1.084L286.38,128.84l-17.571-17.57l37.283-37.283
	C307.798,72.28,310.067,71.341,312.479,71.341z M413.495,40.911v20.43h30.764c5.084,0,9.863,1.979,13.458,5.575l40.818,40.818
	c0.938,0.938,1.464,2.209,1.464,3.535s-0.527,2.598-1.464,3.535l-24.642,24.642c-1.953,1.954-5.118,1.954-7.071,0l-12.216-12.216
	v85.015c0,2.762-2.239,5-5,5s-5-2.238-5-5v-97.086c0-2.022,1.218-3.846,3.086-4.619c1.868-0.775,4.019-0.347,5.449,1.084
	l17.216,17.216l17.571-17.57l-37.283-37.283c-1.706-1.706-3.975-2.646-6.387-2.646H372.73c-2.413,0-4.681,0.939-6.387,2.646
	l-37.283,37.283l17.571,17.57l17.216-17.216c1.43-1.431,3.581-1.859,5.449-1.084c1.868,0.773,3.086,2.597,3.086,4.619v97.086
	c0,2.762-2.239,5-5,5s-5-2.238-5-5V127.23l-12.216,12.216c-0.938,0.938-2.209,1.465-3.536,1.465s-2.598-0.526-3.536-1.465
	l-24.642-24.642c-0.938-0.938-1.464-2.209-1.464-3.535s0.527-2.598,1.464-3.535l40.818-40.818c3.595-3.596,8.375-5.575,13.458-5.575
	h30.764v-20.43H156.756v20.43h30.764c5.084,0,9.864,1.979,13.458,5.575l40.819,40.818c0.938,0.938,1.464,2.209,1.464,3.535
	s-0.527,2.598-1.464,3.535l-24.642,24.642c-1.953,1.954-5.118,1.954-7.071,0l-12.216-12.216v44.104c0,2.762-2.239,5-5,5
	s-5-2.238-5-5v-56.175c0-2.022,1.218-3.846,3.086-4.619c1.868-0.775,4.02-0.347,5.449,1.084l17.216,17.216l17.571-17.57
	l-37.283-37.283c-1.706-1.706-3.974-2.646-6.387-2.646h-71.528c-2.413,0-4.681,0.939-6.387,2.646L72.322,111.27l17.571,17.57
	l17.216-17.216c1.43-1.431,3.581-1.859,5.449-1.084c1.868,0.773,3.086,2.597,3.086,4.619v97.086c0,2.762-2.239,5-5,5s-5-2.238-5-5
	V127.23l-12.216,12.216c-0.938,0.938-2.209,1.465-3.536,1.465s-2.598-0.526-3.536-1.465l-24.642-24.642
	c-0.938-0.938-1.464-2.209-1.464-3.535s0.527-2.598,1.464-3.535l40.818-40.818c3.595-3.596,8.375-5.575,13.458-5.575h30.764v-20.43
	H5c-2.761,0-5-2.238-5-5s2.239-5,5-5h141.756V10H5c-2.761,0-5-2.238-5-5s2.239-5,5-5h490c2.761,0,5,2.238,5,5s-2.239,5-5,5h-81.505
	v20.911H495c2.761,0,5,2.238,5,5s-2.239,5-5,5H413.495z M403.495,10H156.756v20.911h246.738V10z M96.919,424.217
	c0-36.372,29.546-65.963,65.863-65.963h17.459c-23.054-19.754-37.692-49.088-37.692-81.786c0-59.342,48.203-107.619,107.451-107.619
	s107.451,48.277,107.451,107.619c0,32.698-14.639,62.032-37.692,81.786h17.459c36.317,0,65.863,29.591,65.863,65.963v52.441
	c0,2.762-2.239,5-5,5s-5-2.238-5-5v-26.684h-42.805v26.684c0,2.762-2.239,5-5,5s-5-2.238-5-5v-71.342c0-2.762,2.239-5,5-5
	s5,2.238,5,5v34.658h42.805v-15.758c0-30.858-25.06-55.963-55.863-55.963h-31.099c-6.72,4.13-13.844,7.469-21.234,10.008
	c-0.325,0.112-0.651,0.222-0.977,0.331c-0.604,0.201-1.209,0.402-1.817,0.592c-0.687,0.216-1.379,0.421-2.072,0.624
	c-0.57,0.166-1.142,0.326-1.714,0.482c-0.7,0.192-1.402,0.378-2.108,0.556c-0.383,0.096-0.767,0.19-1.152,0.282
	c-0.816,0.196-1.636,0.382-2.459,0.559c-0.236,0.051-0.472,0.105-0.708,0.155c-1.081,0.225-2.168,0.432-3.26,0.624
	c-0.211,0.037-0.422,0.07-0.633,0.105c-0.914,0.155-1.833,0.298-2.755,0.43c-0.263,0.038-0.527,0.076-0.79,0.111
	c-1.082,0.146-2.169,0.281-3.261,0.394c-0.024,0.002-0.048,0.006-0.072,0.008c-1.125,0.116-2.255,0.211-3.39,0.292
	c-0.273,0.02-0.547,0.035-0.821,0.052c-0.865,0.055-1.733,0.1-2.604,0.134c-0.311,0.012-0.621,0.026-0.932,0.036
	c-1.116,0.034-2.234,0.058-3.358,0.058s-2.242-0.023-3.358-0.058c-0.311-0.01-0.621-0.023-0.932-0.036
	c-0.871-0.035-1.739-0.08-2.604-0.134c-0.274-0.018-0.548-0.033-0.821-0.052c-1.135-0.081-2.265-0.176-3.39-0.292
	c-0.024-0.002-0.048-0.006-0.072-0.008c-1.092-0.113-2.179-0.248-3.261-0.394c-0.264-0.036-0.527-0.074-0.79-0.111
	c-0.922-0.131-1.84-0.274-2.755-0.43c-0.211-0.036-0.423-0.068-0.633-0.105c-1.092-0.191-2.179-0.399-3.26-0.624
	c-0.237-0.049-0.472-0.104-0.708-0.155c-0.823-0.177-1.643-0.363-2.459-0.559c-0.384-0.092-0.768-0.186-1.152-0.282
	c-0.706-0.178-1.408-0.364-2.108-0.556c-0.573-0.156-1.144-0.317-1.714-0.482c-0.693-0.203-1.385-0.408-2.072-0.624
	c-0.608-0.19-1.212-0.391-1.817-0.592c-0.326-0.109-0.652-0.219-0.977-0.331c-7.391-2.539-14.514-5.878-21.234-10.008h-31.099
	c-30.803,0-55.863,25.104-55.863,55.963v15.758h42.805v-34.658c0-2.762,2.239-5,5-5s5,2.238,5,5v71.342c0,2.762-2.239,5-5,5
	s-5-2.238-5-5v-26.684h-42.805v26.684c0,2.762-2.239,5-5,5s-5-2.238-5-5V424.217z M218.401,368.817
	c0.159,0.055,0.317,0.112,0.476,0.166c0.57,0.193,1.144,0.378,1.719,0.561c0.411,0.13,0.823,0.257,1.235,0.381
	c0.481,0.146,0.962,0.293,1.447,0.432c0.859,0.245,1.721,0.479,2.587,0.7c0.341,0.087,0.684,0.167,1.026,0.251
	c0.688,0.167,1.376,0.329,2.068,0.482c0.308,0.068,0.617,0.137,0.926,0.202c0.985,0.208,1.973,0.405,2.965,0.582
	c0.057,0.01,0.115,0.019,0.172,0.029c0.963,0.17,1.929,0.322,2.898,0.463c0.247,0.036,0.495,0.07,0.743,0.104
	c0.891,0.123,1.783,0.233,2.678,0.332c0.147,0.016,0.294,0.035,0.442,0.051c1.035,0.109,2.072,0.199,3.112,0.275
	c0.22,0.016,0.441,0.027,0.662,0.042c0.829,0.055,1.66,0.098,2.492,0.132c0.281,0.011,0.562,0.023,0.844,0.032
	c1.034,0.033,2.069,0.055,3.107,0.055s2.073-0.022,3.107-0.055c0.282-0.009,0.563-0.021,0.844-0.032
	c0.832-0.034,1.663-0.077,2.492-0.132c0.22-0.015,0.442-0.026,0.662-0.042c1.04-0.076,2.078-0.166,3.112-0.275
	c0.148-0.016,0.294-0.035,0.442-0.051c0.895-0.098,1.788-0.209,2.678-0.332c0.248-0.034,0.496-0.069,0.743-0.104
	c0.969-0.141,1.935-0.293,2.898-0.463c0.057-0.01,0.115-0.019,0.172-0.029c0.992-0.177,1.98-0.374,2.965-0.582
	c0.309-0.065,0.618-0.134,0.926-0.202c0.691-0.153,1.38-0.314,2.068-0.482c0.342-0.084,0.686-0.164,1.026-0.251
	c0.866-0.221,1.728-0.455,2.587-0.7c0.484-0.139,0.965-0.286,1.447-0.432c0.412-0.125,0.824-0.251,1.235-0.381
	c0.575-0.183,1.149-0.367,1.719-0.561c0.159-0.054,0.317-0.111,0.476-0.166c38.272-13.177,65.852-49.596,65.852-92.349
	c0-53.827-43.716-97.619-97.451-97.619s-97.451,43.792-97.451,97.619C152.549,319.221,180.129,355.64,218.401,368.817z
	 M183.384,267.987c0-12.675,10.313-22.987,22.988-22.987s22.988,10.313,22.988,22.987c0,12.676-10.313,22.988-22.988,22.988
	S183.384,280.663,183.384,267.987z M193.384,267.987c0,7.162,5.826,12.988,12.988,12.988s12.988-5.826,12.988-12.988
	c0-7.161-5.826-12.987-12.988-12.987S193.384,260.826,193.384,267.987z M270.64,267.987c0-12.675,10.313-22.987,22.988-22.987
	s22.988,10.313,22.988,22.987c0,12.676-10.313,22.988-22.988,22.988S270.64,280.663,270.64,267.987z M280.64,267.987
	c0,7.162,5.826,12.988,12.988,12.988s12.988-5.826,12.988-12.988c0-7.161-5.826-12.987-12.988-12.987S280.64,260.826,280.64,267.987
	z M226.036,328.731c0,2.762,2.239,5,5,5h37.928c2.761,0,5-2.238,5-5s-2.239-5-5-5h-37.928
	C228.275,323.731,226.036,325.97,226.036,328.731z"/>
</svg>
