<?xml version="1.0" encoding="utf-8"?>
<!-- Generator: Adobe Illustrator 23.0.0, SVG Export Plug-In . SVG Version: 6.00 Build 0)  -->
<svg version="1.1" id="Layer_1" xmlns="http://www.w3.org/2000/svg" xmlns:xlink="http://www.w3.org/1999/xlink" x="0px" y="0px"
	 viewBox="0 0 500 500" style="enable-background:new 0 0 500 500;" xml:space="preserve">
<style type="text/css">
	.st0{fill:#83E1E5;}
	.st1{fill:#AAB1BA;}
	.st2{fill:#FDDF7F;}
	.st3{fill:#ECF4F7;}
	.st4{fill:#1C1D21;}
</style>
<g>
	<path class="st1" d="M244.726,69.075V5H214.84v88.688h35.6v64.723c0,2.585,3.622,3.178,4.446,0.727l30.275-90.063H244.726z"/>
</g>
<g>
	<path class="st0" d="M472.95,333.733c-0.521-6.625-3.658-12.77-8.719-17.076L317.554,191.81
		c-10.515-8.947-26.293-7.681-35.242,2.834c-3.292,3.868-5.196,8.449-5.771,13.139c36.858,9.875,65.52,39.818,73.607,77.429
		l62.572,53.259l-50.321,48.388c-4.213,4.051-9.83,6.314-15.674,6.314h-41.203c-15.998,10.354-35.058,16.365-55.522,16.365
		s-39.524-6.012-55.522-16.365h-41.203c-5.844,0-11.462-2.263-15.674-6.314l-50.321-48.388l62.572-53.259
		c8.087-37.611,36.749-67.554,73.607-77.429c-0.575-4.69-2.479-9.271-5.771-13.139c-8.949-10.515-24.727-11.781-35.242-2.834
		L35.77,316.657c-5.061,4.307-8.198,10.451-8.719,17.076c-0.521,6.625,1.617,13.186,5.941,18.23l92.128,107.484
		c1.906,2.223,2.953,5.055,2.953,7.984V495h243.853v-27.568c0-2.928,1.048-5.76,2.953-7.984l92.129-107.484
		C471.333,346.919,473.472,340.358,472.95,333.733z"/>
</g>
<g>
	<path class="st2" d="M368.004,234.752l-50.45-42.941c-10.515-8.947-26.293-7.681-35.242,2.834
		c-3.292,3.868-5.196,8.448-5.771,13.139c0.012,0.003,0.025,0.007,0.037,0.011c-8.477-2.274-17.384-3.495-26.577-3.495
		c-9.193,0-18.099,1.22-26.576,3.494c0.012-0.003,0.024-0.007,0.036-0.01c-0.575-4.69-2.479-9.271-5.771-13.139
		c-8.949-10.515-24.727-11.781-35.242-2.834l-50.45,42.941l25.675,27.637c-6.487,13.469-10.123,28.574-10.123,44.53
		c0,56.675,45.869,102.619,102.451,102.619c56.582,0,102.451-45.944,102.451-102.619c0-15.956-3.636-31.062-10.123-44.53
		L368.004,234.752z"/>
</g>
<g>
	<path class="st1" d="M94.905,29.677l64.895,64.895L133.75,120.62l47.359,47.359c1.892,1.892-0.325,4.976-2.721,3.785
		l-88.054-43.748l29.587-29.587L73.036,51.545L94.905,29.677z"/>
</g>
<g>
	<path class="st1" d="M405.096,29.677l-64.895,64.895l26.049,26.049l-47.359,47.359c-1.892,1.892,0.325,4.976,2.721,3.785
		l88.054-43.748L380.08,98.43l46.885-46.885L405.096,29.677z"/>
</g>
<g>
	<g>
		<path class="st3" d="M199.164,358.7c4.521,3.928,11.369,3.448,15.297-1.072c8.984-10.337,21.914-16.309,35.54-16.453
			c13.626,0.145,26.556,6.116,35.54,16.453c3.928,4.52,10.776,5,15.297,1.072c4.52-3.929,5-10.777,1.072-15.297
			c-13.105-15.079-32.001-23.769-51.908-23.914c-19.908,0.145-38.804,8.835-51.908,23.914
			C194.164,347.923,194.644,354.772,199.164,358.7z"/>
	</g>
</g>
<g>
	<circle class="st3" cx="206.373" cy="275.74" r="17.988"/>
</g>
<g>
	<circle class="st3" cx="293.628" cy="275.74" r="17.988"/>
</g>
<path class="st4" d="M391.786,215.834v-6.535h-6.535c-2.761,0-5-2.239-5-5s2.239-5,5-5h6.535v-6.535c0-2.761,2.239-5,5-5
	s5,2.239,5,5v6.535h6.535c2.761,0,5,2.239,5,5s-2.239,5-5,5h-6.535v6.535c0,2.761-2.239,5-5,5S391.786,218.595,391.786,215.834z
	 M103.215,220.834c2.761,0,5-2.239,5-5v-6.535h6.535c2.761,0,5-2.239,5-5s-2.239-5-5-5h-6.535v-6.535c0-2.761-2.239-5-5-5
	s-5,2.239-5,5v6.535h-6.535c-2.761,0-5,2.239-5,5s2.239,5,5,5h6.535v6.535C98.215,218.595,100.454,220.834,103.215,220.834z
	 M112.85,98.43l-26.051,26.051c-1.138,1.138-1.659,2.754-1.399,4.343s1.269,2.955,2.71,3.671l88.054,43.748
	c1.056,0.524,2.178,0.776,3.287,0.776c2.302,0,4.539-1.086,5.967-3.072c2.115-2.943,1.791-6.939-0.772-9.502l-43.823-43.824
	l22.514-22.513c0.938-0.938,1.464-2.209,1.464-3.536s-0.527-2.598-1.464-3.536L98.44,26.141c-1.953-1.952-5.118-1.952-7.071,0
	c-1.953,1.953-1.953,5.119,0,7.071l61.359,61.359l-22.514,22.513c-0.938,0.938-1.464,2.209-1.464,3.536s0.527,2.598,1.464,3.536
	l35.955,35.955l-67.381-33.477l24.668-24.668c1.953-1.953,1.953-5.119,0-7.071L76.572,48.009c-1.953-1.952-5.118-1.952-7.071,0
	c-1.953,1.953-1.953,5.119,0,7.071L112.85,98.43z M320.551,177.019c1.108,0,2.231-0.252,3.287-0.776l88.054-43.748
	c1.441-0.716,2.45-2.083,2.71-3.671s-0.261-3.205-1.399-4.343L387.151,98.43l43.35-43.35c1.953-1.953,1.953-5.119,0-7.071
	c-1.953-1.952-5.118-1.952-7.071,0l-46.885,46.885c-1.953,1.953-1.953,5.119,0,7.071l24.668,24.668l-67.381,33.477l35.955-35.955
	c0.938-0.938,1.464-2.209,1.464-3.536s-0.527-2.598-1.464-3.536l-22.514-22.513l61.359-61.359c1.953-1.953,1.953-5.119,0-7.071
	c-1.953-1.952-5.118-1.952-7.071,0l-64.895,64.895c-0.938,0.938-1.464,2.209-1.464,3.536s0.527,2.598,1.464,3.536l22.514,22.513
	l-43.823,43.824c-2.563,2.563-2.888,6.56-0.772,9.502C316.012,175.933,318.249,177.019,320.551,177.019z M214.84,98.688h30.6v59.723
	c0,3.585,2.568,6.608,6.106,7.187c0.401,0.065,0.801,0.098,1.195,0.098c3.085,0,5.871-1.95,6.884-4.964L289.9,70.669
	c0.513-1.526,0.26-3.205-0.679-4.512c-0.939-1.307-2.451-2.082-4.06-2.082h-35.435V5c0-2.761-2.239-5-5-5s-5,2.239-5,5v64.076
	c0,2.761,2.239,5,5,5h33.479l-22.766,67.722v-48.11c0-2.761-2.239-5-5-5h-30.6V5c0-2.761-2.239-5-5-5s-5,2.239-5,5v88.688
	C209.84,96.449,212.079,98.688,214.84,98.688z M346.725,398.173h-12.222c-2.761,0-5-2.239-5-5s2.239-5,5-5h12.222
	c4.575,0,8.911-1.747,12.208-4.917l46.338-44.558l-48.222-41.044c0.261,3.055,0.403,6.144,0.403,9.266
	c0,59.342-48.203,107.62-107.451,107.62s-107.451-48.278-107.451-107.62c0-3.122,0.141-6.21,0.403-9.266L94.73,338.698
	l46.338,44.558c3.297,3.171,7.633,4.917,12.208,4.917h13.041c2.761,0,5,2.239,5,5s-2.239,5-5,5h-13.041
	c-7.173,0-13.97-2.738-19.14-7.709l-50.321-48.388c-1.018-0.979-1.575-2.343-1.532-3.755c0.042-1.413,0.681-2.74,1.757-3.656
	l61.304-52.179c11.078-47.61,53.796-83.186,104.656-83.186s93.578,35.575,104.656,83.186l61.304,52.179
	c1.076,0.916,1.714,2.244,1.757,3.656c0.043,1.412-0.514,2.776-1.532,3.755l-50.321,48.388
	C360.695,395.435,353.897,398.173,346.725,398.173z M347.452,306.919c0-53.828-43.716-97.62-97.451-97.62
	s-97.451,43.792-97.451,97.62s43.716,97.62,97.451,97.62S347.452,360.747,347.452,306.919z M477.935,333.341
	c-0.621-7.892-4.434-15.361-10.462-20.492L320.794,188.002c-11.812-10.051-29.653-9.351-40.618,1.591
	c-1.955,1.951-1.958,5.117-0.007,7.071c1.952,1.955,5.117,1.957,7.071,0.007c7.307-7.293,19.198-7.754,27.073-1.054l46.473,39.556
	l-9.289,9.999c-1.879,2.023-1.763,5.187,0.26,7.066c0.963,0.895,2.184,1.337,3.402,1.337c1.341,0,2.679-0.537,3.664-1.597
	l9.585-10.318l92.582,78.803c4.019,3.42,6.561,8.399,6.975,13.661c0.414,5.261-1.318,10.577-4.753,14.584l-92.128,107.484
	c-2.681,3.128-4.157,7.119-4.157,11.238v9.227c0,2.761,2.239,5,5,5s5-2.239,5-5v-9.227c0-1.733,0.622-3.414,1.75-4.73
	l92.128-107.483C475.958,349.208,478.556,341.234,477.935,333.341z M123.074,467.432v9.227c0,2.761,2.239,5,5,5s5-2.239,5-5v-9.227
	c0-4.119-1.477-8.11-4.157-11.238L36.788,348.709c-3.435-4.006-5.167-9.322-4.753-14.584c0.414-5.261,2.956-10.24,6.975-13.661
	l92.582-78.803l9.586,10.318c0.985,1.06,2.323,1.597,3.664,1.597c1.218,0,2.439-0.442,3.402-1.337
	c2.023-1.879,2.139-5.043,0.26-7.066l-9.289-9.999l46.473-39.556c7.89-6.714,19.793-6.241,27.1,1.08
	c1.95,1.954,5.116,1.958,7.071,0.006c1.955-1.951,1.958-5.117,0.006-7.071c-10.965-10.985-28.824-11.702-40.658-1.631L32.529,312.85
	c-6.028,5.13-9.842,12.6-10.462,20.491c-0.622,7.893,1.977,15.867,7.129,21.877l92.128,107.484
	C122.453,464.018,123.074,465.698,123.074,467.432z M305.683,340.124c5.73,6.594,5.028,16.62-1.565,22.351
	c-2.994,2.602-6.697,3.877-10.383,3.878c-4.432,0-8.84-1.844-11.968-5.443c-8.013-9.22-19.589-14.588-31.766-14.733
	c-12.177,0.145-23.752,5.513-31.766,14.733c-5.73,6.594-15.756,7.296-22.351,1.566c0,0,0,0,0,0
	c-6.594-5.73-7.296-15.757-1.565-22.351c14.023-16.136,34.306-25.479,55.646-25.634
	C271.377,314.645,291.659,323.988,305.683,340.124z M298.135,346.683c-12.142-13.971-29.699-22.06-48.17-22.194
	c-18.399,0.134-35.957,8.223-48.098,22.194c-1.024,1.178-1.528,2.685-1.418,4.241c0.109,1.557,0.817,2.978,1.995,4.001
	c2.433,2.114,6.131,1.854,8.244-0.577c9.898-11.389,24.208-18.013,39.26-18.173c0.018,0,0.036,0,0.053,0s0.036,0,0.053,0
	c15.052,0.16,29.362,6.784,39.261,18.173c2.113,2.431,5.811,2.69,8.244,0.577c1.177-1.023,1.886-2.444,1.995-4.001
	C299.663,349.368,299.159,347.861,298.135,346.683z M206.373,298.728c-12.675,0-22.988-10.313-22.988-22.988
	s10.313-22.988,22.988-22.988s22.988,10.313,22.988,22.988S219.048,298.728,206.373,298.728z M206.373,288.728
	c7.162,0,12.988-5.826,12.988-12.988s-5.826-12.988-12.988-12.988s-12.988,5.826-12.988,12.988S199.211,288.728,206.373,288.728z
	 M316.616,275.74c0,12.675-10.313,22.988-22.988,22.988s-22.988-10.313-22.988-22.988s10.313-22.988,22.988-22.988
	S316.616,263.065,316.616,275.74z M306.616,275.74c0-7.162-5.826-12.988-12.988-12.988s-12.988,5.826-12.988,12.988
	s5.826,12.988,12.988,12.988S306.616,282.902,306.616,275.74z M157.104,490H76.96c-2.761,0-5,2.239-5,5s2.239,5,5,5h80.144
	c2.761,0,5-2.239,5-5S159.865,490,157.104,490z M59.801,490h-3.813c-2.761,0-5,2.239-5,5s2.239,5,5,5h3.813c2.761,0,5-2.239,5-5
	S62.562,490,59.801,490z M423.041,490h-80.144c-2.761,0-5,2.239-5,5s2.239,5,5,5h80.144c2.761,0,5-2.239,5-5
	S425.802,490,423.041,490z M444.014,490H440.2c-2.761,0-5,2.239-5,5s2.239,5,5,5h3.813c2.761,0,5-2.239,5-5S446.775,490,444.014,490
	z"/>
</svg>
