<?xml version="1.0" encoding="utf-8"?>
<!-- Generator: Adobe Illustrator 23.0.0, SVG Export Plug-In . SVG Version: 6.00 Build 0)  -->
<svg version="1.1" id="Layer_1" xmlns="http://www.w3.org/2000/svg" xmlns:xlink="http://www.w3.org/1999/xlink" x="0px" y="0px"
	 viewBox="0 0 500 500" style="enable-background:new 0 0 500 500;" xml:space="preserve">
<style type="text/css">
	.st0{fill:#83E1E5;}
	.st1{fill:#AAB1BA;}
	.st2{fill:#FDDF7F;}
	.st3{fill:#ECF4F7;}
	.st4{fill:#1C1D21;}
</style>
<path class="st2" d="M174.472,350.891v2.257h-14.93c-4.739,0-8.581,3.842-8.581,8.581v14.424c0,1.47,0.145,2.907,0.412,4.299
	c0.139,0.726,0.313,1.438,0.519,2.138c0.031,0.106,0.058,0.214,0.091,0.32c2.877,9.25,11.505,15.965,21.701,15.965h18.972l0,0h0h0
	l0,54.528h114.691l0-54.528h0h0l0,0h18.961c12.549,0,22.722-10.173,22.722-22.722v-13.63h0v-0.793c0-4.739-3.842-8.581-8.581-8.581
	h-14.919v-2.257c0-1.257-0.229-2.458-0.629-3.577c18.84-19.078,30.477-45.312,30.477-74.273c0-58.321-47.178-105.6-105.376-105.6
	s-105.376,47.279-105.376,105.6c0,28.961,11.637,55.195,30.477,74.273C174.701,348.434,174.472,349.634,174.472,350.891z"/>
<g>
	<path class="st3" d="M168.446,124.856l14.701,11.09c0,0-5.991,4.519-14.694,11.084c-38.762,29.239-91.92,29.245-130.682,0.006
		l-14.701-11.09c0,0,5.991-4.519,14.694-11.084C76.526,95.622,129.683,95.617,168.446,124.856z"/>
</g>
<g>
	<ellipse class="st1" cx="103.108" cy="135.886" rx="32.582" ry="32.957"/>
</g>
<g>
	<path class="st3" d="M462.23,124.856l14.701,11.09c0,0-5.991,4.519-14.694,11.084c-38.762,29.239-91.92,29.245-130.682,0.006
		l-14.701-11.09c0,0,5.991-4.519,14.694-11.084C370.31,95.622,423.467,95.617,462.23,124.856z"/>
</g>
<g>
	<ellipse class="st1" cx="396.892" cy="135.891" rx="30.721" ry="30.588"/>
</g>
<g>
	<path class="st3" d="M315.338,26.926l14.701,11.09c0,0-5.991,4.519-14.694,11.084c-38.762,29.239-91.92,29.245-130.682,0.006
		l-14.701-11.09c0,0,5.991-4.519,14.694-11.084C223.418-2.307,276.575-2.313,315.338,26.926z"/>
</g>
<g>
	<ellipse class="st1" cx="250" cy="37.957" rx="32.582" ry="32.957"/>
</g>
<g>
	<path class="st0" d="M349.029,362.522v13.63c0,12.549-10.173,22.722-22.722,22.722h-18.961l0,54.528H192.655l0-54.528h-18.972
		c-12.549,0-22.723-10.173-22.723-22.723v-13.628c-30.143,4.518-53.269,30.545-53.269,62.011V495h94.963h114.692h94.963v-70.465
		C402.31,393.065,379.178,367.037,349.029,362.522z"/>
</g>
<g>
	<circle class="st3" cx="206.352" cy="237.025" r="17.996"/>
</g>
<g>
	<circle class="st3" cx="293.649" cy="237.025" r="17.996"/>
</g>
<g>
	<g>
		<path class="st3" d="M199.139,317.142c4.523,3.93,11.375,3.45,15.304-1.072c8.988-10.342,21.925-16.316,35.557-16.461
			c13.632,0.145,26.569,6.119,35.557,16.461c3.93,4.522,10.781,5.002,15.304,1.072c4.522-3.93,5.002-10.782,1.072-15.304
			c-13.111-15.086-32.016-23.781-51.933-23.926c-19.917,0.145-38.822,8.84-51.933,23.926
			C194.137,306.359,194.617,313.211,199.139,317.142z"/>
	</g>
</g>
<path class="st4" d="M103.977,315.695v6.535h6.535c2.761,0,5,2.239,5,5s-2.239,5-5,5h-6.535v6.535c0,2.761-2.239,5-5,5s-5-2.239-5-5
	v-6.535h-6.535c-2.761,0-5-2.239-5-5s2.239-5,5-5h6.535v-6.535c0-2.761,2.239-5,5-5S103.977,312.934,103.977,315.695z
	 M401.024,310.295c-2.762,0-5,2.239-5,5v6.535h-6.534c-2.762,0-5,2.239-5,5s2.238,5,5,5h6.534v6.534c0,2.761,2.238,5,5,5
	s5-2.239,5-5v-6.534h6.534c2.762,0,5-2.239,5-5s-2.238-5-5-5h-6.534v-6.535C406.024,312.534,403.786,310.295,401.024,310.295z
	 M164.962,38.016c0-1.569,0.736-3.047,1.989-3.992l14.694-11.084C201.539,7.934,225.174,0.001,249.996,0c0.002,0,0.006,0,0.007,0
	c24.822,0,48.454,7.93,68.345,22.935l14.701,11.09c1.253,0.945,1.989,2.423,1.989,3.992s-0.736,3.047-1.989,3.992l-14.693,11.083
	c-19.894,15.006-43.529,22.939-68.352,22.94c-0.001,0-0.006,0-0.008,0c-24.822,0-48.453-7.93-68.345-22.935l-14.701-11.089
	C165.698,41.063,164.962,39.585,164.962,38.016z M248.017,65.834c1.323,0.025,2.646,0.025,3.97,0
	c14.285-1.036,25.596-13.139,25.596-27.877c0-14.231-10.547-26.004-24.134-27.731c-2.299-0.076-4.6-0.075-6.899,0
	c-13.585,1.728-24.132,13.5-24.132,27.73C222.418,52.696,233.731,64.799,248.017,65.834z M312.327,30.918
	c-10.067-7.593-21.232-13.089-32.889-16.517c5.092,6.478,8.145,14.661,8.145,23.556c0,8.964-3.1,17.207-8.264,23.708
	c11.703-3.426,22.912-8.936,33.016-16.557l9.401-7.092L312.327,30.918z M178.265,38.016l9.41,7.098
	c10.101,7.619,21.309,13.129,33.009,16.553c-5.165-6.502-8.265-14.745-8.265-23.71c0-8.894,3.052-17.077,8.144-23.554
	c-11.659,3.428-22.827,8.926-32.895,16.521L178.265,38.016z M103.105,173.961c-24.822,0.001-48.453-7.93-68.345-22.935
	l-14.701-11.089c-1.252-0.945-1.989-2.423-1.989-3.992s0.736-3.047,1.989-3.992l14.694-11.084
	c19.894-15.006,43.53-22.938,68.352-22.94c0.001,0,0.005,0,0.007,0c24.822,0,48.454,7.93,68.346,22.935l14.701,11.089
	c1.252,0.945,1.989,2.423,1.989,3.992s-0.736,3.047-1.989,3.992l-14.694,11.083c-19.894,15.006-43.529,22.939-68.351,22.94
	C103.111,173.961,103.106,173.961,103.105,173.961z M101.11,163.762c1.333,0.025,2.666,0.025,3.999,0
	c14.278-1.043,25.582-13.143,25.582-27.876c0-14.228-10.543-25.999-24.125-27.729c-2.305-0.076-4.612-0.076-6.917,0
	c-13.581,1.731-24.123,13.502-24.123,27.729C75.526,150.62,86.831,162.72,101.11,163.762z M165.435,128.848
	c-10.066-7.593-21.231-13.089-32.888-16.516c5.092,6.478,8.145,14.66,8.145,23.554c0,8.964-3.099,17.206-8.263,23.707
	c11.702-3.426,22.911-8.936,33.014-16.556l9.402-7.092L165.435,128.848z M40.782,143.043c10.101,7.619,21.308,13.128,33.009,16.553
	c-5.165-6.501-8.265-14.745-8.265-23.709c0-8.894,3.052-17.076,8.143-23.553c-11.659,3.428-22.826,8.925-32.894,16.52l-9.402,7.092
	L40.782,143.043z M481.932,135.945c0,1.569-0.736,3.047-1.989,3.992l-14.694,11.083c-19.894,15.006-43.529,22.939-68.352,22.94
	c-0.002,0-0.006,0-0.008,0c-24.821,0.001-48.453-7.93-68.344-22.935l-14.702-11.089c-1.253-0.945-1.989-2.423-1.989-3.992
	s0.736-3.047,1.989-3.992l14.694-11.084c19.894-15.006,43.529-22.938,68.352-22.94c0.001,0,0.005,0,0.007,0
	c24.822,0,48.454,7.93,68.345,22.935l14.702,11.089C481.195,132.898,481.932,134.376,481.932,135.945z M422.613,135.891
	c0-14.109-11.538-25.588-25.721-25.588s-25.721,11.479-25.721,25.588s11.538,25.588,25.721,25.588S422.613,150,422.613,135.891z
	 M334.566,143.043c11.141,8.404,23.628,14.24,36.639,17.54c-6.205-6.405-10.033-15.109-10.033-24.692
	c0-9.51,3.771-18.154,9.893-24.545c-12.962,3.308-25.402,9.132-36.506,17.508l-9.402,7.092L334.566,143.043z M468.629,135.945
	l-9.41-7.098c-11.101-8.374-23.539-14.197-36.499-17.504c6.122,6.391,9.894,15.036,9.894,24.547c0,9.582-3.828,18.286-10.031,24.69
	c13.012-3.302,25.501-9.139,36.645-17.544L468.629,135.945z M440.928,490h-3.814c-2.762,0-5,2.239-5,5s2.238,5,5,5h3.814
	c2.762,0,5-2.239,5-5S443.689,490,440.928,490z M419.945,490H80.056c-2.761,0-5,2.239-5,5s2.239,5,5,5h339.889c2.762,0,5-2.239,5-5
	S422.707,490,419.945,490z M62.888,490h-3.815c-2.761,0-5,2.239-5,5s2.239,5,5,5h3.815c2.761,0,5-2.239,5-5S65.649,490,62.888,490z
	 M97.691,484.536c2.761,0,5-2.239,5-5v-55.001c0-22.226,12.972-42.721,33.047-52.212c2.497-1.18,3.563-4.161,2.383-6.657
	c-1.18-2.496-4.16-3.564-6.657-2.383c-23.553,11.136-38.772,35.179-38.772,61.252v55.001
	C92.691,482.297,94.93,484.536,97.691,484.536z M312.346,403.875l0.001,49.524c0,0.001,0,0.002,0,0.003s0,0.002,0,0.003l0,26.13h-10
	v-21.133h-47.346v21.133c0,2.761-2.239,5-5,5s-5-2.239-5-5v-21.133h-47.346l0,21.133c0,2.761-2.239,5-5,5s-5-2.239-5-5v-75.661
	h-13.972c-15.286,0-27.722-12.437-27.722-27.723v-14.423c0-7.489,6.092-13.581,13.581-13.581h10.17
	c1.3-7.323,7.713-12.901,15.403-12.901h54.241c4.113,0,7.849,1.607,10.644,4.212c2.795-2.604,6.531-4.212,10.644-4.212h54.241
	c7.69,0,14.103,5.578,15.403,12.901h10.158c7.489,0,13.582,6.092,13.582,13.581v14.423c0,15.286-12.437,27.723-27.723,27.723
	H312.346z M255.001,350.892v42.983h52.345c0.002,0,0.003,0,0.005,0l18.956,0c9.772,0,17.723-7.95,17.723-17.723v-14.423
	c0-1.975-1.606-3.581-3.582-3.581h-9.918v13.784c0,2.761-2.238,5-5,5s-5-2.239-5-5v-18.784v-2.257c0-3.112-2.531-5.644-5.644-5.644
	h-54.241C257.532,345.248,255.001,347.779,255.001,350.892L255.001,350.892z M192.655,393.875H245v-42.983
	c0-3.112-2.532-5.644-5.644-5.644h-54.241c-3.112,0-5.644,2.532-5.644,5.644v2.257v18.784c0,2.761-2.239,5-5,5s-5-2.239-5-5v-13.784
	h-9.93c-1.975,0-3.581,1.606-3.581,3.581v14.423c0,9.772,7.95,17.723,17.722,17.723H192.655z M245,448.403v-44.528h-47.345l0,44.528
	H245z M302.347,448.403v-44.528h-47.346v44.528H302.347z M361.863,365.66c-1.18,2.497-0.112,5.477,2.385,6.657
	c20.084,9.489,33.062,29.986,33.062,52.219v55.001c0,2.761,2.238,5,5,5s5-2.239,5-5v-55.001c0-26.081-15.226-50.127-38.79-61.261
	C366.026,362.096,363.043,363.162,361.863,365.66z M249.964,272.912c21.423,0.156,41.714,9.503,55.744,25.646
	c5.732,6.596,5.03,16.626-1.566,22.358c-2.995,2.603-6.699,3.878-10.386,3.879c-4.434,0-8.843-1.844-11.973-5.445
	c-8.017-9.225-19.599-14.596-31.782-14.741c-12.184,0.145-23.766,5.516-31.783,14.741c-5.731,6.595-15.761,7.298-22.358,1.566
	c0,0,0,0,0,0c-3.195-2.777-5.118-6.632-5.414-10.855c-0.295-4.223,1.071-8.308,3.848-11.503
	C208.323,282.415,228.614,273.067,249.964,272.912z M249.964,282.912c-18.409,0.134-35.976,8.228-48.123,22.206
	c-2.115,2.434-1.856,6.135,0.577,8.25c2.435,2.115,6.136,1.856,8.251-0.577c9.902-11.395,24.219-18.021,39.278-18.181
	c0.018,0,0.036,0,0.053,0s0.036,0,0.053,0c15.059,0.16,29.375,6.787,39.278,18.181c2.115,2.434,5.816,2.692,8.251,0.577
	c2.434-2.115,2.692-5.816,0.577-8.25C286.013,291.14,268.446,283.046,249.964,282.912z M229.348,237.025
	c0,12.68-10.316,22.996-22.996,22.996s-22.997-10.316-22.997-22.996s10.316-22.997,22.997-22.997S229.348,224.345,229.348,237.025z
	 M219.348,237.025c0-7.167-5.83-12.997-12.996-12.997c-7.167,0-12.997,5.83-12.997,12.997c0,7.166,5.83,12.996,12.997,12.996
	C213.518,250.021,219.348,244.191,219.348,237.025z M293.649,260.021c-12.68,0-22.996-10.316-22.996-22.996
	s10.316-22.997,22.996-22.997s22.996,10.316,22.996,22.997S306.329,260.021,293.649,260.021z M293.649,250.021
	c7.166,0,12.996-5.83,12.996-12.996c0-7.167-5.83-12.997-12.996-12.997s-12.996,5.83-12.996,12.997
	C280.653,244.191,286.483,250.021,293.649,250.021z M250,162.44c-60.861,0-110.376,49.615-110.376,110.6
	c0,22.923,6.94,44.915,20.069,63.599c1.588,2.259,4.706,2.803,6.966,1.216c2.259-1.587,2.804-4.706,1.216-6.966
	c-11.94-16.991-18.251-36.994-18.251-57.849c0-55.471,45.028-100.6,100.376-100.6c55.348,0,100.376,45.129,100.376,100.6
	c0,20.853-6.312,40.857-18.251,57.849c-1.588,2.259-1.043,5.378,1.216,6.965c0.875,0.615,1.878,0.91,2.871,0.91
	c1.573,0,3.122-0.741,4.095-2.126c13.13-18.685,20.069-40.677,20.069-63.598C360.377,212.056,310.862,162.44,250,162.44z"/>
</svg>
