<?xml version="1.0" encoding="utf-8"?>
<!-- Generator: Adobe Illustrator 23.0.0, SVG Export Plug-In . SVG Version: 6.00 Build 0)  -->
<svg version="1.1" id="Layer_1" xmlns="http://www.w3.org/2000/svg" xmlns:xlink="http://www.w3.org/1999/xlink" x="0px" y="0px"
	 viewBox="0 0 500 500" style="enable-background:new 0 0 500 500;" xml:space="preserve">
<style type="text/css">
	.st0{fill:#83E1E5;}
	.st1{fill:#AAB1BA;}
	.st2{fill:#FDDF7F;}
	.st3{fill:#ECF4F7;}
	.st4{fill:#1C1D21;}
</style>
<g>
	<path class="st1" d="M286.144,151.287v-42.574c0-2.051-1.662-3.713-3.713-3.713h-42.574c-2.051,0-3.713-1.662-3.713-3.713V58.713
		c0-2.051-1.662-3.713-3.713-3.713h-42.574c-2.051,0-3.713-1.662-3.713-3.713V8.713c0-2.051-1.662-3.713-3.713-3.713H92.877v200
		h41.211c19.32-22.874,48.176-37.401,80.423-37.401s61.102,14.527,80.423,37.401h41.211v-46.287c0-2.051-1.662-3.713-3.713-3.713
		h-42.574C287.806,155,286.144,153.338,286.144,151.287z"/>
</g>
<g>
	<path class="st0" d="M313.491,362.586v13.624c0,12.543-10.168,22.711-22.711,22.711h-18.952l0,54.501H157.192l0-54.501H138.23
		c-12.543,0-22.712-10.168-22.712-22.712v-13.621c-30.129,4.516-53.244,30.53-53.244,61.981V495h94.917h114.636h94.917v-70.431
		C366.746,393.114,343.625,367.099,313.491,362.586z"/>
</g>
<path class="st2" d="M139.018,350.961v2.256h-14.923c-4.737,0-8.577,3.84-8.577,8.577v14.416c0,0.867,0.053,1.721,0.148,2.562
	c1.273,11.337,10.887,20.15,22.564,20.15h18.963l0,0h0l0,0l0,54.501h114.636l0-54.501l0,0h0l0,0h18.952
	c6.272,0,11.949-2.542,16.059-6.652c0.012-0.012,0.023-0.025,0.035-0.037c3.281-3.295,5.554-7.594,6.325-12.394
	c0.016-0.099,0.032-0.198,0.047-0.298c0.16-1.087,0.245-2.199,0.245-3.331v-13.624h0v-0.792c0-4.737-3.84-8.577-8.577-8.577h-14.911
	v-2.256c0-1.256-0.229-2.457-0.629-3.576c18.83-19.069,30.462-45.29,30.462-74.237c0-58.293-47.156-105.549-105.325-105.549
	c-58.169,0-105.325,47.256-105.325,105.549c0,28.947,11.632,55.168,30.462,74.237C139.247,348.504,139.018,349.705,139.018,350.961z
	"/>
<g>
	<circle class="st3" cx="170.882" cy="237.15" r="17.988"/>
</g>
<g>
	<circle class="st3" cx="258.138" cy="237.15" r="17.988"/>
</g>
<g>
	<g>
		<path class="st3" d="M163.674,317.228c4.521,3.928,11.369,3.448,15.297-1.072c8.984-10.337,21.914-16.309,35.54-16.453
			c13.626,0.145,26.556,6.116,35.54,16.453c3.928,4.52,10.776,5,15.297,1.072c4.52-3.929,5-10.777,1.072-15.297
			c-13.105-15.079-32.001-23.769-51.908-23.914c-19.908,0.145-38.804,8.835-51.908,23.914
			C158.674,306.451,159.154,313.299,163.674,317.228z"/>
	</g>
</g>
<g>
	<path class="st2" d="M473.522,105.745l-85.148,85.148c-3.604,3.604-9.471,4.031-13.3,0.667c-4.196-3.686-4.35-10.082-0.465-13.968
		l23.773-23.773c2.626-2.626,2.628-6.884,0.003-9.512l-18.134-18.156c-2.268-2.27-5.345-3.546-8.554-3.546l-51.563,0
		c-5.097,0-9.548-3.847-9.876-8.933c-0.36-5.573,4.053-10.205,9.549-10.206l52.279,0.056c4.782,0.005,8.66-3.87,8.66-8.651v-55.62
		c0-5.214,3.934-9.766,9.137-10.103c5.701-0.369,10.44,4.146,10.44,9.768v36.78c0,4.652,1.848,9.113,5.137,12.402l24.564,24.564
		c2.628,2.628,6.888,2.628,9.515,0l20.216-20.216c3.604-3.604,9.47-4.031,13.3-0.668
		C477.254,95.462,477.409,101.859,473.522,105.745z"/>
</g>
<g>
	<circle class="st2" cx="448.553" cy="166.155" r="25.061"/>
</g>
<path class="st4" d="M87.876,205V5c0-2.761,2.239-5,5-5h89.555c4.804,0,8.713,3.909,8.713,8.713V50h41.287
	c4.804,0,8.713,3.909,8.713,8.713V100h41.287c4.804,0,8.713,3.909,8.713,8.713V150h41.287c4.804,0,8.713,3.909,8.713,8.713V205
	c0,2.761-2.239,5-5,5s-5-2.239-5-5v-45h-41.287c-4.804,0-8.713-3.909-8.713-8.713V110h-41.287c-4.804,0-8.713-3.909-8.713-8.713V60
	h-41.287c-4.804,0-8.713-3.909-8.713-8.713V10H97.876v195c0,2.761-2.239,5-5,5S87.876,207.761,87.876,205z M51.752,332.229h6.534
	v6.535c0,2.761,2.239,5,5,5s5-2.239,5-5v-6.535h6.535c2.761,0,5-2.239,5-5s-2.239-5-5-5h-6.535v-6.535c0-2.761-2.239-5-5-5
	s-5,2.239-5,5v6.535h-6.534c-2.761,0-5,2.239-5,5S48.991,332.229,51.752,332.229z M365.334,310.295c-2.761,0-5,2.239-5,5v6.535
	H353.8c-2.761,0-5,2.239-5,5s2.239,5,5,5h6.534v6.534c0,2.761,2.239,5,5,5s5-2.239,5-5v-6.534h6.535c2.761,0,5-2.239,5-5
	s-2.239-5-5-5h-6.535v-6.535C370.334,312.534,368.095,310.295,365.334,310.295z M405.346,490h-3.813c-2.761,0-5,2.239-5,5
	s2.239,5,5,5h3.813c2.761,0,5-2.239,5-5S408.107,490,405.346,490z M384.373,490H44.648c-2.761,0-5,2.239-5,5s2.239,5,5,5h339.725
	c2.761,0,5-2.239,5-5S387.134,490,384.373,490z M27.488,490h-3.813c-2.761,0-5,2.239-5,5s2.239,5,5,5h3.813c2.761,0,5-2.239,5-5
	S30.25,490,27.488,490z M214.51,162.599c-60.833,0-110.325,49.592-110.325,110.549c0,22.913,6.937,44.895,20.06,63.569
	c0.973,1.385,2.522,2.125,4.095,2.125c0.993,0,1.996-0.295,2.871-0.91c2.259-1.587,2.804-4.706,1.216-6.966
	c-11.934-16.982-18.242-36.976-18.242-57.819c0-55.443,45.006-100.549,100.325-100.549s100.325,45.106,100.325,100.549
	c0,20.843-6.308,40.837-18.242,57.82c-1.588,2.259-1.043,5.378,1.216,6.965c2.26,1.589,5.378,1.043,6.965-1.216
	c13.124-18.675,20.06-40.657,20.06-63.569C324.835,212.191,275.344,162.599,214.51,162.599z M96.03,363.344
	c-23.543,11.131-38.755,35.163-38.755,61.225v52.089c0,2.761,2.239,5,5,5s5-2.239,5-5v-52.089c0-22.215,12.965-42.698,33.03-52.185
	c2.497-1.18,3.563-4.161,2.383-6.657C101.508,363.23,98.528,362.163,96.03,363.344z M290.779,403.921h-13.951l0,49.495
	c0,0.002,0.001,0.004,0.001,0.006s-0.001,0.004-0.001,0.006l0,23.229h-10v-18.235H219.51v18.235c0,2.761-2.239,5-5,5s-5-2.239-5-5
	v-18.235h-47.318l0,18.235c0,2.761-2.239,5-5,5s-5-2.239-5-5v-72.737H138.23c-15.28,0-27.711-12.431-27.711-27.711v-14.417
	c0-7.486,6.09-13.577,13.577-13.577h10.164c1.3-7.319,7.71-12.895,15.397-12.895h54.215c4.111,0,7.844,1.606,10.639,4.209
	c2.794-2.603,6.528-4.209,10.639-4.209h54.215c7.688,0,14.097,5.575,15.397,12.895h10.152c7.486,0,13.577,6.091,13.577,13.577
	v14.416C318.491,391.49,306.059,403.921,290.779,403.921z M209.51,403.921h-47.318l0,44.501h47.318V403.921z M209.51,350.961
	c0-3.109-2.529-5.639-5.639-5.639h-54.215c-3.109,0-5.639,2.529-5.639,5.639v2.256v18.775c0,2.761-2.239,5-5,5s-5-2.239-5-5v-13.775
	h-9.923c-1.972,0-3.577,1.604-3.577,3.577v14.417c0,9.766,7.945,17.711,17.711,17.711h18.962c0,0,0,0,0,0s0,0,0,0h52.317V350.961z
	 M266.828,403.921H219.51v44.501h47.318V403.921z M290.779,393.921c9.767,0,17.712-7.945,17.712-17.711v-14.416
	c0-1.973-1.604-3.577-3.577-3.577h-9.911v13.775c0,2.761-2.239,5-5,5s-5-2.239-5-5v-18.775v-2.256c0-3.109-2.529-5.639-5.639-5.639
	h-54.215c-3.109,0-5.639,2.529-5.639,5.639v42.96h52.317c0.002,0,0.003,0,0.005,0L290.779,393.921z M326.316,365.721
	c-1.18,2.497-0.112,5.477,2.385,6.657c20.073,9.484,33.044,29.97,33.044,52.191v52.089c0,2.761,2.239,5,5,5s5-2.239,5-5v-52.089
	c0-26.069-15.219-50.105-38.772-61.233C330.477,362.157,327.497,363.224,326.316,365.721z M214.474,273.017
	c21.414,0.156,41.696,9.499,55.719,25.634c5.73,6.594,5.027,16.62-1.565,22.351c-6.597,5.729-16.622,5.027-22.351-1.566
	c-8.013-9.22-19.589-14.588-31.766-14.732c-12.177,0.145-23.752,5.512-31.766,14.732c-3.128,3.599-7.537,5.443-11.969,5.443
	c-3.686,0-7.387-1.275-10.382-3.877c0,0,0,0-0.001-0.001c-6.593-5.731-7.295-15.757-1.565-22.351
	C172.852,282.516,193.134,273.172,214.474,273.017z M214.474,283.017c-18.398,0.134-35.956,8.224-48.098,22.194
	c-2.113,2.432-1.854,6.129,0.577,8.243c2.432,2.113,6.13,1.854,8.244-0.577c9.898-11.39,24.208-18.013,39.26-18.173
	c0.018,0,0.036,0,0.053,0s0.035,0,0.053,0c15.052,0.16,29.362,6.783,39.261,18.173c2.113,2.432,5.812,2.691,8.244,0.577
	c2.431-2.113,2.69-5.812,0.577-8.243C250.503,291.24,232.946,283.151,214.474,283.017z M193.87,237.149
	c0,12.675-10.313,22.988-22.988,22.988s-22.988-10.313-22.988-22.988s10.313-22.988,22.988-22.988S193.87,224.474,193.87,237.149z
	 M183.87,237.149c0-7.162-5.826-12.988-12.988-12.988s-12.988,5.826-12.988,12.988s5.826,12.988,12.988,12.988
	S183.87,244.311,183.87,237.149z M258.138,260.137c-12.675,0-22.988-10.313-22.988-22.988s10.313-22.988,22.988-22.988
	s22.988,10.313,22.988,22.988S270.813,260.137,258.138,260.137z M258.138,250.137c7.162,0,12.988-5.826,12.988-12.988
	s-5.826-12.988-12.988-12.988s-12.988,5.826-12.988,12.988S250.977,250.137,258.138,250.137z M469.81,144.899
	c11.72,11.721,11.72,30.792,0,42.512c-5.678,5.678-13.227,8.805-21.256,8.805s-15.578-3.127-21.256-8.805
	c-5.289-5.289-8.361-12.201-8.758-19.612l-26.63,26.629c-2.939,2.939-6.807,4.431-10.647,4.431c-3.405,0-6.788-1.171-9.488-3.543
	c-3.022-2.655-4.83-6.477-4.959-10.486c-0.13-4.01,1.423-7.938,4.259-10.774l23.772-23.773c0.674-0.673,0.674-1.77,0.001-2.444
	l-18.134-18.156c-1.32-1.322-3.148-2.08-5.016-2.08l-51.563,0c-7.843,0-14.373-5.979-14.866-13.611
	c-0.259-4.014,1.165-7.995,3.907-10.92c2.744-2.928,6.619-4.607,10.631-4.607l52.285,0.055c0.001,0,0.003,0,0.004,0
	c0.975,0,1.891-0.379,2.581-1.068c0.69-0.69,1.071-1.607,1.071-2.583V39.25c0-7.962,6.068-14.591,13.814-15.093
	c4.077-0.26,8.116,1.182,11.087,3.966c2.972,2.786,4.677,6.719,4.677,10.792v36.78c0,3.35,1.304,6.499,3.673,8.867l24.564,24.564
	c0.44,0.44,0.955,0.506,1.222,0.506c0.267,0,0.781-0.066,1.222-0.506l20.216-20.216c5.545-5.545,14.39-5.935,20.135-0.889
	c3.023,2.655,4.832,6.477,4.961,10.486c0.13,4.011-1.422,7.938-4.259,10.775l-26.876,26.876
	C457.328,136.541,464.362,139.453,469.81,144.899z M469.987,102.209c0.903-0.903,1.377-2.104,1.336-3.381
	c-0.041-1.275-0.597-2.446-1.565-3.296c-1.768-1.553-4.667-1.351-6.465,0.447l-20.216,20.216c-2.215,2.215-5.161,3.435-8.293,3.435
	c-3.133,0-6.078-1.22-8.293-3.435l-24.564-24.564c-4.257-4.257-6.602-9.917-6.602-15.938v-36.78c0-1.338-0.538-2.58-1.516-3.496
	c-0.975-0.915-2.253-1.374-3.602-1.283c-2.459,0.159-4.46,2.453-4.46,5.114v55.62c0,3.649-1.422,7.079-4.004,9.658
	c-2.578,2.575-6.003,3.993-9.646,3.993c-0.005,0-0.011,0-0.016,0l-52.279-0.055c-1.271,0-2.456,0.514-3.33,1.446
	c-0.872,0.931-1.307,2.151-1.224,3.437c0.151,2.347,2.344,4.256,4.887,4.256l51.563,0c4.569,0,8.863,1.78,12.091,5.013
	l18.134,18.156c4.567,4.573,4.565,12.011-0.005,16.582l-23.772,23.772c-0.903,0.902-1.377,2.103-1.336,3.38
	c0.041,1.275,0.597,2.446,1.565,3.296c1.768,1.553,4.667,1.352,6.464-0.446L469.987,102.209z M462.738,151.97
	c-3.911-3.911-9.048-5.866-14.185-5.866s-10.274,1.956-14.185,5.866c-3.789,3.789-5.876,8.827-5.876,14.185
	s2.087,10.396,5.876,14.185s8.826,5.876,14.185,5.876s10.396-2.087,14.185-5.876C470.56,172.519,470.56,159.792,462.738,151.97z
	 M326.579,81.916c2.761,0,5-2.239,5-5V26.05c0-2.761-2.239-5-5-5s-5,2.239-5,5v50.866C321.579,79.677,323.817,81.916,326.579,81.916
	z M351.646,81.916c2.761,0,5-2.239,5-5V26.05c0-2.761-2.239-5-5-5s-5,2.239-5,5v50.866
	C346.646,79.677,348.885,81.916,351.646,81.916z M326.579,14.05c2.761,0,5-2.239,5-5V5.07c0-2.761-2.239-5-5-5s-5,2.239-5,5v3.98
	C321.579,11.812,323.817,14.05,326.579,14.05z M351.646,14.05c2.761,0,5-2.239,5-5V5.07c0-2.761-2.239-5-5-5s-5,2.239-5,5v3.98
	C346.646,11.812,348.885,14.05,351.646,14.05z"/>
</svg>
