<?xml version="1.0" encoding="utf-8"?>
<!-- Generator: Adobe Illustrator 23.0.0, SVG Export Plug-In . SVG Version: 6.00 Build 0)  -->
<svg version="1.1" id="Layer_1" xmlns="http://www.w3.org/2000/svg" xmlns:xlink="http://www.w3.org/1999/xlink" x="0px" y="0px"
	 viewBox="0 0 500 500" style="enable-background:new 0 0 500 500;" xml:space="preserve">
<style type="text/css">
	.st0{fill:#83E1E5;}
	.st1{fill:#AAB1BA;}
	.st2{fill:#FDDF7F;}
	.st3{fill:#ECF4F7;}
	.st4{fill:#1C1D21;}
</style>
<path class="st2" d="M409.992,25.077H292.711c2.994,5.473,4.699,11.747,4.699,18.413v40.226h2.842c5.523,0,10,4.477,10,10v92.856
	c-17.073-11.955-37.843-18.973-60.252-18.973c-58.169,0-105.325,47.256-105.325,105.549c0,28.947,11.632,55.168,30.462,74.237
	c-0.4,1.119-0.629,2.319-0.629,3.576v2.256h-14.923c-4.737,0-8.577,3.84-8.577,8.577v14.416c0,3.273,0.698,6.381,1.944,9.192
	c3.53,7.962,11.497,13.519,20.768,13.519h11.427h2.714h4.822h0h0l0,54.501h114.636l0-54.501h0h0h4.811h2.725h11.416
	c2.898,0,5.667-0.549,8.216-1.539c8.481-3.293,14.496-11.528,14.496-21.173v-13.624h0v-0.792c0-4.737-3.84-8.577-8.577-8.577
	h-14.911v-2.256c0-1.256-0.229-2.457-0.629-3.576c18.83-19.069,30.462-45.29,30.462-74.237c0-17.313-4.16-33.653-11.533-48.071h66.2
	c2.761,0,5-2.238,5-5v-190C414.992,27.316,412.754,25.077,409.992,25.077z"/>
<g>
	<path class="st0" d="M297.41,45.077v38.639h2.842c5.523,0,10,4.477,10,10v12.176h84.74V45.077H297.41z"/>
</g>
<g>
	<path class="st1" d="M250.001,167.599c22.408,0,43.178,7.018,60.251,18.973V93.716c0-5.523-4.477-10-10-10H199.749
		c-5.523,0-10,4.477-10,10v92.856C206.822,174.617,227.592,167.599,250.001,167.599z"/>
</g>
<g>
	<g>
		<path class="st3" d="M224.606,83.716V43.49c0-9.084,7.391-16.475,16.475-16.475h17.839c9.084,0,16.475,7.391,16.475,16.475v40.226
			h22.015V43.49C297.41,22.267,280.143,5,258.92,5h-17.839c-21.223,0-38.49,17.267-38.49,38.49v40.226H224.606z"/>
	</g>
</g>
<g>
	<path class="st3" d="M250,105.892L250,105.892c-7.738,0-14.011,6.311-14.011,14.096l0,0c0,7.785,6.273,14.096,14.011,14.096l0,0
		c7.738,0,14.011-6.311,14.011-14.096l0,0C264.011,112.203,257.738,105.892,250,105.892z"/>
</g>
<g>
	<path class="st0" d="M348.981,362.586v13.624c0,12.543-10.168,22.711-22.711,22.711h-18.952l0,54.501H192.683l0-54.501H173.72
		c-12.543,0-22.712-10.168-22.712-22.712v-13.621c-30.129,4.516-53.244,30.53-53.244,61.981V495h94.917h114.636h94.917v-70.431
		C402.236,393.114,379.115,367.099,348.981,362.586z"/>
</g>
<g>
	<circle class="st3" cx="206.373" cy="237.15" r="17.988"/>
</g>
<g>
	<circle class="st3" cx="293.628" cy="237.15" r="17.988"/>
</g>
<g>
	<g>
		<path class="st3" d="M199.164,317.228c4.521,3.928,11.369,3.448,15.297-1.072c8.984-10.337,21.914-16.309,35.54-16.453
			c13.626,0.145,26.556,6.116,35.54,16.453c3.928,4.52,10.776,5,15.297,1.072c4.52-3.929,5-10.777,1.072-15.297
			c-13.105-15.079-32.001-23.769-51.908-23.914c-19.908,0.145-38.804,8.835-51.908,23.914
			C194.164,306.451,194.644,313.299,199.164,317.228z"/>
	</g>
</g>
<path class="st4" d="M389.992,100.878V50.066l-75.035-0.167c-2.761-0.006-4.995-2.25-4.989-5.011c0.006-2.757,2.244-4.989,5-4.989
	c0.004,0,0.008,0,0.012,0l80.024,0.179c2.757,0.006,4.989,2.243,4.989,5v60.814c0,1.329-0.529,2.602-1.469,3.54
	c-0.938,0.935-2.207,1.46-3.531,1.46c-0.004,0-0.009,0-0.013,0l-67.375-0.179c-2.762-0.007-4.994-2.252-4.987-5.013
	c0.007-2.757,2.245-4.987,5-4.987c0.005,0,0.009,0,0.014,0L389.992,100.878z M87.442,332.229h6.535v6.535c0,2.761,2.239,5,5,5
	s5-2.239,5-5v-6.535h6.535c2.761,0,5-2.239,5-5s-2.239-5-5-5h-6.535v-6.535c0-2.761-2.239-5-5-5s-5,2.239-5,5v6.535h-6.535
	c-2.761,0-5,2.239-5,5S84.681,332.229,87.442,332.229z M417.559,326.83c0-2.761-2.239-5-5-5h-6.535v-6.535c0-2.761-2.239-5-5-5
	s-5,2.239-5,5v6.535h-6.535c-2.761,0-5,2.239-5,5s2.239,5,5,5h6.535v6.534c0,2.761,2.239,5,5,5s5-2.239,5-5v-6.534h6.535
	C415.32,331.83,417.559,329.591,417.559,326.83z M184.749,167.689V93.716c0-7.537,5.593-13.775,12.842-14.827V43.49
	c0-23.98,19.51-43.49,43.49-43.49h17.838c23.98,0,43.49,19.51,43.49,43.49v35.399c7.249,1.052,12.842,7.291,12.842,14.827v73.974
	c0,2.761-2.239,5-5,5s-5-2.239-5-5V93.716c0-2.757-2.243-5-5-5h-2.842h-22.015h-50.789h-22.015h-2.842c-2.757,0-5,2.243-5,5v73.974
	c0,2.761-2.239,5-5,5S184.749,170.451,184.749,167.689z M270.395,43.49c0-6.328-5.148-11.475-11.475-11.475h-17.838
	c-6.328,0-11.475,5.147-11.475,11.475v35.226h40.789V43.49z M207.591,78.716h12.015V43.49c0-11.841,9.634-21.475,21.475-21.475
	h17.838c11.841,0,21.475,9.634,21.475,21.475v35.226h12.015V43.49c0-18.467-15.023-33.49-33.49-33.49h-17.838
	c-18.467,0-33.49,15.023-33.49,33.49V78.716z M245,146.999v-8.607c-8.061-2.213-14.011-9.614-14.011-18.404
	c0-10.53,8.528-19.096,19.011-19.096s19.011,8.566,19.011,19.096c0,8.79-5.95,16.19-14.011,18.404v8.607c0,2.761-2.239,5-5,5
	S245,149.76,245,146.999z M250,129.084c4.969,0,9.011-4.081,9.011-9.096s-4.042-9.096-9.011-9.096s-9.011,4.081-9.011,9.096
	S245.032,129.084,250,129.084z M313.011,30.077h96.981v190h-45.99c-2.761,0-5,2.239-5,5s2.239,5,5,5h45.99c5.514,0,10-4.486,10-10
	v-190c0-5.514-4.486-10-10-10h-96.981c-2.761,0-5,2.239-5,5S310.25,30.077,313.011,30.077z M440.836,490h-3.813
	c-2.761,0-5,2.239-5,5s2.239,5,5,5h3.813c2.761,0,5-2.239,5-5S443.597,490,440.836,490z M419.863,490H80.138c-2.761,0-5,2.239-5,5
	s2.239,5,5,5h339.725c2.761,0,5-2.239,5-5S422.624,490,419.863,490z M62.979,490h-3.813c-2.761,0-5,2.239-5,5s2.239,5,5,5h3.813
	c2.761,0,5-2.239,5-5S65.74,490,62.979,490z M166.701,337.933c2.259-1.587,2.804-4.706,1.216-6.966
	c-11.934-16.982-18.242-36.976-18.242-57.819c0-55.443,45.006-100.549,100.325-100.549s100.325,45.106,100.325,100.549
	c0,20.844-6.308,40.837-18.242,57.819c-1.588,2.26-1.043,5.378,1.216,6.966c0.875,0.615,1.877,0.91,2.871,0.91
	c1.573,0,3.122-0.741,4.095-2.125c13.124-18.675,20.06-40.657,20.06-63.569c0-60.957-49.492-110.549-110.325-110.549
	s-110.325,49.592-110.325,110.549c0,22.913,6.937,44.895,20.06,63.569C161.323,338.977,164.441,339.52,166.701,337.933z
	 M92.765,424.569v52.089c0,2.761,2.239,5,5,5s5-2.239,5-5v-52.089c0-22.215,12.965-42.698,33.03-52.185
	c2.497-1.18,3.563-4.161,2.383-6.657c-1.179-2.497-4.16-3.564-6.657-2.383C107.978,374.475,92.765,398.507,92.765,424.569z
	 M312.318,403.921l0,49.5c0,0,0,0.001,0,0.001s0,0.001,0,0.001l0,23.234h-10v-18.235H255v18.235c0,2.761-2.239,5-5,5s-5-2.239-5-5
	v-18.235h-47.318l0,18.235c0,2.761-2.239,5-5,5s-5-2.239-5-5v-23.23c0-0.002,0-0.003,0-0.005s0-0.003,0-0.005v-49.497H173.72
	c-15.28,0-27.711-12.431-27.711-27.711v-14.416c0-7.486,6.091-13.577,13.577-13.577h10.164c1.3-7.319,7.71-12.895,15.397-12.895
	h54.215c4.111,0,7.844,1.606,10.639,4.209c2.794-2.603,6.528-4.209,10.639-4.209h54.215c7.688,0,14.097,5.575,15.397,12.895h10.152
	c7.486,0,13.577,6.091,13.577,13.577v14.416c0,15.28-12.431,27.711-27.711,27.711H312.318z M255,350.961v42.96h52.317
	c0.002,0,0.003,0,0.005,0l18.947,0c9.766,0,17.711-7.945,17.711-17.711v-14.416c0-1.973-1.604-3.577-3.577-3.577h-9.911v13.775
	c0,2.761-2.239,5-5,5s-5-2.239-5-5v-18.775v-2.256c0-3.109-2.529-5.639-5.639-5.639h-54.215C257.53,345.322,255,347.852,255,350.961
	z M192.683,393.921H245v-42.96c0-3.109-2.529-5.639-5.639-5.639h-54.215c-3.109,0-5.639,2.529-5.639,5.639v2.256v18.775
	c0,2.761-2.239,5-5,5s-5-2.239-5-5v-13.775h-9.922c-1.973,0-3.577,1.604-3.577,3.577v14.416c0,9.766,7.945,17.711,17.711,17.711
	H192.683z M245,448.423v-44.501h-47.317l0,44.501H245z M302.319,448.423v-44.501H255v44.501H302.319z M402.236,481.658
	c2.761,0,5-2.239,5-5v-52.089c0-26.069-15.219-50.105-38.772-61.233c-2.496-1.179-5.477-0.112-6.657,2.385
	c-1.18,2.497-0.112,5.477,2.385,6.657c20.073,9.484,33.044,29.97,33.044,52.191v52.089
	C397.236,479.419,399.475,481.658,402.236,481.658z M249.964,273.017c21.413,0.156,41.695,9.499,55.719,25.634
	c5.73,6.594,5.027,16.62-1.565,22.351c-6.596,5.73-16.623,5.027-22.351-1.566c-8.013-9.22-19.589-14.588-31.766-14.732
	c-12.177,0.145-23.753,5.512-31.766,14.732c-3.128,3.599-7.537,5.443-11.968,5.443c-3.686,0-7.387-1.275-10.382-3.876
	c0,0,0,0-0.001,0c-6.593-5.731-7.295-15.757-1.565-22.351C208.342,282.516,228.624,273.172,249.964,273.017z M249.964,283.017
	c-18.399,0.134-35.957,8.224-48.098,22.194c-2.113,2.432-1.854,6.129,0.577,8.243c2.433,2.114,6.13,1.854,8.244-0.577
	c9.898-11.39,24.208-18.013,39.261-18.173c0.018,0,0.036,0,0.053,0s0.035,0,0.053,0c15.052,0.16,29.362,6.783,39.26,18.173
	c2.113,2.432,5.812,2.69,8.244,0.577c2.431-2.113,2.69-5.812,0.577-8.243C285.994,291.24,268.436,283.151,249.964,283.017z
	 M229.36,237.149c0,12.675-10.313,22.988-22.988,22.988s-22.988-10.313-22.988-22.988s10.313-22.988,22.988-22.988
	S229.36,224.474,229.36,237.149z M219.36,237.149c0-7.162-5.826-12.988-12.988-12.988s-12.988,5.826-12.988,12.988
	s5.826,12.988,12.988,12.988S219.36,244.311,219.36,237.149z M293.628,260.137c-12.675,0-22.988-10.313-22.988-22.988
	s10.313-22.988,22.988-22.988s22.988,10.313,22.988,22.988S306.304,260.137,293.628,260.137z M293.628,250.137
	c7.162,0,12.988-5.826,12.988-12.988s-5.826-12.988-12.988-12.988s-12.988,5.826-12.988,12.988S286.467,250.137,293.628,250.137z
	 M384.341,129.084c-2.761,0-5,2.239-5,5s2.239,5,5,5h10.651c2.761,0,5-2.239,5-5s-2.239-5-5-5H384.341z"/>
</svg>
