<?xml version="1.0" encoding="utf-8"?>
<!-- Generator: Adobe Illustrator 23.0.0, SVG Export Plug-In . SVG Version: 6.00 Build 0)  -->
<svg version="1.1" id="Layer_1" xmlns="http://www.w3.org/2000/svg" xmlns:xlink="http://www.w3.org/1999/xlink" x="0px" y="0px"
	 viewBox="0 0 500 500" style="enable-background:new 0 0 500 500;" xml:space="preserve">
<style type="text/css">
	.st0{fill:#83E1E5;}
	.st1{fill:#AAB1BA;}
	.st2{fill:#FDDF7F;}
	.st3{fill:#ECF4F7;}
	.st4{fill:#1C1D21;}
</style>
<g>
	<path class="st0" d="M348.981,362.586v13.624c0,12.543-10.168,22.711-22.711,22.711h-18.952l0,54.501H192.683l0-54.501h-18.963
		c-12.543,0-22.712-10.168-22.712-22.712v-13.621c-30.129,4.516-53.244,30.53-53.244,61.981V495h94.917h114.636h94.917v-70.431
		C402.236,393.114,379.116,367.099,348.981,362.586z"/>
</g>
<path class="st2" d="M174.509,350.961v2.256h-14.923c-4.737,0-8.577,3.84-8.577,8.577v14.417c0,0.866,0.053,1.72,0.148,2.562
	c1.273,11.336,10.887,20.15,22.564,20.15h18.963v0l0,0l0,0l0,54.501h114.636l0-54.501l0,0l0,0v0h18.952
	c11.308,0,20.682-8.265,22.419-19.083c0.016-0.099,0.032-0.198,0.047-0.298c0.16-1.087,0.245-2.199,0.245-3.331v-13.624l0,0v-0.792
	c0-4.737-3.84-8.577-8.577-8.577h-14.911v-2.256c0-1.257-0.229-2.457-0.629-3.575c18.83-19.069,30.462-45.29,30.462-74.238
	c0-58.293-47.156-105.549-105.325-105.549s-105.325,47.256-105.325,105.549c0,28.947,11.632,55.169,30.462,74.238
	C174.738,348.504,174.509,349.704,174.509,350.961z"/>
<g>
	<circle class="st3" cx="206.373" cy="237.15" r="17.988"/>
</g>
<g>
	<circle class="st3" cx="293.629" cy="237.15" r="17.988"/>
</g>
<g>
	<g>
		<path class="st3" d="M199.164,317.228c4.521,3.928,11.369,3.448,15.297-1.072c8.984-10.337,21.914-16.309,35.54-16.453
			c13.626,0.145,26.556,6.116,35.54,16.453c3.928,4.52,10.776,5,15.297,1.072c4.52-3.929,5-10.777,1.072-15.297
			c-13.105-15.079-32.001-23.769-51.908-23.914c-19.908,0.145-38.804,8.835-51.908,23.914
			C194.165,306.451,194.644,313.299,199.164,317.228z"/>
	</g>
</g>
<g>
	<g>
		<circle class="st3" cx="83.516" cy="65.237" r="60"/>
	</g>
</g>
<g>
	<path class="st1" d="M94.784,65.237l8.819-8.819c3.111-3.111,3.111-8.156,0-11.267c-3.112-3.112-8.155-3.112-11.267,0l-8.819,8.819
		l-8.819-8.819c-3.112-3.111-8.155-3.111-11.267,0c-3.111,3.111-3.111,8.156,0,11.267l8.819,8.819l-8.819,8.819
		c-3.111,3.111-3.111,8.156,0,11.267c1.556,1.556,3.594,2.334,5.634,2.334c2.038,0,4.078-0.778,5.634-2.333l8.819-8.819l8.819,8.819
		c1.556,1.556,3.594,2.333,5.634,2.333c2.039,0,4.078-0.778,5.634-2.334c3.111-3.111,3.111-8.156,0-11.267L94.784,65.237z"/>
</g>
<g>
	<g>
		<circle class="st3" cx="151.62" cy="143.462" r="16"/>
	</g>
</g>
<g>
	<g>
		
			<ellipse transform="matrix(0.3827 -0.9239 0.9239 0.3827 197.1246 424.5397)" class="st3" cx="416.247" cy="64.761" rx="59.761" ry="59.761"/>
	</g>
</g>
<g>
	<path class="st1" d="M405.502,65.239l-8.784-8.784c-3.099-3.099-3.099-8.123,0-11.222c3.1-3.099,8.123-3.1,11.222,0l8.784,8.784
		l8.784-8.784c3.1-3.099,8.123-3.098,11.222,0c3.099,3.099,3.099,8.123,0,11.222l-8.784,8.784l8.784,8.784
		c3.099,3.099,3.099,8.123,0,11.222c-1.55,1.55-3.58,2.324-5.611,2.324c-2.03,0-4.061-0.775-5.611-2.324l-8.784-8.784l-8.784,8.784
		c-1.55,1.549-3.58,2.324-5.611,2.324c-2.031,0-4.061-0.775-5.611-2.324c-3.099-3.099-3.099-8.123,0-11.222L405.502,65.239z"/>
</g>
<g>
	<g>
		<circle class="st3" cx="348.619" cy="143.462" r="16"/>
	</g>
</g>
<g>
	<g>
		<circle class="st3" cx="250.001" cy="65.237" r="60"/>
	</g>
</g>
<g>
	<path class="st1" d="M261.268,65.237l8.819-8.819c3.111-3.111,3.111-8.156,0-11.267c-3.112-3.112-8.155-3.112-11.267,0
		l-8.819,8.819l-8.819-8.819c-3.112-3.111-8.155-3.111-11.267,0c-3.111,3.111-3.111,8.156,0,11.267l8.819,8.819l-8.819,8.819
		c-3.111,3.111-3.111,8.156,0,11.267c1.556,1.556,3.594,2.334,5.634,2.334c2.038,0,4.078-0.778,5.634-2.333l8.819-8.819l8.819,8.819
		c1.556,1.556,3.594,2.333,5.634,2.333c2.039,0,4.078-0.778,5.634-2.334c3.111-3.111,3.111-8.156,0-11.267L261.268,65.237z"/>
</g>
<path class="st4" d="M103.777,315.695v6.535h6.534c2.762,0,5,2.239,5,5s-2.238,5-5,5h-6.534v6.535c0,2.761-2.238,5-5,5s-5-2.239-5-5
	v-6.535h-6.535c-2.762,0-5-2.239-5-5s2.238-5,5-5h6.535v-6.535c0-2.761,2.238-5,5-5S103.777,312.934,103.777,315.695z
	 M400.825,310.295c-2.762,0-5,2.239-5,5v6.535h-6.535c-2.762,0-5,2.239-5,5s2.238,5,5,5h6.535v6.534c0,2.761,2.238,5,5,5
	s5-2.239,5-5v-6.534h6.534c2.762,0,5-2.239,5-5s-2.238-5-5-5h-6.534v-6.535C405.825,312.534,403.587,310.295,400.825,310.295z
	 M440.836,490h-3.813c-2.762,0-5,2.239-5,5s2.238,5,5,5h3.813c2.762,0,5-2.239,5-5S443.598,490,440.836,490z M419.863,490H80.139
	c-2.762,0-5,2.239-5,5s2.238,5,5,5h339.725c2.762,0,5-2.239,5-5S422.625,490,419.863,490z M62.979,490h-3.813c-2.762,0-5,2.239-5,5
	s2.238,5,5,5h3.813c2.762,0,5-2.239,5-5S65.74,490,62.979,490z M250.001,162.599c-60.834,0-110.325,49.592-110.325,110.549
	c0,22.912,6.937,44.893,20.06,63.569c1.588,2.259,4.705,2.803,6.966,1.216c2.259-1.587,2.804-4.706,1.216-6.965
	c-11.934-16.983-18.241-36.977-18.241-57.82c0-55.443,45.006-100.549,100.325-100.549s100.325,45.106,100.325,100.549
	c0,20.843-6.308,40.836-18.241,57.82c-1.588,2.259-1.043,5.378,1.216,6.965c0.875,0.615,1.878,0.91,2.871,0.91
	c1.573,0,3.122-0.741,4.095-2.126c13.123-18.676,20.06-40.657,20.06-63.569C360.326,212.191,310.835,162.599,250.001,162.599z
	 M97.766,484.543c2.762,0,5-2.239,5-5v-54.974c0-22.215,12.965-42.698,33.029-52.185c2.497-1.18,3.563-4.161,2.384-6.657
	c-1.182-2.497-4.166-3.563-6.657-2.383c-23.543,11.131-38.756,35.163-38.756,61.225v54.974
	C92.766,482.305,95.004,484.543,97.766,484.543z M312.318,403.921l0,49.498c0,0.001,0,0.002,0,0.003s0,0.002,0,0.003l0,26.117h-10
	v-21.121h-47.318v21.121c0,2.761-2.238,5-5,5s-5-2.239-5-5v-21.121h-47.318l0,21.121c0,2.762-2.238,5-5,5s-5-2.239-5-5v-75.622
	h-13.962c-15.28,0-27.711-12.431-27.711-27.711v-14.416c0-7.486,6.09-13.577,13.576-13.577h10.164
	c1.301-7.319,7.71-12.895,15.397-12.895h54.215c4.111,0,7.844,1.606,10.639,4.209c2.794-2.603,6.528-4.209,10.639-4.209h54.215
	c7.688,0,14.097,5.575,15.397,12.895h10.152c7.486,0,13.577,6.091,13.577,13.577v14.416c0,15.28-12.432,27.711-27.712,27.711
	H312.318z M255.001,350.961v42.96h52.317c0.002,0,0.003,0,0.005,0l18.946,0c9.767,0,17.712-7.945,17.712-17.711v-14.416
	c0-1.973-1.604-3.577-3.577-3.577h-9.911v13.775c0,2.761-2.238,5-5,5s-5-2.239-5-5v-18.775v-2.256c0-3.109-2.529-5.639-5.639-5.639
	H260.64C257.53,345.322,255.001,347.852,255.001,350.961z M192.684,393.921h52.317v-42.96c0-3.109-2.529-5.639-5.639-5.639h-54.215
	c-3.109,0-5.639,2.529-5.639,5.639v2.256v18.775c0,2.761-2.238,5-5,5s-5-2.239-5-5v-13.775h-9.923c-1.972,0-3.576,1.604-3.576,3.577
	v14.416c0,9.766,7.945,17.711,17.711,17.711H192.684z M245.001,448.423v-44.501h-47.317l0,44.501H245.001z M302.319,448.423v-44.501
	h-47.318v44.501H302.319z M361.808,365.721c-1.18,2.497-0.112,5.477,2.385,6.657c20.073,9.484,33.044,29.97,33.044,52.191v54.974
	c0,2.761,2.238,5,5,5s5-2.239,5-5v-54.974c0-26.07-15.219-50.105-38.772-61.233C365.971,362.158,362.987,363.224,361.808,365.721z
	 M249.965,273.017c21.413,0.156,41.695,9.499,55.719,25.634c2.775,3.194,4.142,7.278,3.846,11.5
	c-0.295,4.222-2.217,8.075-5.411,10.852c-2.995,2.602-6.697,3.877-10.383,3.877c-4.433,0-8.841-1.844-11.969-5.443
	c-8.013-9.22-19.589-14.588-31.766-14.732c-12.177,0.145-23.753,5.512-31.765,14.732c-5.729,6.592-15.755,7.295-22.352,1.567
	c0,0-0.001-0.001-0.001-0.001c-6.593-5.73-7.295-15.757-1.565-22.351C208.342,282.516,228.624,273.172,249.965,273.017z
	 M249.965,283.017c-18.399,0.134-35.957,8.224-48.098,22.194c-2.113,2.431-1.854,6.129,0.576,8.243
	c2.433,2.114,6.131,1.854,8.245-0.577c9.897-11.389,24.207-18.013,39.26-18.172c0.018,0,0.035,0,0.053,0s0.035,0,0.053,0
	c15.053,0.16,29.362,6.783,39.261,18.173c2.115,2.433,5.813,2.69,8.244,0.577c1.178-1.023,1.887-2.445,1.996-4.002
	c0.108-1.557-0.396-3.063-1.419-4.241C285.994,291.24,268.437,283.151,249.965,283.017z M229.36,237.149
	c0,12.675-10.313,22.988-22.987,22.988s-22.987-10.313-22.987-22.988s10.313-22.988,22.987-22.988S229.36,224.474,229.36,237.149z
	 M219.36,237.149c0-7.162-5.826-12.988-12.987-12.988s-12.987,5.826-12.987,12.988s5.826,12.988,12.987,12.988
	S219.36,244.311,219.36,237.149z M293.629,260.137c-12.675,0-22.987-10.313-22.987-22.988s10.313-22.988,22.987-22.988
	s22.987,10.313,22.987,22.988S306.304,260.137,293.629,260.137z M293.629,250.137c7.161,0,12.987-5.826,12.987-12.988
	s-5.826-12.988-12.987-12.988s-12.987,5.826-12.987,12.988S286.468,250.137,293.629,250.137z M151.62,122.462
	c11.579,0,21,9.42,21,21s-9.421,21-21,21s-21-9.42-21-21S140.041,122.462,151.62,122.462z M140.62,143.462c0,6.065,4.935,11,11,11
	s11-4.935,11-11s-4.935-11-11-11S140.62,137.396,140.62,143.462z M83.517,130.237c-35.841,0-65-29.159-65-65s29.159-65,65-65
	s65,29.159,65,65S119.357,130.237,83.517,130.237z M83.517,120.237c30.327,0,55-24.673,55-55s-24.673-55-55-55s-55,24.673-55,55
	S53.189,120.237,83.517,120.237z M85.265,92.395l-1.749-1.748l-1.75,1.75c-3.394,3.392-7.905,5.26-12.703,5.26
	c-4.8,0-9.312-1.869-12.705-5.263c-3.394-3.394-5.262-7.905-5.262-12.705c0-4.799,1.869-9.311,5.262-12.704l1.748-1.748
	l-1.748-1.748c-3.394-3.394-5.262-7.905-5.262-12.705c0-4.799,1.869-9.311,5.264-12.706c3.394-3.393,7.906-5.261,12.705-5.261
	c4.798,0,9.309,1.869,12.704,5.262l1.748,1.748l1.749-1.749c3.394-3.394,7.906-5.262,12.704-5.262s9.311,1.869,12.705,5.263
	c7.005,7.005,7.005,18.404,0,25.409l-1.748,1.748l1.749,1.748c7.005,7.005,7.005,18.403-0.001,25.41
	c-3.394,3.393-7.906,5.261-12.704,5.261C93.171,97.657,88.659,95.788,85.265,92.395z M83.516,76.504l8.82,8.82
	c1.556,1.556,3.594,2.333,5.634,2.333s4.078-0.778,5.634-2.334c3.111-3.111,3.111-8.156,0-11.267l-8.82-8.819l8.82-8.819
	c3.111-3.111,3.111-8.156,0-11.267c-1.556-1.556-3.595-2.334-5.634-2.334s-4.077,0.778-5.633,2.334l-8.82,8.819l-8.819-8.819
	c-1.556-1.555-3.595-2.333-5.633-2.333c-2.039,0-4.078,0.778-5.634,2.333c-3.111,3.111-3.111,8.156,0,11.267l8.819,8.819
	l-8.819,8.819c-3.111,3.111-3.111,8.156,0,11.267c1.556,1.556,3.594,2.334,5.634,2.334c2.039,0,4.078-0.778,5.634-2.333
	L83.516,76.504z M327.619,143.462c0-11.58,9.421-21,21-21s21,9.42,21,21s-9.421,21-21,21S327.619,155.042,327.619,143.462z
	 M337.619,143.462c0,6.065,4.935,11,11,11s11-4.935,11-11s-4.935-11-11-11S337.619,137.396,337.619,143.462z M481.485,65.239
	c0,35.709-29.052,64.761-64.761,64.761s-64.761-29.052-64.761-64.761c0-35.709,29.052-64.761,64.761-64.761
	S481.485,29.53,481.485,65.239z M471.485,65.239c0-30.195-24.565-54.761-54.761-54.761s-54.761,24.566-54.761,54.761
	S386.529,120,416.725,120S471.485,95.435,471.485,65.239z M443.802,63.526l-1.713,1.713l1.713,1.713
	c6.993,6.993,6.993,18.371,0,25.365c-3.388,3.387-7.892,5.252-12.682,5.252c-4.789,0-9.292-1.865-12.682-5.253l-1.713-1.713
	l-1.714,1.714c-3.388,3.387-7.891,5.252-12.681,5.252c-4.789,0-9.293-1.865-12.682-5.253c-6.993-6.993-6.993-18.371,0-25.365
	l1.713-1.713l-1.713-1.713c-6.993-6.993-6.993-18.371,0-25.365c3.388-3.387,7.892-5.253,12.682-5.253c0,0,0,0,0.001,0
	c4.79,0,9.293,1.865,12.681,5.253l1.713,1.713l1.714-1.714c3.388-3.387,7.891-5.252,12.681-5.252c4.79,0,9.294,1.865,12.683,5.253
	C450.795,45.155,450.795,56.533,443.802,63.526z M427.947,65.24l8.784-8.784c3.099-3.099,3.099-8.123,0-11.222
	c-1.55-1.55-3.581-2.324-5.612-2.324c-2.031,0-4.061,0.775-5.611,2.324l-8.784,8.784l-8.784-8.784
	c-1.55-1.55-3.58-2.324-5.611-2.324c-2.031,0-4.062,0.775-5.612,2.325c-3.099,3.099-3.099,8.123,0,11.222l8.784,8.784l-8.784,8.784
	c-3.099,3.099-3.099,8.123,0,11.222c1.55,1.549,3.58,2.324,5.611,2.324s4.061-0.774,5.611-2.324l8.784-8.784l8.784,8.784
	c1.55,1.549,3.581,2.324,5.611,2.324c2.031,0,4.061-0.774,5.611-2.324c3.099-3.099,3.099-8.123,0-11.222L427.947,65.24z
	 M185.001,65.237c0-35.841,29.159-65,65-65s65,29.159,65,65s-29.159,65-65,65S185.001,101.078,185.001,65.237z M195.001,65.237
	c0,30.327,24.673,55,55,55s55-24.673,55-55s-24.673-55-55-55S195.001,34.91,195.001,65.237z M222.843,66.985l1.748-1.748
	l-1.748-1.748c-3.394-3.394-5.262-7.905-5.262-12.705c0-4.799,1.869-9.311,5.264-12.706c3.394-3.393,7.906-5.261,12.705-5.261
	c4.798,0,9.309,1.869,12.704,5.262l1.748,1.748l1.749-1.749c3.394-3.394,7.906-5.262,12.704-5.262c4.799,0,9.311,1.869,12.705,5.263
	c3.394,3.394,5.262,7.906,5.262,12.705c0,4.799-1.869,9.311-5.262,12.705l-1.748,1.748l1.748,1.748
	c3.394,3.394,5.262,7.905,5.262,12.704c0,4.799-1.869,9.311-5.263,12.705c-3.394,3.394-7.906,5.262-12.704,5.262
	s-9.31-1.868-12.705-5.262l-1.748-1.748l-1.75,1.75c-3.394,3.392-7.905,5.26-12.703,5.26c-4.8,0-9.312-1.869-12.705-5.263
	c-3.394-3.394-5.262-7.905-5.262-12.705C217.581,74.891,219.45,70.379,222.843,66.985z M238.734,65.237l-8.819,8.819
	c-3.111,3.111-3.111,8.156,0,11.267c1.556,1.556,3.594,2.334,5.634,2.334c2.038,0,4.078-0.778,5.634-2.333l8.819-8.82l8.819,8.82
	c1.556,1.556,3.594,2.333,5.634,2.333s4.078-0.778,5.634-2.334c3.111-3.111,3.111-8.156,0-11.267l-8.819-8.819l8.819-8.819
	c3.111-3.111,3.111-8.156,0-11.267c-1.556-1.556-3.595-2.334-5.634-2.334s-4.077,0.778-5.633,2.334l-8.819,8.819l-8.819-8.819
	c-1.556-1.555-3.595-2.333-5.633-2.333c-2.039,0-4.078,0.778-5.634,2.333c-3.111,3.111-3.111,8.156,0,11.267L238.734,65.237z"/>
</svg>
