<?xml version="1.0" encoding="utf-8"?>
<!-- Generator: Adobe Illustrator 23.0.0, SVG Export Plug-In . SVG Version: 6.00 Build 0)  -->
<svg version="1.1" id="Layer_1" xmlns="http://www.w3.org/2000/svg" xmlns:xlink="http://www.w3.org/1999/xlink" x="0px" y="0px"
	 viewBox="0 0 500 500" style="enable-background:new 0 0 500 500;" xml:space="preserve">
<style type="text/css">
	.st0{fill:#83E1E5;}
	.st1{fill:#AAB1BA;}
	.st2{fill:#FDDF7F;}
	.st3{fill:#ECF4F7;}
	.st4{fill:#1C1D21;}
</style>
<g>
	<path class="st1" d="M229.796,167.599c22.408,0,43.178,7.018,60.251,18.973V93.716c0-5.523-4.477-10-10-10H179.545
		c-5.523,0-10,4.477-10,10v92.856C186.618,174.617,207.388,167.599,229.796,167.599z"/>
</g>
<g>
	<path class="st2" d="M452.587,81.635h-26.245l8.288,13.848c0.203,0.498,0.381,1.004,0.534,1.517
		c0.106,0.356,0.185,0.72,0.267,1.083c0.036,0.159,0.086,0.315,0.117,0.476c0.206,1.05,0.31,2.12,0.31,3.195v1.272h16.728
		c4.668,0,8.452-3.784,8.452-8.453v-4.485C461.039,85.42,457.255,81.635,452.587,81.635z"/>
</g>
<g>
	<polygon class="st2" points="290.048,152.742 435.859,152.742 435.859,103.026 290.048,102.985 	"/>
</g>
<g>
	<path class="st0" d="M435.431,98.083c-0.082-0.362-0.161-0.726-0.267-1.083c-0.153-0.513-0.332-1.02-0.534-1.517l-18.479-30.877
		l-7.426-12.408c-5.452-9.109-15.288-14.686-25.904-14.686H276.739c0.305,1.948,0.467,3.944,0.467,5.977v40.226h2.842
		c5.523,0,10,4.478,10,10v9.269l145.811,0.041v-1.272c0-1.075-0.104-2.145-0.31-3.195C435.517,98.398,435.467,98.242,435.431,98.083
		z"/>
</g>
<g>
	<path class="st1" d="M429.2,185.407h-18.403c-3.678,0-6.659-2.981-6.659-6.659v-26.006h31.721v26.006
		C435.859,182.426,432.877,185.407,429.2,185.407z"/>
</g>
<g>
	<g>
		<path class="st3" d="M204.402,83.716V43.49c0-9.084,7.391-16.475,16.475-16.475h17.839c9.084,0,16.475,7.391,16.475,16.475v40.226
			h22.015V43.49c0-21.224-17.267-38.49-38.49-38.49h-17.839c-21.223,0-38.49,17.267-38.49,38.49v40.226H204.402z"/>
	</g>
</g>
<g>
	<path class="st3" d="M229.796,105.892L229.796,105.892c-7.738,0-14.011,6.311-14.011,14.096l0,0
		c0,7.785,6.273,14.096,14.011,14.096l0,0c7.738,0,14.011-6.311,14.011-14.096l0,0C243.807,112.203,237.534,105.892,229.796,105.892
		z"/>
</g>
<g>
	<path class="st0" d="M328.777,362.586v13.624c0,12.543-10.168,22.711-22.711,22.711h-18.952l0,54.501H172.478l0-54.501h-18.963
		c-12.543,0-22.712-10.168-22.712-22.712v-13.621c-30.129,4.516-53.244,30.53-53.244,61.981V495h94.917h114.636h94.917v-70.431
		C382.032,393.114,358.911,367.099,328.777,362.586z"/>
</g>
<path class="st2" d="M154.304,350.961v2.256h-14.923c-4.737,0-8.577,3.84-8.577,8.577v14.417c0,1.176,0.089,2.331,0.262,3.458
	c0.012,0.08,0.029,0.158,0.042,0.237c0.171,1.044,0.409,2.066,0.717,3.058c0.213,0.686,0.46,1.356,0.734,2.012
	c0.01,0.024,0.019,0.05,0.029,0.074c3.448,8.151,11.52,13.871,20.927,13.871h18.963v0l0,0l0,0l0,54.501h114.636l0-54.501l0,0l0,0v0
	h18.952c12.543,0,22.711-10.168,22.711-22.711v-13.624l0,0v-0.792c0-4.737-3.84-8.577-8.577-8.577h-14.911v-2.256
	c0-1.257-0.229-2.457-0.629-3.575c18.83-19.069,30.462-45.29,30.462-74.238c0-58.293-47.156-105.549-105.325-105.549
	s-105.325,47.256-105.325,105.549c0,28.947,11.632,55.169,30.462,74.238C154.533,348.504,154.304,349.704,154.304,350.961z"/>
<g>
	<circle class="st3" cx="186.168" cy="237.15" r="17.988"/>
</g>
<g>
	<circle class="st3" cx="273.424" cy="237.15" r="17.988"/>
</g>
<g>
	<g>
		<path class="st3" d="M178.96,317.228c4.521,3.928,11.369,3.448,15.297-1.072c8.984-10.337,21.914-16.309,35.54-16.453
			c13.626,0.145,26.556,6.116,35.54,16.453c3.928,4.52,10.776,5,15.297,1.072c4.52-3.929,5-10.777,1.072-15.297
			c-13.105-15.079-32.001-23.769-51.908-23.914c-19.908,0.145-38.804,8.835-51.908,23.914
			C173.96,306.451,174.44,313.299,178.96,317.228z"/>
	</g>
</g>
<path class="st4" d="M62.238,327.229c0-2.761,2.238-5,5-5h6.534v-6.535c0-2.761,2.238-5,5-5s5,2.239,5,5v6.535h6.534
	c2.762,0,5,2.239,5,5s-2.238,5-5,5h-6.534v6.535c0,2.761-2.238,5-5,5s-5-2.239-5-5v-6.535h-6.534
	C64.477,332.229,62.238,329.991,62.238,327.229z M380.82,310.295c-2.762,0-5,2.239-5,5v6.535h-6.534c-2.762,0-5,2.239-5,5
	s2.238,5,5,5h6.534v6.534c0,2.761,2.238,5,5,5s5-2.239,5-5v-6.534h6.534c2.762,0,5-2.239,5-5s-2.238-5-5-5h-6.534v-6.535
	C385.82,312.534,383.582,310.295,380.82,310.295z M466.039,90.088v4.485c0,7.418-6.034,13.453-13.452,13.453h-11.729v44.716v26.006
	c0,6.429-5.23,11.659-11.659,11.659h-18.402c-6.429,0-11.659-5.23-11.659-11.659v-21.006h-90.087c-2.762,0-5-2.239-5-5s2.238-5,5-5
	h95.087h26.721v-39.716H309.051c-2.762,0-5-2.239-5-5s2.238-5,5-5h121.182c-0.034-0.101-0.061-0.204-0.098-0.304
	c-0.004-0.009-0.006-0.019-0.01-0.028l-4.037-6.746l-4.036-6.744c0-0.001-0.001-0.001-0.001-0.002l-17.615-29.435
	c-4.523-7.558-12.806-12.253-21.614-12.253h-87.464c-2.762,0-5-2.239-5-5s2.238-5,5-5h87.464c12.305,0,23.875,6.559,30.194,17.118
	l16.161,27.004h23.411C460.005,76.635,466.039,82.67,466.039,90.088z M430.858,157.742h-21.721v21.006
	c0,0.915,0.744,1.659,1.659,1.659h18.402c0.915,0,1.659-0.744,1.659-1.659V157.742z M456.039,90.088
	c0-1.904-1.549-3.453-3.452-3.453h-17.426l3.759,6.28c0.049,0.082,0.083,0.171,0.127,0.256c0.073,0.139,0.152,0.276,0.211,0.422
	c0.001,0.003,0.002,0.006,0.003,0.008l0,0c0,0,0,0,0,0.001c0.294,0.722,0.538,1.457,0.751,2.199c0.096,0.348,0.186,0.698,0.265,1.05
	l0.029,0.128c0.029,0.107,0.047,0.201,0.071,0.301c0.027,0.129,0.063,0.256,0.088,0.385c0.024,0.12,0.047,0.24,0.067,0.361h12.053
	c1.903,0,3.452-1.549,3.452-3.453V90.088z M164.545,167.689V93.716c0-7.536,5.592-13.775,12.842-14.827V43.49
	c0-23.98,19.51-43.49,43.49-43.49h17.839c23.98,0,43.49,19.51,43.49,43.49v35.399c7.25,1.052,12.842,7.29,12.842,14.827v73.974
	c0,2.761-2.238,5-5,5s-5-2.239-5-5V93.716c0-2.757-2.243-5-5-5h-2.842H255.19h-50.788h-22.016h-2.842c-2.757,0-5,2.243-5,5v73.974
	c0,2.761-2.238,5-5,5S164.545,170.451,164.545,167.689z M250.19,43.49c0-6.328-5.147-11.475-11.475-11.475h-17.839
	c-6.327,0-11.475,5.147-11.475,11.475v35.226h40.788V43.49z M187.387,78.716h12.016V43.49c0-11.841,9.634-21.475,21.475-21.475
	h17.839c11.841,0,21.475,9.634,21.475,21.475v35.226h12.016V43.49c0-18.467-15.023-33.49-33.49-33.49h-17.839
	c-18.467,0-33.49,15.023-33.49,33.49V78.716z M224.796,146.999v-8.607c-8.061-2.213-14.011-9.615-14.011-18.404
	c0-10.53,8.528-19.096,19.011-19.096c10.483,0,19.012,8.566,19.012,19.096c0,8.79-5.95,16.191-14.012,18.404v8.607
	c0,2.761-2.238,5-5,5S224.796,149.76,224.796,146.999z M229.796,129.084c4.969,0,9.012-4.081,9.012-9.096s-4.043-9.096-9.012-9.096
	s-9.011,4.081-9.011,9.096S224.827,129.084,229.796,129.084z M407.647,131.682c2.762,0,5-2.239,5-5s-2.238-5-5-5h-14.427
	c-2.762,0-5,2.239-5,5s2.238,5,5,5H407.647z M420.632,490h-3.813c-2.762,0-5,2.239-5,5s2.238,5,5,5h3.813c2.762,0,5-2.239,5-5
	S423.394,490,420.632,490z M399.658,490H59.935c-2.762,0-5,2.239-5,5s2.238,5,5,5h339.724c2.762,0,5-2.239,5-5
	S402.42,490,399.658,490z M42.774,490h-3.813c-2.762,0-5,2.239-5,5s2.238,5,5,5h3.813c2.762,0,5-2.239,5-5S45.536,490,42.774,490z
	 M146.497,337.933c2.259-1.587,2.804-4.706,1.216-6.966c-11.935-16.982-18.242-36.976-18.242-57.819
	c0-55.443,45.006-100.549,100.325-100.549s100.325,45.106,100.325,100.549c0,20.844-6.308,40.838-18.241,57.819
	c-1.588,2.26-1.043,5.378,1.216,6.966c0.875,0.615,1.877,0.91,2.871,0.91c1.572,0,3.121-0.741,4.095-2.125
	c13.123-18.674,20.06-40.656,20.06-63.569c0-60.957-49.491-110.549-110.325-110.549s-110.325,49.592-110.325,110.549
	c0,22.912,6.937,44.894,20.061,63.569C141.119,338.976,144.239,339.52,146.497,337.933z M72.561,424.569v54.974c0,2.761,2.238,5,5,5
	s5-2.239,5-5v-54.974c0-22.214,12.965-42.698,33.03-52.185c2.496-1.18,3.563-4.161,2.383-6.657
	c-1.182-2.497-4.163-3.563-6.658-2.383C87.772,374.476,72.561,398.508,72.561,424.569z M282.114,479.543v-21.121h-47.318v21.121
	c0,2.761-2.238,5-5,5s-5-2.239-5-5v-21.121h-47.317v21.121c0,2.761-2.238,5-5,5s-5-2.239-5-5v-75.622h-13.963
	c-15.28,0-27.711-12.431-27.711-27.711v-14.416c0-7.486,6.091-13.577,13.577-13.577h10.164c1.301-7.319,7.71-12.895,15.397-12.895
	h54.214c4.111,0,7.844,1.606,10.639,4.209c2.794-2.603,6.528-4.209,10.639-4.209h54.215c7.688,0,14.097,5.575,15.397,12.895h10.152
	c7.486,0,13.577,6.091,13.577,13.577v14.416c0,15.28-12.431,27.711-27.711,27.711h-13.951v75.622c0,2.761-2.238,5-5,5
	S282.114,482.305,282.114,479.543z M234.796,350.961v42.96h52.318c0.002,0,0.003,0,0.005,0l18.946,0
	c9.766,0,17.711-7.945,17.711-17.711v-14.416c0-1.973-1.604-3.577-3.577-3.577h-9.911v13.775c0,2.761-2.238,5-5,5s-5-2.239-5-5
	v-18.775v-2.256c0-3.109-2.529-5.639-5.639-5.639h-54.215C237.325,345.322,234.796,347.852,234.796,350.961z M172.479,393.921
	h52.317v-42.96c0-3.109-2.529-5.639-5.639-5.639h-54.214c-3.109,0-5.639,2.529-5.639,5.639v2.256v18.775c0,2.761-2.238,5-5,5
	s-5-2.239-5-5v-13.775h-9.923c-1.973,0-3.577,1.604-3.577,3.577v14.416c0,9.766,7.945,17.711,17.711,17.711H172.479z
	 M224.796,448.423v-44.501h-47.317v44.501H224.796z M282.114,448.423v-44.501h-47.318v44.501H282.114z M341.603,365.721
	c-1.18,2.497-0.112,5.477,2.385,6.657c20.073,9.484,33.044,29.97,33.044,52.191v54.974c0,2.761,2.238,5,5,5s5-2.239,5-5v-54.974
	c0-26.07-15.219-50.105-38.772-61.233C345.765,362.158,342.782,363.224,341.603,365.721z M229.761,273.017
	c21.413,0.156,41.695,9.499,55.719,25.634c5.729,6.594,5.027,16.62-1.565,22.351c-6.596,5.729-16.622,5.027-22.352-1.565
	c-8.013-9.221-19.589-14.588-31.766-14.733c-12.177,0.145-23.753,5.512-31.767,14.732c-3.127,3.599-7.536,5.443-11.968,5.443
	c-3.687,0-7.388-1.275-10.382-3.877c0,0,0,0-0.001,0c-3.194-2.776-5.116-6.63-5.411-10.852c-0.296-4.222,1.07-8.306,3.847-11.5
	C188.138,282.516,208.42,273.172,229.761,273.017z M229.761,283.017c-18.399,0.134-35.957,8.224-48.098,22.194
	c-1.024,1.178-1.528,2.685-1.42,4.241c0.109,1.557,0.818,2.979,1.997,4.002c2.432,2.113,6.13,1.854,8.242-0.578
	c9.899-11.39,24.209-18.013,39.262-18.173c0.035-0.001,0.07-0.001,0.105,0c15.053,0.16,29.362,6.783,39.261,18.173
	c2.112,2.431,5.812,2.691,8.244,0.577c2.431-2.112,2.689-5.811,0.576-8.243C265.79,291.24,248.232,283.151,229.761,283.017z
	 M209.156,237.149c0,12.675-10.313,22.988-22.988,22.988c-12.675,0-22.987-10.313-22.987-22.988s10.313-22.988,22.987-22.988
	C198.844,214.162,209.156,224.474,209.156,237.149z M199.156,237.149c0-7.162-5.826-12.988-12.988-12.988
	c-7.161,0-12.987,5.826-12.987,12.988s5.826,12.988,12.987,12.988C193.33,250.137,199.156,244.311,199.156,237.149z
	 M273.424,260.137c-12.675,0-22.987-10.313-22.987-22.988s10.313-22.988,22.987-22.988c12.676,0,22.988,10.313,22.988,22.988
	S286.1,260.137,273.424,260.137z M273.424,250.137c7.162,0,12.988-5.826,12.988-12.988s-5.826-12.988-12.988-12.988
	c-7.161,0-12.987,5.826-12.987,12.988S266.263,250.137,273.424,250.137z"/>
</svg>
