<?xml version="1.0" encoding="utf-8"?>
<!-- Generator: Adobe Illustrator 23.0.0, SVG Export Plug-In . SVG Version: 6.00 Build 0)  -->
<svg version="1.1" id="Layer_1" xmlns="http://www.w3.org/2000/svg" xmlns:xlink="http://www.w3.org/1999/xlink" x="0px" y="0px"
	 viewBox="0 0 500 500" style="enable-background:new 0 0 500 500;" xml:space="preserve">
<style type="text/css">
	.st0{fill:#83E1E5;}
	.st1{fill:#AAB1BA;}
	.st2{fill:#FDDF7F;}
	.st3{fill:#ECF4F7;}
	.st4{fill:#1C1D21;}
</style>
<g>
	<path class="st0" d="M332.045,266.418H205.908c-15.998,10.353-35.058,16.365-55.521,16.365c-20.463,0-39.523-6.013-55.521-16.365
		h-24.02c-33.614,0-60.864,27.295-60.864,60.964v143.796C9.983,484.334,20.649,495,33.806,495H244.76V317.197h116.819
		c14.352,0,25.988-11.635,25.988-25.987v-8.427h0C367.103,282.783,348.043,276.771,332.045,266.418z"/>
</g>
<g>
	<g>
		<ellipse class="st2" cx="150.388" cy="180.164" rx="102.451" ry="102.62"/>
	</g>
</g>
<g>
	<g>
		<path class="st2" d="M9.983,363.254v107.923C9.983,484.334,20.649,495,33.806,495h28.982V363.254H9.983z"/>
	</g>
</g>
<g>
	<g>
		<ellipse class="st1" cx="387.567" cy="180.164" rx="102.451" ry="102.62"/>
	</g>
</g>
<g>
	<path class="st2" d="M281.955,266.418v50.779h79.624c14.353,0,25.988-11.635,25.988-25.987v-8.427h0
		c-20.463,0-39.523-6.013-55.521-16.365H281.955z"/>
</g>
<g>
	<g>
		<path class="st3" d="M99.551,228.794c4.521,3.928,11.369,3.448,15.297-1.072c8.984-10.337,21.914-16.309,35.54-16.453
			c13.626,0.145,26.556,6.116,35.54,16.453c3.928,4.52,10.776,5,15.297,1.072c4.52-3.929,5-10.777,1.072-15.297
			c-13.105-15.079-32.001-23.769-51.908-23.914c-19.908,0.145-38.804,8.835-51.908,23.914
			C94.551,218.017,95.031,224.866,99.551,228.794z"/>
	</g>
</g>
<g>
	<g>
		<path class="st3" d="M438.403,199.814c-4.521-3.928-11.369-3.448-15.297,1.072c-8.984,10.337-21.914,16.309-35.54,16.453
			c-13.626-0.145-26.556-6.116-35.54-16.453c-3.928-4.52-10.776-5-15.297-1.072c-4.52,3.929-5,10.777-1.072,15.297
			c13.105,15.079,32.001,23.769,51.908,23.914c19.908-0.145,38.804-8.835,51.908-23.914
			C443.403,210.591,442.923,203.743,438.403,199.814z"/>
	</g>
</g>
<path class="st4" d="M371.032,16.534c0-2.762,2.239-5,5-5h6.534V5c0-2.762,2.239-5,5-5s5,2.238,5,5v6.534h6.535c2.761,0,5,2.238,5,5
	s-2.239,5-5,5h-6.535v6.535c0,2.762-2.239,5-5,5s-5-2.238-5-5v-6.535h-6.534C373.271,21.534,371.032,19.296,371.032,16.534z
	 M138.853,21.534h6.535v6.535c0,2.762,2.239,5,5,5s5-2.238,5-5v-6.535h6.534c2.761,0,5-2.238,5-5s-2.239-5-5-5h-6.534V5
	c0-2.762-2.239-5-5-5s-5,2.238-5,5v6.534h-6.535c-2.761,0-5,2.238-5,5S136.092,21.534,138.853,21.534z M495.018,180.163
	c0,57.663-45.515,104.874-102.451,107.5v3.547c0,17.087-13.901,30.987-30.987,30.987H249.76v154.461c0,2.762-2.239,5-5,5
	s-5-2.238-5-5V317.197c0-2.762,2.239-5,5-5h32.194v-40.779h-69.589c-7.068,4.436-14.587,7.99-22.403,10.648
	c-0.071,0.024-0.142,0.05-0.213,0.074c-0.731,0.247-1.465,0.486-2.202,0.718c-0.283,0.089-0.568,0.174-0.853,0.261
	c-1.007,0.307-2.018,0.599-3.034,0.876c-0.55,0.15-1.099,0.301-1.652,0.443c-0.496,0.126-0.994,0.246-1.492,0.365
	c-0.62,0.149-1.242,0.293-1.866,0.432c-0.427,0.094-0.854,0.191-1.283,0.28c-1.021,0.213-2.047,0.415-3.078,0.599
	c-0.238,0.042-0.477,0.078-0.716,0.119c-0.879,0.151-1.762,0.291-2.648,0.42c-0.334,0.048-0.668,0.095-1.003,0.141
	c-0.922,0.125-1.847,0.24-2.776,0.341c-0.194,0.021-0.387,0.046-0.581,0.066c-1.114,0.116-2.233,0.213-3.356,0.294
	c-0.275,0.02-0.55,0.035-0.825,0.053c-0.879,0.057-1.761,0.103-2.646,0.139c-0.318,0.013-0.635,0.026-0.953,0.036
	c-1.13,0.036-2.262,0.06-3.4,0.06s-2.271-0.024-3.4-0.06c-0.318-0.01-0.636-0.023-0.953-0.036c-0.885-0.036-1.767-0.082-2.646-0.139
	c-0.275-0.018-0.55-0.033-0.825-0.053c-1.123-0.081-2.242-0.178-3.356-0.294c-0.194-0.02-0.387-0.045-0.581-0.066
	c-0.929-0.102-1.854-0.216-2.776-0.341c-0.335-0.045-0.669-0.092-1.003-0.141c-0.886-0.129-1.768-0.269-2.647-0.42
	c-0.239-0.041-0.479-0.077-0.717-0.119c-1.031-0.184-2.057-0.386-3.078-0.599c-0.429-0.089-0.856-0.186-1.283-0.281
	c-0.624-0.138-1.245-0.282-1.865-0.431c-0.498-0.12-0.997-0.239-1.493-0.366c-0.551-0.141-1.098-0.292-1.646-0.442
	c-1.018-0.277-2.032-0.57-3.041-0.878c-0.283-0.086-0.567-0.171-0.849-0.26c-0.737-0.231-1.472-0.471-2.204-0.718
	c-0.07-0.023-0.139-0.048-0.208-0.072c-7.818-2.659-15.338-6.213-22.407-10.65H70.847c-30.803,0-55.864,25.105-55.864,55.964v30.872
	h42.805v-34.658c0-2.762,2.239-5,5-5s5,2.238,5,5v153.063c0,2.762-2.239,5-5,5s-5-2.238-5-5V368.254H14.983v102.924
	c0,10.379,8.444,18.822,18.823,18.822h354.393c2.761,0,5,2.238,5,5s-2.239,5-5,5H33.806c-15.893,0-28.823-12.93-28.823-28.822
	V327.382c0-36.373,29.546-65.964,65.864-65.964h9.159c-22.696-19.747-37.07-48.851-37.07-81.255
	c0-59.342,48.203-107.619,107.451-107.619s107.451,48.277,107.451,107.619c0,32.404-14.374,61.508-37.07,81.255h96.417
	c-22.696-19.747-37.07-48.851-37.07-81.255c0-59.342,48.203-107.619,107.451-107.619S495.018,120.821,495.018,180.163z
	 M121.057,273.262c0.222,0.07,0.444,0.141,0.666,0.209c0.615,0.19,1.233,0.375,1.853,0.553c0.401,0.115,0.804,0.223,1.207,0.333
	c0.806,0.22,1.615,0.43,2.429,0.629c0.569,0.139,1.138,0.277,1.71,0.405c0.418,0.095,0.837,0.186,1.257,0.275
	c0.727,0.154,1.457,0.3,2.188,0.437c0.25,0.047,0.499,0.099,0.75,0.144c0.976,0.175,1.957,0.333,2.94,0.478
	c0.296,0.043,0.593,0.083,0.89,0.125c0.808,0.112,1.617,0.214,2.429,0.306c0.241,0.027,0.481,0.058,0.722,0.083
	c1.027,0.108,2.056,0.201,3.088,0.277c0.212,0.016,0.426,0.026,0.638,0.041c0.851,0.057,1.704,0.103,2.558,0.138
	c0.285,0.012,0.57,0.023,0.856,0.033c1.048,0.034,2.098,0.056,3.15,0.056s2.102-0.022,3.15-0.056
	c0.286-0.009,0.571-0.021,0.856-0.033c0.854-0.035,1.707-0.081,2.558-0.138c0.213-0.014,0.426-0.025,0.638-0.041
	c1.032-0.076,2.061-0.168,3.088-0.277c0.241-0.025,0.481-0.056,0.722-0.083c0.812-0.092,1.621-0.194,2.429-0.306
	c0.297-0.042,0.594-0.082,0.89-0.125c0.983-0.146,1.963-0.303,2.94-0.478c0.251-0.045,0.499-0.097,0.749-0.144
	c0.732-0.137,1.461-0.283,2.189-0.437c0.42-0.089,0.839-0.18,1.257-0.275c0.572-0.128,1.141-0.266,1.71-0.405
	c0.813-0.199,1.622-0.409,2.427-0.628c0.404-0.11,0.807-0.218,1.209-0.333c0.62-0.178,1.236-0.363,1.851-0.553
	c0.224-0.069,0.447-0.14,0.671-0.211c39.445-12.499,68.118-49.505,68.118-93.098c0-53.827-43.716-97.619-97.451-97.619
	s-97.451,43.792-97.451,97.619C52.937,223.757,81.611,260.764,121.057,273.262z M382.566,287.668
	c-0.072-0.003-0.144-0.01-0.216-0.014c-1.059-0.051-2.114-0.115-3.165-0.197c-0.155-0.012-0.309-0.028-0.463-0.041
	c-0.895-0.074-1.787-0.158-2.677-0.253c-0.335-0.036-0.668-0.076-1.002-0.115c-0.724-0.084-1.446-0.176-2.166-0.275
	c-0.357-0.049-0.714-0.098-1.07-0.15c-0.754-0.112-1.504-0.233-2.253-0.36c-0.293-0.05-0.587-0.094-0.879-0.146
	c-0.967-0.172-1.929-0.358-2.887-0.557c-0.449-0.093-0.896-0.195-1.344-0.293c-0.527-0.116-1.054-0.233-1.578-0.357
	c-0.545-0.128-1.089-0.263-1.632-0.4c-0.387-0.098-0.773-0.199-1.159-0.302c-0.627-0.166-1.254-0.333-1.879-0.51
	c-0.034-0.01-0.068-0.02-0.102-0.03c-9.656-2.753-18.913-6.856-27.508-12.25h-43.634v40.779h74.625
	c11.572,0,20.987-9.415,20.987-20.987V287.668z M485.018,180.163c0-53.827-43.716-97.619-97.451-97.619
	s-97.451,43.792-97.451,97.619c0,43.593,28.673,80.599,68.118,93.098c0.224,0.071,0.447,0.142,0.671,0.211
	c0.615,0.189,1.231,0.375,1.851,0.553c0.402,0.115,0.806,0.223,1.209,0.333c0.805,0.22,1.614,0.429,2.427,0.628
	c0.569,0.139,1.138,0.277,1.71,0.405c0.418,0.095,0.837,0.186,1.257,0.275c0.728,0.154,1.458,0.3,2.189,0.437
	c0.25,0.047,0.498,0.099,0.749,0.144c0.977,0.175,1.957,0.333,2.94,0.478c0.296,0.043,0.593,0.083,0.89,0.125
	c0.808,0.112,1.617,0.214,2.429,0.306c0.241,0.027,0.481,0.058,0.722,0.083c1.027,0.108,2.056,0.201,3.088,0.277
	c0.212,0.016,0.426,0.026,0.638,0.041c0.851,0.057,1.704,0.103,2.558,0.138c0.285,0.012,0.57,0.023,0.856,0.033
	c1.048,0.034,2.098,0.056,3.15,0.056C441.301,277.783,485.018,233.991,485.018,180.163z M129.463,154.294
	c-2.165-1.713-5.31-1.347-7.023,0.818c-2.375,3.003-5.93,4.726-9.751,4.726c-3.822,0-7.376-1.722-9.751-4.725
	c-1.712-2.166-4.855-2.532-7.023-0.82c-2.166,1.714-2.533,4.857-0.819,7.023c4.283,5.416,10.696,8.521,17.594,8.521
	c6.897,0,13.31-3.105,17.594-8.521C131.996,159.151,131.629,156.007,129.463,154.294z M197.837,155.112
	c-2.375,3.003-5.93,4.726-9.751,4.726c-3.822,0-7.376-1.723-9.751-4.726c-1.713-2.165-4.858-2.531-7.023-0.818
	s-2.533,4.857-0.819,7.023c4.284,5.415,10.697,8.521,17.594,8.521c6.897,0,13.31-3.105,17.594-8.521
	c1.713-2.166,1.346-5.311-0.819-7.023C202.696,152.581,199.551,152.947,197.837,155.112z M174.414,143.645
	c0.559,0,1.126-0.094,1.682-0.292l27.345-9.77c2.601-0.93,3.956-3.791,3.026-6.392c-0.929-2.6-3.792-3.951-6.391-3.026l-27.345,9.77
	c-2.601,0.93-3.956,3.791-3.026,6.392C170.436,142.37,172.36,143.645,174.414,143.645z M97.334,133.583l27.345,9.77
	c0.556,0.198,1.124,0.292,1.682,0.292c2.053,0,3.978-1.274,4.708-3.318c0.929-2.601-0.426-5.462-3.026-6.392l-27.345-9.77
	c-2.598-0.926-5.461,0.427-6.391,3.026C93.379,129.792,94.734,132.653,97.334,133.583z M94.705,210.218
	c14.024-16.137,34.306-25.479,55.647-25.635c21.413,0.155,41.695,9.498,55.718,25.635c5.73,6.594,5.028,16.619-1.565,22.35
	c-6.594,5.731-16.621,5.028-22.352-1.564c-8.013-9.221-19.589-14.589-31.766-14.733c-12.177,0.145-23.753,5.513-31.766,14.733
	c-3.128,3.599-7.537,5.442-11.968,5.442c-3.686,0-7.388-1.275-10.382-3.877c0,0,0-0.001,0-0.001
	C89.678,226.838,88.976,216.812,94.705,210.218z M102.831,225.021c2.431,2.112,6.129,1.854,8.243-0.578
	c9.899-11.389,24.209-18.013,39.261-18.173c0.036,0,0.07,0,0.106,0c15.052,0.16,29.361,6.784,39.26,18.173
	c2.114,2.433,5.812,2.691,8.244,0.577c2.431-2.113,2.69-5.811,0.577-8.243c-12.141-13.97-29.699-22.06-48.17-22.193
	c-18.399,0.134-35.957,8.224-48.099,22.194C100.14,219.209,100.399,222.906,102.831,225.021z M359.619,155.113
	c-2.375,3.003-5.929,4.725-9.751,4.725c-3.821,0-7.375-1.723-9.751-4.726c-1.713-2.165-4.857-2.531-7.023-0.818
	c-2.166,1.713-2.533,4.857-0.819,7.023c4.284,5.415,10.697,8.521,17.594,8.521c6.898,0,13.311-3.105,17.594-8.521
	c1.713-2.166,1.346-5.31-0.819-7.023C364.476,152.582,361.333,152.947,359.619,155.113z M442.04,154.294
	c-2.165-1.713-5.31-1.347-7.023,0.818c-2.375,3.003-5.93,4.726-9.751,4.726s-7.375-1.723-9.751-4.726
	c-1.713-2.165-4.858-2.531-7.023-0.818s-2.533,4.857-0.819,7.023c4.284,5.415,10.697,8.521,17.594,8.521s13.31-3.105,17.594-8.521
	C444.572,159.151,444.205,156.007,442.04,154.294z M336.195,143.645c0.559,0,1.126-0.094,1.682-0.292l27.345-9.77
	c2.601-0.93,3.956-3.791,3.026-6.392c-0.929-2.6-3.792-3.951-6.391-3.026l-27.345,9.77c-2.601,0.93-3.956,3.791-3.026,6.392
	C332.217,142.37,334.142,143.645,336.195,143.645z M409.911,133.583l27.345,9.77c0.556,0.198,1.124,0.292,1.682,0.292
	c2.053,0,3.978-1.274,4.708-3.318c0.929-2.601-0.426-5.462-3.026-6.392l-27.345-9.77c-2.598-0.926-5.461,0.427-6.391,3.026
	C405.955,129.792,407.31,132.653,409.911,133.583z M443.249,218.392c-14.023,16.136-34.306,25.479-55.646,25.634
	c-21.413-0.155-41.695-9.498-55.718-25.635c-5.73-6.593-5.028-16.619,1.565-22.35c6.593-5.732,16.62-5.029,22.352,1.564
	c8.013,9.221,19.589,14.589,31.766,14.733c12.177-0.145,23.753-5.513,31.766-14.733c5.73-6.592,15.756-7.294,22.351-1.565
	c0,0,0,0.001,0,0.001C448.277,201.771,448.979,211.798,443.249,218.392z M435.123,203.588c-2.432-2.112-6.129-1.855-8.243,0.578
	c-9.899,11.389-24.209,18.013-39.261,18.173c-0.036,0-0.07,0-0.106,0c-15.052-0.16-29.361-6.784-39.26-18.173
	c-1.154-1.328-2.78-2.008-4.414-2.008c-1.36,0-2.725,0.471-3.83,1.431c-2.432,2.113-2.691,5.811-0.577,8.242
	c12.141,13.971,29.699,22.061,48.17,22.194c18.399-0.134,35.957-8.224,48.099-22.194
	C437.814,209.399,437.555,205.702,435.123,203.588z M410.427,490h-3.813c-2.761,0-5,2.238-5,5s2.239,5,5,5h3.813
	c2.761,0,5-2.238,5-5S413.188,490,410.427,490z"/>
</svg>
