<?xml version="1.0" encoding="utf-8"?>
<!-- Generator: Adobe Illustrator 23.0.0, SVG Export Plug-In . SVG Version: 6.00 Build 0)  -->
<svg version="1.1" id="Layer_1" xmlns="http://www.w3.org/2000/svg" xmlns:xlink="http://www.w3.org/1999/xlink" x="0px" y="0px"
	 viewBox="0 0 500 500" style="enable-background:new 0 0 500 500;" xml:space="preserve">
<style type="text/css">
	.st0{fill:#83E1E5;}
	.st1{fill:#AAB1BA;}
	.st2{fill:#FDDF7F;}
	.st3{fill:#ECF4F7;}
	.st4{fill:#1C1D21;}
</style>
<g>
	<g>
		<path class="st3" d="M121.393,282.7c10.861-10.099,25.401-16.282,41.389-16.282h31.697c0.107,0.069,0.218,0.134,0.326,0.203
			c-28.418-18.239-47.256-50.142-47.256-86.458c0-31.15,13.86-59.056,35.736-77.876c-17.925-15.421-41.232-24.743-66.715-24.743
			c-56.582,0-102.451,45.944-102.451,102.619c0,56.676,45.869,102.62,102.451,102.62C117.958,282.783,119.576,282.755,121.393,282.7
			z"/>
	</g>
</g>
<g>
	<path class="st1" d="M485.881,180.163c0-56.675-45.869-102.619-102.451-102.619c-25.483,0-48.789,9.322-66.715,24.743
		c21.876,18.82,35.736,46.726,35.736,77.876c0,36.388-18.915,68.344-47.427,86.564c0.164-0.105,0.333-0.204,0.497-0.31h31.697
		c15.988,0,30.529,6.184,41.39,16.283c1.82,0.055,3.437,0.082,4.822,0.082C440.012,282.783,485.881,236.839,485.881,180.163z"/>
</g>
<g>
	<g>
		<ellipse class="st2" cx="250" cy="180.164" rx="102.451" ry="102.62"/>
	</g>
</g>
<g>
	<g>
		<path class="st0" d="M337.218,266.418h-31.697c-15.998,10.353-35.057,16.365-55.521,16.365c-20.463,0-39.523-6.012-55.521-16.365
			h-31.697c-33.614,0-60.864,27.295-60.864,60.963V495H250h148.081V327.381C398.081,293.713,370.832,266.418,337.218,266.418z"/>
	</g>
</g>
<g>
	<g>
		<rect x="101.919" y="363.254" class="st2" width="52.805" height="131.746"/>
	</g>
</g>
<g>
	<g>
		<rect x="345.276" y="363.254" class="st2" width="52.805" height="131.746"/>
	</g>
</g>
<path class="st4" d="M328.804,93.187c-1.358-2.404-0.511-5.454,1.893-6.813c16.01-9.048,34.244-13.83,52.733-13.83
	c59.249,0,107.451,48.278,107.451,107.62c0,51.634-36.704,96.098-87.273,105.724c-0.316,0.06-0.63,0.089-0.94,0.089
	c-2.354,0-4.45-1.669-4.906-4.066c-0.517-2.713,1.264-5.331,3.977-5.847c45.858-8.73,79.143-49.062,79.143-95.901
	c0-53.828-43.716-97.62-97.451-97.62c-16.768,0-33.301,4.335-47.813,12.536C333.212,96.438,330.162,95.591,328.804,93.187z
	 M96.392,285.888c0.316,0.061,0.63,0.089,0.94,0.089c2.354,0,4.45-1.669,4.906-4.066c0.517-2.713-1.264-5.331-3.977-5.847
	c-45.858-8.73-79.143-49.062-79.143-95.901c0-53.828,43.716-97.62,97.451-97.62c16.768,0,33.301,4.335,47.813,12.536
	c2.404,1.359,5.454,0.512,6.813-1.893c1.358-2.404,0.511-5.454-1.893-6.813c-16.01-9.048-34.244-13.83-52.733-13.83
	c-59.249,0-107.451,48.278-107.451,107.62C9.119,231.798,45.823,276.261,96.392,285.888z M360.544,232.815
	c-1.713,2.166-1.346,5.31,0.819,7.023c2.167,1.714,5.311,1.347,7.023-0.819c3.664-4.632,9.147-7.288,15.042-7.288
	s11.378,2.656,15.042,7.288c0.987,1.248,2.449,1.898,3.925,1.898c1.086,0,2.181-0.353,3.099-1.079
	c2.166-1.713,2.533-4.858,0.819-7.023c-5.572-7.044-13.914-11.084-22.885-11.084S366.117,225.771,360.544,232.815z M116.57,240.917
	c8.972,0,17.313-4.04,22.885-11.084c1.713-2.166,1.346-5.31-0.819-7.023c-2.166-1.714-5.31-1.347-7.023,0.819
	c-3.664,4.632-9.147,7.288-15.042,7.288s-11.378-2.656-15.042-7.288c-1.713-2.166-4.858-2.532-7.023-0.819
	c-2.166,1.713-2.533,4.858-0.819,7.023C99.257,236.877,107.599,240.917,116.57,240.917z M238.465,21.535H245v6.534
	c0,2.761,2.239,5,5,5s5-2.239,5-5v-6.534h6.535c2.761,0,5-2.239,5-5s-2.239-5-5-5H255V5c0-2.761-2.239-5-5-5s-5,2.239-5,5v6.535
	h-6.535c-2.761,0-5,2.239-5,5S235.704,21.535,238.465,21.535z M105.864,21.535h6.534v6.534c0,2.761,2.239,5,5,5s5-2.239,5-5v-6.534
	h6.535c2.761,0,5-2.239,5-5s-2.239-5-5-5h-6.535V5c0-2.761-2.239-5-5-5s-5,2.239-5,5v6.535h-6.534c-2.761,0-5,2.239-5,5
	S103.103,21.535,105.864,21.535z M371.067,21.535h6.535v6.534c0,2.761,2.239,5,5,5s5-2.239,5-5v-6.534h6.534c2.761,0,5-2.239,5-5
	s-2.239-5-5-5h-6.534V5c0-2.761-2.239-5-5-5s-5,2.239-5,5v6.535h-6.535c-2.761,0-5,2.239-5,5S368.306,21.535,371.067,21.535z
	 M142.549,180.164c0-59.342,48.203-107.62,107.451-107.62s107.451,48.278,107.451,107.62c0,32.404-14.374,61.508-37.07,81.254
	h16.836c36.317,0,65.863,29.591,65.863,65.964v35.867c0,0.001,0,0.003,0,0.005s0,0.003,0,0.005v113.4c0,2.761-2.239,5-5,5
	s-5-2.239-5-5V368.253h-42.805v108.405c0,2.761-2.239,5-5,5s-5-2.239-5-5V323.595c0-2.761,2.239-5,5-5s5,2.239,5,5v34.658h42.805
	v-30.872c0-30.858-25.06-55.964-55.863-55.964h-30.24c-7.068,4.436-14.587,7.99-22.403,10.648c-0.071,0.024-0.142,0.05-0.214,0.074
	c-0.73,0.247-1.463,0.486-2.199,0.717c-0.286,0.09-0.574,0.176-0.861,0.264c-1.005,0.306-2.014,0.598-3.028,0.875
	c-0.55,0.15-1.099,0.301-1.652,0.443c-0.495,0.126-0.992,0.245-1.489,0.365c-0.622,0.15-1.246,0.293-1.872,0.433
	c-0.426,0.094-0.852,0.19-1.279,0.28c-1.021,0.213-2.047,0.415-3.078,0.599c-0.238,0.042-0.477,0.078-0.716,0.119
	c-0.879,0.151-1.762,0.291-2.648,0.42c-0.334,0.048-0.668,0.095-1.003,0.141c-0.923,0.126-1.85,0.24-2.781,0.342
	c-0.191,0.021-0.382,0.046-0.573,0.066c-1.114,0.116-2.234,0.213-3.358,0.294c-0.275,0.02-0.55,0.035-0.825,0.053
	c-0.879,0.057-1.761,0.103-2.646,0.139c-0.318,0.013-0.635,0.026-0.953,0.036c-1.13,0.036-2.262,0.06-3.4,0.06
	s-2.271-0.024-3.4-0.06c-0.318-0.01-0.636-0.023-0.953-0.036c-0.885-0.036-1.767-0.082-2.646-0.139
	c-0.275-0.018-0.55-0.033-0.825-0.053c-1.124-0.081-2.244-0.178-3.358-0.294c-0.191-0.02-0.382-0.045-0.573-0.066
	c-0.931-0.102-1.858-0.216-2.781-0.342c-0.335-0.045-0.669-0.092-1.003-0.141c-0.886-0.129-1.769-0.269-2.648-0.42
	c-0.238-0.041-0.478-0.077-0.716-0.119c-1.032-0.184-2.057-0.386-3.078-0.599c-0.428-0.089-0.853-0.186-1.279-0.28
	c-0.626-0.139-1.25-0.283-1.872-0.433c-0.497-0.12-0.994-0.239-1.489-0.365c-0.553-0.142-1.102-0.293-1.652-0.443
	c-1.014-0.276-2.023-0.568-3.028-0.875c-0.287-0.088-0.575-0.174-0.861-0.264c-0.736-0.231-1.468-0.47-2.199-0.717
	c-0.071-0.024-0.143-0.049-0.214-0.074c-7.816-2.659-15.335-6.213-22.403-10.648h-30.24c-30.803,0-55.863,25.105-55.863,55.964
	v30.872h42.805v-34.658c0-2.761,2.239-5,5-5s5,2.239,5,5v153.063c0,2.761-2.239,5-5,5s-5-2.239-5-5V368.253h-42.805v108.405
	c0,2.761-2.239,5-5,5s-5-2.239-5-5v-113.4c0-0.001,0-0.003,0-0.005s0-0.003,0-0.005v-35.867c0-36.373,29.546-65.964,65.863-65.964
	h16.836C156.923,241.671,142.549,212.567,142.549,180.164z M152.549,180.164c0,43.596,28.678,80.605,68.129,93.101
	c0.217,0.068,0.435,0.138,0.652,0.205c0.619,0.191,1.239,0.377,1.863,0.557c0.393,0.112,0.787,0.218,1.181,0.325
	c0.816,0.223,1.636,0.436,2.461,0.638c0.564,0.138,1.128,0.274,1.694,0.402c0.422,0.095,0.845,0.188,1.269,0.277
	c0.722,0.153,1.447,0.297,2.173,0.434c0.254,0.048,0.506,0.101,0.761,0.146c0.975,0.175,1.954,0.332,2.935,0.477
	c0.298,0.044,0.598,0.084,0.897,0.126c0.805,0.111,1.611,0.213,2.419,0.305c0.243,0.027,0.486,0.058,0.73,0.083
	c1.025,0.108,2.053,0.201,3.083,0.277c0.215,0.016,0.431,0.027,0.646,0.041c0.849,0.057,1.7,0.103,2.552,0.137
	c0.285,0.012,0.57,0.023,0.856,0.033c1.048,0.034,2.098,0.056,3.15,0.056s2.102-0.022,3.15-0.056
	c0.286-0.009,0.571-0.021,0.856-0.033c0.852-0.035,1.703-0.081,2.552-0.137c0.215-0.014,0.431-0.025,0.646-0.041
	c1.03-0.076,2.058-0.168,3.083-0.277c0.244-0.025,0.487-0.056,0.73-0.083c0.808-0.091,1.615-0.193,2.419-0.305
	c0.299-0.042,0.598-0.082,0.897-0.126c0.981-0.146,1.96-0.302,2.935-0.477c0.255-0.046,0.507-0.099,0.761-0.146
	c0.726-0.136,1.451-0.281,2.173-0.434c0.424-0.09,0.847-0.182,1.269-0.277c0.566-0.128,1.13-0.264,1.694-0.402
	c0.824-0.202,1.645-0.415,2.461-0.638c0.394-0.107,0.788-0.213,1.181-0.325c0.624-0.179,1.245-0.366,1.863-0.557
	c0.218-0.067,0.435-0.137,0.652-0.205c39.45-12.496,68.129-49.505,68.129-93.101c0-53.828-43.716-97.62-97.451-97.62
	S152.549,126.336,152.549,180.164z M439.108,490H60.892c-2.761,0-5,2.239-5,5s2.239,5,5,5h378.216c2.761,0,5-2.239,5-5
	S441.869,490,439.108,490z M42.478,490h-3.813c-2.761,0-5,2.239-5,5s2.239,5,5,5h3.813c2.761,0,5-2.239,5-5S45.239,490,42.478,490z
	 M461.335,490h-3.813c-2.761,0-5,2.239-5,5s2.239,5,5,5h3.813c2.761,0,5-2.239,5-5S464.097,490,461.335,490z M226.036,235.917
	c0,2.761,2.239,5,5,5h37.928c2.761,0,5-2.239,5-5s-2.239-5-5-5h-37.928C228.275,230.917,226.036,233.156,226.036,235.917z
	 M287.699,184.046c6.897,0,13.31-3.105,17.594-8.52c1.713-2.166,1.347-5.31-0.819-7.023c-2.166-1.715-5.311-1.347-7.024,0.818
	c-2.375,3.003-5.93,4.725-9.751,4.725c-3.822,0-7.376-1.722-9.751-4.725c-1.713-2.166-4.858-2.531-7.023-0.819
	c-2.166,1.713-2.533,4.858-0.819,7.023C274.389,180.941,280.801,184.046,287.699,184.046z M212.301,184.046
	c6.897,0,13.31-3.105,17.594-8.521c1.713-2.166,1.346-5.31-0.819-7.023c-2.166-1.713-5.31-1.346-7.023,0.819
	c-2.375,3.002-5.929,4.725-9.751,4.725c-3.821,0-7.375-1.722-9.751-4.725c-1.714-2.165-4.856-2.532-7.024-0.818
	c-2.166,1.713-2.532,4.858-0.819,7.023C198.992,180.941,205.404,184.046,212.301,184.046z M421.128,184.046
	c6.897,0,13.31-3.105,17.594-8.52c1.713-2.166,1.347-5.31-0.819-7.023c-2.166-1.715-5.311-1.347-7.024,0.818
	c-2.375,3.003-5.93,4.725-9.751,4.725c-3.822,0-7.376-1.722-9.751-4.725c-1.713-2.166-4.858-2.531-7.023-0.819
	c-2.166,1.713-2.533,4.858-0.819,7.023C407.818,180.941,414.231,184.046,421.128,184.046z M96.465,175.526
	c1.713-2.166,1.346-5.31-0.819-7.023c-2.166-1.713-5.31-1.346-7.023,0.819c-2.375,3.002-5.929,4.725-9.751,4.725
	c-3.821,0-7.375-1.722-9.751-4.725c-1.714-2.165-4.857-2.532-7.024-0.818c-2.166,1.713-2.532,4.858-0.819,7.023
	c4.284,5.415,10.697,8.52,17.594,8.52C85.769,184.046,92.182,180.941,96.465,175.526z"/>
</svg>
