<?xml version="1.0" encoding="utf-8"?>
<!-- Generator: Adobe Illustrator 23.0.0, SVG Export Plug-In . SVG Version: 6.00 Build 0)  -->
<svg version="1.1" id="Layer_1" xmlns="http://www.w3.org/2000/svg" xmlns:xlink="http://www.w3.org/1999/xlink" x="0px" y="0px"
	 viewBox="0 0 500 500" style="enable-background:new 0 0 500 500;" xml:space="preserve">
<style type="text/css">
	.st0{fill:#83E1E5;}
	.st1{fill:#AAB1BA;}
	.st2{fill:#FDDF7F;}
	.st3{fill:#ECF4F7;}
	.st4{fill:#1C1D21;}
</style>
<path class="st2" d="M174.508,350.961v2.256h-14.923c-4.737,0-8.577,3.84-8.577,8.577v14.416c0,0.867,0.053,1.721,0.148,2.562
	c1.273,11.337,10.887,20.15,22.564,20.15h18.963l0,0h0h0l0,54.501h114.636l0-54.501h0h0l0,0h18.952
	c11.308,0,20.682-8.266,22.419-19.084c0.016-0.099,0.032-0.197,0.047-0.297c0.16-1.088,0.245-2.199,0.245-3.331v-13.624h0v-0.792
	c0-4.737-3.84-8.577-8.577-8.577h-14.911v-2.256c0-1.257-0.229-2.457-0.629-3.575c18.83-19.069,30.462-45.29,30.462-74.237
	c0-58.293-47.156-105.55-105.325-105.55s-105.325,47.257-105.325,105.55c0,28.947,11.632,55.168,30.462,74.237
	C174.737,348.504,174.508,349.704,174.508,350.961z"/>
<g>
	<path class="st3" d="M239.361,340.322c4.536,0,8.398,2.844,9.929,6.841h1.421c1.53-3.997,5.393-6.841,9.928-6.841h34.252
		c3.086-3.521,4.971-8.121,4.971-13.172v-8.204c0-4.853-3.934-8.786-8.786-8.786h-82.152c-4.852,0-8.786,3.934-8.786,8.786v8.204
		c0,5.051,1.885,9.65,4.971,13.172H239.361z"/>
</g>
<g>
	<path class="st0" d="M348.98,362.586v13.624c0,12.543-10.168,22.711-22.711,22.711h-18.952l0,54.501H192.682l0-54.501H173.72
		c-12.543,0-22.712-10.168-22.712-22.712v-13.621c-30.129,4.516-53.244,30.53-53.244,61.981V495h94.917h114.636h94.917v-70.431
		C402.235,393.114,379.115,367.099,348.98,362.586z"/>
</g>
<g>
	<circle class="st3" cx="206.372" cy="255.332" r="17.988"/>
</g>
<g>
	<circle class="st3" cx="293.628" cy="255.332" r="17.988"/>
</g>
<g>
	<g>
		<circle class="st1" cx="83.515" cy="65.237" r="60"/>
	</g>
</g>
<g>
	<g>
		<circle class="st1" cx="151.619" cy="143.462" r="16"/>
	</g>
</g>
<g>
	<g>
		
			<ellipse transform="matrix(0.9994 -0.0333 0.0333 0.9994 -1.9246 13.8876)" class="st1" cx="416.246" cy="64.761" rx="59.761" ry="59.761"/>
	</g>
</g>
<g>
	<g>
		<circle class="st1" cx="348.618" cy="143.462" r="16"/>
	</g>
</g>
<g>
	<g>
		<circle class="st1" cx="250" cy="65.237" r="60"/>
	</g>
</g>
<path class="st4" d="M103.976,320.695v6.534h6.535c2.761,0,5,2.238,5,5s-2.239,5-5,5h-6.535v6.534c0,2.762-2.239,5-5,5s-5-2.238-5-5
	v-6.534h-6.535c-2.761,0-5-2.238-5-5s2.239-5,5-5h6.535v-6.534c0-2.762,2.239-5,5-5S103.976,317.934,103.976,320.695z
	 M401.024,315.295c-2.761,0-5,2.238-5,5v6.534h-6.535c-2.761,0-5,2.238-5,5s2.239,5,5,5h6.535v6.535c0,2.762,2.239,5,5,5
	s5-2.238,5-5v-6.535h6.535c2.761,0,5-2.238,5-5s-2.239-5-5-5h-6.535v-6.534C406.024,317.533,403.785,315.295,401.024,315.295z
	 M250,162.599c-60.833,0-110.325,49.593-110.325,110.55c0,22.913,6.937,44.895,20.06,63.568c1.587,2.259,4.706,2.803,6.966,1.216
	c2.259-1.588,2.804-4.706,1.216-6.966c-11.934-16.981-18.242-36.975-18.242-57.818c0-55.443,45.006-100.55,100.325-100.55
	s100.325,45.106,100.325,100.55c0,20.844-6.308,40.837-18.242,57.818c-1.588,2.26-1.043,5.378,1.216,6.966
	c0.875,0.614,1.877,0.909,2.871,0.909c1.573,0,3.122-0.74,4.095-2.125c13.124-18.674,20.06-40.655,20.06-63.568
	C360.325,212.191,310.833,162.599,250,162.599z M440.835,490h-3.813c-2.761,0-5,2.238-5,5s2.239,5,5,5h3.813c2.761,0,5-2.238,5-5
	S443.597,490,440.835,490z M419.862,490H80.138c-2.761,0-5,2.238-5,5s2.239,5,5,5h339.725c2.761,0,5-2.238,5-5
	S422.624,490,419.862,490z M62.978,490h-3.813c-2.761,0-5,2.238-5,5s2.239,5,5,5h3.813c2.761,0,5-2.238,5-5S65.739,490,62.978,490z
	 M97.765,481.658c2.761,0,5-2.238,5-5v-52.089c0-22.214,12.965-42.698,33.03-52.185c2.497-1.181,3.563-4.161,2.383-6.658
	c-1.18-2.496-4.16-3.563-6.657-2.383c-23.543,11.132-38.755,35.164-38.755,61.226v52.089
	C92.765,479.42,95.003,481.658,97.765,481.658z M312.318,403.921l0,49.5c0,0.001,0,0.001,0,0.002s0,0.001,0,0.002l0,23.233h-10
	v-18.235H255v18.235c0,2.762-2.239,5-5,5s-5-2.238-5-5v-18.235h-47.318l0,18.235c0,2.762-2.239,5-5,5s-5-2.238-5-5v-23.23
	c0-0.002,0-0.003,0-0.005s0-0.003,0-0.005v-49.497H173.72c-15.28,0-27.711-12.431-27.711-27.711v-14.416
	c0-7.486,6.091-13.577,13.577-13.577h10.164c1.3-7.319,7.71-12.895,15.397-12.895h11.394c-0.908-2.611-1.402-5.366-1.402-8.172
	v-8.204c0-7.602,6.185-13.786,13.786-13.786h82.151c7.602,0,13.786,6.185,13.786,13.786v8.204c0,2.806-0.494,5.561-1.402,8.172
	h11.394c7.688,0,14.097,5.575,15.397,12.895h10.152c7.486,0,13.577,6.091,13.577,13.577v14.416c0,15.28-12.431,27.711-27.711,27.711
	H312.318z M314.854,345.322h-19.963h-34.252c-0.266,0-0.528,0.024-0.787,0.062c-0.044,0.006-0.088,0.013-0.132,0.021
	c-1.939,0.327-3.62,1.668-4.34,3.547c-0.004,0.011-0.01,0.02-0.014,0.03c-0.232,0.617-0.366,1.282-0.366,1.979v42.961h52.317
	c0,0,0,0,0,0s0,0,0,0l18.951-0.001c9.766,0,17.711-7.945,17.711-17.711v-14.416c0-1.973-1.604-3.577-3.577-3.577h-9.911v13.774
	c0,2.762-2.239,5-5,5s-5-2.238-5-5v-18.774v-2.256C320.492,347.852,317.963,345.322,314.854,345.322z M207.577,335.322h31.785
	c0.511,0,1.019,0.027,1.522,0.077c0.381,0.037,0.754,0.101,1.127,0.165c0.108,0.019,0.219,0.028,0.326,0.05
	c2.922,0.565,5.547,1.952,7.646,3.901c0.005,0.005,0.012,0.01,0.017,0.015c0.005-0.005,0.012-0.01,0.017-0.015
	c2.099-1.949,4.725-3.336,7.646-3.901c0.108-0.021,0.218-0.031,0.326-0.05c0.373-0.064,0.746-0.128,1.127-0.165
	c0.503-0.05,1.01-0.077,1.522-0.077h31.785c1.583-2.426,2.438-5.262,2.438-8.172v-8.204c0-2.088-1.698-3.786-3.786-3.786h-82.151
	c-2.088,0-3.786,1.698-3.786,3.786v8.204C205.138,330.061,205.993,332.896,207.577,335.322z M192.683,393.921
	c0.003,0,0.007,0.001,0.01,0.001H245v-42.961c0-0.697-0.133-1.362-0.366-1.979c-0.004-0.011-0.01-0.02-0.014-0.03
	c-0.719-1.879-2.4-3.22-4.34-3.547c-0.044-0.008-0.088-0.015-0.132-0.021c-0.259-0.037-0.521-0.062-0.787-0.062h-34.252h-19.963
	c-3.109,0-5.639,2.529-5.639,5.639v2.256v18.774c0,2.762-2.239,5-5,5s-5-2.238-5-5v-13.774h-9.922c-1.973,0-3.577,1.604-3.577,3.577
	v14.416c0,9.766,7.945,17.711,17.711,17.711H192.683z M245,448.423v-44.501h-47.317l0,44.501H245z M302.318,448.423v-44.501H255
	v44.501H302.318z M361.806,365.721c-1.18,2.496-0.112,5.477,2.385,6.656c20.074,9.484,33.044,29.972,33.044,52.192v52.089
	c0,2.762,2.239,5,5,5s5-2.238,5-5v-52.089c0-26.069-15.219-50.105-38.772-61.233C365.966,362.155,362.986,363.225,361.806,365.721z
	 M206.372,232.345c12.675,0,22.988,10.313,22.988,22.987c0,12.676-10.313,22.988-22.988,22.988s-22.988-10.313-22.988-22.988
	C183.384,242.657,193.697,232.345,206.372,232.345z M193.384,255.332c0,7.162,5.826,12.988,12.988,12.988
	s12.988-5.826,12.988-12.988c0-7.161-5.826-12.987-12.988-12.987S193.384,248.171,193.384,255.332z M293.628,232.345
	c12.675,0,22.988,10.313,22.988,22.987c0,12.676-10.313,22.988-22.988,22.988s-22.988-10.313-22.988-22.988
	C270.64,242.657,280.953,232.345,293.628,232.345z M293.628,242.345c-7.162,0-12.988,5.826-12.988,12.987
	c0,7.162,5.826,12.988,12.988,12.988s12.988-5.826,12.988-12.988C306.616,248.171,300.79,242.345,293.628,242.345z M198.629,219.999
	c0.559,0,1.126-0.094,1.682-0.292l27.345-9.77c2.601-0.93,3.956-3.791,3.026-6.392c-0.929-2.6-3.792-3.953-6.391-3.026l-27.345,9.77
	c-2.601,0.93-3.956,3.791-3.026,6.392C194.651,218.725,196.576,219.999,198.629,219.999z M303.053,210.289l-27.345-9.77
	c-2.597-0.928-5.461,0.427-6.391,3.026c-0.929,2.601,0.426,5.462,3.026,6.392l27.345,9.77c0.556,0.198,1.124,0.292,1.682,0.292
	c2.053,0,3.978-1.274,4.708-3.318C307.009,214.08,305.654,211.219,303.053,210.289z M151.619,122.462c11.58,0,21,9.421,21,21
	s-9.42,21-21,21s-21-9.421-21-21S140.04,122.462,151.619,122.462z M140.619,143.462c0,6.065,4.935,11,11,11s11-4.935,11-11
	s-4.935-11-11-11S140.619,137.396,140.619,143.462z M83.516,130.237c-35.841,0-65-29.159-65-65s29.159-65,65-65s65,29.159,65,65
	S119.357,130.237,83.516,130.237z M83.516,120.237c30.327,0,55-24.673,55-55s-24.673-55-55-55s-55,24.673-55,55
	S53.188,120.237,83.516,120.237z M327.618,143.462c0-11.579,9.42-21,21-21s21,9.421,21,21s-9.42,21-21,21
	S327.618,155.041,327.618,143.462z M337.618,143.462c0,6.065,4.935,11,11,11s11-4.935,11-11s-4.935-11-11-11
	S337.618,137.396,337.618,143.462z M481.484,65.239c0,35.709-29.052,64.761-64.761,64.761s-64.761-29.052-64.761-64.761
	s29.052-64.761,64.761-64.761S481.484,29.53,481.484,65.239z M471.484,65.239c0-30.195-24.565-54.761-54.761-54.761
	s-54.761,24.565-54.761,54.761S386.528,120,416.724,120S471.484,95.435,471.484,65.239z M185,65.237c0-35.841,29.159-65,65-65
	s65,29.159,65,65s-29.159,65-65,65S185,101.078,185,65.237z M195,65.237c0,30.327,24.673,55,55,55s55-24.673,55-55s-24.673-55-55-55
	S195,34.91,195,65.237z"/>
</svg>
