<?xml version="1.0" encoding="utf-8"?>
<!-- Generator: Adobe Illustrator 23.0.0, SVG Export Plug-In . SVG Version: 6.00 Build 0)  -->
<svg version="1.1" id="Layer_1" xmlns="http://www.w3.org/2000/svg" xmlns:xlink="http://www.w3.org/1999/xlink" x="0px" y="0px"
	 viewBox="0 0 500 500" style="enable-background:new 0 0 500 500;" xml:space="preserve">
<style type="text/css">
	.st0{fill:#83E1E5;}
	.st1{fill:#AAB1BA;}
	.st2{fill:#FDDF7F;}
	.st3{fill:#ECF4F7;}
	.st4{fill:#1C1D21;}
</style>
<g>
	<path class="st2" d="M354.74,181.5c0-56.976-46.585-103.072-103.744-102.275c-54.472,0.759-99.189,44.756-100.781,99.21
		c-1.402,47.951,30.212,88.742,73.791,101.336v-54.244c0-2.618,2.122-4.74,4.74-4.74h47.419c2.618,0,4.74,2.122,4.74,4.74v54.244
		C323.552,267.447,354.74,228.117,354.74,181.5z"/>
</g>
<g>
	<path class="st1" d="M250.568,168.994c-24.72,0.956-44.81,21.149-45.65,45.873c-0.553,16.273,7.076,30.787,19.088,39.763v-5.787
		v-23.315c0-2.618,2.122-4.74,4.74-4.74h47.419c2.618,0,4.74,2.122,4.74,4.74v23.315v5.784c11.602-8.67,19.116-22.505,19.116-38.104
		C300.021,189.627,277.697,167.944,250.568,168.994z"/>
</g>
<g>
	<g>
		<path class="st0" d="M239.186,303.983c-0.43-0.788-0.923-1.537-1.474-2.243C238.262,302.446,238.755,303.196,239.186,303.983z"/>
	</g>
	<g>
		<path class="st0" d="M239.77,305.159c-0.176-0.394-0.367-0.78-0.573-1.158C239.403,304.379,239.593,304.766,239.77,305.159z"/>
	</g>
	<g>
		<path class="st0" d="M146.188,367.798l91.523-66.06c-2.014-2.585-4.788-4.586-8.071-5.623l-5.634-1.779v-27.004l0,0v12.439
			c-9.734-2.813-18.861-7.047-27.167-12.439h-43.429c-33.479,0-60.62,27.186-60.62,60.721v19.81h0h53.398V367.798z"/>
	</g>
	<g>
		<path class="st0" d="M346.593,267.332h-38.521c-8.306,5.393-17.433,9.626-27.168,12.439v14.564l-5.634,1.779
			c-6.894,2.177-11.581,8.572-11.581,15.802v67.37c0,6.205-5.03,11.235-11.235,11.235l0,0c-6.205,0-11.235-5.03-11.235-11.235
			v-67.37c0-0.465-0.021-0.927-0.059-1.384c0.038,0.457,0.059,0.919,0.059,1.384v40.505L119.087,442.55h0V495h234.728V347.862
			h53.398v-19.81C407.213,294.518,380.072,267.332,346.593,267.332z"/>
	</g>
	<g>
		<path class="st0" d="M240.928,308.874c-0.066-0.354-0.138-0.706-0.226-1.053C240.791,308.168,240.862,308.52,240.928,308.874z"/>
	</g>
	<g>
		<path class="st0" d="M240.252,306.364c-0.137-0.385-0.286-0.764-0.45-1.136C239.967,305.601,240.115,305.979,240.252,306.364z"/>
	</g>
	<g>
		<path class="st0" d="M241.123,310.218c-0.036-0.353-0.076-0.704-0.135-1.051C241.047,309.514,241.086,309.865,241.123,310.218z"/>
	</g>
	<g>
		<path class="st0" d="M240.639,307.602c-0.1-0.37-0.208-0.735-0.333-1.096C240.431,306.865,240.538,307.231,240.639,307.602z"/>
	</g>
</g>
<g>
	<path class="st2" d="M241.22,311.917c0-3.786-1.295-7.336-3.509-10.179l-91.523,66.06v-19.935l-53.398,0.043v79.104
		c0,8.583,6.947,15.541,15.516,15.541h10.781l122.134-90.128V311.917z"/>
</g>
<g>
	<path class="st3" d="M294.956,195.189c-7.82-15.552-23.906-26.232-42.501-26.232s-34.68,10.68-42.501,26.232H294.956z"/>
</g>
<g>
	<g>
		<rect x="353.814" y="347.862" class="st2" width="53.398" height="147.138"/>
	</g>
</g>
<g>
	<path class="st3" d="M280.905,248.843h-56.899v45.494l5.634,1.779c6.894,2.177,11.581,8.572,11.581,15.801v67.371
		c0,6.205,5.03,11.235,11.235,11.235h0c6.205,0,11.235-5.03,11.235-11.235v-67.371c0-7.229,4.687-13.624,11.581-15.801l5.634-1.779
		V248.843z"/>
</g>
<g>
	<path class="st0" d="M280.905,225.528v35.453h-56.899v-35.453c0-2.618,2.122-4.74,4.74-4.74h47.419
		C278.783,220.789,280.905,222.911,280.905,225.528z"/>
</g>
<path class="st4" d="M283.632,16.534c0-2.762,2.238-5,5-5h6.534V5c0-2.762,2.238-5,5-5s5,2.238,5,5v6.534h6.535c2.762,0,5,2.238,5,5
	s-2.238,5-5,5h-6.535v6.535c0,2.762-2.238,5-5,5s-5-2.238-5-5v-6.535h-6.534C285.87,21.534,283.632,19.296,283.632,16.534z
	 M238.466,21.534h6.535v6.535c0,2.762,2.238,5,5,5s5-2.238,5-5v-6.535h6.534c2.762,0,5-2.238,5-5s-2.238-5-5-5h-6.534V5
	c0-2.762-2.238-5-5-5s-5,2.238-5,5v6.534h-6.535c-2.762,0-5,2.238-5,5S235.704,21.534,238.466,21.534z M188.301,21.534h6.534v6.535
	c0,2.762,2.238,5,5,5s5-2.238,5-5v-6.535h6.535c2.762,0,5-2.238,5-5s-2.238-5-5-5h-6.535V5c0-2.762-2.238-5-5-5s-5,2.238-5,5v6.534
	h-6.534c-2.762,0-5,2.238-5,5S185.539,21.534,188.301,21.534z M250.028,164.019c0.806-0.036,1.614-0.062,2.427-0.062
	c0.813,0,1.621,0.025,2.427,0.062c0.193,0.009,0.386,0.02,0.578,0.03c0.779,0.044,1.554,0.1,2.325,0.178
	c0.016,0.001,0.031,0.002,0.047,0.004c0.865,0.087,1.724,0.199,2.578,0.328c0.031,0.005,0.063,0.01,0.094,0.015
	c15.265,2.333,28.688,11.235,36.805,24.572c0.047,0.076,0.094,0.151,0.141,0.228c0.388,0.646,0.767,1.299,1.13,1.964
	c0.145,0.265,0.28,0.534,0.42,0.801c0.141,0.269,0.286,0.534,0.423,0.806c0.018,0.035,0.029,0.072,0.046,0.107
	c3.544,7.071,5.552,15.04,5.552,23.473c0,3.318-0.319,6.665-0.949,9.947c-0.459,2.394-2.555,4.059-4.904,4.059
	c-0.313,0-0.63-0.029-0.948-0.091c-2.712-0.52-4.488-3.141-3.968-5.853c0.511-2.662,0.77-5.375,0.77-8.063
	c0-5.785-1.165-11.301-3.264-16.334h-78.604c-2.099,5.033-3.264,10.549-3.264,16.334c0,2.677,0.26,5.39,0.772,8.063
	c0.521,2.712-1.256,5.333-3.968,5.853c-2.711,0.528-5.332-1.256-5.853-3.968c-0.632-3.293-0.952-6.64-0.952-9.947
	c0-8.438,2.01-16.41,5.558-23.483c0.015-0.032,0.025-0.065,0.041-0.097c0.123-0.245,0.254-0.483,0.381-0.727
	c0.157-0.299,0.308-0.602,0.471-0.897c0.356-0.652,0.728-1.292,1.108-1.925c0.058-0.095,0.117-0.189,0.175-0.284
	c8.118-13.316,21.53-22.206,36.782-24.536c0.032-0.006,0.063-0.011,0.095-0.016c0.854-0.129,1.713-0.241,2.577-0.328
	c0.017-0.002,0.034-0.003,0.051-0.005c0.77-0.077,1.544-0.133,2.322-0.177C249.643,164.038,249.835,164.027,250.028,164.019z
	 M285.86,190.189c-5.649-7.15-13.532-12.455-22.594-14.837c-0.108-0.028-0.215-0.058-0.323-0.085
	c-0.53-0.135-1.064-0.256-1.602-0.37c-0.241-0.051-0.482-0.1-0.724-0.146c-0.453-0.089-0.907-0.171-1.365-0.245
	c-0.346-0.055-0.694-0.103-1.042-0.149c-0.384-0.052-0.767-0.104-1.154-0.146c-0.459-0.05-0.922-0.084-1.385-0.119
	c-0.296-0.022-0.59-0.052-0.887-0.067c-0.772-0.042-1.549-0.066-2.329-0.066s-1.557,0.024-2.329,0.066
	c-0.298,0.016-0.592,0.045-0.887,0.067c-0.463,0.035-0.925,0.069-1.385,0.119c-0.387,0.042-0.77,0.095-1.154,0.146
	c-0.348,0.047-0.696,0.095-1.042,0.149c-0.458,0.074-0.913,0.156-1.365,0.245c-0.242,0.047-0.483,0.096-0.724,0.146
	c-0.537,0.114-1.072,0.235-1.602,0.37c-0.108,0.027-0.216,0.057-0.324,0.085c-9.062,2.382-16.945,7.687-22.593,14.837H285.86z
	 M290.154,138.106c-6.898,0-13.311,3.105-17.594,8.52c-1.714,2.166-1.347,5.311,0.818,7.023c2.167,1.714,5.312,1.348,7.023-0.818
	c2.376-3.003,5.93-4.725,9.752-4.725c3.821,0,7.375,1.722,9.751,4.725c0.986,1.247,2.448,1.897,3.924,1.897
	c1.087,0,2.181-0.353,3.1-1.079c2.165-1.713,2.532-4.857,0.818-7.023C303.464,141.212,297.052,138.106,290.154,138.106z
	 M205.005,152.831c2.376-3.003,5.93-4.725,9.752-4.725c3.821,0,7.375,1.722,9.751,4.725c0.986,1.247,2.448,1.897,3.924,1.897
	c1.087,0,2.181-0.353,3.1-1.079c2.165-1.713,2.532-4.857,0.818-7.023c-4.283-5.414-10.695-8.52-17.593-8.52
	s-13.311,3.105-17.594,8.52c-1.714,2.166-1.347,5.311,0.818,7.023C200.149,155.363,203.293,154.997,205.005,152.831z
	 M276.481,128.535c0.559,0,1.126-0.094,1.682-0.292l27.345-9.769c2.601-0.93,3.956-3.791,3.027-6.391
	c-0.929-2.602-3.791-3.954-6.391-3.027l-27.345,9.769c-2.601,0.93-3.956,3.791-3.027,6.391
	C272.503,127.261,274.428,128.535,276.481,128.535z M199.402,118.475l27.345,9.769c0.556,0.198,1.123,0.292,1.682,0.292
	c2.053,0,3.979-1.274,4.709-3.319c0.929-2.6-0.427-5.461-3.027-6.391l-27.345-9.769c-2.598-0.928-5.462,0.426-6.391,3.027
	C195.446,114.684,196.802,117.545,199.402,118.475z M87.789,427.009v-98.956c0-36.238,29.438-65.72,65.62-65.72h28.493
	c-23.58-20.612-37.647-51.127-36.685-84.045c0.808-27.628,12.19-53.609,32.052-73.157c19.856-19.544,46.016-30.521,73.658-30.905
	c0.512-0.008,1.029-0.011,1.541-0.011c28.387,0,55.077,10.935,75.316,30.894c20.607,20.322,31.956,47.452,31.956,76.392
	c0,23.729-7.59,46.215-21.95,65.029c-4.401,5.767-9.389,11.059-14.841,15.804h23.644c36.183,0,65.62,29.481,65.62,65.72v148.605
	c0,2.762-2.238,5-5,5s-5-2.238-5-5V352.862h-43.398v123.796c0,2.762-2.238,5-5,5s-5-2.238-5-5V308.362c0-2.762,2.238-5,5-5
	s5,2.238,5,5v34.5h43.398v-14.81c0-30.724-24.951-55.72-55.62-55.72H309.5c-7.38,4.647-15.314,8.395-23.596,11.117v10.887
	c0,2.182-1.414,4.111-3.495,4.769l-5.634,1.778c-4.836,1.526-8.085,5.961-8.085,11.033v67.371c0,8.952-7.283,16.234-16.235,16.234
	s-16.234-7.282-16.234-16.234v-67.371c0-5.072-3.25-9.507-8.087-11.034l-5.633-1.777c-2.081-0.657-3.495-2.587-3.495-4.769v-10.889
	c-8.454-2.768-16.379-6.525-23.675-11.115h-41.921c-30.669,0-55.62,24.996-55.62,55.72v14.81h43.398v-34.5c0-2.762,2.238-5,5-5
	s5,2.238,5,5v49.66l68.624-49.532c2.242-1.615,5.366-1.109,6.981,1.128c1.615,2.239,1.11,5.365-1.128,6.981l-76.551,55.253
	c-0.868,0.626-1.896,0.945-2.928,0.945c-0.777,0-1.558-0.181-2.276-0.549c-1.671-0.854-2.723-2.574-2.723-4.451v-14.936H97.789
	v74.146c0,5.813,4.718,10.541,10.516,10.541h9.136l104.465-77.089c2.223-1.64,5.353-1.169,6.992,1.055
	c1.64,2.222,1.167,5.353-1.055,6.992l-103.757,76.566v31.584c0,2.762-2.238,5-5,5s-5-2.238-5-5V447.55h-5.781
	C96.992,447.55,87.789,438.335,87.789,427.009z M237.651,239.515v-13.727h-8.646v30.193h46.898v-30.193h-8.646v13.727
	c0,2.762-2.238,5-5,5s-5-2.238-5-5v-13.727h-9.607v13.727c0,2.762-2.238,5-5,5S237.651,242.276,237.651,239.515z M275.904,279.771
	v-13.79h-46.898v13.79v10.9l2.139,0.675c9.018,2.848,15.076,11.114,15.076,20.57v67.371c0,3.438,2.797,6.234,6.234,6.234
	c3.438,0,6.235-2.797,6.235-6.234v-67.371c0-9.456,6.058-17.723,15.074-20.569l2.14-0.676V279.771z M199.477,263.118
	c0.064,0.041,0.13,0.079,0.192,0.122c5.99,3.87,12.454,7.129,19.336,9.642v-11.9v-35.453c0-5.371,4.369-9.74,9.739-9.74h47.42
	c5.37,0,9.739,4.369,9.739,9.74v35.453v11.896c37.901-13.895,63.836-50.549,63.836-91.377c0-26.242-10.291-50.843-28.978-69.271
	c-18.352-18.098-42.559-28.014-68.3-28.014c-0.465,0-0.931,0.003-1.397,0.009c-52.224,0.729-94.327,42.175-95.853,94.357
	C154.2,213.251,171.559,244.987,199.477,263.118z M440.836,490h-3.813c-2.762,0-5,2.238-5,5s2.238,5,5,5h3.813c2.762,0,5-2.238,5-5
	S443.598,490,440.836,490z M419.863,490H80.139c-2.762,0-5,2.238-5,5s2.238,5,5,5h339.725c2.762,0,5-2.238,5-5
	S422.625,490,419.863,490z M62.979,490h-3.813c-2.762,0-5,2.238-5,5s2.238,5,5,5h3.813c2.762,0,5-2.238,5-5S65.74,490,62.979,490z"
	/>
</svg>
