<?xml version="1.0" encoding="utf-8"?>
<!-- Generator: Adobe Illustrator 23.0.0, SVG Export Plug-In . SVG Version: 6.00 Build 0)  -->
<svg version="1.1" id="Layer_1" xmlns="http://www.w3.org/2000/svg" xmlns:xlink="http://www.w3.org/1999/xlink" x="0px" y="0px"
	 viewBox="0 0 500 500" style="enable-background:new 0 0 500 500;" xml:space="preserve">
<style type="text/css">
	.st0{fill:#83E1E5;}
	.st1{fill:#AAB1BA;}
	.st2{fill:#FDDF7F;}
	.st3{fill:#ECF4F7;}
	.st4{fill:#1C1D21;}
</style>
<g>
	<g>
		<ellipse class="st2" cx="250" cy="285.595" rx="102.451" ry="102.619"/>
	</g>
</g>
<g>
	<ellipse class="st3" cx="250" cy="285.595" rx="69.585" ry="69.7"/>
</g>
<g>
	<g>
		<path class="st0" d="M337.218,371.85h-31.697c-15.998,10.354-35.058,16.365-55.521,16.365c-20.463,0-39.523-6.012-55.521-16.365
			h-31.697c-33.614,0-60.864,27.295-60.864,60.964V495H250h148.081v-62.187C398.081,399.145,370.832,371.85,337.218,371.85z"/>
	</g>
</g>
<g>
	<g>
		<ellipse class="st1" cx="411.607" cy="64.253" rx="59.156" ry="59.253"/>
	</g>
</g>
<g>
	<g>
		<ellipse class="st2" cx="250" cy="64.253" rx="59.156" ry="59.253"/>
	</g>
</g>
<g>
	<g>
		<ellipse class="st0" cx="88.393" cy="64.253" rx="59.156" ry="59.253"/>
	</g>
</g>
<g>
	<g>
		<rect x="101.919" y="452.843" class="st2" width="52.805" height="42.157"/>
	</g>
</g>
<g>
	<g>
		<rect x="345.275" y="452.843" class="st2" width="52.805" height="42.157"/>
	</g>
</g>
<path class="st4" d="M358.436,350.674c11.744-19.594,17.952-42.098,17.952-65.078c0-13.214-2.022-26.232-6.011-38.693
	c-0.842-2.63,0.607-5.444,3.237-6.286c2.631-0.842,5.444,0.608,6.286,3.237c4.305,13.448,6.487,27.492,6.487,41.742
	c0,24.791-6.7,49.072-19.376,70.219c-0.937,1.563-2.594,2.431-4.293,2.431c-0.875,0-1.761-0.229-2.565-0.713
	C357.784,356.113,357.016,353.042,358.436,350.674z M141.981,210.489c-2.326-1.489-5.418-0.808-6.906,1.518
	c-14.041,21.952-21.462,47.399-21.462,73.589c0,24.828,6.718,49.14,19.428,70.307c0.938,1.562,2.593,2.427,4.292,2.427
	c0.876,0,1.763-0.23,2.569-0.715c2.367-1.421,3.134-4.493,1.712-6.86c-11.777-19.611-18.001-42.144-18.001-65.158
	c0-24.276,6.876-47.86,19.886-68.2C144.987,215.069,144.308,211.977,141.981,210.489z M146.586,196.53
	c-1.8,2.095-1.561,5.251,0.534,7.051c0.944,0.811,2.103,1.207,3.256,1.207c1.407,0,2.806-0.591,3.795-1.742
	c1.005-1.169,2.05-2.341,3.106-3.482c1.875-2.027,1.752-5.19-0.275-7.065c-2.026-1.875-5.19-1.752-7.066,0.274
	C148.797,194.004,147.67,195.269,146.586,196.53z M168.911,187.042c1.082,0,2.172-0.35,3.088-1.07
	c9.932-7.814,20.919-14.068,32.656-18.589c2.577-0.992,3.861-3.886,2.869-6.463c-0.993-2.577-3.887-3.863-6.463-2.869
	c-12.67,4.88-24.528,11.629-35.246,20.062c-2.17,1.708-2.545,4.852-0.838,7.021C165.964,186.388,167.43,187.042,168.911,187.042z
	 M245,153.992c0,2.762,2.239,5,5,5c44.982,0,86.934,24.258,109.483,63.307c0.927,1.604,2.606,2.501,4.335,2.501
	c0.848,0,1.708-0.217,2.495-0.671c2.392-1.381,3.211-4.439,1.83-6.83c-24.33-42.133-69.601-68.307-118.144-68.307
	C247.239,148.992,245,151.23,245,153.992z M324.585,285.596c0,28.938-16.527,54.067-40.613,66.467
	c-0.31,0.211-0.649,0.377-1.003,0.516c-9.948,4.931-21.137,7.717-32.969,7.717c-11.832,0-23.021-2.786-32.97-7.718
	c-0.353-0.138-0.692-0.304-1.001-0.514c-24.087-12.399-40.615-37.528-40.615-66.468c0-0.757,0.035-1.505,0.057-2.257
	c-0.001-0.044-0.013-0.086-0.013-0.131c0-0.075,0.019-0.145,0.022-0.219c0.828-24.019,13.025-45.182,31.365-58.263
	c0.256-0.227,0.535-0.423,0.833-0.594c12.034-8.337,26.613-13.237,42.321-13.237s30.288,4.9,42.321,13.237
	c0.299,0.171,0.577,0.367,0.833,0.594c18.34,13.081,30.537,34.244,31.365,58.263c0.003,0.074,0.022,0.144,0.022,0.219
	c0,0.045-0.012,0.087-0.013,0.131C324.55,284.091,324.585,284.839,324.585,285.596z M245,221.108
	c-10.937,0.844-21.114,4.423-29.857,10.063v16.791c0,2.514,2.045,4.56,4.56,4.56h10.325c2.761,0,5,2.238,5,5s-2.239,5-5,5h-10.325
	c-8.028,0-14.56-6.531-14.56-14.56v-8.85c-10.485,10.158-17.553,23.824-19.294,39.096h23.429c8.028,0,14.56,6.531,14.56,14.56v7.652
	c0,2.762-2.239,5-5,5s-5-2.238-5-5v-7.652c0-2.515-2.045-4.56-4.56-4.56h-23.796c0.845,21.183,11.892,39.779,28.356,50.967v-15.355
	c0-2.762,2.239-5,5-5s5,2.238,5,5v20.908c6.556,2.922,13.682,4.777,21.163,5.354V221.108z M314.519,288.208h-23.796
	c-2.514,0-4.56,2.045-4.56,4.56v7.652c0,2.762-2.238,5-5,5s-5-2.238-5-5v-7.652c0-8.028,6.531-14.56,14.56-14.56h23.429
	c-1.742-15.272-8.81-28.938-19.295-39.096v8.85c0,8.028-6.531,14.56-14.56,14.56h-10.324c-2.762,0-5-2.238-5-5s2.238-5,5-5h10.324
	c2.514,0,4.56-2.046,4.56-4.56v-16.791c-8.743-5.64-18.92-9.219-29.856-10.063v128.974c7.481-0.577,14.607-2.433,21.163-5.355
	v-20.907c0-2.762,2.238-5,5-5s5,2.238,5,5v15.355C302.627,327.987,313.674,309.391,314.519,288.208z M347.451,64.253
	C347.451,28.824,376.231,0,411.606,0c35.376,0,64.156,28.824,64.156,64.253s-28.78,64.253-64.156,64.253
	C376.231,128.506,347.451,99.682,347.451,64.253z M357.451,64.253c0,29.915,24.294,54.253,54.155,54.253
	c29.862,0,54.156-24.338,54.156-54.253S441.469,10,411.606,10C381.745,10,357.451,34.338,357.451,64.253z M185.844,64.253
	C185.844,28.824,214.625,0,250,0c35.376,0,64.156,28.824,64.156,64.253s-28.78,64.253-64.156,64.253
	C214.625,128.506,185.844,99.682,185.844,64.253z M195.844,64.253c0,29.915,24.294,54.253,54.156,54.253
	c29.862,0,54.156-24.338,54.156-54.253S279.862,10,250,10C220.138,10,195.844,34.338,195.844,64.253z M24.237,64.253
	C24.237,28.824,53.018,0,88.393,0s64.156,28.824,64.156,64.253s-28.78,64.253-64.156,64.253S24.237,99.682,24.237,64.253z
	 M34.237,64.253c0,29.915,24.294,54.253,54.156,54.253s54.156-24.338,54.156-54.253S118.255,10,88.393,10
	S34.237,34.338,34.237,64.253z M393.081,476.658v-18.815h-42.805v18.815c0,2.762-2.238,5-5,5s-5-2.238-5-5v-47.631
	c0-2.762,2.238-5,5-5s5,2.238,5,5v18.815h42.805v-15.029c0-30.858-25.061-55.964-55.863-55.964h-30.239
	c-7.069,4.437-14.589,7.991-22.407,10.65c-0.07,0.023-0.139,0.048-0.208,0.071c-0.731,0.247-1.465,0.486-2.201,0.718
	c-0.285,0.09-0.573,0.176-0.859,0.263c-1.006,0.307-2.016,0.599-3.031,0.875c-0.549,0.15-1.098,0.302-1.65,0.443
	c-0.496,0.126-0.994,0.245-1.491,0.365c-0.62,0.149-1.243,0.293-1.867,0.432c-0.427,0.095-0.853,0.19-1.281,0.28
	c-1.021,0.213-2.047,0.415-3.079,0.6c-0.237,0.042-0.475,0.077-0.712,0.118c-0.881,0.151-1.765,0.291-2.653,0.421
	c-0.333,0.048-0.665,0.095-0.999,0.14c-0.924,0.126-1.852,0.24-2.783,0.343c-0.192,0.021-0.382,0.046-0.574,0.065
	c-1.114,0.116-2.234,0.213-3.357,0.294c-0.275,0.02-0.55,0.035-0.826,0.053c-0.879,0.057-1.76,0.104-2.645,0.139
	c-0.318,0.013-0.635,0.026-0.954,0.036c-1.13,0.035-2.262,0.06-3.4,0.06s-2.271-0.024-3.4-0.06c-0.318-0.01-0.636-0.023-0.953-0.036
	c-0.885-0.035-1.767-0.082-2.646-0.139c-0.275-0.018-0.55-0.033-0.825-0.053c-1.124-0.081-2.244-0.178-3.358-0.294
	c-0.191-0.02-0.38-0.045-0.571-0.065c-0.932-0.103-1.861-0.217-2.787-0.343c-0.332-0.045-0.664-0.092-0.996-0.14
	c-0.89-0.13-1.777-0.271-2.659-0.422c-0.235-0.04-0.471-0.075-0.706-0.117c-1.033-0.185-2.06-0.387-3.083-0.601
	c-0.426-0.089-0.85-0.185-1.276-0.278c-0.627-0.14-1.252-0.283-1.875-0.434c-0.496-0.119-0.991-0.237-1.485-0.364
	c-0.56-0.144-1.116-0.296-1.673-0.448c-1.005-0.274-2.005-0.563-3.001-0.867c-0.291-0.089-0.583-0.176-0.872-0.268
	c-0.733-0.229-1.464-0.468-2.193-0.714c-0.075-0.025-0.149-0.052-0.224-0.077c-7.814-2.659-15.33-6.212-22.396-10.646h-30.24
	c-30.803,0-55.863,25.105-55.863,55.964v15.029h42.805v-18.815c0-2.762,2.239-5,5-5s5,2.238,5,5v47.631c0,2.762-2.239,5-5,5
	s-5-2.238-5-5v-18.815h-42.805v18.815c0,2.762-2.239,5-5,5s-5-2.238-5-5v-23.811c0-0.002,0-0.003,0-0.005s0-0.003,0-0.005v-20.024
	c0-36.373,29.546-65.964,65.863-65.964h16.836c-22.696-19.746-37.07-48.85-37.07-81.254c0-59.342,48.203-107.62,107.451-107.62
	c59.249,0,107.451,48.278,107.451,107.62c0,32.404-14.374,61.508-37.069,81.254h16.836c36.317,0,65.863,29.591,65.863,65.964v43.845
	c0,2.762-2.238,5-5,5S393.081,479.42,393.081,476.658z M347.451,285.596c0-53.828-43.717-97.62-97.451-97.62
	c-53.735,0-97.451,43.792-97.451,97.62c0,43.592,28.673,80.598,68.118,93.097c0.224,0.071,0.447,0.143,0.671,0.211
	c0.615,0.19,1.231,0.375,1.851,0.553c0.402,0.115,0.806,0.224,1.209,0.333c0.805,0.22,1.614,0.43,2.427,0.629
	c0.569,0.14,1.138,0.276,1.71,0.405c0.418,0.095,0.837,0.187,1.257,0.275c0.728,0.153,1.458,0.3,2.189,0.437
	c0.25,0.047,0.498,0.099,0.749,0.145c0.977,0.175,1.957,0.332,2.94,0.478c0.296,0.044,0.593,0.084,0.89,0.125
	c0.808,0.111,1.617,0.214,2.429,0.306c0.241,0.027,0.481,0.058,0.722,0.083c1.027,0.108,2.056,0.201,3.088,0.277
	c0.212,0.015,0.426,0.026,0.638,0.04c0.851,0.058,1.704,0.103,2.558,0.138c0.285,0.012,0.57,0.023,0.856,0.032
	c1.048,0.034,2.098,0.057,3.15,0.057s2.101-0.022,3.15-0.057c0.286-0.009,0.571-0.021,0.857-0.032
	c0.853-0.035,1.705-0.08,2.555-0.138c0.214-0.014,0.428-0.025,0.642-0.041c1.031-0.075,2.059-0.168,3.085-0.276
	c0.244-0.025,0.486-0.056,0.729-0.084c0.808-0.091,1.614-0.192,2.418-0.304c0.3-0.042,0.6-0.083,0.899-0.127
	c0.98-0.145,1.958-0.302,2.932-0.477c0.258-0.046,0.514-0.1,0.771-0.148c0.723-0.136,1.445-0.279,2.164-0.432
	c0.425-0.09,0.849-0.183,1.272-0.278c0.562-0.126,1.122-0.262,1.682-0.398c0.836-0.205,1.667-0.42,2.495-0.646
	c0.385-0.105,0.77-0.208,1.153-0.317c0.627-0.18,1.25-0.367,1.872-0.56c0.214-0.065,0.427-0.134,0.64-0.201
	C318.769,366.205,347.451,329.194,347.451,285.596z M439.108,490H60.892c-2.761,0-5,2.238-5,5s2.239,5,5,5h378.216
	c2.762,0,5-2.238,5-5S441.87,490,439.108,490z M42.478,490h-3.813c-2.761,0-5,2.238-5,5s2.239,5,5,5h3.813c2.761,0,5-2.238,5-5
	S45.239,490,42.478,490z M461.335,490h-3.813c-2.762,0-5,2.238-5,5s2.238,5,5,5h3.813c2.762,0,5-2.238,5-5S464.097,490,461.335,490z
	 M95.156,375.996c2.761,0,5-2.238,5-5v-6.535h6.535c2.761,0,5-2.238,5-5s-2.239-5-5-5h-6.535v-6.534c0-2.762-2.239-5-5-5
	s-5,2.238-5,5v6.534h-6.534c-2.761,0-5,2.238-5,5s2.239,5,5,5h6.534v6.535C90.156,373.758,92.395,375.996,95.156,375.996z
	 M409.844,370.996v-6.535h6.535c2.762,0,5-2.238,5-5s-2.238-5-5-5h-6.535v-6.534c0-2.762-2.238-5-5-5s-5,2.238-5,5v6.534h-6.534
	c-2.762,0-5,2.238-5,5s2.238,5,5,5h6.534v6.535c0,2.762,2.238,5,5,5S409.844,373.758,409.844,370.996z M231.113,86.743
	c0,2.762,2.239,5,5,5h27.775c2.762,0,5-2.238,5-5s-2.238-5-5-5h-27.775C233.352,81.743,231.113,83.981,231.113,86.743z
	 M71.619,76.199c-2.166,1.713-2.533,4.857-0.819,7.023c4.284,5.415,10.697,8.521,17.594,8.521s13.31-3.105,17.594-8.521
	c1.713-2.166,1.346-5.311-0.819-7.023c-2.164-1.713-5.31-1.346-7.023,0.818c-2.375,3.003-5.93,4.726-9.751,4.726
	s-7.375-1.723-9.751-4.726C76.93,74.854,73.784,74.486,71.619,76.199z M394.014,83.641c-1.714,2.166-1.347,5.311,0.818,7.023
	c2.167,1.713,5.312,1.348,7.023-0.818c2.376-3.003,5.93-4.726,9.751-4.726s7.376,1.723,9.752,4.726
	c0.986,1.247,2.448,1.897,3.924,1.897c1.087,0,2.181-0.353,3.1-1.079c2.165-1.713,2.532-4.857,0.818-7.023
	c-4.283-5.415-10.696-8.521-17.594-8.521C404.71,75.12,398.297,78.226,394.014,83.641z M67.785,49.904h3.558c2.761,0,5-2.238,5-5
	s-2.239-5-5-5h-3.558c-2.761,0-5,2.238-5,5S65.023,49.904,67.785,49.904z M105.443,49.904h3.558c2.761,0,5-2.238,5-5s-2.239-5-5-5
	h-3.558c-2.761,0-5,2.238-5,5S102.682,49.904,105.443,49.904z M229.392,49.904h3.558c2.761,0,5-2.238,5-5s-2.239-5-5-5h-3.558
	c-2.761,0-5,2.238-5,5S226.63,49.904,229.392,49.904z M267.051,49.904h3.558c2.762,0,5-2.238,5-5s-2.238-5-5-5h-3.558
	c-2.762,0-5,2.238-5,5S264.289,49.904,267.051,49.904z M390.998,49.904h3.559c2.762,0,5-2.238,5-5s-2.238-5-5-5h-3.559
	c-2.762,0-5,2.238-5,5S388.236,49.904,390.998,49.904z M428.657,49.904h3.559c2.762,0,5-2.238,5-5s-2.238-5-5-5h-3.559
	c-2.762,0-5,2.238-5,5S425.896,49.904,428.657,49.904z"/>
</svg>
