<?xml version="1.0" encoding="utf-8"?>
<!-- Generator: Adobe Illustrator 23.0.0, SVG Export Plug-In . SVG Version: 6.00 Build 0)  -->
<svg version="1.1" id="Layer_1" xmlns="http://www.w3.org/2000/svg" xmlns:xlink="http://www.w3.org/1999/xlink" x="0px" y="0px"
	 viewBox="0 0 500 500" style="enable-background:new 0 0 500 500;" xml:space="preserve">
<style type="text/css">
	.st0{fill:#83E1E5;}
	.st1{fill:#AAB1BA;}
	.st2{fill:#FDDF7F;}
	.st3{fill:#ECF4F7;}
	.st4{fill:#1C1D21;}
</style>
<g>
	<g>
		<path class="st1" d="M418.805,267.333h-31.57c28.124-18.2,46.742-49.876,46.742-85.909c0-56.448-45.685-102.209-102.041-102.209
			c-20.532,0-39.644,6.079-55.65,16.531c20.935,18.718,34.121,45.957,34.121,76.285c0,35.817-18.389,67.323-46.216,85.575
			c0.052,0.176,0.047,0.159,0.099,0.335h30.952c33.463,0,60.591,27.185,60.591,60.72v75.637c0,11.104-9.002,20.106-20.106,20.106
			h-4.436h-2.925V495h124.206c14.83,0,26.853-12.022,26.853-26.852V328.052C479.425,294.518,452.285,267.333,418.805,267.333z"/>
	</g>
</g>
<g>
	<g>
		<rect x="88.464" y="414.403" class="st0" width="239.902" height="80.597"/>
	</g>
</g>
<g>
	<g>
		<path class="st0" d="M295.243,257.94h-31.602c-15.919,10.299-34.868,16.3-55.226,16.3s-39.306-6.001-55.226-16.3h-31.602
			c-33.463,0-60.591,27.185-60.591,60.72v75.634c0,11.106,9.002,20.109,20.106,20.109h4.436h245.752h4.436
			c11.104,0,20.106-9.003,20.106-20.109V318.66C355.833,285.125,328.706,257.94,295.243,257.94z"/>
	</g>
</g>
<g>
	<g>
		<path class="st2" d="M298.545,341.33v22.391H118.057V341.33h-57.06v52.963c0,11.106,9.002,20.109,20.106,20.109h254.624
			c11.104,0,20.106-9.003,20.106-20.109V341.33H298.545z"/>
	</g>
</g>
<path class="st1" d="M264.248,296.639h-21.421c-19.005,0-34.412,15.406-34.412,34.411c0-19.005-15.406-34.411-34.412-34.411h-21.421
	c-19.005,0-34.411,15.406-34.411,34.411v32.671H298.66V331.05C298.66,312.046,283.253,296.639,264.248,296.639z"/>
<g>
	<g>
		<ellipse class="st2" cx="208.416" cy="172.03" rx="101.992" ry="102.209"/>
	</g>
</g>
<rect x="118.171" y="414.403" class="st1" width="180.488" height="80.597"/>
<g>
	<g>
		<polygon class="st2" points="208.416,457.447 118.171,457.447 118.171,495 208.416,495 298.66,495 298.66,457.447 		"/>
	</g>
</g>
<g>
	<g>
		
			<ellipse transform="matrix(0.9239 -0.3827 0.3827 0.9239 -39.2352 152.7698)" class="st3" cx="364.396" cy="175.009" rx="20.955" ry="20.955"/>
	</g>
</g>
<path class="st4" d="M203.416,10.39V5c0-2.761,2.238-5,5-5s5,2.239,5,5v5.39c0,2.761-2.238,5-5,5S203.416,13.152,203.416,10.39z
	 M208.416,55.187c2.762,0,5-2.239,5-5V29.442c0-2.761-2.238-5-5-5s-5,2.239-5,5v20.745
	C203.416,52.948,205.654,55.187,208.416,55.187z M175.627,15.39c2.762,0,5-2.239,5-5V5c0-2.761-2.238-5-5-5s-5,2.239-5,5v5.39
	C170.627,13.152,172.865,15.39,175.627,15.39z M175.627,61.231c2.762,0,5-2.239,5-5V29.442c0-2.761-2.238-5-5-5s-5,2.239-5,5v26.789
	C170.627,58.993,172.865,61.231,175.627,61.231z M142.839,15.39c2.762,0,5-2.239,5-5V5c0-2.761-2.238-5-5-5s-5,2.239-5,5v5.39
	C137.839,13.152,140.077,15.39,142.839,15.39z M142.839,74.821c2.762,0,5-2.239,5-5V29.442c0-2.761-2.238-5-5-5s-5,2.239-5,5v40.379
	C137.839,72.583,140.077,74.821,142.839,74.821z M273.992,15.39c2.762,0,5-2.239,5-5V5c0-2.761-2.238-5-5-5s-5,2.239-5,5v5.39
	C268.992,13.152,271.23,15.39,273.992,15.39z M273.992,74.821c2.762,0,5-2.239,5-5V29.442c0-2.761-2.238-5-5-5s-5,2.239-5,5v40.379
	C268.992,72.583,271.23,74.821,273.992,74.821z M241.204,15.39c2.762,0,5-2.239,5-5V5c0-2.761-2.238-5-5-5s-5,2.239-5,5v5.39
	C236.204,13.152,238.442,15.39,241.204,15.39z M241.204,61.231c2.762,0,5-2.239,5-5V29.442c0-2.761-2.238-5-5-5s-5,2.239-5,5v26.789
	C236.204,58.993,238.442,61.231,241.204,61.231z M404.253,76.779h6.534v6.534c0,2.761,2.238,5,5,5s5-2.239,5-5v-6.534h6.535
	c2.762,0,5-2.239,5-5s-2.238-5-5-5h-6.535v-6.535c0-2.761-2.238-5-5-5s-5,2.239-5,5v6.535h-6.534c-2.762,0-5,2.239-5,5
	S401.491,76.779,404.253,76.779z M330.836,49.794h6.534v6.535c0,2.761,2.238,5,5,5s5-2.239,5-5v-6.535h6.534c2.762,0,5-2.239,5-5
	s-2.238-5-5-5h-6.534V33.26c0-2.761-2.238-5-5-5s-5,2.239-5,5v6.535h-6.534c-2.762,0-5,2.239-5,5S328.074,49.794,330.836,49.794z
	 M55.997,394.293V318.66c0-36.238,29.425-65.72,65.592-65.72h16.707c-22.576-19.671-36.872-48.648-36.872-80.909
	c0-59.115,47.996-107.209,106.992-107.209s106.992,48.094,106.992,107.209c0,32.261-14.296,61.239-36.872,80.909h16.706
	c36.167,0,65.592,29.482,65.592,65.72v75.637c0,13.844-11.263,25.106-25.106,25.106h-2.361v60.694c0,2.761-2.238,5-5,5s-5-2.239-5-5
	v-60.694h-19.707v60.141c0,2.761-2.238,5-5,5s-5-2.239-5-5v-17.096h-80.243v17.096c0,2.761-2.238,5-5,5s-5-2.239-5-5v-17.096
	h-80.244v17.096c0,2.761-2.238,5-5,5s-5-2.239-5-5v-60.141H93.465v60.141c0,2.761-2.238,5-5,5s-5-2.239-5-5v-60.141h-2.358
	C67.261,419.403,55.997,408.139,55.997,394.293z M203.416,452.447v-33.044h-80.244v33.044H203.416z M293.659,419.403h-80.243v33.044
	h80.243V419.403z M350.834,394.297V346.33h-47.175v17.391c0,2.761-2.238,5-5,5h-0.114h-90.129h-90.244h-0.114c-2.762,0-5-2.239-5-5
	V346.33H65.997v47.963c0,8.331,6.778,15.109,15.109,15.109h7.358h29.707h90.244h90.243h29.707h7.361
	C344.058,409.403,350.834,402.626,350.834,394.297z M213.416,358.721h80.129v-30.178c-1.277-15.047-13.924-26.904-29.297-26.904
	h-21.421c-16.218,0-29.411,13.194-29.411,29.411V358.721z M203.416,331.05c0-16.217-13.194-29.411-29.412-29.411h-21.421
	c-16.218,0-29.411,13.194-29.411,29.411v27.671h80.244V331.05z M157.467,254.712c0.267,0.166,0.533,0.335,0.802,0.499
	c0.484,0.294,0.973,0.581,1.462,0.867c0.395,0.23,0.791,0.456,1.188,0.681c0.481,0.272,0.963,0.545,1.45,0.809
	c0.714,0.387,1.432,0.765,2.155,1.134c0.381,0.195,0.766,0.384,1.15,0.574c0.58,0.286,1.162,0.566,1.747,0.84
	c0.316,0.149,0.631,0.3,0.949,0.445c0.871,0.397,1.747,0.78,2.628,1.15c0.257,0.108,0.517,0.212,0.776,0.318
	c0.758,0.311,1.52,0.613,2.285,0.904c0.214,0.081,0.426,0.164,0.64,0.244c0.977,0.364,1.959,0.714,2.948,1.045
	c0.107,0.036,0.216,0.07,0.324,0.106c0.927,0.307,1.859,0.6,2.794,0.88c0.151,0.045,0.302,0.091,0.453,0.135
	c2.08,0.609,4.182,1.148,6.301,1.617c0.137,0.03,0.274,0.06,0.411,0.09c2.123,0.459,4.264,0.848,6.419,1.163
	c0.157,0.023,0.314,0.044,0.472,0.066c0.955,0.135,1.912,0.256,2.872,0.362c0.138,0.015,0.275,0.033,0.412,0.047
	c1.061,0.113,2.124,0.209,3.19,0.287c0.175,0.013,0.351,0.022,0.527,0.034c0.875,0.059,1.752,0.106,2.631,0.142
	c0.276,0.011,0.552,0.023,0.828,0.032c1.036,0.033,2.073,0.056,3.112,0.056c0.008,0,0.016,0,0.023,0s0.016,0,0.023,0
	c1.039,0,2.076-0.022,3.112-0.056c0.276-0.009,0.552-0.02,0.828-0.032c0.879-0.036,1.756-0.082,2.631-0.142
	c0.175-0.012,0.351-0.021,0.526-0.034c1.066-0.078,2.13-0.174,3.191-0.287c0.137-0.015,0.274-0.032,0.411-0.047
	c0.961-0.107,1.919-0.228,2.875-0.363c0.157-0.022,0.313-0.043,0.47-0.066c2.156-0.316,4.298-0.704,6.423-1.164
	c0.135-0.029,0.269-0.059,0.404-0.088c2.122-0.469,4.227-1.008,6.31-1.619c0.146-0.043,0.292-0.087,0.438-0.131
	c0.944-0.282,1.884-0.577,2.819-0.887c0.1-0.033,0.202-0.065,0.302-0.098c0.993-0.333,1.981-0.685,2.963-1.051
	c0.205-0.076,0.408-0.156,0.612-0.234c0.779-0.296,1.553-0.603,2.324-0.92c0.248-0.102,0.497-0.202,0.744-0.305
	c0.889-0.373,1.773-0.76,2.651-1.161c0.304-0.139,0.604-0.283,0.907-0.425c0.603-0.283,1.204-0.572,1.802-0.867
	c0.37-0.183,0.741-0.365,1.108-0.553c0.778-0.397,1.552-0.802,2.319-1.221c0.423-0.231,0.84-0.47,1.259-0.706
	c0.421-0.237,0.84-0.477,1.258-0.721c0.474-0.277,0.947-0.555,1.416-0.84c0.32-0.194,0.635-0.395,0.953-0.593
	c27.539-17.169,45.912-47.772,45.912-82.6c0-53.601-43.511-97.209-96.992-97.209s-96.992,43.608-96.992,97.209
	C111.424,206.914,129.855,237.559,157.467,254.712z M65.997,318.66v17.671h47.061v-46.755c0-2.761,2.238-5,5-5s5,2.239,5,5v15.411
	c7.227-8.177,17.781-13.347,29.525-13.347h21.421c14.771,0,27.664,8.173,34.412,20.231c6.747-12.057,19.64-20.231,34.411-20.231
	h21.421c11.619,0,22.077,5.057,29.297,13.083v-15.147c0-2.761,2.238-5,5-5s5,2.239,5,5v38.626c0.068,0.942,0.114,1.89,0.114,2.849
	v5.28h47.175V318.66c0-30.724-24.938-55.72-55.592-55.72h-30.145c-0.322,0.202-0.651,0.39-0.975,0.588
	c-0.289,0.177-0.581,0.351-0.871,0.526c-0.901,0.54-1.808,1.066-2.722,1.579c-0.447,0.251-0.893,0.503-1.344,0.748
	c-0.483,0.261-0.968,0.516-1.454,0.77c-0.518,0.271-1.039,0.536-1.562,0.799c-0.421,0.211-0.841,0.425-1.264,0.631
	c-0.893,0.434-1.794,0.855-2.701,1.264c-0.327,0.147-0.656,0.288-0.985,0.432c-0.727,0.319-1.458,0.631-2.194,0.935
	c-0.303,0.125-0.605,0.251-0.909,0.373c-1.02,0.41-2.045,0.807-3.081,1.186c-0.066,0.024-0.133,0.046-0.199,0.07
	c-1.007,0.367-2.023,0.715-3.044,1.052c-0.209,0.069-0.419,0.137-0.628,0.205c-2.204,0.712-4.438,1.355-6.702,1.924
	c-0.119,0.03-0.238,0.058-0.357,0.088c-1.057,0.262-2.12,0.508-3.189,0.738c-0.108,0.023-0.215,0.048-0.323,0.07
	c-2.286,0.485-4.6,0.894-6.937,1.23c-0.196,0.028-0.393,0.056-0.589,0.083c-1.08,0.149-2.164,0.284-3.254,0.401
	c-0.067,0.007-0.134,0.016-0.201,0.023c-1.146,0.12-2.298,0.22-3.455,0.303c-0.239,0.017-0.479,0.03-0.719,0.046
	c-0.901,0.059-1.805,0.106-2.712,0.143c-0.308,0.012-0.616,0.026-0.924,0.035c-1.117,0.035-2.236,0.059-3.361,0.059
	c-0.009,0-0.017,0-0.026,0s-0.017,0-0.026,0c-1.125,0-2.244-0.024-3.361-0.059c-0.308-0.01-0.616-0.023-0.924-0.035
	c-0.907-0.036-1.811-0.084-2.712-0.143c-0.24-0.016-0.479-0.028-0.719-0.046c-1.156-0.083-2.308-0.183-3.454-0.303
	c-0.068-0.007-0.135-0.016-0.203-0.023c-1.089-0.116-2.172-0.251-3.251-0.4c-0.197-0.027-0.394-0.055-0.591-0.083
	c-2.336-0.335-4.648-0.745-6.934-1.229c-0.11-0.023-0.22-0.049-0.331-0.072c-1.065-0.229-2.124-0.475-3.177-0.736
	c-0.123-0.03-0.245-0.059-0.368-0.09c-2.259-0.568-4.489-1.21-6.688-1.92c-0.216-0.07-0.433-0.14-0.648-0.211
	c-1.008-0.333-2.011-0.677-3.006-1.038c-0.078-0.028-0.157-0.055-0.236-0.083c-1.028-0.376-2.047-0.772-3.06-1.179
	c-0.315-0.126-0.629-0.257-0.943-0.387c-0.72-0.297-1.436-0.602-2.147-0.915c-0.341-0.15-0.684-0.296-1.023-0.449
	c-0.898-0.405-1.79-0.822-2.675-1.252c-0.44-0.213-0.875-0.435-1.313-0.654c-0.502-0.252-1.003-0.508-1.501-0.768
	c-0.501-0.261-1.001-0.524-1.499-0.794c-0.404-0.219-0.803-0.446-1.204-0.67c-0.974-0.544-1.941-1.104-2.9-1.68
	c-0.263-0.158-0.527-0.315-0.788-0.475c-0.333-0.204-0.671-0.397-1.002-0.604h-30.145C90.936,262.94,65.997,287.936,65.997,318.66z
	 M186.351,247.408c2.165,1.713,5.31,1.347,7.023-0.82c3.663-4.631,9.146-7.288,15.041-7.288c5.896,0,11.379,2.656,15.042,7.288
	c0.987,1.248,2.449,1.898,3.925,1.898c1.087,0,2.181-0.353,3.099-1.079c2.166-1.713,2.533-4.858,0.82-7.023
	c-5.572-7.044-13.913-11.084-22.886-11.084c-8.972,0-17.313,4.04-22.885,11.084C183.817,242.55,184.185,245.695,186.351,247.408z
	 M163.294,188.112c7.25,0,13.991-3.265,18.494-8.957c1.713-2.166,1.346-5.31-0.82-7.023c-2.163-1.712-5.309-1.347-7.023,0.82
	c-2.594,3.28-6.477,5.161-10.65,5.161c-4.175,0-8.058-1.881-10.651-5.161c-1.716-2.167-4.859-2.532-7.023-0.82
	c-2.166,1.713-2.533,4.858-0.82,7.023C149.302,184.847,156.043,188.112,163.294,188.112z M249.618,188.112
	c7.251,0,13.992-3.265,18.495-8.957c1.713-2.166,1.346-5.31-0.82-7.023c-2.164-1.712-5.308-1.347-7.023,0.82
	c-2.594,3.28-6.477,5.161-10.651,5.161s-8.058-1.881-10.651-5.161c-1.715-2.167-4.86-2.532-7.023-0.82
	c-2.166,1.713-2.533,4.858-0.82,7.023C235.626,184.847,242.367,188.112,249.618,188.112z M344.112,460.447c0,2.761,2.238,5,5,5
	h73.975c8.621,0,15.635-7.013,15.635-15.634V336.274c0-2.761-2.238-5-5-5s-5,2.239-5,5v113.539c0,3.107-2.527,5.634-5.635,5.634
	h-73.975C346.351,455.447,344.112,457.686,344.112,460.447z M418.806,262.333h-16.622c23.271-20.226,36.794-49.508,36.794-80.909
	c0-59.115-48.019-107.209-107.041-107.209c-14.899,0-29.323,3.012-42.871,8.951c-2.529,1.109-3.681,4.058-2.571,6.587
	c1.108,2.529,4.057,3.681,6.587,2.572c12.274-5.381,25.347-8.11,38.855-8.11c53.509,0,97.041,43.608,97.041,97.209
	c0,33.15-16.62,63.696-44.459,81.712c-1.86,1.204-2.706,3.489-2.078,5.614c0.627,2.125,2.579,3.584,4.795,3.584h31.57
	c30.669,0,55.62,24.996,55.62,55.72v140.095c0,12.049-9.803,21.852-21.853,21.852H57.491c-2.762,0-5,2.239-5,5s2.238,5,5,5h395.082
	c17.563,0,31.853-14.289,31.853-31.852V328.052C484.426,291.814,454.988,262.333,418.806,262.333z M37.175,490h-4.464
	c-2.762,0-5,2.239-5,5s2.238,5,5,5h4.464c2.762,0,5-2.239,5-5S39.937,490,37.175,490z M163.294,194.839c-2.762,0-5,2.239-5,5v4.532
	c0,2.761,2.238,5,5,5s5-2.239,5-5v-4.532C168.294,197.078,166.056,194.839,163.294,194.839z M163.294,214.738c-2.762,0-5,2.239-5,5
	v4.532c0,2.761,2.238,5,5,5s5-2.239,5-5v-4.532C168.294,216.977,166.056,214.738,163.294,214.738z M249.618,194.839
	c-2.762,0-5,2.239-5,5v4.532c0,2.761,2.238,5,5,5s5-2.239,5-5v-4.532C254.618,197.078,252.38,194.839,249.618,194.839z
	 M249.618,214.738c-2.762,0-5,2.239-5,5v4.532c0,2.761,2.238,5,5,5s5-2.239,5-5v-4.532
	C254.618,216.977,252.38,214.738,249.618,214.738z M338.441,175.01c0-14.312,11.644-25.955,25.955-25.955
	s25.955,11.643,25.955,25.955s-11.644,25.955-25.955,25.955S338.441,189.321,338.441,175.01z M348.441,175.01
	c0,8.798,7.157,15.955,15.955,15.955s15.955-7.157,15.955-15.955s-7.157-15.955-15.955-15.955S348.441,166.212,348.441,175.01z"/>
</svg>
