<?xml version="1.0" encoding="utf-8"?>
<!-- Generator: Adobe Illustrator 23.0.0, SVG Export Plug-In . SVG Version: 6.00 Build 0)  -->
<svg version="1.1" id="Layer_1" xmlns="http://www.w3.org/2000/svg" xmlns:xlink="http://www.w3.org/1999/xlink" x="0px" y="0px"
	 viewBox="0 0 500 500" style="enable-background:new 0 0 500 500;" xml:space="preserve">
<style type="text/css">
	.st0{fill:#83E1E5;}
	.st1{fill:#AAB1BA;}
	.st2{fill:#FDDF7F;}
	.st3{fill:#ECF4F7;}
	.st4{fill:#1C1D21;}
</style>
<g>
	<path class="st3" d="M297.061,198.067l-6.732-8.598c-12.706-16.228-19.611-36.244-19.611-56.855v-30.97
		c3.376,1.174,7.002,1.814,10.778,1.814c9.005,0,17.161-3.629,23.091-9.502c3.732,4.379,9.519,6.954,15.878,6.194
		c8.055-0.962,14.567-7.422,15.607-15.468c0.483-3.735-0.198-7.269-1.715-10.316c-0.895-1.798-0.831-3.929,0.187-5.66
		c3.181-5.408,4.858-11.807,4.45-18.625c-0.965-16.118-13.833-29.333-29.923-30.684c-10.782-0.905-20.588,3.407-27.176,10.687
		C278.417,15.694,265.461,5,250,5s-28.417,10.694-31.895,25.087c-6.588-7.28-16.395-11.593-27.177-10.687
		c-16.09,1.351-28.958,14.567-29.922,30.684c-0.408,6.817,1.269,13.215,4.45,18.624c1.018,1.731,1.082,3.862,0.187,5.66
		c-1.517,3.047-2.198,6.581-1.715,10.316c1.04,8.045,7.551,14.506,15.607,15.468c6.359,0.759,12.146-1.815,15.878-6.194
		c5.93,5.872,14.085,9.502,23.091,9.502c3.777,0,7.403-0.64,10.779-1.815v30.97c0,20.611-6.904,40.627-19.611,56.855l-6.732,8.598
		c13.928-7.779,29.975-12.218,47.061-12.218S283.134,190.288,297.061,198.067z"/>
</g>
<g>
	<path class="st1" d="M282.945,28.989c-0.472-0.089-0.941-0.186-1.414-0.271c0.13,0.452,0.252,0.909,0.363,1.369
		C282.234,29.711,282.588,29.348,282.945,28.989z"/>
</g>
<g>
	<path class="st1" d="M218.468,28.718c-0.473,0.085-0.942,0.182-1.414,0.271c0.357,0.36,0.711,0.722,1.051,1.098
		C218.216,29.626,218.338,29.17,218.468,28.718z"/>
</g>
<g>
	<path class="st1" d="M209.671,189.469c12.706-16.228,19.611-36.244,19.611-56.855v-30.97c-3.376,1.174-7.002,1.815-10.779,1.815
		c-9.005,0-17.161-3.629-23.091-9.502c-3.732,4.379-9.519,6.954-15.878,6.195c-8.055-0.962-14.567-7.422-15.607-15.468
		c-0.483-3.735,0.198-7.269,1.715-10.316c0.895-1.798,0.831-3.929-0.187-5.66c-3.181-5.408-4.858-11.807-4.45-18.624
		c0.003-0.049,0.009-0.098,0.012-0.147c-52.428,30.636-87.656,87.505-87.656,152.61c0,38.883,12.574,74.825,33.863,104.001
		c7.407-4.634,16.157-7.322,25.539-7.322h6.64h0v-8.416c0-8.295,1.676-16.505,4.928-24.137l15.184-35.637
		c2.182-5.12,7.21-8.443,12.776-8.443l1.853,0c7.868-9.946,17.654-18.304,28.794-24.526L209.671,189.469z"/>
</g>
<g>
	<path class="st1" d="M338.982,49.937c0.003,0.049,0.009,0.097,0.012,0.146c0.408,6.817-1.269,13.216-4.45,18.625
		c-1.018,1.731-1.082,3.862-0.187,5.66c1.517,3.047,2.198,6.581,1.715,10.316c-1.04,8.045-7.551,14.506-15.607,15.468
		c-6.359,0.759-12.146-1.815-15.878-6.195c-5.93,5.872-14.086,9.502-23.091,9.502c-3.776,0-7.402-0.64-10.778-1.814v30.97
		c0,20.61,6.904,40.627,19.611,56.855l6.732,8.598c11.14,6.222,20.926,14.58,28.794,24.526l1.853,0
		c5.566,0,10.594,3.323,12.776,8.443l15.184,35.637c3.252,7.632,4.928,15.842,4.928,24.137v8.416h0h6.64
		c9.382,0,18.131,2.688,25.539,7.322c21.289-29.177,33.863-65.118,33.863-104.001C426.638,137.442,391.41,80.572,338.982,49.937z"/>
</g>
<g>
	<path class="st3" d="M139.404,299.226v-8.416c0-8.295,1.676-16.505,4.928-24.137l11.626-27.285
		c-4.768-10.789-15.556-18.323-28.111-18.323c-16.969,0-30.725,13.756-30.725,30.725c0,1.988,0.196,3.929,0.556,5.811
		c-5.018,1.447-9.375,4.434-12.557,8.404c5.602,14.537,13.063,28.151,22.104,40.541c7.407-4.634,16.157-7.322,25.539-7.322H139.404z
		"/>
</g>
<g>
	<path class="st3" d="M402.323,257.602c0.361-1.883,0.556-3.824,0.556-5.811c0-16.969-13.756-30.725-30.725-30.725
		c-12.554,0-23.343,7.533-28.111,18.323l11.626,27.285c3.252,7.632,4.928,15.842,4.928,24.137v8.416h6.64
		c9.382,0,18.131,2.688,25.539,7.322c9.041-12.39,16.503-26.004,22.104-40.541C411.698,262.036,407.341,259.049,402.323,257.602z"/>
</g>
<g>
	<g>
		<path class="st0" d="M351.134,472.293l-38.14-116.454c-16.919,14.549-38.929,23.346-62.994,23.346s-46.074-8.797-62.994-23.346
			l-38.14,116.454C144.43,485.839,131.79,495,117.536,495h264.928C368.21,495,355.57,485.839,351.134,472.293z"/>
	</g>
</g>
<g>
	<g>
		<path class="st2" d="M380.77,375.292l-16.829-38.793c-2.206-5.085-3.345-10.57-3.345-16.113V290.81
			c0-8.295-1.676-16.505-4.928-24.137l-15.184-35.637c-2.182-5.12-7.21-8.443-12.776-8.443l-1.853,0
			c-17.705-22.381-45.102-36.744-75.855-36.744c-30.753,0-58.15,14.363-75.855,36.744l-1.853,0c-5.566,0-10.594,3.323-12.776,8.443
			l-15.184,35.637c-3.252,7.632-4.928,15.842-4.928,24.137v29.575c0,5.543-1.138,11.028-3.345,16.113l-16.829,38.793H84.532v87.644
			l0.021-0.038C85.002,479.93,98.856,495,117.536,495h0c14.254,0,26.894-9.161,31.33-22.707l38.14-116.454
			c16.919,14.549,38.929,23.346,62.994,23.346s46.074-8.796,62.994-23.346l38.14,116.454C355.57,485.839,368.21,495,382.464,495h0
			c18.68,0,32.534-15.07,32.983-32.102l0.021,0.038v-87.644H380.77z"/>
	</g>
</g>
<g>
	<g>
		<path class="st0" d="M139.404,299.226h-6.64c-26.638,0-48.232,21.594-48.232,48.232v27.834h34.698l16.829-38.793
			c0.552-1.271,1.036-2.568,1.453-3.884c0.417-1.316,0.766-2.651,1.046-4.001c0.56-2.7,0.845-5.457,0.845-8.228L139.404,299.226
			L139.404,299.226z"/>
	</g>
</g>
<g>
	<g>
		<path class="st0" d="M367.236,299.226h-6.64h0v21.159c0,2.772,0.285,5.529,0.845,8.228c0.28,1.35,0.629,2.685,1.046,4.001
			c0.417,1.316,0.902,2.612,1.453,3.884l16.829,38.793h34.697v-27.834C415.468,320.82,393.874,299.226,367.236,299.226z"/>
	</g>
</g>
<path class="st4" d="M80.32,267.367c-7.863-20.596-11.958-42.581-11.958-64.821c0-56.832,25.873-109.331,70.984-144.038
	c2.189-1.684,5.328-1.275,7.012,0.914c1.684,2.189,1.274,5.328-0.914,7.012c-42.631,32.799-67.082,82.409-67.082,136.112
	c0,18.642,3.047,37.095,8.918,54.608c1.55-1.104,3.195-2.064,4.931-2.852c-0.06-0.839-0.09-1.677-0.09-2.512
	c0-19.699,16.026-35.725,35.726-35.725c5.614,0,10.99,1.267,15.978,3.767c2.469,1.237,3.467,4.242,2.23,6.71
	c-1.237,2.469-4.24,3.467-6.71,2.23c-3.584-1.797-7.453-2.707-11.498-2.707c-14.185,0-25.726,11.54-25.726,25.725
	c0,1.613,0.157,3.252,0.467,4.871c0.486,2.538-1.042,5.028-3.525,5.744c-3.052,0.88-5.81,2.472-8.114,4.647
	c2.986,7.365,6.473,14.536,10.477,21.44c1.385,2.389,0.572,5.448-1.817,6.834c-0.789,0.458-1.652,0.676-2.503,0.676
	c-1.725,0-3.402-0.893-4.33-2.492c-4.677-8.064-8.688-16.47-12.051-25.12C80.548,268.065,80.42,267.72,80.32,267.367z M250,341.445
	c-8.972,0-17.313,4.04-22.885,11.084c-1.713,2.166-1.346,5.31,0.819,7.023c2.167,1.714,5.311,1.346,7.023-0.819
	c3.664-4.632,9.147-7.288,15.042-7.288s11.378,2.656,15.042,7.288c0.987,1.248,2.449,1.898,3.925,1.898
	c1.086,0,2.181-0.353,3.099-1.079c2.166-1.713,2.533-4.858,0.819-7.023C267.313,345.485,258.972,341.445,250,341.445z M52.15,490
	h-3.813c-2.761,0-5,2.239-5,5s2.239,5,5,5h3.813c2.761,0,5-2.239,5-5S54.912,490,52.15,490z M435.69,495c0,2.761-2.239,5-5,5
	h-90.144c-2.761,0-5-2.239-5-5s2.239-5,5-5h16.213c-4.673-4.298-8.298-9.801-10.377-16.151l-35.907-109.636
	c-17.437,12.912-38.634,19.971-60.475,19.971c-21.841,0-43.039-7.058-60.475-19.971l-35.907,109.635
	c-2.079,6.349-5.704,11.852-10.377,16.151h16.213c2.761,0,5,2.239,5,5s-2.239,5-5,5H69.31c-2.761,0-5-2.239-5-5s2.239-5,5-5h22.423
	c-7.149-6.583-11.739-15.905-12.161-26.427c-0.027-0.209-0.041-0.421-0.041-0.636v-87.644c0-0.071,0.018-0.137,0.021-0.207
	l-0.021-27.624c0-29.356,23.879-53.235,53.231-53.235h1.64v-3.416c0-9.019,1.792-17.799,5.328-26.097l15.185-35.637
	c2.902-6.809,9.472-11.254,16.836-11.464c19.406-23.394,47.783-36.764,78.248-36.764s58.842,13.371,78.247,36.764
	c7.365,0.209,13.935,4.654,16.837,11.464l15.184,35.637c3.536,8.298,5.328,17.078,5.328,26.097v3.416h1.64
	c29.352,0,53.231,23.88,53.231,53.232v27.834v87.644c0,0.216-0.014,0.43-0.041,0.64c-0.422,10.521-5.012,19.842-12.16,26.424h22.423
	C433.451,490,435.69,492.239,435.69,495z M365.596,304.226v16.159c0,4.887,0.986,9.639,2.932,14.123l15.523,35.783h26.417v-22.834
	c0-23.838-19.394-43.232-43.231-43.232H365.596z M89.532,347.458l0.017,22.834h26.399l15.523-35.783
	c1.945-4.484,2.932-9.236,2.932-14.123v-16.159h-1.64C108.926,304.226,89.532,323.62,89.532,347.458z M182.253,354.289
	c0.001-0.002,0.001-0.004,0.001-0.006l4.358-13.306c2.822-8.616,4.252-17.583,4.252-26.65V290.81c0-9.019,1.793-17.8,5.329-26.097
	l8.971-21.055c1.546-3.629,1.185-7.597-0.99-10.888s-5.684-5.178-9.628-5.178h-20.401h0h-1.853c-3.568,0-6.777,2.121-8.176,5.403
	l-15.185,35.637c-3.004,7.051-4.527,14.513-4.527,22.177v29.575c0,6.264-1.264,12.355-3.758,18.103l-16.829,38.793
	c0,0,0,0.001-0.001,0.001l-15.596,35.949c-0.818,1.885-2.658,3.011-4.589,3.011c-0.664,0-1.339-0.133-1.987-0.414
	c-2.534-1.099-3.696-4.044-2.597-6.577l12.564-28.96H89.532v82.148c0.01,0.108,0.017,0.217,0.019,0.326
	C89.954,478.037,102.246,490,117.536,490c12.124,0,22.805-7.741,26.579-19.263L182.253,354.289z M307.183,354.162l-3.299-10.073
	c-3.151-9.623-4.75-19.636-4.75-29.763V290.81c0-7.665-1.523-15.126-4.528-22.177l-8.971-21.055
	c-2.843-6.673-2.153-14.27,1.846-20.321c4-6.051,10.718-9.664,17.971-9.664h9.271c-17.115-17.114-40.169-26.744-64.724-26.744
	c-24.555,0-47.609,9.631-64.724,26.744h9.271c7.253,0,13.972,3.613,17.971,9.664c4,6.051,4.689,13.648,1.847,20.321l-8.972,21.055
	c-3.004,7.051-4.528,14.513-4.528,22.177v23.516c0,10.126-1.598,20.14-4.75,29.763l-3.299,10.073
	c16.195,12.935,36.372,20.023,57.184,20.023C270.812,374.185,290.988,367.097,307.183,354.162z M382.464,490
	c15.291,0,27.583-11.963,27.985-27.234c0.002-0.11,0.009-0.219,0.019-0.327v-82.147h-22.073l12.564,28.96
	c1.099,2.533-0.063,5.478-2.597,6.577c-0.648,0.281-1.323,0.414-1.987,0.414c-1.932,0-3.771-1.126-4.589-3.011l-15.572-35.894
	c-0.009-0.019-0.021-0.036-0.029-0.056l-16.829-38.793c-2.494-5.748-3.758-11.839-3.758-18.103V290.81
	c0-7.664-1.523-15.126-4.528-22.177l-15.184-35.637c-1.399-3.283-4.608-5.404-8.176-5.404h-1.853h-20.402
	c-3.944,0-7.454,1.887-9.628,5.178s-2.536,7.259-0.989,10.888l8.971,21.055c3.536,8.297,5.329,17.078,5.329,26.097v23.516
	c0,9.068,1.431,18.034,4.252,26.65l4.358,13.306l38.14,116.454C359.659,482.259,370.34,490,382.464,490z M451.663,490h-3.813
	c-2.761,0-5,2.239-5,5s2.239,5,5,5h3.813c2.761,0,5-2.239,5-5S454.424,490,451.663,490z M141.583,159.128c-2.761,0-5,2.239-5,5
	s2.239,5,5,5h6.534v6.534c0,2.761,2.239,5,5,5s5-2.239,5-5v-6.534h6.535c2.761,0,5-2.239,5-5s-2.239-5-5-5h-6.535v-6.535
	c0-2.761-2.239-5-5-5s-5,2.239-5,5v6.535H141.583z M341.883,152.594v6.535h-6.535c-2.761,0-5,2.239-5,5s2.239,5,5,5h6.535v6.534
	c0,2.761,2.239,5,5,5s5-2.239,5-5v-6.534h6.534c2.761,0,5-2.239,5-5s-2.239-5-5-5h-6.534v-6.535c0-2.761-2.239-5-5-5
	S341.883,149.832,341.883,152.594z M155.945,52.1c0-0.725,0.025-1.443,0.066-2.158c0.003-0.052,0.001-0.104,0.004-0.157
	c0.024-0.403,0.063-0.803,0.1-1.203c0.012-0.132,0.019-0.266,0.033-0.397c0.127-1.229,0.312-2.441,0.556-3.634
	c0.036-0.178,0.081-0.354,0.12-0.531c0.087-0.397,0.175-0.794,0.274-1.186c0.072-0.283,0.153-0.562,0.23-0.842
	c0.077-0.275,0.152-0.551,0.234-0.824c0.104-0.342,0.216-0.68,0.329-1.018c0.066-0.198,0.132-0.397,0.201-0.593
	c0.137-0.389,0.282-0.773,0.432-1.156c0.051-0.131,0.102-0.262,0.155-0.393c0.174-0.432,0.356-0.86,0.546-1.284
	c0.029-0.065,0.059-0.13,0.088-0.194c2.754-6.068,7.061-11.283,12.416-15.136c0.007-0.005,0.013-0.009,0.02-0.014
	c0.434-0.312,0.874-0.616,1.322-0.91c0.043-0.029,0.088-0.056,0.131-0.084c0.418-0.272,0.84-0.539,1.269-0.794
	c0.09-0.054,0.182-0.104,0.272-0.156c0.391-0.229,0.784-0.456,1.184-0.671c0.194-0.104,0.392-0.2,0.587-0.301
	c0.307-0.158,0.611-0.32,0.922-0.47c0.529-0.255,1.065-0.497,1.607-0.728c0.042-0.018,0.086-0.034,0.128-0.051
	c0.516-0.217,1.038-0.424,1.566-0.618c0.063-0.023,0.127-0.044,0.19-0.067c0.508-0.185,1.021-0.359,1.539-0.522
	c0.076-0.024,0.153-0.045,0.229-0.069c0.507-0.156,1.019-0.302,1.535-0.437c0.086-0.022,0.172-0.043,0.257-0.065
	c0.505-0.128,1.013-0.246,1.526-0.353c0.103-0.022,0.207-0.042,0.31-0.063c0.491-0.098,0.985-0.187,1.483-0.266
	c0.13-0.021,0.259-0.041,0.39-0.06c0.46-0.068,0.922-0.126,1.386-0.177c0.175-0.019,0.351-0.04,0.527-0.057
	c0.134-0.013,0.266-0.032,0.4-0.043c0.29-0.024,0.579-0.036,0.868-0.054c0.206-0.013,0.411-0.029,0.618-0.038
	c0.457-0.021,0.913-0.03,1.368-0.035c0.134-0.001,0.266-0.01,0.401-0.01c0.024,0,0.047,0.002,0.071,0.002
	c1.259,0.002,2.508,0.067,3.746,0.19c0.064,0.006,0.127,0.015,0.191,0.022c0.567,0.059,1.131,0.131,1.693,0.216
	c0.049,0.007,0.097,0.016,0.146,0.023c5.896,0.91,11.461,3.186,16.293,6.69C222.081,8.503,235.177,0,250,0
	c14.823,0,27.919,8.503,34.096,21.423c4.345-3.151,9.285-5.307,14.523-6.373c0.002,0,0.004-0.001,0.006-0.001
	c0.581-0.118,1.165-0.223,1.753-0.314c0.054-0.008,0.108-0.018,0.162-0.026c0.556-0.083,1.114-0.155,1.675-0.213
	c0.069-0.007,0.137-0.017,0.206-0.024c1.236-0.123,2.484-0.188,3.741-0.19c0.024,0,0.048-0.002,0.073-0.002
	c0.137,0,0.272,0.009,0.408,0.01c0.452,0.005,0.904,0.014,1.358,0.034c0.208,0.01,0.414,0.025,0.621,0.038
	c0.289,0.018,0.577,0.029,0.866,0.054c0.135,0.011,0.267,0.03,0.401,0.043c0.176,0.017,0.351,0.037,0.526,0.057
	c0.465,0.051,0.927,0.109,1.387,0.177c0.13,0.019,0.26,0.04,0.389,0.06c0.498,0.079,0.992,0.167,1.483,0.266
	c0.103,0.021,0.207,0.041,0.31,0.063c0.513,0.107,1.023,0.225,1.528,0.354c0.085,0.021,0.17,0.042,0.254,0.064
	c0.518,0.135,1.032,0.282,1.542,0.439c0.074,0.023,0.148,0.043,0.222,0.067c0.521,0.164,1.037,0.339,1.549,0.525
	c0.06,0.022,0.121,0.041,0.181,0.063c0.536,0.198,1.066,0.407,1.591,0.628c0.034,0.014,0.068,0.027,0.102,0.041
	c0.543,0.231,1.081,0.474,1.611,0.729c0.301,0.145,0.594,0.301,0.891,0.454c0.206,0.106,0.416,0.208,0.62,0.318
	c0.396,0.213,0.784,0.437,1.171,0.663c0.094,0.055,0.19,0.108,0.284,0.164c0.425,0.253,0.843,0.518,1.257,0.787
	c0.048,0.031,0.097,0.061,0.145,0.093c0.444,0.292,0.881,0.594,1.312,0.903c0.01,0.007,0.019,0.014,0.029,0.021
	c5.353,3.853,9.658,9.065,12.412,15.131c0.03,0.067,0.061,0.133,0.091,0.2c0.189,0.422,0.37,0.849,0.544,1.279
	c0.054,0.133,0.105,0.266,0.158,0.399c0.149,0.382,0.294,0.765,0.43,1.152c0.07,0.197,0.135,0.395,0.201,0.594
	c0.113,0.338,0.226,0.677,0.329,1.019c0.083,0.273,0.158,0.549,0.235,0.824c0.078,0.28,0.159,0.558,0.23,0.84
	c0.101,0.396,0.189,0.797,0.277,1.198c0.038,0.174,0.081,0.345,0.117,0.52c0.244,1.193,0.43,2.406,0.556,3.636
	c0.013,0.131,0.021,0.263,0.033,0.394c0.037,0.401,0.076,0.801,0.1,1.206v0c0.003,0.053,0.001,0.105,0.004,0.158
	c0.04,0.715,0.066,1.433,0.066,2.158c0,0.043-0.011,0.082-0.013,0.125c-0.023,6.71-1.79,13.24-5.188,19.018
	c-0.158,0.269-0.166,0.605-0.021,0.897c2.026,4.071,2.786,8.63,2.198,13.185c-1.324,10.245-9.724,18.568-19.973,19.792
	c-5.975,0.714-11.891-0.916-16.579-4.438c-6.569,5.046-14.572,7.781-22.982,7.781c-12.822,0-24.604-6.601-31.497-16.921
	c-6.894,10.32-18.675,16.921-31.497,16.921c-8.41,0-16.413-2.735-22.982-7.781c-4.688,3.522-10.602,5.152-16.579,4.438
	c-10.249-1.224-18.648-9.547-19.973-19.792c-0.589-4.556,0.171-9.115,2.198-13.185c0.145-0.291,0.137-0.627-0.021-0.897
	c-3.398-5.779-5.165-12.308-5.188-19.018C155.957,52.182,155.945,52.143,155.945,52.1z M223.633,28.941
	c4.977,6.404,7.951,14.438,7.951,23.158c0,2.761-2.239,5-5,5s-5-2.239-5-5c0-12.459-8.233-23.031-19.544-26.563
	c-0.019-0.006-0.038-0.011-0.056-0.017c-1.085-0.336-2.201-0.6-3.338-0.803c-0.236-0.042-0.47-0.088-0.708-0.124
	c-0.202-0.031-0.408-0.052-0.612-0.078c-0.306-0.039-0.613-0.078-0.921-0.107c-0.193-0.018-0.387-0.03-0.581-0.044
	c-0.32-0.023-0.642-0.044-0.964-0.057c-0.196-0.008-0.392-0.011-0.588-0.015c-0.318-0.006-0.637-0.006-0.957-0.001
	c-0.208,0.003-0.415,0.008-0.622,0.016c-0.291,0.011-0.582,0.029-0.874,0.048c-0.263,0.018-0.527,0.035-0.789,0.06
	c-0.091,0.009-0.181,0.02-0.272,0.029c-0.394,0.043-0.787,0.091-1.177,0.15c-0.034,0.005-0.068,0.011-0.102,0.016
	c-3.643,0.566-7.055,1.841-10.089,3.679c-0.058,0.035-0.115,0.072-0.172,0.108c-0.297,0.183-0.591,0.372-0.881,0.565
	c-0.119,0.08-0.237,0.162-0.354,0.244c-0.223,0.154-0.443,0.31-0.661,0.47c-0.154,0.113-0.306,0.229-0.458,0.346
	c-0.173,0.133-0.344,0.267-0.514,0.404c-0.178,0.144-0.355,0.29-0.53,0.438c-0.134,0.113-0.266,0.229-0.398,0.345
	c-0.197,0.173-0.392,0.347-0.584,0.526c-0.099,0.092-0.197,0.187-0.295,0.281c-0.213,0.205-0.426,0.41-0.633,0.622
	c-0.061,0.062-0.12,0.127-0.181,0.189c-1.33,1.384-2.52,2.903-3.545,4.535c-0.027,0.043-0.056,0.086-0.083,0.13
	c-0.163,0.262-0.318,0.529-0.471,0.797c-0.062,0.107-0.125,0.214-0.185,0.322c-0.131,0.235-0.256,0.474-0.381,0.713
	c-0.077,0.149-0.155,0.298-0.23,0.449c-0.106,0.214-0.208,0.43-0.31,0.647c-0.086,0.185-0.171,0.371-0.253,0.558
	c-0.085,0.194-0.168,0.389-0.249,0.585c-0.091,0.221-0.179,0.444-0.264,0.669c-0.065,0.17-0.129,0.34-0.191,0.512
	c-0.095,0.265-0.185,0.533-0.272,0.802c-0.045,0.138-0.091,0.275-0.134,0.414c-0.1,0.327-0.193,0.657-0.281,0.989
	c-0.023,0.087-0.049,0.173-0.071,0.261c-0.334,1.306-0.576,2.649-0.717,4.021c-0.007,0.07-0.011,0.142-0.018,0.212
	c-0.034,0.352-0.061,0.706-0.081,1.061c-0.308,5.529,0.993,10.944,3.771,15.668c1.879,3.195,2.011,7.091,0.354,10.422
	c-1.141,2.29-1.566,4.866-1.233,7.448c0.746,5.768,5.473,10.455,11.241,11.144c3.784,0.452,7.514-0.753,10.285-3.252V77.302
	c0-2.761,2.239-5,5-5s5,2.239,5,5V91.76c5.04,4.329,11.387,6.698,18.091,6.698c12.277,0,23.255-8.225,26.698-20.002
	c0.624-2.132,2.578-3.597,4.799-3.597c2.221,0,4.176,1.465,4.799,3.597c3.442,11.777,14.42,20.002,26.698,20.002
	c6.704,0,13.051-2.369,18.09-6.698V77.302c0-2.761,2.239-5,5-5s5,2.239,5,5v14.633c2.771,2.498,6.502,3.704,10.285,3.252
	c5.768-0.689,10.495-5.375,11.24-11.144c0.333-2.582-0.092-5.158-1.232-7.447c-1.658-3.331-1.526-7.227,0.353-10.423
	c2.779-4.724,4.079-10.139,3.771-15.668c-0.02-0.357-0.048-0.712-0.081-1.065c-0.007-0.069-0.01-0.14-0.017-0.209
	c-0.141-1.372-0.383-2.715-0.717-4.021c-0.023-0.089-0.049-0.176-0.072-0.264c-0.088-0.331-0.181-0.66-0.281-0.987
	c-0.043-0.139-0.089-0.276-0.134-0.414c-0.087-0.269-0.177-0.537-0.272-0.802c-0.062-0.172-0.126-0.343-0.191-0.513
	c-0.085-0.223-0.173-0.446-0.263-0.666c-0.081-0.197-0.165-0.393-0.25-0.589c-0.081-0.185-0.165-0.37-0.25-0.553
	c-0.102-0.219-0.205-0.437-0.312-0.652c-0.074-0.149-0.151-0.295-0.227-0.442c-0.126-0.241-0.252-0.482-0.384-0.719
	c-0.059-0.106-0.121-0.21-0.181-0.315c-0.155-0.27-0.311-0.539-0.475-0.803c-0.026-0.042-0.054-0.083-0.08-0.125
	c-1.026-1.634-2.218-3.156-3.55-4.541c-0.06-0.062-0.118-0.125-0.178-0.187c-0.207-0.212-0.42-0.418-0.634-0.623
	c-0.098-0.093-0.194-0.188-0.293-0.28c-0.192-0.179-0.388-0.353-0.584-0.526c-0.132-0.116-0.263-0.231-0.397-0.344
	c-0.175-0.148-0.352-0.294-0.531-0.438c-0.169-0.136-0.339-0.27-0.511-0.402c-0.153-0.118-0.307-0.234-0.462-0.349
	c-0.216-0.159-0.435-0.314-0.656-0.467c-0.119-0.082-0.237-0.166-0.358-0.246c-0.287-0.192-0.579-0.379-0.874-0.561
	c-0.061-0.037-0.12-0.076-0.181-0.113c-3.034-1.838-6.444-3.112-10.087-3.678c-0.034-0.005-0.068-0.011-0.102-0.016
	c-0.389-0.059-0.782-0.107-1.176-0.15c-0.091-0.01-0.182-0.021-0.273-0.029c-0.262-0.026-0.527-0.042-0.791-0.06
	c-0.29-0.02-0.58-0.037-0.869-0.048c-0.208-0.008-0.417-0.013-0.626-0.016c-0.319-0.005-0.637-0.004-0.955,0.001
	c-0.196,0.004-0.391,0.007-0.586,0.015c-0.327,0.013-0.652,0.033-0.977,0.057c-0.188,0.014-0.376,0.025-0.563,0.043
	c-0.324,0.03-0.645,0.071-0.966,0.112c-0.187,0.024-0.376,0.044-0.563,0.072c-0.295,0.044-0.587,0.1-0.88,0.154
	c-0.586,0.108-1.166,0.229-1.738,0.373c-0.059,0.015-0.119,0.027-0.177,0.042c-0.391,0.101-0.778,0.213-1.163,0.331
	c-0.061,0.019-0.123,0.036-0.185,0.055c-0.405,0.127-0.807,0.263-1.204,0.408c-0.026,0.009-0.052,0.018-0.077,0.028
	c-10.632,3.914-18.235,14.144-18.235,26.117c0,2.761-2.239,5-5,5s-5-2.239-5-5c0-8.721,2.975-16.755,7.952-23.159
	C272.6,17.676,262.08,10,250,10C237.92,10,227.399,17.676,223.633,28.941z M224.282,117.947v14.668
	c0,13.328-3.148,26.716-9.105,38.719c-1.228,2.474-0.217,5.474,2.256,6.702c0.714,0.354,1.472,0.522,2.219,0.522
	c1.839,0,3.609-1.019,4.482-2.778c6.639-13.377,10.148-28.302,10.148-43.164v-14.668c0-2.761-2.239-5-5-5
	S224.282,115.185,224.282,117.947z M270.719,112.947c-2.761,0-5,2.239-5,5v14.668c0,14.862,3.509,29.788,10.147,43.164
	c0.873,1.759,2.643,2.778,4.482,2.778c0.747,0,1.505-0.168,2.219-0.522c2.474-1.228,3.484-4.228,2.256-6.702
	c-5.956-12.002-9.104-25.39-9.104-38.719v-14.668C275.719,115.185,273.48,112.947,270.719,112.947z M250,108.753
	c-2.761,0-5,2.239-5,5v54.3c0,2.761,2.239,5,5,5s5-2.239,5-5v-54.3C255,110.991,252.761,108.753,250,108.753z M354.556,66.435
	c42.631,32.799,67.082,82.409,67.082,136.112c0,18.642-3.047,37.095-8.918,54.608c-1.55-1.104-3.195-2.064-4.931-2.852
	c0.06-0.839,0.09-1.677,0.09-2.512c0-19.699-16.026-35.725-35.725-35.725c-5.882,0-11.715,1.462-16.869,4.229
	c-2.433,1.306-3.346,4.337-2.04,6.77c1.306,2.433,4.338,3.346,6.771,2.04c3.704-1.989,7.901-3.04,12.138-3.04
	c14.185,0,25.725,11.54,25.725,25.725c0,1.616-0.157,3.254-0.467,4.87c-0.486,2.539,1.042,5.03,3.525,5.746
	c3.052,0.88,5.81,2.472,8.114,4.647c-2.986,7.365-6.473,14.536-10.477,21.44c-1.385,2.389-0.572,5.448,1.817,6.834
	c0.79,0.458,1.652,0.676,2.503,0.676c1.725,0,3.403-0.893,4.33-2.492c4.677-8.064,8.688-16.471,12.051-25.121
	c0.176-0.325,0.305-0.669,0.404-1.021c7.863-20.596,11.959-42.583,11.959-64.822c0-56.832-25.873-109.331-70.984-144.038
	c-2.189-1.684-5.328-1.275-7.012,0.914C351.958,61.612,352.368,64.751,354.556,66.435z"/>
</svg>
