<?xml version="1.0" encoding="utf-8"?>
<!-- Generator: Adobe Illustrator 23.0.0, SVG Export Plug-In . SVG Version: 6.00 Build 0)  -->
<svg version="1.1" id="Layer_1" xmlns="http://www.w3.org/2000/svg" xmlns:xlink="http://www.w3.org/1999/xlink" x="0px" y="0px"
	 viewBox="0 0 500 500" style="enable-background:new 0 0 500 500;" xml:space="preserve">
<style type="text/css">
	.st0{fill:#83E1E5;}
	.st1{fill:#AAB1BA;}
	.st2{fill:#FDDF7F;}
	.st3{fill:#ECF4F7;}
	.st4{fill:#1C1D21;}
</style>
<g>
	<g>
		<path class="st1" d="M250,44.704c-91.021,0-164.808,73.787-164.808,164.808c0,34.687,10.73,66.861,29.033,93.411
			c5.708-2.379,11.969-3.697,18.539-3.697h6.64h0v-8.416c0-8.295,1.676-16.505,4.928-24.137l15.185-35.637
			c2.182-5.12,7.21-8.444,12.776-8.444l1.853,0c17.705-22.381,45.102-36.744,75.855-36.744s58.15,14.363,75.855,36.744l1.853,0
			c5.566,0,10.594,3.323,12.776,8.444l15.185,35.637c3.252,7.632,4.928,15.842,4.928,24.137v8.416h0h6.64
			c6.57,0,12.831,1.319,18.539,3.697c18.303-26.551,29.033-58.724,29.033-93.411C414.808,118.491,341.021,44.704,250,44.704z"/>
	</g>
</g>
<g>
	<g>
		<path class="st3" d="M313.146,92.178c0-34.874-28.271-63.145-63.146-63.145s-63.146,28.271-63.146,63.145
			c0,24.982,14.51,46.57,35.559,56.811c-4.843,5.869-7.752,13.392-7.752,21.595v21.929c10.946-4.302,22.866-6.665,35.339-6.665
			s24.393,2.363,35.339,6.665v-21.929c0-8.203-2.909-15.726-7.752-21.595C298.636,138.748,313.146,117.16,313.146,92.178z"/>
	</g>
</g>
<g>
	<g>
		<path class="st2" d="M250,29.033c-23.969,0-44.818,13.354-55.514,33.028l118.659,30.118C313.146,57.304,284.874,29.033,250,29.033
			z"/>
	</g>
</g>
<g>
	<g>
		<path class="st0" d="M351.134,472.293l-38.14-116.454c-16.919,14.549-38.928,23.346-62.994,23.346s-46.074-8.797-62.994-23.346
			l-38.14,116.454C144.43,485.839,131.79,495,117.536,495h264.928C368.21,495,355.57,485.839,351.134,472.293z"/>
	</g>
</g>
<g>
	<g>
		<path class="st2" d="M380.77,375.292l-16.829-38.793c-2.206-5.085-3.345-10.57-3.345-16.113V290.81
			c0-8.295-1.676-16.505-4.928-24.137l-15.185-35.637c-2.182-5.12-7.21-8.443-12.776-8.443l-1.853,0
			c-17.705-22.381-45.102-36.744-75.855-36.744s-58.15,14.363-75.855,36.744l-1.853,0c-5.566,0-10.594,3.323-12.776,8.443
			l-15.185,35.637c-3.252,7.632-4.928,15.842-4.928,24.137v29.575c0,5.543-1.138,11.028-3.345,16.113l-16.829,38.793H84.532v87.644
			l0.021-0.038C85.002,479.93,98.856,495,117.536,495h0c14.254,0,26.894-9.161,31.33-22.707l38.14-116.454
			c16.919,14.549,38.928,23.346,62.994,23.346s46.074-8.796,62.994-23.346l38.14,116.454C355.57,485.839,368.21,495,382.464,495h0
			c18.68,0,32.534-15.07,32.983-32.102l0.021,0.038v-87.644H380.77z"/>
	</g>
</g>
<g>
	<g>
		<path class="st0" d="M139.404,299.226h-6.64c-26.637,0-48.231,21.594-48.231,48.232v27.834h34.698l16.829-38.793
			c0.552-1.271,1.036-2.568,1.453-3.884s0.766-2.651,1.046-4.001c0.561-2.7,0.845-5.457,0.845-8.228L139.404,299.226
			L139.404,299.226z"/>
	</g>
</g>
<g>
	<g>
		<path class="st0" d="M367.236,299.226h-6.64h0v21.159c0,2.772,0.285,5.529,0.845,8.228c0.28,1.35,0.629,2.685,1.046,4.001
			s0.902,2.612,1.453,3.884l16.829,38.793h34.698v-27.834C415.468,320.82,393.874,299.226,367.236,299.226z"/>
	</g>
</g>
<path class="st4" d="M181.854,92.178c0,18.393,7.216,35.633,20.319,48.543c3.952,3.894,8.294,7.242,12.932,10.018
	c-3.534,5.974-5.445,12.839-5.445,19.845v6.598c0,2.761,2.238,5,5,5s5-2.239,5-5v-6.598c0-5.443,1.568-10.761,4.427-15.337
	c8.111,3.333,16.871,5.077,25.902,5.076c0.346,0,0.693-0.003,1.04-0.008c8.629-0.128,17.032-1.893,24.846-5.127
	c2.882,4.589,4.463,9.929,4.463,15.395v6.598c0,2.761,2.238,5,5,5s5-2.239,5-5v-6.598c0-7.032-1.925-13.922-5.484-19.912
	c4.616-2.773,8.938-6.112,12.871-9.981c12.607-12.399,19.848-28.865,20.387-46.365c0.019-0.623,0.019-1.244,0.021-1.864
	c0.003-0.058,0-0.115,0.002-0.174c0.005-9.352-1.939-18.441-5.51-26.78c-0.139-0.557-0.365-1.082-0.681-1.556
	c-7.053-15.409-19.724-28.079-35.934-34.778c-2.552-1.054-5.476,0.159-6.531,2.711c-1.055,2.552,0.159,5.476,2.711,6.531
	c10.477,4.329,19.22,11.583,25.462,20.56l-73.726-18.713c6.376-3.244,13.423-5.342,20.877-6.002
	c5.079-0.449,9.793-2.976,12.934-6.932c5.198-6.548,5.356-15.816,0.384-22.54l-2.047-2.764c-1.643-2.219-4.772-2.688-6.993-1.045
	c-2.22,1.643-2.688,4.774-1.045,6.993l2.046,2.763c2.288,3.094,2.216,7.36-0.177,10.374c-1.443,1.818-3.623,2.98-5.982,3.188
	c-13.145,1.163-25.526,6.11-35.809,14.141c-0.032,0.027-0.067,0.049-0.099,0.077c-2.899,2.273-5.64,4.778-8.172,7.529
	c-3.841,4.174-7.096,8.768-9.751,13.661c-0.045,0.085-0.094,0.166-0.135,0.253C184.68,69.783,181.854,80.81,181.854,92.178z
	 M250.881,150.317c-9.19,0.135-18.079-1.862-26.119-5.742c-0.009-0.005-0.018-0.009-0.027-0.013
	c-5.671-2.741-10.922-6.41-15.543-10.963c-11.181-11.016-17.338-25.726-17.338-41.42c0-8.6,1.94-16.829,5.398-24.257l110.75,28.11
	C306.024,125.708,280.823,149.875,250.881,150.317z M304.051,70.918c1.857,4.69,3.117,9.639,3.705,14.734L202.454,58.924
	c2.919-4.153,6.365-7.919,10.241-11.194L304.051,70.918z M98.728,286.694c-12.3-24.048-18.536-50.016-18.536-77.182
	c0-32.221,9.064-63.578,26.214-90.679c16.687-26.37,40.254-47.633,68.152-61.491c2.476-1.228,5.475-0.219,6.702,2.254
	c1.229,2.473,0.22,5.474-2.253,6.702c-54.783,27.211-88.815,82.087-88.815,143.214c0,25.567,5.867,50.003,17.438,72.629
	c1.258,2.458,0.284,5.471-2.175,6.728c-0.729,0.373-1.506,0.55-2.272,0.55C101.365,289.418,99.611,288.424,98.728,286.694z
	 M319.638,60.012c1.244-2.466,4.251-3.457,6.716-2.213c27.656,13.945,51.001,35.199,67.512,61.463
	c16.973,27,25.943,58.208,25.943,90.25c0,27.166-6.236,53.134-18.536,77.182c-0.884,1.729-2.638,2.724-4.455,2.724
	c-0.767,0-1.544-0.177-2.272-0.55c-2.459-1.257-3.433-4.27-2.175-6.728c11.571-22.625,17.438-47.061,17.438-72.629
	c0-60.716-33.703-115.428-87.957-142.784C319.386,65.484,318.395,62.478,319.638,60.012z M272.885,352.529
	c1.714,2.166,1.347,5.31-0.818,7.024c-0.918,0.726-2.013,1.079-3.1,1.079c-1.476,0-2.938-0.651-3.924-1.898
	c-3.665-4.632-9.147-7.288-15.043-7.288s-11.378,2.656-15.043,7.288c-1.712,2.166-4.856,2.532-7.023,0.819
	c-2.165-1.713-2.532-4.858-0.818-7.024c5.572-7.044,13.914-11.084,22.885-11.084S267.313,345.485,272.885,352.529z M268.414,125.826
	c1.714,2.166,1.347,5.31-0.818,7.023c-0.919,0.726-2.013,1.079-3.1,1.079c-1.476,0-2.938-0.651-3.924-1.898
	c-2.576-3.255-6.429-5.123-10.572-5.123s-7.996,1.867-10.572,5.123c-1.712,2.166-4.856,2.532-7.023,0.819
	c-2.165-1.713-2.532-4.858-0.818-7.023c4.483-5.668,11.195-8.918,18.414-8.918S263.931,120.159,268.414,125.826z M57.15,495
	c0,2.761-2.238,5-5,5h-3.813c-2.762,0-5-2.239-5-5s2.238-5,5-5h3.813C54.912,490,57.15,492.239,57.15,495z M430.689,490h-22.424
	c7.147-6.581,11.737-15.9,12.16-26.418c0.028-0.212,0.042-0.427,0.042-0.646v-87.644v-27.834c0-29.352-23.88-53.232-53.231-53.232
	h-1.64v-3.416c0-9.019-1.793-17.799-5.329-26.097l-15.184-35.638c-2.903-6.809-9.473-11.254-16.837-11.463
	c-19.405-23.394-47.782-36.764-78.247-36.764c-30.465,0-58.843,13.371-78.249,36.764c-7.363,0.209-13.933,4.654-16.835,11.464
	l-15.184,35.637c-3.536,8.298-5.329,17.079-5.329,26.097v3.416h-1.64c-29.352,0-53.231,23.88-53.231,53.235l0.021,27.619
	c-0.003,0.072-0.021,0.139-0.021,0.211v87.644c0,0.217,0.014,0.431,0.041,0.642c0.423,10.52,5.013,19.84,12.162,26.422H69.311
	c-2.762,0-5,2.239-5,5s2.238,5,5,5h90.144c2.762,0,5-2.239,5-5s-2.238-5-5-5H143.24c4.673-4.298,8.298-9.801,10.378-16.151
	l35.906-109.636c17.437,12.912,38.635,19.971,60.475,19.971s43.038-7.059,60.475-19.971l35.906,109.636
	c2.08,6.349,5.704,11.852,10.378,16.151h-16.214c-2.762,0-5,2.239-5,5s2.238,5,5,5h90.144c2.762,0,5-2.239,5-5
	S433.451,490,430.689,490z M367.236,304.226c23.838,0,43.231,19.394,43.231,43.232v22.834h-26.416l-15.524-35.783
	c-1.944-4.483-2.931-9.235-2.931-14.123v-16.159H367.236z M132.764,304.226h1.64v16.159c0,4.889-0.986,9.641-2.931,14.123
	l-15.524,35.783H89.55l-0.018-22.834C89.532,323.62,108.926,304.226,132.764,304.226z M144.114,470.737
	C140.341,482.259,129.66,490,117.536,490c-15.29,0-27.582-11.963-27.984-27.234c-0.003-0.111-0.01-0.222-0.02-0.332v-82.143h22.078
	l-12.563,28.96c-1.099,2.533,0.063,5.478,2.597,6.577c0.648,0.281,1.323,0.414,1.987,0.414c1.933,0,3.772-1.126,4.59-3.011
	l15.597-35.951c0-0.001,0-0.002,0.001-0.003l16.828-38.789c2.493-5.746,3.757-11.837,3.757-18.103V290.81
	c0-7.664,1.523-15.125,4.528-22.177l15.184-35.636c1.399-3.283,4.609-5.404,8.177-5.404h1.853h20.402
	c3.944,0,7.453,1.887,9.628,5.178c2.175,3.291,2.535,7.259,0.989,10.888l-8.971,21.055c-3.535,8.297-5.328,17.077-5.328,26.097
	v23.516c0,9.067-1.431,18.033-4.254,26.65l-4.357,13.306L144.114,470.737z M250,374.185c-20.812,0-40.988-7.088-57.184-20.023
	l3.299-10.072c3.151-9.623,4.75-19.637,4.75-29.763V290.81c0-7.665,1.523-15.127,4.527-22.177l8.971-21.055
	c2.844-6.673,2.153-14.27-1.846-20.322s-10.717-9.664-17.971-9.664h-9.271c17.115-17.114,40.17-26.744,64.725-26.744
	c24.556,0,47.609,9.631,64.724,26.744h-9.271c-7.254,0-13.972,3.613-17.972,9.665c-3.999,6.051-4.689,13.648-1.846,20.321
	l8.972,21.055c3.004,7.053,4.527,14.514,4.527,22.178v23.516c0,10.125,1.598,20.138,4.749,29.763l3.3,10.072
	C290.988,367.097,270.812,374.185,250,374.185z M355.886,470.737l-38.139-116.453c0,0,0-0.001,0-0.001l-4.358-13.305
	c-2.822-8.618-4.253-17.584-4.253-26.651V290.81c0-9.018-1.793-17.798-5.328-26.097l-8.972-21.055
	c-1.546-3.628-1.186-7.597,0.989-10.887c2.175-3.291,5.685-5.178,9.629-5.178h20.401c0,0,0,0,0,0c0,0,0,0,0,0h1.853
	c3.567,0,6.777,2.121,8.177,5.403l15.184,35.637c3.005,7.052,4.528,14.513,4.528,22.177v29.575c0,6.266,1.264,12.357,3.757,18.103
	l16.83,38.793c0.008,0.018,0.019,0.033,0.027,0.051l15.574,35.899c0.817,1.885,2.657,3.011,4.59,3.011
	c0.664,0,1.339-0.133,1.987-0.414c2.533-1.099,3.695-4.044,2.597-6.577l-12.563-28.96h22.073v82.142
	c-0.01,0.11-0.017,0.221-0.02,0.333C410.046,478.037,397.754,490,382.464,490C370.34,490,359.659,482.259,355.886,470.737z
	 M456.663,495c0,2.761-2.238,5-5,5h-3.813c-2.762,0-5-2.239-5-5s2.238-5,5-5h3.813C454.425,490,456.663,492.239,456.663,495z
	 M127.729,188.716v-6.534h-6.535c-2.762,0-5-2.239-5-5s2.238-5,5-5h6.535v-6.534c0-2.761,2.238-5,5-5s5,2.239,5,5v6.534h6.534
	c2.762,0,5,2.239,5,5s-2.238,5-5,5h-6.534v6.534c0,2.761-2.238,5-5,5S127.729,191.478,127.729,188.716z M362.271,188.716v-6.534
	h-6.534c-2.762,0-5-2.239-5-5s2.238-5,5-5h6.534v-6.534c0-2.761,2.238-5,5-5s5,2.239,5,5v6.534h6.535c2.762,0,5,2.239,5,5
	s-2.238,5-5,5h-6.535v6.534c0,2.761-2.238,5-5,5S362.271,191.478,362.271,188.716z"/>
</svg>
