<?xml version="1.0" encoding="utf-8"?>
<!-- Generator: Adobe Illustrator 23.0.0, SVG Export Plug-In . SVG Version: 6.00 Build 0)  -->
<svg version="1.1" id="Layer_1" xmlns="http://www.w3.org/2000/svg" xmlns:xlink="http://www.w3.org/1999/xlink" x="0px" y="0px"
	 viewBox="0 0 500 500" style="enable-background:new 0 0 500 500;" xml:space="preserve">
<style type="text/css">
	.st0{fill:#83E1E5;}
	.st1{fill:#AAB1BA;}
	.st2{fill:#FDDF7F;}
	.st3{fill:#ECF4F7;}
	.st4{fill:#1C1D21;}
</style>
<g>
	<path class="st1" d="M309.619,206.431V55.836c-8.988-3.489-18.355-6.217-28.027-8.095v59.428c0,2.946-1.059,5.794-2.983,8.024
		l-15.204,17.623v14.829c0,2.623-2.127,4.75-4.75,4.75h-17.311c-2.623,0-4.75-2.127-4.75-4.75v-14.829l-15.204-17.623
		c-1.924-2.231-2.983-5.078-2.983-8.024V47.741C142.502,62.479,85.192,129.298,85.192,209.512c0,34.687,10.73,66.861,29.033,93.411
		h0c5.708-2.379,11.968-3.697,18.538-3.697h6.64h0v-8.416c0-8.295,1.676-16.505,4.928-24.137l15.184-35.637
		c2.182-5.12,7.21-8.443,12.776-8.443l1.853,0c17.705-22.381,45.102-36.744,75.855-36.744
		C272.498,185.848,293.194,193.542,309.619,206.431C309.619,206.432,309.619,206.432,309.619,206.431z"/>
</g>
<g>
	<path class="st1" d="M331.27,66.116v156.95c0,0,0,0-0.001,0c4.073,1.081,7.512,3.974,9.215,7.97l15.184,35.637
		c3.252,7.632,4.928,15.842,4.928,24.137v8.416h0h6.64c6.57,0,12.83,1.319,18.538,3.697h0
		c18.303-26.551,29.033-58.724,29.033-93.411C414.808,148.044,381.155,94.445,331.27,66.116z"/>
</g>
<g>
	<path class="st3" d="M325.855,222.593l1.853,0c1.222,0,2.415,0.169,3.561,0.473V5h-21.651v201.431
		C315.646,211.161,321.102,216.585,325.855,222.593z"/>
</g>
<g>
	<g>
		<path class="st0" d="M351.134,472.293l-38.14-116.454c-16.919,14.549-38.929,23.346-62.994,23.346s-46.074-8.797-62.994-23.346
			l-38.14,116.454C144.43,485.839,131.79,495,117.536,495h264.928C368.21,495,355.57,485.839,351.134,472.293z"/>
	</g>
</g>
<g>
	<g>
		<path class="st2" d="M380.77,375.292l-16.829-38.793c-2.206-5.085-3.345-10.57-3.345-16.113V290.81
			c0-8.295-1.676-16.505-4.928-24.137l-15.184-35.637c-2.182-5.12-7.21-8.443-12.776-8.443l-1.853,0
			c-17.705-22.381-45.102-36.744-75.855-36.744s-58.15,14.363-75.855,36.744l-1.853,0c-5.566,0-10.594,3.323-12.776,8.443
			l-15.184,35.637c-3.252,7.632-4.928,15.842-4.928,24.137v29.575c0,5.543-1.138,11.028-3.345,16.113l-16.829,38.793H84.532v87.644
			l0.021-0.038C85.002,479.93,98.856,495,117.536,495h0c14.254,0,26.894-9.161,31.33-22.707l38.14-116.454
			c16.919,14.549,38.929,23.346,62.994,23.346s46.074-8.796,62.994-23.346l38.14,116.454C355.57,485.839,368.21,495,382.464,495h0
			c18.68,0,32.534-15.07,32.983-32.102l0.021,0.038v-87.644H380.77z"/>
	</g>
</g>
<g>
	<g>
		<path class="st0" d="M139.404,299.226h-6.64c-26.638,0-48.232,21.594-48.232,48.232v27.834h34.697l16.829-38.793
			c0.552-1.271,1.036-2.568,1.453-3.884c0.417-1.316,0.766-2.651,1.046-4.001c0.56-2.7,0.845-5.457,0.845-8.228L139.404,299.226
			L139.404,299.226z"/>
	</g>
</g>
<g>
	<g>
		<path class="st0" d="M367.236,299.226h-6.64h0v21.159c0,2.772,0.285,5.529,0.845,8.228c0.28,1.35,0.629,2.685,1.046,4.001
			c0.417,1.316,0.902,2.612,1.453,3.884l16.829,38.793h34.697v-27.834C415.468,320.82,393.874,299.226,367.236,299.226z"/>
	</g>
</g>
<g>
	<path class="st3" d="M236.595,132.817v14.829c0,2.623,2.126,4.75,4.75,4.75h17.311c2.623,0,4.75-2.126,4.75-4.75v-14.829H236.595z"
		/>
</g>
<g>
	<path class="st0" d="M218.408,39.745v67.424c0,2.946,1.059,5.794,2.983,8.024l15.204,17.623h26.81l15.204-17.623
		c1.924-2.23,2.983-5.078,2.983-8.024V39.745c0-6.784-5.5-12.284-12.284-12.284h-38.616
		C223.908,27.461,218.408,32.961,218.408,39.745z"/>
</g>
<g>
	<path class="st3" d="M281.592,52.55V39.745c0-6.784-5.5-12.284-12.284-12.284h-38.616c-6.784,0-12.284,5.5-12.284,12.284V52.55
		H281.592z"/>
</g>
<path class="st4" d="M100.927,290.644c-13.565-24.84-20.735-52.895-20.735-81.132c0-36.886,11.626-71.966,33.622-101.447
	c21.262-28.498,51.561-50.023,85.315-60.608c2.634-0.826,5.44,0.64,6.267,3.275c0.826,2.635-0.64,5.441-3.275,6.267
	c-66.949,20.995-111.93,82.286-111.93,152.513c0,26.567,6.747,52.964,19.511,76.339c1.324,2.424,0.432,5.461-1.992,6.785
	c-0.761,0.416-1.582,0.613-2.392,0.613C103.549,293.248,101.834,292.307,100.927,290.644z M349.486,71.884
	c-2.237-1.62-5.363-1.119-6.982,1.117c-1.62,2.237-1.119,5.363,1.117,6.982c41.445,30.009,66.188,78.431,66.188,129.528
	c0,26.567-6.747,52.964-19.511,76.339c-1.324,2.424-0.432,5.461,1.992,6.785c0.761,0.416,1.582,0.613,2.392,0.613
	c1.77,0,3.485-0.942,4.393-2.605c13.565-24.84,20.735-52.895,20.735-81.132c0-27.302-6.635-54.442-19.188-78.484
	C388.474,107.763,370.792,87.311,349.486,71.884z M250,341.445c-8.972,0-17.313,4.04-22.885,11.084
	c-1.713,2.166-1.346,5.31,0.819,7.023c2.167,1.714,5.311,1.346,7.023-0.819c3.664-4.632,9.147-7.288,15.042-7.288
	s11.378,2.656,15.042,7.288c0.987,1.248,2.449,1.898,3.925,1.898c1.086,0,2.181-0.353,3.099-1.079
	c2.166-1.713,2.533-4.858,0.819-7.023C267.313,345.485,258.972,341.445,250,341.445z M52.15,490h-3.813c-2.761,0-5,2.239-5,5
	s2.239,5,5,5h3.813c2.761,0,5-2.239,5-5S54.912,490,52.15,490z M435.69,495c0,2.761-2.239,5-5,5h-90.144c-2.761,0-5-2.239-5-5
	s2.239-5,5-5h16.213c-4.673-4.298-8.298-9.801-10.377-16.151l-35.907-109.636c-17.437,12.912-38.634,19.971-60.475,19.971
	c-21.841,0-43.039-7.058-60.475-19.971l-35.907,109.635c-2.079,6.349-5.704,11.852-10.377,16.151h16.213c2.761,0,5,2.239,5,5
	s-2.239,5-5,5H69.31c-2.761,0-5-2.239-5-5s2.239-5,5-5h22.423c-7.149-6.583-11.739-15.905-12.161-26.427
	c-0.027-0.209-0.041-0.421-0.041-0.636v-87.644c0-0.071,0.018-0.137,0.021-0.207l-0.021-27.624
	c0-29.356,23.879-53.235,53.231-53.235h1.64v-3.416c0-9.019,1.792-17.799,5.328-26.097l15.185-35.637
	c2.905-6.817,9.486-11.264,16.86-11.465c14.347-17.266,34.102-29.422,55.918-34.307c5.664-1.268,11.465-2.043,17.306-2.328v-23.581
	h-3.656c-5.376,0-9.75-4.374-9.75-9.75v-12.971l-13.989-16.216c-2.707-3.137-4.197-7.147-4.197-11.29V39.745
	c0-9.53,7.753-17.284,17.284-17.284h2.004v-5.157c0-2.612,0.599-5.081,1.639-7.304h-15.927c-2.761,0-5-2.239-5-5s2.239-5,5-5h91.21
	h21.651h61.037c2.761,0,5,2.239,5,5s-2.239,5-5,5H336.27v193.483c0,2.761-2.239,5-5,5s-5-2.239-5-5V10h-11.651v176.848
	c0,2.761-2.239,5-5,5s-5-2.239-5-5V10h-38.954c1.041,2.223,1.639,4.692,1.639,7.304v5.157h2.004c9.53,0,17.284,7.754,17.284,17.284
	v67.424c0,4.143-1.491,8.153-4.197,11.29l-13.989,16.216v12.971c0,5.376-4.374,9.75-9.75,9.75H255v23.581
	c28.555,1.379,54.908,14.527,73.247,36.635c7.365,0.209,13.935,4.654,16.837,11.464l15.184,35.637
	c3.536,8.298,5.328,17.078,5.328,26.097v3.416h1.64c29.352,0,53.231,23.88,53.231,53.232v27.834v87.644
	c0,0.216-0.014,0.43-0.041,0.64c-0.422,10.521-5.012,19.842-12.16,26.424h22.423C433.451,490,435.69,492.239,435.69,495z
	 M242.696,22.461h14.608v-5.157c0-4.028-3.277-7.304-7.304-7.304s-7.304,3.277-7.304,7.304V22.461z M223.408,39.745v7.805h53.184
	v-7.805c0-4.016-3.268-7.284-7.284-7.284h-38.616C226.676,32.461,223.408,35.729,223.408,39.745z M225.177,111.927l13.708,15.89
	h22.23l13.708-15.889c1.141-1.322,1.769-3.012,1.769-4.758V57.55h-53.184v12.691h15.762c2.761,0,5,2.239,5,5s-2.239,5-5,5h-15.762
	v13.511h15.762c2.761,0,5,2.239,5,5s-2.239,5-5,5h-15.762v3.418C223.408,108.916,224.036,110.605,225.177,111.927z M241.595,147.396
	h16.811v-9.579h-16.811V147.396z M365.596,304.226v16.159c0,4.887,0.986,9.639,2.932,14.123l15.523,35.783h26.417v-22.834
	c0-23.838-19.394-43.232-43.231-43.232H365.596z M89.532,347.458l0.017,22.834h26.399l15.523-35.783
	c1.945-4.484,2.932-9.236,2.932-14.123v-16.159h-1.64C108.926,304.226,89.532,323.62,89.532,347.458z M182.253,354.289
	c0.001-0.002,0.001-0.004,0.001-0.006l4.358-13.306c2.822-8.616,4.252-17.583,4.252-26.65V290.81c0-9.019,1.793-17.8,5.329-26.097
	l8.971-21.055c1.546-3.629,1.185-7.597-0.99-10.888s-5.684-5.178-9.628-5.178h-20.401h0h-1.853c-3.568,0-6.777,2.121-8.176,5.403
	l-15.185,35.637c-3.004,7.051-4.527,14.513-4.527,22.177v29.575c0,6.264-1.264,12.355-3.758,18.103l-16.829,38.793
	c0,0,0,0.001-0.001,0.001l-15.596,35.949c-0.818,1.885-2.658,3.011-4.589,3.011c-0.664,0-1.339-0.133-1.987-0.414
	c-2.534-1.099-3.696-4.044-2.597-6.577l12.564-28.96H89.532v82.148c0.01,0.108,0.017,0.217,0.019,0.326
	C89.954,478.037,102.246,490,117.536,490c12.124,0,22.805-7.741,26.579-19.263L182.253,354.289z M307.183,354.162l-3.299-10.073
	c-3.151-9.623-4.75-19.636-4.75-29.763V290.81c0-7.665-1.523-15.126-4.528-22.177l-8.971-21.055
	c-2.843-6.673-2.153-14.27,1.846-20.321c4-6.051,10.718-9.664,17.971-9.664h9.271c-17.115-17.114-40.169-26.744-64.724-26.744
	c-6.79,0-13.559,0.745-20.12,2.214c-16.851,3.773-32.352,12.353-44.584,24.53h9.251c7.253,0,13.972,3.613,17.971,9.664
	c4,6.051,4.689,13.648,1.847,20.321l-8.972,21.055c-3.004,7.051-4.528,14.513-4.528,22.177v23.516c0,10.126-1.598,20.14-4.75,29.763
	l-3.299,10.073c16.195,12.935,36.372,20.023,57.184,20.023C270.812,374.185,290.988,367.097,307.183,354.162z M382.464,490
	c15.291,0,27.583-11.963,27.985-27.234c0.002-0.11,0.009-0.219,0.019-0.327v-82.147h-22.073l12.564,28.96
	c1.099,2.533-0.063,5.478-2.597,6.577c-0.648,0.281-1.323,0.414-1.987,0.414c-1.932,0-3.771-1.126-4.589-3.011l-15.572-35.894
	c-0.009-0.019-0.021-0.036-0.029-0.056l-16.829-38.793c-2.494-5.748-3.758-11.839-3.758-18.103V290.81
	c0-7.664-1.523-15.126-4.528-22.177l-15.184-35.637c-1.399-3.283-4.608-5.404-8.176-5.404h-1.853h-20.402
	c-3.944,0-7.454,1.887-9.628,5.178s-2.536,7.259-0.989,10.888l8.971,21.055c3.536,8.297,5.329,17.078,5.329,26.097v23.516
	c0,9.068,1.431,18.034,4.252,26.65l4.358,13.306l38.14,116.454C359.659,482.259,370.34,490,382.464,490z M451.663,490h-3.813
	c-2.761,0-5,2.239-5,5s2.239,5,5,5h3.813c2.761,0,5-2.239,5-5S454.424,490,451.663,490z M119.228,246.224c2.761,0,5-2.239,5-5
	v-6.535h6.535c2.761,0,5-2.239,5-5s-2.239-5-5-5h-6.535v-6.535c0-2.761-2.239-5-5-5s-5,2.239-5,5v6.535h-6.535c-2.761,0-5,2.239-5,5
	s2.239,5,5,5h6.535v6.535C114.228,243.986,116.467,246.224,119.228,246.224z M380.772,246.224c2.761,0,5-2.239,5-5v-6.535h6.535
	c2.761,0,5-2.239,5-5s-2.239-5-5-5h-6.535v-6.535c0-2.761-2.239-5-5-5s-5,2.239-5,5v6.535h-6.535c-2.761,0-5,2.239-5,5s2.239,5,5,5
	h6.535v6.535C375.772,243.986,378.011,246.224,380.772,246.224z"/>
</svg>
