<?xml version="1.0" encoding="utf-8"?>
<!-- Generator: Adobe Illustrator 23.0.0, SVG Export Plug-In . SVG Version: 6.00 Build 0)  -->
<svg version="1.1" id="Layer_1" xmlns="http://www.w3.org/2000/svg" xmlns:xlink="http://www.w3.org/1999/xlink" x="0px" y="0px"
	 viewBox="0 0 500 500" style="enable-background:new 0 0 500 500;" xml:space="preserve">
<style type="text/css">
	.st0{fill:#83E1E5;}
	.st1{fill:#AAB1BA;}
	.st2{fill:#FDDF7F;}
	.st3{fill:#ECF4F7;}
	.st4{fill:#1C1D21;}
</style>
<g>
	<path class="st1" d="M336.828,255.365h-8.462c-18.793,22.333-46.922,36.525-78.365,36.525c-31.443,0-59.572-14.192-78.365-36.525
		h-8.462c-33.463,0-60.591,27.186-60.591,60.721v103.302c0,11.106,9.002,20.109,20.106,20.109h4.436V495h245.752v-55.503h4.436
		c11.104,0,20.106-9.003,20.106-20.109V316.086C397.418,282.551,370.291,255.365,336.828,255.365z"/>
</g>
<g>
	<g>
		<path class="st2" d="M340.13,338.756v50.059h-83.823h-12.841h-83.823v-50.059h-57.06v80.631c0,11.106,9.002,20.109,20.106,20.109
			h120.777h12.841h121.005c11.104,0,20.106-9.003,20.106-20.109v-80.631H340.13z"/>
	</g>
</g>
<g>
	<path class="st1" d="M341.881,86.803H313.19V13.117c0-4.483-3.634-8.117-8.117-8.117H194.928c-4.483,0-8.117,3.634-8.117,8.117
		v73.686H158.12c-5.838,0-10.571,4.732-10.571,10.57s4.733,10.57,10.571,10.57h183.761c5.838,0,10.571-4.732,10.571-10.57
		S347.719,86.803,341.881,86.803z"/>
</g>
<g>
	<g>
		<path class="st2" d="M255.555,86.803c-1.839-0.099-3.691-0.151-5.555-0.151s-3.715,0.053-5.555,0.151H255.555z"/>
	</g>
	<g>
		<path class="st2" d="M312.478,107.943H187.523c-24.308,18.764-39.974,48.211-39.974,81.327c0,56.676,45.869,102.62,102.451,102.62
			c56.582,0,102.451-45.944,102.451-102.62C352.452,156.154,336.786,126.707,312.478,107.943z"/>
	</g>
</g>
<g>
	<g>
		<path class="st3" d="M300.837,219.369c-4.521-3.928-11.369-3.448-15.297,1.072c-8.984,10.337-21.914,16.309-35.54,16.453
			c-13.626-0.145-26.556-6.116-35.54-16.453c-3.928-4.52-10.776-5-15.297-1.072c-4.52,3.929-5,10.777-1.072,15.297
			c13.105,15.079,32.001,23.769,51.908,23.914c19.908-0.145,38.804-8.835,51.908-23.914
			C305.837,230.146,305.357,223.298,300.837,219.369z"/>
	</g>
</g>
<g>
	<circle class="st3" cx="208.373" cy="176.265" r="17.988"/>
</g>
<g>
	<circle class="st3" cx="291.628" cy="176.265" r="17.988"/>
</g>
<path class="st4" d="M122.125,444.482v32.176c0,2.762,2.239,5,5,5s5-2.238,5-5v-32.161h84.246c11.666,0,22.843-4.323,31.474-12.173
	l31.816-28.938c6.785-6.172,15.572-9.57,24.745-9.57h35.724c2.762,0,5-2.238,5-5v-45.059h47.289v75.634
	c0,8.33-6.776,15.106-15.106,15.106H259.508c-2.762,0-5,2.238-5,5s2.238,5,5,5h108.369v32.161c0,2.762,2.238,5,5,5s5-2.238,5-5
	v-32.175c13.583-0.302,24.542-11.438,24.542-25.092V316.086c0-35.717-28.589-64.849-64.04-65.68
	c12.018-17.375,19.072-38.444,19.072-61.135c0-24.894-8.689-49.172-24.469-68.361c-1.755-2.132-4.904-2.44-7.038-0.687
	c-2.133,1.754-2.44,4.905-0.687,7.038c14.312,17.404,22.193,39.427,22.193,62.01c0,53.828-43.716,97.62-97.451,97.62
	s-97.451-43.792-97.451-97.62c0-22.582,7.882-44.604,22.194-62.01c1.754-2.133,1.447-5.284-0.686-7.038
	c-2.134-1.754-5.285-1.447-7.038,0.687c-15.78,19.19-24.47,43.469-24.47,68.361c0,22.691,7.054,43.76,19.073,61.135
	c-35.451,0.832-64.039,29.963-64.039,65.68v103.302C97.583,433.043,108.541,444.179,122.125,444.482z M163.173,260.366h6.235
	c19.705,22.38,48.528,36.524,80.592,36.524c32.064,0,60.887-14.144,80.592-36.524h6.235c30.653,0,55.592,24.996,55.592,55.72v17.671
	H345.13v-31.42c0-2.762-2.238-5-5-5s-5,2.238-5,5v81.479h-30.724c-11.666,0-22.844,4.323-31.474,12.172l-31.816,28.938
	c-6.786,6.172-15.574,9.571-24.746,9.571h-93.679c-8.332,0-15.109-6.778-15.109-15.109v-75.631h47.06v45.059c0,2.762,2.239,5,5,5
	h101.815c2.762,0,5-2.238,5-5s-2.238-5-5-5h-96.815v-81.479c0-2.762-2.239-5-5-5s-5,2.238-5,5v31.42h-47.06v-17.671
	C107.583,285.362,132.521,260.366,163.173,260.366z M99.33,224.809c0-2.762,2.239-5,5-5h6.535v-6.534c0-2.762,2.239-5,5-5
	s5,2.238,5,5v6.534h6.534c2.761,0,5,2.238,5,5s-2.239,5-5,5h-6.534v6.535c0,2.762-2.239,5-5,5s-5-2.238-5-5v-6.535h-6.535
	C101.568,229.809,99.33,227.57,99.33,224.809z M367.603,224.809c0-2.762,2.238-5,5-5h6.534v-6.534c0-2.762,2.238-5,5-5s5,2.238,5,5
	v6.534h6.535c2.762,0,5,2.238,5,5s-2.238,5-5,5h-6.535v6.535c0,2.762-2.238,5-5,5s-5-2.238-5-5v-6.535h-6.534
	C369.841,229.809,367.603,227.57,367.603,224.809z M250.037,263.58c21.34-0.155,41.623-9.498,55.647-25.634
	c5.729-6.594,5.027-16.62-1.566-22.351c-0.001-0.001-0.001-0.001-0.001-0.001c-6.593-5.729-16.619-5.028-22.351,1.566
	c-8.012,9.22-19.587,14.588-31.765,14.733c-12.177-0.146-23.753-5.514-31.766-14.734c-5.729-6.592-15.756-7.295-22.351-1.564
	c-6.593,5.73-7.295,15.757-1.565,22.35C208.341,254.082,228.624,263.425,250.037,263.58z M202.443,223.144
	c1.104-0.96,2.47-1.431,3.83-1.431c1.634,0,3.26,0.681,4.414,2.008c9.898,11.389,24.208,18.013,39.261,18.174
	c0.035,0,0.071,0,0.106,0c15.054-0.161,29.363-6.785,39.26-18.174c2.115-2.433,5.813-2.69,8.244-0.577
	c2.432,2.113,2.69,5.812,0.578,8.242c-12.143,13.971-29.7,22.061-48.099,22.194c-18.472-0.134-36.029-8.224-48.17-22.194
	C199.752,228.954,200.012,225.257,202.443,223.144z M185.385,176.265c0,12.676,10.313,22.988,22.988,22.988
	s22.988-10.313,22.988-22.988c0-12.675-10.313-22.987-22.988-22.987S185.385,163.59,185.385,176.265z M208.373,163.277
	c7.162,0,12.988,5.826,12.988,12.987c0,7.162-5.826,12.988-12.988,12.988s-12.988-5.826-12.988-12.988
	C195.385,169.104,201.211,163.277,208.373,163.277z M291.628,153.277c-12.675,0-22.987,10.313-22.987,22.987
	c0,12.676,10.313,22.988,22.987,22.988c12.676,0,22.988-10.313,22.988-22.988C314.616,163.59,304.304,153.277,291.628,153.277z
	 M291.628,189.253c-7.161,0-12.987-5.826-12.987-12.988c0-7.161,5.826-12.987,12.987-12.987c7.162,0,12.988,5.826,12.988,12.987
	C304.616,183.427,298.79,189.253,291.628,189.253z M269.317,143.563c-0.929-2.601,0.427-5.462,3.026-6.392l27.345-9.77
	c2.604-0.926,5.463,0.427,6.392,3.026c0.929,2.601-0.427,5.462-3.026,6.392l-27.345,9.77c-0.557,0.198-1.124,0.292-1.683,0.292
	C271.973,146.882,270.049,145.607,269.317,143.563z M196.947,136.82c-2.601-0.93-3.956-3.791-3.026-6.392
	c0.929-2.6,3.792-3.952,6.391-3.026l27.345,9.77c2.601,0.93,3.956,3.791,3.026,6.392c-0.73,2.044-2.655,3.318-4.708,3.318
	c-0.559,0-1.126-0.094-1.682-0.292L196.947,136.82z M158.12,112.943h183.761c8.586,0,15.57-6.984,15.57-15.57
	s-6.984-15.57-15.57-15.57h-23.69V13.117C318.19,5.885,312.306,0,305.073,0H194.928c-7.233,0-13.117,5.885-13.117,13.117v68.686
	H158.12c-8.585,0-15.57,6.984-15.57,15.57S149.534,112.943,158.12,112.943z M191.811,13.117c0-1.719,1.398-3.117,3.117-3.117
	h110.145c1.719,0,3.117,1.398,3.117,3.117v68.534H191.811V13.117z M158.12,91.803h183.761c3.071,0,5.57,2.499,5.57,5.57
	s-2.499,5.57-5.57,5.57H158.12c-3.071,0-5.57-2.499-5.57-5.57S155.048,91.803,158.12,91.803z M444.108,495c0,2.762-2.238,5-5,5
	H60.893c-2.761,0-5-2.238-5-5s2.239-5,5-5h378.216C441.87,490,444.108,492.238,444.108,495z M47.479,495c0,2.762-2.239,5-5,5h-3.813
	c-2.761,0-5-2.238-5-5s2.239-5,5-5h3.813C45.24,490,47.479,492.238,47.479,495z M466.336,495c0,2.762-2.238,5-5,5h-3.813
	c-2.762,0-5-2.238-5-5s2.238-5,5-5h3.813C464.098,490,466.336,492.238,466.336,495z"/>
</svg>
