<?xml version="1.0" encoding="utf-8"?>
<!-- Generator: Adobe Illustrator 23.0.0, SVG Export Plug-In . SVG Version: 6.00 Build 0)  -->
<svg version="1.1" id="Layer_1" xmlns="http://www.w3.org/2000/svg" xmlns:xlink="http://www.w3.org/1999/xlink" x="0px" y="0px"
	 viewBox="0 0 500 500" style="enable-background:new 0 0 500 500;" xml:space="preserve">
<style type="text/css">
	.st0{fill:#83E1E5;}
	.st1{fill:#AAB1BA;}
	.st2{fill:#FDDF7F;}
	.st3{fill:#ECF4F7;}
	.st4{fill:#1C1D21;}
</style>
<g>
	<path class="st1" d="M333.628,324.645h-30.392c-2.061,1.333-4.179,2.586-6.342,3.765c1.671,2.473,2.671,5.48,2.671,8.821v16.208
		c0,11.828-12.516,19.465-23.034,14.055l-17.572-9.039c-2.551,1.744-5.634,2.769-8.957,2.769c-3.324,0-6.407-1.024-8.957-2.769
		l-17.572,9.039c-10.518,5.41-23.034-2.227-23.034-14.055v-16.207c0-3.342,1-6.348,2.671-8.821c-2.163-1.18-4.281-2.432-6.342-3.766
		h-30.392c-32.23,0-58.358,26.171-58.358,58.454V495h283.969V383.098C391.985,350.816,365.858,324.645,333.628,324.645z"/>
</g>
<g>
	<g>
		<rect x="108.017" y="441.769" class="st0" width="50.631" height="53.231"/>
	</g>
</g>
<g>
	<g>
		<rect x="341.355" y="441.769" class="st0" width="50.631" height="53.231"/>
	</g>
</g>
<g>
	<path class="st0" d="M342.264,208.085H157.738c-3.862,10.556-5.97,21.959-5.97,33.857c0,37.33,20.754,69.802,51.334,86.477
		c4.241-6.286,12.82-9.126,20.37-5.242l17.572,9.039c2.551-1.745,5.634-2.769,8.957-2.769c3.324,0,6.407,1.023,8.957,2.769
		l17.572-9.039c7.55-3.884,16.129-1.045,20.37,5.242c30.58-16.675,51.334-49.147,51.334-86.477
		C348.234,230.045,346.126,218.641,342.264,208.085z"/>
</g>
<g>
	<path class="st3" d="M276.53,323.177l-17.572,9.039c-2.551-1.745-5.634-2.769-8.957-2.769c-3.324,0-6.407,1.023-8.957,2.769
		l-17.572-9.039c-10.518-5.41-23.034,2.226-23.034,14.055v16.207c0,11.828,12.516,19.465,23.034,14.055l17.572-9.039
		c2.551,1.744,5.634,2.769,8.957,2.769c3.324,0,6.407-1.024,8.957-2.769l17.572,9.039c10.518,5.41,23.034-2.227,23.034-14.055
		v-16.208C299.565,325.403,287.049,317.766,276.53,323.177z"/>
</g>
<g>
	<path class="st3" d="M347.494,208.085H152.508c-2.722,0-4.929-2.207-4.929-4.929v-15.01c0-2.722,2.207-4.929,4.929-4.929h194.987
		c2.722,0,4.929,2.207,4.929,4.929v15.01C352.424,205.878,350.217,208.085,347.494,208.085z"/>
</g>
<g>
	<path class="st1" d="M331.483,183.217c-16.817-26.2-81.482-122.147-81.482-122.147l-81.482,122.147H331.483z"/>
</g>
<g>
	<circle class="st3" cx="208.169" cy="251.483" r="17.247"/>
</g>
<g>
	<circle class="st3" cx="291.833" cy="251.483" r="17.247"/>
</g>
<g>
	<path class="st2" d="M98.021,146.245H85.572c-0.084,0.055-0.174,0.101-0.258,0.154c11.23-7.149,18.689-19.713,18.689-34.028
		c0-22.258-18.014-40.301-40.235-40.301c-22.221,0-40.235,18.043-40.235,40.301c0,14.315,7.458,26.878,18.688,34.028
		c-0.084-0.054-0.173-0.101-0.257-0.154H29.515c-13.201,0-23.903,10.72-23.903,23.942v65.828h58.156h58.156v-65.828
		C121.923,156.965,111.222,146.245,98.021,146.245z"/>
</g>
<g>
	<path class="st2" d="M470.487,146.245h-12.448c-0.087,0.057-0.179,0.104-0.266,0.159c11.235-7.148,18.697-19.714,18.697-34.033
		c0-22.258-18.014-40.301-40.235-40.301c-22.221,0-40.235,18.043-40.235,40.301c0,14.319,7.462,26.885,18.697,34.033
		c-0.087-0.055-0.179-0.103-0.266-0.159h-12.448c-13.201,0-23.903,10.72-23.903,23.942v65.828h58.156h58.156v-65.828
		C494.39,156.965,483.688,146.245,470.487,146.245z"/>
</g>
<path class="st4" d="M287.063,294.988c1.714,2.165,1.348,5.31-0.817,7.023c-2.168,1.714-5.311,1.348-7.024-0.817
	c-0.66-0.835-1.647-1.314-2.708-1.314c-1.06,0-2.047,0.479-2.706,1.313c-2.568,3.247-6.413,5.108-10.55,5.108
	c-4.135,0-7.98-1.861-10.55-5.107c-0.66-0.835-1.647-1.314-2.707-1.314s-2.047,0.479-2.706,1.313
	c-2.57,3.247-6.416,5.108-10.551,5.108c-4.137,0-7.981-1.862-10.55-5.108c-0.659-0.834-1.646-1.313-2.706-1.313
	c-1.061,0-2.048,0.479-2.708,1.314c-1.715,2.166-4.857,2.531-7.024,0.817c-2.165-1.714-2.531-4.858-0.817-7.023
	c2.569-3.246,6.415-5.108,10.55-5.108c4.136,0,7.981,1.862,10.55,5.109c0.659,0.834,1.646,1.313,2.706,1.313
	s2.048-0.479,2.708-1.313c2.567-3.246,6.413-5.108,10.549-5.108s7.981,1.862,10.55,5.109c0.659,0.833,1.646,1.313,2.707,1.313
	s2.047-0.479,2.706-1.313c2.568-3.247,6.414-5.109,10.55-5.109C280.648,289.88,284.494,291.742,287.063,294.988z M142.578,203.156
	v-15.01c0-5.475,4.454-9.929,9.93-9.929h194.986c5.476,0,9.93,4.454,9.93,9.929v15.01c0,4.933-3.62,9.026-8.341,9.79
	c2.741,9.393,4.152,19.113,4.152,28.996c0,30.13-13.069,58.299-35.135,77.703h15.528c34.936,0,63.357,28.465,63.357,63.454v94.314
	c0,2.761-2.238,5-5,5s-5-2.239-5-5v-30.645h-40.631v30.645c0,2.761-2.238,5-5,5s-5-2.239-5-5v-97.945c0-2.761,2.238-5,5-5
	s5,2.239,5,5v57.3h40.631v-53.67c0-29.475-23.936-53.454-53.357-53.454h-28.946c-0.415,0.26-0.834,0.515-1.254,0.77
	c0.74,2.153,1.137,4.448,1.137,6.816v16.208c0,7.312-3.727,13.951-9.969,17.76c-3.343,2.04-7.078,3.066-10.825,3.067
	c-3.249,0-6.507-0.772-9.527-2.326l-15.186-7.811c-2.744,1.328-5.809,2.095-9.057,2.095s-6.312-0.767-9.057-2.095l-15.186,7.811
	c-3.02,1.553-6.278,2.326-9.527,2.326c-3.747,0-7.482-1.027-10.825-3.067c-6.242-3.809-9.969-10.448-9.969-17.76v-16.208
	c0-2.369,0.397-4.664,1.137-6.818c-0.419-0.254-0.839-0.509-1.254-0.769h-28.947c-29.422,0-53.357,23.979-53.357,53.454v53.67
	h40.631v-57.3c0-2.761,2.238-5,5-5s5,2.239,5,5v97.945c0,2.761-2.238,5-5,5s-5-2.239-5-5v-30.645h-40.631v30.645
	c0,2.761-2.238,5-5,5s-5-2.239-5-5v-94.314c0-34.988,28.422-63.454,63.357-63.454h15.529
	c-22.066-19.404-35.135-47.573-35.135-77.703c0-9.883,1.41-19.603,4.152-28.996C146.198,212.182,142.578,208.089,142.578,203.156z
	 M232.745,357.102c-0.02-0.03-0.037-0.062-0.057-0.091c-0.006-0.009-0.011-0.019-0.017-0.027c-0.331-0.492-0.635-1-0.923-1.518
	c-0.088-0.158-0.17-0.318-0.253-0.478c-0.203-0.389-0.394-0.784-0.572-1.185c-0.082-0.185-0.166-0.368-0.243-0.555
	c-0.202-0.492-0.385-0.991-0.549-1.498c-0.042-0.13-0.084-0.261-0.124-0.392c-0.157-0.522-0.292-1.051-0.409-1.586
	c-0.045-0.209-0.082-0.42-0.121-0.631c-0.08-0.429-0.146-0.86-0.198-1.296c-0.024-0.202-0.051-0.402-0.069-0.605
	c-0.058-0.629-0.096-1.263-0.096-1.902c0,0,0-0.001,0-0.001l0,0c0,0,0,0,0,0c0-0.64,0.039-1.274,0.096-1.904
	c0.019-0.202,0.045-0.401,0.069-0.602c0.053-0.437,0.119-0.87,0.199-1.301c0.039-0.209,0.075-0.419,0.12-0.627
	c0.118-0.541,0.254-1.076,0.413-1.604c0.037-0.121,0.075-0.24,0.114-0.359c0.166-0.515,0.353-1.021,0.557-1.519
	c0.075-0.183,0.157-0.361,0.237-0.541c0.181-0.409,0.375-0.811,0.582-1.206c0.08-0.153,0.159-0.307,0.243-0.458
	c0.311-0.562,0.639-1.113,1.002-1.645l-11.56-5.946c-0.38-0.195-0.768-0.365-1.161-0.513c-0.054-0.021-0.108-0.035-0.162-0.055
	c-0.349-0.125-0.702-0.236-1.058-0.324c-0.043-0.011-0.086-0.019-0.129-0.029c-0.373-0.087-0.748-0.156-1.125-0.203
	c-0.031-0.003-0.062-0.008-0.092-0.011c-0.396-0.045-0.792-0.069-1.189-0.071c-0.015,0-0.03-0.001-0.045-0.001
	c-0.449,0-0.896,0.035-1.342,0.092c-0.119,0.016-0.235,0.04-0.353,0.06c-0.272,0.044-0.542,0.104-0.811,0.169
	c-0.199,0.05-0.399,0.096-0.594,0.157c-0.064,0.02-0.127,0.047-0.191,0.068c-0.517,0.172-1.019,0.378-1.498,0.619
	c-0.069,0.035-0.138,0.071-0.207,0.107c-0.76,0.402-1.463,0.884-2.096,1.428c-0.116,0.102-0.23,0.206-0.342,0.312
	c-0.145,0.136-0.293,0.27-0.429,0.412c-0.268,0.284-0.52,0.58-0.754,0.889c-0.036,0.047-0.07,0.094-0.104,0.141
	c-1.325,1.813-2.065,4.02-2.065,6.362v16.208c0,3.797,1.936,7.246,5.178,9.224c3.242,1.979,7.194,2.121,10.569,0.385
	L232.745,357.102z M250.001,356.224c2.337,0,4.499-0.747,6.275-2.005c0.275-0.194,0.539-0.399,0.792-0.616
	c0.109-0.093,0.213-0.191,0.318-0.289c0.196-0.181,0.384-0.368,0.564-0.562c0.1-0.107,0.2-0.214,0.296-0.326
	c0.192-0.224,0.373-0.456,0.546-0.693c0.062-0.085,0.129-0.166,0.188-0.252c0.227-0.332,0.437-0.674,0.625-1.028
	c0.035-0.065,0.063-0.134,0.096-0.199c0.151-0.296,0.289-0.598,0.412-0.907c0.043-0.109,0.082-0.221,0.122-0.332
	c0.099-0.276,0.188-0.557,0.265-0.841c0.033-0.122,0.066-0.243,0.094-0.366c0.068-0.292,0.121-0.589,0.165-0.888
	c0.017-0.113,0.039-0.225,0.052-0.339c0.047-0.411,0.077-0.826,0.077-1.245c0,0,0-0.001,0-0.002c0-0.417-0.029-0.832-0.077-1.241
	c-0.013-0.116-0.036-0.229-0.052-0.343c-0.044-0.297-0.096-0.593-0.164-0.883c-0.029-0.125-0.062-0.247-0.095-0.369
	c-0.077-0.283-0.165-0.563-0.264-0.838c-0.04-0.111-0.079-0.224-0.122-0.333c-0.123-0.309-0.262-0.612-0.413-0.908
	c-0.033-0.065-0.061-0.133-0.095-0.197c-0.189-0.354-0.399-0.698-0.626-1.03c-0.058-0.084-0.123-0.162-0.183-0.244
	c-0.175-0.24-0.358-0.476-0.553-0.702c-0.094-0.109-0.192-0.214-0.29-0.319c-0.183-0.196-0.374-0.386-0.573-0.57
	c-0.103-0.095-0.204-0.191-0.31-0.282c-0.259-0.222-0.53-0.433-0.812-0.631c-0.054-0.038-0.104-0.082-0.159-0.119
	c-0.032-0.021-0.065-0.04-0.097-0.061c-0.236-0.157-0.479-0.304-0.727-0.442c-0.078-0.043-0.157-0.083-0.235-0.125
	c-0.217-0.114-0.438-0.221-0.663-0.32c-0.078-0.034-0.156-0.07-0.235-0.103c-0.293-0.121-0.592-0.233-0.897-0.329
	c-0.005-0.001-0.009-0.003-0.013-0.005c-0.31-0.096-0.626-0.175-0.947-0.244c-0.09-0.019-0.181-0.034-0.272-0.051
	c-0.237-0.044-0.477-0.082-0.72-0.11c-0.1-0.012-0.201-0.024-0.302-0.034c-0.315-0.029-0.634-0.047-0.956-0.048
	c-0.012,0-0.024-0.001-0.036-0.001s-0.024,0.001-0.036,0.001c-0.322,0.001-0.64,0.02-0.955,0.048
	c-0.102,0.009-0.202,0.022-0.303,0.034c-0.241,0.029-0.479,0.065-0.716,0.109c-0.092,0.018-0.185,0.033-0.277,0.052
	c-0.319,0.069-0.634,0.147-0.942,0.243c-0.011,0.003-0.022,0.008-0.034,0.012c-0.298,0.094-0.589,0.203-0.875,0.321
	c-0.083,0.034-0.164,0.072-0.246,0.108c-0.221,0.098-0.438,0.202-0.651,0.314c-0.081,0.042-0.162,0.084-0.242,0.128
	c-0.249,0.139-0.492,0.286-0.728,0.443c-0.031,0.02-0.062,0.038-0.092,0.058c-0.055,0.038-0.106,0.082-0.16,0.12
	c-0.282,0.199-0.553,0.41-0.812,0.631c-0.106,0.091-0.208,0.187-0.31,0.282c-0.198,0.184-0.389,0.374-0.573,0.57
	c-0.098,0.105-0.196,0.21-0.29,0.319c-0.195,0.227-0.378,0.462-0.553,0.702c-0.06,0.083-0.125,0.16-0.183,0.244
	c-0.228,0.332-0.437,0.676-0.626,1.03c-0.034,0.064-0.062,0.132-0.095,0.197c-0.151,0.296-0.29,0.599-0.413,0.908
	c-0.044,0.11-0.082,0.222-0.122,0.333c-0.099,0.275-0.188,0.555-0.264,0.838c-0.033,0.123-0.066,0.245-0.095,0.369
	c-0.068,0.291-0.12,0.586-0.164,0.883c-0.017,0.115-0.039,0.228-0.052,0.343c-0.047,0.41-0.076,0.824-0.077,1.241
	c0,0.001,0,0.002,0,0.002c0,0.419,0.029,0.834,0.077,1.245c0.013,0.114,0.035,0.226,0.052,0.339
	c0.044,0.299,0.097,0.596,0.165,0.888c0.029,0.123,0.062,0.244,0.094,0.366c0.077,0.285,0.166,0.565,0.265,0.841
	c0.04,0.111,0.078,0.223,0.122,0.332c0.123,0.309,0.261,0.611,0.412,0.907c0.033,0.065,0.061,0.134,0.096,0.199
	c0.189,0.354,0.398,0.696,0.625,1.028c0.059,0.086,0.126,0.167,0.188,0.252c0.173,0.237,0.354,0.47,0.546,0.693
	c0.096,0.111,0.196,0.218,0.296,0.326c0.181,0.193,0.369,0.38,0.564,0.562c0.105,0.098,0.209,0.196,0.318,0.289
	c0.253,0.217,0.518,0.422,0.792,0.616C245.502,355.477,247.664,356.224,250.001,356.224z M294.564,337.231
	c0-2.344-0.742-4.553-2.07-6.368c-0.032-0.043-0.063-0.087-0.096-0.129c-0.238-0.315-0.494-0.616-0.767-0.905
	c-0.128-0.133-0.267-0.258-0.403-0.385c-0.12-0.114-0.242-0.226-0.367-0.335c-0.646-0.554-1.364-1.046-2.141-1.452
	c-0.033-0.017-0.065-0.035-0.098-0.051c-0.269-0.137-0.543-0.265-0.824-0.381c-0.012-0.005-0.025-0.009-0.038-0.014
	c-0.438-0.179-0.893-0.322-1.356-0.444c-0.229-0.058-0.457-0.117-0.688-0.16c-0.133-0.026-0.267-0.047-0.401-0.068
	c-1.268-0.187-2.561-0.151-3.825,0.125c-0.037,0.008-0.074,0.017-0.112,0.025c-0.381,0.087-0.759,0.2-1.133,0.33
	c-0.068,0.024-0.135,0.043-0.203,0.068c-0.415,0.153-0.826,0.329-1.227,0.536l-11.56,5.946c0.362,0.531,0.69,1.083,1.002,1.645
	c0.084,0.151,0.162,0.305,0.243,0.458c0.207,0.396,0.4,0.797,0.581,1.205c0.08,0.181,0.163,0.36,0.238,0.543
	c0.205,0.499,0.391,1.004,0.557,1.518c0.039,0.12,0.077,0.239,0.114,0.36c0.159,0.528,0.296,1.063,0.413,1.604
	c0.045,0.208,0.081,0.417,0.12,0.627c0.08,0.431,0.146,0.864,0.199,1.301c0.024,0.201,0.05,0.4,0.069,0.602
	c0.058,0.63,0.096,1.265,0.096,1.904c0,0,0,0,0,0l0,0c0,0,0,0.001,0,0.001c0,0.639-0.039,1.272-0.096,1.902
	c-0.019,0.204-0.045,0.404-0.069,0.605c-0.053,0.436-0.119,0.867-0.198,1.296c-0.039,0.211-0.075,0.422-0.121,0.631
	c-0.116,0.535-0.251,1.064-0.409,1.586c-0.04,0.132-0.082,0.262-0.124,0.393c-0.164,0.506-0.347,1.005-0.549,1.496
	c-0.077,0.188-0.162,0.372-0.244,0.557c-0.178,0.401-0.368,0.795-0.571,1.184c-0.084,0.16-0.166,0.32-0.253,0.478
	c-0.288,0.518-0.592,1.026-0.923,1.518c-0.006,0.009-0.011,0.018-0.017,0.027c-0.02,0.029-0.037,0.061-0.057,0.091l11.561,5.946
	c3.376,1.736,7.328,1.592,10.569-0.385c3.242-1.978,5.178-5.426,5.178-9.224V337.231z M343.234,241.942
	c0-9.866-1.527-19.557-4.545-28.856H161.313c-3.018,9.3-4.545,18.99-4.545,28.856c0,31.915,16.222,61.406,42.759,78.538
	c0.016,0.011,0.034,0.02,0.05,0.031c0.805,0.519,1.617,1.028,2.441,1.524c0.025-0.023,0.053-0.043,0.078-0.066
	c0.403-0.371,0.824-0.726,1.259-1.067c0.166-0.13,0.336-0.254,0.505-0.379c0.309-0.228,0.625-0.447,0.949-0.66
	c0.167-0.11,0.331-0.224,0.501-0.328c0.033-0.021,0.064-0.043,0.097-0.063c0.445-0.271,0.898-0.52,1.356-0.755
	c0.097-0.049,0.196-0.095,0.293-0.143c0.513-0.254,1.033-0.486,1.56-0.695c0.015-0.006,0.029-0.012,0.044-0.018
	c4.352-1.719,9.109-1.913,13.581-0.551c0.069,0.021,0.138,0.046,0.208,0.068c0.32,0.101,0.639,0.204,0.955,0.321
	c0.185,0.068,0.367,0.146,0.551,0.22c0.207,0.083,0.416,0.161,0.621,0.251c0.398,0.174,0.793,0.361,1.185,0.562l15.154,7.795
	c0.309-0.15,0.623-0.289,0.939-0.423c0.012-0.005,0.023-0.011,0.035-0.016c0.579-0.245,1.17-0.458,1.768-0.648
	c0.082-0.026,0.163-0.053,0.245-0.079c0.58-0.177,1.167-0.328,1.761-0.454c0.1-0.021,0.201-0.041,0.302-0.061
	c0.602-0.118,1.209-0.214,1.823-0.279c0.082-0.009,0.164-0.013,0.246-0.021c0.645-0.061,1.293-0.098,1.946-0.099
	c0.007,0,0.014-0.001,0.021-0.001s0.014,0.001,0.021,0.001c0.654,0.001,1.303,0.039,1.947,0.099
	c0.082,0.008,0.163,0.012,0.244,0.021c0.615,0.064,1.223,0.161,1.827,0.279c0.099,0.02,0.198,0.038,0.296,0.059
	c0.597,0.126,1.187,0.278,1.769,0.456c0.079,0.024,0.156,0.05,0.234,0.075c0.602,0.192,1.196,0.406,1.779,0.652
	c0.006,0.003,0.011,0.006,0.017,0.008c0.32,0.136,0.638,0.276,0.952,0.429l15.154-7.795c0.464-0.239,0.935-0.454,1.409-0.656
	c0.114-0.048,0.228-0.09,0.342-0.137c0.384-0.155,0.77-0.299,1.159-0.431c0.094-0.031,0.187-0.062,0.281-0.092
	c0.463-0.149,0.928-0.283,1.397-0.398c0.007-0.001,0.014-0.003,0.021-0.005c4.128-1.015,8.446-0.735,12.429,0.823
	c0.007,0.003,0.014,0.006,0.021,0.008c0.421,0.166,0.838,0.345,1.25,0.539c0.149,0.069,0.296,0.143,0.444,0.215
	c0.26,0.13,0.519,0.265,0.775,0.406c0.214,0.117,0.427,0.236,0.637,0.361c0.062,0.037,0.125,0.068,0.187,0.106
	c0.123,0.075,0.239,0.158,0.36,0.235c0.241,0.153,0.482,0.306,0.717,0.47c0.16,0.111,0.312,0.229,0.468,0.345
	c0.331,0.244,0.656,0.496,0.973,0.761c0.264,0.22,0.526,0.44,0.778,0.672c0.031,0.028,0.064,0.053,0.094,0.081
	c0.823-0.496,1.635-1.004,2.439-1.523c0.017-0.012,0.036-0.021,0.053-0.033C327.014,303.348,343.234,273.857,343.234,241.942z
	 M347.494,203.085v4.884l0,0V203.085C347.494,203.085,347.494,203.085,347.494,203.085z M152.578,203.085h194.846v-14.868H152.578
	V203.085z M176.662,171.01c2.297,1.533,5.402,0.911,6.934-1.385l66.425-99.575c11.95,17.752,46.733,69.479,66.589,99.555
	c0.962,1.456,2.554,2.246,4.178,2.246c0.945,0,1.901-0.268,2.75-0.828c2.305-1.521,2.939-4.623,1.418-6.928
	c-24.152-36.585-70.344-105.132-70.808-105.82c-0.932-1.382-2.529-2.182-4.158-2.206c-1.667,0.004-3.223,0.838-4.147,2.225
	l-70.564,105.781C173.745,166.373,174.364,169.478,176.662,171.01z M208.169,273.73c-12.267,0-22.247-9.98-22.247-22.247
	s9.98-22.247,22.247-22.247s22.247,9.98,22.247,22.247S220.436,273.73,208.169,273.73z M220.416,251.483
	c0-6.753-5.494-12.247-12.247-12.247s-12.247,5.494-12.247,12.247s5.494,12.247,12.247,12.247S220.416,258.236,220.416,251.483z
	 M314.08,251.483c0,12.267-9.98,22.247-22.247,22.247s-22.247-9.98-22.247-22.247s9.98-22.247,22.247-22.247
	S314.08,239.216,314.08,251.483z M304.08,251.483c0-6.753-5.494-12.247-12.247-12.247s-12.247,5.494-12.247,12.247
	s5.494,12.247,12.247,12.247S304.08,258.236,304.08,251.483z M52.233,21.535h6.534v6.534c0,2.761,2.238,5,5,5s5-2.239,5-5v-6.534
	h6.535c2.762,0,5-2.239,5-5s-2.238-5-5-5h-6.535V5c0-2.761-2.238-5-5-5s-5,2.239-5,5v6.535h-6.534c-2.762,0-5,2.239-5,5
	S49.472,21.535,52.233,21.535z M424.699,21.535h6.535v6.534c0,2.761,2.238,5,5,5s5-2.239,5-5v-6.534h6.534c2.762,0,5-2.239,5-5
	s-2.238-5-5-5h-6.534V5c0-2.761-2.238-5-5-5s-5,2.239-5,5v6.535h-6.535c-2.762,0-5,2.239-5,5S421.938,21.535,424.699,21.535z
	 M38.166,236.016v-67.315c0-2.761-2.238-5-5-5s-5,2.239-5,5v67.315c0,2.761,2.238,5,5,5S38.166,238.777,38.166,236.016z
	 M94.369,163.701c-2.762,0-5,2.239-5,5v67.315c0,2.761,2.238,5,5,5s5-2.239,5-5v-67.315
	C99.369,165.939,97.131,163.701,94.369,163.701z M29.515,151.246c-10.423,0-18.902,8.497-18.902,18.942v65.828c0,2.761-2.238,5-5,5
	s-5-2.239-5-5v-65.828c0-15.77,12.663-28.625,28.34-28.928c-6.504-7.847-10.42-17.918-10.42-28.889
	c0-24.979,20.293-45.301,45.235-45.301s45.235,20.322,45.235,45.301c0,10.971-3.917,21.042-10.42,28.889
	c15.677,0.302,28.34,13.158,28.34,28.928v65.828c0,2.761-2.238,5-5,5s-5-2.239-5-5v-65.828c0-10.445-8.479-18.942-18.902-18.942
	H87.002c-0.365,0.219-0.743,0.41-1.113,0.618c-0.289,0.163-0.577,0.327-0.87,0.483c-0.446,0.238-0.895,0.47-1.349,0.693
	c-0.376,0.185-0.758,0.36-1.139,0.535c-0.5,0.229-1,0.454-1.508,0.664c-0.636,0.264-1.278,0.516-1.928,0.751
	c-0.345,0.125-0.693,0.238-1.042,0.354c-0.538,0.18-1.081,0.35-1.628,0.51c-0.32,0.094-0.64,0.188-0.962,0.274
	c-0.799,0.214-1.604,0.411-2.419,0.582c-0.08,0.017-0.16,0.036-0.24,0.052c-0.863,0.176-1.737,0.32-2.617,0.446
	c-0.268,0.038-0.537,0.069-0.806,0.103c-0.675,0.084-1.353,0.153-2.036,0.207c-0.268,0.021-0.536,0.045-0.805,0.062
	c-0.918,0.056-1.842,0.093-2.774,0.093s-1.856-0.038-2.774-0.093c-0.269-0.017-0.537-0.041-0.805-0.062
	c-0.683-0.054-1.362-0.123-2.036-0.207c-0.269-0.033-0.538-0.064-0.806-0.103c-0.88-0.126-1.754-0.27-2.617-0.446
	c-0.08-0.016-0.159-0.035-0.24-0.052c-0.815-0.171-1.62-0.368-2.419-0.582c-0.322-0.086-0.642-0.181-0.962-0.274
	c-0.547-0.16-1.089-0.33-1.628-0.51c-0.348-0.116-0.696-0.229-1.042-0.354c-0.65-0.235-1.292-0.487-1.928-0.751
	c-0.507-0.21-1.008-0.436-1.508-0.664c-0.382-0.175-0.763-0.35-1.139-0.535c-0.453-0.223-0.902-0.455-1.349-0.693
	c-0.293-0.157-0.581-0.32-0.87-0.483c-0.37-0.208-0.748-0.398-1.113-0.618H29.515z M28.532,112.371
	c0,12.678,6.708,23.812,16.752,30.038c0.241,0.149,0.485,0.292,0.73,0.436c0.552,0.324,1.113,0.631,1.683,0.925
	c0.325,0.167,0.649,0.336,0.978,0.493c0.329,0.157,0.663,0.305,0.997,0.452c0.37,0.162,0.742,0.316,1.117,0.465
	c0.282,0.112,0.561,0.229,0.846,0.334c0.624,0.229,1.255,0.438,1.891,0.632c0.248,0.076,0.5,0.144,0.75,0.214
	c0.508,0.142,1.018,0.273,1.532,0.393c0.212,0.049,0.422,0.102,0.635,0.147c0.709,0.15,1.422,0.281,2.141,0.387
	c0.159,0.024,0.321,0.04,0.481,0.062c0.601,0.081,1.205,0.146,1.811,0.195c0.207,0.017,0.415,0.035,0.623,0.048
	c0.754,0.048,1.51,0.081,2.269,0.081s1.516-0.033,2.269-0.081c0.208-0.013,0.416-0.031,0.623-0.048
	c0.606-0.049,1.21-0.114,1.811-0.195c0.16-0.021,0.322-0.038,0.481-0.062c0.719-0.106,1.432-0.237,2.141-0.387
	c0.213-0.045,0.424-0.098,0.635-0.147c0.514-0.119,1.024-0.25,1.532-0.393c0.25-0.07,0.502-0.138,0.75-0.214
	c0.636-0.193,1.267-0.402,1.891-0.632c0.285-0.105,0.564-0.222,0.846-0.334c0.375-0.149,0.747-0.303,1.117-0.465
	c0.334-0.147,0.668-0.295,0.997-0.452c0.329-0.157,0.653-0.325,0.978-0.493c0.57-0.294,1.131-0.602,1.683-0.925
	c0.244-0.144,0.489-0.287,0.73-0.436c10.044-6.227,16.752-17.36,16.752-30.038c0-19.465-15.807-35.301-35.235-35.301
	S28.532,92.906,28.532,112.371z M499.39,170.188v65.828c0,2.761-2.238,5-5,5s-5-2.239-5-5v-65.828
	c0-10.445-8.479-18.942-18.902-18.942h-11.019c-0.365,0.219-0.743,0.41-1.113,0.618c-0.289,0.163-0.577,0.327-0.87,0.483
	c-0.446,0.238-0.895,0.47-1.349,0.693c-0.376,0.185-0.758,0.36-1.139,0.535c-0.5,0.229-1,0.454-1.508,0.664
	c-0.636,0.264-1.278,0.516-1.928,0.751c-0.345,0.125-0.693,0.238-1.042,0.354c-0.538,0.18-1.081,0.35-1.628,0.51
	c-0.32,0.094-0.64,0.188-0.962,0.274c-0.799,0.214-1.604,0.411-2.419,0.582c-0.08,0.017-0.16,0.036-0.24,0.052
	c-0.863,0.176-1.737,0.32-2.617,0.446c-0.268,0.038-0.537,0.069-0.806,0.103c-0.675,0.084-1.353,0.153-2.036,0.207
	c-0.268,0.021-0.536,0.045-0.805,0.062c-0.918,0.056-1.842,0.093-2.774,0.093s-1.856-0.038-2.774-0.093
	c-0.269-0.017-0.537-0.041-0.805-0.062c-0.683-0.054-1.362-0.123-2.036-0.207c-0.269-0.033-0.538-0.064-0.806-0.103
	c-0.88-0.126-1.754-0.27-2.617-0.446c-0.08-0.016-0.159-0.035-0.24-0.052c-0.815-0.171-1.62-0.368-2.419-0.582
	c-0.322-0.086-0.642-0.181-0.962-0.274c-0.547-0.16-1.089-0.33-1.628-0.51c-0.348-0.116-0.696-0.229-1.042-0.354
	c-0.65-0.235-1.292-0.487-1.928-0.751c-0.507-0.21-1.008-0.436-1.508-0.664c-0.382-0.175-0.763-0.35-1.139-0.535
	c-0.453-0.223-0.902-0.455-1.349-0.693c-0.293-0.157-0.581-0.32-0.87-0.483c-0.37-0.208-0.748-0.398-1.113-0.618h-11.019
	c-10.423,0-18.902,8.497-18.902,18.942v65.828c0,2.761-2.238,5-5,5s-5-2.239-5-5v-65.828c0-15.77,12.663-28.625,28.34-28.928
	c-6.504-7.847-10.42-17.918-10.42-28.889c0-24.979,20.293-45.301,45.235-45.301s45.235,20.322,45.235,45.301
	c0,10.971-3.917,21.042-10.42,28.889C486.727,141.562,499.39,154.418,499.39,170.188z M400.999,112.371
	c0,12.678,6.708,23.812,16.752,30.038c0.241,0.149,0.485,0.292,0.73,0.436c0.552,0.324,1.113,0.631,1.683,0.925
	c0.325,0.167,0.649,0.336,0.978,0.493c0.329,0.157,0.663,0.305,0.997,0.452c0.37,0.162,0.742,0.316,1.117,0.465
	c0.282,0.112,0.561,0.229,0.846,0.334c0.624,0.229,1.255,0.438,1.891,0.632c0.248,0.076,0.5,0.144,0.75,0.214
	c0.508,0.142,1.018,0.273,1.532,0.393c0.212,0.049,0.422,0.102,0.635,0.147c0.709,0.15,1.422,0.281,2.141,0.387
	c0.159,0.024,0.321,0.04,0.481,0.062c0.601,0.081,1.205,0.146,1.811,0.195c0.207,0.017,0.415,0.035,0.623,0.048
	c0.754,0.048,1.51,0.081,2.269,0.081s1.516-0.033,2.269-0.081c0.208-0.013,0.416-0.031,0.623-0.048
	c0.606-0.049,1.21-0.114,1.811-0.195c0.16-0.021,0.322-0.038,0.481-0.062c0.719-0.106,1.432-0.237,2.141-0.387
	c0.213-0.045,0.424-0.098,0.635-0.147c0.514-0.119,1.024-0.25,1.532-0.393c0.25-0.07,0.502-0.138,0.75-0.214
	c0.636-0.193,1.267-0.402,1.891-0.632c0.285-0.105,0.564-0.222,0.846-0.334c0.375-0.149,0.747-0.303,1.117-0.465
	c0.334-0.147,0.668-0.295,0.997-0.452c0.329-0.157,0.653-0.325,0.978-0.493c0.57-0.294,1.131-0.602,1.683-0.925
	c0.244-0.144,0.489-0.287,0.73-0.436c10.044-6.227,16.752-17.36,16.752-30.038c0-19.465-15.807-35.301-35.235-35.301
	S400.999,92.906,400.999,112.371z M410.633,236.016v-67.315c0-2.761-2.238-5-5-5s-5,2.239-5,5v67.315c0,2.761,2.238,5,5,5
	S410.633,238.777,410.633,236.016z M466.836,163.701c-2.762,0-5,2.239-5,5v67.315c0,2.761,2.238,5,5,5s5-2.239,5-5v-67.315
	C471.836,165.939,469.598,163.701,466.836,163.701z M439.109,490H60.893c-2.762,0-5,2.239-5,5s2.238,5,5,5h378.217
	c2.762,0,5-2.239,5-5S441.871,490,439.109,490z M42.479,490h-3.813c-2.762,0-5,2.239-5,5s2.238,5,5,5h3.813c2.762,0,5-2.239,5-5
	S45.24,490,42.479,490z M461.336,490h-3.813c-2.762,0-5,2.239-5,5s2.238,5,5,5h3.813c2.762,0,5-2.239,5-5S464.098,490,461.336,490z
	 M250.001,15.244c2.762,0,5-2.239,5-5V5c0-2.761-2.238-5-5-5s-5,2.239-5,5v5.244C245.001,13.005,247.239,15.244,250.001,15.244z
	 M250.001,47.056c2.762,0,5-2.239,5-5V27.52c0-2.761-2.238-5-5-5s-5,2.239-5,5v14.536C245.001,44.817,247.239,47.056,250.001,47.056
	z M222.451,15.244c2.762,0,5-2.239,5-5V5c0-2.761-2.238-5-5-5s-5,2.239-5,5v5.244C217.451,13.005,219.689,15.244,222.451,15.244z
	 M222.451,69.537c2.762,0,5-2.239,5-5V27.52c0-2.761-2.238-5-5-5s-5,2.239-5,5v37.017C217.451,67.298,219.689,69.537,222.451,69.537
	z M194.9,15.244c2.762,0,5-2.239,5-5V5c0-2.761-2.238-5-5-5s-5,2.239-5,5v5.244C189.9,13.005,192.139,15.244,194.9,15.244z
	 M194.9,106.554c2.762,0,5-2.239,5-5V27.52c0-2.761-2.238-5-5-5s-5,2.239-5,5v74.034C189.9,104.315,192.139,106.554,194.9,106.554z
	 M277.551,15.244c2.762,0,5-2.239,5-5V5c0-2.761-2.238-5-5-5s-5,2.239-5,5v5.244C272.551,13.005,274.789,15.244,277.551,15.244z
	 M277.551,69.537c2.762,0,5-2.239,5-5V27.52c0-2.761-2.238-5-5-5s-5,2.239-5,5v37.017C272.551,67.298,274.789,69.537,277.551,69.537
	z M305.102,15.244c2.762,0,5-2.239,5-5V5c0-2.761-2.238-5-5-5s-5,2.239-5,5v5.244C300.102,13.005,302.34,15.244,305.102,15.244z
	 M305.102,106.554c2.762,0,5-2.239,5-5V27.52c0-2.761-2.238-5-5-5s-5,2.239-5,5v74.034
	C300.102,104.315,302.34,106.554,305.102,106.554z"/>
</svg>
