<?xml version="1.0" encoding="utf-8"?>
<!-- Generator: Adobe Illustrator 23.0.0, SVG Export Plug-In . SVG Version: 6.00 Build 0)  -->
<svg version="1.1" id="Layer_1" xmlns="http://www.w3.org/2000/svg" xmlns:xlink="http://www.w3.org/1999/xlink" x="0px" y="0px"
	 viewBox="0 0 500 500" style="enable-background:new 0 0 500 500;" xml:space="preserve">
<style type="text/css">
	.st0{fill:#83E1E5;}
	.st1{fill:#AAB1BA;}
	.st2{fill:#FDDF7F;}
	.st3{fill:#ECF4F7;}
	.st4{fill:#1C1D21;}
</style>
<g>
	<g>
		<ellipse class="st0" cx="250" cy="172.03" rx="101.992" ry="102.209"/>
	</g>
</g>
<g>
	<circle class="st3" cx="206.373" cy="181.738" r="17.988"/>
</g>
<g>
	<circle class="st3" cx="293.628" cy="181.738" r="17.988"/>
</g>
<g>
	<g>
		<rect x="130.049" y="414.403" class="st1" width="239.902" height="80.597"/>
	</g>
</g>
<g>
	<g>
		<path class="st1" d="M336.828,257.939h-31.602c-15.919,10.299-34.868,16.3-55.226,16.3s-39.306-6.001-55.226-16.3h-31.602
			c-33.463,0-60.591,27.186-60.591,60.72v75.634c0,11.106,9.002,20.109,20.106,20.109h4.436h245.752h4.436
			c11.104,0,20.106-9.003,20.106-20.109V318.66C397.418,285.125,370.291,257.939,336.828,257.939z"/>
	</g>
</g>
<g>
	<g>
		<path class="st0" d="M340.13,341.33v22.391H159.642V341.33h-57.06v52.963c0,11.106,9.002,20.109,20.106,20.109h254.624
			c11.104,0,20.106-9.003,20.106-20.109V341.33H340.13z"/>
	</g>
</g>
<g>
	<g>
		<polygon class="st0" points="250,457.447 159.756,457.447 159.756,495 250,495 340.245,495 340.245,457.447 		"/>
	</g>
</g>
<g>
	<path class="st2" d="M98.02,146.245H85.572c-0.084,0.055-0.174,0.101-0.258,0.154c11.23-7.149,18.689-19.713,18.689-34.028
		c0-22.258-18.014-40.301-40.235-40.301c-22.221,0-40.235,18.043-40.235,40.301c0,14.315,7.458,26.878,18.688,34.028
		c-0.084-0.054-0.173-0.101-0.257-0.154H29.515c-13.201,0-23.903,10.72-23.903,23.942v65.828h58.156h58.156v-65.828
		C121.923,156.965,111.221,146.245,98.02,146.245z"/>
</g>
<g>
	<path class="st2" d="M470.486,146.245h-12.448c-0.087,0.057-0.179,0.104-0.266,0.159c11.235-7.148,18.697-19.714,18.697-34.033
		c0-22.258-18.014-40.301-40.235-40.301c-22.221,0-40.235,18.043-40.235,40.301c0,14.319,7.462,26.885,18.697,34.033
		c-0.087-0.055-0.179-0.103-0.266-0.159h-12.448c-13.201,0-23.903,10.72-23.903,23.942v65.828h58.156h58.156v-65.828
		C494.389,156.965,483.688,146.245,470.486,146.245z"/>
</g>
<path class="st4" d="M47.233,16.535c0-2.761,2.239-5,5-5h6.534V5c0-2.761,2.239-5,5-5s5,2.239,5,5v6.535h6.535c2.761,0,5,2.239,5,5
	s-2.239,5-5,5h-6.535v6.534c0,2.761-2.239,5-5,5s-5-2.239-5-5v-6.534h-6.534C49.472,21.535,47.233,19.296,47.233,16.535z
	 M424.699,21.535h6.534v6.534c0,2.761,2.238,5,5,5s5-2.239,5-5v-6.534h6.535c2.762,0,5-2.239,5-5s-2.238-5-5-5h-6.535V5
	c0-2.761-2.238-5-5-5s-5,2.239-5,5v6.535h-6.534c-2.762,0-5,2.239-5,5S421.938,21.535,424.699,21.535z M143.008,172.03
	c0-59.115,47.997-107.209,106.992-107.209s106.992,48.094,106.992,107.209c0,32.261-14.296,61.238-36.872,80.909h16.707
	c36.167,0,65.592,29.482,65.592,65.72v75.637c0,13.844-11.263,25.106-25.106,25.106h-2.361v58.01c0,2.761-2.238,5-5,5s-5-2.239-5-5
	v-58.01h-19.707v58.01c0,2.761-2.238,5-5,5s-5-2.239-5-5v-14.966h-80.243v14.966c0,2.761-2.239,5-5,5s-5-2.239-5-5v-14.966h-80.244
	v14.966c0,2.761-2.239,5-5,5s-5-2.239-5-5v-58.01h-19.707v58.01c0,2.761-2.239,5-5,5s-5-2.239-5-5v-58.01h-2.357
	c-13.845,0-25.109-11.264-25.109-25.109V318.66c0-36.238,29.424-65.72,65.591-65.72h16.707
	C157.304,233.269,143.008,204.292,143.008,172.03z M245,452.447v-33.044h-80.244v33.044H245z M335.244,419.403h-80.243v33.044
	h80.243V419.403z M392.419,394.296V346.33h-47.175v17.391c0,2.761-2.238,5-5,5h-0.114H250h-90.244h-0.114c-2.761,0-5-2.239-5-5
	V346.33h-47.06v47.963c0,8.332,6.778,15.109,15.109,15.109h7.357h29.707H250h90.244h29.707h7.361
	C385.643,409.403,392.419,402.626,392.419,394.296z M255.001,358.721h80.129v-30.178c-1.277-15.047-13.924-26.904-29.297-26.904
	h-21.421c-16.218,0-29.411,13.194-29.411,29.411V358.721z M245,331.05c0-16.217-13.194-29.411-29.412-29.411h-21.421
	c-16.217,0-29.411,13.194-29.411,29.411v27.671H245V331.05z M305.688,263.54c-0.268,0.165-0.539,0.326-0.809,0.488
	c-0.948,0.569-1.902,1.122-2.865,1.66c-0.409,0.229-0.816,0.459-1.228,0.683c-0.496,0.269-0.995,0.531-1.495,0.791
	c-0.498,0.261-1,0.516-1.502,0.769c-0.438,0.22-0.874,0.442-1.314,0.655c-0.884,0.429-1.775,0.845-2.672,1.25
	c-0.342,0.154-0.687,0.302-1.03,0.452c-0.709,0.312-1.422,0.615-2.14,0.912c-0.315,0.13-0.63,0.261-0.947,0.388
	c-1.012,0.407-2.031,0.801-3.058,1.178c-0.08,0.029-0.16,0.056-0.24,0.085c-0.993,0.361-1.994,0.704-3,1.036
	c-0.217,0.072-0.434,0.143-0.651,0.212c-2.199,0.71-4.429,1.352-6.687,1.92c-0.122,0.031-0.245,0.06-0.367,0.09
	c-1.053,0.261-2.112,0.507-3.177,0.736c-0.11,0.024-0.22,0.049-0.33,0.072c-2.286,0.485-4.6,0.894-6.937,1.23
	c-0.194,0.028-0.389,0.055-0.584,0.082c-1.084,0.149-2.172,0.285-3.266,0.402c-0.063,0.007-0.126,0.015-0.189,0.022
	c-1.149,0.12-2.303,0.22-3.462,0.304c-0.235,0.017-0.47,0.029-0.705,0.045c-0.907,0.059-1.817,0.107-2.73,0.143
	c-0.303,0.012-0.606,0.025-0.91,0.035c-1.127,0.036-2.257,0.06-3.392,0.06s-2.265-0.024-3.392-0.06
	c-0.304-0.009-0.607-0.022-0.91-0.035c-0.913-0.036-1.823-0.084-2.73-0.143c-0.235-0.016-0.47-0.028-0.704-0.045
	c-1.159-0.083-2.314-0.184-3.462-0.304c-0.063-0.007-0.126-0.015-0.189-0.022c-1.094-0.117-2.182-0.252-3.266-0.402
	c-0.194-0.027-0.389-0.054-0.583-0.082c-2.338-0.335-4.652-0.745-6.939-1.23c-0.109-0.023-0.217-0.048-0.326-0.071
	c-1.067-0.23-2.128-0.476-3.183-0.737c-0.121-0.03-0.242-0.059-0.363-0.089c-2.26-0.569-4.49-1.21-6.69-1.921
	c-0.216-0.069-0.432-0.14-0.648-0.211c-1.009-0.333-2.012-0.677-3.007-1.039c-0.078-0.028-0.156-0.054-0.234-0.083
	c-1.028-0.377-2.048-0.772-3.061-1.179c-0.315-0.126-0.627-0.256-0.941-0.386c-0.72-0.297-1.435-0.602-2.147-0.915
	c-0.342-0.15-0.685-0.297-1.026-0.45c-0.897-0.405-1.788-0.822-2.673-1.251c-0.44-0.213-0.877-0.436-1.314-0.655
	c-0.502-0.252-1.002-0.507-1.499-0.767c-0.502-0.262-1.003-0.524-1.501-0.794c-0.402-0.218-0.8-0.444-1.2-0.667
	c-0.975-0.545-1.942-1.105-2.902-1.682c-0.263-0.158-0.527-0.315-0.789-0.476c-0.333-0.204-0.671-0.397-1.002-0.604h-30.145
	c-30.653,0-55.591,24.996-55.591,55.72v17.67h47.06v-46.755c0-2.761,2.239-5,5-5s5,2.239,5,5v15.41
	c7.227-8.176,17.781-13.346,29.525-13.346h21.421c14.771,0,27.664,8.173,34.412,20.23c6.748-12.057,19.64-20.23,34.411-20.23h21.421
	c11.619,0,22.077,5.057,29.297,13.083v-15.147c0-2.761,2.238-5,5-5s5,2.239,5,5v38.626c0.068,0.942,0.114,1.89,0.114,2.849v5.28
	h47.175v-17.67c0-30.724-24.938-55.72-55.592-55.72h-30.145C306.354,263.146,306.018,263.337,305.688,263.54z M153.008,172.03
	c0,34.858,18.406,65.485,45.985,82.645c0.29,0.18,0.579,0.364,0.87,0.541c0.476,0.29,0.957,0.572,1.439,0.854
	c0.406,0.237,0.813,0.469,1.221,0.7c0.457,0.258,0.913,0.517,1.374,0.768c0.735,0.399,1.474,0.788,2.218,1.167
	c0.376,0.192,0.755,0.378,1.133,0.565c0.588,0.29,1.178,0.574,1.771,0.852c0.31,0.146,0.618,0.293,0.929,0.436
	c0.875,0.398,1.755,0.784,2.64,1.156c0.253,0.106,0.507,0.208,0.761,0.312c0.763,0.313,1.529,0.617,2.299,0.91
	c0.211,0.081,0.421,0.163,0.633,0.242c0.979,0.364,1.963,0.715,2.952,1.047c0.105,0.035,0.211,0.068,0.317,0.103
	c0.93,0.309,1.865,0.603,2.803,0.883c0.149,0.044,0.297,0.089,0.447,0.133c2.083,0.61,4.187,1.15,6.309,1.619
	c0.133,0.029,0.266,0.059,0.4,0.087c2.126,0.46,4.269,0.849,6.426,1.165c0.155,0.023,0.311,0.044,0.466,0.066
	c0.959,0.136,1.921,0.257,2.885,0.364c0.133,0.015,0.266,0.032,0.399,0.046c1.063,0.114,2.13,0.209,3.199,0.288
	c0.17,0.013,0.341,0.021,0.511,0.033c0.882,0.06,1.765,0.106,2.65,0.143c0.271,0.011,0.542,0.022,0.814,0.031
	c1.046,0.034,2.092,0.056,3.142,0.056c1.049,0,2.096-0.022,3.142-0.056c0.272-0.009,0.543-0.021,0.814-0.031
	c0.885-0.036,1.768-0.083,2.65-0.143c0.17-0.012,0.341-0.021,0.511-0.033c1.069-0.078,2.135-0.174,3.198-0.288
	c0.134-0.014,0.266-0.031,0.4-0.046c0.964-0.107,1.924-0.228,2.883-0.364c0.156-0.022,0.312-0.043,0.468-0.066
	c2.157-0.316,4.299-0.705,6.424-1.164c0.135-0.029,0.269-0.059,0.403-0.088c2.12-0.468,4.223-1.008,6.305-1.618
	c0.151-0.044,0.301-0.09,0.452-0.135c0.937-0.28,1.87-0.573,2.798-0.88c0.107-0.036,0.214-0.069,0.321-0.105
	c0.989-0.332,1.971-0.682,2.949-1.046c0.213-0.08,0.425-0.163,0.638-0.244c0.768-0.292,1.531-0.595,2.292-0.906
	c0.256-0.105,0.513-0.208,0.768-0.315c0.884-0.372,1.763-0.756,2.637-1.155c0.312-0.142,0.62-0.291,0.93-0.436
	c0.593-0.278,1.183-0.562,1.77-0.852c0.379-0.187,0.758-0.374,1.134-0.565c0.74-0.377,1.477-0.765,2.208-1.162
	c0.464-0.252,0.924-0.513,1.384-0.773c0.409-0.23,0.816-0.463,1.222-0.7c0.481-0.281,0.961-0.563,1.437-0.853
	c0.295-0.179,0.586-0.365,0.879-0.547c27.574-17.161,45.976-47.785,45.976-82.64c0-53.601-43.511-97.209-96.992-97.209
	C196.519,74.821,153.008,118.429,153.008,172.03z M183.385,181.738c0-12.675,10.313-22.988,22.988-22.988
	s22.988,10.313,22.988,22.988s-10.313,22.988-22.988,22.988S183.385,194.414,183.385,181.738z M193.385,181.738
	c0,7.162,5.826,12.988,12.988,12.988s12.988-5.826,12.988-12.988s-5.826-12.988-12.988-12.988S193.385,174.577,193.385,181.738z
	 M270.641,181.738c0-12.675,10.313-22.988,22.987-22.988c12.676,0,22.988,10.313,22.988,22.988s-10.313,22.988-22.988,22.988
	C280.953,204.726,270.641,194.414,270.641,181.738z M280.641,181.738c0,7.162,5.826,12.988,12.987,12.988
	c7.162,0,12.988-5.826,12.988-12.988s-5.826-12.988-12.988-12.988C286.467,168.75,280.641,174.577,280.641,181.738z M439.108,490
	H60.893c-2.761,0-5,2.239-5,5s2.239,5,5,5h378.216c2.762,0,5-2.239,5-5S441.87,490,439.108,490z M42.479,490h-3.813
	c-2.761,0-5,2.239-5,5s2.239,5,5,5h3.813c2.761,0,5-2.239,5-5S45.24,490,42.479,490z M461.336,490h-3.813c-2.762,0-5,2.239-5,5
	s2.238,5,5,5h3.813c2.762,0,5-2.239,5-5S464.098,490,461.336,490z M38.166,236.016v-67.315c0-2.761-2.239-5-5-5s-5,2.239-5,5v67.315
	c0,2.761,2.239,5,5,5S38.166,238.777,38.166,236.016z M99.369,236.016v-67.315c0-2.761-2.239-5-5-5s-5,2.239-5,5v67.315
	c0,2.761,2.239,5,5,5S99.369,238.777,99.369,236.016z M29.515,151.246c-10.423,0-18.903,8.497-18.903,18.942v65.828
	c0,2.761-2.239,5-5,5s-5-2.239-5-5v-65.828c0-15.77,12.663-28.625,28.34-28.928c-6.503-7.847-10.42-17.918-10.42-28.889
	c0-24.979,20.292-45.301,45.235-45.301c24.943,0,45.235,20.322,45.235,45.301c0,10.971-3.917,21.042-10.42,28.889
	c15.678,0.302,28.34,13.158,28.34,28.928v65.828c0,2.761-2.239,5-5,5s-5-2.239-5-5v-65.828c0-10.445-8.48-18.942-18.903-18.942
	H87.002c-0.366,0.22-0.746,0.412-1.118,0.621c-0.286,0.162-0.572,0.323-0.862,0.479c-0.448,0.239-0.898,0.471-1.353,0.694
	c-0.375,0.185-0.755,0.359-1.135,0.534c-0.501,0.229-1.002,0.455-1.51,0.666c-0.635,0.264-1.277,0.515-1.927,0.75
	c-0.345,0.125-0.694,0.238-1.043,0.354c-0.538,0.18-1.08,0.35-1.626,0.51c-0.321,0.094-0.64,0.188-0.963,0.274
	c-0.797,0.214-1.602,0.411-2.416,0.582c-0.082,0.017-0.163,0.037-0.245,0.053c-0.862,0.176-1.735,0.319-2.615,0.445
	c-0.268,0.038-0.538,0.069-0.807,0.103c-0.674,0.084-1.353,0.152-2.035,0.207c-0.269,0.021-0.536,0.045-0.805,0.062
	c-0.919,0.056-1.842,0.093-2.774,0.093s-1.856-0.038-2.774-0.093c-0.269-0.017-0.537-0.041-0.805-0.062
	c-0.683-0.054-1.362-0.123-2.036-0.207c-0.269-0.033-0.538-0.064-0.806-0.103c-0.88-0.126-1.755-0.27-2.619-0.446
	c-0.079-0.016-0.158-0.035-0.237-0.052c-0.816-0.171-1.622-0.368-2.422-0.583c-0.321-0.086-0.64-0.181-0.959-0.273
	c-0.548-0.161-1.092-0.331-1.631-0.512c-0.347-0.116-0.694-0.229-1.039-0.353c-0.654-0.237-1.3-0.49-1.94-0.756
	c-0.502-0.208-0.998-0.432-1.493-0.658c-0.383-0.176-0.765-0.351-1.142-0.537c-0.453-0.223-0.902-0.454-1.349-0.693
	c-0.292-0.156-0.579-0.319-0.868-0.481c-0.371-0.208-0.749-0.4-1.115-0.619H29.515z M28.532,112.371
	c0,12.676,6.706,23.809,16.748,30.035c0.246,0.152,0.494,0.298,0.743,0.444c0.543,0.318,1.095,0.622,1.656,0.912
	c0.331,0.171,0.662,0.343,0.998,0.502c0.327,0.156,0.658,0.303,0.99,0.449c0.372,0.163,0.748,0.318,1.125,0.468
	c0.28,0.111,0.556,0.228,0.839,0.332c0.625,0.229,1.257,0.439,1.893,0.633c0.247,0.075,0.498,0.143,0.747,0.213
	c0.509,0.143,1.021,0.274,1.536,0.394c0.211,0.049,0.42,0.101,0.633,0.146c0.709,0.15,1.423,0.281,2.142,0.387
	c0.159,0.024,0.32,0.04,0.48,0.062c0.601,0.081,1.205,0.146,1.811,0.195c0.207,0.017,0.414,0.034,0.623,0.047
	c0.754,0.048,1.51,0.081,2.269,0.081c0.76,0,1.516-0.033,2.269-0.081c0.208-0.013,0.416-0.031,0.623-0.048
	c0.606-0.049,1.21-0.114,1.811-0.195c0.16-0.021,0.321-0.038,0.481-0.062c0.719-0.106,1.432-0.237,2.141-0.387
	c0.213-0.045,0.424-0.098,0.635-0.147c0.514-0.119,1.024-0.25,1.531-0.392c0.251-0.071,0.503-0.139,0.751-0.214
	c0.635-0.193,1.266-0.402,1.89-0.631c0.286-0.105,0.566-0.223,0.849-0.336c0.373-0.148,0.744-0.302,1.112-0.463
	c0.336-0.147,0.671-0.296,1.001-0.454c0.324-0.154,0.644-0.321,0.964-0.485c0.578-0.298,1.147-0.61,1.706-0.938
	c0.239-0.14,0.477-0.28,0.713-0.426c10.047-6.225,16.758-17.361,16.758-30.042c0-19.465-15.807-35.301-35.235-35.301
	S28.532,92.906,28.532,112.371z M499.389,170.188v65.828c0,2.761-2.238,5-5,5s-5-2.239-5-5v-65.828
	c0-10.445-8.479-18.942-18.902-18.942h-11.019c-0.365,0.219-0.743,0.41-1.113,0.618c-0.288,0.163-0.576,0.326-0.869,0.482
	c-0.447,0.239-0.896,0.47-1.35,0.694c-0.375,0.185-0.755,0.359-1.135,0.533c-0.504,0.23-1.009,0.458-1.521,0.669
	c-0.632,0.262-1.27,0.513-1.915,0.747c-0.347,0.125-0.698,0.239-1.048,0.355c-0.536,0.179-1.075,0.349-1.62,0.508
	c-0.322,0.094-0.644,0.189-0.968,0.276c-0.794,0.213-1.594,0.409-2.404,0.579c-0.088,0.019-0.174,0.039-0.262,0.057
	c-0.859,0.175-1.73,0.318-2.606,0.444c-0.269,0.039-0.539,0.07-0.809,0.104c-0.673,0.084-1.351,0.152-2.033,0.207
	c-0.269,0.021-0.537,0.045-0.806,0.062c-0.919,0.056-1.842,0.093-2.774,0.093s-1.856-0.038-2.775-0.093
	c-0.269-0.017-0.536-0.041-0.805-0.062c-0.683-0.054-1.362-0.123-2.036-0.207c-0.269-0.033-0.538-0.064-0.806-0.103
	c-0.88-0.126-1.754-0.27-2.617-0.446c-0.08-0.016-0.16-0.035-0.24-0.052c-0.815-0.171-1.62-0.368-2.419-0.582
	c-0.322-0.086-0.642-0.181-0.962-0.274c-0.547-0.16-1.089-0.33-1.628-0.51c-0.348-0.116-0.696-0.229-1.042-0.354
	c-0.65-0.235-1.292-0.487-1.928-0.751c-0.507-0.21-1.008-0.436-1.508-0.664c-0.382-0.175-0.763-0.35-1.139-0.535
	c-0.453-0.223-0.902-0.455-1.349-0.693c-0.293-0.157-0.581-0.32-0.87-0.483c-0.37-0.208-0.748-0.398-1.113-0.618H401.98
	c-10.423,0-18.902,8.497-18.902,18.942v65.828c0,2.761-2.238,5-5,5s-5-2.239-5-5v-65.828c0-15.77,12.663-28.625,28.34-28.928
	c-6.504-7.847-10.42-17.918-10.42-28.889c0-24.979,20.293-45.301,45.235-45.301s45.235,20.322,45.235,45.301
	c0,10.971-3.917,21.042-10.42,28.889C486.726,141.562,499.389,154.418,499.389,170.188z M400.998,112.371
	c0,12.678,6.708,23.812,16.752,30.038c0.241,0.149,0.485,0.292,0.73,0.436c0.552,0.324,1.113,0.631,1.683,0.925
	c0.325,0.167,0.649,0.336,0.978,0.493c0.329,0.157,0.662,0.305,0.997,0.452c0.37,0.162,0.742,0.316,1.117,0.465
	c0.282,0.112,0.56,0.229,0.846,0.334c0.624,0.229,1.255,0.438,1.891,0.632c0.248,0.076,0.5,0.144,0.751,0.214
	c0.507,0.142,1.018,0.273,1.532,0.393c0.212,0.049,0.422,0.102,0.635,0.147c0.709,0.15,1.422,0.281,2.141,0.387
	c0.159,0.024,0.321,0.04,0.481,0.062c0.601,0.081,1.205,0.146,1.811,0.195c0.207,0.017,0.415,0.035,0.623,0.048
	c0.754,0.048,1.51,0.081,2.269,0.081c0.76,0,1.516-0.033,2.269-0.081c0.209-0.013,0.416-0.031,0.624-0.048
	c0.605-0.049,1.207-0.114,1.807-0.194c0.161-0.022,0.324-0.038,0.485-0.062c0.717-0.106,1.43-0.237,2.137-0.387
	c0.216-0.046,0.43-0.099,0.645-0.149c0.509-0.118,1.015-0.248,1.518-0.389c0.255-0.071,0.51-0.14,0.762-0.217
	c0.633-0.192,1.261-0.401,1.882-0.629c0.291-0.107,0.575-0.227,0.862-0.341c0.368-0.146,0.734-0.297,1.098-0.457
	c0.338-0.148,0.676-0.299,1.008-0.458c0.321-0.153,0.637-0.317,0.954-0.48c0.578-0.298,1.148-0.61,1.707-0.939
	c0.242-0.142,0.484-0.284,0.723-0.432c10.045-6.226,16.753-17.36,16.753-30.039c0-19.465-15.807-35.301-35.235-35.301
	S400.998,92.906,400.998,112.371z M410.632,236.016v-67.315c0-2.761-2.238-5-5-5s-5,2.239-5,5v67.315c0,2.761,2.238,5,5,5
	S410.632,238.777,410.632,236.016z M466.835,163.701c-2.762,0-5,2.239-5,5v67.315c0,2.761,2.238,5,5,5s5-2.239,5-5v-67.315
	C471.835,165.939,469.597,163.701,466.835,163.701z M211.4,239.657c-1.713,2.166-1.346,5.311,0.82,7.023
	c2.167,1.713,5.311,1.345,7.023-0.82c0.729-0.922,1.819-1.45,2.991-1.45s2.262,0.529,2.992,1.451
	c2.637,3.334,6.586,5.247,10.834,5.247c4.247,0,8.196-1.912,10.835-5.247c0.729-0.922,1.819-1.45,2.991-1.45
	c1.172,0,2.262,0.528,2.992,1.452c2.639,3.333,6.588,5.246,10.834,5.246c4.248,0,8.197-1.913,10.835-5.247
	c0.729-0.922,1.819-1.45,2.991-1.45s2.262,0.528,2.99,1.45c1.714,2.167,4.858,2.531,7.023,0.82c2.166-1.713,2.533-4.857,0.82-7.023
	c-2.637-3.334-6.586-5.247-10.834-5.247c-4.249,0-8.198,1.913-10.835,5.247c-0.729,0.922-1.819,1.451-2.991,1.451
	s-2.263-0.529-2.991-1.45c-2.637-3.334-6.586-5.247-10.834-5.247s-8.197,1.913-10.833,5.246c-0.73,0.922-1.82,1.451-2.992,1.451
	s-2.262-0.529-2.991-1.451c-2.638-3.334-6.586-5.247-10.834-5.247C217.986,234.41,214.038,236.322,211.4,239.657z M250,15.244
	c2.761,0,5-2.239,5-5V5c0-2.761-2.238-5-5-5s-5,2.239-5,5v5.244C245,13.005,247.239,15.244,250,15.244z M250,54.862
	c2.761,0,5-2.239,5-5V27.52c0-2.761-2.238-5-5-5s-5,2.239-5,5v22.342C245,52.623,247.239,54.862,250,54.862z M222.45,15.244
	c2.761,0,5-2.239,5-5V5c0-2.761-2.239-5-5-5s-5,2.239-5,5v5.244C217.45,13.005,219.689,15.244,222.45,15.244z M222.45,59.009
	c2.761,0,5-2.239,5-5V27.52c0-2.761-2.239-5-5-5s-5,2.239-5,5v26.489C217.45,56.77,219.689,59.009,222.45,59.009z M194.9,15.244
	c2.761,0,5-2.239,5-5V5c0-2.761-2.239-5-5-5s-5,2.239-5,5v5.244C189.9,13.005,192.139,15.244,194.9,15.244z M194.9,68.458
	c2.761,0,5-2.239,5-5V27.52c0-2.761-2.239-5-5-5s-5,2.239-5,5v35.938C189.9,66.219,192.139,68.458,194.9,68.458z M277.551,15.244
	c2.762,0,5-2.239,5-5V5c0-2.761-2.238-5-5-5s-5,2.239-5,5v5.244C272.551,13.005,274.789,15.244,277.551,15.244z M277.551,59.009
	c2.762,0,5-2.239,5-5V27.52c0-2.761-2.238-5-5-5s-5,2.239-5,5v26.489C272.551,56.77,274.789,59.009,277.551,59.009z M305.101,15.244
	c2.762,0,5-2.239,5-5V5c0-2.761-2.238-5-5-5s-5,2.239-5,5v5.244C300.101,13.005,302.339,15.244,305.101,15.244z M305.101,68.458
	c2.762,0,5-2.239,5-5V27.52c0-2.761-2.238-5-5-5s-5,2.239-5,5v35.938C300.101,66.219,302.339,68.458,305.101,68.458z"/>
</svg>
