<?xml version="1.0" encoding="utf-8"?>
<!-- Generator: Adobe Illustrator 23.0.0, SVG Export Plug-In . SVG Version: 6.00 Build 0)  -->
<svg version="1.1" id="Layer_1" xmlns="http://www.w3.org/2000/svg" xmlns:xlink="http://www.w3.org/1999/xlink" x="0px" y="0px"
	 viewBox="0 0 500 500" style="enable-background:new 0 0 500 500;" xml:space="preserve">
<style type="text/css">
	.st0{fill:#83E1E5;}
	.st1{fill:#AAB1BA;}
	.st2{fill:#FDDF7F;}
	.st3{fill:#ECF4F7;}
	.st4{fill:#1C1D21;}
</style>
<g>
	<g>
		<path class="st2" d="M190.561,172.03c0-41.227,24.359-76.747,59.439-92.909c-12.952-5.967-27.363-9.3-42.553-9.3
			c-56.329,0-101.992,45.761-101.992,102.209c0,56.449,45.663,102.209,101.992,102.209c15.19,0,29.601-3.333,42.553-9.3
			C214.92,248.778,190.561,213.257,190.561,172.03z"/>
	</g>
</g>
<g>
	<g>
		<path class="st1" d="M292.553,69.821c-15.19,0-29.601,3.333-42.553,9.3c35.08,16.162,59.439,51.682,59.439,92.909
			c0,41.227-24.359,76.747-59.439,92.909c12.952,5.967,27.363,9.3,42.553,9.3c56.329,0,101.992-45.76,101.992-102.209
			C394.545,115.582,348.882,69.821,292.553,69.821z"/>
	</g>
</g>
<g>
	<g>
		<ellipse class="st0" cx="250" cy="172.03" rx="59.439" ry="92.909"/>
	</g>
</g>
<g>
	<g>
		<path class="st0" d="M346.574,258.732c-15.665,9.823-34.18,15.507-54.021,15.507c-15.19,0-29.601-3.333-42.553-9.3
			c-12.952,5.967-27.363,9.3-42.553,9.3c-19.842,0-38.356-5.684-54.021-15.507c-28.827,4.674-50.844,29.719-50.844,59.927v75.634
			c0,11.106,9.002,20.109,20.106,20.109h4.436h245.752h4.436c11.104,0,20.106-9.003,20.106-20.109V318.66
			C397.418,288.451,375.402,263.406,346.574,258.732z"/>
	</g>
</g>
<g>
	<g>
		<rect x="130.049" y="414.403" class="st0" width="239.902" height="80.597"/>
	</g>
</g>
<g>
	<g>
		<path class="st2" d="M340.13,341.33v22.391H159.642V341.33h-57.06v52.963c0,11.106,9.002,20.109,20.106,20.109h254.624
			c11.104,0,20.106-9.003,20.106-20.109V341.33H340.13z"/>
	</g>
</g>
<path class="st1" d="M305.833,296.639h-21.421c-19.005,0-34.411,15.406-34.411,34.411c0-19.005-15.406-34.411-34.412-34.411h-21.421
	c-19.005,0-34.411,15.406-34.411,34.411v32.671h180.488V331.05C340.244,312.046,324.838,296.639,305.833,296.639z"/>
<rect x="159.756" y="414.403" class="st1" width="180.488" height="80.597"/>
<g>
	<g>
		<polygon class="st2" points="250,457.447 159.756,457.447 159.756,495 250,495 340.244,495 340.244,457.447 		"/>
	</g>
</g>
<path class="st4" d="M292.767,16.534c0-2.761,2.239-5,5-5h6.534V5c0-2.761,2.239-5,5-5c2.761,0,5,2.239,5,5v6.534h6.535
	c2.761,0,5,2.239,5,5s-2.239,5-5,5h-6.535v6.535c0,2.761-2.239,5-5,5c-2.761,0-5-2.239-5-5v-6.535h-6.534
	C295.006,21.534,292.767,19.296,292.767,16.534z M238.465,21.534H245v6.535c0,2.761,2.239,5,5,5s5-2.239,5-5v-6.535h6.535
	c2.761,0,5-2.239,5-5s-2.239-5-5-5H255V5c0-2.761-2.239-5-5-5s-5,2.239-5,5v6.534h-6.535c-2.761,0-5,2.239-5,5
	S235.704,21.534,238.465,21.534z M179.164,21.534h6.535v6.535c0,2.761,2.239,5,5,5c2.761,0,5-2.239,5-5v-6.535h6.534
	c2.761,0,5-2.239,5-5s-2.239-5-5-5h-6.534V5c0-2.761-2.239-5-5-5c-2.761,0-5,2.239-5,5v6.534h-6.535c-2.761,0-5,2.239-5,5
	S176.403,21.534,179.164,21.534z M97.582,394.293V318.66c0-28.576,17.997-53.151,44.111-62.115
	c-25.083-19.638-41.238-50.22-41.238-84.515c0-59.115,47.997-107.209,106.992-107.209c15.115,0,29.504,3.164,42.553,8.854
	c13.049-5.69,27.438-8.854,42.553-8.854c58.996,0,106.992,48.094,106.992,107.209c0,34.294-16.155,64.877-41.238,84.515
	c26.114,8.964,44.111,33.539,44.111,62.115v75.637c0,13.844-11.263,25.106-25.106,25.106h-2.36v60.694c0,2.761-2.239,5-5,5
	s-5-2.239-5-5v-60.694h-19.707v60.141c0,2.761-2.239,5-5,5s-5-2.239-5-5v-17.096H255v17.096c0,2.761-2.239,5-5,5s-5-2.239-5-5
	v-17.096h-80.244v17.096c0,2.761-2.239,5-5,5s-5-2.239-5-5v-60.141h-19.707v60.141c0,2.761-2.239,5-5,5s-5-2.239-5-5v-60.141h-2.358
	C108.846,419.403,97.582,408.139,97.582,394.293z M245,452.447v-33.044h-80.244v33.044H245z M335.244,419.403H255v33.044h80.244
	V419.403z M392.418,394.296V346.33h-47.174v17.391c0,2.761-2.239,5-5,5h-0.114H250h-90.244h-0.114c-2.761,0-5-2.239-5-5V346.33
	h-47.06v47.963c0,8.331,6.778,15.109,15.109,15.109h7.358h29.707H250h90.244h29.707h7.36
	C385.641,409.403,392.418,402.626,392.418,394.296z M255,358.721h80.13v-30.177c-1.277-15.048-13.924-26.905-29.297-26.905h-21.421
	c-16.218,0-29.412,13.194-29.412,29.411V358.721z M245,331.05c0-16.217-13.194-29.411-29.412-29.411h-21.421
	c-16.217,0-29.411,13.194-29.411,29.411v27.671H245V331.05z M261.921,79.793c31.415,18.699,52.518,53.043,52.518,92.237
	s-21.103,73.538-52.518,92.237c7.367,2.464,15.123,4.068,23.151,4.685c0.091,0.007,0.182,0.011,0.273,0.018
	c0.719,0.053,1.439,0.101,2.162,0.138c0.345,0.017,0.691,0.027,1.037,0.041c0.484,0.02,0.966,0.043,1.452,0.056
	c0.85,0.022,1.703,0.034,2.557,0.034c1.03,0,2.059-0.021,3.086-0.054c0.266-0.008,0.531-0.02,0.797-0.031
	c0.834-0.033,1.667-0.076,2.499-0.131c0.209-0.014,0.419-0.025,0.628-0.04c1.046-0.075,2.09-0.165,3.131-0.274
	c0.072-0.008,0.144-0.017,0.217-0.025c0.961-0.103,1.918-0.222,2.874-0.353c0.212-0.029,0.425-0.059,0.637-0.09
	c0.961-0.138,1.919-0.289,2.874-0.456c0.063-0.011,0.127-0.021,0.19-0.032c1.018-0.18,2.033-0.38,3.044-0.592
	c0.226-0.048,0.451-0.099,0.676-0.148c0.77-0.168,1.538-0.346,2.303-0.532c0.288-0.07,0.577-0.139,0.864-0.212
	c0.912-0.231,1.821-0.474,2.726-0.731c0.356-0.102,0.709-0.212,1.064-0.318c0.547-0.162,1.092-0.329,1.636-0.501
	c0.504-0.16,1.007-0.323,1.507-0.491c0.333-0.112,0.665-0.228,0.997-0.344c37.937-13.208,65.244-49.393,65.244-91.855
	c0-53.601-43.51-97.209-96.992-97.209C281.853,74.822,271.554,76.571,261.921,79.793z M304.439,172.031
	c0-38.311-22.23-71.512-54.439-87.339c-32.209,15.827-54.439,49.028-54.439,87.339s22.23,71.512,54.439,87.339
	C282.209,243.542,304.439,210.342,304.439,172.031z M175.698,263.885c0.332,0.115,0.664,0.232,0.997,0.344
	c0.5,0.168,1.003,0.331,1.507,0.491c0.544,0.172,1.089,0.338,1.636,0.501c0.355,0.106,0.707,0.216,1.064,0.318
	c0.905,0.258,1.814,0.5,2.726,0.731c0.287,0.073,0.576,0.141,0.864,0.212c0.765,0.186,1.533,0.365,2.303,0.532
	c0.225,0.049,0.45,0.1,0.676,0.148c1.011,0.212,2.025,0.412,3.044,0.592c0.063,0.011,0.127,0.021,0.19,0.032
	c0.955,0.167,1.914,0.317,2.874,0.456c0.212,0.031,0.424,0.06,0.637,0.09c0.956,0.131,1.913,0.25,2.874,0.353
	c0.072,0.008,0.144,0.017,0.217,0.025c1.041,0.109,2.085,0.199,3.131,0.274c0.209,0.015,0.419,0.026,0.628,0.04
	c0.831,0.055,1.664,0.098,2.499,0.131c0.266,0.011,0.531,0.022,0.797,0.031c1.027,0.032,2.055,0.054,3.086,0.054
	c0.854,0,1.706-0.012,2.557-0.034c0.485-0.013,0.968-0.036,1.452-0.056c0.346-0.014,0.692-0.024,1.037-0.041
	c0.723-0.037,1.443-0.085,2.162-0.138c0.091-0.007,0.182-0.011,0.273-0.018c8.028-0.617,15.784-2.221,23.151-4.685
	c-31.415-18.699-52.518-53.043-52.518-92.237s21.103-73.538,52.518-92.237c-9.633-3.222-19.932-4.972-30.632-4.972
	c-53.482,0-96.992,43.608-96.992,97.209C110.455,214.492,137.762,250.677,175.698,263.885z M107.582,318.66v17.671h47.06v-46.755
	c0-2.761,2.239-5,5-5s5,2.239,5,5v15.41c7.227-8.176,17.781-13.346,29.525-13.346h21.421c14.772,0,27.664,8.173,34.412,20.23
	c6.748-12.057,19.64-20.23,34.412-20.23h21.421c11.619,0,22.077,5.057,29.297,13.083v-15.147c0-2.761,2.239-5,5-5s5,2.239,5,5
	v38.626c0.068,0.942,0.114,1.89,0.114,2.849v5.28h47.174V318.66c0-26.871-18.751-49.577-44.848-54.671
	c-5.681,3.419-11.648,6.271-17.814,8.562c-0.247,0.092-0.493,0.184-0.74,0.274c-0.614,0.223-1.23,0.442-1.848,0.653
	c-0.458,0.157-0.919,0.308-1.38,0.459c-0.527,0.172-1.053,0.348-1.582,0.512c-0.899,0.28-1.804,0.546-2.713,0.802
	c-0.343,0.096-0.688,0.187-1.032,0.28c-0.755,0.205-1.513,0.401-2.275,0.59c-0.294,0.073-0.588,0.146-0.882,0.216
	c-2.139,0.509-4.302,0.954-6.488,1.332c-0.198,0.034-0.397,0.066-0.596,0.099c-0.938,0.157-1.88,0.301-2.826,0.433
	c-0.197,0.027-0.393,0.057-0.589,0.083c-2.205,0.295-4.431,0.523-6.675,0.681c-0.27,0.019-0.54,0.035-0.81,0.052
	c-0.853,0.054-1.709,0.097-2.568,0.13c-0.296,0.011-0.591,0.025-0.887,0.034c-1.1,0.034-2.203,0.056-3.311,0.056
	c-0.437,0-0.872-0.011-1.308-0.017c-14.334-0.17-28.193-3.123-41.245-8.805c-13.053,5.682-26.911,8.635-41.245,8.805
	c-0.436,0.005-0.871,0.017-1.308,0.017c-1.108,0-2.211-0.023-3.311-0.056c-0.296-0.009-0.591-0.022-0.887-0.034
	c-0.858-0.033-1.714-0.077-2.568-0.13c-0.27-0.017-0.54-0.033-0.81-0.052c-2.245-0.158-4.47-0.386-6.675-0.681
	c-0.197-0.026-0.393-0.055-0.589-0.083c-0.946-0.132-1.888-0.277-2.826-0.433c-0.198-0.033-0.397-0.065-0.596-0.099
	c-2.186-0.378-4.349-0.823-6.488-1.332c-0.295-0.07-0.588-0.144-0.882-0.216c-0.762-0.188-1.52-0.385-2.275-0.59
	c-0.344-0.093-0.689-0.184-1.032-0.28c-0.909-0.256-1.814-0.522-2.713-0.802c-0.53-0.164-1.055-0.34-1.582-0.512
	c-0.461-0.151-0.922-0.302-1.38-0.459c-0.618-0.212-1.234-0.43-1.848-0.653c-0.247-0.09-0.494-0.182-0.74-0.274
	c-6.165-2.291-12.132-5.142-17.814-8.562C126.333,269.082,107.582,291.789,107.582,318.66z M440.835,490h-3.813
	c-2.761,0-5,2.239-5,5s2.239,5,5,5h3.813c2.761,0,5-2.239,5-5S443.597,490,440.835,490z M419.862,490H80.138c-2.761,0-5,2.239-5,5
	s2.239,5,5,5h339.725c2.761,0,5-2.239,5-5S422.624,490,419.862,490z M62.978,490h-3.813c-2.761,0-5,2.239-5,5s2.239,5,5,5h3.813
	c2.761,0,5-2.239,5-5S65.739,490,62.978,490z"/>
</svg>
