<?xml version="1.0" encoding="utf-8"?>
<!-- Generator: Adobe Illustrator 23.0.0, SVG Export Plug-In . SVG Version: 6.00 Build 0)  -->
<svg version="1.1" id="Layer_1" xmlns="http://www.w3.org/2000/svg" xmlns:xlink="http://www.w3.org/1999/xlink" x="0px" y="0px"
	 viewBox="0 0 500 500" style="enable-background:new 0 0 500 500;" xml:space="preserve">
<style type="text/css">
	.st0{fill:#83E1E5;}
	.st1{fill:#AAB1BA;}
	.st2{fill:#FDDF7F;}
	.st3{fill:#ECF4F7;}
	.st4{fill:#1C1D21;}
</style>
<g>
	<path class="st2" d="M302.606,77.544c-43.419,0-80.528,27.056-95.444,65.253h12.25c10.606,0,19.204,8.598,19.204,19.204v53.052
		c0,10.606-8.598,19.204-19.204,19.204h-3.876c18.076,29.129,50.309,48.526,87.07,48.526c56.582,0,102.451-45.944,102.451-102.62
		C405.057,123.488,359.188,77.544,302.606,77.544z"/>
</g>
<g>
	<path class="st0" d="M389.824,266.418h-31.697c-15.998,10.353-35.058,16.365-55.521,16.365c-20.463,0-39.523-6.013-55.521-16.365
		H88.254l29.037-53.692v-55.124H104.92c-9.179,0-17.658,4.908-22.229,12.869L15.985,286.638c-8.945,15.577,2.3,35.002,20.263,35.002
		h143.278V495h271.162V327.382C450.687,293.713,423.438,266.418,389.824,266.418z"/>
</g>
<g>
	<path class="st2" d="M138.997,266.418H88.254l29.037-53.692v-55.124H104.92c-9.179,0-17.658,4.908-22.229,12.869L15.985,286.638
		c-8.945,15.577,2.3,35.002,20.263,35.002h102.749V266.418z"/>
</g>
<g>
	<g>
		<rect x="397.882" y="363.254" class="st2" width="52.805" height="131.746"/>
	</g>
</g>
<g>
	<path class="st1" d="M219.412,142.797h-55.135c-5.093,0-9.978,2.023-13.579,5.625l-9.18,9.18h-24.213v55.124h24.213h23.583v9.35
		c0,6.728,5.454,12.182,12.182,12.182h42.129c10.606,0,19.204-8.598,19.204-19.204v-53.052
		C238.616,151.395,230.018,142.797,219.412,142.797z"/>
</g>
<g>
	<path class="st3" d="M283.106,230.905h67.935c4.852,0,8.786-3.934,8.786-8.786v-2.929c0-11.053-8.96-20.013-20.013-20.013h-45.482
		c-11.053,0-20.013,8.96-20.013,20.013v2.929C274.32,226.971,278.253,230.905,283.106,230.905z"/>
</g>
<path class="st4" d="M339.74,16.534c0-2.762,2.239-5,5-5h6.535V5c0-2.762,2.239-5,5-5s5,2.238,5,5v6.534h6.535c2.761,0,5,2.238,5,5
	s-2.239,5-5,5h-6.535v6.535c0,2.762-2.239,5-5,5s-5-2.238-5-5v-6.535h-6.535C341.979,21.534,339.74,19.296,339.74,16.534z
	 M294.575,21.534h6.535v6.535c0,2.762,2.239,5,5,5s5-2.238,5-5v-6.535h6.535c2.761,0,5-2.238,5-5s-2.239-5-5-5h-6.535V5
	c0-2.762-2.239-5-5-5s-5,2.238-5,5v6.534h-6.535c-2.761,0-5,2.238-5,5S291.813,21.534,294.575,21.534z M244.41,21.534h6.534v6.535
	c0,2.762,2.239,5,5,5s5-2.238,5-5v-6.535h6.535c2.761,0,5-2.238,5-5s-2.239-5-5-5h-6.535V5c0-2.762-2.239-5-5-5s-5,2.238-5,5v6.534
	h-6.534c-2.761,0-5,2.238-5,5S241.648,21.534,244.41,21.534z M364.827,219.189v2.929c0,7.602-6.185,13.786-13.786,13.786h-67.935
	c-7.602,0-13.786-6.185-13.786-13.786v-2.929c0-13.792,11.221-25.013,25.013-25.013h45.482
	C353.606,194.177,364.827,205.397,364.827,219.189z M354.827,219.189c0-8.278-6.735-15.013-15.013-15.013h-45.482
	c-8.278,0-15.013,6.734-15.013,15.013v2.929c0,2.088,1.698,3.786,3.786,3.786h67.935c2.088,0,3.786-1.698,3.786-3.786V219.189z
	 M330.362,157.611l27.345,13.038c0.694,0.331,1.427,0.487,2.148,0.487c1.868,0,3.659-1.051,4.517-2.849
	c1.188-2.493,0.131-5.478-2.361-6.666l-17.879-8.524l17.879-8.526c2.493-1.188,3.55-4.172,2.361-6.665
	c-1.189-2.492-4.172-3.552-6.665-2.36l-27.345,13.039c-1.74,0.829-2.848,2.585-2.848,4.513S328.622,156.781,330.362,157.611z
	 M269.774,168.288c0.857,1.798,2.649,2.849,4.517,2.849c0.721,0,1.454-0.156,2.148-0.487l27.345-13.038
	c1.74-0.83,2.848-2.586,2.848-4.514s-1.108-3.684-2.848-4.513l-27.345-13.039c-2.492-1.191-5.477-0.133-6.665,2.36
	c-1.188,2.493-0.131,5.477,2.361,6.665l17.879,8.526l-17.879,8.524C269.643,162.811,268.586,165.795,269.774,168.288z
	 M36.248,326.64c-10.241,0-19.418-5.291-24.549-14.154c-5.131-8.863-5.149-19.457-0.05-28.338L78.355,167.98
	c5.446-9.485,15.625-15.379,26.565-15.379h12.371c0.002,0,0.005,0.001,0.007,0.001s0.005-0.001,0.007-0.001h22.143l7.715-7.715
	c4.572-4.572,10.65-7.09,17.115-7.09h39.538c7.938-18.569,20.851-34.443,37.523-46.054c18.036-12.561,39.223-19.199,61.268-19.199
	c59.249,0,107.451,48.277,107.451,107.619c0,32.404-14.374,61.508-37.07,81.255h16.837c36.317,0,65.864,29.591,65.864,65.964
	v149.276c0,2.762-2.239,5-5,5s-5-2.238-5-5V368.254h-42.805v108.404c0,2.762-2.239,5-5,5s-5-2.238-5-5V323.596c0-2.762,2.239-5,5-5
	s5,2.238,5,5v34.658h42.805v-30.872c0-30.858-25.061-55.964-55.864-55.964h-30.239c-7.069,4.437-14.59,7.991-22.407,10.65
	c-0.07,0.023-0.139,0.048-0.208,0.071c-0.732,0.247-1.467,0.487-2.204,0.719c-0.282,0.089-0.566,0.173-0.849,0.26
	c-1.009,0.308-2.023,0.601-3.041,0.878c-0.548,0.15-1.095,0.301-1.646,0.442c-0.497,0.126-0.995,0.246-1.493,0.365
	c-0.62,0.149-1.241,0.293-1.865,0.432c-0.428,0.095-0.854,0.19-1.283,0.28c-1.021,0.213-2.046,0.415-3.078,0.599
	c-0.239,0.043-0.478,0.079-0.717,0.12c-0.879,0.15-1.761,0.29-2.647,0.419c-0.334,0.049-0.668,0.096-1.003,0.142
	c-0.922,0.125-1.847,0.239-2.776,0.341c-0.194,0.021-0.387,0.047-0.581,0.066c-1.114,0.116-2.233,0.213-3.356,0.294
	c-0.275,0.02-0.55,0.035-0.825,0.053c-0.879,0.057-1.761,0.104-2.646,0.139c-0.318,0.013-0.635,0.026-0.953,0.036
	c-1.13,0.035-2.262,0.06-3.4,0.06c-1.23,0-2.455-0.023-3.678-0.064c-0.276-0.009-0.55-0.027-0.825-0.039
	c-0.967-0.04-1.933-0.087-2.895-0.152c-0.241-0.016-0.482-0.039-0.723-0.057c-1.02-0.076-2.038-0.164-3.052-0.268
	c-0.149-0.016-0.297-0.034-0.445-0.05c-1.138-0.122-2.271-0.261-3.4-0.418c-0.02-0.003-0.04-0.006-0.061-0.009
	c-15.097-2.108-29.365-7.357-42.012-15.309H143.997v45.222h35.529c2.761,0,5,2.238,5,5v155.019c0,2.762-2.239,5-5,5s-5-2.238-5-5
	V326.64H36.248z M232.083,261.418c-7.293-6.377-13.79-13.801-19.276-22.161h-35.524c-9.474,0-17.182-7.708-17.182-17.182v-4.35
	h-18.583h-21.247l-23.629,43.692H232.083z M214.777,137.797h4.635c13.346,0,24.204,10.858,24.204,24.204v53.052
	c0,0.659-0.034,1.31-0.086,1.956c-0.008,0.099-0.014,0.199-0.023,0.298c-0.057,0.613-0.139,1.219-0.241,1.818
	c-0.02,0.115-0.04,0.229-0.062,0.344c-0.111,0.6-0.241,1.193-0.395,1.776c-0.021,0.081-0.046,0.16-0.068,0.24
	c-0.161,0.583-0.34,1.158-0.543,1.724c-0.013,0.035-0.024,0.072-0.037,0.107c-0.21,0.576-0.446,1.138-0.697,1.692
	c-0.043,0.095-0.085,0.19-0.129,0.285c-0.25,0.532-0.519,1.055-0.806,1.565c-0.053,0.095-0.108,0.188-0.162,0.282
	c-0.299,0.517-0.613,1.023-0.948,1.515c-0.035,0.052-0.073,0.101-0.108,0.152c-0.333,0.479-0.682,0.946-1.047,1.399
	c-0.04,0.05-0.078,0.102-0.118,0.15c-0.375,0.459-0.77,0.9-1.178,1.33c-0.075,0.079-0.15,0.158-0.226,0.237
	c-0.405,0.416-0.825,0.818-1.259,1.204c-0.078,0.069-0.157,0.136-0.235,0.204c-0.453,0.394-0.918,0.774-1.399,1.134
	c-0.03,0.022-0.062,0.043-0.092,0.065c-0.472,0.349-0.958,0.678-1.455,0.991c-0.073,0.046-0.144,0.095-0.218,0.14
	c-0.499,0.309-1.012,0.596-1.534,0.867c-0.103,0.054-0.206,0.106-0.309,0.159c-0.524,0.263-1.057,0.509-1.601,0.734
	c-0.092,0.038-0.185,0.073-0.278,0.109c-0.565,0.227-1.139,0.437-1.724,0.62c-0.013,0.005-0.026,0.01-0.039,0.014
	c-0.589,0.184-1.191,0.338-1.798,0.477c-0.066,0.016-0.129,0.037-0.194,0.052c6.881,9.222,15.193,17.019,24.531,23.165
	c0.229,0.104,0.452,0.222,0.665,0.359c12.746,8.247,27.15,13.344,42.161,14.982c0.127,0.014,0.254,0.025,0.381,0.039
	c0.933,0.098,1.868,0.18,2.805,0.251c0.269,0.021,0.538,0.041,0.808,0.06c0.833,0.056,1.668,0.099,2.504,0.134
	c0.289,0.013,0.577,0.028,0.866,0.038c1.091,0.036,2.183,0.059,3.278,0.059c1.052,0,2.102-0.022,3.15-0.057
	c0.286-0.009,0.571-0.021,0.856-0.032c0.854-0.035,1.707-0.08,2.558-0.138c0.213-0.014,0.426-0.025,0.638-0.04
	c1.032-0.076,2.061-0.169,3.088-0.277c0.241-0.025,0.481-0.056,0.722-0.083c0.812-0.092,1.621-0.194,2.429-0.306
	c0.297-0.041,0.594-0.081,0.89-0.125c0.983-0.146,1.963-0.303,2.94-0.478c0.251-0.046,0.5-0.098,0.75-0.145
	c0.731-0.138,1.46-0.283,2.188-0.437c0.42-0.089,0.839-0.181,1.257-0.275c0.572-0.129,1.141-0.266,1.71-0.405
	c0.814-0.199,1.623-0.409,2.429-0.629c0.403-0.109,0.806-0.218,1.207-0.332c0.62-0.179,1.238-0.364,1.853-0.554
	c0.223-0.068,0.444-0.14,0.666-0.21c39.446-12.498,68.121-49.505,68.121-93.099c0-53.827-43.716-97.619-97.451-97.619
	C264.672,82.544,230.957,103.997,214.777,137.797z M146.518,159.673v48.053h18.583h24.849c3.583,0,6.497-2.915,6.497-6.497
	s-2.915-6.497-6.497-6.497h-24.849c-2.761,0-5-2.238-5-5s2.239-5,5-5h24.849c9.097,0,16.497,7.4,16.497,16.497
	s-7.4,16.497-16.497,16.497h-19.849v4.35c0,3.96,3.222,7.182,7.182,7.182h38.253h3.875c7.832,0,14.204-6.372,14.204-14.204v-53.052
	c0-7.832-6.372-14.204-14.204-14.204h-12.25h-42.885c-3.794,0-7.361,1.478-10.044,4.16L146.518,159.673z M122.305,207.726h14.213
	v-45.124h-14.213V207.726z M36.248,316.64h97.749v-45.222H88.254c-1.761,0-3.393-0.927-4.295-2.44
	c-0.902-1.513-0.941-3.389-0.103-4.938l28.435-52.579v-48.858h-7.371c-7.368,0-14.224,3.97-17.893,10.358L20.321,289.128
	c-3.302,5.75-3.29,12.608,0.033,18.347C23.675,313.214,29.617,316.64,36.248,316.64z M469.232,490H30.769c-2.761,0-5,2.238-5,5
	s2.239,5,5,5h438.464c2.761,0,5-2.238,5-5S471.994,490,469.232,490z M9.421,490H5c-2.761,0-5,2.238-5,5s2.239,5,5,5h4.421
	c2.761,0,5-2.238,5-5S12.183,490,9.421,490z M495,490h-4.421c-2.761,0-5,2.238-5,5s2.239,5,5,5H495c2.761,0,5-2.238,5-5
	S497.762,490,495,490z"/>
</svg>
