<?xml version="1.0" encoding="utf-8"?>
<!-- Generator: Adobe Illustrator 23.0.0, SVG Export Plug-In . SVG Version: 6.00 Build 0)  -->
<svg version="1.1" id="Layer_1" xmlns="http://www.w3.org/2000/svg" xmlns:xlink="http://www.w3.org/1999/xlink" x="0px" y="0px"
	 viewBox="0 0 500 500" style="enable-background:new 0 0 500 500;" xml:space="preserve">
<style type="text/css">
	.st0{fill:#83E1E5;}
	.st1{fill:#AAB1BA;}
	.st2{fill:#FDDF7F;}
	.st3{fill:#ECF4F7;}
	.st4{fill:#1C1D21;}
</style>
<g>
	<path class="st0" d="M335.895,267.332h-31.602c-15.919,10.299-34.868,16.3-55.225,16.3s-39.306-6.001-55.225-16.3h-31.602
		c-33.464,0-60.591,27.186-60.591,60.721l0,22.67h57.06v35.041h65.77c0,3.413,0.896,6.613,2.452,9.394h16.822h95.444v-44.435h57.288
		v-22.67C396.486,294.518,369.358,267.332,335.895,267.332z"/>
</g>
<g>
	<path class="st2" d="M339.197,350.723v44.435H226.932c3.297,5.892,9.59,9.88,16.822,9.88v28.374
		c-8.23,0-15.236,5.168-17.999,12.428h150.625c11.104,0,20.106-9.004,20.106-20.109v-75.007H339.197z"/>
</g>
<g>
	<path class="st2" d="M149.453,452.685c0-10.645-8.629-19.273-19.274-19.273v-28.374c10.644,0,19.274-8.629,19.274-19.273h9.256
		v-35.041h-57.06V495h57.06v-42.315H149.453z"/>
</g>
<g>
	<path class="st0" d="M225.754,445.839c-0.811,2.13-1.274,4.431-1.274,6.846h-65.77V495h213.234v-49.161h-128.19H225.754z"/>
</g>
<g>
	<ellipse class="st2" cx="249.068" cy="181.423" rx="101.992" ry="102.209"/>
</g>
<g>
	<g>
		<path class="st3" d="M198.231,240.607c4.521,3.928,11.369,3.448,15.297-1.072c8.984-10.337,21.914-16.309,35.54-16.453
			c13.626,0.145,26.556,6.116,35.54,16.453c3.928,4.52,10.776,5,15.297,1.072c4.52-3.929,5-10.777,1.072-15.297
			c-13.105-15.079-32.001-23.769-51.908-23.914c-19.908,0.145-38.804,8.835-51.908,23.914
			C193.231,229.83,193.711,236.678,198.231,240.607z"/>
	</g>
</g>
<g>
	<path class="st1" d="M243.753,433.412v-28.375c-10.645,0-19.274-8.629-19.274-19.274h-75.027c0,10.645-8.629,19.274-19.274,19.274
		v28.375c10.645,0,19.274,8.629,19.274,19.273h75.027C224.48,442.04,233.109,433.412,243.753,433.412z"/>
</g>
<path class="st4" d="M282.699,16.534c0-2.762,2.239-5,5-5h6.534V5c0-2.762,2.239-5,5-5s5,2.238,5,5v6.534h6.535c2.761,0,5,2.238,5,5
	s-2.239,5-5,5h-6.535v6.535c0,2.762-2.239,5-5,5s-5-2.238-5-5v-6.535h-6.534C284.938,21.534,282.699,19.296,282.699,16.534z
	 M237.533,21.534h6.535v6.535c0,2.762,2.239,5,5,5s5-2.238,5-5v-6.535h6.534c2.761,0,5-2.238,5-5s-2.239-5-5-5h-6.534V5
	c0-2.762-2.239-5-5-5s-5,2.238-5,5v6.534h-6.535c-2.761,0-5,2.238-5,5S234.772,21.534,237.533,21.534z M187.368,21.534h6.535v6.535
	c0,2.762,2.239,5,5,5s5-2.238,5-5v-6.535h6.534c2.761,0,5-2.238,5-5s-2.239-5-5-5h-6.534V5c0-2.762-2.239-5-5-5s-5,2.238-5,5v6.534
	h-6.535c-2.761,0-5,2.238-5,5S184.606,21.534,187.368,21.534z M440.835,490h-3.813c-2.761,0-5,2.238-5,5s2.239,5,5,5h3.813
	c2.761,0,5-2.238,5-5S443.597,490,440.835,490z M424.862,495c0,2.762-2.239,5-5,5H80.138c-2.761,0-5-2.238-5-5s2.239-5,5-5H96.65
	V350.723l0-22.67c0-36.238,29.424-65.721,65.591-65.721h16.707c-22.576-19.671-36.872-48.648-36.872-80.909
	c0-59.115,47.997-107.209,106.992-107.209S356.06,122.308,356.06,181.423c0,32.261-14.296,61.238-36.872,80.909h16.706
	c36.167,0,65.591,29.482,65.591,65.721v22.67v75.007c0,13.656-10.959,24.793-24.542,25.095V490h42.918
	C422.624,490,424.862,492.238,424.862,495z M197.998,264.029c0.314,0.195,0.627,0.394,0.943,0.586
	c0.468,0.284,0.941,0.563,1.414,0.839c0.419,0.244,0.84,0.484,1.261,0.723c0.418,0.236,0.834,0.475,1.256,0.704
	c0.769,0.419,1.544,0.825,2.322,1.223c0.365,0.187,0.733,0.367,1.1,0.549c0.606,0.299,1.214,0.592,1.825,0.878
	c0.294,0.138,0.587,0.278,0.883,0.414c0.884,0.402,1.773,0.792,2.667,1.167c0.239,0.101,0.48,0.197,0.72,0.296
	c0.781,0.32,1.565,0.632,2.354,0.932c0.197,0.074,0.393,0.151,0.591,0.226c0.987,0.367,1.979,0.721,2.977,1.056
	c0.093,0.031,0.186,0.06,0.279,0.091c0.944,0.313,1.894,0.611,2.847,0.896c0.14,0.041,0.279,0.084,0.419,0.125
	c2.09,0.612,4.2,1.153,6.329,1.623c0.127,0.028,0.255,0.057,0.382,0.084c2.131,0.461,4.279,0.852,6.441,1.168
	c0.15,0.021,0.301,0.042,0.451,0.063c0.962,0.136,1.928,0.258,2.895,0.365c0.132,0.015,0.264,0.031,0.396,0.046
	c1.064,0.113,2.13,0.209,3.199,0.287c0.17,0.013,0.34,0.021,0.51,0.032c0.882,0.061,1.766,0.107,2.651,0.144
	c0.271,0.011,0.542,0.021,0.814,0.03c1.046,0.034,2.092,0.057,3.142,0.057s2.096-0.022,3.142-0.057
	c0.272-0.009,0.543-0.02,0.814-0.03c0.886-0.036,1.77-0.083,2.652-0.144c0.169-0.011,0.339-0.02,0.509-0.032
	c1.07-0.078,2.137-0.174,3.201-0.288c0.131-0.014,0.262-0.03,0.393-0.045c0.969-0.107,1.936-0.229,2.9-0.366
	c0.149-0.021,0.298-0.041,0.447-0.063c2.164-0.316,4.314-0.707,6.447-1.169c0.125-0.026,0.249-0.054,0.374-0.081
	c2.132-0.471,4.246-1.014,6.338-1.627c0.135-0.04,0.27-0.081,0.405-0.121c0.961-0.286,1.918-0.587,2.869-0.903
	c0.086-0.028,0.173-0.056,0.259-0.084c1.002-0.337,1.998-0.691,2.989-1.061c0.191-0.071,0.38-0.146,0.571-0.218
	c0.798-0.303,1.591-0.617,2.381-0.942c0.233-0.096,0.467-0.188,0.699-0.286c0.899-0.378,1.793-0.77,2.682-1.174
	c0.287-0.132,0.572-0.269,0.858-0.402c0.622-0.291,1.241-0.589,1.857-0.894c0.36-0.178,0.72-0.355,1.077-0.537
	c0.784-0.4,1.565-0.81,2.339-1.231c0.411-0.225,0.817-0.457,1.225-0.688c0.434-0.244,0.867-0.492,1.299-0.744
	c0.465-0.271,0.93-0.545,1.39-0.824c0.342-0.207,0.68-0.422,1.02-0.635c27.507-17.175,45.855-47.76,45.855-82.563
	c0-53.602-43.51-97.209-96.992-97.209s-96.992,43.607-96.992,97.209C152.076,216.255,170.454,246.861,197.998,264.029z M106.65,490
	h47.06v-12.927H120.48c-2.761,0-5-2.238-5-5s2.239-5,5-5h38.229c2.761,0,5,2.238,5,5V490h203.234v-39.161H256.069
	c-2.761,0-5-2.238-5-5s2.239-5,5-5h120.31c8.33,0,15.106-6.778,15.106-15.109v-70.006h-47.289v39.434c0,2.762-2.239,5-5,5h-83.128
	c-2.761,0-5-2.238-5-5s2.239-5,5-5h78.128v-39.435v-32.639c0-2.762,2.239-5,5-5s5,2.238,5,5v27.639h47.289v-17.67
	c0-30.725-24.938-55.721-55.591-55.721H305.75c-0.326,0.205-0.66,0.395-0.988,0.596c-0.277,0.17-0.557,0.337-0.835,0.504
	c-0.922,0.554-1.851,1.093-2.788,1.616c-0.431,0.242-0.861,0.485-1.296,0.722c-0.486,0.263-0.975,0.52-1.465,0.775
	c-0.515,0.27-1.033,0.533-1.554,0.795c-0.422,0.211-0.843,0.426-1.268,0.632c-0.894,0.434-1.795,0.855-2.703,1.265
	c-0.324,0.146-0.651,0.286-0.977,0.429c-0.731,0.321-1.466,0.635-2.206,0.939c-0.3,0.124-0.599,0.249-0.901,0.369
	c-1.022,0.411-2.051,0.81-3.088,1.189c-0.059,0.021-0.119,0.042-0.179,0.063c-1.015,0.369-2.039,0.721-3.068,1.06
	c-0.204,0.067-0.408,0.134-0.613,0.2c-2.21,0.714-4.45,1.358-6.719,1.929c-0.11,0.028-0.221,0.055-0.332,0.082
	c-1.068,0.265-2.143,0.514-3.224,0.746c-0.098,0.021-0.196,0.044-0.294,0.064c-2.294,0.486-4.614,0.897-6.959,1.233
	c-0.188,0.027-0.377,0.054-0.565,0.08c-1.088,0.149-2.181,0.286-3.279,0.403c-0.061,0.007-0.122,0.015-0.184,0.021
	c-1.149,0.12-2.304,0.22-3.464,0.304c-0.234,0.017-0.469,0.029-0.703,0.045c-0.907,0.059-1.818,0.106-2.731,0.144
	c-0.303,0.012-0.606,0.024-0.91,0.034c-1.127,0.035-2.257,0.06-3.392,0.06s-2.265-0.024-3.392-0.06
	c-0.304-0.01-0.607-0.022-0.91-0.034c-0.913-0.037-1.824-0.085-2.731-0.144c-0.234-0.016-0.469-0.028-0.703-0.045
	c-1.159-0.084-2.314-0.184-3.463-0.304c-0.062-0.007-0.123-0.015-0.185-0.021c-1.098-0.117-2.19-0.254-3.277-0.403
	c-0.189-0.026-0.378-0.053-0.567-0.08c-2.344-0.336-4.664-0.747-6.957-1.233c-0.1-0.021-0.199-0.044-0.299-0.065
	c-1.078-0.231-2.15-0.48-3.216-0.744c-0.113-0.028-0.226-0.055-0.339-0.083c-2.267-0.57-4.504-1.214-6.711-1.927
	c-0.209-0.067-0.417-0.136-0.625-0.204c-1.02-0.337-2.035-0.685-3.041-1.051c-0.068-0.024-0.137-0.048-0.205-0.072
	c-1.033-0.378-2.056-0.774-3.074-1.184c-0.309-0.124-0.616-0.252-0.924-0.379c-0.728-0.301-1.452-0.609-2.171-0.925
	c-0.335-0.147-0.672-0.291-1.006-0.441c-0.901-0.407-1.795-0.825-2.682-1.256c-0.438-0.212-0.871-0.433-1.307-0.651
	c-0.503-0.253-1.005-0.509-1.504-0.769c-0.503-0.263-1.005-0.525-1.504-0.796c-0.393-0.214-0.781-0.434-1.17-0.651
	c-0.992-0.554-1.976-1.124-2.952-1.711c-0.252-0.151-0.504-0.302-0.754-0.455c-0.337-0.206-0.679-0.401-1.014-0.611h-30.144
	c-30.653,0-55.591,24.996-55.591,55.721l0,17.67h47.06v-27.639c0-2.762,2.239-5,5-5s5,2.238,5,5v32.639v17.784c0,2.762-2.239,5-5,5
	s-5-2.238-5-5v-12.784h-47.06V490z M62.978,490h-3.813c-2.761,0-5,2.238-5,5s2.239,5,5,5h3.813c2.761,0,5-2.238,5-5
	S65.739,490,62.978,490z M221.12,166.925c-2.375,3.003-5.929,4.725-9.751,4.725c-3.822,0-7.376-1.722-9.751-4.724
	c-1.712-2.165-4.856-2.531-7.023-0.82c-2.166,1.714-2.533,4.857-0.819,7.023c4.283,5.415,10.695,8.521,17.594,8.521
	c6.897,0,13.31-3.105,17.594-8.52c1.713-2.166,1.346-5.311-0.819-7.023C225.979,164.394,222.833,164.761,221.12,166.925z
	 M303.541,166.105c-2.166-1.711-5.31-1.346-7.023,0.82c-2.375,3.002-5.929,4.724-9.751,4.724c-3.822,0-7.376-1.722-9.751-4.725
	c-1.713-2.164-4.858-2.531-7.023-0.818s-2.533,4.857-0.819,7.023c4.284,5.414,10.696,8.52,17.594,8.52
	c6.898,0,13.311-3.105,17.594-8.521C306.073,170.963,305.706,167.819,303.541,166.105z M197.697,155.457
	c0.559,0,1.126-0.094,1.682-0.292l27.345-9.77c2.601-0.93,3.956-3.791,3.026-6.392c-0.929-2.599-3.792-3.952-6.391-3.026
	l-27.345,9.77c-2.601,0.93-3.956,3.791-3.026,6.392C193.719,154.183,195.644,155.457,197.697,155.457z M271.412,145.396l27.345,9.77
	c0.556,0.198,1.124,0.292,1.682,0.292c2.053,0,3.978-1.274,4.708-3.318c0.929-2.601-0.426-5.462-3.026-6.392l-27.345-9.77
	c-2.599-0.928-5.461,0.426-6.391,3.026S268.811,144.466,271.412,145.396z M193.385,222.029
	c14.023-16.136,34.306-25.479,55.646-25.634c21.413,0.155,41.695,9.498,55.718,25.634c5.73,6.593,5.028,16.619-1.565,22.351
	c-6.595,5.73-16.622,5.027-22.352-1.564c-8.013-9.221-19.588-14.589-31.766-14.733c-12.177,0.145-23.753,5.513-31.766,14.732
	c-3.127,3.6-7.537,5.443-11.968,5.443c-3.687,0-7.388-1.275-10.382-3.877c0,0,0,0-0.001-0.001
	C188.357,238.649,187.655,228.623,193.385,222.029z M201.511,236.833c2.433,2.112,6.13,1.854,8.243-0.578
	c9.898-11.389,24.208-18.013,39.261-18.173c0.036,0,0.07,0,0.106,0c15.053,0.16,29.362,6.784,39.26,18.174
	c2.113,2.431,5.812,2.691,8.244,0.576c2.431-2.113,2.69-5.811,0.577-8.242c-12.142-13.971-29.699-22.061-48.17-22.194
	c-18.399,0.134-35.957,8.224-48.099,22.194C198.82,231.021,199.079,234.719,201.511,236.833z M152.801,424.224h6.657v3.845
	c0,2.762,2.239,5,5,5s5-2.238,5-5v-3.845h12.509v3.845c0,2.762,2.239,5,5,5s5-2.238,5-5v-3.845h12.508v3.845c0,2.762,2.239,5,5,5
	s5-2.238,5-5v-3.845h6.657c2.761,0,5-2.238,5-5s-2.239-5-5-5h-6.657v-3.845c0-2.762-2.239-5-5-5s-5,2.238-5,5v3.845h-12.508v-3.845
	c0-2.762-2.239-5-5-5s-5,2.238-5,5v3.845h-12.509v-3.845c0-2.762-2.239-5-5-5s-5,2.238-5,5v3.845h-6.657c-2.761,0-5,2.238-5,5
	S150.04,424.224,152.801,424.224z M115.48,452.685c0-2.762,2.239-5,5-5h23.052c-2.032-5.408-7.242-9.273-13.352-9.273
	c-2.761,0-5-2.238-5-5v-28.374c0-2.762,2.239-5,5-5c7.871,0,14.273-6.403,14.273-14.273c0-2.762,2.239-5,5-5h75.027
	c2.761,0,5,2.238,5,5c0,7.87,6.403,14.273,14.273,14.273c2.761,0,5,2.238,5,5v28.374c0,2.762-2.239,5-5,5
	c-7.871,0-14.273,6.403-14.273,14.273c0,2.762-2.239,5-5,5h-75.027H120.48C117.719,457.685,115.48,455.446,115.48,452.685z
	 M153.936,447.685h66.062c1.972-9.381,9.375-16.784,18.756-18.756V409.52c-9.381-1.972-16.784-9.375-18.756-18.756h-66.062
	c-1.972,9.381-9.375,16.784-18.756,18.756v19.409C144.561,430.9,151.964,438.304,153.936,447.685z"/>
</svg>
