<?xml version="1.0" encoding="utf-8"?>
<!-- Generator: Adobe Illustrator 23.0.0, SVG Export Plug-In . SVG Version: 6.00 Build 0)  -->
<svg version="1.1" id="Layer_1" xmlns="http://www.w3.org/2000/svg" xmlns:xlink="http://www.w3.org/1999/xlink" x="0px" y="0px"
	 viewBox="0 0 500 500" style="enable-background:new 0 0 500 500;" xml:space="preserve">
<style type="text/css">
	.st0{fill:#83E1E5;}
	.st1{fill:#AAB1BA;}
	.st2{fill:#FDDF7F;}
	.st3{fill:#ECF4F7;}
	.st4{fill:#1C1D21;}
</style>
<g>
	<g>
		<ellipse class="st2" cx="260.93" cy="181.423" rx="102.041" ry="102.209"/>
	</g>
</g>
<g>
	<g>
		<path class="st3" d="M260.93,110.436L260.93,110.436c-13.571,0-24.182,11.705-22.855,25.211l4.384,44.606
			c0.934,9.502,8.924,16.745,18.471,16.745h0c9.547,0,17.537-7.243,18.471-16.745l4.384-44.606
			C285.112,122.141,274.501,110.436,260.93,110.436z"/>
	</g>
</g>
<g>
	<g>
		<circle class="st3" cx="260.93" cy="235.935" r="16.476"/>
	</g>
</g>
<g>
	<g>
		<path class="st0" d="M347.799,267.333h-31.57c-15.934,10.311-34.917,16.3-55.298,16.3c-20.381,0-39.365-5.988-55.299-16.3h-41.293
			c-33.479,0-60.62,27.185-60.62,60.72v107.67c0,8.583,6.947,15.541,15.516,15.541h10.781V495h278.404V328.052
			C408.419,294.518,381.279,267.333,347.799,267.333z"/>
	</g>
</g>
<g>
	<g>
		<path class="st2" d="M308.517,357.751l-11.841-23.973c-3.108-6.292-10.719-8.877-17-5.775l-16.988,8.391l-4.013-8.124
			c-3.208-6.496-11.076-9.161-17.572-5.953l-32.166,15.888c-10.244,5.06-14.447,17.466-9.387,27.71l1.021,2.068
			c1.96,3.969,0.332,8.776-3.637,10.737l-39.818,19.496v-34.435h-0.805h-52.594v0v71.941c0,8.583,6.947,15.541,15.515,15.541h10.781
			h12.826c4.894,0,9.72-1.143,14.094-3.337l145.835-73.165C309.052,371.659,311.624,364.043,308.517,357.751z"/>
	</g>
</g>
<g>
	<g>
		<rect x="355.825" y="363.781" class="st2" width="52.594" height="131.219"/>
	</g>
</g>
<path class="st4" d="M239.534,16.535c0-2.761,2.239-5,5-5h6.534V5c0-2.761,2.238-5,5-5s5,2.239,5,5v6.535h6.535c2.762,0,5,2.239,5,5
	s-2.238,5-5,5h-6.535v6.534c0,2.761-2.238,5-5,5s-5-2.239-5-5v-6.534h-6.534C241.773,21.535,239.534,19.296,239.534,16.535z
	 M168.406,21.535h6.535v6.534c0,2.761,2.239,5,5,5s5-2.239,5-5v-6.534h6.535c2.761,0,5-2.239,5-5s-2.239-5-5-5h-6.535V5
	c0-2.761-2.239-5-5-5s-5,2.239-5,5v6.535h-6.535c-2.761,0-5,2.239-5,5S165.645,21.535,168.406,21.535z M320.663,21.535h6.534v6.534
	c0,2.761,2.238,5,5,5s5-2.239,5-5v-6.534h6.534c2.762,0,5-2.239,5-5s-2.238-5-5-5h-6.534V5c0-2.761-2.238-5-5-5s-5,2.239-5,5v6.535
	h-6.534c-2.762,0-5,2.239-5,5S317.901,21.535,320.663,21.535z M98.719,435.833v-0.111v-71.941v-35.729
	c0-36.238,29.437-65.72,65.62-65.72h26.439c-22.586-19.671-36.889-48.648-36.889-80.909c0-59.115,48.019-107.209,107.042-107.209
	c59.022,0,107.041,48.094,107.041,107.209c0,32.261-14.303,61.239-36.889,80.909h16.716c36.183,0,65.62,29.482,65.62,65.72v151.491
	c0,2.761-2.238,5-5,5s-5-2.239-5-5V368.781h-42.594v110.763c0,2.761-2.238,5-5,5s-5-2.239-5-5V324.281c0-2.761,2.238-5,5-5
	s5,2.239,5,5v34.5h42.594v-30.728c0-30.724-24.951-55.72-55.62-55.72h-30.112c-7.052,4.425-14.555,7.97-22.354,10.619
	c-0.052,0.018-0.103,0.036-0.154,0.053c-0.739,0.25-1.481,0.492-2.225,0.725c-0.267,0.084-0.536,0.164-0.803,0.246
	c-1.039,0.317-2.083,0.618-3.132,0.903c-0.519,0.142-1.037,0.285-1.559,0.419c-0.503,0.128-1.007,0.249-1.512,0.37
	c-0.607,0.146-1.215,0.286-1.826,0.422c-0.434,0.096-0.867,0.194-1.303,0.285c-1.013,0.212-2.03,0.411-3.053,0.594
	c-0.245,0.044-0.492,0.081-0.737,0.123c-0.867,0.149-1.738,0.287-2.612,0.414c-0.337,0.049-0.674,0.096-1.011,0.142
	c-0.914,0.124-1.831,0.237-2.751,0.338c-0.197,0.022-0.392,0.047-0.589,0.068c-1.108,0.115-2.222,0.211-3.339,0.292
	c-0.274,0.02-0.549,0.035-0.824,0.052c-0.876,0.057-1.755,0.103-2.636,0.138c-0.316,0.013-0.632,0.026-0.948,0.036
	c-1.125,0.035-2.254,0.059-3.388,0.059c-1.134,0-2.262-0.024-3.388-0.059c-0.316-0.01-0.632-0.023-0.948-0.036
	c-0.881-0.035-1.759-0.081-2.635-0.138c-0.275-0.018-0.551-0.033-0.826-0.053c-1.117-0.081-2.23-0.177-3.337-0.292
	c-0.199-0.021-0.397-0.047-0.596-0.068c-0.918-0.101-1.832-0.213-2.742-0.337c-0.34-0.046-0.68-0.094-1.019-0.143
	c-0.869-0.127-1.734-0.264-2.596-0.412c-0.251-0.043-0.503-0.081-0.753-0.125c-1.02-0.182-2.033-0.381-3.043-0.592
	c-0.442-0.092-0.881-0.191-1.322-0.289c-0.602-0.134-1.203-0.272-1.801-0.416c-0.511-0.123-1.022-0.245-1.531-0.375
	c-0.499-0.128-0.995-0.265-1.491-0.4c-1.08-0.293-2.154-0.602-3.224-0.929c-0.253-0.078-0.507-0.153-0.76-0.233
	c-0.753-0.236-1.503-0.481-2.25-0.733c-0.037-0.013-0.074-0.026-0.111-0.038c-7.811-2.651-15.323-6.199-22.384-10.63h-39.835
	c-30.669,0-55.62,24.996-55.62,55.72v30.729l43.398,0v-34.5c0-2.761,2.239-5,5-5s5,2.239,5,5v39.5v26.42l32.619-15.971
	c1.476-0.729,2.089-2.541,1.353-4.032l-1.021-2.068c-3.039-6.152-3.5-13.119-1.298-19.618c2.202-6.499,6.802-11.751,12.954-14.79
	l32.166-15.888c4.339-2.143,9.253-2.469,13.838-0.916c4.584,1.553,8.288,4.798,10.432,9.137l1.798,3.641l12.505-6.177
	c8.741-4.318,19.373-0.711,23.697,8.043L313,355.537c4.323,8.754,0.728,19.389-8.016,23.707l-145.807,73.151
	c-5.043,2.531-10.692,3.868-16.336,3.868h-7.826v23.28c0,2.761-2.239,5-5,5s-5-2.239-5-5v-23.28h-5.782h-0.11
	C107.872,456.263,98.719,447.098,98.719,435.833z M231.752,274.139c0.204,0.064,0.408,0.13,0.613,0.193
	c0.625,0.193,1.251,0.381,1.881,0.562c0.369,0.105,0.739,0.204,1.109,0.305c0.838,0.23,1.681,0.448,2.528,0.655
	c0.552,0.135,1.104,0.268,1.659,0.393c0.425,0.096,0.85,0.189,1.277,0.279c0.712,0.15,1.425,0.293,2.141,0.427
	c0.26,0.049,0.518,0.103,0.779,0.15c0.968,0.174,1.939,0.329,2.913,0.473c0.301,0.045,0.603,0.085,0.905,0.127
	c0.799,0.111,1.599,0.212,2.402,0.302c0.243,0.027,0.484,0.058,0.728,0.084c1.021,0.108,2.045,0.2,3.071,0.275
	c0.213,0.016,0.427,0.027,0.641,0.041c0.847,0.057,1.695,0.102,2.544,0.137c0.284,0.012,0.567,0.023,0.851,0.033
	c1.044,0.033,2.089,0.056,3.137,0.056s2.093-0.023,3.137-0.056c0.284-0.009,0.567-0.021,0.851-0.032
	c0.85-0.035,1.699-0.08,2.546-0.137c0.213-0.014,0.426-0.025,0.638-0.041c1.027-0.076,2.052-0.168,3.074-0.276
	c0.241-0.025,0.481-0.056,0.721-0.083c0.806-0.091,1.609-0.193,2.411-0.304c0.299-0.042,0.598-0.082,0.897-0.126
	c0.976-0.145,1.95-0.301,2.921-0.475c0.253-0.046,0.504-0.098,0.757-0.146c0.724-0.136,1.447-0.28,2.167-0.432
	c0.421-0.089,0.841-0.181,1.26-0.275c0.566-0.128,1.13-0.264,1.693-0.401c0.817-0.2,1.63-0.411,2.439-0.632
	c0.395-0.108,0.791-0.214,1.185-0.326c0.62-0.178,1.237-0.363,1.852-0.553c0.219-0.067,0.437-0.137,0.655-0.206
	c39.282-12.444,67.838-49.297,67.838-92.708c0-53.601-43.532-97.209-97.041-97.209s-97.042,43.608-97.042,97.209
	C163.889,224.844,192.457,261.703,231.752,274.139z M108.719,368.781v66.941c0,5.812,4.717,10.541,10.515,10.541h10.782h12.826
	c4.094,0,8.192-0.97,11.852-2.806l145.835-73.165c3.827-1.89,5.387-6.517,3.505-10.327l-11.841-23.973
	c-1.882-3.809-6.501-5.383-10.304-3.506l-16.987,8.391l-29.935,14.786c-0.712,0.352-1.467,0.518-2.21,0.518
	c-1.843,0-3.616-1.023-4.487-2.787c-1.223-2.476-0.207-5.474,2.269-6.697l25.452-12.571l-1.799-3.641
	c-0.96-1.945-2.62-3.398-4.674-4.094c-2.053-0.696-4.255-0.55-6.2,0.41l-32.166,15.888c-3.757,1.856-6.567,5.063-7.912,9.032
	c-1.344,3.969-1.063,8.224,0.793,11.981l1.021,2.068c3.178,6.435,0.529,14.255-5.906,17.434l-39.833,19.503
	c-1.55,0.759-3.38,0.665-4.845-0.248c-1.464-0.913-2.354-2.517-2.354-4.242v-29.435H108.719z M233.1,136.136
	c-0.771-7.839,1.822-15.681,7.112-21.517c5.291-5.836,12.842-9.183,20.719-9.183c7.876,0,15.428,3.347,20.718,9.182
	c5.291,5.836,7.883,13.679,7.112,21.518l-4.384,44.606c-1.19,12.118-11.271,21.256-23.446,21.256
	c-12.176,0-22.256-9.138-23.447-21.256L233.1,136.136z M243.052,135.158l4.384,44.606c0.685,6.974,6.487,12.234,13.495,12.234
	s12.81-5.259,13.495-12.234l4.384-44.606c0.502-5.11-1.121-10.019-4.569-13.823c-3.449-3.804-8.176-5.899-13.31-5.899
	c-5.135,0-9.862,2.095-13.311,5.899S242.549,130.048,243.052,135.158z M282.406,235.935c0,11.842-9.634,21.476-21.476,21.476
	s-21.476-9.634-21.476-21.476c0-11.842,9.634-21.476,21.476-21.476S282.406,224.093,282.406,235.935z M272.406,235.935
	c0-6.328-5.147-11.476-11.476-11.476s-11.476,5.148-11.476,11.476c0,6.328,5.148,11.476,11.476,11.476
	S272.406,242.263,272.406,235.935z M446.904,490h-3.813c-2.762,0-5,2.239-5,5s2.238,5,5,5h3.813c2.762,0,5-2.239,5-5
	S449.666,490,446.904,490z M425.931,490H86.207c-2.761,0-5,2.239-5,5s2.239,5,5,5h339.724c2.762,0,5-2.239,5-5
	S428.692,490,425.931,490z M69.047,490h-3.813c-2.761,0-5,2.239-5,5s2.239,5,5,5h3.813c2.761,0,5-2.239,5-5S71.808,490,69.047,490z"
	/>
</svg>
