<?xml version="1.0" encoding="utf-8"?>
<!-- Generator: Adobe Illustrator 23.0.0, SVG Export Plug-In . SVG Version: 6.00 Build 0)  -->
<svg version="1.1" id="Layer_1" xmlns="http://www.w3.org/2000/svg" xmlns:xlink="http://www.w3.org/1999/xlink" x="0px" y="0px"
	 viewBox="0 0 500 500" style="enable-background:new 0 0 500 500;" xml:space="preserve">
<style type="text/css">
	.st0{fill:#83E1E5;}
	.st1{fill:#AAB1BA;}
	.st2{fill:#FDDF7F;}
	.st3{fill:#ECF4F7;}
	.st4{fill:#1C1D21;}
</style>
<g>
	<g>
		<path class="st0" d="M335.896,267.333h-31.602c-15.919,10.298-34.868,16.3-55.226,16.3s-39.306-6.001-55.225-16.3h-31.602
			c-33.464,0-60.591,27.185-60.591,60.72v97.677c0,11.106,9.002,20.109,20.106,20.109h4.436V495h245.752v-49.162h4.436
			c11.104,0,20.106-9.003,20.106-20.109v-97.677C396.487,294.518,369.359,267.333,335.896,267.333z"/>
	</g>
</g>
<g>
	<g>
		<path class="st2" d="M339.198,350.723v44.434h-83.823h-12.841H158.71v-44.434h-57.06v75.006c0,11.106,9.002,20.109,20.106,20.109
			h120.777h12.841H376.38c11.104,0,20.106-9.003,20.106-20.109v-75.006H339.198z"/>
	</g>
</g>
<g>
	<g>
		<ellipse class="st2" cx="249.069" cy="181.423" rx="101.992" ry="102.209"/>
	</g>
</g>
<g>
	<circle class="st3" cx="206.373" cy="159.883" r="17.988"/>
</g>
<g>
	<circle class="st3" cx="293.629" cy="159.883" r="17.988"/>
</g>
<path class="st4" d="M117.076,181.423c0-72.9,59.212-132.209,131.992-132.209s131.992,59.309,131.992,132.209c0,2.761-2.238,5-5,5
	s-5-2.239-5-5c0-67.386-54.726-122.209-121.992-122.209s-121.992,54.823-121.992,122.209c0,2.761-2.238,5-5,5
	S117.076,184.185,117.076,181.423z M319.189,262.333h16.707c36.167,0,65.591,29.482,65.591,65.72v97.68
	c0,13.654-10.959,24.79-24.542,25.092v25.834c0,2.761-2.238,5-5,5s-5-2.239-5-5v-25.82H258.576c-2.762,0-5-2.239-5-5s2.238-5,5-5
	h117.805c8.329,0,15.105-6.776,15.105-15.106v-70.009h-47.288v39.434c0,2.761-2.238,5-5,5h-35.724
	c-9.172,0-17.961,3.399-24.746,9.57l-31.815,28.938c-8.631,7.85-19.809,12.173-31.475,12.173h-84.246v25.82c0,2.761-2.238,5-5,5
	s-5-2.239-5-5v-25.834c-13.584-0.304-24.542-11.44-24.542-25.095v-97.677c0-36.238,29.424-65.72,65.591-65.72h16.707
	c-22.576-19.671-36.872-48.648-36.872-80.909c0-59.115,47.996-107.209,106.992-107.209s106.992,48.094,106.992,107.209
	C356.061,213.685,341.765,242.662,319.189,262.333z M198.057,264.065c0.292,0.182,0.582,0.367,0.875,0.544
	c0.475,0.289,0.955,0.571,1.436,0.852c0.408,0.238,0.817,0.472,1.228,0.704c0.448,0.253,0.895,0.507,1.347,0.753
	c0.744,0.404,1.492,0.798,2.245,1.182c0.372,0.19,0.747,0.374,1.122,0.559c0.594,0.293,1.19,0.581,1.79,0.861
	c0.304,0.143,0.608,0.289,0.914,0.428c0.878,0.4,1.761,0.787,2.649,1.16c0.248,0.104,0.499,0.205,0.748,0.307
	c0.769,0.315,1.541,0.622,2.318,0.917c0.206,0.079,0.411,0.159,0.618,0.236c0.982,0.366,1.969,0.717,2.961,1.05
	c0.1,0.034,0.201,0.065,0.302,0.099c0.936,0.311,1.876,0.606,2.821,0.888c0.145,0.043,0.29,0.087,0.435,0.13
	c2.086,0.611,4.193,1.152,6.317,1.621c0.131,0.029,0.261,0.057,0.392,0.086c2.128,0.46,4.272,0.849,6.432,1.166
	c0.154,0.022,0.308,0.043,0.462,0.065c0.96,0.136,1.924,0.258,2.889,0.365c0.132,0.015,0.263,0.031,0.396,0.045
	c1.064,0.113,2.131,0.209,3.2,0.288c0.169,0.012,0.34,0.021,0.509,0.033c0.882,0.06,1.766,0.106,2.651,0.143
	c0.271,0.011,0.542,0.022,0.814,0.031c1.045,0.034,2.092,0.056,3.142,0.056c1.049,0,2.096-0.022,3.142-0.056
	c0.272-0.009,0.543-0.021,0.814-0.031c0.885-0.036,1.768-0.083,2.649-0.143c0.17-0.012,0.342-0.021,0.512-0.033
	c1.069-0.078,2.135-0.174,3.198-0.288c0.134-0.014,0.268-0.031,0.402-0.046c0.962-0.107,1.922-0.228,2.879-0.364
	c0.157-0.022,0.314-0.043,0.471-0.066c2.156-0.316,4.296-0.704,6.42-1.164c0.136-0.03,0.272-0.06,0.408-0.089
	c2.119-0.468,4.219-1.007,6.3-1.616c0.153-0.045,0.306-0.091,0.458-0.137c0.933-0.278,1.862-0.57,2.786-0.877
	c0.11-0.037,0.221-0.071,0.331-0.108c0.987-0.331,1.968-0.681,2.944-1.044c0.216-0.081,0.43-0.165,0.645-0.247
	c0.764-0.291,1.525-0.592,2.282-0.903c0.258-0.106,0.517-0.209,0.774-0.317c0.882-0.371,1.76-0.755,2.632-1.152
	c0.316-0.144,0.628-0.294,0.942-0.441c0.588-0.276,1.174-0.558,1.757-0.846c0.381-0.188,0.763-0.376,1.142-0.569
	c0.732-0.374,1.461-0.757,2.184-1.15c0.474-0.257,0.943-0.523,1.412-0.788c0.405-0.229,0.808-0.458,1.209-0.693
	c0.484-0.283,0.967-0.566,1.445-0.857c0.288-0.175,0.573-0.356,0.86-0.535c27.584-17.159,45.993-47.789,45.993-82.65
	c0-53.601-43.511-97.209-96.992-97.209s-96.992,43.608-96.992,97.209C152.076,216.28,170.48,246.905,198.057,264.065z
	 M304.753,272.935c-0.265,0.163-0.532,0.321-0.798,0.481c-0.958,0.575-1.923,1.135-2.896,1.678c-0.399,0.224-0.798,0.45-1.2,0.668
	c-0.499,0.271-1,0.534-1.503,0.796c-0.495,0.258-0.993,0.512-1.492,0.763c-0.44,0.221-0.879,0.444-1.322,0.659
	c-0.882,0.428-1.771,0.844-2.667,1.248c-0.345,0.156-0.693,0.305-1.039,0.457c-0.705,0.309-1.415,0.611-2.128,0.906
	c-0.318,0.131-0.636,0.264-0.956,0.392c-1.01,0.406-2.026,0.8-3.051,1.175c-0.084,0.031-0.169,0.059-0.253,0.089
	c-0.988,0.359-1.984,0.701-2.985,1.031c-0.22,0.073-0.44,0.145-0.661,0.215c-2.197,0.709-4.424,1.35-6.68,1.918
	c-0.125,0.031-0.25,0.061-0.374,0.091c-1.051,0.261-2.107,0.505-3.17,0.734c-0.112,0.024-0.223,0.049-0.335,0.073
	c-2.285,0.484-4.598,0.894-6.934,1.229c-0.196,0.028-0.391,0.056-0.587,0.083c-1.083,0.149-2.169,0.285-3.262,0.402
	c-0.064,0.007-0.128,0.015-0.192,0.022c-1.148,0.12-2.302,0.22-3.461,0.303c-0.235,0.017-0.47,0.03-0.706,0.045
	c-0.907,0.06-1.817,0.107-2.729,0.144c-0.303,0.012-0.607,0.025-0.91,0.035c-1.127,0.035-2.257,0.059-3.392,0.059
	s-2.265-0.024-3.392-0.059c-0.303-0.01-0.606-0.023-0.91-0.035c-0.913-0.036-1.824-0.084-2.731-0.144
	c-0.234-0.015-0.469-0.028-0.703-0.044c-1.159-0.083-2.314-0.184-3.464-0.304c-0.062-0.006-0.123-0.015-0.184-0.021
	c-1.096-0.117-2.187-0.253-3.273-0.403c-0.193-0.026-0.385-0.054-0.577-0.081c-2.34-0.336-4.656-0.746-6.945-1.231
	c-0.105-0.022-0.211-0.046-0.316-0.069c-1.071-0.231-2.136-0.478-3.196-0.74c-0.118-0.029-0.236-0.057-0.353-0.086
	c-2.263-0.569-4.497-1.212-6.7-1.924c-0.212-0.068-0.424-0.137-0.636-0.207c-1.015-0.335-2.025-0.681-3.027-1.045
	c-0.072-0.026-0.145-0.051-0.217-0.077c-1.031-0.378-2.053-0.774-3.069-1.182c-0.311-0.125-0.62-0.254-0.93-0.381
	c-0.725-0.3-1.447-0.607-2.164-0.922c-0.337-0.147-0.675-0.292-1.01-0.443c-0.901-0.407-1.795-0.825-2.683-1.256
	c-0.435-0.211-0.866-0.431-1.299-0.647c-0.508-0.255-1.014-0.513-1.518-0.776c-0.497-0.259-0.994-0.52-1.488-0.787
	c-0.415-0.226-0.825-0.458-1.237-0.688c-0.961-0.537-1.914-1.089-2.86-1.658c-0.269-0.162-0.538-0.322-0.805-0.486
	c-0.331-0.203-0.667-0.395-0.997-0.601h-30.145c-30.653,0-55.591,24.996-55.591,55.72v17.67h47.061v-31.42c0-2.761,2.238-5,5-5
	s5,2.239,5,5v75.854h96.814c2.762,0,5,2.239,5,5s-2.238,5-5,5H158.711c-2.762,0-5-2.239-5-5v-39.434H106.65v70.006
	c0,8.331,6.778,15.109,15.109,15.109h93.679c9.172,0,17.961-3.399,24.746-9.57L272,402.33c8.631-7.85,19.809-12.173,31.475-12.173
	h30.724v-75.854c0-2.761,2.238-5,5-5s5,2.239,5,5v31.42h47.288v-17.67c0-30.724-24.938-55.72-55.591-55.72h-30.145
	C305.421,272.54,305.084,272.731,304.753,272.935z M421.486,420.732c-2.762,0-5,2.239-5,5c0,16.004-9.514,30.461-24.236,36.832
	c-2.534,1.097-3.7,4.04-2.604,6.574c0.816,1.888,2.657,3.016,4.592,3.016c0.662,0,1.336-0.133,1.982-0.413
	c18.386-7.955,30.266-26.015,30.266-46.01C426.486,422.971,424.248,420.732,421.486,420.732z M367.221,242.924
	c-2.59-0.958-5.466,0.364-6.425,2.954c-0.958,2.589,0.364,5.466,2.954,6.424c31.543,11.675,52.736,42.117,52.736,75.75
	c0,2.761,2.238,5,5,5s5-2.239,5-5C426.486,290.255,402.669,256.045,367.221,242.924z M76.65,333.053c2.762,0,5-2.239,5-5
	c0-33.034,19.787-62.413,50.41-74.848c2.559-1.039,3.791-3.956,2.752-6.514c-1.039-2.558-3.952-3.791-6.514-2.751
	C93.886,257.913,71.65,290.93,71.65,328.053C71.65,330.814,73.889,333.053,76.65,333.053z M102.468,471.976
	c0.631,0.264,1.285,0.389,1.929,0.389c1.955,0,3.813-1.155,4.614-3.071c1.066-2.547-0.135-5.477-2.682-6.543
	c-14.992-6.275-24.679-20.807-24.679-37.022c0-2.761-2.238-5-5-5s-5,2.239-5,5C71.65,445.987,83.747,464.14,102.468,471.976z
	 M440.836,490h-3.813c-2.762,0-5,2.239-5,5s2.238,5,5,5h3.813c2.762,0,5-2.239,5-5S443.598,490,440.836,490z M419.863,490H80.139
	c-2.762,0-5,2.239-5,5s2.238,5,5,5h339.725c2.762,0,5-2.239,5-5S422.625,490,419.863,490z M62.979,490h-3.813c-2.762,0-5,2.239-5,5
	s2.238,5,5,5h3.813c2.762,0,5-2.239,5-5S65.74,490,62.979,490z M238.467,21.535h6.534v6.534c0,2.761,2.238,5,5,5s5-2.239,5-5v-6.534
	h6.534c2.762,0,5-2.239,5-5s-2.238-5-5-5h-6.534V5c0-2.761-2.238-5-5-5s-5,2.239-5,5v6.535h-6.534c-2.762,0-5,2.239-5,5
	S235.705,21.535,238.467,21.535z M162.338,21.535h6.534v6.534c0,2.761,2.238,5,5,5s5-2.239,5-5v-6.534h6.535c2.762,0,5-2.239,5-5
	s-2.238-5-5-5h-6.535V5c0-2.761-2.238-5-5-5s-5,2.239-5,5v6.535h-6.534c-2.762,0-5,2.239-5,5S159.576,21.535,162.338,21.535z
	 M314.595,21.535h6.535v6.534c0,2.761,2.238,5,5,5s5-2.239,5-5v-6.534h6.534c2.762,0,5-2.239,5-5s-2.238-5-5-5h-6.534V5
	c0-2.761-2.238-5-5-5s-5,2.239-5,5v6.535h-6.535c-2.762,0-5,2.239-5,5S311.833,21.535,314.595,21.535z M183.386,159.883
	c0-12.675,10.313-22.988,22.987-22.988s22.987,10.313,22.987,22.988s-10.313,22.988-22.987,22.988S183.386,172.558,183.386,159.883z
	 M193.386,159.883c0,7.162,5.826,12.988,12.987,12.988s12.987-5.826,12.987-12.988s-5.826-12.988-12.987-12.988
	S193.386,152.721,193.386,159.883z M270.642,159.883c0-12.675,10.313-22.988,22.987-22.988s22.987,10.313,22.987,22.988
	s-10.313,22.988-22.987,22.988S270.642,172.558,270.642,159.883z M280.642,159.883c0,7.162,5.826,12.988,12.987,12.988
	s12.987-5.826,12.987-12.988s-5.826-12.988-12.987-12.988S280.642,152.721,280.642,159.883z M225.714,227.128
	c-3.169-4.005-7.912-6.302-13.014-6.302c-5.103,0-9.846,2.297-13.015,6.302c-1.713,2.166-1.346,5.31,0.82,7.023
	c2.164,1.713,5.31,1.348,7.023-0.819c1.26-1.593,3.145-2.506,5.171-2.506c2.025,0,3.91,0.914,5.17,2.506
	c3.169,4.005,7.912,6.302,13.014,6.302c5.103,0,9.846-2.297,13.015-6.302c1.26-1.593,3.144-2.506,5.17-2.506
	s3.911,0.914,5.171,2.506c3.169,4.005,7.912,6.302,13.014,6.302c5.103,0,9.846-2.297,13.015-6.302
	c1.26-1.593,3.145-2.506,5.17-2.506c2.026,0,3.911,0.914,5.172,2.507c1.714,2.166,4.858,2.53,7.023,0.818
	c2.166-1.714,2.532-4.858,0.818-7.024c-3.17-4.004-7.913-6.301-13.014-6.301c-5.102,0-9.845,2.297-13.014,6.302
	c-1.26,1.593-3.145,2.506-5.171,2.506s-3.91-0.914-5.17-2.506c-3.169-4.005-7.912-6.302-13.015-6.302
	c-5.102,0-9.845,2.297-13.014,6.302c-1.26,1.593-3.145,2.506-5.171,2.506S226.974,228.721,225.714,227.128z M76.65,415.498
	c2.762,0,5-2.239,5-5v-3.278c0-2.761-2.238-5-5-5s-5,2.239-5,5v3.278C71.65,413.259,73.889,415.498,76.65,415.498z M421.486,402.22
	c-2.762,0-5,2.239-5,5v3.278c0,2.761,2.238,5,5,5s5-2.239,5-5v-3.278C426.486,404.458,424.248,402.22,421.486,402.22z
	 M122.076,206.369c2.762,0,5-2.239,5-5v-3.212c0-2.761-2.238-5-5-5s-5,2.239-5,5v3.212
	C117.076,204.13,119.314,206.369,122.076,206.369z M376.061,193.157c-2.762,0-5,2.239-5,5v3.212c0,2.761,2.238,5,5,5s5-2.239,5-5
	v-3.212C381.061,195.396,378.822,193.157,376.061,193.157z"/>
</svg>
