<?xml version="1.0" encoding="utf-8"?>
<!-- Generator: Adobe Illustrator 23.0.0, SVG Export Plug-In . SVG Version: 6.00 Build 0)  -->
<svg version="1.1" id="Layer_1" xmlns="http://www.w3.org/2000/svg" xmlns:xlink="http://www.w3.org/1999/xlink" x="0px" y="0px"
	 viewBox="0 0 500 500" style="enable-background:new 0 0 500 500;" xml:space="preserve">
<style type="text/css">
	.st0{fill:#83E1E5;}
	.st1{fill:#AAB1BA;}
	.st2{fill:#FDDF7F;}
	.st3{fill:#ECF4F7;}
	.st4{fill:#1C1D21;}
</style>
<g>
	<path class="st0" d="M351.453,267.333H310.16c-15.934,10.312-34.918,16.3-55.299,16.3s-39.365-5.988-55.299-16.3H158.27
		c-33.479,0-60.62,27.185-60.62,60.72v91.751c0,8.583,6.947,15.542,15.515,15.542h10.781V495h130.915h130.915v-59.655h10.781
		c8.569,0,15.515-6.958,15.515-15.542v-91.751C412.073,294.518,384.933,267.333,351.453,267.333z"/>
</g>
<g>
	<path class="st3" d="M114.687,223.025H91.166c0.65-2.061,1.007-4.252,1.007-6.528c0-11.984-9.715-21.699-21.7-21.699
		c-11.474,0-20.862,8.908-21.641,20.184c-2.794-1.311-5.912-2.047-9.203-2.047c-11.984,0-21.7,9.715-21.7,21.7s9.715,21.7,21.7,21.7
		c3.291,0,6.409-0.736,9.203-2.048c0.779,11.277,10.167,20.185,21.641,20.185c11.984,0,21.7-9.715,21.7-21.7
		c0-2.276-0.357-4.467-1.007-6.528h23.522V223.025z"/>
</g>
<g>
	<g>
		<ellipse class="st2" cx="254.861" cy="181.423" rx="102.041" ry="102.209"/>
	</g>
</g>
<g>
	<path class="st2" d="M358.675,347.862v34.435l-39.818-19.495c-3.969-1.961-5.597-6.768-3.637-10.737l1.021-2.068
		c5.06-10.244,0.857-22.65-9.387-27.71l-32.166-15.888c-6.496-3.208-14.363-0.543-17.572,5.953l-4.013,8.125l-16.988-8.391
		c-6.281-3.103-13.893-0.517-17,5.775l-11.841,23.973c-2.067,4.185-1.609,8.949,0.77,12.588l-56.997,27.876v-34.435H97.65v71.941
		c0,8.583,6.947,15.541,15.515,15.541h23.607c4.894,0,9.72-1.143,14.094-3.337l104.456-51.942l103.534,51.942
		c4.374,2.194,9.2,3.337,14.094,3.337h23.607c8.569,0,15.515-6.958,15.515-15.541v-71.941H358.675z"/>
</g>
<g>
	<path class="st3" d="M287.072,249.938h-67.935c-4.852,0-8.786-3.934-8.786-8.786v-2.929c0-11.053,8.96-20.013,20.013-20.013h45.482
		c11.053,0,20.013,8.96,20.013,20.013v2.929C295.858,246.005,291.924,249.938,287.072,249.938z"/>
</g>
<g>
	<path class="st0" d="M381.288,54.414L381.288,54.414c-6.193-1.064-12.322,2.198-14.896,7.931l-14.841,33.047l33.047-14.841
		c5.732-2.574,8.995-8.703,7.931-14.896v0C391.54,59.905,387.037,55.402,381.288,54.414z"/>
</g>
<g>
	<path class="st0" d="M416.467,114.168L416.467,114.168c-3.627-5.132-10.267-7.158-16.141-4.925l-33.862,12.873l33.862,12.873
		c5.874,2.233,12.514,0.207,16.141-4.925v0C419.834,125.301,419.834,118.932,416.467,114.168z"/>
</g>
<path class="st4" d="M233.466,16.535c0-2.761,2.238-5,5-5H245V5c0-2.761,2.238-5,5-5s5,2.239,5,5v6.535h6.534c2.762,0,5,2.239,5,5
	s-2.238,5-5,5H255v6.534c0,2.761-2.238,5-5,5s-5-2.239-5-5v-6.534h-6.534C235.704,21.535,233.466,19.296,233.466,16.535z
	 M162.337,21.535h6.534v6.534c0,2.761,2.238,5,5,5s5-2.239,5-5v-6.534h6.535c2.762,0,5-2.239,5-5s-2.238-5-5-5h-6.535V5
	c0-2.761-2.238-5-5-5s-5,2.239-5,5v6.535h-6.534c-2.762,0-5,2.239-5,5S159.575,21.535,162.337,21.535z M314.594,21.535h6.535v6.534
	c0,2.761,2.238,5,5,5s5-2.239,5-5v-6.534h6.534c2.762,0,5-2.239,5-5s-2.238-5-5-5h-6.534V5c0-2.761-2.238-5-5-5s-5,2.239-5,5v6.535
	h-6.535c-2.762,0-5,2.239-5,5S311.832,21.535,314.594,21.535z M147.82,181.423c0-59.115,48.019-107.209,107.041-107.209
	s107.041,48.094,107.041,107.209c0,32.261-14.303,61.238-36.889,80.909h26.439c36.183,0,65.62,29.482,65.62,65.72v19.81v71.941v0
	c0,8.495-5.177,15.802-12.538,18.924c-2.454,1.041-5.15,1.617-7.978,1.617h-5.781v36.313c0,2.761-2.238,5-5,5s-5-2.239-5-5v-36.313
	h-7.826c-5.644,0-11.293-1.338-16.336-3.869l-101.302-50.822l-102.22,50.831c-5.029,2.523-10.678,3.86-16.32,3.86h-7.825v36.313
	c0,2.761-2.238,5-5,5s-5-2.239-5-5v-36.313h-5.782c-2.828,0-5.524-0.576-7.978-1.617c-7.36-3.123-12.537-10.43-12.537-18.924v0
	v-71.941v-19.81c0-36.238,29.437-65.72,65.619-65.72h26.439C162.123,242.662,147.82,213.685,147.82,181.423z M244.133,380.045
	l-33.353-16.733c-0.011-0.005-0.021-0.013-0.033-0.018c-0.43-0.215-0.847-0.451-1.257-0.7c-0.181-0.109-0.358-0.223-0.534-0.338
	c-0.219-0.144-0.432-0.293-0.644-0.446c-0.528-0.379-1.035-0.781-1.515-1.213l-53.55,26.191c-1.55,0.757-3.38,0.664-4.845-0.25
	c-1.463-0.914-2.353-2.517-2.353-4.242v-29.435H102.65v66.941c0,5.086,3.611,9.342,8.398,10.327
	c0.684,0.141,1.392,0.214,2.116,0.214h10.782h12.825c4.094,0,8.191-0.971,11.852-2.807L244.133,380.045z M396.558,430.345
	c5.798,0,10.516-4.729,10.516-10.542v-66.94l-43.398,0v29.435c0,1.726-0.89,3.329-2.354,4.242c-1.464,0.914-3.296,1.007-4.845,0.249
	l-39.818-19.496c-6.45-3.186-9.1-11.006-5.922-17.441l1.022-2.068c1.855-3.757,2.137-8.012,0.793-11.981
	c-1.345-3.969-4.154-7.176-7.911-9.032l-32.166-15.888c-1.944-0.96-4.146-1.106-6.2-0.41c-2.054,0.696-3.714,2.149-4.674,4.094
	l-1.799,3.642l25.452,12.571c2.477,1.223,3.492,4.221,2.27,6.697c-0.872,1.764-2.645,2.787-4.487,2.787
	c-0.743,0-1.498-0.167-2.21-0.518l-29.936-14.786l-16.988-8.391c-1.072-0.529-2.228-0.796-3.39-0.796
	c-0.832,0-1.667,0.137-2.479,0.412c-1.947,0.662-3.522,2.043-4.435,3.89l-11.841,23.974c-0.913,1.847-1.053,3.938-0.395,5.887
	c0.206,0.608,0.489,1.175,0.827,1.702c0.012,0.018,0.028,0.031,0.039,0.049c0.375,0.573,0.811,1.08,1.302,1.521
	c0.027,0.024,0.055,0.046,0.082,0.069c0.201,0.176,0.413,0.337,0.632,0.49c0.062,0.043,0.122,0.087,0.185,0.129
	c0.258,0.168,0.524,0.327,0.804,0.465c0.009,0.004,0.018,0.009,0.027,0.014l42.301,21.222c0.001,0,0.002,0.001,0.003,0.002
	l103.531,51.94c3.659,1.836,7.757,2.807,11.852,2.807h12.826H396.558z M289.234,282.962c-0.038,0.013-0.075,0.026-0.113,0.039
	c-0.747,0.253-1.496,0.497-2.249,0.733c-0.253,0.08-0.508,0.156-0.762,0.233c-1.072,0.327-2.148,0.638-3.23,0.931
	c-0.493,0.134-0.986,0.271-1.482,0.398c-0.51,0.13-1.022,0.253-1.534,0.376c-0.597,0.144-1.197,0.282-1.798,0.416
	c-0.441,0.098-0.882,0.197-1.324,0.29c-1.009,0.211-2.022,0.41-3.042,0.592c-0.251,0.045-0.503,0.083-0.755,0.125
	c-0.861,0.147-1.726,0.285-2.594,0.412c-0.34,0.049-0.679,0.097-1.02,0.143c-0.91,0.124-1.824,0.236-2.741,0.337
	c-0.199,0.022-0.397,0.048-0.597,0.068c-1.107,0.115-2.22,0.211-3.337,0.292c-0.275,0.02-0.551,0.035-0.826,0.053
	c-0.875,0.057-1.753,0.103-2.634,0.138c-0.316,0.013-0.632,0.026-0.948,0.036c-1.125,0.035-2.254,0.059-3.388,0.059
	s-2.262-0.024-3.388-0.059c-0.316-0.01-0.632-0.023-0.948-0.036c-0.881-0.036-1.759-0.082-2.634-0.138
	c-0.275-0.018-0.551-0.033-0.826-0.053c-1.117-0.081-2.23-0.177-3.337-0.292c-0.199-0.021-0.398-0.046-0.597-0.068
	c-0.917-0.101-1.831-0.213-2.741-0.337c-0.34-0.046-0.68-0.094-1.02-0.143c-0.868-0.127-1.733-0.264-2.594-0.412
	c-0.251-0.043-0.504-0.081-0.755-0.125c-1.019-0.182-2.032-0.381-3.042-0.592c-0.442-0.092-0.883-0.192-1.324-0.29
	c-0.601-0.133-1.2-0.272-1.798-0.416c-0.512-0.123-1.024-0.246-1.534-0.376c-0.496-0.127-0.989-0.264-1.482-0.398
	c-1.082-0.293-2.158-0.604-3.23-0.931c-0.254-0.078-0.509-0.154-0.762-0.233c-0.752-0.236-1.502-0.48-2.249-0.733
	c-0.038-0.013-0.075-0.026-0.113-0.039c-7.81-2.651-15.323-6.199-22.384-10.63H158.27c-30.669,0-55.619,24.996-55.619,55.72v14.81
	h43.397v-34.5c0-2.761,2.238-5,5-5s5,2.239,5,5v39.49c0,0.003,0.001,0.006,0.001,0.01v26.423l45.525-22.267
	c-1.112-4.151-0.703-8.511,1.219-12.401l11.84-23.973c2.094-4.239,5.711-7.411,10.185-8.93c4.479-1.521,9.277-1.206,13.513,0.887
	l12.506,6.177l1.798-3.641c2.144-4.339,5.848-7.584,10.432-9.137c4.582-1.553,9.497-1.229,13.837,0.916l32.166,15.888
	c6.152,3.039,10.753,8.291,12.954,14.79c2.202,6.499,1.74,13.466-1.299,19.618l-1.021,2.068c-0.735,1.491-0.122,3.303,1.369,4.04
	l32.604,15.963v-26.42v-39.5c0-2.761,2.238-5,5-5s5,2.239,5,5v34.5h43.398v-14.81c0-30.724-24.951-55.72-55.62-55.72h-39.835
	C304.557,276.764,297.045,280.312,289.234,282.962z M157.82,181.423c0,43.418,28.565,80.276,67.857,92.714
	c0.208,0.065,0.415,0.132,0.623,0.196c0.622,0.192,1.246,0.379,1.873,0.56c0.374,0.107,0.75,0.207,1.125,0.31
	c0.833,0.228,1.671,0.445,2.513,0.652c0.553,0.135,1.106,0.269,1.661,0.394c0.425,0.096,0.85,0.189,1.277,0.279
	c0.712,0.15,1.426,0.293,2.141,0.427c0.26,0.049,0.518,0.103,0.778,0.149c0.968,0.174,1.939,0.33,2.914,0.474
	c0.301,0.044,0.603,0.085,0.905,0.127c0.799,0.11,1.599,0.211,2.402,0.302c0.243,0.027,0.484,0.058,0.728,0.083
	c1.021,0.108,2.045,0.2,3.071,0.275c0.213,0.016,0.427,0.026,0.641,0.041c0.847,0.057,1.695,0.102,2.544,0.137
	c0.284,0.011,0.567,0.023,0.851,0.032c1.044,0.034,2.089,0.056,3.137,0.056s2.093-0.022,3.137-0.056
	c0.284-0.009,0.568-0.021,0.851-0.032c0.85-0.035,1.698-0.08,2.544-0.137c0.213-0.015,0.428-0.025,0.641-0.041
	c1.026-0.075,2.05-0.167,3.071-0.275c0.243-0.025,0.485-0.056,0.728-0.083c0.802-0.091,1.603-0.192,2.402-0.302
	c0.302-0.042,0.604-0.083,0.905-0.127c0.974-0.144,1.946-0.3,2.914-0.474c0.26-0.047,0.518-0.101,0.778-0.149
	c0.716-0.134,1.429-0.277,2.141-0.427c0.427-0.09,0.853-0.183,1.277-0.279c0.555-0.125,1.108-0.259,1.661-0.394
	c0.842-0.207,1.68-0.424,2.513-0.652c0.375-0.103,0.751-0.203,1.125-0.31c0.627-0.18,1.251-0.367,1.873-0.56
	c0.208-0.064,0.415-0.13,0.623-0.196c39.292-12.438,67.857-49.296,67.857-92.714c0-53.601-43.532-97.209-97.041-97.209
	S157.82,127.822,157.82,181.423z M440.835,490h-3.813c-2.762,0-5,2.239-5,5s2.238,5,5,5h3.813c2.762,0,5-2.239,5-5
	S443.597,490,440.835,490z M419.862,490H80.138c-2.762,0-5,2.239-5,5s2.238,5,5,5h339.725c2.762,0,5-2.239,5-5
	S422.624,490,419.862,490z M62.978,490h-3.813c-2.762,0-5,2.239-5,5s2.238,5,5,5h3.813c2.762,0,5-2.239,5-5S65.739,490,62.978,490z
	 M234.756,180.898c1.714-2.166,1.347-5.31-0.818-7.023c-2.165-1.713-5.31-1.347-7.023,0.819c-2.376,3.003-5.93,4.725-9.751,4.725
	s-7.376-1.722-9.752-4.725c-1.713-2.167-4.858-2.532-7.023-0.819c-2.165,1.713-2.532,4.858-0.818,7.023
	c4.283,5.415,10.696,8.521,17.594,8.521C224.06,189.419,230.473,186.313,234.756,180.898z M309.335,173.875
	c-2.166-1.713-5.31-1.347-7.023,0.819c-2.376,3.003-5.931,4.725-9.752,4.725s-7.375-1.722-9.751-4.725
	c-1.714-2.167-4.857-2.532-7.023-0.819c-2.165,1.713-2.532,4.858-0.818,7.023c4.283,5.415,10.696,8.521,17.593,8.521
	c6.897,0,13.311-3.106,17.594-8.521C311.867,178.733,311.5,175.588,309.335,173.875z M230.363,213.21h45.481
	c13.793,0,25.014,11.221,25.014,25.013v2.929c0,7.602-6.185,13.786-13.787,13.786h-67.935c-7.602,0-13.786-6.185-13.786-13.786
	v-2.929C205.351,224.431,216.571,213.21,230.363,213.21z M275.845,223.21h-45.481c-8.278,0-15.013,6.735-15.013,15.013v2.929
	c0,2.088,1.698,3.786,3.786,3.786h67.935c2.088,0,3.787-1.698,3.787-3.786v-2.929C290.858,229.945,284.123,223.21,275.845,223.21z
	 M97.173,252.771c0-0.51-0.015-1.02-0.044-1.528h17.559c2.762,0,5-2.239,5-5s-2.238-5-5-5H91.166c-1.593,0-3.091,0.759-4.032,2.044
	c-0.942,1.285-1.216,2.941-0.736,4.461c0.515,1.629,0.775,3.319,0.775,5.023c0,9.208-7.491,16.7-16.699,16.7
	c-8.736,0-16.052-6.821-16.653-15.529c-0.114-1.646-1.032-3.129-2.454-3.966c-1.424-0.836-3.167-0.915-4.659-0.216
	c-2.225,1.044-4.606,1.574-7.078,1.574c-9.208,0-16.699-7.492-16.699-16.7s7.491-16.7,16.699-16.7c2.472,0,4.854,0.529,7.079,1.574
	c1.493,0.7,3.236,0.62,4.658-0.216c1.422-0.836,2.34-2.32,2.454-3.965c0.602-8.708,7.917-15.529,16.653-15.529
	c9.208,0,16.699,7.491,16.699,16.699c0,1.704-0.261,3.394-0.775,5.023c-0.479,1.519-0.206,3.176,0.736,4.461
	c0.941,1.285,2.439,2.044,4.032,2.044h23.521c2.762,0,5-2.239,5-5s-2.238-5-5-5H97.129c0.029-0.508,0.044-1.018,0.044-1.528
	c0-14.722-11.978-26.699-26.699-26.699c-11.83,0-22.03,7.824-25.462,18.679c-1.758-0.36-3.555-0.542-5.383-0.542
	c-14.722,0-26.699,11.978-26.699,26.7s11.978,26.7,26.699,26.7c1.828,0,3.626-0.182,5.383-0.542
	c3.433,10.855,13.632,18.679,25.462,18.679C85.195,279.471,97.173,267.494,97.173,252.771z M133.796,228.025h4.551
	c2.762,0,5-2.239,5-5s-2.238-5-5-5h-4.551c-2.762,0-5,2.239-5,5S131.034,228.025,133.796,228.025z M133.796,251.244h4.551
	c2.762,0,5-2.239,5-5s-2.238-5-5-5h-4.551c-2.762,0-5,2.239-5,5S131.034,251.244,133.796,251.244z M348.016,98.927
	c-1.469-1.468-1.877-3.69-1.026-5.584l14.842-33.046c3.511-7.816,11.855-12.262,20.304-10.81c7.82,1.344,13.977,7.5,15.321,15.321
	c1.451,8.444-2.994,16.793-10.81,20.304L353.6,99.953c-0.658,0.295-1.355,0.439-2.048,0.439
	C350.252,100.392,348.974,99.885,348.016,98.927z M361.5,85.442l21.049-9.453c3.652-1.641,5.73-5.542,5.052-9.488
	c-0.628-3.655-3.505-6.532-7.159-7.16c-0.499-0.086-0.998-0.127-1.491-0.127c-3.406,0-6.563,1.988-7.996,5.179L361.5,85.442z
	 M364.688,117.443l33.861-12.874c8.007-3.045,17.056-0.284,22.001,6.714l-4.084,2.885l4.085-2.885
	c4.578,6.48,4.578,15.187-0.001,21.667c-3.599,5.092-9.37,7.941-15.333,7.941c-2.23,0-4.487-0.399-6.668-1.228l-33.861-12.873
	c-1.94-0.738-3.224-2.598-3.224-4.674C361.465,120.041,362.748,118.181,364.688,117.443z M380.535,122.117l21.567,8.199
	c3.744,1.423,7.971,0.134,10.28-3.137c2.141-3.028,2.142-7.097,0.001-10.125c-2.311-3.27-6.537-4.562-10.281-3.137L380.535,122.117z
	 M203.49,163.227c0.559,0,1.126-0.094,1.683-0.293l27.345-9.769c2.6-0.929,3.955-3.79,3.026-6.391
	c-0.93-2.6-3.787-3.957-6.392-3.026l-27.345,9.769c-2.6,0.929-3.955,3.79-3.026,6.391
	C199.512,161.952,201.437,163.227,203.49,163.227z M277.205,153.165l27.345,9.769c0.557,0.199,1.124,0.293,1.683,0.293
	c2.053,0,3.979-1.275,4.709-3.319c0.929-2.601-0.427-5.461-3.026-6.391l-27.345-9.769c-2.603-0.93-5.463,0.426-6.392,3.026
	S274.605,152.235,277.205,153.165z"/>
</svg>
