<?xml version="1.0" encoding="utf-8"?>
<!-- Generator: Adobe Illustrator 23.0.0, SVG Export Plug-In . SVG Version: 6.00 Build 0)  -->
<svg version="1.1" id="Layer_1" xmlns="http://www.w3.org/2000/svg" xmlns:xlink="http://www.w3.org/1999/xlink" x="0px" y="0px"
	 viewBox="0 0 500 500" style="enable-background:new 0 0 500 500;" xml:space="preserve">
<style type="text/css">
	.st0{fill:#83E1E5;}
	.st1{fill:#AAB1BA;}
	.st2{fill:#FDDF7F;}
	.st3{fill:#ECF4F7;}
	.st4{fill:#1C1D21;}
</style>
<g>
	<path class="st1" d="M244.726,69.075V5H214.84v88.688h35.6v64.723c0,2.586,3.622,3.178,4.446,0.728l30.275-90.063H244.726z"/>
</g>
<g>
	<path class="st1" d="M94.905,29.677l64.895,64.895L133.75,120.62l47.359,47.359c1.892,1.892-0.325,4.976-2.721,3.785
		l-88.054-43.748l29.587-29.587L73.036,51.545L94.905,29.677z"/>
</g>
<g>
	<path class="st1" d="M405.096,29.677l-64.895,64.895l26.049,26.049l-47.359,47.359c-1.892,1.892,0.325,4.976,2.721,3.785
		l88.054-43.748L380.08,98.43l46.885-46.885L405.096,29.677z"/>
</g>
<g>
	<g>
		<path class="st0" d="M351.134,472.293l-38.14-116.454c-16.919,14.55-38.929,23.346-62.994,23.346s-46.074-8.796-62.994-23.346
			l-38.14,116.454C144.43,485.839,131.791,495,117.536,495h264.928C368.21,495,355.571,485.839,351.134,472.293z"/>
	</g>
</g>
<g>
	<g>
		<path class="st2" d="M380.771,375.292l-16.829-38.793c-2.206-5.085-3.345-10.57-3.345-16.113V290.81
			c0-8.295-1.676-16.505-4.928-24.137l-15.184-35.637c-2.182-5.12-7.21-8.443-12.776-8.443h-1.853
			c-17.705-22.382-45.102-36.745-75.855-36.745c-30.753,0-58.15,14.363-75.855,36.745h-1.853c-5.566,0-10.594,3.323-12.776,8.443
			l-15.184,35.637c-3.252,7.631-4.928,15.841-4.928,24.137v29.575c0,5.543-1.138,11.028-3.345,16.113l-16.829,38.793H84.533v87.644
			l0.021-0.039C85.002,479.931,98.856,495,117.536,495h0c14.254,0,26.894-9.161,31.33-22.707l38.14-116.454
			c16.919,14.549,38.929,23.346,62.994,23.346s46.074-8.797,62.994-23.346l38.14,116.454C355.571,485.839,368.21,495,382.464,495h0
			c18.68,0,32.534-15.069,32.983-32.103l0.021,0.039v-87.644H380.771z"/>
	</g>
</g>
<g>
	<g>
		<path class="st0" d="M139.404,299.226h-6.64c-26.638,0-48.232,21.594-48.232,48.231v27.834h34.698l16.829-38.793
			c0.552-1.271,1.036-2.568,1.453-3.883c0.417-1.316,0.766-2.651,1.046-4.001c0.56-2.7,0.845-5.457,0.845-8.229L139.404,299.226
			L139.404,299.226z"/>
	</g>
</g>
<g>
	<g>
		<path class="st0" d="M367.237,299.226h-6.64h0v21.159c0,2.772,0.285,5.529,0.845,8.229c0.28,1.35,0.629,2.685,1.046,4.001
			c0.417,1.315,0.902,2.612,1.453,3.883l16.829,38.793h34.697v-27.834C415.468,320.82,393.874,299.226,367.237,299.226z"/>
	</g>
</g>
<path class="st4" d="M93.977,271.764v-6.535h-6.535c-2.761,0-5-2.239-5-5s2.239-5,5-5h6.535v-6.535c0-2.761,2.239-5,5-5s5,2.239,5,5
	v6.535h6.535c2.761,0,5,2.239,5,5s-2.239,5-5,5h-6.535v6.535c0,2.761-2.239,5-5,5S93.977,274.525,93.977,271.764z M401.024,276.364
	c2.761,0,5-2.239,5-5v-6.534h6.535c2.761,0,5-2.239,5-5s-2.239-5-5-5h-6.535v-6.535c0-2.761-2.239-5-5-5s-5,2.239-5,5v6.535h-6.535
	c-2.761,0-5,2.239-5,5s2.239,5,5,5h6.535v6.534C396.024,274.125,398.263,276.364,401.024,276.364z M52.151,490h-3.813
	c-2.761,0-5,2.239-5,5s2.239,5,5,5h3.813c2.761,0,5-2.239,5-5S54.912,490,52.151,490z M435.69,495c0,2.761-2.239,5-5,5h-90.144
	c-2.761,0-5-2.239-5-5s2.239-5,5-5h16.213c-4.673-4.298-8.298-9.801-10.377-16.15l-35.907-109.636
	c-17.437,12.912-38.634,19.971-60.475,19.971c-21.841,0-43.039-7.059-60.475-19.971L153.618,473.85
	c-2.079,6.349-5.704,11.852-10.377,16.15h16.213c2.761,0,5,2.239,5,5s-2.239,5-5,5H69.311c-2.761,0-5-2.239-5-5s2.239-5,5-5h22.423
	c-7.149-6.583-11.74-15.905-12.161-26.428c-0.027-0.208-0.041-0.421-0.041-0.636v-87.645c0-0.071,0.018-0.137,0.021-0.207
	l-0.021-27.624c0-29.356,23.879-53.235,53.231-53.235h1.64v-3.416c0-9.019,1.792-17.799,5.328-26.097l15.185-35.637
	c2.901-6.81,9.471-11.254,16.836-11.463c19.406-23.394,47.783-36.764,78.248-36.764s58.842,13.371,78.247,36.764
	c7.365,0.209,13.935,4.654,16.836,11.463l15.185,35.637c3.535,8.298,5.328,17.078,5.328,26.097v3.416h1.64
	c29.352,0,53.231,23.879,53.231,53.231v27.834v87.645c0,0.216-0.014,0.43-0.041,0.64c-0.422,10.521-5.012,19.842-12.16,26.424
	h22.424C433.452,490,435.69,492.239,435.69,495z M365.597,304.226v16.159c0,4.887,0.986,9.639,2.932,14.124l15.523,35.783h26.417
	v-22.834c0-23.838-19.394-43.231-43.231-43.231H365.597z M89.533,347.458l0.017,22.834h26.399l15.523-35.783
	c1.945-4.484,2.932-9.236,2.932-14.124v-16.159h-1.64C108.926,304.226,89.533,323.62,89.533,347.458z M182.253,354.289
	c0.001-0.002,0.001-0.004,0.001-0.006l4.358-13.306c2.822-8.616,4.252-17.583,4.252-26.65V290.81c0-9.02,1.793-17.8,5.329-26.097
	l8.971-21.055c1.546-3.628,1.186-7.597-0.989-10.888s-5.684-5.178-9.628-5.178h-20.401h0h-1.853c-3.568,0-6.777,2.121-8.176,5.403
	l-15.184,35.637c-3.004,7.051-4.528,14.513-4.528,22.177v29.575c0,6.265-1.264,12.355-3.758,18.103l-16.829,38.793
	c0,0-0.001,0.001-0.001,0.001l-15.595,35.949c-0.818,1.885-2.658,3.012-4.589,3.012c-0.664,0-1.339-0.133-1.987-0.415
	c-2.534-1.099-3.696-4.043-2.597-6.577l12.564-28.96H89.533v82.148c0.01,0.108,0.017,0.217,0.019,0.327
	C89.954,478.038,102.246,490,117.537,490c12.124,0,22.805-7.741,26.579-19.263L182.253,354.289z M307.184,354.162l-3.299-10.073
	c-3.152-9.623-4.75-19.636-4.75-29.763V290.81c0-7.665-1.523-15.126-4.528-22.177l-8.972-21.055
	c-2.843-6.673-2.153-14.27,1.847-20.321s10.718-9.664,17.971-9.664h9.271c-17.115-17.113-40.169-26.744-64.724-26.744
	c-24.555,0-47.609,9.631-64.724,26.744h9.271c7.253,0,13.972,3.613,17.971,9.664s4.689,13.648,1.847,20.321l-8.971,21.055
	c-3.005,7.051-4.528,14.512-4.528,22.177v23.517c0,10.126-1.598,20.14-4.75,29.763l-3.299,10.073
	c16.195,12.935,36.372,20.023,57.184,20.023C270.812,374.185,290.989,367.097,307.184,354.162z M382.464,490
	c15.291,0,27.583-11.962,27.985-27.233c0.002-0.11,0.009-0.219,0.019-0.328v-82.147h-22.073l12.564,28.96
	c1.099,2.533-0.063,5.478-2.597,6.577c-0.648,0.281-1.323,0.415-1.987,0.415c-1.932,0-3.771-1.126-4.589-3.012l-15.572-35.895
	c-0.009-0.02-0.021-0.036-0.029-0.056l-16.829-38.793c-2.494-5.748-3.758-11.838-3.758-18.103V290.81
	c0-7.664-1.523-15.125-4.528-22.177l-15.184-35.637c-1.399-3.282-4.608-5.403-8.176-5.403h-1.853h-20.402
	c-3.944,0-7.454,1.887-9.628,5.178s-2.536,7.259-0.989,10.888l8.971,21.055c3.535,8.297,5.328,17.077,5.328,26.097v23.517
	c0,9.068,1.431,18.034,4.252,26.65l4.358,13.306l38.14,116.455C359.66,482.259,370.34,490,382.464,490z M451.664,490h-3.813
	c-2.761,0-5,2.239-5,5s2.239,5,5,5h3.813c2.761,0,5-2.239,5-5S454.425,490,451.664,490z M277.652,335.771
	c-4.248,0-8.197,1.913-10.834,5.247c-0.729,0.922-1.82,1.451-2.992,1.451s-2.262-0.528-2.992-1.451
	c-2.638-3.334-6.587-5.246-10.834-5.246s-8.196,1.912-10.835,5.247c-0.729,0.922-1.819,1.45-2.991,1.45s-2.262-0.529-2.992-1.451
	c-2.637-3.334-6.586-5.247-10.834-5.247c-4.247,0-8.196,1.912-10.834,5.246c-1.713,2.166-1.347,5.31,0.818,7.023
	c2.167,1.714,5.311,1.347,7.023-0.818c0.73-0.922,1.82-1.451,2.992-1.451s2.262,0.529,2.991,1.451
	c2.638,3.334,6.586,5.247,10.834,5.247c4.249,0,8.197-1.913,10.833-5.246c0.73-0.922,1.82-1.451,2.992-1.451s2.262,0.529,2.991,1.45
	c2.637,3.334,6.586,5.247,10.834,5.247c4.248,0,8.197-1.912,10.834-5.247c0.729-0.922,1.819-1.451,2.991-1.451
	s2.262,0.529,2.992,1.451c1.713,2.165,4.857,2.533,7.023,0.818c2.166-1.713,2.532-4.858,0.818-7.023
	C285.848,337.683,281.899,335.771,277.652,335.771z M112.85,98.43l-26.051,26.051c-1.138,1.138-1.659,2.754-1.399,4.343
	s1.269,2.955,2.71,3.671l88.054,43.748c1.056,0.524,2.178,0.776,3.287,0.776c2.302,0,4.539-1.086,5.967-3.072
	c2.115-2.943,1.791-6.939-0.772-9.502l-43.823-43.824l22.514-22.513c0.938-0.938,1.464-2.209,1.464-3.536s-0.527-2.598-1.464-3.536
	L98.44,26.141c-1.953-1.952-5.118-1.952-7.071,0c-1.953,1.953-1.953,5.119,0,7.071l61.359,61.359l-22.514,22.513
	c-0.938,0.938-1.464,2.209-1.464,3.536s0.527,2.598,1.464,3.536l35.955,35.955l-67.381-33.477l24.668-24.668
	c1.953-1.953,1.953-5.119,0-7.071L76.572,48.009c-1.953-1.952-5.118-1.952-7.071,0c-1.953,1.953-1.953,5.119,0,7.071L112.85,98.43z
	 M320.551,177.019c1.108,0,2.231-0.252,3.287-0.776l88.054-43.748c1.441-0.716,2.45-2.083,2.71-3.671s-0.261-3.205-1.399-4.343
	L387.151,98.43l43.35-43.35c1.953-1.953,1.953-5.119,0-7.071c-1.953-1.952-5.118-1.952-7.071,0l-46.885,46.885
	c-1.953,1.953-1.953,5.119,0,7.071l24.668,24.668l-67.381,33.477l35.955-35.955c0.938-0.938,1.464-2.209,1.464-3.536
	s-0.527-2.598-1.464-3.536l-22.514-22.513l61.359-61.359c1.953-1.953,1.953-5.119,0-7.071c-1.953-1.952-5.118-1.952-7.071,0
	l-64.895,64.895c-0.938,0.938-1.464,2.209-1.464,3.536s0.527,2.598,1.464,3.536l22.514,22.513l-43.823,43.824
	c-2.563,2.563-2.888,6.56-0.772,9.502C316.012,175.933,318.249,177.019,320.551,177.019z M214.84,98.688h30.6v59.723
	c0,3.585,2.568,6.608,6.106,7.187c0.401,0.065,0.801,0.098,1.195,0.098c3.085,0,5.871-1.95,6.884-4.964L289.9,70.669
	c0.513-1.526,0.26-3.205-0.679-4.512c-0.939-1.307-2.451-2.082-4.06-2.082h-35.435V5c0-2.761-2.239-5-5-5s-5,2.239-5,5v64.076
	c0,2.761,2.239,5,5,5h33.479l-22.766,67.722v-48.11c0-2.761-2.239-5-5-5h-30.6V5c0-2.761-2.239-5-5-5s-5,2.239-5,5v88.688
	C209.84,96.449,212.079,98.688,214.84,98.688z"/>
</svg>
